<?xml version="1.0" encoding="UTF-8"?>
<svg enable-background="new 0 0 595.28 841.89" viewBox="0 0 595.28 841.89" xmlns="http://www.w3.org/2000/svg">
 <path d="m329.25 379.62a35.125 41.125 0 1 0 -70.25 0 35.125 41.125 0 1 0 70.25 0" fill="#bf0411"/>
 <path d="m307.402,423.507c-3.752.396-10.382,13.681-9.049,17.448s10.477,2.776 13.737,8.129-4.846,14.871 0,19.035 18.525.198 16.939,6.939-16.654,11.104-13.682,16.457c2.975,5.354 19.432-.793 19.828,5.75" fill="#fff" stroke="#a2a1a6" stroke-miterlimit="10"/>
 <path d="m302.18 424.23c1.061-1.818 11.366 2.273 12.729 1.667s-3.789-8.639-5.455-9.094c-1.667-0.454-13.488 3.487-14.549 4.548s-3.637 8.032-2.122 8.789 13.337-3.182 13.337-3.182" fill="#bf0411"/>
 <path d="m322.11 373.14c1.047-2.951-10.819-8.785-14.01-2.947 4.963 5.619 4.714 28.181 4.35 34.344 7.06-4.376 8.613-28.445 9.66-31.397z" fill="#eccfd3"/>
 <path d="m294.91 421.36c2.092 0.895 12.052-2.795 14.549-4.548" fill="none" stroke="#a2a1a6" stroke-miterlimit="10"/>
 <path d="m294.12 420.61c2.092 0.895 13.794-2.795 16.291-4.548" fill="none" stroke="#a2a1a6" stroke-miterlimit="10"/>
 <path d="m270.3,355.146c-.012-1.276 5.341-1.945 5.792.73-2.661,1.505-5.571,10.235-6.25,12.658-2.138-2.627.469-12.109.458-13.388z" fill="#eccfd3"/>
</svg>
