<?xml version='1.0' encoding='utf-8'?>
<svg xmlns="http://www.w3.org/2000/svg" version="1.1" width="720px" height="1358px" viewBox="0 0 720 1358"> <g id="layer1"> <g> <g style="fill:rgb(0,0,0); fill-opacity:1.0; stroke-linejoin: miter"> <path d="M559.60254,435.70416C555.81396,435.83185,555.1036,435.88654,551.40607,436.26886C542.11664,437.2525,531.44305,439.6568,522.44507,442.80792L519.25757,443.919L516.161,444.10114C506.70776,444.62946,500.5149,445.2669,492.84656,446.56012C472.50104,449.96637,452.97516,457.34283,437.56573,467.47028C421.7738,477.8343,409.64294,490.63898,400.06213,507.01385C398.3864,509.85516,395.14423,516.2303,394.19708,518.5253C393.851,519.3631,393.54138,520.03705,393.48676,520.03705C393.43213,520.03705,392.57605,519.29034,391.57422,518.3979C389.37024,516.4123,386.98413,514.75494,385.54523,514.20844C381.72018,512.7878,378.478,513.5527,375.4908,516.57623C374.81686,517.2502,373.90616,518.36127,373.45078,519.07184L372.63113,520.3649L371.3561,520.4743C368.40536,520.7657,365.43643,521.18463,364.01572,521.5124C359.49857,522.5507,356.40207,524.62714,354.9631,527.5961C354.08884,529.36285,353.76096,530.72906,353.6517,533.0787L353.5424,535.1186L352.08524,535.5192C347.69553,536.7216,344.10727,538.79803,341.99442,541.3298C339.51724,544.33514,338.36972,548.5428,338.8433,553.0235C338.9708,554.3167,338.9708,554.95416,338.82504,555.22736C338.7158,555.4277,337.51364,556.7027,336.12936,558.0689C331.5939,562.5859,329.53568,566.48395,329.53568,570.6186C329.5175,572.5859,329.80893,573.91534,330.62857,575.6822C331.8489,578.2869,334.01645,580.6911,337.0947,582.8405L338.53366,583.86053L337.7322,584.49786C336.16574,585.7364,332.88718,589.17914,332.03104,590.47235C329.9,593.7327,329.40817,596.9202,330.64676,599.54315C331.77606,601.9291,334.07104,603.8053,338.20575,605.75415C340.00897,606.59204,340.4643,606.88354,340.39148,607.12024C340.33685,607.30237,340.1729,608.3224,340.02722,609.4153C339.20752,615.5172,340.42792,620.1981,343.74292,623.7136C344.48975,624.5149,345.60083,625.5167,346.2201,625.97205C348.71545,627.739,352.39484,629.17786,356.23804,629.8882C357.4402,630.1068,358.56952,630.32544,358.7334,630.3982C358.9702,630.4894,358.62415,630.963,357.02124,632.69324C338.07825,653.20264,337.31317,654.05884,336.20215,656.281C335.45532,657.81104,333.72498,663.34814,333.0146,666.57227C332.04926,670.8707,331.6667,676.2439,332.08563,679.5044C332.54102,683.0563,333.72498,686.29846,335.7832,689.74084C337.6046,692.74634,337.87787,693.402,338.55176,696.11597C339.86322,701.3253,340.04535,704.713,339.20752,708.3744C338.91608,709.6493,338.825,710.4508,338.8979,711.4707C339.08002,714.0936,341.21112,722.4175,343.34216,728.77454L344.70825,732.8727L344.39862,734.6942C343.3786,740.66846,341.33862,749.885,339.84497,755.27637C338.8432,758.901,338.18744,761.8883,337.95068,764.0193C337.73212,766.0593,336.87604,768.66406,335.29138,772.12476C334.03455,774.83875,333.0146,777.6256,333.0146,778.29956C333.0146,781.1592,325.43732,793.23535,318.4248,801.5593C313.54327,807.35156,312.52332,808.6083,311.28473,810.35693C302.52356,822.65173,296.34888,841.6311,294.49097,861.9219C293.08844,877.27673,294.19952,890.9376,298.4253,910.7366C302.19568,928.36816,306.49426,942.8303,309.445,947.8213C310.46503,949.588,310.95685,950.954,311.1754,952.70276C311.43042,954.79736,311.649,955.39844,313.48865,959.187C315.27362,962.82983,317.69617,968.786,318.1515,970.60754C318.31543,971.245,318.57043,972.265,318.73438,972.8843C318.88007,973.52185,319.60864,975.2522,320.35547,976.76404C323.41553,982.9933,326.16583,992.10046,328.00555,1002.04565C328.86163,1006.7814,329.06195,1008.74854,328.9527,1012.19104C328.84338,1015.90674,328.58838,1017.7101,326.71228,1028.0377C325.2005,1036.3251,324.36267,1040.2595,322.5594,1047.436C319.40823,1060.022,317.605,1065.195,313.43393,1073.6647C308.8074,1083.0632,304.1992,1089.93,299.93698,1093.8098C297.0773,1096.3962,294.90982,1097.0702,289.2087,1097.0702C285.00113,1097.0883,281.75894,1096.5054,279.39108,1095.3032C277.58786,1094.3926,275.12894,1093.6094,273.96317,1093.5911C272.99783,1093.5729,272.79745,1093.6274,272.506,1093.9736C272.32388,1094.1921,272.17813,1094.4836,272.17813,1094.6293C272.17813,1095.0665,272.97958,1095.7405,273.76285,1095.9589C274.61893,1096.1958,275.94858,1097.1611,278.18893,1099.1648C281.23074,1101.8969,285.31076,1104.5381,290.21048,1106.9606C296.4216,1110.057,299.3359,1110.7855,306.23923,1110.9861C309.97318,1111.1135,312.34103,1111.4231,313.0878,1111.9149C314.1625,1112.6072,313.56143,1113.9004,308.6071,1121.4775C305.7656,1125.8126,303.27023,1129.9655,302.0499,1132.4061C301.12094,1134.264,297.27768,1143.863,296.0391,1147.4513C294.8552,1150.9121,294.0355,1153.7899,293.23404,1157.451C292.08652,1162.6604,291.959,1163.6075,291.959,1166.8315C291.94083,1170.3833,292.10477,1171.13,293.61655,1174.3723C294.163,1175.5745,294.9462,1177.5233,295.3287,1178.7255C296.13016,1181.2028,296.65836,1182.2043,297.56906,1183.0059C298.15195,1183.5159,299.19016,1183.9531,299.82767,1183.9531C300.2648,1183.9531,300.41055,1183.0786,300.22842,1181.7126C300.1191,1180.9841,299.42697,1177.3047,298.66196,1173.5344C297.91513,1169.7458,297.27768,1166.5035,297.27768,1166.3396C297.25943,1166.03,300.13736,1160.8207,301.57626,1158.544C302.4506,1157.1777,303.762,1155.7936,304.63632,1155.338C305.12808,1155.0831,305.69278,1154.9921,306.67636,1154.9921C308.91672,1154.9921,309.33566,1155.5933,309.97318,1159.6367C311.39383,1168.7257,314.30814,1178.8894,318.57034,1189.5995C323.05112,1200.8561,327.67758,1208.6881,332.8505,1213.7882C336.038,1216.9211,337.87766,1217.9412,341.62985,1218.6515C343.01413,1218.9248,344.1799,1219.1068,344.21628,1219.0704C344.25272,1219.034,344.16165,1217.0487,344.0159,1214.6443C343.68808,1209.0707,343.88846,1207.1218,344.89023,1206.0471C346.05594,1204.8086,347.9139,1205.5189,352.54037,1208.9432C357.2396,1212.4222,362.32144,1214.8447,372.35764,1218.3236C377.567,1220.127,379.33377,1221.1105,380.13522,1222.6404C380.79092,1223.8972,380.0259,1227.7041,377.73087,1234.7712C372.86765,1249.6343,363.92435,1270.2166,357.27603,1281.8557C356.2014,1283.7499,354.2889,1287.1924,353.0685,1289.5057C348.05954,1298.8496,344.76273,1304.5873,341.02872,1310.4523C339.75375,1312.4558,338.1691,1315.2063,337.51334,1316.5541C336.85764,1317.902,334.76297,1321.636,332.83224,1324.8417C329.38974,1330.6339,326.82144,1335.3696,327.04,1335.5881C327.2222,1335.7703,334.0344,1336.0254,342.3948,1336.1346C346.8027,1336.1892,351.55673,1336.2804,352.9592,1336.3168C354.36172,1336.3531,377.34842,1336.4807,404.05078,1336.6082C450.57043,1336.8086,621.3128,1336.7358,627.08673,1336.5172C628.48926,1336.4626,632.13214,1336.3715,635.19214,1336.3169C644.4451,1336.153,649.8002,1335.7887,651.1662,1335.224C651.7127,1334.9873,651.7674,1334.8961,651.7674,1334.2223C651.7674,1330.2515,645.02795,1293.1487,642.56903,1283.6772C641.62195,1279.9978,641.0937,1277.2838,640.92975,1275.2986C640.7476,1273.2402,640.2194,1271.2914,639.2722,1269.1421C637.5236,1265.2623,637.1412,1263.3499,637.1412,1258.7234C637.1412,1253.514,637.96075,1249.1973,640.18286,1242.5126C642.22296,1236.4288,643.5708,1233.8607,646.1027,1231.2378C649.10803,1228.1232,651.9859,1226.1924,666.6121,1217.4495C675.2822,1212.2765,686.9395,1205.2094,691.4203,1202.4226C698.87,1197.7778,704.07935,1195.1915,705.9372,1195.1732C706.2468,1195.1732,707.24866,1195.3188,708.1412,1195.4829C711.4198,1196.084,720.2538,1196.7032,725.8274,1196.7032C734.1696,1196.7032,742.9307,1195.6469,753.0398,1193.4064C761.01776,1191.6396,782.6382,1185.975,787.884,1184.2628C789.4869,1183.7528,789.66895,1183.7163,789.9422,1183.9713C790.9987,1185.0278,790.6708,1189.9275,789.17725,1195.7197C788.04785,1200.1823,787.2646,1204.8087,786.09894,1214.0981C782.9296,1239.6165,782.2192,1249.2882,781.8185,1272.8396C781.5999,1285.79,781.5999,1326.044,781.8185,1328.5029C782.1281,1331.909,782.47424,1332.6558,783.9496,1332.8744C784.71454,1332.9836,784.8421,1332.9473,785.1881,1332.5465C786.3539,1331.1804,786.69995,1324.2589,787.28284,1289.2325C787.99316,1246.6472,788.5396,1234.9171,790.2154,1226.575C791.0532,1222.3856,791.5997,1218.251,791.7453,1215.0997C791.9458,1210.9469,792.4193,1207.65,793.47577,1203.0782C794.678,1197.8872,795.55225,1193.0057,796.20795,1187.8875C796.6451,1184.445,797.6469,1182.4231,799.5412,1181.2029C801.1988,1180.128,802.91095,1179.6727,808.5938,1178.762C811.81775,1178.252,812.4552,1178.088,813.2749,1177.5781C814.131,1177.0681,814.58636,1176.0116,815.1692,1173.2249C816.1528,1168.4526,816.58997,1167.9244,819.8868,1167.3052C827.15436,1165.9391,827.6097,1165.8115,829.06683,1164.4456C830.4329,1163.2069,832.9101,1158.7261,833.91187,1155.7207C834.67694,1153.444,834.1305,1151.0033,832.21796,1148.1254C830.10504,1144.956,827.50037,1142.825,823.0925,1140.6393C819.7046,1138.9453,818.7939,1138.2349,818.7939,1137.1785C818.7939,1136.4135,819.1582,1135.9218,820.4515,1134.9016C822.4732,1133.2988,825.04144,1132.5885,828.84827,1132.5885C836.26154,1132.5885,845.6784,1134.9199,857.49963,1139.6556C861.39746,1141.2039,862.7999,1141.8596,873.0729,1146.8868C904.87537,1162.4603,909.8297,1164.5549,929.15515,1170.6567C936.91455,1173.0974,941.3407,1174.1176,950.9397,1175.6475C958.6809,1176.8861,963.7991,1177.56,967.09595,1177.7786C979.08105,1178.5618,999.4994,1175.2468,1011.2295,1170.6204C1012.2313,1170.2196,1014.3989,1169.2542,1016.0564,1168.471C1018.9889,1167.0868,1019.9542,1166.7407,1022.1218,1166.2853C1028.4058,1164.9921,1050.1539,1147.6702,1068.5322,1129.31C1076.9655,1120.8767,1079.8434,1117.6345,1085.326,1110.3671C1087.0928,1108.0173,1089.9525,1104.2468,1091.6648,1101.9884C1100.6263,1090.2218,1109.1687,1077.2712,1116.6367,1064.1022C1118.2761,1061.2062,1122.2468,1053.8112,1122.2468,1053.6471C1122.2468,1053.6107,1123.9772,1049.9862,1126.0901,1045.5966C1132.2832,1032.7008,1132.3376,1032.5732,1133.3578,1027.1635C1133.7766,1024.8685,1134.2137,1023.5753,1135.1063,1021.93604C1135.7983,1020.6428,1136.8549,1017.4187,1137.9114,1013.2842C1138.3485,1011.6267,1139.2228,1008.4391,1139.8604,1006.18066C1142.0824,998.42114,1143.6489,990.71655,1144.5597,983.0482C1145.4338,975.70776,1146.5085,970.13416,1147.2008,969.29626C1147.8018,968.58594,1148.1115,957.83936,1148.1115,938.0585C1148.1115,922.631,1147.9293,912.1576,1147.565,907.51294C1147.4193,905.5641,1147.2917,904.9446,1146.9275,904.23425C1146.3082,903.01404,1145.4885,898.7882,1144.8328,893.34204C1143.6306,883.56104,1142.8474,879.0437,1141.9368,876.54834C1141.3722,875.0183,1141.1353,873.6704,1140.8257,870.228C1140.5524,867.16785,1139.9696,864.6725,1138.4032,859.6454C1137.6381,857.2411,1135.8348,851.3397,1134.3777,846.531C1129.387,829.9923,1125.2158,818.48083,1120.7898,809.10034C1119.023,805.31177,1118.094,802.8711,1117.8754,801.2864C1117.6385,799.6107,1117.493,799.28284,1116.5093,798.17163C1115.3073,796.82385,1115.0157,796.31384,1111.8646,790.0663C1107.8939,782.19763,1102.9943,773.4911,1098.2767,765.93225C1096.255,762.67175,1095.3805,761.4149,1092.1748,757.171C1091.0273,755.6228,1089.4244,753.4188,1088.6412,752.27136C1086.4373,749.0657,1082.3208,743.6012,1079.534,740.1587C1066.201,723.78394,1045.7462,702.6915,1035.947,695.22363C1034.3076,693.9669,1028.8251,690.1964,1019.7179,684.0764C1012.86914,679.46826,1009.69995,677.6832,1007.7875,677.39185C1006.6216,677.1913,1005.96594,676.7726,1005.7838,676.0803C1005.6199,675.4247,1004.5635,674.73254,1001.2848,673.2024C999.57263,672.3828,995.2012,670.2335,991.57654,668.412C984.5093,664.8601,982.23254,663.8767,976.6953,662.0005C972.83386,660.6892,971.1399,659.8877,969.90125,658.813C968.7903,657.8296,968.37134,656.8823,968.1709,654.8241C967.8795,652.0737,967.4242,651.69116,963.8541,651.0901C958.97266,650.2705,941.3229,648.1758,930.9042,647.1741C923.5819,646.4818,918.063,645.62573,915.18506,644.7151C912.635,643.9319,908.30005,643.20337,902.5807,642.6205C892.1438,641.56396,891.46985,640.9264,892.28955,632.80273C892.9088,626.5735,892.6538,625.9177,886.8252,619.5062C885.532,618.06714,884.1294,616.6647,883.69226,616.3733C882.0348,615.2257,879.4302,615.0436,876.7162,615.8815C875.22266,616.3369,874.2754,616.8286,872.3993,618.08545C870.39575,619.4335,869.1754,619.8888,867.18994,619.99805C865.4596,620.089,864.45776,619.8341,863.49255,619.0873C862.90967,618.61365,862.345,617.4115,862.3268,616.6283C862.3086,613.78687,857.64557,608.6686,852.9098,606.30066C848.3015,603.9874,843.1651,603.8235,840.1415,605.9182C838.10144,607.3025,836.4258,607.8307,833.8939,607.8307C831.9268,607.8307,829.90497,607.339,828.3021,606.4464C825.2602,604.77075,825.0963,604.6979,823.4934,604.6067C822.4552,604.5521,821.28955,604.625,819.70483,604.8981C816.7177,605.39,813.0748,605.7726,809.14044,606.0093C800.74365,606.51917,797.4286,607.0111,791.72754,608.6139L789.50525,609.25146L787.7203,608.6139C783.8406,607.2661,780.3434,606.4646,775.5166,605.80896C771.41833,605.24426,765.0798,605.24426,760.96326,605.80896C753.75024,606.7925,748.9053,608.19495,743.09485,611.0365C738.687,613.1676,734.7345,615.95435,731.2008,619.3788C724.02435,626.37305,720.3815,634.7151,720.3815,644.16846C720.3632,647.52,720.6182,649.4142,721.4743,652.45605C722.0754,654.58716,723.8786,658.7766,725.06256,660.78015C727.5579,664.96936,731.74725,669.4137,736.3737,672.80164C743.5502,678.02905,753.7322,681.58093,763.8047,682.34595C768.1215,682.6738,774.5694,682.32776,779.0866,681.50806C779.9427,681.3624,780.7623,681.23486,780.9263,681.23486C781.327,681.23486,782.09204,682.9834,782.6384,685.1509C783.0756,686.86316,784.0774,692.6918,786.19025,705.9336C786.7913,709.6494,787.6474,714.89514,788.08453,717.5908C789.8695,728.2462,790.416,733.4192,790.416,739.5211C790.43427,748.0454,789.68744,751.4697,784.67847,766.29626C781.6002,775.3489,780.56195,778.6456,777.1741,790.06616C774.879,797.75256,771.47296,808.1349,769.63324,812.97986C766.7372,820.6118,764.5332,825.4568,758.39496,837.6968C752.27496,849.9005,751.5281,851.2302,744.8981,861.55774C740.1987,868.9165,738.5412,871.7761,738.2134,873.1057C738.0494,873.79785,737.5576,874.4901,736.1551,875.98364C734.13324,878.13293,726.9204,888.1509,723.5142,893.5242C722.8039,894.61694,721.2374,897.0759,720.0353,898.9884C715.82776,905.56396,714.07916,908.6786,713.1321,911.19214C712.65845,912.46716,711.2377,914.03357,710.01733,914.63464C707.9409,915.673,707.6859,915.5271,700.38196,909.3889C697.3401,906.8207,694.1344,904.3981,691.5661,902.6677C687.95966,900.24524,680.52814,894.63513,669.1623,885.7831C662.678,880.71936,651.64,872.23145,637.4692,861.37573C624.118,851.15735,620.63904,848.407,612.6064,841.72217C602.6066,833.38,597.2152,828.44385,583.5726,815.1107L573.99176,805.74854L573.99176,803.2715C574.0283,789.5742,575.12115,776.3324,576.8151,769.1194C577.3434,766.879,578.0173,764.96655,579.6201,761.105C580.7858,758.31824,581.11365,757.7717,584.5016,752.69006C586.50525,749.70276,588.61804,746.406,589.2009,745.34973C589.7838,744.2932,590.6763,743.0183,591.1499,742.49C592.8802,740.68677,595.6671,739.6487,600.4393,739.0658C606.5229,738.319,621.4405,738.59216,636.8318,739.72144C643.68036,740.23145,649.764,738.6649,654.4087,735.2042C659.58167,731.3611,662.35016,725.7875,662.64166,718.66565C662.73267,716.3888,662.67804,715.7877,662.2227,713.1101C661.8038,710.6876,661.69446,709.55835,661.69446,707.2451C661.69446,704.6587,661.73083,704.349,662.0587,703.93005C662.2591,703.69324,662.9148,702.87366,663.5342,702.145C665.902,699.2854,667.8145,696.0796,668.0695,694.495C668.17883,693.91223,668.4703,693.4568,669.5085,692.3639C671.07495,690.67004,671.7306,689.5043,672.0949,687.75574C672.5685,685.47876,671.96747,683.7849,669.9274,681.6538L669.21704,680.907L669.7088,679.9962C670.401,678.7213,672.13135,676.8634,674.0986,675.297C675.9747,673.80347,676.35706,673.25696,676.35706,672.073C676.35706,671.12585,675.88354,670.1787,674.26245,667.8473C672.7142,665.60693,672.0949,664.45935,671.5485,662.7472C670.32806,659.0133,671.1296,657.55615,677.3225,652.2009C680.2004,649.7239,682.0582,647.72034,683.6247,645.4436C684.7357,643.8589,685.62823,641.8917,685.6465,641.07214C685.6465,640.3253,684.00714,638.79517,680.81964,636.5731C679.4171,635.5895,677.8142,634.36914,677.2314,633.84106C676.2478,632.912,670.91095,627.0834,666.7763,622.4022C664.0259,619.2694,660.07336,614.2969,659.1808,612.8031C659.0898,612.6758,659.9277,611.47363,661.2573,609.798C663.82556,606.5375,665.8109,603.60486,666.86743,601.4739C667.7964,599.6342,668.6707,597.0478,668.8164,595.6635L668.944,594.6253L667.8875,595.80927C665.2646,598.74176,662.9877,600.8181,661.7491,601.4192C660.4559,602.05676,658.7073,602.4757,657.04974,602.58496L656.048,602.63965L656.0662,600.08966C656.0662,598.6872,656.1209,593.3139,656.1574,588.1591C656.2302,578.378,656.1574,576.41095,655.39233,570.49115C654.172,560.8741,651.2031,552.0218,647.06836,545.70135C646.3216,544.5539,645.1559,542.3498,644.2087,540.237C641.49475,534.24445,639.50934,530.25543,638.03406,527.77826C636.6133,525.42865,634.0997,521.8769,633.3711,521.2211C633.1707,521.039,633.0068,520.7658,633.0068,520.62006C633.0068,520.4744,633.40753,519.6546,633.8993,518.78033C641.82263,504.7005,644.08124,490.2929,640.1832,478.59918C638.0886,472.33356,634.3912,467.01495,628.8357,462.29742C625.99426,459.89313,624.4824,458.8365,619.8377,456.06793C617.23303,454.51984,615.102,453.08063,613.88165,452.07916C599.9841,440.60406,581.35065,434.99396,559.60254,435.70416 Z M973.65344,667.2645C978.5896,668.9403,995.8751,677.2825,1005.40125,682.5646C1012.37744,686.42615,1014.8364,687.95605,1018.88,690.94336C1020.3917,692.05444,1022.5228,693.60254,1023.6157,694.42236C1034.9269,702.6553,1042.1943,708.77527,1052.3398,718.50183C1060.9735,726.7892,1066.0007,732.4176,1077.3301,746.44275C1082.2297,752.50806,1092.8488,768.3546,1099.0599,778.8644C1102.5023,784.693,1111.9558,803.9822,1115.872,813.1985C1116.564,814.8015,1117.493,816.9326,1117.9664,817.9343C1120.0065,822.2876,1122.7751,829.8102,1127.438,843.70776C1129.1683,848.8624,1130.7167,853.5436,1130.8805,854.0901C1131.2994,855.6018,1131.8278,858.15173,1132.538,862.2865C1133.3031,866.74915,1133.8131,868.86194,1134.815,872.03125C1137.8567,881.53906,1140.3704,900.51855,1142.1007,927.1299C1142.3374,930.6271,1142.3374,942.10205,1142.1007,946.8926C1140.9896,970.0613,1137.0917,995.43396,1132.1738,1011.73596C1130.826,1016.23486,1126.1631,1030.0414,1125.1613,1032.5914C1117.9299,1050.6964,1099.5879,1082.5898,1088.7505,1095.8865C1088.0946,1096.6879,1087.02,1097.9629,1086.3643,1098.7098C1084.561,1100.7496,1083.0858,1102.6077,1081.8472,1104.4655C1080.2443,1106.8152,1077.3844,1110.2212,1071.4283,1116.833C1067.913,1120.7311,1064.3976,1124.811,1062.4304,1127.27C1059.3704,1131.095,1054.325,1135.7032,1045.837,1142.4608C1035.1997,1150.9124,1023.7611,1158.8721,1018.2057,1161.6588C1016.876,1162.3328,1007.9874,1165.6477,1003.57947,1167.1232C995.31006,1169.8735,987.36865,1171.0029,974.9828,1171.1486C968.42554,1171.2213,966.932,1171.1849,962.6881,1170.8389C949.75574,1169.8007,939.02747,1167.797,927.4431,1164.2817C917.44336,1161.2399,904.62036,1155.6299,879.0836,1143.1528C871.4154,1139.4006,869.0657,1138.3079,865.2407,1136.6868C862.72705,1135.6302,860.1771,1134.7742,859.5032,1134.7742C858.8839,1134.7742,858.0278,1133.9728,857.6635,1133.0438C857.0625,1131.4591,857.6635,1129.1824,859.0477,1127.7616C860.30457,1126.4684,861.0514,1124.1917,861.0514,1121.6233C861.0514,1118.6543,860.32275,1116.6326,858.5924,1114.884C856.2793,1112.5161,853.03705,1110.8768,844.112,1107.6166C837.5184,1105.194,833.78436,1103.5729,832.03577,1102.3889C831.2708,1101.8424,830.6333,1100.8954,830.6333,1100.2761C830.6333,1099.1467,827.3365,1092.371,825.97046,1090.6406C822.9285,1086.8339,818.4114,1085.5406,806.2259,1085.0487C797.993,1084.7028,782.1464,1084.9578,777.4471,1085.504C773.112,1085.996,771.8006,1086.3239,765.8809,1088.455C753.64087,1092.8445,748.559,1094.411,742.74866,1095.5948C738.705,1096.4147,736.6468,1097.1614,732.36633,1099.347C722.5852,1104.3197,710.0354,1113.3176,701.12854,1121.7509C696.5203,1126.1041,693.47845,1128.472,690.74634,1129.8562C688.5242,1130.9674,684.79016,1132.1876,678.3059,1133.9364C676.22943,1134.4827,673.89795,1135.1931,673.13293,1135.5028C670.7833,1136.4498,666.594,1138.7085,663.60675,1140.6938C658.47034,1144.0635,655.50134,1145.7029,654.536,1145.7029C654.1535,1145.7029,653.86206,1145.5573,653.58887,1145.1927C653.2246,1144.7374,653.1881,1144.5554,653.27924,1142.8796C653.3703,1140.8213,653.60706,1139.8196,655.5196,1133.4081C658.81635,1122.4248,661.6032,1110.7312,663.88,1098.3453C664.2261,1096.3964,665.13684,1091.6423,665.8836,1087.781C668.37897,1074.9216,668.6158,1072.9543,668.5976,1066.0148C668.5976,1061.5157,668.5429,1060.3501,668.19684,1058.1825C667.1769,1051.6436,665.2097,1045.5964,660.984,1036.1067C658.7983,1031.1525,658.63434,1030.8792,656.88574,1029.0577C654.2082,1026.2345,649.5453,1019.8959,648.52527,1017.6919C648.1246,1016.78125,648.1063,1016.7084,648.3796,1016.2894C648.65283,1015.8705,648.7985,1015.8341,649.9096,1015.8341C651.4578,1015.8341,653.516,1016.3623,658.96216,1018.1472C668.3426,1021.22546,679.2895,1025.3419,687.3767,1028.8209C693.5878,1031.4984,694.7718,1031.9537,697.64966,1032.7552C702.6586,1034.1759,706.2469,1034.5768,714.60736,1034.7224C727.0296,1034.9227,740.38074,1034.1215,747.3934,1032.7552C753.85944,1031.4984,760.5806,1028.9667,764.0778,1026.4713C766.5914,1024.7043,768.7771,1021.4441,771.6732,1015.19653C779.633,998.02026,781.1265,994.92395,782.16473,993.52136C783.11194,992.24634,784.897,989.4232,785.91693,987.60156C787.2102,985.3248,789.2138,982.35583,791.30853,979.67847C793.8039,976.47266,795.1699,974.4691,797.37384,970.7897C802.40106,962.41125,808.01117,951.537,810.2879,945.76306C810.6705,944.8341,811.08936,943.3042,811.2351,942.3751C811.5629,940.3353,811.9819,939.0055,813.07477,936.52844C814.27686,933.83276,815.479,930.35364,817.1548,924.8347C817.97437,922.1572,820.0327,915.76404,821.72656,910.66394C825.5152,899.2617,826.2438,896.912,827.2638,892.9778C827.7009,891.2655,828.721,887.6592,829.5406,884.9634C834.7135,867.7689,843.38354,828.46216,845.75146,811.468C846.20685,808.1167,847.1905,802.7616,848.2105,797.9895C849.5037,791.9603,849.88617,789.46497,850.123,785.4215C850.2505,783.2721,850.4144,782.08826,850.8334,780.50366C852.14484,775.43994,855.1502,769.48376,860.0498,762.2709C866.86206,752.2529,867.8821,750.66833,868.70166,748.938C871.5067,742.9271,874.931,730.4685,876.3517,721.1244C876.5521,719.7766,876.8071,716.9169,876.8982,714.7859C877.09863,710.2505,877.4446,707.20874,878.1914,703.8208C879.3391,698.5022,880.04944,692.8739,881.4519,678.1384C881.9619,672.7833,882.43555,668.339,882.5084,668.2843C882.65405,668.1388,889.12024,667.44666,892.56274,667.1918C899.885,666.66345,923.3816,666.8092,940.10254,667.48315C953.2351,668.01135,957.91626,668.485,960.7577,669.57776C961.4498,669.83276,963.1438,669.79626,963.83594,669.5049C964.1638,669.37744,964.81946,668.9221,965.3113,668.50305C966.16736,667.75635,967.24207,667.1188,968.1527,666.8273C969.08167,666.5178,972.1599,666.7727,973.65344,667.2645 Z"/> </g> </g> </g> </svg>