<?xml version="1.0" encoding="UTF-8"?>
<svg enable-background="new 0 0 1190.626 1685.971" version="1.1" viewBox="0 0 1190.626 1685.971" xmlns="http://www.w3.org/2000/svg">
 <path d="m215.34 847.33c-14.581-73.627-43.958-171.86-7.393-239.87 29.686-55.216 88.147-27.987 116.09 43.506 21.318 54.54 21.462 113.64 37.255 169.23 57.259 201.56 91.181 216.12 174.7 316.66 99.125 119.32-26.847 216.72-14.524 345.49 8.786 91.814 16.705 99.067-12.182 118.92-62.7 43.094-130.69 50.784-202.26 31.933-215.92-56.865-27.305-133.24-134.74-401.88-51.742-129.38-187.75-241.4-126.28-464.68 19.276-70.023 32.693-141.64 50.657-212.05 15.761-61.776 207.17-431.14 279.1-499.16 38.346-36.258 91.886 12.327 56.158 103.65-84.919 217.05-88.867 152.54-174.2 358.85-18.922 45.751-138.96 40.266-69.918 263 7.083 22.851 9.5 47.993 27.54 66.399z"/>
 <path d="m962.07 878.56c38.641-35.978 118.75-274.6 14.018-331.19-23.173-12.522-35.853-31.256-43.592-53.471-44.774-128.53-114.13-195.21-165.7-363.2-19.245-62.688 30.478-116.12 71.144-70.84 12.222 13.608 20.7 29.575 30.773 44.58 63.269 94.244 112.75 196.02 166.7 295.51 80.439 148.34 124.2 403.31 124.82 453.24 2.363 190.43-125.66 267.86-170.8 432.84-41.774 152.68 26.805 254.21-25.428 294-83.385 63.525-167.85 85.297-265.34 35.748-44.829-22.786-48.319-29.073-41.703-78.333 6.269-46.673 10.948-93.187-1.518-139.74-20.2-75.441-79.702-169.2 3.601-265.78 39.455-45.748 81.622-89.588 110.99-143.88 82.201-151.98 69.821-250.5 102.45-329.96 67.37-164.06 187.28-71.96 101.77 174.53-5.179 14.932-8.181 30.618-12.181 45.958z"/>
 <path d="m307.7 531.5c-7.401 8.985-16.817 17.451-28.626 9.131-10.765-7.584-6.297-18.881-1.381-28.432 131.93-256.33 170.12-379.76 212.56-268.49 25.965 68.077-34.754 108.37-182.55 287.79z"/>
 <path d="m919.43 539.4c-9.772 2.971-17.998-0.413-24.391-8.017 0 0-159.75-193.1-160.15-193.64-63.233-84.324 8.42-184.41 46.923-109.1 41.543 81.263 82.695 162.71 120.55 245.8 2.389 5.243 38.535 58.43 17.068 64.956z"/>
 <path d="m726.19 365.81c52.432 54.819 100.61 113.31 147.89 172.56 10.12 12.681 15.226 26.06 9.824 42.721-6.907 21.299-16.721 23.951-34.988 11.026-34.526-24.43-133.15-125.51-151.36-145.87-46.323-51.781-19.425-130.68 28.629-80.439z"/>
 <path d="m511.41 439c-48.691 52.938-101.76 101.24-156.39 147.83-7.956 6.787-17.276 22.122-29.695 11.025-34.915-31.2 7.098-67.369 141.01-221.44 59.946-68.972 83.542 20.765 45.078 62.584z"/>
 <path d="m342.15 655.64c-4.266-25.624 6.146-41.603 19.14-55.288 192.18-202.39 179.11-73.586 160.06-52.253-39.256 43.965-141.6 112.79-152.44 118.32-22.679 11.566-25.105 11.508-26.761-10.778z"/>
 <path d="m740.09 514.42c170.21 125.13 107.77 159.82 97.14 151.2-51.496-41.754-179.14-104.48-164.89-161.11 10.499-41.733 57.57 2.431 67.754 9.918z"/>
</svg>
