<svg width="85" height="83" viewBox="0 0 85 83" fill="none" xmlns="http://www.w3.org/2000/svg">
<g clip-path="url(#clip0_1663_26261)">
<path d="M52.298 54.4916C38.6091 62.0519 47.6284 71.0501 58.0348 69.8037C70.8342 71.239 76.2561 60.7698 66.2355 55.1629C62.4993 53.4729 59.7856 53.6792 52.2978 54.491L52.298 54.4916Z" fill="#39BBD1" stroke="#39BBD1" stroke-width="1.5871"/>
<path d="M49.1494 57.0828L50.8063 50.5223L53.9543 55.7227L49.1494 57.0828Z" fill="#39BBD1" stroke="#39BBD1" stroke-width="1.5772"/>
<path d="M63.8955 56.3628L67.1263 50.6824L69.0317 60.1233L63.8955 56.3628Z" fill="#39BBD1" stroke="#39BBD1" stroke-width="1.5772"/>
<path d="M58.0964 69.8038C58.0964 69.8038 57.5993 77.3247 56.5223 78.0441C55.4454 78.7634 61.9899 80.1242 63.564 78.6841C66.4527 76.3064 61.2759 71.4005 60.6645 69.5636C58.7747 63.8362 58.0964 69.8036 58.0964 69.8036V69.8038Z" fill="#39BBD1" stroke="#39BBD1" stroke-width="1.5772"/>
<path d="M63.4667 76.96C63.4667 76.96 67.9628 76.6103 69.5786 73.4627C71.1943 70.3151 70.2108 67.7971 70.5621 66.8179C70.9133 65.8387 72.5993 61.9217 76.6739 64.16C80.7485 66.3983 80.3973 69.6857 78.5707 70.525C76.7441 71.3643 73.5413 71.2566 75.6201 70.525C77.6271 69.8186 80.2014 68.5782 77.3062 66.1184C75.0774 64.2249 74.2138 64.2077 72.4588 65.6988C70.3394 67.4996 73.5546 71.9782 69.5083 75.4913C65.7715 78.7356 63.3262 77.6597 63.3262 77.6597L63.4667 76.96Z" fill="#39BBD1" stroke="#39BBD1" stroke-width="1.3581"/>
<path d="M61.8887 57.4193C62.6354 56.7153 64.2625 54.2449 67.0494 57.5043C66.251 58.3366 65.5759 58.7726 64.5919 58.977C64.6742 58.755 62.9231 58.9635 61.8887 57.4193V57.4193Z" fill="white" stroke="white" stroke-width="0.571443"/>
<path d="M65.7814 57.3235C65.7814 58.1364 65.1701 58.7954 64.4161 58.7954C63.6621 58.7954 63.0508 58.1364 63.0508 57.3235C63.0508 56.5106 63.6621 55.8516 64.4161 55.8516C65.1701 55.8516 65.7814 56.5106 65.7814 57.3235Z" fill="#39BBD1" stroke="#39BBD1" stroke-width="0.525923"/>
<path d="M50.1729 57.3058C50.9196 56.6018 52.5467 54.1314 55.3336 57.3908C54.5352 58.2231 53.8601 58.6591 52.8761 58.8635C52.9584 58.6415 51.2073 58.85 50.1729 57.3058V57.3058Z" fill="white" stroke="white" stroke-width="0.571443"/>
<path d="M54.0656 57.21C54.0656 58.0229 53.4543 58.6819 52.7003 58.6819C51.9463 58.6819 51.335 58.0229 51.335 57.21C51.335 56.3971 51.9463 55.738 52.7003 55.738C53.4543 55.738 54.0656 56.3971 54.0656 57.21Z" fill="#39BBD1" stroke="#39BBD1" stroke-width="0.525923"/>
<path d="M68.229 59.6199C68.229 64.4021 63.8289 68.279 58.4011 68.279C52.9734 68.279 48.5732 64.4023 48.5732 59.6199C48.5732 59.5342 48.5747 59.4485 48.5776 59.3628L58.4011 59.6199H68.229Z" fill="white" stroke="#39BBD1" stroke-width="1.86857"/>
<path d="M49.0762 62.4575L49.3786 59.2673L51.2937 65.4198L51.8985 59.609L54.0153 67.2425L54.9225 59.4949L56.4345 68.0399L57.4425 59.381L59.1561 68.0399L60.2649 59.6088L61.9784 67.5842L63.5912 59.4949L64.5992 66.1031L66.4136 59.6088L66.8168 64.0523V63.5966L67.0184 63.8244" stroke="#39BBD1" stroke-width="2.07618"/>
</g>
<g clip-path="url(#clip1_1663_26261)">
<path d="M44.2673 32.4485C43.7599 32.2739 44.655 31.6445 44.6557 31.292C45.1536 30.6895 45.0845 30.0065 45.0098 29.2882C44.6814 28.4821 43.8466 27.8826 43.0431 27.5045C39.8559 27.2359 36.6073 26.9693 33.41 27.3688C32.4745 27.3635 31.6629 28.1322 30.7407 27.7372C29.8834 27.9433 28.9694 27.8368 28.0693 27.8535C27.1022 27.9393 25.5925 27.72 25.1617 28.7842C25.2112 29.7209 25.9095 30.6692 26.7672 31.072C27.9046 31.6889 29.4397 30.9447 30.4198 31.8281C28.5771 31.8205 26.6673 31.8835 24.9208 31.2271C21.2732 30.1405 17.7525 28.5494 13.9594 27.9509C12.1339 27.5534 10.3301 28.0951 8.50461 28.1056C7.98659 27.6562 7.44053 28.0799 7.20014 28.5709C6.59267 28.8416 5.74932 28.4363 5.04874 28.4555C3.89104 27.7847 2.50269 28.3029 1.23955 28.2801C0.404786 28.6798 0.812943 29.8468 0.909581 30.5731C1.14461 31.2513 1.30716 31.9095 0.757911 32.4872C0.52508 33.8003 1.191 35.1504 2.02225 36.1709C2.21797 36.819 2.93203 37.016 3.59045 37.0128C5.35047 36.9308 6.86206 37.9013 8.52465 38.226C9.02069 39.1131 10.1581 39.1682 10.9329 39.6995C12.0679 40.1049 13.0603 40.8062 14.0236 41.5219C15.2724 42.0534 16.546 42.5699 17.8167 43.0729C18.4565 44.2589 19.6669 45.0881 20.9474 45.4963C21.6813 45.7908 21.1127 46.7104 20.5661 46.7759C19.2214 46.6684 18.5303 47.9027 18.1355 48.9424C17.9621 50.3754 18.1136 52.2566 19.643 52.9993C20.6005 53.7322 21.8908 53.6313 22.8941 53.0575C23.8469 52.4024 24.8822 51.7237 25.5432 50.8085C26.0142 50.6453 26.8411 50.548 27.0684 51.0412C27.5528 52.0985 28.7847 52.5176 29.1757 53.6391C29.3435 54.3116 30.1607 54.6362 30.1791 55.3065C30.8882 56.4224 31.318 57.7361 31.9853 58.8933C32.1308 60.3555 31.6074 61.9343 32.2061 63.3719C31.8822 63.8383 32.0868 64.3416 31.9653 64.8648C31.7265 65.3526 32.3126 65.5742 32.1258 66.0087C32.1614 66.7039 31.5173 67.0203 30.8769 67.0124C30.2203 67.3871 29.0467 67.2382 28.7944 68.0638C29.5617 68.0904 30.3418 68.0648 31.0823 68.2964C31.3586 68.2902 31.6329 68.3002 31.9078 68.3257C32.855 68.3864 34.501 68.5046 34.5342 67.2301C34.0241 67.0129 34.152 66.2093 34.3335 65.8924C34.8575 65.8483 34.6953 65.4496 34.4941 65.175C34.9111 63.9736 34.9051 62.5432 35.0077 61.2368C34.9117 59.8108 35.594 58.4239 35.2767 57.0127C35.1765 55.9203 34.2453 55.0922 34.3937 53.9688C34.4891 52.0563 33.4796 50.103 34.3134 48.2493C35.3507 46.7369 36.301 45.1498 37.1935 43.5447C38.062 42.0794 38.7313 40.439 39.7922 39.1176C40.5319 38.6039 39.3941 38.342 39.2102 37.9543C39.1092 37.3384 38.1635 36.9503 38.3071 36.3839C38.4585 35.9016 39.7682 35.9641 39.3507 35.3757C39.9096 34.9715 40.6041 34.7829 41.2572 34.5614C42.3729 33.8747 43.399 32.8439 44.8094 32.7001C44.9608 32.3041 44.4936 32.3016 44.2646 32.4543L44.2673 32.4485ZM20.8954 39.1179C20.8043 39.1118 20.7152 39.1261 20.6251 39.1373C19.8989 38.9688 19.1586 38.8613 18.4455 38.6508C17.3048 38.1306 16.1722 37.5929 15.0259 37.0822C14.1984 36.9204 13.2989 36.7982 12.6779 36.1903C11.683 35.871 10.6291 35.784 9.58722 35.7832C9.14612 35.3728 8.47841 35.5407 7.9215 35.5505C7.36005 35.0926 6.59001 34.8355 6.21565 34.1934C6.02983 34.0173 5.81344 33.651 5.53331 33.7475C5.41331 34.0214 5.46565 34.3899 5.57298 34.6506C5.81861 34.8486 5.94106 35.2697 5.59351 35.4342C5.09117 35.6637 4.46778 35.6613 3.96794 35.4342C4.0204 34.5662 3.95261 33.5774 4.58584 32.8791C4.8654 32.5778 5.27267 32.4394 5.67379 32.3516C5.61059 32.1092 5.51942 31.8687 5.87375 31.9058C6.93922 31.824 8.04971 31.8493 9.06891 32.183C9.32573 32.3085 9.57104 32.4294 9.86825 32.4098C11.7936 32.5628 13.4887 33.5712 15.3672 33.922C15.8268 34.1612 16.3412 34.2993 16.8322 34.4368C17.4686 34.9293 18.1782 35.3488 18.8391 35.8026C19.4082 35.8859 19.9761 35.7232 20.545 35.7057C21.1857 36.2017 21.844 36.7215 22.6322 36.9659C22.6527 36.6157 23.0858 36.6187 23.3236 36.7646C23.6295 36.7539 23.5956 37.0268 23.6155 37.2373C23.6543 37.498 24.0655 37.2607 24.2684 37.3343C24.6485 37.3494 25.1274 37.3981 25.3214 37.7608C23.8367 38.1806 22.4535 38.964 20.8949 39.1174L20.8954 39.1179Z" fill="#39BBD1"/>
</g>
<path d="M54.1962 4.33833C51.845 4.5581 50.6099 5.67786 49.8948 8.24182C49.7106 8.91158 49.6564 9.40344 49.6456 10.6593C49.6348 12.2814 49.6998 12.5848 50.0898 12.5848C50.1765 12.5848 50.8374 12.0302 51.5633 11.35C53.0044 9.99996 53.8495 9.39298 55.0413 8.86972C58.4325 7.36275 63.384 7.41507 66.6452 9.00577C67.8478 9.58135 68.5629 10.1046 69.9606 11.3918C70.7949 12.1662 71.3149 12.5848 71.4449 12.5639C72.225 12.4174 71.9108 8.38833 70.9791 6.63019C70.5998 5.89763 69.9173 5.19647 69.278 4.88251C68.1079 4.30693 68.0212 4.30693 61.2279 4.286C57.7716 4.27554 54.6079 4.29647 54.1962 4.33833Z" fill="#39BBD1"/>
<path d="M40.7282 10.8268C40.1323 10.9524 39.5689 11.4652 39.3847 12.0512C39.2763 12.3966 39.2763 12.7001 39.3522 13.3489C39.5039 14.5314 39.9156 15.3582 40.6849 16.0698C41.4324 16.7605 41.7683 16.9384 43.0685 17.3047C44.4228 17.6919 44.4987 17.7652 44.0761 18.3617C41.9417 21.3756 42.7868 23.2698 46.4489 23.678C47.7057 23.8245 48.0633 23.814 48.0633 23.6466C48.0633 23.5419 47.7924 23.4791 47.0123 23.4373C45.1054 23.3221 43.9136 22.8617 43.426 22.0559C42.971 21.3024 43.2527 20.1198 44.2495 18.6128C44.867 17.6814 44.7262 17.4826 43.1335 17.0326C41.4866 16.5721 40.609 15.9128 40.0239 14.7094C39.7531 14.1547 39.6772 13.8512 39.6447 13.0663C39.5906 12.1873 39.6122 12.0826 39.8506 11.7477C40.1865 11.2663 40.5982 11.0884 41.4541 11.0361C42.2884 10.9838 43.9136 11.2559 44.477 11.5384C45.8421 12.2082 46.8606 14.207 47.6732 17.7652C48.0307 19.3245 48.0416 19.3454 48.1824 19.2094C48.2583 19.1361 48.1824 18.6442 47.9549 17.6501C47.0665 13.9035 46.048 11.978 44.5637 11.2873C43.9678 11.0047 42.3751 10.6908 41.6275 10.7117C41.3891 10.7221 40.9774 10.764 40.7282 10.8268Z" fill="#39BBD1"/>
<path d="M77.848 10.9105C77.3387 11.0151 76.797 11.1512 76.6562 11.2244C75.0851 12.0198 74.0342 14.0605 73.1566 17.9953C72.9507 18.9372 72.929 19.1779 73.0482 19.2198C73.1457 19.2512 73.2216 19.0942 73.3083 18.6756C74.1534 14.6046 75.1718 12.3965 76.5912 11.6012C77.5446 11.0674 79.9174 10.8267 80.6758 11.2035C80.8817 11.2977 81.1634 11.5488 81.3042 11.7477C81.5426 12.0826 81.5643 12.1872 81.5101 13.0558C81.3909 15.2012 80.4483 16.3105 78.1297 17.0012C77.5338 17.1791 76.9595 17.3779 76.8512 17.4407C76.5045 17.65 76.5153 17.9744 76.8837 18.4977C77.6963 19.6384 78.1188 20.9674 77.9238 21.7314C77.8155 22.1605 77.2521 22.6942 76.6453 22.9453C75.9736 23.2279 74.6951 23.4581 73.8283 23.4686C73.3191 23.4686 73.1999 23.5 73.1999 23.636C73.1999 23.793 73.3083 23.8035 74.1534 23.7407C77.1221 23.5105 78.4439 22.6 78.2597 20.8837C78.1947 20.2767 77.7396 19.2512 77.2087 18.4872C76.6778 17.7233 76.7103 17.6709 78.1297 17.2942C79.289 16.9802 79.9499 16.6453 80.5675 16.0488C81.3801 15.264 81.8676 14.0081 81.8676 12.6895C81.8676 12.1244 81.5101 11.3814 81.0984 11.0884C80.4916 10.6698 79.3432 10.5965 77.848 10.9105Z" fill="#39BBD1"/>
<path d="M52.3969 13.9558C51.541 14.3326 50.9993 14.9919 50.8368 15.8605C50.6851 16.6768 50.9668 16.8651 51.671 16.3942C52.3319 15.9651 53.177 15.6198 53.5888 15.6198C54.0005 15.6198 54.8456 15.9651 55.5065 16.3942C56.2107 16.8651 56.4924 16.6768 56.3408 15.8605C56.1782 14.9814 55.6257 14.3326 54.7264 13.9349C54.1197 13.6628 53.0362 13.6733 52.3969 13.9558Z" fill="#39BBD1"/>
<path d="M67.2952 13.8092C66.3634 14.0081 65.6592 14.4999 65.28 15.222C65.0308 15.7034 64.9116 16.4465 65.0633 16.6662C65.1608 16.8023 65.2366 16.7918 65.6375 16.572C67.111 15.7662 67.2736 15.7034 67.902 15.7453C68.3787 15.7767 68.6821 15.8918 69.3755 16.279C69.8522 16.5511 70.2964 16.7709 70.3614 16.7709C70.5673 16.7709 70.6323 16.279 70.4915 15.7139C70.2964 14.9395 69.4838 14.1337 68.6604 13.9034C68.0753 13.736 67.7286 13.7151 67.2952 13.8092Z" fill="#39BBD1"/>
<path d="M42.8623 14.4582C42.8623 14.5105 43.0357 14.6779 43.2415 14.8244C43.9999 15.3896 44.7475 16.3419 45.3868 17.5558L45.6576 18.0896L45.3326 18.4454C44.2383 19.6907 44.3358 20.057 45.8418 20.3814C46.817 20.5907 47.272 20.8628 47.4779 21.3442C47.5971 21.6058 47.6837 21.6791 47.7596 21.6058C47.8354 21.5326 47.8137 21.3756 47.6729 21.0931C47.4237 20.6117 46.8711 20.2872 45.961 20.1198C45.1484 19.9628 44.9209 19.8582 44.9209 19.607C44.9209 19.4186 45.6251 18.4454 45.766 18.4454C45.8093 18.4454 46.0044 18.7489 46.2102 19.1256C46.4052 19.5024 46.6328 19.7954 46.6978 19.7744C46.8495 19.7221 46.8711 19.7744 46.0369 18.1837C45.1268 16.457 44.7042 15.7977 44.065 15.1698C43.469 14.5628 42.8623 14.207 42.8623 14.4582Z" fill="#39BBD1"/>
<path d="M77.6635 14.6779C77.4143 14.8454 76.9918 15.2535 76.7317 15.5779C76.125 16.3314 74.359 19.607 74.489 19.7326C74.5431 19.7849 74.749 19.5442 74.9874 19.1256L75.3882 18.4349L75.7133 18.7279C75.8866 18.8849 76.1142 19.157 76.2008 19.3244C76.3634 19.6174 76.3525 19.6488 76.1467 19.8163C76.0167 19.9105 75.6049 20.0465 75.2257 20.1198C74.3264 20.2767 73.7414 20.6012 73.4705 21.093C73.2863 21.4279 73.2755 21.5012 73.4163 21.5849C73.5355 21.6581 73.6005 21.6058 73.6872 21.3442C73.8389 20.8942 74.3481 20.5907 75.2907 20.3919C76.255 20.1826 76.5584 19.9942 76.5584 19.6174C76.5584 19.3035 76.3742 18.9895 75.8758 18.4663L75.5399 18.1314L75.7891 17.6291C76.4609 16.2895 77.3168 15.2012 78.0319 14.7721C78.2378 14.657 78.4003 14.5105 78.4003 14.4581C78.4003 14.2802 78.1077 14.364 77.6635 14.6779Z" fill="#39BBD1"/>
<path d="M59.9376 17.7233C58.2149 18.1314 54.8561 20.9465 53.9135 22.7674C53.491 23.5837 53.4585 24.5151 53.8485 25.3C54.5744 26.807 57.2181 29.2349 59.1142 30.1454C59.8509 30.4907 60.0134 30.5221 60.7935 30.5221C61.4978 30.5221 61.7795 30.4698 62.2995 30.2395C64.2281 29.3919 67.2185 26.6186 67.7819 25.164C68.0744 24.4 68.0636 23.5523 67.7385 22.893C67.0235 21.3965 64.3581 18.9477 62.5054 18.0686C61.6495 17.6709 60.6852 17.5349 59.9376 17.7233Z" fill="#39BBD1"/>
<path d="M56.1895 30.2395C56.1895 30.679 58.0422 33.3895 59.0065 34.3523C60.2958 35.6395 61.0976 35.6081 62.4736 34.1849C63.557 33.0651 65.3556 30.3023 65.1497 30.093C64.998 29.9465 64.4888 30.3546 63.1561 31.6628C61.6718 33.1279 61.0542 33.6197 60.6967 33.6197C60.285 33.6197 59.7541 33.2116 58.1397 31.6209C56.6445 30.1453 56.1895 29.8314 56.1895 30.2395Z" fill="#39BBD1"/>
<path d="M50.3389 31.1081C50.3389 31.6628 51.1406 33.1279 52.8092 35.6081C55.2361 39.2081 57.3597 41.5732 58.8982 42.3581C59.6458 42.7453 59.7759 42.7767 60.5776 42.7767C61.336 42.7767 61.5419 42.7349 62.1486 42.4418C63.7955 41.657 65.6266 39.6791 68.2702 35.8174C70.1663 33.0442 71.1197 31.2546 70.838 30.9825C70.5455 30.7 69.9279 31.2023 66.5909 34.4465C64.7165 36.2779 62.9071 37.9732 62.582 38.2244C61.0868 39.3546 60.1117 39.3337 58.5732 38.1407C58.3023 37.9314 56.6013 36.3093 54.7811 34.5407C52.9609 32.7721 51.3032 31.2337 51.0973 31.1186C50.6097 30.836 50.3389 30.836 50.3389 31.1081Z" fill="#39BBD1"/>
<defs>
<clipPath id="clip0_1663_26261">
<rect width="37.694" height="36.4035" fill="white" transform="translate(42.9707 46.5964)"/>
</clipPath>
<clipPath id="clip1_1663_26261">
<rect width="45.7982" height="42.5921" fill="white" transform="translate(0 26.5746)"/>
</clipPath>
</defs>
</svg>
