<?xml version='1.0' encoding='utf-8'?>
<svg xmlns="http://www.w3.org/2000/svg" version="1.1" width="600px" height="976px" viewBox="0 0 600 976"> <g id="layer1"> <g style="fill:rgb(0,0,0); fill-opacity:1.0; stroke-linejoin: miter"> <path d="M228.1059,461.22256C227.97542,461.4276,227.90085,461.44626,227.31369,461.44626C226.95953,461.44626,226.65198,461.40897,226.62401,461.36237C226.59604,461.3251,226.49353,461.30646,226.38168,461.3344C226.27917,461.36237,226.09277,461.3344,225.96228,461.26917C225.77588,461.16666,225.71063,461.16666,225.57083,461.29712C225.44037,461.4183,225.226,461.45557,224.74136,461.45557C223.99576,461.45557,223.78139,461.5115,223.78139,461.6979C223.78139,461.91226,223.47382,462.20117,223.25015,462.20117C223.1383,462.20117,223.02646,462.23846,222.98918,462.28506C222.96121,462.34097,222.61638,462.37827,222.22495,462.37827C221.59117,462.37827,221.48865,462.40622,221.27429,462.61127C221.13449,462.74173,220.92944,462.85358,220.80829,462.85358C220.69644,462.85358,220.63121,462.89087,220.65918,462.94678C220.78033,463.14252,220.60324,463.59918,220.41684,463.59918C220.32364,463.59918,220.23978,463.63647,220.23978,463.69238C220.23978,463.83218,219.49417,463.81354,219.49417,463.66443C219.48483,463.49667,219.21457,463.88812,219.21457,464.0652C219.21457,464.13974,219.12137,464.2516,219.00952,464.2982C218.87903,464.3541,218.78583,464.4939,218.7672,464.64304C218.74857,464.82944,218.68332,464.904,218.55283,464.904C218.38507,464.904,218.36642,464.94128,218.43167,465.3234C218.4876,465.7055,218.46896,465.7428,218.3012,465.7428C218.15207,465.7428,218.10547,465.80804,218.07751,466.04105C218.05887,466.28336,217.99362,466.3486,217.76996,466.41385C217.42511,466.4977,217.23871,466.74005,217.34122,466.9451C217.38782,467.02896,217.39716,467.4204,217.36919,467.8305C217.33191,468.44562,217.29462,468.56677,217.15482,468.60406C216.78201,468.70657,217.08958,468.91162,217.61151,468.91162C217.75131,468.91162,217.81656,468.96753,217.81656,469.09802C217.81656,469.20053,217.76062,469.28442,217.70471,469.28442C217.47171,469.29373,217.16415,469.63858,217.16415,469.89954C217.16415,470.03934,217.08958,470.20712,217.0057,470.26303C216.85658,470.37488,216.85658,470.42148,216.9591,470.7197C217.08958,471.07388,217.04298,471.52124,216.84726,471.84744C216.65155,472.155,216.5863,473.16156,216.74475,473.3293C216.9125,473.48776,216.93115,473.85126,216.78201,473.85126C216.59561,473.85126,216.88455,474.12152,217.0989,474.1495C217.25735,474.16812,217.31326,474.252,217.33191,474.4757C217.35986,474.7553,217.34122,474.78326,217.12686,474.78326C216.8193,474.78326,216.8193,474.92307,217.11755,475.19333C217.24802,475.3145,217.35056,475.50092,217.35056,475.61273C217.35056,475.71527,217.39716,475.80847,217.44376,475.80847C217.49966,475.80847,217.53696,475.89233,217.53696,475.98553C217.53696,476.08807,217.49966,476.19992,217.44376,476.22787C217.23871,476.34903,217.35056,476.55408,217.62082,476.55408C217.88179,476.55408,218.00296,476.68454,218.00296,476.9828C218.00296,477.05734,217.92839,477.11328,217.82587,477.11328C217.63016,477.11328,217.40646,477.32764,217.50899,477.42084C217.53696,477.4581,217.66742,477.48608,217.78859,477.48608C217.98431,477.48608,218.00296,477.53268,218.00296,477.89615C218.00296,478.2317,218.04956,478.3435,218.24527,478.50195C218.38507,478.6138,218.5342,478.6977,218.5808,478.6977C218.6274,478.6977,218.75787,478.8002,218.87903,478.92136C219.06543,479.1357,219.16797,479.15436,219.96948,479.173C220.78964,479.19165,220.87354,479.173,221.28362,478.92136C221.52594,478.78156,221.76825,478.5672,221.8335,478.44604C222.01057,478.11984,222.66298,478.1478,223.11966,478.50195C223.54839,478.8375,224.21942,479.1637,224.49902,479.1637C224.6202,479.1637,224.89047,479.3221,225.12347,479.5365C225.34717,479.74152,225.57083,479.9093,225.63608,479.9093C225.692,479.9093,225.7386,479.93726,225.7386,479.97452C225.7386,480.1423,226.3444,480.3753,226.76381,480.3753C227.04341,480.3753,227.24844,480.4219,227.32301,480.5151C227.38824,480.58966,227.50941,480.6549,227.60262,480.6549C227.83562,480.6549,228.14317,480.83197,228.63715,481.23273C228.87015,481.42847,229.11246,481.5869,229.1777,481.5869C229.23361,481.5869,229.28021,481.62418,229.28021,481.6801C229.28021,481.7267,229.34546,481.77332,229.42935,481.77332C229.67166,481.77332,230.28679,482.15543,230.72482,482.58414C230.90192,482.75192,231.60092,482.89172,231.83392,482.79852C232.0576,482.71463,232.244,482.40707,232.28128,482.05292C232.30923,481.84787,232.35583,481.81992,232.76593,481.79193C233.00824,481.77332,233.33444,481.80127,233.47424,481.85718C233.82841,481.97833,234.12665,481.67078,234.12665,481.18613C234.12665,480.71082,234.38762,480.72946,234.78838,481.2141C235.02138,481.48438,235.1705,481.5869,235.36623,481.5869C235.52466,481.5869,235.8229,481.43777,236.13046,481.2141C236.60579,480.85992,236.92267,480.7481,236.92267,480.91586C236.92267,480.96246,237.13704,481.08362,237.40732,481.20477C237.93855,481.43777,238.58165,481.41913,238.80533,481.1675C239.10356,480.83197,239.15948,480.73877,239.15948,480.5617C239.15948,480.44986,239.22473,480.30072,239.29929,480.22617C239.37386,480.1423,239.43909,479.9652,239.43909,479.8161C239.43909,479.66696,239.48569,479.51785,239.53229,479.4899C239.58821,479.4619,239.62549,479.3594,239.62549,479.2662C239.62549,479.173,239.69073,479.0425,239.76529,478.9773C239.83986,478.91205,239.90509,478.78156,239.90509,478.67905C239.90509,478.44604,240.11945,478.2317,240.36177,478.2317C240.54817,478.2317,240.54817,478.26895,240.50157,479.69492C240.4643,480.68286,240.48294,481.36322,240.5575,481.77332C240.62274,482.10883,240.70662,482.63074,240.7439,482.93832C240.78117,483.24588,240.9303,483.91693,241.0701,484.4202C241.3497,485.42676,241.34038,485.6318,240.9769,487.22552C240.90234,487.5797,240.7905,488.11093,240.7439,488.39053C240.6973,488.67014,240.61342,489.05228,240.56682,489.22934C240.5109,489.40643,240.4643,489.7606,240.4643,490.01224C240.4643,490.2639,240.42702,490.5994,240.38042,490.75784C240.33382,490.9163,240.22197,491.3823,240.13809,491.79236C240.05421,492.20245,239.95169,492.62186,239.90509,492.72437C239.77461,493.04126,239.53229,494.66293,239.53229,495.23148C239.53229,495.5204,239.46706,496.04233,239.38316,496.38715C239.30861,496.732,239.19676,497.198,239.14085,497.431C239.09425,497.664,239.01036,497.9343,238.97308,498.0368C238.92648,498.1393,238.8426,498.39096,238.78668,498.596C238.73076,498.80106,238.61893,499.2018,238.54436,499.4814C238.39525,500.02197,238.30205,500.48798,238.13428,501.57843C238.07835,501.9326,237.99448,502.36133,237.93855,502.51974C237.89195,502.6782,237.85468,502.96713,237.85468,503.17215C237.85468,503.3772,237.8174,503.58224,237.7708,503.62885C237.57507,503.8339,237.46324,505.4742,237.43527,508.68033C237.41664,510.54434,237.37004,512.1101,237.33275,512.166C237.2582,512.2872,237.2582,513.20056,237.3514,517.7487C237.40732,520.7591,237.40732,521.06665,237.26752,521.18787C237.17432,521.25305,237.10907,521.37427,237.10907,521.43945C237.10907,521.51404,237.0718,521.56995,237.02519,521.56995C236.97859,521.56995,236.92267,521.66315,236.90404,521.775C236.87607,521.9614,236.80151,521.99866,236.36346,522.0453C236.08386,522.07324,235.7297,522.1478,235.57126,522.20374C235.28235,522.3063,233.89365,522.42737,232.82184,522.44604C232.16943,522.4647,230.06311,522.8841,229.52255,523.1078C229.34546,523.1823,229.00063,523.24756,228.76762,523.24756C228.53462,523.24756,228.34822,523.28485,228.34822,523.32214C228.34822,523.4247,227.7797,523.6297,227.67717,523.56445C227.63057,523.5365,227.52805,523.56445,227.44417,523.6297C227.36961,523.69495,227.00613,523.84406,226.63333,523.9559C226.26984,524.06775,225.76657,524.2355,225.5056,524.3194C224.70407,524.58966,224.4804,524.64557,224.07962,524.64557C223.87459,524.64557,223.66956,524.6922,223.64159,524.7388C223.46451,525.0184,222.29018,525.24207,222.15038,525.0184C222.12242,524.96246,221.95465,524.9252,221.77757,524.9252C221.60982,524.9252,221.45137,524.8786,221.43274,524.82263C221.4141,524.75745,221.08789,524.6922,220.65918,524.6642C219.9322,524.6176,219.49417,524.45917,219.49417,524.2355C219.49417,524.1423,218.31982,523.80676,217.97499,523.80676C217.88179,523.80676,217.70471,523.7415,217.58356,523.65765C217.42511,523.5551,217.10822,523.50854,216.4931,523.4992C215.44925,523.4806,214.25629,523.7975,214.02328,524.1516C213.9394,524.27277,213.81824,524.36597,213.753,524.36597C213.67844,524.36597,213.59457,524.4312,213.5666,524.5058C213.52933,524.599,213.3802,524.64557,213.1472,524.64557L212.78372,524.64557L212.78372,525.1116C212.78372,525.3632,212.74643,525.5776,212.69052,525.5776C212.55072,525.5776,212.57867,525.8572,212.74643,526.0156C212.99808,526.2673,213.90213,526.696,214.18173,526.696C214.33084,526.696,214.47064,526.7333,214.49861,526.7799C214.52657,526.8265,214.84344,526.8917,215.20694,526.92896C215.5611,526.9663,215.85934,527.0315,215.85934,527.0781C215.85934,527.1247,216.09235,527.162,216.37195,527.162C216.8193,527.162,216.88455,527.18994,216.88455,527.3484C216.88455,527.46954,216.79135,527.55347,216.55835,527.61865C216.24146,527.7026,208.43124,527.6839,204.23721,527.5907L202.53165,527.5441L202.53165,528.60657L202.53165,529.6598L205.91483,529.7157C209.13025,529.7716,389.73438,531.45856,392.22284,531.4492L393.40646,531.4492L393.40646,530.43335C393.40646,529.46405,393.39716,529.4175,393.20145,529.3615C393.0803,529.33356,391.2815,529.3056,389.20313,529.3056C387.12476,529.3056,383.90933,529.27765,382.05466,529.24036L378.6901,529.18445L378.6901,528.2431C378.6901,527.67456,378.65283,527.2925,378.5876,527.2738C378.541,527.2552,378.4944,527.18066,378.4944,527.1061C378.4944,527.0315,378.43848,527.00354,378.34528,527.04083C378.2707,527.0688,378.11227,527.0502,378.00043,526.99426C377.72083,526.85443,376.93793,526.63074,376.49057,526.55615C376.28552,526.5189,376.07117,526.4537,376.02457,526.4164C375.89407,526.30457,369.65897,526.1368,365.28787,526.12744L361.81146,526.11816L361.81146,525.8106C361.81146,525.6335,361.8674,525.4844,361.94196,525.4564C362.09106,525.4005,362.1936,524.832,362.18427,524.12366C362.17496,523.78815,362.2495,523.50854,362.4266,523.145C362.5664,522.8655,362.72485,522.4554,362.76212,522.22235C362.80872,521.9894,362.91125,521.4674,362.9858,521.0574C363.0697,520.6473,363.16287,519.8271,363.20016,519.2399C363.23746,518.6528,363.32132,518.047,363.37726,517.90717C363.44247,517.75806,363.48907,517.44116,363.48907,517.1895C363.48907,516.93787,363.53568,516.7049,363.58228,516.67694C363.6382,516.649,363.67548,516.5185,363.67548,516.39734C363.67548,516.2762,363.71277,516.155,363.75937,516.1271C363.79666,516.09906,363.86188,515.8847,363.88986,515.65173C363.90848,515.4187,363.99237,515.1764,364.07626,515.11115C364.15082,515.0459,364.27197,514.8595,364.33722,514.6918C364.41177,514.5333,364.49567,514.39355,364.53293,514.39355C364.56088,514.39355,364.68207,514.08594,364.79388,513.71313C364.90573,513.3497,365.0735,512.8184,365.17603,512.5481C365.28787,512.23126,365.3531,511.81186,365.3531,511.3738C365.3531,510.74936,365.32513,510.64685,365.05487,510.2461C364.73798,509.7894,364.32788,509.52844,363.0697,508.97855C361.8767,508.45663,361.4946,508.31683,360.982,508.23294C360.69305,508.18634,360.1059,508.00928,359.66785,507.82288C359.2298,507.64578,358.78247,507.49667,358.66132,507.49667C358.54944,507.49667,358.42828,507.43143,358.40033,507.35687C358.36304,507.28232,358.26984,507.21707,358.17664,507.21707C358.08344,507.21707,357.99023,507.12387,357.95297,507.00272C357.90637,506.80698,357.79453,506.7231,357.05823,506.37827C356.97437,506.34097,356.77863,506.27573,356.6202,506.24777C356.46176,506.2105,356.3033,506.1173,356.27536,506.04272C356.2474,505.96817,356.12622,505.91226,356.00507,505.91226C355.8839,505.91226,355.6882,505.82837,355.56702,505.72586C355.44586,505.62332,355.25015,505.53946,355.129,505.53946C355.01715,505.53946,354.9146,505.5115,354.9146,505.4649C354.9146,505.3717,354.37408,505.07346,354.2063,505.07346C354.13174,505.07346,353.95465,504.97092,353.81488,504.84045C353.67505,504.70996,353.48865,504.60745,353.4048,504.60745C353.31158,504.60745,353.237,504.5515,353.237,504.4863C353.237,504.43036,353.09723,504.3092,352.93878,504.24396C352.771,504.1694,352.3982,503.87115,352.1186,503.57294C351.8297,503.284,351.49417,503.01373,351.373,502.97644C351.25183,502.93915,351.10272,502.8553,351.0468,502.79935C350.98157,502.74344,350.75787,502.54773,350.5342,502.37064C349.76996,501.75552,349.4624,501.48523,348.83795,500.87943C348.50244,500.5439,347.878,499.95673,347.44928,499.57462C347.02985,499.1925,346.51727,498.71716,346.32153,498.52145C346.1258,498.33505,345.95807,498.1766,345.9394,498.1766C345.9301,498.1766,345.67847,497.9529,345.39886,497.68265C345.10992,497.4217,344.75577,497.13275,344.60663,497.0582C344.45752,496.98364,344.23383,496.8252,344.10336,496.70404C343.9729,496.5922,343.82376,496.499,343.7585,496.499C343.6933,496.499,343.63736,496.46173,343.63736,496.42444C343.63736,496.37784,343.46027,496.25668,343.2459,496.13553C343.02222,496.02368,342.7333,495.85593,342.5935,495.77203C342.28595,495.57632,341.40985,495.04507,341.1955,494.91458C341.1023,494.85867,340.9532,494.77478,340.86932,494.72818C340.77612,494.67227,340.6363,494.60703,340.56174,494.56973C340.48718,494.53247,340.40332,494.48587,340.37534,494.45792C340.34738,494.42062,340.0398,494.26218,339.67633,494.0851C339.32217,493.90802,338.9214,493.69366,338.79092,493.60977C338.66046,493.53522,338.18512,493.34882,337.71912,493.1997C337.26245,493.05057,336.7685,492.8735,336.62866,492.80826C336.4982,492.7337,336.29315,492.67776,336.1906,492.67776C336.0788,492.67776,335.9949,492.6405,335.9949,492.5939C335.9949,492.5566,335.54755,492.49136,334.99768,492.4634C333.3853,492.37952,331.7636,491.83896,329.5641,490.6367C327.38318,489.45303,326.8333,489.12683,326.02246,488.53033C325.5844,488.21347,324.92267,487.79407,324.54987,487.58902C324.16776,487.3933,323.61786,487.01117,323.31964,486.75952C321.48358,485.19376,320.72864,484.5227,320.49567,484.2431C320.24402,483.93555,320.24402,483.92624,320.40247,483.73053C320.49567,483.628,320.72864,483.51614,320.92438,483.47888C321.11078,483.45093,321.29718,483.38568,321.32513,483.3484C321.3531,483.3018,321.53018,483.26453,321.71658,483.26453C321.90298,483.26453,322.1453,483.19928,322.2385,483.12473C322.341,483.05014,322.58334,482.98492,322.76974,482.98492C322.96545,482.98492,323.15186,482.93832,323.1798,482.89172C323.2078,482.8358,323.3942,482.79852,323.5899,482.79852C323.78564,482.79852,324.0,482.74258,324.0559,482.66803C324.12115,482.59348,324.34485,482.51892,324.5592,482.49094C325.17432,482.41638,325.864,482.24863,325.96652,482.14612C326.02246,482.09018,326.15292,482.05292,326.26477,482.05292C326.4698,482.05292,327.04767,481.79193,327.15018,481.65213C327.17813,481.61487,327.82123,481.55893,328.57614,481.5403C329.33105,481.51233,330.0301,481.4471,330.1233,481.4005C330.2165,481.34457,330.4215,481.3073,330.57996,481.3073C330.72906,481.3073,330.8875,481.2607,330.91547,481.2141C330.94342,481.15817,331.1112,481.1209,331.28827,481.1209C331.46536,481.1209,331.62378,481.08362,331.66107,481.03702C331.7636,480.85992,332.30417,480.6549,332.649,480.6549C332.84473,480.6549,333.05908,480.58966,333.14297,480.5151C333.21753,480.44052,333.33868,480.3753,333.42258,480.3753C333.49713,480.3753,333.59033,480.338,333.6183,480.2821C333.64624,480.2355,333.87927,480.17026,334.13092,480.13297C334.39185,480.0957,334.5969,480.03976,334.5969,479.99316C334.5969,479.94656,334.84854,479.9093,335.1561,479.9093C335.46368,479.9093,335.7153,479.872,335.7153,479.8254C335.7153,479.7788,335.8458,479.70425,336.01355,479.6763C336.1813,479.639,336.377,479.57376,336.4609,479.5365C336.8244,479.3594,337.09467,479.2662,337.4302,479.2196C337.63525,479.19165,337.82166,479.1357,337.8496,479.0891C337.90552,479.00525,338.17578,478.94,339.02393,478.82816C339.22897,478.7909,339.46198,478.7163,339.53653,478.6511C339.61108,478.5765,339.78818,478.49265,339.93732,478.4647C340.0771,478.4274,340.21692,478.36215,340.24487,478.31555C340.27283,478.26895,340.43127,478.2317,340.60834,478.2317C340.7854,478.2317,340.9532,478.1851,340.98114,478.1385C341.0091,478.08255,341.1023,478.0453,341.1862,478.0453C341.26074,478.0453,341.45648,477.98935,341.6149,477.9148C341.9411,477.7657,342.33255,477.6911,343.3298,477.5979C343.7026,477.56064,344.05676,477.47675,344.122,477.4115C344.18726,477.34628,344.46686,477.29968,344.75577,477.29968C345.07263,477.29968,345.35223,477.24374,345.4641,477.15988C345.5573,477.08533,345.81824,477.02008,346.0326,477.02008C346.24698,477.02008,346.45203,476.97348,346.47998,476.92688C346.50793,476.87094,346.69434,476.83368,346.89008,476.83368C347.0858,476.83368,347.30014,476.77774,347.35608,476.7032C347.42133,476.62863,347.66364,476.54474,347.90594,476.52612C348.7634,476.42358,349.34125,476.30243,349.39716,476.20923C349.43445,476.15332,349.67676,476.08807,349.9284,476.06012C350.79517,475.96692,351.373,475.84573,351.48486,475.73392C351.5501,475.66867,351.7458,475.62207,351.9322,475.62207C352.1186,475.62207,352.305,475.58478,352.36093,475.52887C352.40753,475.48227,352.64053,475.39838,352.8642,475.35178C353.65643,475.18402,354.00128,475.0815,354.1038,474.97897C354.15973,474.92307,354.31815,474.87646,354.45795,474.87646C354.59775,474.87646,354.7469,474.82986,354.77484,474.78326C354.8028,474.72733,354.9426,474.69006,355.0824,474.69006C355.2222,474.69006,355.4552,474.62482,355.6043,474.55026C355.7441,474.4757,356.00507,474.41046,356.18216,474.41046C356.3499,474.41046,356.5177,474.36386,356.54565,474.31726C356.5736,474.26132,356.7134,474.22406,356.8532,474.22406C356.993,474.22406,357.19806,474.16812,357.29126,474.09357C357.39377,474.019,357.71063,473.94446,357.99023,473.9165C359.02478,473.81396,360.4694,473.60892,360.58124,473.53436C360.64648,473.4971,361.5598,473.4505,362.613,473.43185C363.86188,473.4132,364.57022,473.3666,364.63547,473.30136C364.77527,473.16156,367.4408,473.1709,368.5685,473.30136C369.06247,473.3666,371.47638,473.4132,374.48676,473.42252C378.3173,473.43185,379.6221,473.46912,379.77124,473.553C380.14404,473.75806,383.36877,474.0656,383.65768,473.9165C383.7509,473.8699,383.9839,473.86057,384.1703,473.88852C384.3567,473.9165,384.6363,473.94446,384.79474,473.94446C384.98114,473.94446,385.11163,473.99106,385.1489,474.09357C385.1955,474.22406,385.2328,474.21472,385.4285,474.02832C385.54034,473.90717,385.71744,473.6928,385.81064,473.5437C385.95975,473.3107,385.95975,473.2734,385.81995,473.05905C385.63354,472.7701,385.62424,472.388,385.81995,472.2016C385.95044,472.0711,385.9411,472.03384,385.7547,471.8381C385.64288,471.71695,385.4751,471.61444,385.40054,471.61444C385.31668,471.61444,385.13028,471.5119,384.98114,471.38144C384.83203,471.25095,384.65494,471.14844,384.58038,471.14844C384.51514,471.14844,384.45923,471.10184,384.45923,471.0459C384.45923,470.99,384.25418,470.96204,383.92798,470.98068L383.38742,471.00864L383.38742,470.6638C383.38742,470.32828,383.28488,470.15118,382.91208,469.83432C382.81888,469.75043,382.62317,469.56403,382.49268,469.41492C382.3622,469.26578,382.06396,469.05142,381.83096,468.93958C381.60727,468.81842,381.337,468.64133,381.2438,468.53882C381.1506,468.4363,381.0201,468.35242,380.95486,468.35242C380.88965,468.35242,380.8244,468.32446,380.80576,468.27786C380.75916,468.17532,379.8458,467.6068,379.72464,467.6068C379.6594,467.6068,379.6128,467.5602,379.6128,467.5136C379.6128,467.4577,379.53824,467.4204,379.45435,467.4204C379.36115,467.4204,379.16544,467.35516,379.0163,467.2806C378.8765,467.20605,378.6808,467.1408,378.5969,467.1408C378.51303,467.1408,378.3639,467.07556,378.2707,467.001C378.16818,466.92645,377.97247,466.8612,377.83267,466.8612C377.69287,466.8612,377.54373,466.8239,377.51578,466.768C377.48782,466.7121,377.35733,466.6748,377.22687,466.6748C377.10568,466.6748,376.92862,466.6375,376.83542,466.5816C376.51852,466.41385,375.53992,466.05035,375.0739,465.9292C374.91547,465.8919,374.66385,465.7801,374.5147,465.67755C374.3749,465.58435,374.1419,465.44455,374.0021,465.3793C373.87164,465.3141,373.73184,465.1743,373.7132,465.0811C373.68524,464.98788,373.59204,464.87604,373.4895,464.83875C373.3497,464.78284,372.6414,464.19568,371.54163,463.22638C371.4391,463.13318,371.12222,462.94678,370.84262,462.80698C370.56302,462.6765,370.27408,462.5367,370.19952,462.4901C369.62167,462.1639,368.87607,462.21982,368.36346,462.6299C368.16776,462.78833,367.89746,462.94678,367.75766,462.97473C367.61786,463.01202,367.31964,463.21707,367.08664,463.44073C366.136,464.3541,364.92438,465.35135,364.60748,465.49115C364.53293,465.52844,364.34653,465.6403,364.18808,465.7335C364.03897,465.836,363.74072,465.9199,363.52637,465.9199C363.32132,465.9292,363.0697,465.99445,362.96716,466.069C362.87396,466.14355,362.6969,466.2088,362.58502,466.2088C362.4732,466.2088,362.36136,466.2461,362.3334,466.28336C362.27747,466.37656,360.52533,466.55365,359.20184,466.60025C358.52148,466.6282,353.61914,466.3952,352.81763,466.2927C352.26773,466.22745,350.51556,466.2088,347.6916,466.23676C343.36707,466.28336,341.9877,466.3579,341.6149,466.56296C341.50305,466.6282,341.22345,466.6748,340.99048,466.6748C340.75745,466.6748,340.5431,466.7121,340.51514,466.768C340.48718,466.8146,340.33807,466.8612,340.19824,466.8612C340.04913,466.8612,339.88138,466.92645,339.81613,467.001C339.75092,467.07556,339.61108,467.1408,339.49927,467.1408C339.32217,467.1408,338.71637,467.3179,338.27832,467.5043C338.17578,467.54156,337.92416,467.63477,337.71912,467.7C337.5141,467.76526,337.22516,467.86777,337.0667,467.933C336.9176,467.99826,336.34906,468.18466,335.8085,468.35242C335.26794,468.52017,334.7926,468.69727,334.74603,468.74387C334.6901,468.78113,334.513,468.81842,334.33594,468.81842C334.16818,468.81842,333.94452,468.86502,333.85132,468.91162C333.6183,469.03278,331.68903,469.19122,329.3777,469.27512C328.38043,469.31238,326.86127,469.40558,325.9945,469.47083C324.41937,469.60132,323.9534,469.58267,322.2478,469.27512C321.9962,469.22852,321.46494,469.14462,321.08282,469.0887C320.70068,469.03278,320.30927,468.9489,320.22537,468.9023C320.13217,468.8557,319.78732,468.81842,319.45178,468.81842C319.11627,468.81842,318.846,468.78113,318.846,468.73453C318.846,468.68793,318.6969,468.6227,318.51978,468.59473C318.0072,468.49222,313.87842,468.5295,312.69476,468.64133C312.1076,468.69727,311.1197,468.77182,310.50455,468.81842C309.8894,468.8557,308.79898,468.93958,308.08133,469.00482C306.68332,469.11667,305.1828,469.07938,305.02435,468.92093C304.96844,468.86502,304.80066,468.81842,304.6609,468.81842C304.51175,468.81842,304.32535,468.78113,304.23215,468.73453C304.14825,468.68793,303.86865,468.5761,303.617,468.4829C303.02054,468.27786,302.1631,467.77457,302.1631,467.63477C302.1631,467.57886,301.95807,467.5043,301.70642,467.467C301.46408,467.42972,301.13788,467.34586,300.99808,467.2713C300.85828,467.19672,300.69983,467.1408,300.65326,467.1408C300.59732,467.1408,300.45752,467.0383,300.33636,466.9078C300.1593,466.7121,300.03812,466.6748,299.6187,466.6748C299.34845,466.6748,299.08746,466.6375,299.03156,466.5909C298.93835,466.4884,298.32324,466.32065,297.68945,466.2181C297.45648,466.18085,297.17688,466.09695,297.065,466.04105C296.74814,465.86395,292.94556,465.8919,292.2838,466.069C292.0042,466.14355,291.6128,466.2088,291.4264,466.2088C291.24,466.2088,291.0629,466.2461,291.03494,466.2927C291.00696,466.32996,290.80194,466.3952,290.5876,466.41385C290.3639,466.4418,290.00974,466.5443,289.78607,466.65616C289.56238,466.7587,289.26413,466.87985,289.115,466.9078C288.95657,466.9451,288.8354,467.0103,288.8354,467.05692C288.8354,467.10352,288.75153,467.1408,288.649,467.1408C288.54648,467.1408,288.4626,467.1781,288.4626,467.234C288.4626,467.2806,288.41602,467.3272,288.36008,467.3272C288.14572,467.3272,287.46536,467.70932,287.1112,468.0169C286.90616,468.2033,286.6079,468.41766,286.44016,468.49222C286.2724,468.5761,286.11395,468.67862,286.086,468.72522C286.05804,468.77182,285.8623,468.8091,285.6573,468.79977C285.4522,468.79047,285.23785,468.83707,285.18195,468.89297C285.1167,468.95822,284.9769,469.00482,284.86505,469.00482C284.7439,469.00482,284.5948,469.06073,284.52954,469.12598C284.45496,469.20053,284.07288,469.28442,283.63483,469.32172C283.2154,469.34967,282.75873,469.42422,282.61893,469.48013C282.17157,469.64792,276.9803,469.37762,276.76593,469.18192C276.71933,469.1353,276.55157,469.09802,276.39313,469.09802C276.24402,469.09802,275.94577,468.98618,275.74072,468.86502C275.53568,468.73453,275.27472,468.63202,275.16287,468.63202C275.05103,468.63202,274.9392,468.59473,274.91125,468.54813C274.88327,468.51086,274.69687,468.44562,274.49182,468.41766C274.2495,468.3897,273.75555,468.14737,273.1311,467.75592C272.59985,467.4204,272.11523,467.1408,272.07794,467.1408C272.03134,467.1408,271.9195,467.05692,271.8263,466.9544C271.7331,466.8519,271.62128,466.768,271.57465,466.768C271.49078,466.768,270.06482,466.1156,269.61743,465.8733C269.48697,465.7987,269.30988,465.7428,269.23532,465.7428C269.16077,465.7428,268.91846,465.6496,268.69476,465.52844C268.07965,465.20224,267.0078,464.8108,266.7282,464.8108C266.58844,464.8108,266.45795,464.7735,266.43,464.7269C266.40204,464.68964,266.17834,464.59644,265.93604,464.5312C265.6844,464.46594,265.45135,464.38208,265.39545,464.3448C265.20905,464.19568,264.13727,463.86948,262.92566,463.58054C262.55286,463.48734,261.97498,463.47803,260.2694,463.51532C259.9898,463.51532,259.68225,463.51532,259.5984,463.50598C259.07648,463.43143,257.17517,463.03067,256.4948,462.84427C255.79579,462.65787,255.48824,462.6299,253.83858,462.62057C252.31009,462.62057,251.88136,462.64853,251.47128,462.77902C251.19168,462.87222,250.75365,462.94678,250.49268,462.94678C250.23172,462.94678,249.83096,462.99338,249.59796,463.04932C249.36496,463.10522,249.05739,463.15182,248.89896,463.15182C248.74983,463.14252,248.56343,463.19843,248.48886,463.25433C248.34906,463.37552,247.60345,463.58987,247.30522,463.59918C247.0163,463.59918,246.00974,464.31683,245.29208,465.02515C244.93793,465.37,244.65833,465.6869,244.65833,465.72415C244.65833,465.77075,244.51852,465.94785,244.36008,466.1249C244.19232,466.302,243.89407,466.6282,243.70767,466.8519L243.35352,467.24332L241.01418,467.19672C239.71869,467.16876,238.63756,467.11285,238.6096,467.06625C238.58165,467.01965,238.36728,466.9451,238.13428,466.9078C237.84535,466.8612,237.631,466.74936,237.43527,466.535C237.18364,466.2647,236.59647,465.9292,236.39143,465.9292C236.34483,465.9292,236.20503,465.8267,236.08386,465.6962C235.9627,465.5657,235.83223,465.4632,235.78563,465.4632C235.74835,465.4632,235.61786,465.3793,235.4967,465.2768C235.28235,465.0904,234.8909,464.84808,234.4249,464.60574C234.31305,464.54984,234.04279,464.33548,233.82841,464.13974C233.61404,463.94403,233.39969,463.78558,233.35309,463.78558C233.29718,463.78558,233.12009,463.68307,232.95233,463.55258C232.78458,463.42212,232.59818,463.31958,232.54224,463.31958C232.477,463.31958,232.30923,463.21707,232.1508,463.08658C232.00168,462.95612,231.79663,462.85358,231.69412,462.85358C231.60092,462.85358,231.51703,462.80698,231.51703,462.76038C231.51703,462.70447,231.42383,462.62057,231.312,462.56467C230.78076,462.32233,230.58502,462.18253,230.58502,462.0241C230.58502,461.89362,230.52911,461.86566,230.35202,461.90292C230.22156,461.92157,230.01651,461.87497,229.86739,461.78177C229.69962,461.66992,229.60641,461.6513,229.57846,461.71652C229.53186,461.85632,229.09381,461.86566,229.09381,461.73517C229.09381,461.67926,228.9913,461.64197,228.87015,461.64197C228.7117,461.64197,228.60918,461.5581,228.49734,461.31577C228.41345,461.1387,228.32025,460.98956,228.30162,460.98956C228.27365,460.98956,228.18977,461.0921,228.1059,461.22256 Z M259.5238,485.5013C259.55176,485.5479,259.68225,485.5945,259.81274,485.5945C259.9339,485.5945,260.03644,485.6318,260.03644,485.6877C260.03644,485.7343,260.14825,485.8089,260.28806,485.83685C260.42786,485.8741,260.65155,486.0046,260.78204,486.12576C260.9032,486.2376,261.06165,486.34012,261.12686,486.34012C261.1921,486.34012,261.24805,486.3774,261.24805,486.43332C261.24805,486.47992,261.35056,486.52652,261.48102,486.52652C261.6115,486.52652,261.742,486.59177,261.76996,486.66632C261.80725,486.7409,261.8911,486.80612,261.96567,486.80612C262.04022,486.80612,262.22662,486.87137,262.3944,486.95526C262.60876,487.0671,263.839,487.22552,266.9333,487.52377C271.57465,487.97113,272.4414,487.98978,274.94852,487.68222C276.33722,487.51447,279.0121,487.54242,280.82016,487.74747C281.63098,487.84067,282.04108,487.83133,283.42047,487.70087C284.3245,487.61697,285.3404,487.50513,285.68524,487.44922C286.43085,487.3467,287.40942,487.3467,288.0432,487.45853C288.34143,487.50513,288.5558,487.49582,288.63037,487.4399C288.69562,487.37466,288.96588,487.36533,289.32007,487.40262C289.9445,487.47717,291.8085,488.02707,292.1906,488.26007C292.93622,488.69812,293.3929,488.84723,294.33423,488.93112C295.33148,489.01498,296.19824,488.98703,296.19824,488.85654C296.19824,488.75403,297.9784,488.76334,298.19275,488.87518C298.30457,488.93112,298.4817,489.07092,298.58417,489.19208C298.69604,489.30392,298.88245,489.41574,299.0036,489.4344C299.1527,489.45303,299.23657,489.53693,299.25525,489.6674C299.27386,489.78854,299.34845,489.88174,299.4323,489.88174C299.656,489.88174,300.0661,490.16135,300.16858,490.38504C300.22452,490.51553,300.35498,490.5901,300.56006,490.60873C300.74646,490.62735,300.85828,490.6926,300.85828,490.7765C300.85828,490.85104,300.95148,490.90695,301.07263,490.9163C301.18448,490.9163,301.40817,491.00015,301.55728,491.1027C301.71573,491.1959,301.90213,491.3077,301.97668,491.3357C302.05127,491.36365,302.34018,491.4941,302.61047,491.6153C302.88074,491.73645,303.1417,491.83896,303.179,491.83896C303.2256,491.83896,303.38403,491.8949,303.53314,491.96945C303.878,492.1372,304.40924,492.30496,304.6422,492.30496C304.7354,492.30496,304.9032,492.3702,304.9964,492.44476C305.0989,492.51932,305.29462,492.58456,305.44376,492.58456C305.58356,492.58456,305.7047,492.62186,305.7047,492.67776C305.7047,492.72437,305.78857,492.77097,305.8911,492.77097C305.99365,492.77097,306.23596,492.85486,306.4317,492.95737C306.62738,493.0599,307.03748,493.19037,307.34503,493.2463C307.64328,493.30222,307.9322,493.3861,307.98813,493.4327C308.03473,493.4793,308.2118,493.51657,308.37958,493.51657C308.54733,493.51657,308.7617,493.55386,308.8549,493.60046C309.12518,493.74957,309.964,493.98257,310.21564,493.98257C310.3461,493.98257,310.45795,494.01987,310.45795,494.05713C310.45795,494.1317,311.3993,494.44858,311.63226,494.44858C311.71616,494.44858,311.8373,494.51382,311.91187,494.58838C311.99576,494.66293,312.1449,494.72818,312.2567,494.72818C312.36856,494.72818,312.54565,494.79343,312.63885,494.86798C312.74136,494.94254,312.91846,495.00778,313.03027,495.00778C313.15143,495.00778,313.27258,495.04507,313.30057,495.10098C313.32852,495.14758,313.5429,495.19418,313.77588,495.19418C313.99957,495.19418,314.26053,495.23148,314.35373,495.28738C314.55878,495.39923,315.33234,495.57632,315.89154,495.63223C316.13385,495.6602,316.3296,495.71613,316.3296,495.76273C316.3296,495.8,316.4787,495.86523,316.6558,495.90253C316.8329,495.93048,317.00995,495.99573,317.0379,496.04233C317.06586,496.08893,317.215,496.1262,317.3641,496.1262C317.52255,496.1262,317.70895,496.19144,317.7835,496.266C317.86737,496.34055,318.0072,496.4058,318.1004,496.4058C318.1936,496.4058,318.30542,496.44308,318.33337,496.499C318.36136,496.5456,318.5291,496.5922,318.70618,496.5922C318.87396,496.5922,319.07898,496.65744,319.1629,496.732C319.23743,496.80655,319.42383,496.8718,319.58228,496.8718C319.778,496.8718,319.87122,496.9184,319.87122,497.0116C319.87122,497.08615,319.9085,497.1514,319.96442,497.1514C320.14148,497.1514,321.08282,497.6267,321.08282,497.7106C321.08282,497.7665,321.14807,497.8038,321.2226,497.8038C321.29718,497.8038,321.36243,497.8411,321.36243,497.897C321.36243,497.9436,321.46494,498.00885,321.5954,498.0461C321.7259,498.0741,321.82843,498.1393,321.82843,498.1859C321.82843,498.2325,321.93094,498.2698,322.0521,498.2698C322.1826,498.2698,322.31305,498.3071,322.341,498.363C322.39694,498.4469,322.66724,498.57736,323.31964,498.829C323.4967,498.90356,323.9627,498.9688,324.34485,498.98746C324.72696,499.0061,325.12772,499.062,325.23022,499.1086C325.51917,499.2484,326.20886,499.40686,326.72144,499.45346C326.98242,499.4814,327.23407,499.53732,327.28064,499.57462C327.33658,499.6119,327.63483,499.67712,327.961,499.71442C328.2779,499.7517,328.53888,499.81693,328.53888,499.86353C328.53888,499.91013,328.688,499.94742,328.86505,499.94742C329.08875,499.94742,329.19128,499.99402,329.19128,500.08722C329.19128,500.1711,329.27515,500.22702,329.42426,500.22702C329.55475,500.22702,329.6573,500.2643,329.6573,500.32022C329.6573,500.36682,329.74115,500.41342,329.83435,500.41342C329.92755,500.41342,330.0301,500.47867,330.06735,500.55322C330.0953,500.62778,330.20715,500.69302,330.3097,500.69302C330.4122,500.69302,330.4961,500.73032,330.4961,500.78622C330.4961,500.83282,330.63586,500.87943,330.81296,500.87943C331.00867,500.87943,331.1485,500.93533,331.18576,501.01923C331.2137,501.09378,331.3349,501.15903,331.45605,501.15903C331.58652,501.15903,331.73566,501.22427,331.8009,501.29883C331.86612,501.37338,331.99658,501.43863,332.08978,501.43863C332.18298,501.43863,332.27618,501.47592,332.31348,501.52252C332.38806,501.65298,332.9193,501.90463,333.12433,501.90463C333.21753,501.90463,333.2921,501.94193,333.2921,501.99783C333.2921,502.04443,333.37598,502.09103,333.47852,502.09103C333.57172,502.09103,333.69287,502.14694,333.73013,502.22153C333.84198,502.3986,334.46643,502.79004,335.9297,503.5636C336.172,503.68475,336.3677,503.82455,336.3677,503.87115C336.3677,503.90845,336.4982,503.96436,336.6473,504.00165C336.80576,504.03894,336.9269,504.10416,336.9269,504.15076C336.9269,504.19736,337.02942,504.23465,337.1599,504.23465C337.2904,504.23465,337.3929,504.27194,337.3929,504.3185C337.3929,504.43036,337.93347,504.70065,338.15717,504.70065C338.25037,504.70065,338.32492,504.7659,338.32492,504.84045C338.32492,504.915,338.4088,504.98026,338.51132,504.98026C338.61383,504.98026,338.77228,505.01752,338.86548,505.06412C338.94937,505.11072,339.08917,505.17596,339.16373,505.20392C339.23828,505.2319,339.3874,505.31577,339.48993,505.3717C340.0771,505.7538,340.39398,505.91226,340.56174,505.91226C340.66425,505.91226,340.74814,505.94952,340.74814,505.99612C340.74814,506.04272,340.86932,506.10797,341.02774,506.14526C341.17688,506.18253,341.326,506.24777,341.35394,506.29437C341.39124,506.34097,341.50305,506.37827,341.6149,506.37827C341.72675,506.37827,341.9038,506.4435,341.997,506.51807C342.09955,506.59262,342.2766,506.65787,342.3885,506.65787C342.5003,506.65787,342.61215,506.68582,342.6308,506.7231C342.6774,506.84427,343.35776,507.12387,343.59076,507.12387C343.72125,507.12387,343.82376,507.15182,343.82376,507.18912C343.82376,507.30093,344.37366,507.58987,344.57867,507.58987C344.67188,507.58987,344.75577,507.62714,344.75577,507.66443C344.75577,507.72968,345.38953,508.05588,345.52933,508.05588C345.5573,508.05588,345.69708,508.1584,345.8369,508.28888C345.97668,508.41934,346.20038,508.52188,346.34018,508.52188C346.48932,508.52188,346.61978,508.58713,346.65704,508.66168C346.685,508.73624,346.78754,508.80148,346.89008,508.80148C346.99258,508.80148,347.10443,508.83875,347.1324,508.89468C347.16034,508.94128,347.26288,508.98788,347.34674,508.98788C347.4306,508.98788,347.5984,509.0904,347.71954,509.21155C347.8314,509.33273,348.03644,509.4632,348.1762,509.5005C348.4558,509.56573,348.9591,509.89194,349.07095,510.07834C349.10822,510.14355,349.2294,510.1995,349.3226,510.1995C349.4251,510.1995,349.509,510.26474,349.509,510.3393C349.509,510.42316,349.5929,510.4791,349.72336,510.4791C349.8352,510.4791,350.08685,510.6282,350.27325,510.8053C350.45966,510.98236,350.64606,511.1315,350.68332,511.1315C350.7113,511.1315,350.88837,511.25266,351.06543,511.4111C351.23322,511.5602,351.41962,511.6907,351.47552,511.6907C351.53143,511.6907,351.72717,511.8398,351.91357,512.0169C352.09998,512.194,352.28638,512.34314,352.33298,512.34314C352.37024,512.34314,352.3982,512.3897,352.3982,512.4456C352.3982,512.5668,352.63123,512.8091,352.75238,512.8091C352.79898,512.8091,352.88287,512.90234,352.94812,513.01416C353.01334,513.1353,353.21838,513.3031,353.41412,513.38696C353.65643,513.4988,353.7962,513.6572,353.8894,513.8809C353.964,514.058,354.0572,514.20715,354.1038,514.20715C354.2063,514.20715,354.5325,514.58923,354.5418,514.7197C354.5418,514.76636,354.6723,514.9527,354.8214,515.12976C354.97986,515.29755,355.101,515.4746,355.101,515.50256C355.101,515.5399,355.1756,515.65173,355.2688,515.7543C355.35266,515.85675,355.5111,516.0898,355.6043,516.28546C355.70685,516.47186,355.81866,516.6303,355.8653,516.6303C355.90256,516.6303,355.93982,516.7235,355.93982,516.8354C355.94916,516.95654,356.00507,517.1522,356.07965,517.2827C356.1542,517.4132,356.2101,517.6742,356.21942,517.8606C356.21942,518.047,356.2567,518.22406,356.3033,518.252C356.3499,518.27997,356.41516,518.4943,356.4431,518.72736C356.4804,518.95105,356.54565,519.1654,356.60156,519.19336C356.64816,519.2306,356.68542,519.38904,356.68542,519.56616C356.68542,519.7432,356.73206,519.911,356.77863,519.93896C356.83456,519.9669,356.87183,520.07874,356.87183,520.1813C356.87183,520.2838,356.93707,520.3863,357.01166,520.4143C357.0862,520.45154,357.15143,520.5727,357.15143,520.69385C357.15143,520.81506,357.18872,520.91754,357.23532,520.91754C357.28192,520.91754,357.34717,521.0387,357.38446,521.19714C357.42172,521.3463,357.48697,521.49536,357.53357,521.5234C357.58017,521.56067,357.61743,521.6538,357.61743,521.7471C357.61743,521.8402,357.68268,521.9707,357.75726,522.03595C357.8318,522.1012,357.89703,522.2876,357.89703,522.4647C357.89703,522.63245,357.94366,522.8002,357.99957,522.83746C358.16733,522.94,357.95297,523.9559,357.71997,524.1889C357.49628,524.40326,356.96503,524.64557,356.72272,524.64557C356.60156,524.64557,356.48972,524.68286,356.46176,524.7295C356.3872,524.8506,355.595,524.9531,354.87735,524.9345C354.32745,524.9252,354.197,524.9531,354.0106,525.13025C353.89874,525.24207,353.7962,525.4005,353.7962,525.4751C353.78693,525.6708,353.52594,525.997,353.237,526.1368C353.10654,526.202,352.83624,526.3884,352.63123,526.55615C352.42618,526.7146,352.18384,526.8358,352.09998,526.80786C352.00677,526.7892,351.9322,526.81714,351.9322,526.87305C351.9322,527.0129,351.69922,527.00354,351.4569,526.85443C351.29846,526.7612,351.24252,526.7612,351.21457,526.85443C351.15863,527.00354,350.8138,527.0129,350.8138,526.87305C350.8138,526.80786,350.56216,526.7799,350.09616,526.7985C349.6954,526.80786,342.60284,526.80786,334.3266,526.7985C323.4501,526.7892,319.24677,526.7612,319.15356,526.68665C319.0697,526.6121,319.0324,526.6121,319.0324,526.68665C319.0324,526.8265,318.59436,526.81714,318.53845,526.668C318.50116,526.5748,318.4732,526.5748,318.37067,526.668C318.30542,526.7333,318.17496,526.7892,318.09106,526.7892C317.99786,526.7892,317.914,526.7333,317.88605,526.668C317.8581,526.5748,317.80215,526.5748,317.6437,526.668C317.42935,526.7985,317.1684,526.8265,317.1684,526.7146C317.1684,526.6401,315.6958,526.6494,315.61194,526.7333C315.5094,526.8265,315.16458,526.7985,315.0434,526.67737C314.95953,526.5935,314.93158,526.5935,314.93158,526.67737C314.93158,526.8358,314.60538,526.81714,314.46558,526.6494C314.38168,526.5469,314.31647,526.53754,314.22327,526.6121C314.14868,526.668,313.98093,526.68665,313.81317,526.6494C313.6361,526.6121,313.53357,526.62146,313.53357,526.68665C313.53357,526.74255,313.43103,526.7892,313.30057,526.7892C313.1701,526.7892,313.06757,526.74255,313.06757,526.67737C313.06757,526.5935,313.0396,526.5935,312.95572,526.67737C312.80658,526.8265,312.4804,526.81714,312.34058,526.67737C312.24738,526.58417,312.2008,526.58417,312.15417,526.668C312.06097,526.81714,309.7869,526.81714,309.6937,526.6587C309.6378,526.58417,309.6005,526.58417,309.5539,526.6587C309.4514,526.81714,302.15378,526.81714,302.04193,526.668C301.98602,526.58417,301.94873,526.58417,301.91144,526.668C301.85553,526.81714,301.32428,526.8265,301.32428,526.68665C301.32428,526.6121,301.287,526.6121,301.21246,526.67737C301.03537,526.81714,299.3391,526.80786,299.25525,526.668C299.1993,526.58417,299.18066,526.58417,299.18066,526.668C299.18066,526.74255,299.05017,526.7892,298.8545,526.7892C298.65875,526.7892,298.52826,526.74255,298.52826,526.668C298.52826,526.5935,298.5003,526.6028,298.43506,526.696C298.3698,526.80786,298.2953,526.81714,298.06226,526.72394C297.91315,526.668,297.78265,526.6587,297.78265,526.7053C297.78265,526.7519,297.68015,526.7892,297.54968,526.7892C297.4192,526.7892,297.31665,526.74255,297.31665,526.696C297.31665,526.6401,297.2514,526.6028,297.17688,526.6028C297.1023,526.6028,297.03705,526.6401,297.03705,526.696C297.03705,526.74255,296.93454,526.7892,296.80408,526.7892C296.67358,526.7892,296.57104,526.74255,296.57104,526.696C296.57104,526.6401,296.5058,526.6028,296.43127,526.6028C296.3567,526.6028,296.29144,526.6401,296.29144,526.696C296.29144,526.74255,296.20758,526.7892,296.10504,526.7892C296.00253,526.7892,295.91864,526.74255,295.91864,526.696C295.91864,526.6401,295.8534,526.6028,295.77887,526.6028C295.70428,526.6028,295.63904,526.6401,295.63904,526.696C295.63904,526.74255,295.53653,526.7892,295.40607,526.7892C295.27557,526.7892,295.17303,526.74255,295.17303,526.696C295.17303,526.6401,295.1078,526.6028,295.03326,526.6028C294.95868,526.6028,294.89343,526.6401,294.89343,526.696C294.89343,526.8265,294.54858,526.80786,294.49268,526.668C294.46472,526.5748,294.4088,526.5748,294.25037,526.668C294.01736,526.81714,293.77502,526.8265,293.77502,526.696C293.77502,526.6401,293.70978,526.6028,293.63525,526.6028C293.56067,526.6028,293.49542,526.6401,293.49542,526.696C293.49542,526.74255,293.41156,526.7892,293.30902,526.7892C293.2065,526.7892,293.12262,526.74255,293.12262,526.696C293.12262,526.6401,293.03876,526.6028,292.93622,526.6028C292.8337,526.6028,292.74982,526.6401,292.74982,526.696C292.74982,526.81714,292.40497,526.81714,292.3584,526.696C292.31177,526.55615,290.1402,526.5282,290.1402,526.668C290.1402,526.81714,289.79538,526.8265,289.74878,526.67737C289.70218,526.5469,286.03937,526.4816,286.03937,526.6121C286.03937,526.6587,285.9555,526.696,285.85297,526.696C285.7505,526.696,285.66656,526.6494,285.66656,526.6028C285.66656,526.53754,285.2658,526.5096,284.57614,526.5282C281.93857,526.5655,272.4414,526.49097,272.07794,526.4257C271.8636,526.3791,271.66785,526.3791,271.6399,526.4164C271.56534,526.53754,268.98367,526.50024,268.98367,526.3791C268.98367,526.30457,268.96503,526.30457,268.90912,526.3791C268.82526,526.5096,267.77206,526.5189,267.61365,526.39777C267.52975,526.3325,267.49246,526.3325,267.49246,526.4071C267.49246,526.5469,266.9985,526.53754,266.8587,526.39777C266.77484,526.31384,266.7469,526.31384,266.7469,526.39777C266.7469,526.5469,266.4486,526.5469,266.2995,526.39777C266.21564,526.31384,266.1597,526.31384,266.0758,526.39777C265.93604,526.53754,265.62848,526.5469,265.62848,526.4164C265.62848,526.35114,265.57254,526.35114,265.45135,526.4164C265.237,526.5282,264.88287,526.53754,264.88287,526.43506C264.88287,526.39777,264.7151,526.36975,264.51007,526.36975C264.305,526.36975,264.13727,526.39777,264.13727,526.43506C264.13727,526.55615,263.71783,526.5189,263.58734,526.3884C263.48486,526.2952,263.45688,526.2952,263.41962,526.3884C263.36368,526.53754,263.09338,526.5469,262.9536,526.4071C262.87903,526.3325,262.79517,526.3418,262.65536,526.43506C262.49692,526.53754,262.42236,526.53754,262.25458,526.4257C262.10547,526.3325,262.04022,526.3325,262.01227,526.4071C261.96567,526.53754,261.68607,526.53754,261.5556,526.4071C261.48102,526.3325,261.39716,526.3418,261.25735,526.43506C261.0989,526.53754,261.02435,526.53754,260.85657,526.4257C260.70746,526.3325,260.6422,526.3325,260.61426,526.4071C260.57697,526.5282,260.12964,526.5469,260.12964,526.4257C260.12964,526.3791,260.00848,526.3884,259.85004,526.44434C259.64496,526.5189,259.54248,526.5189,259.4679,526.44434C259.39334,526.36975,259.29083,526.36975,259.0951,526.4537C258.9087,526.5189,258.79688,526.5189,258.75024,526.463C258.6757,526.35114,256.4948,526.3325,256.4948,526.43506C256.4948,526.5469,256.23383,526.5189,256.01947,526.3884C255.86104,526.2952,255.80511,526.2952,255.77716,526.3884C255.73056,526.5282,255.40436,526.55615,255.35776,526.4257C255.34843,526.3791,253.48442,526.3232,251.22896,526.2859C248.97351,526.24866,246.38254,526.21136,245.45985,526.202C243.93135,526.1741,243.79155,526.16473,243.66107,525.997C243.58652,525.8945,243.53992,525.6987,243.55855,525.56824C243.58652,525.4005,243.53992,525.2887,243.42807,525.2141C243.26031,525.1116,243.18576,524.7388,243.33487,524.7388C243.37216,524.7388,243.484,524.599,243.58652,524.4312C243.67972,524.27277,243.78224,524.1143,243.8102,524.08636C243.84747,524.0584,243.95,523.872,244.05252,523.667C244.15504,523.4619,244.3694,523.145,244.52785,522.96796C244.90996,522.53925,245.40393,521.7284,245.40393,521.542C245.40393,521.4674,245.48781,521.2065,245.58101,520.9735C245.68353,520.7405,245.79536,520.3956,245.82333,520.1999C245.86061,520.00415,245.92586,519.7153,245.96313,519.56616C246.20546,518.718,246.38254,518.1122,246.54097,517.6742C246.63417,517.4039,246.70874,517.10565,246.70874,517.01245C246.70874,516.8074,247.16542,515.6238,247.60345,514.70105C247.78055,514.3376,247.92035,514.0021,247.92035,513.95544C247.92966,513.9182,248.00423,513.71313,248.10675,513.5081C248.20926,513.3031,248.28383,513.07935,248.29315,513.01416C248.29315,512.9489,248.35838,512.7998,248.43295,512.6786C248.59138,512.4456,248.82439,511.7,248.94556,511.0383C248.98283,510.8053,249.09467,510.32065,249.17856,509.9665C249.43951,508.904,249.49544,508.3914,249.58864,506.42487C249.63524,505.39966,249.72844,504.33716,249.77504,504.05756C249.83096,503.7873,249.87756,503.3679,249.87756,503.1442C249.87756,502.73413,250.11057,501.86734,250.269,501.65298C250.3156,501.59708,250.35287,501.19632,250.35287,500.76758C250.3622,499.69577,250.4554,499.36026,251.12645,497.9529C251.44333,497.2819,251.78816,496.41513,251.88136,496.033C251.97456,495.65088,252.10506,495.14758,252.17029,494.91458C252.23553,494.68158,252.33806,494.2249,252.39397,493.88937C252.49649,493.2929,252.78542,492.47272,252.98114,492.2211C253.12094,492.0533,253.69878,490.72055,253.69878,490.56213C253.69878,490.4969,253.73605,490.3664,253.78265,490.2732C254.2673,489.32254,254.49098,488.42783,254.5935,487.07642L254.6401,486.3681L255.91696,486.20032C256.61597,486.11646,257.23108,486.0046,257.287,485.958C257.33362,485.9114,257.50134,485.8741,257.6598,485.8741C257.81824,485.8741,257.98602,485.83685,258.04193,485.79025C258.3029,485.51996,259.40265,485.3149,259.5238,485.5013 Z"/> </g> </g> </svg>