<?xml version="1.0" encoding="utf-8"?>
<!-- Designed by Vexels.com - 2019 All Rights Reserved - https://vexels.com/terms-and-conditions/  -->
<svg version="1.1" id="Layer_1" xmlns="http://www.w3.org/2000/svg" xmlns:xlink="http://www.w3.org/1999/xlink" x="0px" y="0px"
	 viewBox="0 0 1200 1200" enable-background="new 0 0 1200 1200" xml:space="preserve">
<path fill="#4E647A" d="M1149.594,730.784c-2.099-16.376-17.616-22.338-31.664-26.974c-4.917-1.623-9.947-2.916-14.983-4.122
	c-10.961-2.626-18.945-0.213-28.107,1.535c-11.37-0.761-23.863-7.47-34.019-12.361c-17.967-8.653-30.979-16.845-48.5-26.049
	c-23.184-14.086-58.631-26-88.062-24.525c-13.447,0.674-26.966,4.045-40.4,4.175c-16.808,0.164-34.038-8.233-48.862-15.725
	c-6.08-3.073-18.827-7.677-22.854-12.93c-1.779-2.319-2.21-7.642-4.655-10.725c-1.039-1.309-2.418-2.613-3.557-3.781
	c-9.311-9.538-24.015-20.908-36.179-30.145c-21.27-16.154-40.558-32.361-58.074-52.35c-9.605-10.962-23.028-21.014-35.124-29.088
	c-16.305-10.883-31.897-12.675-50.136-16.455c-15.511-3.214-30.809-11.111-45.77-16.157c-18.383-6.2-36.587-12.274-54.307-20.288
	c-28.987-13.108-57.233-24.873-88.307-32.073c-30.411-7.046-64.132-11.471-96.257-13.281c-18.221-1.027-38.176-0.745-55.682,4.912
	c-14.197,4.588-28.455,17.984-43.039,9.393c-13.596-8.008-21.437-28.415-29.997-41.246c-10.891-16.326-31.512-30.143-51.871-30.889
	c-25.844,0.321-48.281,18.395-65.004,36.518c-10.834,11.741-27.554,25.569-23.586,43.991c2.028,9.418,8.69,7.207,14.732,11.692
	c2.454,1.822,4.473,8.057,5.212,9.378c1.873,5.416,5.205,11.827,8.759,16.326c3.778,4.783,10.41,6.893,13.468,12.352
	c2.657,4.746,2.573,11.193,3.109,16.502c1.006,9.969,0.856,15.196,11.894,15.127c12.305-0.077,17.011,11.542,25.054,19.738
	c6.303,6.424,12.549,12.476,21.575,11.247c10.257-1.396,16.303-8.501,22.191-16.454c1.388-1.876,3.131-5.902,5.062-6.805
	c2.935-1.373,9.972,1.015,13.55,1.26c7.346,0.502,14.703-0.216,21.933-1.498c-1.211,15.676,6.4,33.455,14.141,46.468
	c4.237,7.124,9.598,14.087,13.291,21.472c6.255,12.506,3.818,30.509,4.82,44.195c1.727,23.573,2.704,46.328,1.289,69.945
	c-0.846,14.126,0.352,29.351,2.95,43.264c3.061,16.386,7.392,32.97,7.893,49.74c-1.718-1.438-8.968,5.621-9.805,6.527
	c-7.743,8.373-2.863,11.919,5.444,15.283c4.97,2.012,4.717,0.157,3.909,7.071c-0.395,3.38-0.989,6.815-1.625,10.158
	c-0.407,2.141-1.049,7.585-2.556,8.665c-2.179,1.562-9.3,0.461-12.382,0.78c-8.559,0.886-17.137,1.965-25.653,3.189
	c-6.504,0.935-12.89,2.294-20.211,5.24c-2.384,0.96-4.724,2.03-7.112,2.982c-4.948,1.974-22.069,4.12-24.623,9.982
	c-2.55,5.852,2.477,5.554,5.749,8.104c2.758,2.149,2.893,5.194,6.498,7.593c10.302,6.855,22.996,7.256,34.778,6.325
	c18.367-1.452,37.092-0.473,55.372-2.873c12.37-1.624,24.035-1.589,30.535-14.023c1.202-2.299,1.518-4.973,2.574-7.242
	c1.672-3.59,4.137-6.977,5.365-11.796c2.141-8.406,2.608-30.697,9.389-35.143c3.488-2.287,14.971-0.698,19.26-1.322
	c5.27-0.767,10.856-1.662,15.858-3.561c9.889-3.753,11.253-11.038,14.152-20.001c3.656-11.305,8.014-22.211,11.968-33.395
	c7.871-22.264,15.559-44.301,17.778-67.977c1.493-15.945,0.213-31.544,2.266-47.459c1.443-11.188-1.284-21.018-1.454-32.042
	c7.539,2.436,15.034,2.524,22.575,5.685c4.775,2.001,9.204,4.378,13.733,6.873c9.369,5.163,22.206,12.388,32.757,14.391
	c-3.696,7.012-9.691,14.273-13.789,19.895c-8.857,12.154-16.276,25.45-23.412,38.704c-11.944,22.185-18.583,50.705-19.289,75.927
	c-0.416,14.89-1.27,34.949,13.231,42.648c13.123,6.968,28.156,8.197,42.689,9.704c31.511,3.266,63.765,3.317,94.956-1.994
	c25.543-4.349,50.722-10.135,76.411-13.852c11.226-1.624,22.095-4.435,33.524-4.84c3.642-0.129,7.214-0.004,10.855,0.331
	c1.829,0.168,5.384-0.131,6.936,0.842c2.145,1.344,1.472,3.915,3.433,5.736c5.782,5.37,18.773,3.973,26.2,4.293
	c8.192,0.353,16.169,1.877,24.23,3.451c7.847,1.533,15.383,3.623,22.579,7.237c4.997,2.51,15.086,11.316,17.431,11.625
	c12.905,14.416,52.052,25.518,51.274-5.096c-0.435-17.108-9.454-36.474-18.243-50.7c-11.177-18.088-27.992-23.947-46.533-30.843
	c-11.335-4.216-21.597-12.858-29.83-21.594c-9.57-10.156-19.409-24.277-35.025-15.997c-10.571,5.605-20.814,13.352-27.718,23.144
	c-2.918,4.138-8.452,13.048-13.629,13.048c-18.356-0.581-34.417,1.218-52.849-2.655c-11.808,0.13-30.6-12.028-44.291-14.934
	c13.613-5.454,25.869-20.402,36.007-30.776c5.534-5.662,11.128-11.291,16.609-17.004c7.09-7.391,8.586-8.331,17.577-0.787
	c8.697,7.297,20.697,26.163,32.155,27.09c8.593,0.695,19.614-5.841,28.78-8.444c9.098-2.584,13.386-1.407,21.121,3.533
	c4.183,2.671,8.322,5.472,12.586,7.997c13.538,8.018,25.256,12.839,40.501,17.224c13.247,3.81,26.806,7.866,40.151,11
	c6.575,1.543,10.288,3.036,17.1,2.333c7.257-0.749,14.503-1.768,21.768-2.429c32.76-2.982,66.742-1.1,97.287,5.736
	c17.098,3.826,34.208,8.212,51.447,11.381c9.274,1.705,18.651,2.956,27.373,6.743c2.135,0.927,5.57,1.94,7.232,3.684
	c3.608,3.787,0.866,3.661,1.128,7.183c0.585,7.872,3.599,8.476,9.996,13.412c7.087,5.467,12.309,11.673,15.281,20.255
	c1.867,5.391,1.551,9.336,2.303,14.19c0.614,3.964,3.104,7.696,1.733,11.945c-1.508,4.676-7.602,7.599-10.992,10.669
	c-15.148,13.713-6.187,28.083,11.478,31.787c14.479,3.036,37.272,5.128,50.827-1.296c9.206-4.363,16.193-11.929,21.565-20.524
	c7.67-12.271,5.674-25.162,3.808-38.763c-2.219-16.164,4.056-27.918,7.675-43.303
	C1149.553,747.133,1150.636,738.91,1149.594,730.784z M338.249,728.317c-0.143,5.854-0.33,11.915-1.703,17.635
	c-2.248,9.369-5.845,9.55-13.911,12.156c0.058-7.86-0.282-16.433,0.268-23.728c1.932-12.875,3.267-26.947,1.385-39.944
	c-1.682-11.609-2.988-20.823-1.407-32.845c2.295-17.457,3.18-35.139,5.515-52.535c1.895,5.517,5.512,10.626,6.593,16.382
	c1.211,6.45,0.238,14.77-0.291,21.219c-1.252,15.28-1.01,30.161,1.6,45.262C338.379,703.956,338.546,716.11,338.249,728.317z"/>
</svg>
