<svg width="85" height="83" viewBox="0 0 85 83" fill="none" xmlns="http://www.w3.org/2000/svg">
<path d="M63.5916 19.3094L63.5999 19.3113C63.7204 19.3682 63.9489 19.5018 64.2856 19.7119L64.2174 20.5931L64.1917 20.8275C64.1547 21.1265 64.1027 21.3846 64.0357 21.6017C63.9686 21.8188 63.8836 22.0056 63.7805 22.1622C63.7761 22.1888 63.672 22.3146 63.4683 22.5396L63.46 22.2483C63.4557 22.1864 63.4446 22.1037 63.4268 22.0002C63.4089 21.8967 63.3863 21.7839 63.359 21.6617C63.2634 21.2753 63.2159 21.0734 63.2163 21.056C63.1946 20.948 63.1768 20.8441 63.1629 20.7443C63.135 20.5437 63.1232 20.3658 63.1276 20.2106C63.1298 20.1335 63.1362 20.0636 63.1468 20.001C63.1509 19.9527 63.1723 19.8838 63.2108 19.7943C63.3796 19.5145 63.5065 19.3529 63.5916 19.3094ZM61.8222 27.9541C61.8225 27.9541 61.8228 27.9541 61.823 27.9541L61.833 27.9561C61.8332 27.9559 61.8336 27.9559 61.8339 27.9559C61.838 27.9559 61.8471 27.9657 61.8612 27.9853C61.8672 27.9957 61.8729 28.0085 61.8782 28.0239C61.8891 28.0546 61.8982 28.0948 61.9056 28.1447C61.9092 28.1696 61.9123 28.1968 61.9149 28.2263L61.9215 28.3482C61.9249 28.4293 61.9267 28.5079 61.9269 28.584C61.927 28.6601 61.9257 28.7316 61.9229 28.7985C61.92 28.8654 61.9158 28.9255 61.9102 28.9787L61.901 29.0519L61.8899 29.1117L61.8772 29.1564L61.8629 29.1844L61.8439 29.1937C61.8436 29.1944 61.843 29.1948 61.8423 29.1948C61.8382 29.1948 61.8277 29.1812 61.811 29.1541L61.7897 29.0995L61.7705 29.0272L61.7535 28.9406L61.7391 28.843L61.7275 28.7377L61.7189 28.6281L61.7138 28.5175L61.7123 28.4092L61.7147 28.3067L61.7214 28.2132L61.7325 28.1321C61.7602 28.0134 61.7901 27.9541 61.8222 27.9541ZM43.4767 32.1431C43.4798 32.1431 43.4816 32.1444 43.4821 32.1471L43.4886 32.1476C43.4888 32.1476 43.489 32.1476 43.4892 32.1476C43.5091 32.1476 43.5309 32.1827 43.5546 32.2529C43.5727 32.3157 43.6004 32.4404 43.6376 32.6271C43.6748 32.8137 43.7173 33.0398 43.7652 33.3053L44.1585 35.528C43.9858 35.7059 43.8688 35.8065 43.8073 35.8296C43.7823 35.8008 43.7092 35.5234 43.5881 34.9974C43.5881 34.9975 43.5881 34.9976 43.5881 34.9976C43.5831 34.9976 43.4018 34.1585 43.0441 32.4804C43.3034 32.2555 43.4476 32.1431 43.4767 32.1431ZM52.7101 38.788L52.7235 38.7884C52.7406 38.7893 52.7539 38.7917 52.7635 38.7954L52.7697 38.7982C52.7734 38.8003 52.7759 38.8025 52.7772 38.805C52.7786 38.8074 52.7786 38.8099 52.7775 38.8126C52.7726 38.8205 52.7631 38.8269 52.7488 38.832C52.735 38.8362 52.7203 38.8384 52.7046 38.8384C52.7028 38.8384 52.7009 38.8383 52.699 38.8383C52.6885 38.838 52.6779 38.8368 52.6673 38.8346C52.655 38.8317 52.6465 38.8292 52.6416 38.827L52.6296 38.8223L52.6207 38.8176L52.6147 38.8131L52.6115 38.8088L52.6113 38.8048L52.6137 38.801L52.6188 38.7977L52.6266 38.7948L52.6368 38.7925L52.6495 38.7908L52.6647 38.7897L52.6821 38.7893C52.692 38.7884 52.7012 38.788 52.7098 38.788H52.7101ZM57.04 38.47C57.0545 38.47 57.0613 38.4833 57.0603 38.5097L57.0892 39.4467L57.1032 45.0288L56.9367 45.174C56.8874 40.7728 56.8875 38.5629 56.9371 38.5442C56.9859 38.4947 57.0202 38.47 57.04 38.47ZM50.7369 38.9715L55.897 38.9715C55.8858 42.7145 55.915 44.8929 55.9848 45.5066L45.0163 45.5066L45.5701 38.9715L50.7369 38.9715ZM55.8295 46.6942V47.6116C55.8272 48.1667 55.8115 48.4704 55.7822 48.5227C55.1081 48.5009 52.3088 48.3887 47.3842 48.1861C46.2334 48.1403 45.4013 48.1017 44.8879 48.0703C44.8714 47.896 44.9007 47.4603 44.9757 46.7633C47.3757 46.7445 50.9936 46.7214 55.8295 46.6942ZM66.1288 13.6541C65.2491 13.6541 64.3221 14.3262 63.3478 15.6706C63.0923 15.9647 62.8669 17.0228 62.6713 18.8447C61.912 19.6177 61.4497 20.3845 61.2845 21.1453C61.1174 21.728 61.0056 22.6116 60.9491 23.7963C57.1699 24.8509 54.7553 25.8888 53.7054 26.9099C53.446 27.9324 53.4854 30.5706 53.8235 34.8243C53.4886 34.8777 50.7421 35.016 45.584 35.2392L42.6223 20.8487C42.6423 20.7884 42.3491 20.7583 41.7427 20.7583C41.6657 20.7583 41.5837 20.7587 41.4966 20.7597L41.2703 21.033L39.2686 21.264L42.2066 36.9293L41.7203 51.3756L42.9765 51.2687L43.15 49.1488C43.1256 49.1179 43.1434 49.1024 43.2033 49.1024C43.2258 49.1024 43.2543 49.1046 43.2887 49.1089L55.8633 49.6852L55.8999 51.8362L57.0236 51.7847C57.0135 51.0927 57.0041 50.4279 56.9953 49.7902H56.9946C56.9975 49.7802 57.0004 49.7702 57.0033 49.7601L57.0966 49.3872C57.1287 49.2429 57.1604 49.067 57.1918 48.8595C57.1939 48.8495 57.196 48.8398 57.1981 48.8301H57.1988C57.4918 48.8491 57.7043 48.8586 57.8365 48.8586C57.9336 48.8586 57.9873 48.8535 57.9975 48.8432L58.1191 38.0164C58.6482 37.6739 58.844 37.0518 58.7067 36.1501C59.2581 35.8053 59.5243 35.5755 59.5055 35.4609C59.5159 35.1538 59.0998 34.7023 58.2574 34.1065C58.2041 33.9806 57.6244 33.8784 56.5184 33.8C56.3673 33.3928 56.3353 32.6404 56.4224 31.5426C56.7904 30.0867 57.1669 28.908 57.5518 28.0064C58.7514 27.8389 59.7778 27.6023 60.6309 27.2966H60.6316C60.6201 28.6907 61.0216 29.5262 61.8362 29.8032C61.8975 30.1178 61.9641 30.7165 62.0359 31.5994C62.1386 33.1326 62.0846 34.4671 61.8741 35.6028L61.735 36.0092C61.0084 36.9724 60.6868 37.5016 60.77 37.5969L61.0799 38.8466C60.9947 40.3033 60.9932 41.1976 61.0757 41.5295C61.2079 42.0697 61.4785 42.6142 61.8873 43.1628C62.6094 43.8665 63.5102 44.3252 64.5895 44.5389C64.6606 44.5853 64.7731 44.6085 64.927 44.6085C65.3115 44.6085 65.9543 44.4636 66.8556 44.174C70.0756 42.7241 72.7577 40.7809 74.902 38.3441H74.9029C74.8073 40.2605 75.0685 42.6145 75.6864 45.406C75.0426 45.972 74.6942 46.4955 74.6412 46.9765C74.562 47.3014 74.5521 47.688 74.6116 48.1363L74.2935 48.7991L74.8008 49.6695C74.431 50.3859 74.3257 50.7807 74.4848 50.8539C74.7355 51.2663 75.0548 51.4725 75.4427 51.4725C75.4523 51.4725 75.462 51.4723 75.4717 51.4721L81.7444 51.92C83.6343 51.861 84.7197 51.2226 85.0005 50.0049C84.8776 49.601 84.5195 49.3059 83.9263 49.1197C84.3603 48.6605 84.3969 48.2764 84.036 47.9675C83.9753 47.7982 83.2471 47.61 81.8516 47.4031C81.4416 47.1684 81.0821 46.7781 80.773 46.2323L80.0236 45.9107C79.8119 45.6112 79.4831 45.3619 79.0371 45.1631C78.9679 45.1271 78.8972 45.1092 78.8252 45.1092C78.7638 45.1092 78.7013 45.1222 78.6379 45.1484L79.1199 37.5309L79.0899 34.1345C79.067 33.7827 78.942 33.4728 78.7149 33.2047C78.3899 32.615 77.7374 32.3201 76.7574 32.3201C76.3978 32.3201 75.994 32.3598 75.5462 32.4392C73.5977 33.0089 71.1568 34.1332 68.2236 35.8119L67.98 34.7928L68.6959 33.4921L68.777 30.7084C69.1111 29.9453 69.2743 29.4327 69.2667 29.1708C69.2295 28.8765 69.1605 28.6005 69.0599 28.3427L67.0209 22.9794C67.4611 22.1217 67.8641 21.5394 68.2299 21.2326C68.6033 21.4125 68.908 21.5025 69.144 21.5025C69.3406 21.5025 69.4895 21.44 69.5907 21.3151L69.9283 20.3278L69.5064 19.9381H69.5072C69.5143 19.9382 69.5214 19.9382 69.5283 19.9382C69.7629 19.9382 69.9001 19.9106 69.9398 19.8554C70.0452 19.7964 70.0901 19.6569 70.0746 19.4368C70.4681 19.3921 70.642 19.2561 70.5962 19.0289C70.2645 18.4879 70.0989 17.5999 70.0993 16.365C69.7977 15.3016 69.5833 14.7424 69.456 14.6875C68.7777 14.0078 67.8662 13.668 66.7216 13.668C66.6452 13.668 66.5677 13.6695 66.4892 13.6726L66.3861 13.6734C66.3008 13.6605 66.215 13.6541 66.1288 13.6541Z" fill="#39BBD1"/>
<path d="M6.15666 49.3071C6.18164 49.3081 6.20073 49.3229 6.19941 49.3498C6.1972 49.3947 6.13014 49.4399 6.08655 49.4382C6.07592 49.4378 6.06668 49.4346 6.06013 49.4279C6.04579 49.4133 6.05241 49.3809 6.0738 49.3538C6.0962 49.3209 6.12983 49.306 6.15666 49.3071ZM6.50149 49.7489C6.50448 49.749 6.50757 49.751 6.51055 49.7551C6.52488 49.7697 6.52782 49.8118 6.5112 49.8438C6.50474 49.8578 6.49865 49.8643 6.49374 49.8641C6.48584 49.8638 6.48098 49.8461 6.48254 49.8146C6.48058 49.774 6.49035 49.7485 6.50149 49.7489ZM7.35994 49.8239C7.36995 49.8243 7.37905 49.8434 7.37767 49.8714C7.37653 49.8946 7.35046 49.9168 7.3205 49.9156L7.32032 49.9156C7.29529 49.9145 7.28642 49.8908 7.30259 49.8682C7.31896 49.8409 7.34485 49.8233 7.35988 49.8239L7.35994 49.8239ZM0.508704 54.3007C0.511693 54.3008 0.514782 54.3028 0.517769 54.3069C0.532099 54.3215 0.535042 54.3636 0.518419 54.3956C0.511962 54.4096 0.505872 54.4161 0.500961 54.416C0.493059 54.4156 0.488204 54.398 0.489761 54.3664C0.487802 54.3258 0.497573 54.3003 0.508704 54.3007ZM60.0041 74.2747C60.047 74.2764 60.0849 74.3134 60.0633 74.3629C60.0258 74.4536 60.0014 74.4963 59.9814 74.4955C59.968 74.495 59.9565 74.4751 59.9443 74.4372C59.9265 74.3898 59.9193 74.3334 59.9355 74.3108C59.9532 74.2843 59.9795 74.2737 60.0041 74.2747ZM6.34308 49.0806C6.27208 49.0962 5.94682 49.3857 5.94407 49.4416C5.94045 49.5152 5.85303 49.5982 5.79913 49.5961C5.78825 49.5956 5.77873 49.5917 5.77155 49.5836C5.76725 49.5803 5.76312 49.5786 5.75928 49.5785C5.74581 49.5779 5.73581 49.5961 5.73421 49.6287C5.73215 49.6706 5.67934 49.7243 5.62267 49.7546C5.58524 49.7711 5.55653 49.7793 5.53105 49.7783C5.4972 49.7769 5.46902 49.7593 5.4336 49.7232C5.36695 49.6504 5.36764 49.6364 5.43477 49.5973C5.47955 49.5722 5.48682 49.5626 5.45127 49.5612L5.45121 49.5612C5.43761 49.5606 5.41774 49.5613 5.39133 49.5627C5.22522 49.5743 5.1337 49.7011 5.20807 49.821C5.24503 49.8835 5.25229 49.9054 5.20413 49.9035C5.18591 49.9028 5.15977 49.8987 5.12431 49.8921C5.10128 49.8886 5.07942 49.8865 5.05889 49.8857C4.92401 49.8804 4.8468 49.9305 4.87738 50.0169C4.89056 50.0548 4.88327 50.1011 4.85254 50.1138C4.8266 50.1314 4.81498 50.1636 4.82886 50.1875C4.85003 50.2211 4.84205 50.2351 4.81824 50.2342C4.77403 50.2324 4.67526 50.1791 4.60726 50.1034C4.53586 50.0249 4.46112 49.9805 4.41826 49.9789C4.38684 49.9776 4.37256 49.9993 4.38929 50.0474C4.4072 50.0901 4.38597 50.1171 4.33621 50.1152C4.33607 50.1152 4.33593 50.1152 4.33579 50.1152C4.29074 50.1132 4.25708 50.0838 4.25891 50.0465C4.26169 49.9901 4.21382 49.9521 4.1669 49.9502C4.13639 49.949 4.10629 49.9631 4.09077 49.9974C4.07392 50.034 4.07117 50.0899 4.08982 50.1187C4.10183 50.1372 4.09761 50.1473 4.07996 50.1466C4.0702 50.1463 4.05634 50.1426 4.03884 50.1352C4.02247 50.1293 4.00865 50.1261 3.99718 50.1256C3.96721 50.1244 3.95321 50.1424 3.95122 50.1828C3.94961 50.2156 3.94587 50.2318 3.93762 50.2315C3.93063 50.2312 3.9204 50.219 3.90548 50.1948C3.88446 50.1608 3.85101 50.1452 3.81634 50.1438C3.74372 50.1409 3.66574 50.2005 3.68542 50.2835C3.69696 50.3449 3.69461 50.3665 3.6488 50.3647C3.63148 50.364 3.60796 50.36 3.57663 50.3535C3.5502 50.3482 3.5276 50.3452 3.50884 50.3444C3.46412 50.3427 3.44116 50.3541 3.43987 50.3804C3.43851 50.408 3.41575 50.4219 3.37985 50.4205C3.36735 50.42 3.35326 50.4176 3.33792 50.4134C3.32019 50.4078 3.30498 50.4048 3.29211 50.4043C3.25475 50.4029 3.23715 50.4222 3.23528 50.4603C3.23291 50.5084 3.22586 50.5315 3.19799 50.5304C3.17455 50.5294 3.1364 50.5114 3.07394 50.4768C3.03289 50.454 3.00075 50.443 2.97884 50.4421L2.97876 50.4421C2.92777 50.4401 2.93225 50.4932 3.0086 50.5813C3.0559 50.6405 3.0769 50.6667 3.07128 50.6665C3.0668 50.6663 3.04535 50.6493 3.00677 50.6186C2.96944 50.5889 2.94811 50.5729 2.93829 50.5725L2.9382 50.5725C2.92528 50.572 2.93257 50.599 2.94964 50.6582C2.96426 50.7108 2.96131 50.7456 2.94483 50.7449C2.94209 50.7448 2.93897 50.7437 2.9355 50.7416C2.92448 50.7348 2.9128 50.731 2.90016 50.7305C2.85692 50.7288 2.80243 50.7649 2.72476 50.8446C2.67173 50.903 2.67991 50.9407 2.75997 51.0468C2.82115 51.127 2.83558 51.1674 2.81318 51.1665C2.79244 51.1657 2.74015 51.1295 2.66416 51.0567L2.54907 50.9491L2.45915 51.0433C2.41659 51.0874 2.36255 51.1199 2.32687 51.1185C2.32268 51.1183 2.31873 51.1177 2.31509 51.1165C2.31223 51.1154 2.30939 51.1149 2.30657 51.1147C2.24153 51.1122 2.19059 51.3613 2.25469 51.4266C2.30127 51.4741 2.28275 51.509 2.24027 51.5073C2.21741 51.5064 2.18761 51.4949 2.15729 51.4692C2.13354 51.4487 2.1173 51.4372 2.106 51.4368C2.08753 51.4361 2.08226 51.4647 2.07899 51.5312C2.07556 51.601 2.10532 51.7096 2.14717 51.7768C2.18924 51.8392 2.21106 51.9055 2.19012 51.9233C2.18527 51.9274 2.18054 51.9293 2.17634 51.9291C2.16695 51.9287 2.16028 51.918 2.16123 51.8987C2.16284 51.8661 2.13895 51.8417 2.11392 51.8407L2.11384 51.8407C2.08386 51.8395 2.07138 51.8903 2.08818 51.9562C2.10451 52.0315 2.09249 52.073 2.05259 52.0714L2.0522 52.0714C2.0173 52.07 2.001 52.0973 2.01416 52.1351C2.02734 52.173 2.00048 52.2092 1.93471 52.2204C1.87896 52.232 1.84732 52.2634 1.8612 52.2873C1.87484 52.3159 1.86346 52.3434 1.83296 52.3514C1.79746 52.3592 1.76445 52.4185 1.75669 52.4742C1.74733 52.5625 1.68497 52.6065 1.47606 52.6723C1.24668 52.7465 1.21526 52.7732 1.23594 52.8627C1.25175 52.9469 1.23585 52.9698 1.15689 52.9667C1.15646 52.9667 1.15602 52.9666 1.15558 52.9666L1.15497 52.9666C1.10017 52.9644 1.05431 52.9857 1.05294 53.0136C1.05211 53.0304 1.04104 53.042 1.02577 53.0414C1.01993 53.0411 1.01347 53.0391 1.00674 53.035C1.00584 53.0343 1.00489 53.0339 1.0039 53.0339C0.983547 53.0331 0.944372 53.1668 0.921537 53.3394C0.897582 53.5204 0.849516 53.6816 0.823795 53.6946C0.792848 53.7119 0.79101 53.7492 0.813978 53.7921C0.862063 53.8684 0.86688 53.9221 0.837584 53.921C0.830026 53.9207 0.820196 53.9167 0.808252 53.9086C0.801604 53.9051 0.79539 53.9034 0.789729 53.9031C0.770399 53.9024 0.757548 53.9195 0.75613 53.9484C0.75367 53.9983 0.729616 54.021 0.702139 54.0199C0.670737 54.0187 0.634865 53.9864 0.621657 53.9286C0.618416 53.9137 0.611767 53.9066 0.602375 53.9062C0.528826 53.9033 0.287021 54.3144 0.19591 54.6292C0.1483 54.7812 0.0940845 54.9656 0.0701631 55.0439C-0.0731232 55.5092 0.00660446 55.9279 0.276848 56.1448C0.339632 56.1941 0.391718 56.257 0.3908 56.2757C0.389653 56.2989 0.446972 56.3574 0.50976 56.4067C0.566297 56.4495 0.596685 56.4706 0.613382 56.4712C0.629538 56.4719 0.632875 56.4534 0.634678 56.4167C0.635944 56.391 0.641149 56.3772 0.653644 56.3777C0.670556 56.3784 0.700825 56.4052 0.752758 56.4637C0.857612 56.5756 1.04918 56.6584 1.56883 56.8019C1.61724 56.8135 1.69363 56.8214 1.77698 56.8247C1.85583 56.8278 1.9409 56.8268 2.01436 56.8208C2.08286 56.8133 2.13949 56.8095 2.18809 56.8114C2.35773 56.8181 2.4294 56.8946 2.56604 57.129C2.62153 57.2247 2.76208 57.4267 2.86965 57.5853C2.98247 57.7395 3.06979 57.9019 3.06772 57.9438C3.0613 58.0742 3.57628 58.6188 3.82584 58.7461C3.94802 58.812 4.16461 58.8959 4.29816 58.9343C4.61964 59.0273 4.79573 59.1188 5.03663 59.3204C5.2102 59.4631 5.27933 59.5874 5.521 60.1811C5.74949 60.7369 5.83681 60.8993 5.95374 60.9696C6.04308 61.0278 6.11057 61.0588 6.18202 61.0616C6.26995 61.0651 6.36388 61.0258 6.51191 60.942C6.62121 60.8783 6.69587 60.8432 6.76349 60.8459C6.86203 60.8498 6.94566 60.9337 7.09982 61.1257C7.23498 61.2969 7.34671 61.376 7.48334 61.3814C7.54719 61.3839 7.61648 61.3703 7.69613 61.3425C7.79803 61.3095 7.8897 61.2807 7.89979 61.2811L7.89981 61.2811C7.90982 61.2816 7.93596 61.362 7.96118 61.4611C8.00942 61.6834 8.13534 61.8053 8.3158 61.8124C8.31889 61.8125 8.322 61.8126 8.32513 61.8126C8.3989 61.8152 8.46439 61.8175 8.52299 61.8198C8.96554 61.8373 9.0148 61.8548 9.26914 61.9975C9.4679 62.1063 9.5492 62.1386 9.69897 62.1445C9.74429 62.1463 9.79587 62.1456 9.85888 62.144C10.2209 62.1267 10.5163 62.0366 10.7148 61.8771C10.9185 61.7131 11.2572 61.1488 11.4918 60.5614C11.7656 59.8917 12.0148 59.6176 12.563 59.3842C12.7026 59.3257 12.8009 59.2945 12.8796 59.2976C13.0002 59.3023 13.0746 59.3877 13.1805 59.5786C13.6692 60.4534 13.7617 60.9194 13.7783 62.7216C13.7981 64.1552 13.7445 65.0397 13.6055 65.7245C13.438 66.5807 13.4346 66.954 13.5982 68.319C13.7546 69.6278 13.762 69.8848 13.7603 72.671L13.7556 74.5002L13.6376 74.7566C13.5705 74.8984 13.5106 75.0965 13.5055 75.199C13.4984 75.3433 13.4709 75.3935 13.3525 75.4538C13.2751 75.4972 13.2028 75.5408 13.1871 75.5541C13.1502 75.5899 12.5835 75.7898 12.3703 75.8413C12.2738 75.8652 11.991 75.9045 11.7388 75.9311C11.4917 75.9579 11.1572 76.0277 11.0038 76.0865C10.8506 76.1453 10.6928 76.1945 10.6626 76.1933L10.6622 76.1933C10.6273 76.1919 10.5963 76.2139 10.5949 76.2418C10.5938 76.2637 10.5567 76.2728 10.4765 76.2697C10.4206 76.2675 10.3438 76.2593 10.2436 76.2455C10.1434 76.2316 10.0666 76.2235 10.0107 76.2213C9.93038 76.2181 9.89331 76.2272 9.89223 76.2492C9.89086 76.277 9.83518 76.2979 9.76557 76.2951L9.76346 76.295C9.61821 76.2893 9.38453 76.3724 9.38156 76.4328C9.38085 76.4472 9.35929 76.4536 9.32644 76.4523C9.30636 76.4515 9.28205 76.4479 9.25572 76.4414C9.23008 76.4334 9.20632 76.4293 9.1865 76.4285C9.15286 76.4272 9.13061 76.4354 9.12989 76.4501C9.12874 76.4733 9.00131 76.5146 8.84976 76.5361C8.6982 76.5577 8.57076 76.5989 8.56939 76.6269C8.56837 76.6477 8.53185 76.6566 8.47838 76.6545C8.45996 76.6538 8.43953 76.6517 8.41784 76.6484C8.39093 76.6425 8.36503 76.6394 8.34253 76.6385C8.29862 76.6368 8.26758 76.6437 8.26697 76.656C8.26629 76.67 8.19915 76.7091 8.11245 76.7381C8.03075 76.7673 7.95837 76.8109 7.95723 76.8342C7.9562 76.855 7.92514 76.8642 7.88058 76.8624C7.86532 76.8618 7.84847 76.8599 7.83071 76.8568C7.803 76.85 7.77754 76.8463 7.7569 76.8455C7.72583 76.8443 7.70565 76.8496 7.7051 76.8608C7.70419 76.8794 7.60201 76.917 7.47525 76.9443C7.3485 76.9716 7.2461 77.0139 7.24518 77.0325C7.24404 77.0557 7.2133 77.073 7.17345 77.0715L7.17232 77.0714C7.06276 77.0671 7.0291 77.1449 7.08377 77.2543C7.12493 77.3354 7.18431 77.352 7.45463 77.3635C7.62984 77.3709 7.78911 77.3964 7.80275 77.425C7.8217 77.4553 7.93782 77.4746 8.12371 77.4819C8.34844 77.4907 8.67515 77.4822 9.05537 77.455C9.38541 77.4319 9.75971 77.4154 9.8922 77.4206C9.89307 77.4206 9.89394 77.4207 9.89478 77.4207C9.89612 77.4208 9.89745 77.4208 9.89878 77.4209C10.0224 77.4257 10.1361 77.412 10.1474 77.3848C10.1585 77.3619 10.455 77.3512 10.8109 77.3571L11.4623 77.3708L11.4987 77.5497L11.5353 77.7239L11.9007 77.7395C11.9052 77.7397 11.9098 77.7399 11.9143 77.7401C12.1089 77.7477 12.2771 77.741 12.288 77.7187C12.3157 77.6639 12.6372 77.5379 12.7427 77.542L12.7437 77.5421C12.7936 77.544 12.8392 77.5273 12.8405 77.4995C12.8435 77.4397 13.1849 77.367 13.3544 77.3737C13.383 77.3748 13.4067 77.3782 13.4231 77.3843C13.482 77.4101 13.6708 77.4462 13.8501 77.4725C13.9256 77.4835 14.0002 77.4903 14.0731 77.4932C14.6112 77.5144 15.0565 77.3221 15.0704 77.0391C15.074 76.9646 15.1164 76.817 15.1617 76.7116C15.207 76.6062 15.2506 76.4354 15.2554 76.3376C15.2602 76.2398 15.3301 76.0421 15.4075 75.896C15.5127 75.6952 15.5672 75.5061 15.6174 75.0976C15.7177 74.3831 16.009 72.9487 16.1535 72.4602C16.2792 72.0455 16.6652 70.6245 16.7663 70.1994C16.8857 69.7098 17.0411 68.5917 17.1081 67.7405C17.1464 67.2661 17.2306 66.5743 17.294 66.2036L17.4076 65.527L17.3067 65.2334C17.21 64.9539 17.2078 64.8978 17.2815 63.6035C17.3408 62.6026 17.3746 62.2214 17.4368 62.0793C17.4821 61.9739 17.5504 61.7062 17.5967 61.4794C17.638 61.2525 17.6933 61.0449 17.7099 61.0129C17.7136 61.0075 17.7233 61.005 17.7392 61.0057C17.8163 61.0087 18.0402 61.0844 18.436 61.2445C19.1936 61.5475 19.6777 61.6987 20.3282 61.8338C20.5617 61.8811 20.7694 61.9413 20.7933 61.9656C20.8172 61.99 20.8985 62.2734 20.9731 62.594C21.262 63.8571 21.8854 66.1751 22.0629 66.6447C22.2446 67.1332 22.5097 67.6578 22.6021 67.7178C22.6264 67.7328 22.7194 67.8814 22.8115 68.0487C22.9955 68.3879 23.0961 68.9942 23.1417 70.0043C23.1679 70.6961 23.2203 71.1604 23.2739 71.2933C23.2964 71.3456 23.3487 71.5065 23.3869 71.6482C23.4591 71.9126 23.4764 71.9693 23.5974 72.2638C23.6558 72.4017 23.8808 73.2326 24.1585 74.3179C24.1923 74.4454 24.2898 74.8089 24.3748 75.1205C24.7241 76.3815 24.7668 76.6353 24.7411 77.2596C24.7253 77.581 24.7372 78.0528 24.7646 78.3107C24.7921 78.5685 24.812 78.8774 24.806 78.9985C24.8001 79.1196 24.823 79.3679 24.8541 79.5513C24.9201 79.9414 24.8785 80.075 24.5842 80.3472L24.4055 80.5122L23.8025 80.5332C23.5419 80.5441 23.0562 80.5397 22.6077 80.522C22.4852 80.5172 22.3654 80.5114 22.2538 80.5046L21.3132 80.4552L21.145 80.6114C21.0553 80.7009 20.847 80.8554 20.6868 80.9512C20.5264 81.0518 20.3809 81.1529 20.3595 81.18C20.3435 81.2025 20.2484 81.2216 20.1539 81.2179C20.1532 81.2179 20.1526 81.2178 20.152 81.2178L20.1514 81.2178C20.0509 81.2138 19.8174 81.2785 19.5824 81.3756C19.3674 81.4644 18.9134 81.6178 18.5777 81.7108C18.242 81.8039 17.8904 81.9149 17.7978 81.9623C17.7219 81.9996 17.6316 82.0222 17.5865 82.0204C17.5797 82.0202 17.5739 82.0193 17.5693 82.0179C17.5647 82.0155 17.5603 82.0142 17.556 82.0141C17.5238 82.0128 17.5002 82.074 17.4851 82.201C17.4572 82.4612 17.5303 82.5063 18.0158 82.527C18.2912 82.5387 18.3904 82.5616 18.4327 82.6194C18.4626 82.6625 18.5019 82.683 18.6238 82.6878C18.6924 82.6905 18.7872 82.6882 18.9212 82.6822C19.1624 82.6738 19.359 82.6542 19.3599 82.6355C19.361 82.6122 19.5476 82.5922 19.7786 82.588C20.0045 82.5836 20.2312 82.5653 20.2819 82.5535C20.2991 82.5475 20.3129 82.5443 20.3239 82.5447C20.3589 82.5461 20.3657 82.5837 20.3608 82.6828C20.3496 82.912 20.3997 82.99 20.6317 82.9991C20.6826 83.0011 20.7423 82.9998 20.812 82.9961C20.9981 82.9853 21.1499 82.9591 21.151 82.9358C21.1521 82.9128 21.2749 82.8996 21.4272 82.9056C21.4292 82.9057 21.4313 82.9058 21.4334 82.9058C21.4345 82.9059 21.4356 82.9059 21.4368 82.906C21.734 82.9177 22.4209 82.8217 22.464 82.7584C22.4799 82.7404 22.887 82.7251 23.3683 82.7316C24.4611 82.7454 25.6268 82.7064 25.6294 82.6552C25.6303 82.6368 25.7532 82.6236 25.9008 82.6294C25.9027 82.6295 25.9046 82.6296 25.9065 82.6297C25.9091 82.6298 25.9116 82.6299 25.9141 82.63C26.5496 82.655 26.8357 82.4098 26.9535 81.7408C26.9754 81.6018 27.049 81.3295 27.1139 81.1316C27.3089 80.5332 27.3733 79.9386 27.4695 77.9825C27.5594 76.1569 27.5696 74.9299 27.4926 74.4552C27.4545 74.2109 27.3871 73.6433 27.2907 72.7478C27.2601 72.4525 27.1867 72.006 27.1336 71.761C27.0102 71.2098 26.9961 70.3738 27.1039 69.9163C27.2044 69.5052 27.1764 69.056 27.041 68.8495C26.9287 68.6861 26.7368 68.3046 26.6522 68.0863C26.541 67.7968 26.5192 67.7306 26.4108 67.3853C26.2722 66.9407 26.1937 66.0879 26.2297 65.3567C26.2446 65.054 26.2345 64.5449 26.2001 64.226C26.1706 63.9074 26.1641 63.6318 26.18 63.6138C26.181 63.6132 26.1827 63.6129 26.1851 63.613C26.2337 63.6149 26.5689 63.7603 26.9611 63.9504C28.4603 64.677 29.2368 65.0041 29.8752 65.1806C30.0682 65.2355 30.5764 65.4065 31.0103 65.5603C31.4439 65.7188 31.8339 65.8474 31.879 65.8493C31.9791 65.8536 32.368 66.3089 32.6614 66.7694C32.9316 67.1916 32.9975 67.2784 33.1415 67.4106C33.1991 67.4643 33.2461 67.527 33.245 67.5503C33.2441 67.5689 33.3344 67.6708 33.4449 67.7688C33.5502 67.8713 33.7995 68.106 33.9909 68.2961C34.6657 68.9549 34.7617 69.043 35.0741 69.2197C35.4451 69.4268 36.0601 69.6724 36.6437 69.8419C37.0198 69.9466 37.093 69.987 37.3323 70.2212C37.4809 70.3629 37.6406 70.4817 37.6856 70.4836C37.8208 70.4894 38.4337 70.6742 38.4469 70.7121C38.4558 70.7358 38.5352 70.7532 38.6203 70.7568C38.8904 70.773 39.3902 70.9109 39.4712 70.9984C39.5142 71.0422 39.5626 71.077 39.5827 71.0778C39.6027 71.0787 39.6803 71.1333 39.7571 71.2019C39.834 71.2705 39.9266 71.3258 39.9617 71.3273C39.9967 71.3288 40.0397 71.3726 40.0522 71.4245C40.0647 71.4764 40.1127 71.5204 40.1577 71.5223C40.2028 71.5242 40.2854 71.5791 40.3472 71.6471C40.4091 71.7151 40.4967 71.7701 40.5518 71.7725C40.6919 71.7784 41.1053 71.9407 41.103 71.9873C41.1019 72.0106 41.2011 72.0335 41.3262 72.0388C41.5415 72.048 41.8821 72.1605 41.9432 72.2424C41.9573 72.2617 42.0556 72.3032 42.1646 72.3312C42.2202 72.3464 42.2773 72.3546 42.331 72.3567C42.4731 72.3623 42.5913 72.3251 42.5945 72.2608C42.6 72.1491 42.7942 71.8682 42.8594 71.8707L42.8595 71.8708C43.0096 71.8771 43.3789 72.0189 43.3964 72.071C43.4048 72.104 43.4587 72.1296 43.5188 72.1322C43.664 72.1384 44.0971 72.3061 44.0948 72.3527C44.0939 72.3713 44.1281 72.3915 44.1681 72.3932C44.2382 72.3962 44.3637 72.4949 44.6611 72.7735C44.7231 72.8369 44.7959 72.8866 44.816 72.8875C44.836 72.8883 44.9136 72.943 44.9807 73.0065C45.1702 73.1868 45.5823 73.2923 45.9635 73.3073C46.3051 73.3208 46.6219 73.2615 46.7309 73.1184C46.7522 73.0914 46.8085 73.0658 46.8436 73.0672L46.8441 73.0672C46.884 73.0688 46.92 73.047 46.9212 73.0238C46.9225 72.9959 46.9484 72.9784 46.9733 72.9794L46.9736 72.9794C47.0037 72.9806 47.0912 72.933 47.1694 72.871C47.2477 72.8091 47.3352 72.7615 47.3653 72.7627L47.3655 72.7627C47.3955 72.7639 47.448 72.7148 47.4813 72.651C47.5145 72.5871 47.5769 72.5385 47.617 72.5401L47.6173 72.5401C47.6523 72.5415 47.6993 72.5015 47.7171 72.4463C47.7346 72.3957 47.7924 72.3422 47.8482 72.3306C47.9039 72.3189 47.9615 72.2701 47.979 72.2195C47.9966 72.1689 48.0592 72.1202 48.1149 72.1086C48.1757 72.0972 48.2223 72.0665 48.224 72.0339C48.2315 71.9829 48.4543 71.7357 48.7011 71.5128C48.8638 71.3657 48.9175 71.2934 49.157 70.9115L49.3531 70.5978L49.6623 70.6344C49.832 70.6509 50.1546 70.7207 50.3822 70.7864C50.6083 70.8557 50.8238 70.8941 51.0603 70.9034C51.3044 70.913 51.5709 70.8917 51.8944 70.8414C52.6051 70.7334 53.33 70.6937 53.9836 70.7194C54.543 70.7415 55.0503 70.8115 55.4518 70.9276C56.0454 71.0975 57.4761 71.2798 58.6424 71.3295C59.4033 71.3619 59.528 71.3765 59.7439 71.4744C59.8763 71.5361 59.9835 71.6013 59.9824 71.6246C59.9812 71.6479 60.0153 71.668 60.0604 71.6699C60.1054 71.6718 60.2456 71.7805 60.3745 71.912C60.5417 72.0824 60.6068 72.1879 60.6024 72.2764C60.5982 72.3624 60.5918 72.3895 60.5295 72.387C60.5042 72.386 60.4696 72.3801 60.4222 72.3714C60.3841 72.3646 60.3519 72.3606 60.327 72.3597C60.2836 72.358 60.2624 72.3654 60.2711 72.3836C60.2899 72.4076 60.2642 72.4252 60.2244 72.4236L60.2238 72.4236C60.1837 72.422 60.1167 72.4611 60.0742 72.5105C60.0371 72.5559 59.9951 72.5787 59.9529 72.577C59.9405 72.5765 59.9281 72.5739 59.9158 72.5691C59.8973 72.5605 59.8803 72.5561 59.8671 72.5556C59.849 72.5548 59.838 72.5616 59.8403 72.5753C59.8569 72.7044 59.6846 72.9 59.5687 72.8955C59.5583 72.8951 59.5483 72.893 59.5389 72.8891C59.5322 72.8864 59.5262 72.885 59.5211 72.8848C59.4965 72.8839 59.4911 72.9115 59.5052 72.9623C59.5164 73.0142 59.5149 73.0368 59.497 73.0361C59.4889 73.0357 59.4774 73.0306 59.4622 73.0212C59.4446 73.0111 59.4325 73.0058 59.4257 73.0054L59.4252 73.0054C59.4155 73.0051 59.4175 73.0159 59.4312 73.0385C59.4499 73.0673 59.4255 73.155 59.3813 73.2371C59.3324 73.3144 59.2986 73.3876 59.3084 73.3927C59.3087 73.3929 59.309 73.3931 59.3095 73.3931C59.3281 73.3938 59.5282 73.2237 59.7637 73.0107C60.0053 72.7877 60.2197 72.6102 60.2398 72.6109H60.2398C60.3249 72.6146 60.3303 72.8108 60.2513 72.8868C60.204 72.9314 60.1662 72.9858 60.1648 73.0138C60.1634 73.0417 60.1418 73.0735 60.1213 73.0819C60.0756 73.094 60.054 73.1257 59.7596 73.6032C59.6722 73.7489 59.5756 73.8754 59.5554 73.8792C59.5349 73.8877 59.5381 73.9252 59.5713 73.9639C59.6413 74.0489 59.5813 74.2482 59.4981 74.2449C59.4913 74.2446 59.4844 74.243 59.4774 74.2399C59.4652 74.2351 59.4533 74.2324 59.4426 74.232C59.4193 74.2311 59.4022 74.2408 59.4012 74.26C59.3998 74.288 59.4433 74.3225 59.5027 74.339C59.562 74.3555 59.6328 74.4472 59.6728 74.5516C59.7346 74.7223 59.754 74.7371 59.9342 74.7448C59.9353 74.7448 59.9365 74.7449 59.9377 74.7449C60.0804 74.7505 60.1463 74.7252 60.2047 74.649C60.3117 74.5135 60.4621 74.0065 60.5601 73.4413C60.6358 73.0245 60.6531 72.9786 60.7489 72.9687C60.7554 72.968 60.7618 72.9678 60.7679 72.9681C60.8849 72.9727 60.9287 73.138 60.8696 73.3705C60.8389 73.4859 60.8459 73.5468 60.8946 73.5769C60.9432 73.607 60.9578 73.7196 60.9522 73.9341C60.9412 74.1576 60.9689 74.3081 61.0374 74.4464L61.1284 74.6369L60.9366 74.9648C60.8324 75.147 60.715 75.2913 60.6749 75.2897L60.6747 75.2897C60.6297 75.2879 60.602 75.3427 60.5965 75.4544C60.5903 75.5801 60.563 75.6256 60.487 75.6411C60.4313 75.6527 60.3846 75.6834 60.3835 75.7066C60.3824 75.7274 60.3459 75.7364 60.2925 75.7343C60.274 75.7335 60.2536 75.7315 60.2319 75.7282C60.205 75.7223 60.1791 75.7191 60.1566 75.7182C60.1127 75.7165 60.0817 75.7235 60.0811 75.7358C60.0801 75.7544 60.0187 75.7798 59.9427 75.7952C59.7606 75.8248 59.6024 75.9814 59.5054 76.22C59.4675 76.3155 59.4127 76.3893 59.3777 76.3879C59.3756 76.3879 59.3737 76.3875 59.3718 76.3869C59.3678 76.3851 59.3641 76.3842 59.3607 76.384C59.3348 76.383 59.3257 76.4296 59.3301 76.5205C59.3358 76.6094 59.3624 76.6806 59.3874 76.6816C59.4124 76.6827 59.4311 76.7115 59.4293 76.7488C59.4185 76.9677 59.7504 77.2571 60.0307 77.2691C60.0958 77.2718 60.1549 77.293 60.1638 77.3168C60.1726 77.3405 60.3615 77.3765 60.5915 77.391C60.6734 77.398 60.741 77.4026 60.797 77.4048C60.963 77.4114 61.0265 77.3966 61.0546 77.3594C61.0739 77.3376 61.089 77.3259 61.0976 77.3262C61.1033 77.3265 61.1061 77.3318 61.1056 77.3429C61.104 77.3755 61.1872 77.4163 61.2917 77.4348C61.5993 77.5039 61.6384 77.5242 61.7355 77.6917C61.846 77.8924 62.0551 78.0273 62.4107 78.1405C62.8767 78.2906 64.0613 78.4239 64.9703 78.4597C65.4291 78.4778 65.8178 78.471 66.0083 78.4291C66.3631 78.3555 66.8341 78.1609 66.8376 78.091C66.8392 78.0584 66.9022 78.0004 66.9796 77.957C67.1496 77.8663 67.2716 77.7315 67.2981 77.6019C67.3106 77.5511 67.3488 77.4874 67.385 77.4656C67.4576 77.4174 67.5744 77.1843 67.5797 77.0772C67.5865 77.0402 67.6223 76.925 67.6724 76.8245C67.7175 76.7237 67.7608 76.5575 67.7708 76.4553C67.7759 76.3528 67.8233 76.1028 67.8734 75.8996C67.9235 75.6964 68.0138 75.2896 68.0683 74.9979C68.1278 74.7064 68.2292 74.2766 68.2905 74.0506C68.357 73.82 68.4506 73.446 68.5019 73.2195C68.5584 72.9886 68.6685 72.5872 68.7468 72.3199C68.9375 71.7073 69.0167 71.1179 68.9501 70.8397C68.9174 70.689 68.8239 70.5497 68.6089 70.3305C68.4523 70.1708 68.294 70.0458 68.2556 70.0443C68.2541 70.0442 68.2529 70.0443 68.2518 70.0446C68.242 70.048 68.2328 70.0494 68.2244 70.049C68.2023 70.0482 68.187 70.0355 68.1879 70.0185C68.189 69.9953 68.1262 69.9459 68.0427 69.9097C67.9642 69.8737 67.8962 69.8288 67.8971 69.8101C67.8979 69.7954 67.8478 69.7859 67.7724 69.783C67.7292 69.7813 67.6776 69.7817 67.6225 69.7845C67.5602 69.7879 67.5091 69.7888 67.4688 69.7872C67.3853 69.784 67.3473 69.7699 67.3486 69.7448C67.3499 69.7168 67.286 69.6908 67.2059 69.6874C66.9857 69.678 66.5552 69.557 66.5577 69.5058C66.5585 69.4898 66.5236 69.4789 66.4692 69.4767C66.4442 69.4758 66.4151 69.4766 66.3834 69.4797C66.3481 69.4833 66.3149 69.4845 66.2872 69.4834C66.2397 69.4816 66.2082 69.4729 66.2089 69.4582C66.2098 69.4396 66.1466 69.3996 66.0729 69.3684C65.9939 69.3417 65.8965 69.2816 65.8488 69.2329C65.7485 69.1306 65.4861 69.0588 65.166 69.0405C65.0308 69.0347 64.9264 69.0162 64.9275 68.993C64.9284 68.9743 64.4035 68.938 63.7578 68.9105C63.688 68.9075 63.6197 68.9047 63.5533 68.9021C63.0046 68.8805 62.5864 68.8714 62.5903 68.8841C62.5946 68.8983 62.562 68.9482 62.5194 68.9978C62.4628 69.0607 62.3223 69.1035 62.2363 69.1001C62.1934 69.0984 62.164 69.0852 62.1654 69.0573C62.1665 69.0341 62.0887 68.9841 61.9952 68.9474C61.9017 68.9108 61.8239 68.8608 61.825 68.8375C61.8256 68.8261 61.8092 68.8193 61.7836 68.8183C61.7673 68.8176 61.7472 68.8194 61.7254 68.8239C61.7036 68.8284 61.6835 68.8302 61.6672 68.8296C61.6416 68.8286 61.6252 68.8217 61.6257 68.8103C61.6269 68.787 61.5491 68.7371 61.4556 68.7004C61.362 68.6638 61.2843 68.6138 61.2854 68.5905C61.2863 68.5725 61.268 68.5634 61.2399 68.5622C61.2245 68.5616 61.206 68.5635 61.1862 68.5676C61.1703 68.5718 61.1539 68.5734 61.1376 68.5728C61.091 68.5709 61.0449 68.5507 61.0131 68.5182C60.9701 68.4744 60.8427 68.413 60.7291 68.3755C60.6154 68.3426 60.5121 68.3009 60.498 68.2816C60.4218 68.199 59.2711 67.6273 58.6909 67.3879C57.6339 66.9509 57.3711 66.8883 56.3563 66.8171C55.5865 66.761 55.4473 66.7364 55.1868 66.6273C55.0246 66.5597 54.7584 66.4644 54.5953 66.4154C54.3297 66.3392 53.6672 66.2706 53.0702 66.2471C52.7664 66.2351 52.4796 66.2348 52.2707 66.2511C51.8423 66.2818 51.6154 66.3021 51.4533 66.2958C51.2288 66.2869 51.1287 66.2267 50.7897 66.0713C50.4073 65.8917 50.193 65.7612 50.0208 65.5905C49.8916 65.4637 49.645 65.2759 49.4792 65.1801C49.3135 65.0797 49.1484 64.97 49.1149 64.9359C49.0815 64.9018 48.97 64.8224 48.8679 64.7574C48.7658 64.6924 48.6591 64.6178 48.6256 64.5837C48.5922 64.5496 48.3395 64.3849 48.0569 64.2142C47.7746 64.0388 47.5116 63.8782 47.4725 63.8579C47.4336 63.8329 47.1208 63.6656 46.7784 63.4876C46.431 63.3095 46.1534 63.139 46.155 63.1064C46.1564 63.0785 46.1427 63.0499 46.1227 63.049C46.0727 63.0469 45.9208 62.7697 45.9247 62.6906C45.9277 62.63 45.3862 62.3176 45.2711 62.3127C45.241 62.3114 45.1321 62.2834 45.0331 62.2559L44.8504 62.1968L44.8808 61.7827C44.892 61.5545 44.8921 61.3492 44.873 61.3297C44.8539 61.3102 44.7542 61.2966 44.6591 61.2925C44.6544 61.2926 44.6495 61.2925 44.6445 61.2923C44.5444 61.2883 44.4013 61.2418 44.3131 61.1891C44.1572 61.0938 44.1524 61.089 44.1728 60.7771C44.1918 60.4933 44.1838 60.4509 44.0603 60.3103C43.9844 60.2231 43.8875 60.1536 43.8424 60.1517C43.6322 60.1427 43.2392 59.972 43.0764 59.8157C42.9806 59.7229 42.8792 59.644 42.8591 59.6431C42.8341 59.642 42.7911 59.5982 42.7586 59.5455C42.7261 59.4928 42.6731 59.4485 42.638 59.447C42.608 59.4457 42.5498 59.4059 42.517 59.3579C42.4558 59.2759 42.1867 59.1384 41.9396 59.0626C41.8702 59.0456 41.6102 58.9272 41.3554 58.8043C41.1056 58.6817 40.8899 58.5792 40.8849 58.579C40.8749 58.5785 40.7188 58.4879 40.5334 58.382C39.9337 58.0297 39.3201 57.8589 38.1683 57.7165C37.809 57.6779 37.4409 57.6155 37.3469 57.5882C37.253 57.5609 36.9501 57.4966 36.6769 57.443C36.3092 57.3713 36.0771 57.2961 35.7786 57.1434C35.5582 57.036 35.3077 56.9273 35.2135 56.9046C35.1241 56.8868 34.9585 56.7864 34.8481 56.6837C34.5988 56.4491 34.3104 56.2968 34.0269 56.2474C33.8428 56.2162 33.7891 56.1859 33.7152 56.0568C33.6276 55.899 33.2769 55.6881 33.0866 55.68C32.9865 55.6757 32.8214 55.566 32.3091 55.1708C32.1981 55.0821 32.0472 54.987 31.9683 54.9603C31.8943 54.9338 31.7535 54.8391 31.6575 54.751C31.5615 54.6629 31.3859 54.5621 31.2721 54.5293C31.1584 54.4964 30.9818 54.4142 30.8847 54.3494C30.7876 54.2846 30.333 54.0412 29.8782 53.8025C28.6211 53.1516 27.2348 52.5745 26.3439 52.3312C25.9874 52.2367 25.7466 52.1331 25.4591 51.9622C24.5141 51.3899 24.2581 51.2903 23.3917 51.1601C23.0971 51.1169 22.7967 51.0889 22.502 51.0773C22.2137 51.0659 21.9309 51.0702 21.6644 51.0912C21.5152 51.1029 21.4168 51.1099 21.3296 51.1064C21.1696 51.1001 21.0473 51.0589 20.7184 50.9482L20.2005 50.7675L19.0992 50.7206C19.0712 50.7194 19.0435 50.7182 19.016 50.7172C17.7078 50.6656 16.9966 50.7398 16.2765 50.9971C16.1386 51.0472 15.777 51.1578 15.4768 51.243C14.846 51.4215 14.7379 51.4776 14.328 51.8568C14.0025 52.151 13.7676 52.4397 13.5328 52.8264C13.4235 53.0064 13.324 53.0979 13.1704 53.0918C12.9942 53.0849 12.7467 52.9496 12.3314 52.6725C11.8019 52.3233 11.5916 52.2116 11.3534 52.1595C11.14 52.1131 10.7278 51.7221 10.6487 51.4948C10.6271 51.4239 10.5655 51.3512 10.5111 51.3349C10.457 51.3139 10.4285 51.28 10.4447 51.2574C10.4659 51.235 10.4217 51.2144 10.3516 51.2114C10.2665 51.2078 10.2324 51.1877 10.2545 51.1466C10.2714 51.11 10.1795 51.0408 10.0127 50.9636C9.86049 50.8965 9.73469 50.8025 9.72697 50.7555C9.71425 50.7083 9.66102 50.6686 9.59594 50.6659C9.53587 50.6633 9.45738 50.6273 9.41917 50.5883C9.376 50.5492 9.36256 50.516 9.38249 50.5168L9.38262 50.5168C9.40254 50.5176 9.3791 50.4839 9.32592 50.4444C9.2777 50.405 9.18419 50.3683 9.12412 50.3658C9.05904 50.363 9.01013 50.3376 9.01127 50.3143C9.01241 50.2912 8.99279 50.2736 8.96596 50.2726C8.96026 50.2724 8.95425 50.2729 8.94803 50.2743C8.94571 50.2746 8.94319 50.2748 8.94051 50.2747C8.86731 50.2718 8.66765 50.0883 8.70805 50.054C8.74045 50.0231 8.55958 49.9803 8.42585 49.975C8.38579 49.9734 8.34995 49.9752 8.32535 49.9817C8.30345 49.9872 8.28518 49.9894 8.27067 49.9888C8.21113 49.9865 8.21481 49.9372 8.29058 49.8729C8.33769 49.8329 8.33838 49.8189 8.29833 49.8172L8.29807 49.8172C8.26309 49.8158 8.22205 49.8374 8.20593 49.8599C8.1912 49.8786 8.16979 49.8881 8.14994 49.8873C8.14095 49.887 8.13228 49.8845 8.12469 49.8798C8.1194 49.8755 8.10823 49.8732 8.09241 49.8726C8.03605 49.8703 7.92066 49.8897 7.80179 49.9174C7.67919 49.9484 7.59097 49.9626 7.53829 49.9606C7.46875 49.9578 7.46118 49.9266 7.5183 49.868C7.55563 49.8229 7.54244 49.785 7.45532 49.7206C7.40186 49.679 7.37101 49.6591 7.34968 49.6583C7.33054 49.6575 7.31908 49.6721 7.30583 49.7003C7.28897 49.7369 7.21569 49.7991 7.14855 49.8382C7.09351 49.8668 7.0626 49.8806 7.04588 49.88C7.02976 49.8793 7.02683 49.8652 7.02818 49.8378C7.03024 49.7959 7.07872 49.7279 7.14109 49.6839C7.22485 49.6128 7.23077 49.5944 7.17185 49.5686C7.16495 49.5658 7.15705 49.5643 7.14845 49.564C7.108 49.5624 7.05181 49.5864 7.00845 49.6269C6.95096 49.68 6.90841 49.7062 6.88029 49.7051C6.84928 49.7039 6.83581 49.6694 6.83917 49.6011C6.83907 49.5501 6.83902 49.5257 6.82858 49.5253C6.81894 49.5249 6.80041 49.5451 6.76477 49.5839C6.73025 49.6235 6.71071 49.6438 6.69572 49.6432C6.67838 49.6425 6.66711 49.614 6.64577 49.5555C6.62435 49.5024 6.61298 49.4762 6.6049 49.4759C6.5978 49.4756 6.59323 49.4953 6.58662 49.5343C6.5791 49.5853 6.57635 49.6412 6.57566 49.6552C6.57707 49.6688 6.54624 49.6738 6.50728 49.6722C6.45209 49.6701 6.38056 49.6548 6.36109 49.632C6.34676 49.6174 6.33816 49.4864 6.34526 49.342C6.34736 49.1974 6.34809 49.0808 6.34308 49.0806Z" fill="#39BBD1"/>
<g clip-path="url(#clip0_1663_26189)">
<path fill-rule="evenodd" clip-rule="evenodd" d="M12.7768 1.05412C12.3079 1.27179 11.546 2.03362 10.9599 2.68663C10.3738 3.33963 9.78769 4.91772 9.43603 6.00606C9.02577 7.0944 8.6155 7.85624 8.14663 8.346C7.73637 8.83575 7.20889 9.05342 7.3261 9.05342C7.44332 9.05342 8.20524 8.78133 8.08802 8.89017C7.9708 9.05342 7.03306 9.59759 6.97445 9.76084C6.85723 9.92409 7.61915 9.81525 7.9708 10.0873C7.85359 10.3594 7.73637 10.6315 7.56054 10.9036C7.20889 11.611 6.74001 12.4817 6.44697 13.4068C6.09531 14.3863 5.91949 15.4202 5.68505 16.3997C5.45061 17.3248 5.09896 18.1955 4.27843 18.9573C3.39929 19.7736 2.05128 20.481 1.23076 21.4061C0.35162 22.2767 -3.45502e-05 23.3107 0.175793 24.399C0.35162 25.4874 1.11354 26.6845 2.69598 27.4464C4.33704 28.2082 6.79862 28.4803 8.32246 28.1538C9.8463 27.8273 10.491 26.9022 10.6668 26.5757C10.8426 26.3036 10.6082 26.6301 10.3152 27.1199C10.0221 27.6096 9.72908 28.2626 9.37742 29.351C9.02577 30.4393 8.67411 31.9086 8.32246 33.1057C7.9708 34.2485 7.73637 35.0647 7.38471 35.6089C7.03306 36.1531 6.56419 36.3708 6.21253 37.1326C5.80227 37.84 5.56783 39.0372 5.50922 39.6358C5.50922 40.2344 5.74366 40.2344 6.09531 40.2344C6.44697 40.1799 6.97445 40.1255 7.38471 40.1255C7.79498 40.1799 8.08802 40.2888 8.49829 40.452C8.84994 40.5609 9.37742 40.6697 10.0221 40.7785C10.6668 40.8329 11.3701 40.8874 12.1321 40.8329C12.894 40.7785 13.7145 40.6697 14.1834 40.452C14.5936 40.2344 14.5936 39.9079 14.4764 39.6358C14.3006 39.4181 13.9489 39.2004 13.3628 38.9283C12.7768 38.6563 11.9562 38.2209 11.3701 37.7856C10.7254 37.3503 10.3152 36.8605 10.1393 36.3708C9.96351 35.881 10.0221 35.2824 10.2566 34.7382C10.491 34.1397 10.9013 33.5955 11.4874 32.6704C12.1321 31.7997 12.894 30.4937 13.5973 29.4054C14.3006 28.2626 14.9453 27.2831 15.6486 26.6845C16.3519 26.0315 17.1724 25.7594 17.4069 25.8683C17.6413 25.9227 17.2897 26.4124 16.9966 27.011C16.7036 27.5552 16.4105 28.2626 16.0589 29.2421C15.7072 30.2216 15.2383 31.5276 14.8281 32.616C14.4764 33.7043 14.1248 34.575 13.8903 34.9559C13.5973 35.3368 13.5387 35.1192 13.3042 35.5001C13.0698 35.9354 12.6595 36.8605 12.6595 37.4591C12.6009 38.0577 12.8354 38.2753 13.3628 38.4386C13.9489 38.6563 14.8281 38.7651 15.3556 38.6563C15.883 38.6018 16.0003 38.2753 16.2347 38.2753C16.4105 38.3298 16.7036 38.6563 17.1724 38.8739C17.6413 39.0372 18.3446 39.0372 19.1065 38.9828C19.8685 38.9283 20.6304 38.7651 20.982 38.5474C21.3923 38.2753 21.2751 37.8944 20.982 37.6768C20.689 37.4591 20.1615 37.4047 19.5754 37.1326C19.0479 36.8605 18.4618 36.3163 17.9344 35.9354C17.4069 35.5001 16.8794 35.1736 16.7036 34.7927C16.5277 34.4117 16.645 33.9764 17.0552 33.3234C17.4655 32.6704 18.1102 31.7997 18.8135 30.8746C19.5168 29.9495 20.2201 28.97 20.8648 27.8817C21.4509 26.7934 21.9198 25.5962 22.2128 24.7255C22.4473 23.8548 22.5059 23.2563 22.2714 22.8209C22.0956 22.3856 21.6267 22.0591 20.8648 21.8414C20.1029 21.6237 18.9893 21.5693 18.1688 21.5149C17.2897 21.4605 16.7036 21.4061 15.5314 21.4605C14.3592 21.5149 12.6009 21.6782 11.8976 21.5149C11.1943 21.3517 11.546 20.9163 12.0148 20.481C12.4837 19.9912 13.0698 19.5015 13.5973 19.1206C14.1834 18.6852 14.7109 18.3587 15.1211 17.9234C15.5314 17.4881 15.8244 16.9439 15.9416 16.3997C16.0589 15.91 16.0003 15.3658 16.0003 14.8216C16.0003 14.2774 16.0589 13.7333 16.2933 13.2435C16.5277 12.7538 16.938 12.3184 17.2897 12.0464C17.6413 11.8287 18.0516 11.8287 18.5204 11.8287C19.0479 11.8287 19.6926 11.8287 20.4545 11.7743C21.1579 11.6654 21.9198 11.4478 22.6817 11.2845C23.4436 11.1757 24.2641 11.0668 24.9674 11.0124C25.7294 10.9036 26.3741 10.8492 27.3704 10.6859C28.3082 10.4683 29.5976 10.1418 30.6525 9.92409C31.7075 9.652 32.528 9.43434 33.1727 9.43434C33.7588 9.43434 34.1691 9.652 34.6966 9.76084C35.224 9.92409 35.8687 9.97851 36.1618 9.86967C36.5134 9.81525 36.4548 9.59759 36.6893 9.43434C36.9237 9.3255 37.5098 9.21667 38.0373 9.05342C38.6234 8.89017 39.1508 8.61808 39.0922 8.45483C39.0922 8.29158 38.5061 8.23716 37.8028 8.29158C37.0995 8.29158 36.279 8.40041 36.3376 8.29158C36.3962 8.12833 37.3926 7.85624 37.1581 7.74741C36.9237 7.63857 35.4585 7.80183 34.3449 7.85624C33.2313 7.91066 32.3522 7.85624 31.4731 7.80183C30.6525 7.74741 29.832 7.58416 29.1287 7.58416C28.4254 7.52974 27.8393 7.63857 26.9015 7.63857C25.9052 7.69299 24.6158 7.63857 23.5608 7.63857C22.5645 7.63857 21.8612 7.69299 21.2165 7.80183C20.5718 7.96508 20.0443 8.23716 19.341 8.45483C18.6377 8.61808 17.7585 8.6725 17.0552 8.72691C16.3519 8.72691 15.7658 8.72691 15.59 8.56366C15.3556 8.40041 15.4728 8.07391 15.6486 7.96508C15.883 7.80183 16.2347 7.85624 16.4105 7.74741C16.645 7.69299 16.7622 7.52974 16.938 7.31207C17.0552 7.25766 18.1102 5.18981 17.993 4.70006C17.9344 4.70006 20.4545 -0.08864 14.8281 0.129028C14.0662 0.183445 13.1284 0.673198 12.7768 1.05412C12.894 0.782032 12.4251 1.38062 12.7768 1.05412Z" fill="#39BBD1"/>
<path d="M12.7768 1.05412C12.3079 1.27179 11.546 2.03362 10.9599 2.68663C10.3738 3.33963 9.78769 4.91772 9.43603 6.00606C9.02577 7.0944 8.6155 7.85624 8.14663 8.346C7.73637 8.83575 7.20889 9.05342 7.3261 9.05342C7.44332 9.05342 8.20524 8.78133 8.08802 8.89017C7.9708 9.05342 7.03306 9.59759 6.97445 9.76084C6.85723 9.92409 7.61915 9.81525 7.9708 10.0873C7.85359 10.3594 7.73637 10.6315 7.56054 10.9036C7.20889 11.611 6.74001 12.4817 6.44697 13.4068C6.09531 14.3863 5.91949 15.4202 5.68505 16.3997C5.45061 17.3248 5.09896 18.1955 4.27843 18.9573C3.39929 19.7736 2.05128 20.481 1.23076 21.4061C0.35162 22.2767 -3.45502e-05 23.3107 0.175793 24.399C0.35162 25.4874 1.11354 26.6845 2.69598 27.4464C4.33704 28.2082 6.79862 28.4803 8.32246 28.1538C9.8463 27.8273 10.491 26.9022 10.6668 26.5757C10.8426 26.3036 10.6082 26.6301 10.3152 27.1199C10.0221 27.6096 9.72908 28.2626 9.37742 29.351C9.02577 30.4393 8.67411 31.9086 8.32246 33.1057C7.9708 34.2485 7.73637 35.0647 7.38471 35.6089C7.03306 36.1531 6.56419 36.3708 6.21253 37.1326C5.80227 37.84 5.56783 39.0372 5.50922 39.6358C5.50922 40.2344 5.74366 40.2344 6.09531 40.2344C6.44697 40.1799 6.97445 40.1255 7.38471 40.1255C7.79498 40.1799 8.08802 40.2888 8.49829 40.452C8.84994 40.5609 9.37742 40.6697 10.0221 40.7785C10.6668 40.8329 11.3701 40.8874 12.1321 40.8329C12.894 40.7785 13.7145 40.6697 14.1834 40.452C14.5936 40.2344 14.5936 39.9079 14.4764 39.6358C14.3006 39.4181 13.9489 39.2004 13.3628 38.9283C12.7768 38.6563 11.9562 38.2209 11.3701 37.7856C10.7254 37.3503 10.3152 36.8605 10.1393 36.3708C9.96351 35.881 10.0221 35.2824 10.2566 34.7382C10.491 34.1397 10.9013 33.5955 11.4874 32.6704C12.1321 31.7997 12.894 30.4937 13.5973 29.4054C14.3006 28.2626 14.9453 27.2831 15.6486 26.6845C16.3519 26.0315 17.1724 25.7594 17.4069 25.8683C17.6413 25.9227 17.2897 26.4124 16.9966 27.011C16.7036 27.5552 16.4105 28.2626 16.0589 29.2421C15.7072 30.2216 15.2383 31.5276 14.8281 32.616C14.4764 33.7043 14.1248 34.575 13.8903 34.9559C13.5973 35.3368 13.5387 35.1192 13.3042 35.5001C13.0698 35.9354 12.6595 36.8605 12.6595 37.4591C12.6009 38.0577 12.8354 38.2753 13.3628 38.4386C13.9489 38.6563 14.8281 38.7651 15.3556 38.6563C15.883 38.6018 16.0003 38.2753 16.2347 38.2753C16.4105 38.3298 16.7036 38.6563 17.1724 38.8739C17.6413 39.0372 18.3446 39.0372 19.1065 38.9828C19.8685 38.9283 20.6304 38.7651 20.982 38.5474C21.3923 38.2753 21.2751 37.8944 20.982 37.6768C20.689 37.4591 20.1615 37.4047 19.5754 37.1326C19.0479 36.8605 18.4618 36.3163 17.9344 35.9354C17.4069 35.5001 16.8794 35.1736 16.7036 34.7927C16.5277 34.4117 16.645 33.9764 17.0552 33.3234C17.4655 32.6704 18.1102 31.7997 18.8135 30.8746C19.5168 29.9495 20.2201 28.97 20.8648 27.8817C21.4509 26.7934 21.9198 25.5962 22.2128 24.7255C22.4473 23.8548 22.5059 23.2563 22.2714 22.8209C22.0956 22.3856 21.6267 22.0591 20.8648 21.8414C20.1029 21.6237 18.9893 21.5693 18.1688 21.5149C17.2897 21.4605 16.7036 21.4061 15.5314 21.4605C14.3592 21.5149 12.6009 21.6782 11.8976 21.5149C11.1943 21.3517 11.546 20.9163 12.0148 20.481C12.4837 19.9912 13.0698 19.5015 13.5973 19.1206C14.1834 18.6852 14.7109 18.3587 15.1211 17.9234C15.5314 17.4881 15.8244 16.9439 15.9416 16.3997C16.0589 15.91 16.0003 15.3658 16.0003 14.8216C16.0003 14.2774 16.0589 13.7333 16.2933 13.2435C16.5277 12.7538 16.938 12.3184 17.2897 12.0464C17.6413 11.8287 18.0516 11.8287 18.5204 11.8287C19.0479 11.8287 19.6926 11.8287 20.4545 11.7743C21.1579 11.6654 21.9198 11.4478 22.6817 11.2845C23.4436 11.1757 24.2641 11.0668 24.9674 11.0124C25.7294 10.9036 26.3741 10.8492 27.3704 10.6859C28.3082 10.4683 29.5976 10.1418 30.6525 9.92409C31.7075 9.652 32.528 9.43434 33.1727 9.43434C33.7588 9.43434 34.1691 9.652 34.6966 9.76084C35.224 9.92409 35.8687 9.97851 36.1618 9.86967C36.5134 9.81525 36.4548 9.59759 36.6893 9.43434C36.9237 9.3255 37.5098 9.21667 38.0373 9.05342C38.6234 8.89017 39.1508 8.61808 39.0922 8.45483C39.0922 8.29158 38.5061 8.23716 37.8028 8.29158C37.0995 8.29158 36.279 8.40041 36.3376 8.29158C36.3962 8.12833 37.3926 7.85624 37.1581 7.74741C36.9237 7.63857 35.4585 7.80183 34.3449 7.85624C33.2313 7.91066 32.3522 7.85624 31.4731 7.80183C30.6525 7.74741 29.832 7.58416 29.1287 7.58416C28.4254 7.52974 27.8393 7.63857 26.9015 7.63857C25.9052 7.69299 24.6158 7.63857 23.5608 7.63857C22.5645 7.63857 21.8612 7.69299 21.2165 7.80183C20.5718 7.96508 20.0443 8.23716 19.341 8.45483C18.6377 8.61808 17.7585 8.6725 17.0552 8.72691C16.3519 8.72691 15.7658 8.72691 15.59 8.56366C15.3556 8.40041 15.4728 8.07391 15.6486 7.96508C15.883 7.80183 16.2347 7.85624 16.4105 7.74741C16.645 7.69299 16.7622 7.52974 16.938 7.31207C17.0552 7.25766 18.1102 5.18981 17.993 4.70006C17.9344 4.70006 20.4545 -0.08864 14.8281 0.129028C14.0662 0.183445 13.1284 0.673198 12.7768 1.05412ZM12.7768 1.05412C12.4251 1.38062 12.894 0.782032 12.7768 1.05412Z" stroke="#39BBD1" stroke-width="0.199934"/>
</g>
<defs>
<clipPath id="clip0_1663_26189">
<rect width="39.2681" height="40.9619" fill="white"/>
</clipPath>
</defs>
</svg>
