<svg width="200" height="200" viewBox="0 0 200 200" fill="none" xmlns="http://www.w3.org/2000/svg">
<path d="M49.488 43.3752C-23.144 84.9112 24.7116 134.347 79.9268 127.499C147.839 135.385 176.607 77.8672 123.439 47.0632C103.615 37.778 89.2164 38.9116 49.4868 43.3715L49.488 43.3752Z" fill="#39BBD1" stroke="#39BBD1" stroke-width="1.5871"/>
<path d="M32.7832 57.6116L41.5744 21.5684L58.2772 50.1392L32.7832 57.6116Z" fill="#39BBD1" stroke="#39BBD1" stroke-width="1.5772"/>
<path d="M111.024 53.6553L128.167 22.4473L138.276 74.3153L111.024 53.6553Z" fill="#39BBD1" stroke="#39BBD1" stroke-width="1.5772"/>
<path d="M80.2558 127.5C80.2558 127.5 77.6184 168.82 71.9042 172.772C66.1899 176.724 100.915 184.2 109.266 176.288C124.593 163.225 97.1258 136.272 93.8818 126.18C83.855 94.7143 80.2558 127.499 80.2558 127.499V127.5Z" fill="#39BBD1" stroke="#39BBD1" stroke-width="1.5772"/>
<path d="M108.748 166.815C108.748 166.815 132.604 164.894 141.177 147.601C149.75 130.309 144.532 116.475 146.395 111.095C148.259 105.715 157.205 84.1954 178.824 96.4926C200.443 108.79 198.58 126.851 188.888 131.462C179.196 136.073 162.203 135.481 173.233 131.462C183.881 127.581 197.54 120.766 182.179 107.252C170.353 96.849 165.771 96.7546 156.459 104.947C145.214 114.84 162.273 139.445 140.804 158.747C120.977 176.571 108.002 170.659 108.002 170.659L108.748 166.815Z" fill="#39BBD1" stroke="#39BBD1" stroke-width="1.3581"/>
<path d="M100.374 59.461C104.336 55.5932 112.969 42.0208 127.756 59.9278C123.519 64.5003 119.938 66.896 114.717 68.019C115.153 66.7992 105.862 67.9447 100.374 59.461V59.461Z" fill="white" stroke="white" stroke-width="0.571443"/>
<path d="M121.029 58.9344C121.029 63.4006 117.785 67.0211 113.785 67.0211C109.784 67.0211 106.54 63.4004 106.54 58.9344C106.54 54.4683 109.784 50.8477 113.785 50.8477C117.785 50.8477 121.029 54.4683 121.029 58.9344Z" fill="#39BBD1" stroke="#39BBD1" stroke-width="0.525923"/>
<path d="M38.2132 58.837C42.1753 54.9692 50.8085 41.3968 65.5957 59.3038C61.3591 63.8763 57.7774 66.272 52.5564 67.395C52.9928 66.1752 43.7018 67.3207 38.2132 58.8369V58.837Z" fill="white" stroke="white" stroke-width="0.571443"/>
<path d="M58.8685 58.3103C58.8685 62.7766 55.625 66.397 51.6242 66.397C47.6234 66.397 44.3799 62.7763 44.3799 58.3103C44.3799 53.8443 47.6234 50.2236 51.6242 50.2236C55.625 50.2236 58.8685 53.8443 58.8685 58.3103Z" fill="#39BBD1" stroke="#39BBD1" stroke-width="0.525923"/>
<path d="M134.017 71.5494C134.017 97.8227 110.671 119.122 81.8716 119.122C53.0725 119.122 29.726 97.8236 29.726 71.5494C29.726 71.0785 29.7336 70.6075 29.749 70.1367L81.8716 71.5494H134.017Z" fill="white" stroke="#39BBD1" stroke-width="1.86857"/>
<path d="M32.3941 87.1402L33.9985 69.6133L44.1603 103.415L47.3692 71.4902L58.6006 113.429L63.414 70.8635L71.4365 117.81L76.7847 70.2377L85.8768 117.81L91.7599 71.4891L100.852 115.306L109.409 70.8635L114.757 107.169L124.384 71.4891L126.524 95.9019V93.3981L127.593 94.65" stroke="#39BBD1" stroke-width="2.07618"/>
</svg>
