<?xml version="1.0" encoding="UTF-8"?>
<svg width="83.944mm" height="101.85mm" version="1.1" viewBox="0 0 297.43948 360.87317" xmlns="http://www.w3.org/2000/svg">
 <g transform="translate(196.12 -404.91)">
  <g transform="matrix(-1 0 0 1 -94.797 0)" fill-rule="evenodd" stroke="#000" stroke-width="1px">
   <path d="m5.3411 476.86v-5.7862l2.6706-3.5607 3.5607-4.896 1.3353-2.2255 5.3411 3.5608 4.4509 0.44509 1.7804-1.3353 0.89019-2.6706-0.44509-2.0029 1.3353-0.66764v-2.448l2.2255-2.6706-0.44509-1.3353-0.22255-0.66763 1.1127-0.4451 1.3353-0.22254 1.1127-0.4451v-2.8931l-0.89019-1.7804-1.5578-2.2255-0.89019-5.7862 0.22255-7.1215-1.1127-2.6706-2.0029-2.2255-0.22255-5.1186-0.44509-0.66764-1.7804-0.89019-3.7833-6.4538-3.7833-4.0058-5.3411-2.2255-4.0058 0.4451-6.2313 3.1156-6.0088 3.7833 6.0088-0.66764 7.1215-1.1127 2.448 2.0029-10.905 0.4451-4.0058 2.448-3.7833-0.22255-4.4509-2.448-5.5637 3.1156-1.3353 6.8989v1.7804l-5.1186 5.5637-2.8931 6.8989-4.2284 6.6764-5.3411 6.4538-3.5607 5.3411-0.22255 5.1186 1.1127 2.8931v-4.896l2.6706-4.896 4.0058-4.2284 4.6735-5.3411-1.5578 6.0088 0.44509 10.46 1.5578 5.7862-5.5637-0.66764z"/>
   <path d="m-34.495 465.51-4.896 0.66764-3.1157 1.7804-5.3411 2.8931-4.6735 3.5607-1.1127 0.66764-6.2313 1.3353-3.5607 0.89019-3.7833 2.448-5.3411 2.2255-5.5637 2.8931-5.5637 1.5578-4.4509 2.2255-3.1157 3.1156-1.7804 1.3353-0.66764 3.3382 0.22255 2.0029s2.8931 2.448 4.2284 5.5637l1.3353 3.1156 2.8931 1.7804 8.2342 8.4568 6.0088 5.7862 6.4538 5.3411 7.5666 6.4538 1.1127-0.22254 3.1157 3.5607 2.6706 2.8931 4.4509 1.7804h3.1157s2.821 0.3834 3.7833-0.44509c0.64097-0.55186 0.66764-2.448 0.66764-2.448s2.7691 0.45164 3.5607-0.44509c0.54003-0.61174 0-2.448 0-2.448l0.89019-0.89019-0.22255-3.1156 2.2255-1.7804-7.5666-5.5637 2.448-0.4451 3.672 1.7804 0.77891 0.4451h0.11127l-0.33382-2.8931-2.6706-3.3382-3.3382-0.66764-6.8989 3.5607-4.4509 0.66764-7.1215-6.8989-6.6764-6.8989-3.7833-8.0117-2.0029-3.7833 0.22255-2.0029 1.5578-0.22254 11.127-0.89019 10.015-3.1156 4.896-1.5578h1.1127l2.2255 4.896 1.7804 8.2342 0.66764 1.3353-1.1127 1.3353 1.1127 2.448 1.3353 8.6793 1.3353 4.2284 1.1127 13.13-0.66764 7.1215-3.5607 8.2342s-6.8477 11.253-9.792 17.136c-1.0855 2.169-2.1142 4.3794-2.8931 6.6764-0.78582 2.3173-1.7057 4.6757-1.7804 7.1215-0.099 3.2431 1.7804 9.5695 1.7804 9.5695l54.301-0.4451-6.2313-10.46 1.3353-3.1156 1.3353-4.4509 3.1157-6.0088 3.5607-2.8931-1.7804-12.24 3.1157-7.344 3.1157-8.2342-0.44509-9.792 8.2342-8.2342 4.896 5.7862 4.896 4.0058 3.7833 4.896 2.2255 2.0029 4.4509 1.7804 3.3382 0.22255 2.6706-2.448 5.5637-8.4568 3.5607-6.4538 5.5637-14.466 2.2255-6.2313 1.7804-5.5637 0.89019-2.6706 2.8931-4.0058 1.3353-4.2284 1.3353-2.8931-0.44509-5.1186-1.3353-0.22255-1.3353 1.1127v-2.6706l-0.89019-1.1127-1.7804-0.89018-1.1127-2.0029-1.1127-1.3353h-1.1127l-1.3353 0.89019-1.3353-1.7804h-1.3353l-0.89019 0.22255-0.44509 4.0058-1.3353-1.5578-0.44509-2.8931h-1.7804l-0.66764 2.6706v1.7804l-2.0029 1.3353v4.2284l-0.22255 4.0058 1.1127 3.7833 1.5578 4.6735 0.44509 2.8931-3.5607 9.5695-5.1186 8.9019-4.0058 5.3411-2.2255 1.5578-4.2284-6.8989-4.0058-6.8989-6.2313-5.7862-3.1157-2.448-2.2255-7.7891-4.6735-5.5637-3.7833-2.8931-5.1186-3.3382z"/>
   <path d="m-48.515 590.8 0.22255 4.0058-1.1127 4.896-2.8931 4.6735-6.0088 6.0088-3.5607 5.7862-1.3353 4.6735-2.6706 7.5666-1.1127 4.4509-6.6764 8.9019-4.0058 2.448-6.6764-2.6706-7.1215-3.5608s-2.6999-1.7777-4.2284-2.2255c-2.5008-0.73265-7.7891-0.66764-7.7891-0.66764h-6.0088l-10.682 0.89018h-11.795l-13.353 1.7804-4.4509-5.5637-7.7891-6.8989-2.8931-4.0058h-2.0029l-5.7862 4.896-8.6793 9.1244-1.3353 4.4509-0.66764 2.6706-2.0029 3.1156-3.1156 0.89019-6.6764 8.0117-4.2284 7.7891-0.66764 4.6735v4.896l2.0029 4.2284 4.896-0.4451 2.8931-1.3353 1.3353-3.5607 1.7804-1.7804 3.3382-2.6706 4.896-0.89019 7.1215-1.1127h5.1186l4.896-7.5666 10.237-0.44509 8.2342-0.4451h7.5666l12.908 2.6706 8.4568 2.6706 5.3411 1.3353 4.896 0.22254 6.6764 1.3353 10.46 2.8931 5.7862 1.5578 6.0088 2.8931s2.9393 0.82459 4.4509 0.89019c0.67112 0.0291 1.3892 0.0505 2.0029-0.22255 0.81613-0.36314 1.3475-1.1735 2.0029-1.7804 2.1173-1.9604 6.2313-6.0088 6.2313-6.0088l6.8989-7.1215 7.1215-7.7891 6.6764-7.344 5.7862-6.4538 4.6735-6.6764 1.7804-3.7833 1.7804-2.448 4.2284 6.0088 5.5637 7.7891 5.1186 6.0088 5.7862 4.6735 4.896 5.3411 3.7833 5.3411 4.6735 4.2284 2.8931 2.8931 1.1127 6.0088 0.44509 8.6793 0.66764 8.9019 1.3353 4.896 2.8931 7.344 4.6735 6.4538 4.4509 6.0088 5.5637 8.0117 5.1186 6.8989 3.7833 7.344 2.2255 6.4538-2.448 1.3353 0.89019 5.1186 2.6706 4.0058 1.7804 5.3411 0.44509 3.3382 2.2255 4.0058 4.0058 0.22255 7.1215-2.2255 7.7891-4.4509 2.448-2.6706 4.896-0.22255 5.7862-2.0029 7.344-5.3411 5.7862-8.4568 2.2255-6.0088-0.44509-5.3411-2.2255-2.2255h-2.8931l-6.2313 4.2284-5.3411-0.22254-8.0117-4.2284-4.0058-0.44509-5.1186 3.3382-3.1157-2.8931-2.8931 1.1127-5.3411-10.015-4.6735-11.127-1.7804-8.0117-3.7833-11.35-2.6706-6.2313-1.7804-4.6735-1.1127-3.5607s0.23952-3.329-0.22255-4.896c-0.29148-0.98849-1.5578-2.6706-1.5578-2.6706l0.22255-6.2313s0.06164-3.1929-0.44509-4.6735c-0.85301-2.4923-4.2284-6.6764-4.2284-6.6764l-4.0058-7.7891-6.0088-14.911-6.4538-14.466-14.688-22.255z"/>
  </g>
 </g>
</svg>
