<svg width="85" height="83" viewBox="0 0 85 83" fill="none" xmlns="http://www.w3.org/2000/svg">
<path d="M21.0325 18.0016C-9.83614 35.239 10.5025 55.755 33.969 52.913C62.8316 56.1856 75.058 32.3158 52.4616 19.5321C44.0364 15.6787 37.917 16.1492 21.032 18L21.0325 18.0016Z" fill="#39BBD1" stroke="#39BBD1" stroke-width="1.5871"/>
<path d="M13.9329 23.9093L17.6691 8.95142L24.7678 20.8083L13.9329 23.9093Z" fill="#39BBD1" stroke="#39BBD1" stroke-width="1.5772"/>
<path d="M47.1853 22.2677L54.4708 9.31641L58.7674 30.8416L47.1853 22.2677Z" fill="#39BBD1" stroke="#39BBD1" stroke-width="1.5772"/>
<path d="M34.1088 52.9128C34.1088 52.9128 32.988 70.0606 30.5594 71.7006C28.1308 73.3407 42.8888 76.4434 46.4382 73.16C52.9523 67.7387 41.2786 56.5533 39.8999 52.3651C35.6385 39.3067 34.1088 52.9124 34.1088 52.9124V52.9128Z" fill="#39BBD1" stroke="#39BBD1" stroke-width="1.5772"/>
<path d="M46.218 69.2292C46.218 69.2292 56.3566 68.4318 60.0002 61.2554C63.6438 54.0789 61.426 48.3378 62.2181 46.1052C63.0101 43.8727 66.8121 34.9419 76.0003 40.0452C85.1885 45.1486 84.3964 52.6438 80.2775 54.5574C76.1586 56.4711 68.9363 56.2256 73.624 54.5574C78.1496 52.9469 83.9548 50.1186 77.4261 44.5105C72.4 40.1931 70.4527 40.154 66.4953 43.5536C61.7159 47.6595 68.9662 57.8706 59.8418 65.8806C51.4154 73.2776 45.9011 70.8244 45.9011 70.8244L46.218 69.2292Z" fill="#39BBD1" stroke="#39BBD1" stroke-width="1.3581"/>
<path d="M42.6589 24.6771C44.3428 23.0719 48.0119 17.4394 54.2965 24.8708C52.496 26.7684 50.9737 27.7626 48.7548 28.2286C48.9403 27.7224 44.9916 28.1978 42.6589 24.6771V24.6771Z" fill="white" stroke="white" stroke-width="0.571443"/>
<path d="M51.4374 24.458C51.4374 26.3115 50.059 27.814 48.3586 27.814C46.6583 27.814 45.2798 26.3114 45.2798 24.458C45.2798 22.6046 46.6583 21.1021 48.3586 21.1021C50.059 21.1021 51.4374 22.6046 51.4374 24.458Z" fill="#39BBD1" stroke="#39BBD1" stroke-width="0.525923"/>
<path d="M16.2407 24.418C17.9246 22.8129 21.5937 17.1803 27.8783 24.6118C26.0778 26.5093 24.5555 27.5036 22.3366 27.9696C22.5221 27.4634 18.5734 27.9388 16.2407 24.418V24.418Z" fill="white" stroke="white" stroke-width="0.571443"/>
<path d="M25.0192 24.199C25.0192 26.0525 23.6408 27.555 21.9404 27.555C20.2401 27.555 18.8616 26.0524 18.8616 24.199C18.8616 22.3456 20.2401 20.843 21.9404 20.843C23.6408 20.843 25.0192 22.3456 25.0192 24.199Z" fill="#39BBD1" stroke="#39BBD1" stroke-width="0.525923"/>
<path d="M56.9574 29.6939C56.9574 40.5974 47.0351 49.4366 34.7955 49.4366C22.5558 49.4366 12.6335 40.5977 12.6335 29.6939C12.6335 29.4985 12.6368 29.303 12.6433 29.1077L34.7954 29.6939H56.9574Z" fill="white" stroke="#39BBD1" stroke-width="1.86857"/>
<path d="M13.7676 36.1638L14.4495 28.8901L18.7682 42.9177L20.132 29.6691L24.9054 47.0736L26.9511 29.409L30.3606 48.8917L32.6336 29.1493L36.4977 48.8917L38.9981 29.6686L42.8622 47.8526L46.499 29.409L48.772 44.4756L52.8635 29.6686L53.7727 39.7999V38.7608L54.2273 39.2804" stroke="#39BBD1" stroke-width="2.07618"/>
</svg>
