<svg width="14" height="13" viewBox="0 0 14 13" fill="none" xmlns="http://www.w3.org/2000/svg">
<path fill-rule="evenodd" clip-rule="evenodd" d="M0.584031 4.87866C0.656031 5.01066 0.792031 5.17066 0.877031 5.31166C0.933031 5.40566 1.02503 5.53266 1.09303 5.64066C1.11603 5.67666 1.14003 5.71366 1.16303 5.74766C1.21103 5.81766 1.25603 5.89666 1.30303 5.97066L1.72003 6.63966C1.74303 6.67766 1.76803 6.71366 1.79003 6.75066C1.99103 7.08166 2.21003 7.42566 2.41703 7.75266C2.46603 7.82966 2.51203 7.89466 2.56103 7.96766L2.77903 8.29466C2.79803 8.32366 2.83703 8.37266 2.84903 8.40066C2.88103 8.39466 3.07403 8.29766 3.11903 8.27566L3.89903 7.88166C4.24603 7.70566 4.59303 7.52666 4.96103 7.37766C5.53403 7.14666 6.25803 6.92766 6.90803 7.01966C7.05903 7.04066 7.24103 7.07966 7.38403 7.13066C7.41703 7.14266 7.49903 7.17966 7.52403 7.18266C7.45903 7.12266 7.40303 7.05766 7.34103 6.99666L7.25103 6.90066C7.19803 6.84966 7.12103 6.76466 7.07103 6.70866L6.93603 6.56466C6.89703 6.52066 6.85403 6.46466 6.80803 6.41766C6.73803 6.34766 6.66103 6.24466 6.58903 6.17266C6.57303 6.15566 6.56203 6.13866 6.54803 6.12066C6.53303 6.10166 6.51803 6.09066 6.50303 6.07366L5.40703 4.81366C5.39803 4.80566 5.39303 4.79966 5.38503 4.78966L5.16503 4.54566C5.14703 4.52666 5.13603 4.51566 5.11903 4.49866L4.93703 4.31266C4.90003 4.26766 4.86703 4.24666 4.84303 4.22066L4.74803 4.12966C4.73103 4.11366 4.72103 4.10166 4.70403 4.08466C4.60503 3.98566 4.42703 3.85666 4.26703 3.77866C3.66803 3.48466 3.05003 3.54966 2.45303 3.79066C2.25703 3.86966 2.00303 3.98366 1.82403 4.08966C1.78603 4.11266 1.74503 4.13166 1.70403 4.15566C1.62403 4.20266 1.55203 4.24666 1.47503 4.29366C1.39803 4.34166 1.31903 4.38666 1.24603 4.43666C1.18403 4.47866 0.606031 4.85366 0.582031 4.87866H0.584031Z" fill="#FEFEFE"/>
<path fill-rule="evenodd" clip-rule="evenodd" d="M4.73396 3.99988C4.74496 4.01488 4.76996 4.03588 4.78396 4.04988C4.80096 4.06588 4.81496 4.08288 4.83196 4.09888L5.03096 4.29188C5.05096 4.31088 5.05896 4.31888 5.07796 4.34188L5.27196 4.54088C5.29096 4.55988 5.29796 4.57388 5.31596 4.59388C5.34996 4.63288 5.37596 4.65888 5.41296 4.69488L5.48096 4.77388C5.50596 4.80888 5.56496 4.86388 5.59696 4.90288C5.61196 4.92188 5.62496 4.93688 5.64196 4.95488L6.36996 5.79388C6.38496 5.81188 6.39896 5.82688 6.41496 5.84588C6.46396 5.90388 6.49696 5.94888 6.55196 6.00388C6.56196 6.01388 6.56696 6.02088 6.57496 6.03088L6.77896 6.26588C6.79496 6.28388 6.80996 6.30288 6.82596 6.32088L6.96496 6.47288C6.98096 6.48988 6.99496 6.51088 7.00996 6.52888C7.03696 6.56188 7.11996 6.63988 7.15296 6.67688L7.29596 6.82888C7.31196 6.84688 7.32596 6.86288 7.34196 6.87988L7.43596 6.98388C7.46796 7.01988 7.49996 7.04288 7.53396 7.07988C7.54296 7.08988 7.55096 7.09488 7.56196 7.10288C7.60896 7.13988 7.70096 7.25088 7.73896 7.26688C7.78696 7.12788 7.78496 7.13388 7.85996 7.00788C7.91396 6.91688 8.04396 6.78688 8.13696 6.71488C8.17296 6.68688 8.20696 6.66288 8.24796 6.63588C8.93896 6.18588 10.1 6.01388 10.927 5.89988C11.077 5.87888 12.221 5.73388 12.255 5.71188C12.242 5.69088 12.183 5.65288 12.158 5.63488C11.995 5.52388 11.823 5.38688 11.655 5.27288L11.453 5.12888C11.386 5.07888 11.316 5.03488 11.25 4.98588L10.642 4.55988C10.503 4.46888 10.371 4.36888 10.232 4.27688C10.164 4.23188 10.094 4.18288 10.027 4.13588C9.96096 4.08888 9.89096 4.04488 9.82396 3.99688C9.75396 3.94688 9.68796 3.90288 9.61896 3.85488C9.55096 3.80788 9.48296 3.75888 9.41396 3.71388C9.24896 3.60488 9.06796 3.47088 8.90396 3.36188C8.80096 3.29388 8.69996 3.21688 8.59796 3.14788C8.46796 3.06088 8.52696 3.08788 8.33996 3.11688C7.98896 3.17088 7.70396 3.16488 7.34796 3.16588C7.11996 3.16688 6.89196 3.16788 6.66396 3.16888C6.55296 3.16888 6.42896 3.16388 6.31996 3.17088C5.96196 3.19388 5.53896 3.28588 5.24196 3.47288C5.20396 3.49688 5.17196 3.51888 5.13996 3.54388C5.04296 3.61788 5.04096 3.61988 4.95396 3.70388C4.89596 3.75988 4.74696 3.94288 4.73096 3.99588L4.73396 3.99988Z" fill="#FEFEFE"/>
<path fill-rule="evenodd" clip-rule="evenodd" d="M3.318 9.145L3.515 9.03C3.582 8.991 3.647 8.953 3.717 8.915C3.853 8.84 3.987 8.762 4.128 8.688C4.592 8.447 4.916 8.274 5.41 8.066C5.849 7.881 6.447 7.664 6.933 7.666C6.976 7.666 7.084 7.664 7.115 7.681C6.434 7.771 5.695 7.987 5.071 8.268C4.994 8.303 4.918 8.334 4.844 8.37L3.318 9.144V9.145ZM2.851 9.391L2.854 9.338C2.89 9.322 2.936 9.29 2.971 9.268C3.012 9.243 3.049 9.221 3.09 9.197C3.325 9.057 3.571 8.91 3.811 8.778C4.551 8.37 5.628 7.8 6.471 7.647C6.583 7.627 6.698 7.612 6.816 7.609C6.905 7.607 6.994 7.611 7.082 7.628L7.141 7.64C7.166 7.649 7.151 7.642 7.158 7.652C7.141 7.665 7.153 7.652 7.151 7.665C6.973 7.616 6.647 7.662 6.469 7.698C5.622 7.868 4.585 8.417 3.816 8.837C3.581 8.966 3.326 9.115 3.093 9.254C3.017 9.299 2.933 9.356 2.852 9.391H2.851ZM2.855 9.311L2.857 9.255C2.905 9.219 3.774 8.729 3.823 8.701C4.147 8.517 4.476 8.343 4.816 8.17C5.147 8.002 5.509 7.838 5.884 7.714C6.182 7.616 6.534 7.536 6.859 7.553C7.034 7.562 7.046 7.576 7.195 7.601C7.188 7.622 7.182 7.615 7.174 7.631C6.995 7.562 6.683 7.587 6.487 7.621C5.781 7.746 4.943 8.149 4.308 8.481C3.922 8.683 3.468 8.941 3.095 9.168C3.063 9.187 2.874 9.306 2.854 9.31L2.855 9.311ZM2.857 9.228V9.142L3.096 9.005C3.928 8.534 5.009 7.916 5.909 7.655C6.227 7.563 6.561 7.499 6.902 7.521C6.987 7.526 7.069 7.537 7.152 7.554C7.165 7.557 7.177 7.559 7.19 7.562L7.22 7.57C7.229 7.576 7.22 7.567 7.227 7.577L7.214 7.582C7.206 7.583 7.202 7.582 7.194 7.579C7.099 7.555 7.006 7.54 6.907 7.533C6.211 7.485 5.424 7.842 4.834 8.136C4.664 8.22 4.496 8.307 4.331 8.397C4.248 8.443 4.166 8.486 4.082 8.532C3.706 8.736 3.351 8.947 2.983 9.155C2.949 9.175 2.892 9.213 2.858 9.226L2.857 9.228ZM2.859 9.117L2.86 9.057C2.868 9.035 3.734 8.561 3.823 8.516C3.989 8.432 4.15 8.342 4.319 8.26C5.095 7.885 6.342 7.301 7.266 7.538C7.248 7.561 7.247 7.553 7.202 7.543C7.003 7.498 6.792 7.485 6.589 7.502C5.969 7.555 5.385 7.803 4.845 8.05C4.67 8.13 4.507 8.218 4.336 8.301C4.203 8.365 3.971 8.492 3.837 8.566C3.542 8.728 3.271 8.884 2.983 9.047C2.952 9.065 2.889 9.106 2.859 9.117ZM2.861 9.026L2.863 8.964C2.989 8.887 3.207 8.765 3.341 8.692C3.502 8.605 3.664 8.517 3.83 8.429C4.618 8.015 5.708 7.516 6.619 7.453C6.741 7.444 6.865 7.444 6.986 7.452C7.044 7.456 7.1 7.462 7.158 7.471C7.185 7.475 7.211 7.479 7.237 7.484L7.296 7.496C7.323 7.504 7.307 7.497 7.314 7.507C7.285 7.512 7.318 7.528 7.247 7.512C7.171 7.494 7.076 7.48 6.998 7.474C6.289 7.413 5.479 7.702 4.861 7.98C4.509 8.139 4.17 8.302 3.841 8.48L3.349 8.748C3.305 8.772 2.882 9.017 2.858 9.025L2.861 9.026ZM2.864 8.941C2.861 8.867 2.856 8.884 2.946 8.833C3.242 8.665 3.507 8.52 3.812 8.36C3.977 8.273 4.152 8.189 4.325 8.108C5.025 7.78 5.888 7.447 6.678 7.404C6.886 7.393 7.196 7.405 7.384 7.462C7.368 7.481 7.348 7.488 7.323 7.482C6.377 7.256 5.188 7.756 4.363 8.142C3.938 8.341 3.4 8.63 2.988 8.869C2.963 8.884 2.88 8.927 2.866 8.941H2.864ZM2.868 8.854L2.867 8.788L3.355 8.516C3.864 8.249 4.361 7.99 4.905 7.786C5.278 7.646 5.658 7.517 6.076 7.437C6.419 7.372 6.774 7.337 7.127 7.374C7.181 7.38 7.424 7.411 7.45 7.434C7.416 7.438 7.438 7.455 7.378 7.44C6.595 7.247 5.612 7.552 4.912 7.831C4.445 8.018 3.816 8.324 3.359 8.579C3.276 8.625 3.193 8.671 3.112 8.716C3.029 8.762 2.949 8.81 2.869 8.855L2.868 8.854ZM2.869 8.764L2.868 8.71C2.895 8.688 3.323 8.453 3.362 8.431C4.327 7.903 5.729 7.252 6.852 7.291C7.103 7.3 7.293 7.337 7.514 7.404L7.502 7.411C7.475 7.422 7.41 7.399 7.364 7.39C7.308 7.378 7.254 7.37 7.197 7.362C6.847 7.315 6.473 7.343 6.133 7.406C5.353 7.549 4.562 7.88 3.869 8.225C3.581 8.368 3.271 8.533 2.992 8.694C2.952 8.717 2.909 8.744 2.869 8.764ZM2.871 8.682V8.611C2.894 8.589 3.337 8.346 3.373 8.327C4.437 7.757 6.1 6.963 7.3 7.273C7.373 7.292 7.541 7.345 7.59 7.379L7.585 7.381C7.55 7.395 7.55 7.395 7.521 7.385C7.121 7.244 6.621 7.249 6.213 7.313C5.772 7.382 5.369 7.507 4.981 7.651C4.298 7.905 3.628 8.253 2.997 8.61C2.961 8.631 2.906 8.667 2.87 8.681L2.871 8.682ZM2.874 8.581V8.481C2.912 8.457 2.966 8.437 3.01 8.415C3.057 8.392 3.1 8.37 3.147 8.349C3.24 8.306 3.325 8.26 3.417 8.214L3.819 8.007C4.004 7.911 4.317 7.75 4.496 7.671L4.775 7.544C5.064 7.416 5.353 7.302 5.664 7.217C6.339 7.031 6.905 7.007 7.55 7.281C7.576 7.292 7.643 7.322 7.668 7.34L7.682 7.352C7.626 7.385 7.598 7.355 7.538 7.331C6.764 7.014 5.767 7.264 5.037 7.536C4.476 7.745 3.91 8.011 3.392 8.293L2.876 8.58L2.874 8.581ZM8.367 7.346C8.382 7.319 8.522 7.235 8.546 7.222C9.012 6.952 9.645 6.817 10.179 6.747C10.543 6.7 10.906 6.666 11.28 6.644C11.672 6.621 12.059 6.617 12.454 6.605C12.46 6.621 12.48 6.678 12.478 6.699C12.085 6.707 11.683 6.698 11.29 6.696C10.938 6.694 10.509 6.717 10.162 6.765C9.699 6.828 9.383 6.906 8.974 7.067C8.901 7.096 8.836 7.127 8.766 7.159C8.699 7.19 8.634 7.223 8.567 7.26L8.426 7.342C8.404 7.354 8.389 7.345 8.367 7.345V7.346ZM8.321 7.332C8.35 7.275 8.608 7.121 8.684 7.081C8.815 7.013 8.967 6.952 9.119 6.904C9.435 6.803 9.777 6.735 10.125 6.686C10.696 6.606 11.256 6.575 11.834 6.557C11.932 6.554 12.031 6.552 12.13 6.55C12.225 6.548 12.345 6.553 12.436 6.544L12.444 6.585C11.679 6.593 10.893 6.627 10.152 6.73C9.59 6.808 8.89 6.954 8.417 7.279C8.368 7.313 8.351 7.338 8.32 7.332H8.321ZM8.269 7.321L8.352 7.244C8.579 7.063 8.761 6.956 9.047 6.846C9.782 6.563 10.986 6.51 11.804 6.478C11.942 6.473 12.294 6.453 12.408 6.456C12.409 6.457 12.409 6.457 12.41 6.459C12.41 6.459 12.424 6.501 12.426 6.525C11.424 6.531 10.03 6.584 9.08 6.895C8.833 6.976 8.56 7.1 8.364 7.264C8.315 7.305 8.304 7.329 8.269 7.321ZM8.226 7.314C8.313 7.226 8.478 7.107 8.587 7.04C8.718 6.959 8.86 6.886 9.013 6.824C9.329 6.696 9.659 6.618 10.022 6.554C10.55 6.46 11.223 6.414 11.775 6.387C11.884 6.382 12.314 6.358 12.39 6.363C12.396 6.385 12.405 6.41 12.403 6.436C11.611 6.465 10.801 6.487 10.031 6.592C9.446 6.672 8.862 6.823 8.403 7.178C8.373 7.201 8.347 7.222 8.317 7.248L8.254 7.304C8.245 7.314 8.244 7.319 8.225 7.315L8.226 7.314ZM8.177 7.31C8.221 7.252 8.486 7.069 8.548 7.031C8.678 6.949 8.827 6.872 8.98 6.808C9.293 6.677 9.63 6.582 9.992 6.512C10.71 6.372 11.485 6.323 12.222 6.292C12.258 6.29 12.345 6.283 12.376 6.288C12.382 6.311 12.382 6.32 12.386 6.342C11.693 6.355 10.667 6.423 9.993 6.539C9.416 6.638 8.816 6.814 8.363 7.171L8.231 7.28C8.213 7.297 8.207 7.314 8.177 7.311V7.31ZM8.121 7.307C8.134 7.283 8.282 7.171 8.302 7.156C8.77 6.8 9.369 6.6 9.951 6.47C10.581 6.329 11.377 6.256 12.041 6.225C12.138 6.22 12.268 6.207 12.362 6.212C12.37 6.228 12.371 6.244 12.371 6.263C12.352 6.268 12.098 6.275 12.055 6.277C11.349 6.312 10.654 6.359 9.961 6.496C9.442 6.598 8.941 6.756 8.511 7.03C8.369 7.12 8.3 7.177 8.181 7.278C8.164 7.292 8.155 7.308 8.122 7.306L8.121 7.307ZM8.051 7.306C8.069 7.283 8.115 7.248 8.14 7.227C8.172 7.201 8.201 7.177 8.237 7.151C8.739 6.781 9.282 6.577 9.908 6.428C10.567 6.272 11.338 6.19 12.028 6.155L12.332 6.141C12.337 6.141 12.339 6.141 12.344 6.142C12.357 6.144 12.359 6.147 12.359 6.188C12.341 6.196 11.79 6.219 11.715 6.223C11.507 6.236 11.295 6.253 11.089 6.275C10.69 6.317 10.295 6.372 9.916 6.457C9.308 6.594 8.628 6.832 8.16 7.243C8.146 7.256 8.129 7.269 8.114 7.282C8.087 7.304 8.099 7.31 8.05 7.307L8.051 7.306ZM7.987 7.312C8.01 7.266 8.312 7.048 8.379 7.005C9.166 6.501 10.109 6.283 11.043 6.164C11.391 6.12 12.002 6.066 12.346 6.063C12.347 6.085 12.35 6.096 12.35 6.119C11.581 6.137 10.61 6.236 9.87 6.414C9.25 6.563 8.681 6.782 8.189 7.16C8.157 7.185 8.123 7.212 8.094 7.238C8.036 7.289 8.042 7.296 7.988 7.311L7.987 7.312ZM7.926 7.314C8.018 7.212 8.193 7.067 8.309 6.986C8.768 6.665 9.233 6.483 9.8 6.328C10.508 6.135 11.403 6.036 12.159 6.002C12.214 6 12.283 5.993 12.336 5.996C12.337 5.997 12.337 5.998 12.337 6C12.338 6.008 12.342 6.012 12.341 6.04C12.319 6.049 12.052 6.056 12.002 6.059C11.892 6.065 11.782 6.072 11.671 6.081C10.466 6.177 8.96 6.432 8.031 7.242L7.96 7.306C7.948 7.317 7.947 7.316 7.925 7.316L7.926 7.314ZM7.853 7.322C7.864 7.304 7.88 7.288 7.893 7.274C8.132 7.007 8.341 6.855 8.673 6.669C8.988 6.493 9.38 6.357 9.734 6.257C10.521 6.035 11.462 5.938 12.331 5.909C12.336 5.932 12.337 5.947 12.335 5.971C12.316 5.978 12.037 5.986 11.99 5.989C10.748 6.062 9.127 6.282 8.155 7.076C8.119 7.105 8.091 7.131 8.057 7.159C8.04 7.173 8.026 7.187 8.01 7.201C7.991 7.217 7.981 7.229 7.963 7.247C7.901 7.308 7.903 7.322 7.853 7.322ZM7.809 7.327C7.808 7.298 7.842 7.213 7.854 7.185C7.892 7.097 7.945 7.025 8.003 6.954L8.2 6.771C8.3 6.692 8.433 6.614 8.552 6.557C9.242 6.228 10.222 6.076 10.997 5.971C11.324 5.927 11.677 5.884 12.002 5.835C12.054 5.827 12.297 5.784 12.328 5.787L12.329 5.888C12.091 5.9 11.858 5.91 11.622 5.928C10.616 6.003 9.513 6.195 8.635 6.665C8.326 6.83 8.077 7.028 7.855 7.283C7.841 7.299 7.831 7.325 7.807 7.325L7.809 7.327ZM2.779 9.248C2.779 9.278 2.775 9.312 2.773 9.342C2.758 9.331 2.707 9.246 2.692 9.225C2.664 9.186 2.64 9.147 2.613 9.106C2.35 8.711 2.076 8.314 1.827 7.911C1.726 7.747 1.62 7.594 1.519 7.429C1.493 7.387 1.468 7.346 1.442 7.308L1.288 7.065C1.168 6.867 1.027 6.659 0.904 6.461L0.437 5.742C0.41 5.701 0.386 5.661 0.359 5.622C0.345 5.603 0.284 5.524 0.292 5.504C0.307 5.517 0.916 6.437 0.926 6.452C1.033 6.613 1.136 6.768 1.243 6.928L2.667 9.064C2.685 9.091 2.779 9.219 2.78 9.247L2.779 9.248ZM2.785 9.507C2.825 9.499 3.005 9.402 3.052 9.377L3.313 9.241C3.355 9.22 3.397 9.195 3.44 9.174C3.483 9.152 3.528 9.128 3.569 9.105C3.653 9.057 3.744 9.017 3.829 8.968C3.995 8.871 4.177 8.788 4.349 8.698C4.525 8.606 4.7 8.523 4.883 8.439C5.054 8.36 5.26 8.273 5.436 8.203C5.627 8.126 5.819 8.065 6.023 8C6.307 7.909 6.761 7.805 7.073 7.767C7.246 7.746 7.142 7.771 7.259 7.653C7.463 7.447 7.863 7.373 8.174 7.388C8.234 7.391 8.292 7.399 8.343 7.417C8.43 7.448 8.386 7.459 8.472 7.406C8.785 7.212 9.232 7.035 9.598 6.948C9.814 6.896 10.037 6.857 10.267 6.829C10.388 6.814 10.505 6.805 10.628 6.796C10.691 6.791 10.755 6.792 10.818 6.788C10.882 6.784 10.942 6.778 11.008 6.778C11.535 6.778 12.061 6.788 12.587 6.775C12.582 6.74 12.528 6.586 12.514 6.536C12.492 6.461 12.463 6.354 12.455 6.275C12.471 6.286 12.505 6.341 12.516 6.358C12.574 6.447 12.624 6.514 12.685 6.611C12.707 6.647 12.882 6.928 12.895 6.965C12.822 6.97 12.578 6.969 12.491 6.969C12.094 6.97 11.696 6.976 11.3 6.996C11.175 7.002 11.051 7.016 10.927 7.027C10.803 7.038 10.68 7.049 10.559 7.064C10.027 7.13 9.414 7.242 8.932 7.469C8.884 7.491 8.841 7.514 8.804 7.543C8.765 7.574 8.73 7.605 8.688 7.634C8.354 7.863 7.916 7.973 7.429 8.003C7.302 8.011 7.161 8.008 7.032 8.009C6.887 8.01 6.822 8.027 6.68 8.061C6.461 8.115 6.254 8.175 6.045 8.242C5.633 8.374 5.242 8.52 4.863 8.685C4.768 8.726 4.679 8.77 4.584 8.811C4.491 8.851 4.394 8.893 4.305 8.937C4.214 8.982 4.12 9.02 4.029 9.066C3.939 9.112 3.843 9.154 3.754 9.201C3.708 9.225 3.665 9.245 3.619 9.269C3.488 9.338 3.34 9.404 3.211 9.473C3.122 9.52 3.033 9.561 2.941 9.608C2.895 9.631 2.853 9.652 2.806 9.676L2.666 9.745L2.494 9.483C2.376 9.311 2.264 9.127 2.15 8.957L1.685 8.227C1.444 7.852 1.214 7.459 0.977 7.082C0.922 6.994 0.864 6.903 0.812 6.812C0.713 6.639 0.588 6.451 0.483 6.271C0.456 6.224 0.429 6.185 0.402 6.137C0.325 6 0.233 5.868 0.155 5.73C0.122 5.673 0.071 5.625 0.093 5.585C0.107 5.56 0.179 5.498 0.213 5.486C0.217 5.544 0.183 5.513 0.266 5.627C0.295 5.666 0.322 5.708 0.35 5.75C0.405 5.835 0.456 5.923 0.513 6.001C0.565 6.073 0.621 6.171 0.675 6.252C0.756 6.372 0.836 6.506 0.916 6.627C1.047 6.826 1.188 7.055 1.318 7.259C1.372 7.344 1.425 7.425 1.478 7.512C1.583 7.684 1.694 7.841 1.798 8.015C1.825 8.061 1.852 8.096 1.879 8.141C1.905 8.185 1.935 8.222 1.961 8.266C2.061 8.431 2.18 8.605 2.287 8.767C2.342 8.85 2.396 8.935 2.452 9.016L2.786 9.509L2.785 9.507ZM0.303 5.436L0.936 6.358C0.989 6.434 1.042 6.51 1.094 6.589C1.193 6.738 1.311 6.902 1.412 7.052L1.889 7.749C1.997 7.905 2.098 8.058 2.207 8.212C2.314 8.365 2.418 8.522 2.525 8.675C2.579 8.752 2.629 8.829 2.683 8.905C2.71 8.943 2.734 8.981 2.762 9.02C2.792 9.063 2.788 9.065 2.785 9.146C2.785 9.159 2.785 9.181 2.78 9.191C2.766 9.178 2.487 8.755 2.468 8.726L0.322 5.506C0.304 5.479 0.292 5.475 0.304 5.434L0.303 5.436ZM0.316 5.361L0.63 5.811C0.734 5.962 0.839 6.114 0.945 6.265C1.156 6.567 1.362 6.868 1.573 7.17C1.834 7.544 2.1 7.923 2.357 8.299C2.409 8.375 2.461 8.451 2.515 8.526L2.75 8.865C2.76 8.88 2.785 8.909 2.788 8.925C2.794 8.956 2.783 8.991 2.79 9.019C2.773 9.007 2.654 8.827 2.631 8.794C2.578 8.717 2.526 8.643 2.475 8.566C2.383 8.425 2.26 8.253 2.163 8.11C2.064 7.964 1.945 7.799 1.85 7.654C1.748 7.499 1.639 7.353 1.538 7.198C1.44 7.049 1.327 6.892 1.226 6.742L0.367 5.49C0.31 5.407 0.304 5.418 0.318 5.362L0.316 5.361ZM0.338 5.265L0.349 5.276C0.354 5.282 0.355 5.285 0.359 5.291C0.365 5.3 0.372 5.31 0.378 5.319C0.391 5.339 0.403 5.354 0.416 5.374L0.958 6.162C1.167 6.46 1.367 6.762 1.575 7.06C1.784 7.36 1.983 7.659 2.193 7.958C2.297 8.106 2.396 8.257 2.501 8.406C2.589 8.532 2.684 8.678 2.771 8.799C2.798 8.836 2.781 8.835 2.788 8.88C2.774 8.871 2.185 8.017 2.161 7.982C2.059 7.832 1.956 7.684 1.85 7.533C1.641 7.236 1.434 6.931 1.226 6.633C1.12 6.482 1.016 6.332 0.913 6.182C0.733 5.92 0.546 5.659 0.368 5.397C0.356 5.379 0.339 5.359 0.328 5.34C0.319 5.325 0.329 5.285 0.338 5.265ZM0.363 5.169C0.386 5.19 1.229 6.432 1.282 6.509L1.894 7.404C2.101 7.7 2.302 8.005 2.508 8.302L2.776 8.693C2.796 8.722 2.784 8.743 2.789 8.782C2.768 8.764 2.178 7.898 2.167 7.883C2.063 7.734 1.963 7.585 1.859 7.435C1.653 7.136 1.449 6.833 1.241 6.537C0.982 6.168 0.726 5.781 0.467 5.411C0.441 5.374 0.416 5.337 0.39 5.298C0.337 5.222 0.339 5.246 0.363 5.169ZM0.401 5.073C0.416 5.083 1.2 6.262 1.302 6.413C1.403 6.563 1.501 6.71 1.602 6.86C1.802 7.159 2 7.455 2.202 7.755L2.765 8.594C2.783 8.621 2.791 8.626 2.787 8.669C2.771 8.654 2.654 8.478 2.633 8.447C2.486 8.225 2.324 7.999 2.173 7.775C2.122 7.7 2.071 7.628 2.02 7.552C1.971 7.478 1.919 7.402 1.867 7.329C1.763 7.179 1.663 7.031 1.56 6.88C1.356 6.581 1.151 6.285 0.948 5.985C0.846 5.835 0.744 5.685 0.641 5.536C0.629 5.519 0.377 5.154 0.375 5.143C0.373 5.129 0.392 5.086 0.401 5.073ZM0.456 4.974C0.477 4.996 2.514 8.073 2.758 8.444C2.768 8.459 2.791 8.487 2.793 8.501C2.798 8.531 2.786 8.563 2.792 8.592C2.771 8.577 1.939 7.326 1.881 7.239C1.78 7.089 1.678 6.939 1.578 6.787C1.478 6.636 1.378 6.487 1.277 6.337L0.443 5.093C0.43 5.073 0.409 5.055 0.418 5.034C0.425 5.018 0.445 4.985 0.456 4.974ZM0.471 4.953C0.482 4.937 0.493 4.927 0.511 4.922C0.544 4.954 1.116 5.826 1.16 5.892L1.37 6.222C1.405 6.277 1.436 6.332 1.471 6.387C1.506 6.442 1.54 6.499 1.575 6.553C1.748 6.822 1.917 7.115 2.092 7.387C2.109 7.414 2.127 7.443 2.144 7.47C2.156 7.489 2.189 7.537 2.195 7.555C2.161 7.494 2.031 7.31 1.979 7.229C1.944 7.174 1.908 7.122 1.871 7.067L0.686 5.28C0.642 5.213 0.501 5.007 0.471 4.953ZM0.582 4.877C0.606 4.852 1.184 4.477 1.246 4.435C1.319 4.385 1.397 4.34 1.475 4.292C1.552 4.244 1.624 4.201 1.704 4.154C1.745 4.13 1.785 4.111 1.824 4.088C2.003 3.982 2.257 3.868 2.453 3.789C3.05 3.548 3.668 3.483 4.267 3.777C4.426 3.855 4.605 3.984 4.704 4.083C4.721 4.1 4.731 4.112 4.748 4.128L4.843 4.219C4.867 4.245 4.9 4.265 4.937 4.311L5.119 4.497C5.135 4.514 5.146 4.525 5.165 4.544L5.385 4.788C5.393 4.798 5.398 4.804 5.407 4.812L6.503 6.072C6.519 6.09 6.533 6.1 6.548 6.119C6.562 6.137 6.573 6.154 6.589 6.171C6.661 6.243 6.739 6.346 6.808 6.416C6.854 6.463 6.896 6.519 6.936 6.563L7.071 6.707C7.121 6.762 7.198 6.848 7.251 6.899L7.341 6.995C7.402 7.057 7.459 7.121 7.524 7.181C7.499 7.177 7.418 7.141 7.384 7.129C7.242 7.078 7.059 7.04 6.908 7.018C6.258 6.926 5.534 7.144 4.961 7.376C4.593 7.525 4.245 7.704 3.899 7.88L3.119 8.274C3.074 8.296 2.881 8.393 2.849 8.399C2.837 8.371 2.798 8.322 2.779 8.293L2.561 7.966C2.513 7.893 2.466 7.828 2.417 7.751C2.209 7.424 1.991 7.079 1.79 6.749C1.768 6.712 1.743 6.676 1.72 6.638L1.303 5.969C1.255 5.896 1.211 5.817 1.163 5.746C1.14 5.712 1.116 5.675 1.093 5.639C1.025 5.532 0.933 5.404 0.877 5.31C0.792 5.169 0.656 5.009 0.584 4.877H0.582ZM4.733 3.999C4.749 3.947 4.898 3.763 4.956 3.707C5.043 3.623 5.045 3.621 5.142 3.547C5.174 3.522 5.207 3.5 5.244 3.476C5.541 3.288 5.964 3.197 6.322 3.174C6.431 3.167 6.556 3.172 6.666 3.172C6.894 3.171 7.122 3.17 7.35 3.169C7.706 3.167 7.991 3.174 8.342 3.12C8.529 3.091 8.47 3.063 8.6 3.151C8.702 3.22 8.803 3.296 8.906 3.365C9.07 3.474 9.25 3.608 9.416 3.717C9.485 3.762 9.553 3.811 9.621 3.858C9.69 3.905 9.756 3.95 9.826 4C9.893 4.047 9.963 4.092 10.029 4.139C10.096 4.186 10.165 4.236 10.234 4.28C10.373 4.372 10.505 4.472 10.644 4.563L11.252 4.989C11.318 5.038 11.388 5.082 11.455 5.132L11.657 5.276C11.825 5.391 11.997 5.527 12.16 5.638C12.186 5.655 12.244 5.694 12.257 5.715C12.223 5.737 11.079 5.882 10.929 5.903C10.101 6.017 8.94 6.19 8.25 6.639C8.209 6.666 8.175 6.69 8.139 6.718C8.046 6.79 7.916 6.92 7.862 7.011C7.788 7.137 7.789 7.131 7.741 7.27C7.703 7.254 7.611 7.143 7.564 7.106C7.553 7.098 7.546 7.093 7.536 7.083C7.502 7.045 7.47 7.022 7.438 6.987L7.344 6.883C7.327 6.865 7.314 6.85 7.298 6.832L7.155 6.68C7.121 6.643 7.039 6.565 7.012 6.532C6.997 6.514 6.982 6.493 6.967 6.476L6.828 6.324C6.813 6.306 6.797 6.287 6.781 6.269L6.577 6.034C6.568 6.024 6.563 6.016 6.554 6.007C6.499 5.951 6.465 5.907 6.417 5.849C6.401 5.83 6.388 5.815 6.372 5.797L5.644 4.958C5.627 4.94 5.614 4.924 5.599 4.906C5.567 4.867 5.508 4.812 5.483 4.777L5.415 4.698C5.377 4.662 5.352 4.637 5.318 4.597C5.3 4.576 5.293 4.563 5.274 4.544L5.08 4.345C5.061 4.322 5.053 4.313 5.033 4.295L4.834 4.102C4.817 4.086 4.803 4.069 4.786 4.053C4.771 4.039 4.746 4.018 4.736 4.003L4.733 3.999ZM0 5.589V5.624C0.027 5.66 0.053 5.712 0.08 5.756L0.279 6.089C0.293 6.113 0.305 6.135 0.32 6.158C0.399 6.277 0.479 6.432 0.562 6.557C0.604 6.62 0.68 6.753 0.722 6.823C0.748 6.866 0.776 6.915 0.803 6.957L0.865 7.055C0.872 7.066 0.879 7.078 0.886 7.089C0.9 7.112 0.913 7.135 0.926 7.155C0.981 7.238 1.033 7.332 1.089 7.418C1.154 7.516 1.23 7.65 1.295 7.752C1.376 7.878 1.459 8.021 1.54 8.149C1.569 8.194 1.597 8.241 1.622 8.282L1.912 8.74C1.919 8.752 1.926 8.762 1.934 8.773L2.079 9C2.093 9.022 2.108 9.046 2.122 9.067C2.194 9.174 2.279 9.319 2.353 9.423L2.547 9.715C2.555 9.726 2.56 9.735 2.567 9.745L2.635 9.843H2.647L3.885 9.224C4.013 9.164 4.184 9.076 4.304 9.023L4.73 8.828C4.756 8.817 4.776 8.808 4.8 8.797C4.827 8.785 4.848 8.777 4.874 8.765C4.972 8.722 5.065 8.686 5.163 8.644C5.299 8.587 5.468 8.524 5.61 8.47C5.836 8.383 6.155 8.28 6.39 8.216C6.498 8.187 6.607 8.158 6.719 8.131C7.081 8.044 6.964 8.102 7.277 8.085C7.637 8.065 7.992 8.034 8.331 7.902C8.461 7.852 8.63 7.771 8.739 7.689L8.855 7.598C8.877 7.584 8.899 7.572 8.92 7.561C9.239 7.397 9.594 7.312 9.945 7.239C10.316 7.163 10.664 7.127 11.04 7.092C11.167 7.08 11.303 7.077 11.426 7.065C11.599 7.048 12.06 7.041 12.231 7.041C12.359 7.041 12.509 7.032 12.633 7.037L13.033 7.041V7.029C13.016 7.009 12.772 6.595 12.732 6.532C12.715 6.506 12.696 6.478 12.68 6.453C12.638 6.387 12.511 6.199 12.462 6.139C12.428 6.097 12.431 6.105 12.425 6.041C12.418 5.958 12.416 5.875 12.408 5.792C12.403 5.741 12.413 5.718 12.376 5.694L11.215 4.858C11.187 4.836 11.166 4.824 11.134 4.803C11.104 4.783 11.083 4.766 11.055 4.747L10.584 4.42C10.525 4.379 10.489 4.357 10.427 4.311C10.402 4.292 10.374 4.277 10.349 4.258L10.27 4.202C10.217 4.169 10.164 4.127 10.112 4.094L9.718 3.821C9.646 3.769 9.562 3.718 9.48 3.658C9.365 3.574 9.2 3.473 9.087 3.389C9.011 3.332 8.924 3.278 8.851 3.223C8.81 3.192 8.552 3.022 8.538 3H8.516C8.466 3.028 8.08 3.068 7.988 3.073C7.942 3.075 7.889 3.075 7.844 3.079C7.798 3.083 7.745 3.078 7.7 3.082C7.624 3.089 7.481 3.085 7.406 3.08C7.314 3.074 7.201 3.08 7.106 3.08C6.81 3.08 6.518 3.076 6.228 3.1C5.855 3.13 5.421 3.24 5.143 3.444L4.937 3.61C4.911 3.636 4.887 3.66 4.861 3.686C4.846 3.701 4.841 3.712 4.827 3.728L4.761 3.81C4.718 3.864 4.693 3.909 4.67 3.939L4.536 3.845C4.513 3.83 4.491 3.814 4.468 3.799C4.445 3.784 4.426 3.771 4.401 3.756C4.039 3.545 3.62 3.466 3.204 3.511C2.925 3.541 2.66 3.622 2.401 3.722C2.346 3.743 2.296 3.767 2.243 3.789L1.939 3.932C1.764 4.027 1.571 4.135 1.403 4.24L1.095 4.439C1.048 4.469 1.004 4.495 0.96 4.527C0.939 4.543 0.912 4.558 0.891 4.571C0.868 4.585 0.846 4.6 0.825 4.615C0.802 4.632 0.783 4.642 0.756 4.66C0.733 4.676 0.712 4.689 0.688 4.706C0.677 4.714 0.663 4.722 0.652 4.729C0.64 4.737 0.632 4.744 0.62 4.752L0.484 4.84C0.439 4.865 0.399 4.907 0.372 4.951C0.31 5.051 0.274 5.162 0.25 5.28C0.246 5.3 0.239 5.357 0.231 5.371C0.222 5.388 0.143 5.413 0.095 5.459C-0.01 5.559 0.036 5.533 0.001 5.586L0 5.589Z" fill="#39BBD1"/>
<path fill-rule="evenodd" clip-rule="evenodd" d="M2.45223 9.01535C2.39723 8.93435 2.34323 8.84935 2.28723 8.76635C2.17923 8.60335 2.06123 8.42935 1.96123 8.26535C1.93423 8.22135 1.90523 8.18435 1.87923 8.14035C1.85223 8.09535 1.82523 8.06035 1.79823 8.01435C1.69423 7.84035 1.58323 7.68335 1.47823 7.51135C1.42423 7.42435 1.37223 7.34335 1.31823 7.25835C1.18823 7.05435 1.04723 6.82435 0.916229 6.62635C0.836229 6.50435 0.756229 6.37135 0.675229 6.25135C0.621229 6.17035 0.565229 6.07235 0.513229 6.00035C0.457229 5.92235 0.405229 5.83435 0.350229 5.74935C0.323229 5.70735 0.295229 5.66535 0.266229 5.62635C0.183229 5.51235 0.217229 5.54335 0.213229 5.48535C0.179229 5.49735 0.107229 5.55935 0.0932291 5.58435C0.0712291 5.62435 0.122229 5.67235 0.155229 5.72935C0.233229 5.86735 0.325229 5.99935 0.402229 6.13635C0.429229 6.18435 0.455229 6.22435 0.483229 6.27035C0.588229 6.45035 0.712229 6.63835 0.812229 6.81135C0.864229 6.90235 0.921229 6.99335 0.977229 7.08135C1.21423 7.45835 1.44423 7.85135 1.68523 8.22635L2.15023 8.95635C2.26423 9.12635 2.37623 9.30935 2.49423 9.48235L2.66623 9.74435L2.80623 9.67535C2.85323 9.65235 2.89523 9.63135 2.94123 9.60735C3.03323 9.56035 3.12223 9.51935 3.21123 9.47235C3.34023 9.40435 3.48823 9.33735 3.61923 9.26835C3.66523 9.24435 3.70823 9.22435 3.75423 9.20035C3.84323 9.15335 3.93923 9.11135 4.02923 9.06535C4.12023 9.01935 4.21423 8.98135 4.30523 8.93635C4.39423 8.89135 4.49123 8.85035 4.58423 8.81035C4.67923 8.76935 4.76923 8.72535 4.86323 8.68435C5.24223 8.51935 5.63323 8.37335 6.04523 8.24135C6.25423 8.17435 6.46023 8.11435 6.68023 8.06035C6.82223 8.02535 6.88823 8.00835 7.03223 8.00835C7.16123 8.00735 7.30323 8.01035 7.42923 8.00235C7.91623 7.97235 8.35323 7.86235 8.68823 7.63335C8.73023 7.60435 8.76523 7.57335 8.80423 7.54235C8.84223 7.51235 8.88523 7.49035 8.93223 7.46835C9.41523 7.24135 10.0272 7.12935 10.5592 7.06335C10.6802 7.04835 10.8032 7.03735 10.9272 7.02635C11.0512 7.01535 11.1752 7.00135 11.3002 6.99535C11.6962 6.97435 12.0942 6.96935 12.4912 6.96835C12.5782 6.96835 12.8222 6.96935 12.8952 6.96435C12.8822 6.92835 12.7082 6.64635 12.6852 6.61035C12.6242 6.51235 12.5742 6.44635 12.5162 6.35735C12.5052 6.34035 12.4712 6.28535 12.4552 6.27435C12.4632 6.35335 12.4922 6.46035 12.5142 6.53535C12.5292 6.58535 12.5832 6.73835 12.5872 6.77435C12.0612 6.78835 11.5342 6.77735 11.0082 6.77735C10.9412 6.77735 10.8822 6.78335 10.8182 6.78735C10.7552 6.79135 10.6912 6.79135 10.6282 6.79535C10.5052 6.80435 10.3882 6.81335 10.2672 6.82835C10.0372 6.85735 9.81423 6.89535 9.59823 6.94735C9.23323 7.03435 8.78523 7.21135 8.47223 7.40535C8.38623 7.45835 8.43023 7.44835 8.34323 7.41635C8.29223 7.39835 8.23423 7.39035 8.17423 7.38735C7.86223 7.37235 7.46323 7.44635 7.25923 7.65235C7.14223 7.77035 7.24523 7.74535 7.07323 7.76635C6.76123 7.80435 6.30823 7.90835 6.02323 7.99935C5.81923 8.06435 5.62723 8.12635 5.43623 8.20235C5.25923 8.27335 5.05423 8.35935 4.88323 8.43835C4.70023 8.52335 4.52423 8.60635 4.34923 8.69735C4.17823 8.78635 3.99523 8.87035 3.82923 8.96735C3.74523 9.01635 3.65323 9.05735 3.56923 9.10435C3.52823 9.12735 3.48323 9.15135 3.44023 9.17335C3.39723 9.19535 3.35523 9.21935 3.31323 9.24035L3.05223 9.37635C3.00523 9.40135 2.82523 9.49835 2.78523 9.50635L2.45123 9.01335L2.45223 9.01535Z" fill="#FEFEFE"/>
<path fill-rule="evenodd" clip-rule="evenodd" d="M3.39105 8.29362C3.90905 8.01162 4.47505 7.74562 5.03605 7.53662C5.76705 7.26462 6.76305 7.01462 7.53705 7.33162C7.59805 7.35662 7.62505 7.38562 7.68105 7.35262L7.66705 7.34062C7.64105 7.32262 7.57505 7.29262 7.54905 7.28162C6.90405 7.00862 6.33705 7.03162 5.66305 7.21762C5.35305 7.30362 5.06305 7.41662 4.77405 7.54462L4.49505 7.67162C4.31605 7.75062 4.00305 7.91162 3.81805 8.00762L3.41605 8.21462C3.32305 8.26062 3.23905 8.30662 3.14605 8.34962C3.10005 8.37062 3.05605 8.39262 3.00905 8.41562C2.96605 8.43762 2.91105 8.45762 2.87305 8.48162V8.58162L3.38905 8.29462L3.39105 8.29362Z" fill="#FEFEFE"/>
<path fill-rule="evenodd" clip-rule="evenodd" d="M7.81006 7.32721C7.83406 7.32621 7.84406 7.30021 7.85806 7.28521C8.07906 7.03021 8.32806 6.83221 8.63806 6.66721C9.51606 6.19721 10.6191 6.00521 11.6251 5.93021C11.8611 5.91221 12.0941 5.90321 12.3321 5.89021L12.3311 5.78921C12.3001 5.78621 12.0571 5.82921 12.0051 5.83721C11.6811 5.88521 11.3271 5.92821 11.0001 5.97321C10.2251 6.07821 9.24406 6.23021 8.55506 6.55921C8.43606 6.61621 8.30306 6.69321 8.20306 6.77321L8.00606 6.95621C7.94806 7.02621 7.89406 7.09821 7.85706 7.18721C7.84506 7.21521 7.81106 7.30021 7.81206 7.32921L7.81006 7.32721Z" fill="#FEFEFE"/>
<path fill-rule="evenodd" clip-rule="evenodd" d="M2.87207 8.68221C2.90807 8.66721 2.96207 8.63121 2.99907 8.61121C3.62907 8.25421 4.29907 7.90621 4.98307 7.65221C5.37007 7.50821 5.77307 7.38321 6.21507 7.31421C6.62407 7.25021 7.12407 7.24521 7.52307 7.38621C7.55207 7.39621 7.55207 7.39621 7.58707 7.38221L7.59207 7.38021C7.54207 7.34621 7.37507 7.29321 7.30207 7.27421C6.10307 6.96521 4.43907 7.75921 3.37507 8.32821C3.33907 8.34721 2.89607 8.59021 2.87307 8.61221V8.68321L2.87207 8.68221Z" fill="#FEFEFE"/>
<path fill-rule="evenodd" clip-rule="evenodd" d="M0.457241 4.97461C0.446241 4.98561 0.425241 5.01861 0.419241 5.03461C0.410241 5.05661 0.430241 5.07361 0.444241 5.09361L1.27824 6.33761C1.37924 6.48761 1.47924 6.63661 1.57924 6.78761C1.68024 6.93961 1.78224 7.09061 1.88224 7.23961C1.94024 7.32561 2.77224 8.57761 2.79324 8.59261C2.78724 8.56361 2.79924 8.53161 2.79424 8.50161C2.79224 8.48761 2.76824 8.45861 2.75924 8.44461C2.51524 8.07361 0.478241 4.99561 0.457241 4.97461Z" fill="#FEFEFE"/>
<path fill-rule="evenodd" clip-rule="evenodd" d="M7.85498 7.32316C7.90498 7.32416 7.90298 7.30916 7.96498 7.24816C7.98398 7.23016 7.99298 7.21916 8.01198 7.20216C8.02798 7.18816 8.04198 7.17416 8.05898 7.16016C8.09298 7.13216 8.12098 7.10616 8.15698 7.07716C9.12998 6.28416 10.75 6.06416 11.992 5.99016C12.039 5.98716 12.319 5.97916 12.337 5.97216C12.339 5.94816 12.338 5.93316 12.333 5.91016C11.464 5.93916 10.524 6.03616 9.73598 6.25816C9.38098 6.35816 8.98998 6.49316 8.67498 6.67016C8.34298 6.85616 8.13398 7.00716 7.89498 7.27516C7.88198 7.28916 7.86698 7.30516 7.85498 7.32316Z" fill="#FEFEFE"/>
<path fill-rule="evenodd" clip-rule="evenodd" d="M2.87014 8.76373C2.91014 8.74373 2.95314 8.71673 2.99314 8.69373C3.27214 8.53273 3.58214 8.36773 3.87014 8.22473C4.56314 7.88073 5.35514 7.54873 6.13414 7.40573C6.47414 7.34373 6.84814 7.31573 7.19814 7.36173C7.25514 7.36973 7.30814 7.37773 7.36514 7.38973C7.41214 7.39973 7.47614 7.42273 7.50314 7.41073L7.51514 7.40373C7.29514 7.33673 7.10414 7.29973 6.85314 7.29073C5.73014 7.25173 4.32814 7.90273 3.36314 8.43073C3.32414 8.45173 2.89614 8.68673 2.86914 8.70973L2.87014 8.76373Z" fill="#FEFEFE"/>
<path fill-rule="evenodd" clip-rule="evenodd" d="M8.27002 7.32137C8.30502 7.32937 8.31602 7.30537 8.36502 7.26437C8.56202 7.10037 8.83502 6.97637 9.08102 6.89537C10.031 6.58437 11.425 6.53137 12.427 6.52537C12.425 6.50037 12.411 6.45937 12.411 6.45937C12.411 6.45737 12.41 6.45737 12.409 6.45637C12.295 6.45337 11.944 6.47237 11.805 6.47837C10.986 6.51037 9.78302 6.56337 9.04802 6.84637C8.76102 6.95637 8.57902 7.06337 8.35302 7.24437L8.27002 7.32137Z" fill="#FEFEFE"/>
<path fill-rule="evenodd" clip-rule="evenodd" d="M2.85207 9.39087C2.93307 9.35587 3.01707 9.29887 3.09307 9.25387C3.32607 9.11587 3.58107 8.96587 3.81607 8.83687C4.58507 8.41687 5.62207 7.86787 6.46907 7.69787C6.64707 7.66187 6.97307 7.61687 7.15107 7.66487C7.15307 7.65187 7.14107 7.66487 7.15807 7.65187C7.15007 7.64187 7.16607 7.64787 7.14107 7.63987L7.08207 7.62787C6.99507 7.61087 6.90507 7.60687 6.81607 7.60887C6.69807 7.61087 6.58407 7.62587 6.47107 7.64687C5.62807 7.79987 4.55107 8.36987 3.81107 8.77787C3.57107 8.90987 3.32507 9.05687 3.09007 9.19687C3.04907 9.22087 3.01207 9.24287 2.97107 9.26787C2.93607 9.28887 2.89007 9.32087 2.85407 9.33787L2.85107 9.39087H2.85207Z" fill="#FEFEFE"/>
<path fill-rule="evenodd" clip-rule="evenodd" d="M1.88885 7.74855L1.41185 7.05155C1.31085 6.90155 1.19285 6.73755 1.09385 6.58855C1.04185 6.50955 0.988855 6.43355 0.935855 6.35755L0.302855 5.43555C0.290855 5.47655 0.301855 5.47955 0.320855 5.50755L2.46685 8.72755C2.48585 8.75655 2.76385 9.17955 2.77885 9.19255C2.78385 9.18155 2.78285 9.16055 2.78385 9.14755C2.78685 9.06755 2.79085 9.06555 2.76085 9.02155C2.73385 8.98155 2.70885 8.94455 2.68185 8.90655C2.62785 8.82955 2.57785 8.75355 2.52385 8.67655C2.41685 8.52255 2.31385 8.36655 2.20585 8.21355C2.09785 8.05855 1.99685 7.90555 1.88785 7.75055L1.88885 7.74855Z" fill="#FEFEFE"/>
<path fill-rule="evenodd" clip-rule="evenodd" d="M2.85596 9.31203C2.87496 9.30803 3.06496 9.18903 3.09696 9.17003C3.46996 8.94303 3.92396 8.68603 4.30996 8.48303C4.94496 8.15103 5.78296 7.74803 6.48896 7.62303C6.68496 7.58803 6.99796 7.56403 7.17596 7.63303C7.18396 7.61703 7.18996 7.62403 7.19696 7.60303C7.04696 7.57803 7.03496 7.56403 6.86096 7.55503C6.53596 7.53803 6.18296 7.61803 5.88596 7.71603C5.51096 7.84003 5.14896 8.00403 4.81796 8.17203C4.47796 8.34503 4.14896 8.51903 3.82496 8.70303C3.77696 8.73103 2.90796 9.22103 2.85896 9.25703L2.85696 9.31303L2.85596 9.31203Z" fill="#FEFEFE"/>
<path fill-rule="evenodd" clip-rule="evenodd" d="M2.85793 9.22791C2.89293 9.21491 2.94893 9.17691 2.98293 9.15691C3.35093 8.94791 3.70593 8.73691 4.08193 8.53391C4.16593 8.48791 4.24793 8.44391 4.33093 8.39891C4.49593 8.30891 4.66493 8.22291 4.83393 8.13791C5.42393 7.84491 6.21093 7.48691 6.90693 7.53491C7.00593 7.54191 7.09893 7.55691 7.19393 7.58091C7.20293 7.58291 7.20593 7.58491 7.21393 7.58391L7.22693 7.57891C7.21993 7.56791 7.22793 7.57691 7.21993 7.57191L7.18993 7.56391C7.17593 7.56091 7.16493 7.55791 7.15193 7.55591C7.06893 7.53891 6.98693 7.52791 6.90193 7.52291C6.56093 7.50091 6.22693 7.56491 5.90893 7.65691C5.00893 7.91791 3.92793 8.53691 3.09593 9.00691L2.85693 9.14391V9.22991L2.85793 9.22791Z" fill="#FEFEFE"/>
<path fill-rule="evenodd" clip-rule="evenodd" d="M7.92676 7.3139C7.94776 7.3149 7.94976 7.3149 7.96176 7.3039L8.03276 7.2399C8.96176 6.4299 10.4678 6.1749 11.6728 6.0789C11.7828 6.0699 11.8938 6.0629 12.0038 6.0569C12.0538 6.0539 12.3208 6.0469 12.3428 6.0379C12.3438 6.0089 12.3388 6.0059 12.3388 5.9979C12.3388 5.9959 12.3378 5.9959 12.3378 5.9939C12.2838 5.9909 12.2148 5.9979 12.1608 5.9999C11.4058 6.0339 10.5108 6.1319 9.80176 6.3259C9.23476 6.4809 8.76976 6.6639 8.31076 6.9839C8.19476 7.0649 8.01976 7.2109 7.92776 7.3119L7.92676 7.3139Z" fill="#FEFEFE"/>
<path fill-rule="evenodd" clip-rule="evenodd" d="M1.24181 6.53792C1.44981 6.83392 1.65381 7.13692 1.85981 7.43592C1.96381 7.58592 2.06281 7.73492 2.16781 7.88392C2.17881 7.89892 2.76781 8.76492 2.78981 8.78292C2.78481 8.74392 2.79681 8.72292 2.77681 8.69392L2.50881 8.30292C2.30281 8.00692 2.10181 7.70192 1.89481 7.40492L1.28281 6.50992C1.22981 6.43392 0.386811 5.19092 0.363811 5.16992C0.339811 5.24692 0.337811 5.22392 0.390811 5.29892C0.417811 5.33692 0.441811 5.37392 0.467811 5.41192C0.727811 5.78192 0.982811 6.16892 1.24181 6.53792Z" fill="#FEFEFE"/>
<path fill-rule="evenodd" clip-rule="evenodd" d="M2.77422 9.34286C2.77522 9.31286 2.78022 9.27886 2.78022 9.24886C2.78022 9.22086 2.68622 9.09286 2.66722 9.06586L1.24322 6.92986C1.13622 6.76986 1.03322 6.61386 0.926224 6.45386C0.916224 6.43786 0.307224 5.51786 0.292224 5.50586C0.284224 5.52586 0.345224 5.60486 0.359224 5.62386C0.387224 5.66286 0.410224 5.70286 0.437224 5.74386L0.904224 6.46286C1.02722 6.66086 1.16822 6.86886 1.28822 7.06686L1.44222 7.30986C1.46822 7.34886 1.49322 7.38886 1.51922 7.43086C1.62022 7.59586 1.72522 7.74886 1.82722 7.91286C2.07622 8.31586 2.35022 8.71286 2.61322 9.10786C2.64022 9.14886 2.66522 9.18786 2.69222 9.22686C2.70722 9.24786 2.75922 9.33286 2.77322 9.34386L2.77422 9.34286Z" fill="#FEFEFE"/>
<path fill-rule="evenodd" clip-rule="evenodd" d="M2.51397 8.52633C2.45997 8.45133 2.40797 8.37533 2.35597 8.29933C2.09897 7.92333 1.83297 7.54433 1.57197 7.17033C1.36097 6.86833 1.15497 6.56733 0.943973 6.26533C0.838973 6.11433 0.733973 5.96333 0.628973 5.81133L0.314973 5.36133C0.300973 5.41733 0.306973 5.40633 0.363973 5.48933L1.22297 6.74133C1.32397 6.89133 1.43797 7.04833 1.53497 7.19733C1.63597 7.35233 1.74597 7.49833 1.84697 7.65333C1.94197 7.79833 2.06097 7.96333 2.15997 8.10933C2.25697 8.25333 2.37997 8.42433 2.47197 8.56533C2.52297 8.64333 2.57497 8.71633 2.62797 8.79333C2.65097 8.82633 2.76997 9.00633 2.78697 9.01833C2.77997 8.98933 2.79097 8.95433 2.78497 8.92433C2.78197 8.90833 2.75797 8.87933 2.74697 8.86433L2.51197 8.52533L2.51397 8.52633Z" fill="#FEFEFE"/>
<path fill-rule="evenodd" clip-rule="evenodd" d="M4.84387 8.37106C4.91787 8.33406 4.99387 8.30306 5.07087 8.26906C5.69487 7.98906 6.43387 7.77206 7.11487 7.68206C7.08387 7.66506 6.97587 7.66706 6.93287 7.66706C6.44687 7.66606 5.84887 7.88306 5.40987 8.06706C4.91587 8.27506 4.59187 8.44806 4.12787 8.68906C3.98687 8.76206 3.85287 8.84106 3.71687 8.91606C3.64687 8.95406 3.58287 8.99206 3.51487 9.03106L3.31787 9.14606L4.84387 8.37206V8.37106Z" fill="#FEFEFE"/>
<path fill-rule="evenodd" clip-rule="evenodd" d="M2.86919 8.85544C2.94919 8.81044 3.03019 8.76344 3.11219 8.71644C3.19319 8.67144 3.27619 8.62544 3.35919 8.57944C3.81619 8.32444 4.44619 8.01844 4.91219 7.83144C5.61219 7.55144 6.59519 7.24744 7.37819 7.44044C7.43819 7.45544 7.41719 7.43844 7.45019 7.43444C7.42419 7.41244 7.18119 7.38044 7.12719 7.37444C6.77419 7.33744 6.41919 7.37244 6.07619 7.43744C5.65819 7.51744 5.27919 7.64644 4.90519 7.78644C4.36119 7.98944 3.86419 8.24844 3.35519 8.51644L2.86719 8.78844L2.86819 8.85444L2.86919 8.85544Z" fill="#FEFEFE"/>
<path fill-rule="evenodd" clip-rule="evenodd" d="M2.02112 7.5542C2.07112 7.6302 2.12312 7.7022 2.17412 7.7772C2.32512 8.0012 2.48612 8.2272 2.63412 8.4492C2.65512 8.4802 2.77212 8.6562 2.78812 8.6712C2.79212 8.6282 2.78412 8.6232 2.76612 8.5962L2.20312 7.7572C2.00112 7.4582 1.80312 7.1612 1.60312 6.8622C1.50212 6.7122 1.40412 6.5652 1.30312 6.4152C1.20112 6.2642 0.417123 5.0852 0.402123 5.0752C0.393123 5.0882 0.374123 5.1312 0.376123 5.1452C0.378123 5.1562 0.631123 5.5222 0.642123 5.5382C0.746123 5.6862 0.847123 5.8362 0.949123 5.9872C1.15212 6.2872 1.35712 6.5832 1.56112 6.8822C1.66412 7.0332 1.76412 7.1812 1.86812 7.3312C1.91912 7.4052 1.97212 7.4802 2.02112 7.5542Z" fill="#FEFEFE"/>
<path fill-rule="evenodd" clip-rule="evenodd" d="M2.1939 7.95863C1.9839 7.65963 1.7849 7.36063 1.5759 7.06063C1.3679 6.76263 1.1669 6.46063 0.958899 6.16263L0.416899 5.37463C0.403899 5.35463 0.391899 5.33963 0.378899 5.31963C0.372899 5.31063 0.366899 5.30163 0.359899 5.29163C0.355899 5.28563 0.354899 5.28263 0.349899 5.27663L0.338899 5.26562C0.328899 5.28463 0.319899 5.32463 0.328899 5.34063C0.339899 5.35963 0.356899 5.37963 0.368899 5.39763C0.546899 5.65863 0.733899 5.92063 0.913899 6.18263C1.0169 6.33263 1.1209 6.48263 1.2269 6.63363C1.4359 6.93163 1.6419 7.23663 1.8509 7.53363C1.9569 7.68363 2.0599 7.83263 2.1619 7.98263C2.1859 8.01763 2.7749 8.87163 2.7889 8.88063C2.7819 8.83563 2.7989 8.83663 2.7719 8.79963C2.6849 8.67863 2.5899 8.53263 2.5019 8.40663C2.3969 8.25763 2.2979 8.10663 2.1939 7.95863Z" fill="#FEFEFE"/>
<path fill-rule="evenodd" clip-rule="evenodd" d="M2.86499 8.94205C2.87899 8.92805 2.96199 8.88505 2.98699 8.87005C3.39999 8.63105 3.93799 8.34105 4.36199 8.14305C5.18799 7.75705 6.37599 7.25705 7.32199 7.48305C7.34699 7.48905 7.36699 7.48205 7.38299 7.46305C7.19499 7.40605 6.88499 7.39405 6.67699 7.40505C5.88699 7.44805 5.02499 7.78105 4.32399 8.10905C4.15199 8.19005 3.97599 8.27405 3.81099 8.36105C3.50599 8.52105 3.24099 8.66605 2.94499 8.83405C2.85599 8.88505 2.85999 8.86805 2.86299 8.94205H2.86499Z" fill="#FEFEFE"/>
<path fill-rule="evenodd" clip-rule="evenodd" d="M8.36816 7.34742C8.39116 7.34742 8.40516 7.35642 8.42716 7.34442L8.56816 7.26242C8.63416 7.22542 8.69916 7.19242 8.76716 7.16142C8.83616 7.12942 8.90216 7.09842 8.97516 7.06942C9.38316 6.90842 9.70016 6.83042 10.1632 6.76742C10.5112 6.72042 10.9392 6.69742 11.2912 6.69842C11.6852 6.70042 12.0862 6.70942 12.4792 6.70142C12.4812 6.68042 12.4612 6.62442 12.4552 6.60742C12.0612 6.61942 11.6732 6.62342 11.2812 6.64642C10.9072 6.66842 10.5452 6.70142 10.1802 6.74942C9.64616 6.81842 9.01316 6.95442 8.54716 7.22442C8.52316 7.23842 8.38316 7.32142 8.36816 7.34842V7.34742Z" fill="#FEFEFE"/>
<path fill-rule="evenodd" clip-rule="evenodd" d="M8.22705 7.31379C8.24505 7.31679 8.24605 7.31279 8.25605 7.30279L8.31905 7.24679C8.34905 7.22079 8.37505 7.19979 8.40505 7.17679C8.86305 6.82179 9.44805 6.67179 10.0331 6.59079C10.8041 6.48479 11.6131 6.46279 12.4051 6.43479C12.4071 6.40979 12.3981 6.38479 12.3921 6.36179C12.3161 6.35779 11.8861 6.38079 11.7771 6.38579C11.2251 6.41279 10.5521 6.45879 10.0241 6.55279C9.66205 6.61779 9.33105 6.69579 9.01505 6.82279C8.86205 6.88479 8.72005 6.95679 8.58905 7.03879C8.48005 7.10679 8.31505 7.22479 8.22805 7.31279L8.22705 7.31379Z" fill="#FEFEFE"/>
<path fill-rule="evenodd" clip-rule="evenodd" d="M8.32178 7.33292C8.35178 7.33892 8.36978 7.31392 8.41878 7.27992C8.89178 6.95392 9.59178 6.80792 10.1538 6.73092C10.8948 6.62892 11.6808 6.59392 12.4458 6.58592L12.4378 6.54492C12.3468 6.55392 12.2258 6.54892 12.1318 6.55092C12.0328 6.55292 11.9338 6.55492 11.8358 6.55792C11.2578 6.57692 10.6978 6.60792 10.1268 6.68692C9.77878 6.73492 9.43678 6.80392 9.12078 6.90492C8.96878 6.95292 8.81678 7.01392 8.68578 7.08192C8.60978 7.12092 8.35178 7.27592 8.32278 7.33292H8.32178Z" fill="#FEFEFE"/>
<path fill-rule="evenodd" clip-rule="evenodd" d="M2.86182 9.02712C2.88482 9.01912 3.30882 8.77412 3.35282 8.75012L3.84482 8.48212C4.17382 8.30412 4.51282 8.14112 4.86482 7.98212C5.48282 7.70312 6.29182 7.41412 7.00182 7.47612C7.07982 7.48312 7.17482 7.49712 7.25082 7.51412C7.32182 7.53012 7.28882 7.51412 7.31782 7.50912C7.31082 7.49912 7.32582 7.50612 7.29982 7.49812L7.24082 7.48612C7.21482 7.48112 7.18882 7.47712 7.16182 7.47312C7.10382 7.46412 7.04882 7.45812 6.98982 7.45412C6.86782 7.44612 6.74382 7.44612 6.62282 7.45512C5.71182 7.51912 4.62182 8.01712 3.83382 8.43112C3.66782 8.51812 3.50582 8.60712 3.34482 8.69412C3.20982 8.76712 2.99182 8.88812 2.86682 8.96612L2.86482 9.02812L2.86182 9.02712Z" fill="#FEFEFE"/>
<path fill-rule="evenodd" clip-rule="evenodd" d="M7.98879 7.31245C8.04379 7.29745 8.03679 7.29045 8.09479 7.23945C8.12379 7.21345 8.15779 7.18645 8.18979 7.16145C8.68179 6.78245 9.25079 6.56445 9.87079 6.41545C10.6108 6.23745 11.5818 6.13745 12.3508 6.12045C12.3508 6.09745 12.3478 6.08645 12.3468 6.06445C12.0028 6.06745 11.3918 6.12045 11.0438 6.16545C10.1098 6.28445 9.16679 6.50245 8.37979 7.00645C8.31379 7.04945 8.01079 7.26745 7.98779 7.31345L7.98879 7.31245Z" fill="#FEFEFE"/>
<path fill-rule="evenodd" clip-rule="evenodd" d="M2.85986 9.11733C2.88986 9.10733 2.95186 9.06533 2.98386 9.04733C3.27186 8.88433 3.54286 8.72933 3.83786 8.56633C3.97286 8.49232 4.20386 8.36533 4.33686 8.30133C4.50786 8.21833 4.67186 8.13033 4.84586 8.05033C5.38586 7.80333 5.96986 7.55433 6.58986 7.50232C6.79386 7.48532 7.00386 7.49832 7.20286 7.54332C7.24786 7.55333 7.24886 7.56133 7.26686 7.53832C6.34286 7.30132 5.09586 7.88533 4.31986 8.26033C4.15086 8.34233 3.98986 8.43132 3.82386 8.51633C3.73486 8.56133 2.86886 9.03433 2.86086 9.05733L2.85986 9.11733Z" fill="#FEFEFE"/>
<path fill-rule="evenodd" clip-rule="evenodd" d="M8.05176 7.30565C8.10076 7.30965 8.08876 7.30365 8.11576 7.28065C8.13076 7.26865 8.14676 7.25465 8.16176 7.24165C8.62976 6.83065 9.30976 6.59265 9.91776 6.45565C10.2968 6.37065 10.6918 6.31565 11.0908 6.27365C11.2978 6.25165 11.5088 6.23465 11.7168 6.22165C11.7918 6.21665 12.3428 6.19465 12.3608 6.18665C12.3608 6.14565 12.3588 6.14365 12.3458 6.14065C12.3408 6.13965 12.3388 6.13965 12.3338 6.13965L12.0298 6.15365C11.3398 6.18865 10.5688 6.26965 9.90976 6.42665C9.28376 6.57565 8.74076 6.77965 8.23876 7.14965C8.20376 7.17565 8.17376 7.19965 8.14176 7.22565C8.11576 7.24665 8.06976 7.28265 8.05276 7.30465L8.05176 7.30565Z" fill="#FEFEFE"/>
<path fill-rule="evenodd" clip-rule="evenodd" d="M8.12307 7.30704C8.15607 7.30904 8.16507 7.29304 8.18207 7.27904C8.30107 7.17704 8.37007 7.12104 8.51207 7.03104C8.94207 6.75804 9.44307 6.60004 9.96207 6.49704C10.6551 6.36004 11.3501 6.31304 12.0561 6.27804C12.1001 6.27604 12.3541 6.26904 12.3721 6.26404C12.3721 6.24504 12.3721 6.22904 12.3631 6.21304C12.2691 6.20804 12.1391 6.22104 12.0421 6.22604C11.3781 6.25704 10.5821 6.33004 9.95207 6.47104C9.37007 6.60104 8.77107 6.80104 8.30307 7.15704C8.28407 7.17204 8.13607 7.28404 8.12207 7.30804L8.12307 7.30704Z" fill="#FEFEFE"/>
<path fill-rule="evenodd" clip-rule="evenodd" d="M8.17822 7.30979C8.20822 7.31279 8.21422 7.29579 8.23222 7.27879L8.36422 7.16979C8.81722 6.81279 9.41722 6.63679 9.99422 6.53779C10.6682 6.42179 11.6942 6.35379 12.3872 6.34079C12.3832 6.31879 12.3822 6.30979 12.3772 6.28679C12.3462 6.28179 12.2592 6.28979 12.2232 6.29079C11.4862 6.32179 10.7102 6.37079 9.99322 6.51079C9.63022 6.58179 9.29422 6.67679 8.98122 6.80679C8.82822 6.87079 8.68022 6.94779 8.54922 7.02979C8.48722 7.06879 8.22222 7.25079 8.17822 7.30879V7.30979Z" fill="#FEFEFE"/>
<path fill-rule="evenodd" clip-rule="evenodd" d="M2.09317 7.38883C1.91817 7.11683 1.74817 6.82483 1.57617 6.55483C1.54117 6.50083 1.50717 6.44283 1.47217 6.38883C1.43717 6.33383 1.40617 6.27883 1.37117 6.22383L1.16117 5.89383C1.11817 5.82783 0.546168 4.95483 0.512168 4.92383C0.495168 4.92883 0.483168 4.93883 0.472168 4.95483C0.502168 5.00883 0.642168 5.21483 0.687168 5.28183L1.87217 7.06883C1.90917 7.12483 1.94517 7.17583 1.98017 7.23083C2.03217 7.31083 2.16117 7.49583 2.19617 7.55683C2.19017 7.53783 2.15717 7.48983 2.14517 7.47183C2.12817 7.44483 2.11117 7.41583 2.09317 7.38883Z" fill="#FEFEFE"/>
</svg>
