<?xml version='1.0' encoding='utf-8'?>
<svg xmlns="http://www.w3.org/2000/svg" version="1.1" width="720px" height="1358px" viewBox="0 0 720 1358"> <g id="layer1"> <g style="fill:rgb(0,0,0); fill-opacity:1.0; stroke-linejoin: miter"> <path d="M367.33066,590.7079L367.3724,590.718Q368.28378,591.1809,370.82968,592.88904L370.48605,597.66486L370.35666,598.9355Q370.0766,601.3662,369.5696,603.1312Q369.06253,604.8961,368.28308,606.1691Q368.2495,606.3853,366.70892,608.2141L366.66724,606.63574Q366.6344,606.1323,366.49948,605.29114Q366.36444,604.4498,366.15762,603.4564Q365.43497,600.31525,365.438,600.1739Q365.27405,599.29553,365.16882,598.4842Q364.95798,596.8537,364.991,595.59204Q365.0079,594.96533,365.08795,594.45575Q365.119,594.06335,365.41074,593.3357Q366.687,591.061,367.33066,590.7079 Z M358.4088,637.5591Q358.41095,637.5591,358.41306,637.55914L358.46304,637.5699Q358.4652,637.5686,358.468,637.5686Q358.49908,637.5686,358.6056,637.7284Q358.65085,637.8127,358.69138,637.93713Q358.77316,638.1867,358.8292,638.5921Q358.85684,638.7946,358.87616,639.0345L358.90936,639.6949Q358.93552,640.354,358.9368,640.97296Q358.93777,641.59174,358.91632,642.1356Q358.89462,642.67914,358.85254,643.11224L358.80594,643.5089L358.75024,643.83276L358.68607,644.075L358.61407,644.22675L358.51828,644.2772Q358.51562,644.2833,358.51038,644.2833Q358.4787,644.2833,358.35208,644.06287L358.24512,643.7667L358.14822,643.37494L358.06253,642.9054L357.98978,642.37646L357.93112,641.8057L357.88806,641.21173L357.86206,640.61237L357.8545,640.0258L357.8668,639.4701L357.90033,638.9633L357.95667,638.5236Q358.16617,637.5591,358.4088,637.5591 Z M265.9059,660.262Q265.9298,660.262,265.9331,660.2836L265.966,660.2867Q265.96753,660.2866,265.9691,660.2866Q266.1194,660.2866,266.29904,660.85736Q266.43573,661.3673,266.71722,662.885Q266.99863,664.40247,267.36057,666.56055L269.34378,678.60724Q268.03796,680.0535,267.5729,680.2418Q267.38364,680.0072,266.46796,675.7313Q266.46783,675.7323,266.4675,675.7323Q266.42996,675.7323,263.7246,662.0902Q265.68613,660.262,265.9059,660.262 Z M312.46307,696.2754L312.53055,696.27716Q312.6602,696.285,312.73245,696.3151L312.76398,696.3306Q312.79153,696.3474,312.80167,696.3671Q312.81183,696.3868,312.80295,696.4085Q312.76627,696.4724,312.65848,696.5137Q312.5543,696.54816,312.43573,696.54816Q312.42148,696.54816,312.40704,696.54767Q312.3276,696.5453,312.24728,696.5278Q312.15457,696.5046,312.1177,696.4864L312.05737,696.46094L312.0122,696.4357L311.98203,696.4113L311.96628,696.3879L311.9649,696.36615L311.97723,696.3459L312.00305,696.3279L312.042,696.3123L312.09378,696.2996L312.1579,696.29016L312.23413,696.2842L312.32205,696.2821Q312.3968,696.2754,312.4619,696.2754 Z M334.2958,694.5518Q334.40546,694.5518,334.39783,694.76715L334.54376,699.845L334.61444,730.0982L333.77478,730.8851L333.77478,730.8851Q333.40195,695.1055,333.7771,694.9539Q334.14594,694.5518,334.2958,694.5518 Z M302.514,697.26965L328.53253,697.2697Q328.4474,727.6984,328.97525,732.6876L273.66885,732.6877L276.46143,697.2697L302.514,697.26965 Z M328.192,739.1241L328.192,744.09625Q328.17496,748.6085,327.95358,749.0343Q322.8553,748.85675,285.60855,747.2097Q276.90442,746.83734,273.0218,746.5823Q272.8971,745.16504,273.4645,739.4987Q291.61624,739.3455,328.192,739.1241 Z M380.12396,560.0576Q373.47034,560.0576,366.10114,570.98645Q364.1692,573.3776,362.69037,588.1894Q356.94708,594.4729,355.69745,600.65784Q354.43384,605.3944,354.00616,615.0253Q325.42267,623.5988,317.48175,631.89984Q315.5202,640.2126,318.07742,674.793Q315.5444,675.22784,276.5314,677.0417L261.59772,599.0504Q261.7493,598.56006,257.16254,598.56006Q256.58044,598.56006,255.92204,598.56793L254.78072,600.0493L244.68745,601.30084L259.5017,686.20166L257.04965,764.49567L263.38403,763.9167L264.25854,752.4275Q264.07407,752.17566,264.52756,752.17566Q264.69788,752.17566,264.95822,752.2112L328.36227,755.33466L328.5469,766.9922L334.21298,766.71277Q334.13696,761.08765,334.07022,755.9035L334.0669,755.9035Q334.0888,755.8222,334.1107,755.7403L334.58105,753.7192Q334.82367,752.54626,335.061,750.8592Q335.07703,750.7786,335.0929,750.69995L335.09625,750.69995Q337.31226,750.8547,338.3118,750.8547Q339.04608,750.8547,339.12384,750.7712L339.73682,692.09326Q343.73837,689.3094,342.69968,681.97876Q346.8699,679.1752,346.72754,678.2434Q346.80573,675.7469,340.43433,670.903Q340.0307,669.8796,331.66562,669.24194Q330.52258,665.9318,331.18176,657.0076Q333.96494,645.172,336.87613,637.8426Q345.9495,636.4807,352.40204,633.99567L352.40558,633.99567Q352.3185,645.32886,358.4795,647.5808Q358.94333,650.1382,359.48648,657.31555Q360.263,669.77966,358.67035,679.01276L357.96887,681.21497Q352.474,689.04517,353.10345,689.81995L354.66602,696.5929Q354.02118,708.4348,354.64468,711.13306Q355.64496,715.5252,358.73694,719.9852Q364.1988,725.70593,372.36215,727.44305Q372.90005,727.8201,374.0638,727.8201Q376.972,727.8201,383.78845,725.46533Q408.14252,713.6789,424.3607,693.8697L424.36493,693.8697Q423.6423,709.4486,428.3156,732.14276Q423.4467,736.74365,423.0456,740.6544Q422.44635,743.2951,422.8965,746.93994L421.29236,750.5318L423.8501,755.2495Q421.0537,761.07336,422.25705,761.66833Q424.1528,765.0208,427.08688,765.0208Q427.15976,765.0208,427.23328,765.01874L458.86163,767.4464Q473.15582,766.9664,475.27966,757.06726Q474.3501,753.78345,469.86356,752.2697Q473.1458,748.5361,470.41675,746.0251Q469.95715,744.64844,459.4022,742.9661Q456.30145,741.0579,453.9638,736.6211L450.18524,734.87787Q448.58398,732.4427,445.21106,730.82587Q444.68698,730.53375,444.1424,730.53375Q443.67764,730.53375,443.19794,730.7465L445.62854,689.46216L445.47717,671.05475Q445.30374,668.19476,443.58643,666.01575Q441.12796,661.2214,433.71582,661.2214Q430.9959,661.2214,427.60895,661.86694Q412.87146,666.4983,390.68616,680.146L389.45813,674.6227L393.06802,667.5732L393.47668,652.4865Q396.0033,646.2826,395.9458,644.1531Q395.6644,641.7609,394.9032,639.6652L384.62222,610.5981Q387.9511,603.6252,390.71814,601.13055Q393.5423,602.5935,395.327,602.5935Q396.81403,602.5935,397.57947,601.5779L399.28177,596.22687L397.15472,594.1152L397.1587,594.1152Q397.2126,594.1156,397.26517,594.1156Q399.03946,594.1156,399.33997,593.66675Q400.137,593.18726,400.01965,591.39825Q402.99554,591.0349,402.64978,589.18726Q400.1408,584.7894,400.14404,574.75Q397.86313,566.10486,396.90057,565.6583Q391.76974,560.13324,383.11295,560.13324Q382.53473,560.13324,381.9408,560.1579L381.42093,560.16254Q380.77588,560.0576,380.12396,560.0576 Z"/> </g> </g> </svg>