<svg width="85" height="83" viewBox="0 0 85 83" fill="none" xmlns="http://www.w3.org/2000/svg">
<g clip-path="url(#clip0_1663_26620)">
<path d="M9.12012 15.4517C31.9537 29.5443 55.4478 31.8715 79.997 15.4517" stroke="#39BBD1" stroke-width="0.282223"/>
<path d="M18.9611 20.3543C21.82 21.6077 24.852 20.9418 25.7332 18.8671C26.6144 16.7924 25.0111 14.0944 22.1522 12.841C19.2932 11.5876 16.2612 12.2534 15.3801 14.3282C14.4989 16.4029 16.1021 19.1009 18.9611 20.3543Z" fill="#39BBD1"/>
<path fill-rule="evenodd" clip-rule="evenodd" d="M28.6108 16.761C28.6108 16.761 26.1269 17.7777 25.5502 18.8885C25.0241 19.9018 25.5502 22.3254 25.5502 22.3254L30.7049 34.4361L39.8867 39.6732V35.5817L33.7655 31.1629L32.3157 23.962C35.632 26.2074 40.121 26.2944 47.2965 25.9259C49.8202 26.8377 54.4379 25.6671 56.9616 23.962L65.3379 16.9246L77.4192 16.4337L78.5468 12.0149L63.7271 12.3422L52.7734 17.9066C47.0135 16.0001 41.3398 14.204 36.3428 14.7971C34.1041 15.0628 31.7067 15.7253 28.6108 16.761Z" fill="#39BBD1" stroke="#39BBD1" stroke-width="0.282223"/>
<path fill-rule="evenodd" clip-rule="evenodd" d="M52.6123 17.5792L62.2773 5.95947L75.8084 16.1063L73.0699 18.8885L63.2438 11.0329L60.9887 19.2158L52.6123 17.5792Z" fill="#39BBD1" stroke="#39BBD1" stroke-width="0.282223"/>
<path fill-rule="evenodd" clip-rule="evenodd" d="M28.2889 17.7429L24.7451 10.5419L20.5569 13.9787L18.1406 13.3241L24.584 5.95947L33.9268 15.779L28.2889 17.7429Z" fill="#39BBD1" stroke="#39BBD1" stroke-width="0.282223"/>
</g>
<g clip-path="url(#clip1_1663_26620)">
<path fill-rule="evenodd" clip-rule="evenodd" d="M47.7174 59.6352C48.1556 59.5106 47.991 60.0947 48.4292 59.97C48.6627 60.3282 48.0663 60.7825 48.2868 61.6436L48.0259 61.5599L47.8597 61.811C47.5415 61.7388 47.8021 60.9861 47.7174 60.6393L47.7806 60.1837L47.4326 59.9699V59.8025L47.6462 59.8862L47.7174 59.6352V59.6352Z" fill="#39BBD1"/>
<path fill-rule="evenodd" clip-rule="evenodd" d="M48.1213 61.8949L48.2874 61.6439C49.2654 62.335 50.1156 63.1764 50.992 63.987C51.0912 64.8287 50.7505 65.1535 50.8496 65.9952C46.4866 66.4606 42.4969 67.0312 38.3225 67.6687C37.0082 67.8694 35.495 67.9489 34.3366 68.3381C32.6152 68.9165 31.9923 70.3734 29.9237 70.6812C28.9132 70.8313 28.1648 70.3807 27.0768 70.5138C25.7609 70.6746 24.1888 71.742 22.8061 72.3546C18.6911 74.1782 14.3931 76.1647 10.7061 78.3796C9.59906 77.0446 8.96405 75.2826 8.14374 73.6935C5.76757 69.0902 3.15967 64.3442 0.741515 59.6357C0.614096 59.0954 1.20578 59.4005 1.31099 59.1335L1.52454 59.2172L1.73809 59.1335C4.70889 64.9012 7.76929 70.5636 10.8485 76.2043C10.9332 75.8577 10.6725 75.105 10.9909 75.0328L11.157 75.2839L11.418 75.2002C11.6069 75.934 11.1489 76.7677 11.2756 76.8738C16.4986 73.8653 20.4721 69.388 28.3575 69.51C28.2368 67.5831 29.1044 66.8179 29.6386 65.6608C29.4132 65.6469 29.0957 65.7413 29.0692 65.4934L29.1404 65.2425L29.0692 64.9914C29.1904 65.0222 29.2035 64.9261 29.2116 64.824L29.4046 64.6208L29.354 64.3219C29.9042 64.3445 29.9153 65.0008 30.3504 65.1588L30.5233 65.3858L30.7774 65.3262C30.6823 66.0511 30.1187 66.2252 30.0657 66.9997C30.7363 66.9513 31.0735 66.5111 31.9162 66.6651C32.4774 66.842 32.4589 67.7008 32.7703 68.1711C35.5504 64.1317 42.3915 64.8668 48.4287 64.6567C48.2594 63.6841 47.8373 63.0091 47.8592 61.8116L48.12 61.8953L48.1213 61.8949Z" fill="#39BBD1"/>
<path fill-rule="evenodd" clip-rule="evenodd" d="M1.57214 58.882L1.31117 58.9657C1.32299 58.7007 1.24269 58.3273 1.45354 58.2961L1.61969 58.5472L1.88066 58.4635C1.86884 58.7285 1.94914 59.1017 1.73829 59.133L1.57214 58.882Z" fill="#39BBD1"/>
<path d="M48.0264 61.5598C48.058 61.6715 48.0896 61.7829 48.1212 61.8946" stroke="#39BBD1" stroke-width="3.162" stroke-linecap="round"/>
<path d="M1.52539 59.2168C1.53108 59.1052 1.55159 58.9937 1.5728 58.8821" stroke="#39BBD1" stroke-width="3.082" stroke-linecap="round"/>
<path d="M1.62012 58.5477C1.74028 57.7213 1.84577 56.6618 2.57853 56.2715" stroke="#39BBD1" stroke-width="3.339" stroke-linecap="round"/>
<path d="M2.5791 56.2711C7.03208 52.797 13.2644 47.2785 18.4449 52.4027" stroke="#39BBD1" stroke-width="2.281" stroke-linecap="round"/>
<path d="M18.4453 52.4034C21.5109 46.3852 28.2112 49.3719 33.1055 48.0947C37.9189 52.0721 42.9422 55.7777 47.6474 59.8873" stroke="#39BBD1" stroke-width="2.328" stroke-linecap="round"/>
<path d="M30.5244 65.3849C34.4482 59.0789 42.0437 61.3488 47.7817 60.1836" stroke="#39BBD1" stroke-width="3.99" stroke-linecap="round"/>
<path d="M18.4453 52.4033C22.1545 56.4022 25.6806 60.6537 29.4064 64.62" stroke="#39BBD1" stroke-width="3.038" stroke-linecap="round"/>
<path d="M2.5791 56.2712C5.71366 61.4481 8.32115 67.1192 11.4193 72.3538" stroke="#39BBD1" stroke-width="2.616" stroke-linecap="round"/>
<path d="M11.4189 72.3548C17.0834 69.3211 22.512 64.2073 29.1419 65.2422" stroke="#39BBD1" stroke-width="2.981" stroke-linecap="round"/>
<path d="M11.4182 72.3547C11.339 73.3315 11.2858 74.3119 11.1572 75.2835" stroke="#39BBD1" stroke-width="3.728" stroke-linecap="round"/>
</g>
<path d="M83.7414 32.2689C83.1455 31.9498 82.205 32.3308 81.3463 33.9306C80.7024 35.3204 80.0732 36.4976 79.234 37.8826C77.5125 40.7238 75.7966 42.9196 72.2662 46.7988C69.0143 50.3719 67.9649 51.6776 66.8545 53.5324C65.4461 55.8847 64.6583 58.447 64.5378 61.0661C64.5163 61.5351 64.513 61.5432 64.2818 61.7176C63.8473 62.0454 63.7656 62.6444 64.0661 63.2985C64.2059 63.6029 64.2091 63.6372 64.1167 63.8583C62.9047 66.759 62.2493 68.2728 62.1981 68.29C62.163 68.3018 61.9064 68.3107 61.6279 68.3096C61.2266 68.3083 61.0162 68.3374 60.6133 68.4508C59.5755 68.7429 59.0651 69.1415 57.6811 70.7408C56.1817 72.4735 55.7841 72.8026 54.6844 73.2213C54.127 73.4335 53.9506 73.4795 53.4872 73.5337C53.1883 73.5687 52.7801 73.5892 52.5799 73.5794C52.3008 73.5658 52.173 73.5838 52.0314 73.6567C51.8683 73.7407 51.8191 73.7419 51.6085 73.668C51.2987 73.5591 51.1381 73.6143 51.0653 73.8544C50.9899 74.1031 51.0574 74.1822 52.0431 74.9983C52.9362 75.7376 53.9271 76.416 54.8652 76.9304C55.5721 77.3181 56.8502 77.8454 57.5151 78.0236C58.4554 78.2756 59.7932 78.3492 60.7011 78.1989C61.2172 78.1135 62.3566 77.6727 62.8313 77.3749C63.3982 77.0192 64.0071 76.4863 64.4973 75.9168C66.0017 74.169 66.4303 72.101 65.6174 70.5123L65.4402 70.1662L65.5904 69.9916C65.6729 69.8956 66.4917 68.8687 67.4101 67.7097L69.0797 65.6021L69.5037 65.432C70.2421 65.1356 70.5697 64.6777 70.4523 64.106C70.4236 63.9663 70.4086 63.821 70.4191 63.7833C70.4296 63.7455 70.5554 63.6192 70.6986 63.5024C71.6162 62.7542 73.1566 61.0847 74.0037 59.9204C74.8044 58.8198 75.5892 57.4493 76.1791 56.1214C76.8767 54.5511 77.4655 52.7423 78.6898 48.4091C79.8856 44.1767 80.7173 41.8043 81.9161 39.2054C82.6204 37.6785 83.3432 36.0173 84.069 34.8074C84.5887 33.607 84.3373 32.588 83.7414 32.2689L83.7414 32.2689ZM65.3442 62.0807C65.4366 62.1203 65.4495 62.1896 65.3415 62.226C65.1428 62.2929 65.001 62.4601 65.0116 62.6153C65.0182 62.7128 65.1026 62.9022 65.2448 63.1387C65.3838 63.3699 65.4713 63.5651 65.4776 63.6575C65.4832 63.739 65.0234 64.8642 64.456 66.1579C63.8885 67.4516 63.3918 68.5283 63.3522 68.5505C63.2878 68.5867 63.0457 68.5134 63.0049 68.4455C62.9961 68.4308 63.4293 67.3514 63.9674 66.0464C64.56 64.6095 64.9361 63.6185 64.9212 63.5336C64.9076 63.4565 64.797 63.2373 64.6754 63.0464C64.4749 62.7315 64.4583 62.6843 64.4959 62.5377C64.5773 62.2198 64.8767 62.0214 65.227 62.0533C65.2738 62.0576 65.3134 62.0675 65.3442 62.0807L65.3442 62.0807Z" fill="#39BBD1"/>
<defs>
<clipPath id="clip0_1663_26620">
<rect width="70.9635" height="33.9648" fill="white" transform="translate(9.07812 5.84814)"/>
</clipPath>
<clipPath id="clip1_1663_26620">
<rect width="51.4758" height="45.4363" fill="white" transform="translate(0 37.5637)"/>
</clipPath>
</defs>
</svg>
