<?xml version='1.0' encoding='utf-8'?>
<svg xmlns="http://www.w3.org/2000/svg" version="1.1" width="600px" height="976px" viewBox="0 0 600 976"> <g id="layer1"> <g style="fill:rgb(0,0,0); fill-opacity:1.0; stroke-linejoin: miter"> <path d="M-96.45723,197.0653C-96.09914,197.08047,-95.825424,197.30847,-95.84445,197.72366C-95.87612,198.41574,-96.83747,199.11203,-97.46231,199.08557C-97.61475,199.0791,-97.74716,199.02963,-97.841156,198.9266C-98.0466,198.70132,-97.95182,198.20251,-97.645096,197.785C-97.32395,197.27832,-96.841896,197.04904,-96.45723,197.0653 Z M-91.51388,203.87308C-91.47102,203.87488,-91.426765,203.90555,-91.38398,203.96838C-91.178604,204.19366,-91.13643,204.84268,-91.37466,205.33508C-91.46726,205.55136,-91.55455,205.65167,-91.62496,205.64868C-91.738266,205.64389,-91.80786,205.37167,-91.78556,204.88483C-91.81365,204.26001,-91.67351,203.8663,-91.51388,203.87308 Z M-79.207405,205.02917C-79.06383,205.03564,-78.93348,205.3294,-78.95318,205.76001C-78.969536,206.11807,-79.3433,206.45969,-79.77279,206.4415L-79.77543,206.44138C-80.13423,206.42487,-80.26135,206.05972,-80.029594,205.7107C-79.79493,205.29059,-79.42374,205.02002,-79.20831,205.02914 Z M-177.42473,274.01077C-177.38187,274.01257,-177.33759,274.0433,-177.29477,274.10623C-177.08934,274.33136,-177.04715,274.9805,-177.28545,275.47284C-177.37802,275.68918,-177.46532,275.78952,-177.53572,275.78653C-177.649,275.78174,-177.7186,275.50946,-177.69629,275.02252C-177.72437,274.3977,-177.5843,274.00403,-177.42473,274.01077 Z M675.4837,581.7845C676.09955,581.8105,676.6422,582.38007,676.33295,583.14325C675.7946,584.54144,675.44543,585.19855,675.15796,585.18646C674.9659,585.1783,674.80145,584.87164,674.6266,584.28766C674.3723,583.55707,674.2681,582.68915,674.50006,582.3404C674.75433,581.9329,675.13104,581.7695,675.4837,581.7845 Z M-93.78483,193.57504C-94.802666,193.81607,-99.4655,198.27695,-99.5049,199.13809C-99.556816,200.27237,-100.81006,201.55106,-101.58271,201.51834C-101.73872,201.51175,-101.87515,201.45166,-101.978134,201.32611C-102.03973,201.27536,-102.09892,201.24954,-102.15405,201.24722C-102.34707,201.23904,-102.490395,201.5184,-102.51337,202.02072C-102.542984,202.66669,-103.29999,203.49481,-104.11232,203.96109C-104.64902,204.21454,-105.0605,204.341,-105.42585,204.32553C-105.91112,204.305,-106.31501,204.03403,-106.82287,203.47751C-107.77831,202.35507,-107.76846,202.13971,-106.80601,201.53659C-106.164154,201.14993,-106.05983,201.00189,-106.56951,200.98026L-106.570366,200.98022C-106.76541,200.97198,-107.05014,200.98218,-107.42882,201.00458C-109.81011,201.18332,-111.12211,203.13666,-110.05601,204.98346C-109.52615,205.94696,-109.422,206.2851,-110.1125,206.25586C-110.37363,206.24481,-110.748405,206.18121,-111.25677,206.07904C-111.58684,206.02591,-111.90027,205.99368,-112.194565,205.98123C-114.128136,205.89935,-115.235054,206.67178,-114.79669,208.00247C-114.607635,208.58627,-114.71228,209.30072,-115.152725,209.49628C-115.524666,209.76697,-115.691185,210.26263,-115.49229,210.6315C-115.18873,211.1489,-115.30316,211.36505,-115.64449,211.35059C-116.27824,211.32376,-117.69417,210.50171,-118.669044,209.33533C-119.692566,208.12671,-120.76404,207.4426,-121.378426,207.41656C-121.828835,207.39749,-122.03359,207.73212,-121.7937,208.47308C-121.53696,209.13031,-121.841324,209.54721,-122.55474,209.517C-122.55673,209.5169,-122.558716,209.51678,-122.5607,209.51672C-123.20652,209.48709,-123.68913,209.03351,-123.66289,208.45947C-123.62307,207.58972,-124.309296,207.00363,-124.98192,206.97516C-125.419205,206.95663,-125.85074,207.17383,-126.073265,207.70193C-126.314804,208.26617,-126.35426,209.12723,-126.086876,209.57092C-125.91472,209.85678,-125.9752,210.0126,-126.228294,210.00189C-126.36818,209.99597,-126.5669,209.93915,-126.81772,209.82529C-127.05246,209.7349,-127.25049,209.68472,-127.414955,209.67776C-127.84459,209.65958,-128.0453,209.93597,-128.07379,210.55875C-128.09692,211.06372,-128.15051,211.31451,-128.26877,211.30951C-128.36899,211.30527,-128.51563,211.11725,-128.72946,210.7445C-129.03079,210.21948,-129.51035,209.97916,-130.00742,209.95813C-131.04854,209.91403,-132.16644,210.83185,-131.88422,212.11032C-131.71884,213.0574,-131.75252,213.38925,-132.40926,213.36142C-132.65749,213.35092,-132.99472,213.289,-133.44386,213.18954C-133.82275,213.10837,-134.14664,213.06119,-134.41562,213.0498C-135.05669,213.02267,-135.38586,213.19885,-135.4044,213.60321C-135.42386,214.02896,-135.75018,214.24295,-136.26474,214.22113C-136.44397,214.21356,-136.64603,214.17737,-136.86592,214.11154C-137.12,214.02625,-137.3381,213.98038,-137.5226,213.97256C-138.05815,213.94986,-138.31049,214.24814,-138.33739,214.83539C-138.37128,215.57599,-138.47243,215.93158,-138.87192,215.91464C-139.20787,215.90042,-139.75484,215.62274,-140.65025,215.08908C-141.23875,214.73825,-141.69942,214.5683,-142.01357,214.55481L-142.01477,214.55475C-142.74562,214.52423,-142.6815,215.34235,-141.58693,216.70013C-140.90881,217.61093,-140.60779,218.01523,-140.68834,218.01181C-140.75266,218.0091,-141.06017,217.74652,-141.61316,217.27429C-142.1483,216.81723,-142.45416,216.5698,-142.59491,216.56317L-142.59612,216.56311C-142.78136,216.55618,-142.67694,216.9722,-142.43211,217.88391C-142.22263,218.69519,-142.26485,219.23047,-142.50117,219.22046C-142.54045,219.21881,-142.5851,219.20209,-142.63484,219.16907C-142.79279,219.06421,-142.96027,219.00677,-143.14154,218.99908C-143.76134,218.97284,-144.54256,219.52808,-145.65594,220.75687C-146.41626,221.65689,-146.29898,222.23755,-145.15125,223.87198C-144.27412,225.10739,-144.06725,225.73013,-144.38849,225.71652C-144.68579,225.70395,-145.4354,225.1464,-146.52466,224.02496L-148.17467,222.3675L-149.46365,223.81845C-150.07387,224.49841,-150.84853,224.99808,-151.35997,224.97641C-151.42014,224.97388,-151.47665,224.96411,-151.52884,224.9466C-151.56989,224.92975,-151.61067,224.92078,-151.65106,224.91907C-152.58345,224.87958,-153.3137,228.71786,-152.39478,229.7251C-151.727,230.45697,-151.99257,230.99402,-152.60153,230.96823C-152.92926,230.95435,-153.35645,230.77747,-153.79112,230.38019C-154.1315,230.06439,-154.36432,229.88812,-154.5263,229.88126C-154.7911,229.87006,-154.86667,230.31146,-154.91356,231.33572C-154.9628,232.4119,-154.53603,234.08545,-153.93616,235.11984C-153.33304,236.0823,-153.02019,237.1036,-153.32042,237.37726C-153.38991,237.44064,-153.45782,237.46991,-153.51793,237.46738C-153.65262,237.46167,-153.74817,237.29648,-153.73454,236.99875C-153.71155,236.49637,-154.05396,236.12115,-154.41277,236.10477L-154.41396,236.10474C-154.84369,236.08652,-155.02272,236.8688,-154.78188,237.88559C-154.54778,239.04538,-154.72002,239.68439,-155.29199,239.66016L-155.29767,239.65991C-155.79796,239.63873,-156.03165,240.05902,-155.84296,240.6417C-155.65398,241.22565,-156.03903,241.78354,-156.98187,241.95618C-157.78108,242.13522,-158.23468,242.61777,-158.03578,242.98636C-157.84018,243.4267,-158.00339,243.85083,-158.4406,243.97458C-158.94952,244.09528,-159.42276,245.00842,-159.534,245.86627C-159.66812,247.22656,-160.56218,247.90466,-163.55696,248.91827C-166.84537,250.06223,-167.29573,250.47314,-166.99933,251.85281C-166.77258,253.15054,-167.00056,253.50287,-168.1325,253.45493C-168.13873,253.45468,-168.145,253.4544,-168.15129,253.4541L-168.16008,253.45374C-168.9456,253.42047,-169.60304,253.74866,-169.62267,254.17767C-169.63458,254.43738,-169.79326,254.61502,-170.0122,254.60574C-170.09596,254.6022,-170.1885,254.57132,-170.28503,254.50726C-170.29793,254.49661,-170.31151,254.49109,-170.32573,254.49048C-170.61751,254.47812,-171.17911,256.53827,-171.50647,259.1975C-171.84988,261.9864,-172.53894,264.4717,-172.90767,264.6707C-173.35132,264.93787,-173.37766,265.51215,-173.0484,266.17438C-172.35907,267.34918,-172.29002,268.17755,-172.70999,268.15976C-172.81834,268.15518,-172.95927,268.09424,-173.1305,267.9684C-173.2258,267.91516,-173.31488,267.88806,-173.39603,267.8846C-173.67314,267.87286,-173.85736,268.13742,-173.8777,268.58145C-173.91296,269.35175,-174.2578,269.7006,-174.65169,269.6839C-175.10187,269.66486,-175.61612,269.16827,-175.80547,268.27753C-175.85193,268.04736,-175.94724,267.93765,-176.08188,267.93198C-177.13626,267.8873,-180.6027,274.22226,-181.90884,279.07263C-182.59137,281.4145,-183.36859,284.25534,-183.71152,285.46225C-185.76563,292.6316,-184.62268,299.08405,-180.74854,302.42554C-179.8485,303.18597,-179.1018,304.15515,-179.11496,304.44205C-179.1314,304.80072,-178.3097,305.70145,-177.40958,306.4619C-176.59909,307.12024,-176.16345,307.4457,-175.92409,307.45584C-175.69249,307.46567,-175.64464,307.18027,-175.61879,306.61563C-175.60065,306.21927,-175.52603,306.00723,-175.34691,306.0148C-175.10446,306.0251,-174.67053,306.43768,-173.92604,307.34024C-172.42287,309.0633,-169.67662,310.33948,-162.22704,312.55017C-161.53314,312.72974,-160.43791,312.8518,-159.24313,312.90237C-158.1127,312.95026,-156.89317,312.9342,-155.84013,312.84247C-154.85808,312.72726,-154.04619,312.6685,-153.34953,312.698C-150.91756,312.801,-149.89018,313.97992,-147.93129,317.59128C-147.13586,319.06592,-145.12094,322.17856,-143.57883,324.62238C-141.96158,326.99774,-140.7098,329.5,-140.73935,330.1458C-140.83138,332.15536,-133.4489,340.54736,-129.87117,342.50906C-128.11975,343.52396,-125.01476,344.8166,-123.10017,345.40768C-118.491486,346.84106,-115.967094,348.251,-112.5137,351.35773C-110.025475,353.55695,-109.03446,355.47208,-105.56991,364.62003C-102.294334,373.18365,-101.04255,375.686,-99.36626,376.7696C-98.08555,377.66635,-97.11805,378.1442,-96.09377,378.18756C-94.83323,378.24094,-93.48667,377.63635,-91.364456,376.34482C-89.79756,375.36295,-88.72736,374.82285,-87.75786,374.8639C-86.34527,374.92374,-85.146454,376.2173,-82.936455,379.17566C-80.99879,381.81277,-79.396996,383.03186,-77.43835,383.11478C-76.523,383.15356,-75.529724,382.94415,-74.387794,382.51544C-72.92711,382.0074,-71.612946,381.56415,-71.46827,381.57028L-71.46803,381.5703C-71.324524,381.57693,-70.9498,382.81674,-70.58815,384.3433C-69.896614,387.76874,-68.09154,389.64627,-65.50447,389.75583C-65.46012,389.75772,-65.41555,389.75903,-65.37074,389.7599C-64.313126,389.7999,-63.374268,389.83542,-62.534252,389.871C-56.189934,390.13968,-55.483803,390.40952,-51.837677,392.60867C-48.98831,394.28488,-47.822826,394.78217,-45.675686,394.87308C-45.026047,394.90057,-44.286545,394.8909,-43.38335,394.86542C-38.193436,394.59967,-33.95896,393.2114,-31.113699,390.75272C-28.193419,388.22574,-23.336779,379.53076,-19.973997,370.47986C-16.049732,360.16016,-12.476555,355.93713,-4.617269,352.34152C-2.6166074,351.43927,-1.2071074,350.95844,-0.07930183,351.0062C1.6490362,351.0794,2.7158124,352.39398,4.234792,355.33572C11.240468,368.81647,12.565819,375.99652,12.804815,403.76587C13.087963,425.85632,12.320238,439.4846,10.3271,450.03635C7.925316,463.23032,7.8777885,468.98105,10.222882,490.01517C12.463941,510.18155,12.570294,514.1416,12.546708,557.0726L12.478927,585.25934L10.787943,589.2093C9.824968,591.39435,8.966088,594.44745,8.893838,596.0262C8.792037,598.25073,8.397006,599.0238,6.700483,599.95276C5.5911465,600.6212,4.5536675,601.2927,4.3285203,601.4983C3.7999005,602.0493,-4.32346,605.1293,-7.3801775,605.9242C-8.763379,606.29236,-12.818252,606.89795,-16.43261,607.30774C-19.975315,607.72095,-24.770731,608.79565,-26.969643,609.702C-29.166594,610.6072,-31.42868,611.36597,-31.86204,611.34753L-31.866776,611.3474C-32.36761,611.3262,-32.81257,611.6648,-32.83222,612.09436C-32.84769,612.43286,-33.379032,612.57263,-34.529858,612.5239C-35.330975,612.49,-36.4323,612.3646,-37.868774,612.15137C-39.304955,611.938,-40.406116,611.81274,-41.207188,611.7788C-42.358265,611.7301,-42.88973,611.87,-42.9052,612.2085C-42.924805,612.63696,-43.72302,612.9586,-44.720955,612.9164L-44.751167,612.91504C-46.833458,612.8269,-50.18347,614.10693,-50.22607,615.0375C-50.23624,615.26,-50.545353,615.3583,-51.0162,615.3384C-51.30412,615.3262,-51.65251,615.2699,-52.03001,615.17065C-52.397587,615.04724,-52.738293,614.98425,-53.02237,614.9723C-53.504547,614.9519,-53.823574,615.078,-53.83389,615.30396C-53.850346,615.6626,-55.677235,616.2982,-57.849827,616.6301C-60.022423,616.9623,-61.849365,617.59766,-61.869064,618.0283C-61.883713,618.3485,-62.407207,618.4863,-63.17375,618.454C-63.437828,618.44275,-63.730755,618.4114,-64.04166,618.3602C-64.427444,618.26953,-64.79864,618.2207,-65.12133,618.20715C-65.7508,618.1804,-66.19572,618.28735,-66.20441,618.47705C-66.21426,618.6924,-67.17672,619.29565,-68.41964,619.74194C-69.59085,620.19183,-70.628395,620.86334,-70.64485,621.2222C-70.65953,621.5429,-71.10487,621.6845,-71.74368,621.6574C-71.96246,621.64813,-72.20393,621.6191,-72.45858,621.57074C-72.85576,621.4664,-73.220726,621.40936,-73.516716,621.3968C-73.96212,621.378,-74.25135,621.4598,-74.25922,621.63214C-74.27237,621.91925,-75.737206,622.4993,-77.5543,622.9195C-79.37132,623.33966,-80.83941,623.99164,-80.85256,624.27875C-80.8689,624.63617,-81.30962,624.9029,-81.88082,624.8787L-81.89708,624.8781C-83.46764,624.8116,-83.95028,626.0103,-83.16642,627.6966C-82.5764,628.9462,-81.72512,629.20087,-77.84998,629.3781C-75.33822,629.4931,-73.05496,629.8852,-72.85937,630.32574C-72.5878,630.7939,-70.92307,631.09,-68.25825,631.20294C-65.03649,631.3393,-60.35295,631.2078,-54.902256,630.78827C-50.17077,630.4333,-44.804977,630.1783,-42.905567,630.2587C-42.893097,630.2592,-42.88077,630.2597,-42.868603,630.2603C-42.849464,630.26117,-42.830345,630.262,-42.81124,630.26276C-41.039253,630.3378,-39.409164,630.1265,-39.2477,629.7071C-39.08772,629.35455,-34.83726,629.18976,-29.735594,629.2795L-20.39654,629.49115L-19.87552,632.2476L-19.351198,634.93243L-14.112567,635.1722C-14.047141,635.17523,-13.981902,635.17816,-13.916865,635.18085C-11.1283455,635.299,-8.71686,635.19525,-8.560539,634.85114C-8.162817,634.0074,-3.5538733,632.06525,-2.041171,632.12933L-2.026702,632.12994C-1.3125833,632.1602,-0.6589505,631.90314,-0.6393315,631.4743C-0.5971257,630.55316,4.2982464,629.43304,6.727982,629.53595C7.1378026,629.5533,7.477469,629.6054,7.7118816,629.69916C8.556616,630.09735,11.2639065,630.6528,13.834249,631.05804C14.915978,631.2276,15.985338,631.33234,17.030268,631.3765C24.744665,631.70325,31.12756,628.74097,31.327194,624.38C31.379745,623.2318,31.98716,620.9585,32.63677,619.334C33.286484,617.70996,33.910366,615.0775,33.979378,613.5707C34.048325,612.0637,35.05078,609.0171,36.160515,606.7667C37.66857,603.67163,38.449112,600.75903,39.168854,594.4636C40.607655,583.45483,44.78358,561.3529,46.85406,553.8248C48.656757,547.43506,54.18963,525.53937,55.640053,518.9898C57.351723,511.44547,59.57869,494.21603,60.538704,481.10007C61.089073,473.7902,62.29619,463.13046,63.204857,457.4188L64.83264,446.99393L63.385788,442.46927C62.00087,438.1631,61.968414,437.29858,63.02529,417.35513C63.875053,401.93274,64.359726,396.058,65.25099,393.8695C65.90065,392.2452,66.88056,388.1191,67.54384,384.62585C68.1354,381.12918,68.92909,377.92938,69.16732,377.43692C69.220184,377.35352,69.35876,377.31586,69.586174,377.3255C70.69258,377.37234,73.90193,378.53876,79.57525,381.00568C90.43617,385.67386,97.37687,388.005,106.7023,390.0859C110.048805,390.8145,113.02673,391.74164,113.36908,392.11685C113.711494,392.4922,114.87787,396.86038,115.9463,401.7995C120.08919,421.26172,129.02536,456.98013,131.57062,464.21597C134.17445,471.74216,137.97543,479.82663,139.29951,480.7502C139.6484,480.9819,140.9819,483.27225,142.30217,485.84952C144.9394,491.07614,146.3814,500.4191,147.03534,515.9821C147.41026,526.6425,148.16145,533.7962,148.93068,535.8449C149.2534,536.6508,150.00285,539.13,150.55011,541.3125C151.5862,545.3872,151.83382,546.26135,153.5677,550.7994C154.40529,552.9233,157.63057,565.7275,161.61139,582.45C162.09685,584.41376,163.49443,590.01495,164.71283,594.81696C169.72021,614.24713,170.33218,618.15826,169.96379,627.7779C169.73709,632.7295,169.90764,640.0004,170.30115,643.97345C170.69452,647.9467,170.98001,652.70624,170.89459,654.57196C170.80919,656.4378,171.13739,660.2642,171.58344,663.0893C172.5307,669.1014,171.93314,671.15936,167.71391,675.3531L165.15256,677.89667L156.50821,678.2199C152.77263,678.38776,145.80951,678.3192,139.38034,678.047C137.62387,677.97266,135.90726,677.88306,134.30722,677.77893L120.82236,677.0178L118.41101,679.42444C117.12539,680.80383,114.13984,683.1843,111.84298,684.66113C109.542786,686.20996,107.45793,687.7683,107.151085,688.1859C106.920975,688.5325,105.55741,688.8273,104.2026,688.7699C104.19373,688.76953,104.18487,688.76917,104.17599,688.7688L104.166695,688.7683C102.72625,688.7074,99.37977,689.70337,96.01038,691.1996C92.92744,692.5687,86.41896,694.9315,81.60709,696.36536C76.79523,697.79895,71.75489,699.51013,70.427025,700.24023C69.33898,700.81494,68.04432,701.1632,67.39782,701.13586C67.299934,701.1317,67.216896,701.119,67.15171,701.09705C67.08553,701.06006,67.02158,701.0403,66.95985,701.0377C66.49825,701.01807,66.16036,701.9619,65.94387,703.91833C65.54461,707.92725,66.59154,708.6223,73.55248,708.9409C77.499466,709.1217,78.92153,709.47437,79.52803,710.3651C79.95778,711.02905,80.52121,711.3457,82.26869,711.4197C83.25212,711.4613,84.610535,711.42615,86.53113,711.33276C89.988884,711.20337,92.8073,710.9009,92.820465,710.6139C92.836914,710.2551,95.51184,709.94604,98.82278,709.88184C102.062004,709.81445,105.31101,709.53174,106.038475,709.34924C106.284225,709.25696,106.48246,709.2081,106.64057,709.2147C107.14155,709.23596,107.239655,709.8154,107.16976,711.3428C107.00811,714.8739,107.72694,716.07544,111.05312,716.2163C111.78278,716.2472,112.63792,716.22705,113.63677,716.1692C116.305,716.0038,118.48096,715.6,118.49742,715.2411C118.51361,714.88696,120.2728,714.68286,122.45625,714.77527C122.48598,714.7765,122.51576,714.77783,122.54562,714.7792C122.56166,714.7799,122.57779,714.78064,122.59398,714.78125C126.85466,714.9618,136.70215,713.4818,137.31995,712.5073C137.54828,712.22986,143.3841,711.99365,150.28316,712.0938C165.95038,712.30743,182.66173,711.70624,182.69789,710.9168C182.71086,710.6335,184.47244,710.4301,186.58887,710.51984C186.61621,710.52094,186.64365,710.52216,186.67113,710.5234C186.70758,710.5251,186.74394,710.5267,186.78023,710.52826C195.88953,710.914,199.99113,707.1364,201.68082,696.8278C201.99466,694.6849,203.0495,690.4903,203.98016,687.4405C206.77533,678.2198,207.69821,669.05707,209.07793,638.917C210.36572,610.7861,210.51202,591.87946,209.40865,584.56586C208.86179,580.80133,207.89583,572.0556,206.5139,558.2569C206.07498,553.70624,205.02356,546.8265,204.26147,543.05194C202.49289,534.5574,202.29161,521.676,203.83675,514.6272C205.27739,508.29276,204.87503,501.37076,202.93518,498.1896C201.3246,495.67087,198.57333,489.79196,197.36098,486.42838C195.76744,481.96866,195.4545,480.94766,193.90025,475.6268C191.91267,468.77603,190.78821,455.63638,191.30397,444.36966C191.51755,439.7052,191.3732,431.86,190.87901,426.94727C190.45656,422.0378,190.3633,417.79083,190.59175,417.51346C190.60574,417.50394,190.63016,417.50003,190.66458,417.5015C191.36157,417.531,196.16646,419.77054,201.78848,422.70044C223.28131,433.89594,234.41286,438.93616,243.56514,441.65625C246.33104,442.50186,253.61745,445.13657,259.83728,447.5069C266.0539,449.94876,271.64432,451.93057,272.2902,451.96024C273.72543,452.02597,279.30118,459.04105,283.5068,466.13718C287.3799,472.64285,288.3256,473.9805,290.38968,476.01657C291.21463,476.8455,291.88968,477.81113,291.87326,478.17007C291.86008,478.45706,293.15463,480.02652,294.73947,481.53738C296.24924,483.11667,299.82315,486.73196,302.56564,489.66214C312.24063,499.81345,313.61667,501.17075,318.09464,503.89267C323.4138,507.0845,332.22977,510.868,340.59586,513.4803C345.98746,515.09344,347.03763,515.71686,350.46805,519.32574C352.59744,521.5086,354.88675,523.3393,355.53262,523.36896C357.4703,523.4577,366.25705,526.3049,366.446,526.889C366.57315,527.2542,367.71158,527.52216,368.9315,527.57794C372.8035,527.8271,379.96927,529.953,381.13022,531.30066C381.74637,531.9761,382.44113,532.5112,382.72818,532.5243C383.01517,532.5375,384.1273,533.3794,385.22946,534.43677C386.3317,535.4939,387.65903,536.3457,388.16153,536.36865C388.66367,536.3917,389.28,537.067,389.45914,537.8662C389.6384,538.6655,390.3265,539.34424,390.97226,539.3738C391.6182,539.4033,392.8021,540.24866,393.68893,541.296C394.5759,542.3434,395.8315,543.1919,396.62094,543.228C398.63016,543.3202,404.5563,545.8208,404.52347,546.5383C404.5071,546.8972,405.92923,547.24976,407.7233,547.3319C410.80905,547.473,415.69168,549.20703,416.56873,550.4694C416.77087,550.7664,418.17993,551.40607,419.74225,551.8372C420.53943,552.07086,421.35767,552.1973,422.12695,552.2299C424.16516,552.3162,425.8592,551.743,425.90448,550.7531C425.9833,549.0314,428.76846,544.7029,429.70248,544.74243L429.70346,544.74255C431.85635,544.84094,437.14975,547.025,437.40067,547.8275C437.5211,548.3364,438.2941,548.7312,439.1553,548.7706C441.23636,548.86597,447.4464,551.45135,447.41357,552.169C447.4004,552.456,447.88965,552.76605,448.46368,552.7924C449.46832,552.83844,451.26837,554.3591,455.53058,558.6534C456.42072,559.62897,457.46436,560.3958,457.75134,560.4091C458.0385,560.4222,459.15045,561.264,460.11243,562.24286C462.82916,565.02167,468.7379,566.6468,474.20172,566.8781C479.0998,567.08563,483.64038,566.1729,485.20306,563.96686C485.50922,563.55035,486.3155,563.15656,486.81824,563.1779L486.82605,563.17816C487.3982,563.20245,487.91412,562.8675,487.93066,562.5096C487.95032,562.08,488.32068,561.80963,488.67877,561.82477L488.68225,561.8249C489.11383,561.8432,490.36877,561.1099,491.4901,560.15546C492.6115,559.20087,493.86627,558.46796,494.29803,558.48615L494.3004,558.48627C494.73108,558.5046,495.48413,557.7486,495.9602,556.76447C496.43622,555.7807,497.33185,555.03143,497.906,555.0557L497.91022,555.05585C498.4123,555.0773,499.08624,554.46155,499.34064,553.6112C499.59216,552.83185,500.42096,552.0068,501.22034,551.8276C502.01935,551.6484,502.84497,550.8953,503.0963,550.1158C503.34778,549.3361,504.24518,548.586,505.04437,548.40704C505.91522,548.23114,506.58423,547.75836,506.60724,547.2559C506.71515,546.4699,509.90967,542.66095,513.44684,539.22723C515.77997,536.9609,516.5499,535.8455,519.98364,529.9621L522.7938,525.1286L527.2266,525.6912C529.6599,525.9466,534.2852,527.02106,537.5469,528.0334C540.7885,529.10175,543.87805,529.6932,547.26794,529.8366C550.76764,529.9849,554.58746,529.6558,559.22565,528.8819C569.4147,527.2172,579.80597,526.60565,589.17566,527.0024C597.196,527.342,604.4677,528.4205,610.2231,530.20953C618.73267,532.8282,639.24316,535.6371,655.9638,536.40247C666.87177,536.90173,668.6593,537.12744,671.7545,538.6354C673.6526,539.5852,675.18866,540.5906,675.1723,540.9492C675.1559,541.308,675.645,541.61816,676.2909,541.6477C676.9368,541.67725,678.9457,543.3512,680.79456,545.37756C683.19116,548.00415,684.1236,549.6289,684.06116,550.99243C684.0005,552.3187,683.9087,552.7351,683.0161,552.69727C682.65295,552.6819,682.1574,552.59143,681.47736,552.4563C680.9319,552.3528,680.47046,552.29114,680.1136,552.276C679.49084,552.24963,679.18677,552.36475,679.3112,552.6448C679.5809,553.01526,679.2125,553.2853,678.6418,553.2611L678.63336,553.26074C678.05896,553.23645,677.0984,553.8391,676.4891,554.60095C675.9568,555.2992,675.3546,555.6505,674.7502,555.6249C674.5726,555.61743,674.3947,555.5774,674.21844,555.5039C673.95276,555.371,673.70953,555.3025,673.52075,555.29443C673.2599,555.28345,673.10315,555.38806,673.13525,555.59814C673.37415,557.58765,670.9043,560.60236,669.243,560.53204C669.0928,560.5257,668.9493,560.4941,668.81494,560.4344C668.7184,560.393,668.63367,560.37115,668.5606,560.3681C668.20667,560.3531,668.12915,560.7784,668.3318,561.56256C668.493,562.361,668.4708,562.70917,668.2146,562.6983C668.0981,562.6934,667.93317,562.6142,667.715,562.4694C667.46375,562.3143,667.28937,562.2315,667.19165,562.22565L667.18463,562.2253C667.0455,562.2221,667.0747,562.38763,667.27136,562.73663C667.5385,563.18036,667.1893,564.5308,666.55585,565.7963C665.8541,566.9865,665.3709,568.11505,665.51117,568.1934C665.5145,568.1972,665.51965,568.19916,665.5265,568.1994C665.7936,568.21075,668.661,565.5894,672.0371,562.3077C675.5019,558.87146,678.57513,556.13574,678.8632,556.14795L678.86334,556.14795C680.0832,556.20386,680.16046,559.2278,679.0282,560.39844C678.3495,561.08636,677.80756,561.9246,677.78784,562.35516C677.7682,562.7856,677.4582,563.27484,677.16455,563.40546C676.509,563.591,676.1989,564.08026,671.97876,571.4379C670.72546,573.6817,669.3417,575.632,669.05133,575.6906C668.7577,575.821,668.80334,576.3984,669.27924,576.9954C670.28357,578.30524,669.42303,581.37555,668.23,581.325C668.1333,581.32086,668.0343,581.2963,667.93396,581.2486C667.75793,581.1733,667.5873,581.13324,667.43524,581.1268C667.09985,581.1126,666.8548,581.262,666.8413,581.5584C666.8216,581.98883,667.4443,582.52057,668.2955,582.7752C669.1468,583.02997,670.16077,584.4428,670.73444,586.0512C671.6207,588.6806,671.89813,588.9091,674.48157,589.0274C674.49835,589.02826,674.51514,589.0289,674.5318,589.0296C676.578,589.1163,677.52216,588.72516,678.3604,587.55096C679.89417,585.4638,682.0497,577.65204,683.4552,568.94293C684.5402,562.52045,684.7883,561.8127,686.1617,561.65985C686.255,561.64984,686.3456,561.6468,686.4332,561.6506C688.1104,561.7215,688.73914,564.2684,687.8919,567.8515C687.45087,569.6292,687.5516,570.56866,688.2495,571.03204C688.9474,571.49554,689.1556,573.2309,689.0764,576.53546C688.9187,579.9799,689.3158,582.2994,690.2971,584.42975L691.601,587.366L688.8526,592.4179C687.3585,595.2248,685.67535,597.44824,685.1005,597.42395L685.0974,597.4238C684.4529,597.3965,684.05566,598.2412,683.9769,599.9614C683.88824,601.89905,683.4967,602.6002,682.40704,602.83813C681.60785,603.0171,680.9389,603.49,680.92236,603.84863C680.9077,604.16895,680.3844,604.30676,679.6178,604.2743C679.35376,604.2632,679.0608,604.2318,678.7498,604.18066C678.3641,604.08997,677.9929,604.04114,677.6702,604.02747C677.0407,604.00085,676.5958,604.1078,676.5872,604.2975C676.57404,604.5845,675.6931,604.9757,674.6036,605.2136C671.9939,605.6693,669.726,608.0824,668.3352,611.7583C667.7918,613.2296,667.00653,614.3679,666.5035,614.34656C666.47455,614.34534,666.44653,614.34033,666.41956,614.3313C666.3621,614.30347,666.309,614.2886,666.26013,614.2865C665.8894,614.2709,665.759,614.989,665.82196,616.3894C665.903,617.7594,666.2844,618.8557,666.64325,618.8721C667.0022,618.88855,667.26953,619.33215,667.24316,619.9064C667.0888,623.2792,671.84656,627.73987,675.8652,627.9238C676.79803,627.96643,677.6462,628.29285,677.77325,628.65845C677.9002,629.0238,680.60754,629.5791,683.9054,629.802C685.07874,629.91016,686.0481,629.98145,686.8504,630.0154C689.23096,630.1162,690.1409,629.88806,690.5437,629.3148C690.82,628.9794,691.0367,628.7993,691.16034,628.80457C691.24115,628.808,691.2823,628.8905,691.2745,629.06055C691.25146,629.563,692.44495,630.1929,693.9423,630.4773C698.35205,631.5419,698.913,631.8552,700.3051,634.43604C701.8894,637.5288,704.8866,639.60767,709.9844,641.3513C716.6648,643.6643,733.6469,645.7184,746.6783,646.2702C753.2559,646.54877,758.8269,646.4445,761.5582,645.7978C766.64417,644.6641,773.3974,641.6652,773.44653,640.5888C773.4696,640.08624,774.3735,639.19293,775.4828,638.5245C777.92,637.1259,779.66895,635.04877,780.0481,633.0524C780.2276,632.2696,780.776,631.288,781.2948,630.9521C782.3356,630.20856,784.0102,626.61786,784.0857,624.9672C784.1838,624.3964,784.6965,622.622,785.4146,621.07294C786.0608,619.5202,786.6815,616.95966,786.8256,615.38434C786.8978,613.8055,787.57764,609.95355,788.29626,606.8223C789.01495,603.691,790.3086,597.4218,791.08984,592.92706C791.94257,588.4355,793.3963,581.81415,794.2748,578.33075C795.2285,574.77856,796.5709,569.01526,797.30615,565.52515C798.1163,561.96674,799.6938,555.7824,800.81726,551.6628C803.55054,542.2236,804.6855,533.1423,803.7311,528.8559C803.262,526.53314,801.922,524.3864,798.8406,521.0092C796.5954,518.54877,794.3258,516.622,793.77466,516.5987C793.7543,516.59784,793.7362,516.59955,793.72064,516.60394C793.58075,516.65643,793.44763,516.6772,793.3284,516.67206C793.01117,516.6586,792.7922,516.4632,792.8041,516.20233C792.82043,515.84357,791.92053,515.0832,790.7236,514.5251C789.5983,513.97015,788.6231,513.27814,788.6363,512.99115C788.64667,512.76337,787.92834,512.6181,786.84875,512.57245C786.22833,512.5462,785.4886,512.5527,784.6992,512.5954C783.8054,512.64825,783.074,512.66266,782.4951,512.63824C781.29944,512.5876,780.7544,512.3708,780.77216,511.98404C780.7919,511.55344,779.87524,511.152,778.727,511.09952C775.5696,510.95486,769.39844,509.09024,769.4347,508.30087C769.4459,508.05484,768.9464,507.88693,768.1654,507.85385C767.8073,507.8387,767.3903,507.8519,766.9361,507.89883C766.42975,507.95523,765.9544,507.97397,765.5569,507.95712C764.8763,507.9283,764.42377,507.79526,764.43414,507.5687C764.4473,507.2816,763.5408,506.66483,762.48395,506.1849C761.3521,505.77347,759.9563,504.8467,759.2716,504.09622C757.8335,502.52036,754.0728,501.41324,749.48315,501.1312C747.5456,501.04263,746.0485,500.7582,746.0649,500.39944C746.078,500.11246,738.553,499.55215,729.29553,499.12827C728.296,499.0825,727.31647,499.0394,726.3644,498.99905C718.49817,498.66592,712.5032,498.5267,712.5584,498.7217C712.6202,498.94028,712.1535,499.7101,711.54333,500.47324C710.7313,501.4435,708.71716,502.10275,707.4839,502.0505C706.8686,502.0245,706.44763,501.82132,706.46735,501.39133C706.48376,501.03268,705.36847,500.26236,704.0281,499.69766C702.68756,499.1329,701.5722,498.36264,701.58856,498.00375C701.5966,497.82877,701.36115,497.72293,700.99493,497.70743C700.7604,497.69748,700.47205,497.7247,700.16,497.7946C699.84784,497.86453,699.5597,497.89175,699.32513,497.8818C698.9588,497.8663,698.7231,497.76028,698.7312,497.5853C698.7476,497.22653,697.6322,496.45663,696.2917,495.8917C694.95123,495.32706,693.836,494.55685,693.85236,494.19797C693.86505,493.9205,693.6026,493.7797,693.2005,493.76266C692.9787,493.75327,692.7144,493.78152,692.43024,493.84525C692.20294,493.90964,691.9677,493.93472,691.7333,493.92484C691.0658,493.89658,690.4042,493.5842,689.9481,493.08432C689.33185,492.40897,687.50543,491.46237,685.87805,490.8845C684.24695,490.37845,682.7665,489.73526,682.5642,489.43832C681.4718,488.166,664.9754,479.35638,656.6585,475.6678C641.5058,468.93335,637.73834,467.96973,623.1901,466.8723C612.1552,466.00775,610.1592,465.62872,606.4246,463.94763C604.099,462.9062,600.28314,461.437,597.94446,460.6828C594.1378,459.50775,584.6399,458.4511,576.0817,458.08875C571.7268,457.9043,567.61536,457.89966,564.6208,458.15057C558.4785,458.62323,555.2257,458.93738,552.9023,458.839C549.6843,458.7027,548.24945,457.77502,543.3895,455.38098C537.90704,452.61304,534.83484,450.60272,532.36633,447.97263C530.5143,446.01822,526.9791,443.1236,524.6016,441.64856C522.22736,440.10162,519.85986,438.41113,519.3803,437.88586C518.9012,437.36032,517.30304,436.13678,515.83887,435.1348C514.37445,434.13284,512.84503,432.98425,512.36566,432.4587C511.8863,431.93344,508.26312,429.3945,504.21265,426.76416C500.16528,424.0618,496.39502,421.58798,495.83423,421.27466C495.27655,420.88968,490.79218,418.31113,485.8838,415.56958C480.90344,412.8247,476.92474,410.1975,476.94775,409.69513C476.9674,409.26453,476.77173,408.824,476.48474,408.81094C475.76715,408.778,473.58954,404.50745,473.64545,403.28745C473.68817,402.3546,465.92612,397.54062,464.27548,397.46512C463.84488,397.4454,462.28262,397.0143,460.8638,396.58994L458.24472,395.6789L458.68076,389.29852C458.84164,385.7823,458.84256,382.6182,458.56876,382.3178C458.2947,382.01755,456.86612,381.8084,455.50278,381.746C455.43472,381.7463,455.36496,381.7449,455.29367,381.74188C453.8583,381.68112,451.80618,380.96414,450.54178,380.15256C448.30765,378.68387,448.23917,378.60892,448.5311,373.80417C448.80313,369.43002,448.68918,368.77747,446.91873,366.61078C445.82962,365.26657,444.4404,364.1965,443.79446,364.16687C440.7806,364.029,435.14792,361.39795,432.81314,358.98984C431.44034,357.56042,429.98593,356.34335,429.69876,356.33026C429.34012,356.31384,428.72366,355.63843,428.25748,354.8259C427.79135,354.0135,427.0314,353.33157,426.52902,353.30856C426.09842,353.28888,425.26358,352.6754,424.79422,351.93478C423.91708,350.67197,420.05893,348.55362,416.51675,347.38504C415.52173,347.1237,411.79407,345.29886,408.1411,343.4057C404.56018,341.5161,401.46838,339.93622,401.39655,339.93292C401.253,339.92645,399.0157,338.52957,396.35767,336.8976C387.7608,331.47018,378.96417,328.8382,362.45264,326.644C357.3022,326.0487,352.02466,325.08786,350.67737,324.66675C349.3305,324.24557,344.98907,323.25598,341.07172,322.4293C335.80066,321.325,332.47388,320.16592,328.19495,317.81268C325.03442,316.15775,321.44366,314.48325,320.09326,314.13382C318.8114,313.85947,316.4372,312.3123,314.8556,310.73004C311.28174,307.11435,307.14618,304.76788,303.08203,304.00638C300.44324,303.52603,299.67358,303.05936,298.61398,301.06912C297.35886,298.63876,292.33,295.3881,289.60306,295.26334C288.16788,295.19763,285.80008,293.50726,278.4561,287.41782C276.8646,286.0504,274.70242,284.58505,273.5706,284.17377C272.5106,283.76578,270.4919,282.30707,269.1157,280.94955C267.7396,279.59207,265.2219,278.03867,263.5911,277.53244C261.9603,277.02637,259.4294,275.75986,258.0369,274.7613C256.64426,273.7626,250.12807,270.01276,243.60855,266.3343C225.58601,256.30423,205.71356,247.4125,192.94083,243.66324C187.82983,242.20703,184.37915,240.61075,180.25687,237.97711C166.70929,229.15877,163.04015,227.6244,150.61913,225.61763C146.39633,224.95177,142.08926,224.52095,137.86436,224.34203C133.73157,224.16702,129.67743,224.23306,125.85771,224.556C123.71852,224.73715,122.30757,224.84421,121.05742,224.79126C118.76361,224.69412,117.0112,224.05832,112.29511,222.3532L104.87172,219.56813L89.0839,218.84547C88.68208,218.82707,88.284134,218.80952,87.88996,218.79283C69.13603,217.99867,58.94139,219.14116,48.61758,223.10579C46.640583,223.87816,41.45674,225.5827,37.15372,226.89578C28.110542,229.64615,26.560907,230.51001,20.684103,236.35358C16.01805,240.88608,12.6503105,245.33441,9.285211,251.29306C7.718259,254.06766,6.2918053,255.47653,4.0899005,255.38327C1.5632222,255.27628,-1.984523,253.1914,-7.9372997,248.92258C-15.529449,243.54117,-18.542992,241.82089,-21.958057,241.01749C-25.017487,240.30212,-30.926388,234.27844,-32.060383,230.7749C-32.36994,229.6821,-33.253597,228.56284,-34.033085,228.31152C-34.80932,227.98813,-35.216976,227.46619,-34.98523,227.11743C-34.68175,226.7717,-35.31448,226.45496,-36.31911,226.40909C-37.539097,226.35312,-38.02825,226.043,-37.71169,225.41037C-37.470085,224.84613,-38.78758,223.77908,-41.178238,222.59085C-43.360218,221.55606,-45.16363,220.10721,-45.27429,219.383C-45.456734,218.65561,-46.219814,218.0452,-47.15272,218.0025C-48.01391,217.9631,-49.139053,217.40842,-49.686905,216.8078C-50.3058,216.20477,-50.498363,215.69333,-50.21264,215.70526L-50.210903,215.70535C-49.925297,215.71744,-50.261242,215.19891,-51.023632,214.58936C-51.71493,213.98239,-53.055492,213.4176,-53.91661,213.3782C-54.849586,213.33551,-55.55074,212.94391,-55.53434,212.58499C-55.518036,212.22977,-55.79934,211.95892,-56.18402,211.94263C-56.265625,211.93918,-56.35189,211.94717,-56.44094,211.96826C-56.47428,211.97433,-56.51031,211.97647,-56.548782,211.97485C-57.598232,211.93042,-60.460426,209.10303,-59.881313,208.57465C-59.41681,208.09796,-62.009724,207.43863,-63.926872,207.35742C-64.50117,207.3331,-65.01483,207.36066,-65.3675,207.46057C-65.681435,207.54483,-65.94335,207.57898,-66.15142,207.57016C-67.004974,207.53403,-66.95222,206.77466,-65.866035,205.78357C-65.19061,205.16748,-65.18076,204.95224,-65.75493,204.92593L-65.75857,204.92575C-66.260086,204.90454,-66.84836,205.23627,-67.07949,205.58429C-67.29064,205.87158,-67.59757,206.01819,-67.882195,206.00613C-68.01107,206.00067,-68.13538,205.96268,-68.24415,205.8905C-68.31993,205.824,-68.48008,205.78821,-68.70696,205.77863C-69.51491,205.74438,-71.169106,206.04239,-72.87313,206.46982C-74.63066,206.94727,-75.89547,207.16675,-76.6506,207.13477C-77.6475,207.09256,-77.75607,206.61206,-76.93724,205.70831C-76.40208,205.01385,-76.591064,204.4299,-77.84007,203.43784C-78.606476,202.79654,-79.048744,202.4895,-79.35441,202.47656C-79.62885,202.46494,-79.793175,202.69037,-79.983116,203.12384C-80.22473,203.68835,-81.27537,204.64697,-82.23788,205.24994C-83.02688,205.68982,-83.469986,205.9032,-83.70968,205.89304C-83.94079,205.88327,-83.982796,205.66568,-83.96343,205.24295C-83.93388,204.59714,-83.238815,203.55032,-82.344765,202.87198C-81.14394,201.77628,-81.059074,201.49268,-81.90379,201.09433C-82.00277,201.05197,-82.11591,201.02884,-82.23926,201.02359C-82.81909,200.99905,-83.62461,201.37,-84.246216,201.99399C-85.07034,202.8114,-85.680336,203.2156,-86.08355,203.19852C-86.52804,203.17969,-86.72123,202.64893,-86.67298,201.5953C-86.67445,200.81046,-86.67516,200.43338,-86.82475,200.42706C-86.96304,200.4212,-87.22859,200.73218,-87.73961,201.33063C-88.2344,201.94156,-88.51449,202.25308,-88.72947,202.24399C-88.978096,202.23346,-89.139626,201.7941,-89.445465,200.89316C-89.75256,200.07504,-89.915565,199.67117,-90.03145,199.66629C-90.13324,199.66196,-90.19868,199.96548,-90.29349,200.56647C-90.4013,201.35257,-90.440765,202.21375,-90.45062,202.42911C-90.43045,202.63834,-90.87229,202.7156,-91.43093,202.69196C-92.22209,202.65845,-93.24752,202.42252,-93.526566,202.07242C-93.732025,201.84741,-93.8553,199.82822,-93.7535,197.6036C-93.72341,195.37555,-93.71304,193.57822,-93.78483,193.57504 Z"/> </g> </g> </svg>