<?xml version='1.0' encoding='utf-8'?>
<svg xmlns="http://www.w3.org/2000/svg" version="1.1" width="600px" height="976px" viewBox="0 0 600 976"> <g id="layer1"> <g style="fill:rgb(0,0,0); fill-opacity:1.0; stroke-linejoin: miter"> <path d="M376.29205,415.2724L376.1863,415.854C376.05862,416.4127,376.3791,417.2027,376.67633,417.2027C376.7073,417.2027,376.738,417.19412,376.7679,417.17584C377.04993,416.99957,376.9618,416.10077,376.62692,415.66013L376.29205,415.2724 Z M383.0605,418.40414C382.9942,418.40414,382.78394,418.53543,382.53122,418.7092C382.19635,418.95593,382.05533,419.2027,382.05533,419.59045C382.05533,419.89813,382.0617,420.02698,382.14755,420.02698C382.20428,420.02698,382.29578,419.97064,382.44308,419.87244C382.77795,419.6433,383.2362,418.5682,383.07758,418.40958C383.0739,418.4059,383.06818,418.40414,383.0605,418.40414 Z M372.42853,418.94144C372.34622,418.94144,372.2532,419.06732,372.115,419.3437C371.93875,419.6962,371.86826,420.08392,371.93875,420.34833C371.9975,420.5931,372.02905,420.7019,372.09988,420.7019C372.15656,420.7019,372.23837,420.63226,372.37936,420.5069C372.73187,420.18967,372.81998,419.46707,372.5556,419.04407C372.51285,418.97687,372.4722,418.94144,372.42853,418.94144 Z M364.74786,419.5552C364.65973,419.5552,364.60687,419.69623,364.60687,419.87247C364.60687,420.34836,365.11798,420.96518,365.50574,420.96518C365.78772,420.96518,365.8406,420.89468,365.75247,420.55984C365.6291,420.1897,365.01224,419.57285,364.74786,419.5552 Z M368.70062,421.57004C368.63437,421.57004,368.51526,421.6754,368.27277,421.89926C367.7544,422.38718,367.60532,423.1389,367.93967,423.1389C367.9918,423.1389,368.0557,423.1206,368.1318,423.08017C368.5724,422.85098,368.872,422.287,368.8015,421.81113C368.77664,421.65347,368.75955,421.57004,368.70062,421.57004 Z M383.46533,423.1154C383.21857,423.1154,383.13046,423.15063,383.2538,423.20352C383.3067,423.22113,383.38602,423.22995,383.46753,423.22995C383.54904,423.22995,383.63275,423.22113,383.69443,423.20352C383.8002,423.15063,383.71207,423.1154,383.46533,423.1154 Z M366.2768,423.05032C366.24667,423.05032,366.22833,423.191,366.22833,423.43265C366.22833,423.66885,366.24588,423.8086,366.27475,423.8086C366.28683,423.8086,366.30087,423.7842,366.31647,423.73227C366.3517,423.57364,366.3517,423.29166,366.31647,423.11542C366.30176,423.07126,366.2884,423.05032,366.2768,423.05032 Z M351.28506,423.8542C351.2391,423.8542,351.21207,423.8815,351.21207,423.9438C351.21207,424.4373,351.7408,425.33612,352.07568,425.42426C352.1642,425.44754,352.23306,425.461,352.28543,425.461C352.43112,425.461,352.44946,425.35696,352.41055,425.07175C352.36578,424.68393,351.53827,423.8542,351.28506,423.8542 Z M359.76178,424.68497C359.61722,424.68497,359.4701,424.7463,359.26657,424.86026C358.7907,425.14224,359.2137,425.54764,359.95395,425.54764C360.69418,425.54764,360.8528,425.30087,360.34167,424.9484C360.0951,424.7682,359.93018,424.68497,359.76178,424.68497 Z M353.2113,425.43918C353.16907,425.43918,353.1732,425.50613,353.20367,425.63577C353.25653,425.82962,353.34467,426.235,353.41516,426.5346C353.48566,426.88712,353.6619,427.13385,353.8734,427.18674C353.91782,427.19885,353.958,427.2046,353.99408,427.2046C354.4305,427.2046,354.26425,426.36414,353.6619,425.79437C353.40192,425.55435,353.26672,425.43918,353.2113,425.43918 Z M387.4132,426.1645L387.20172,426.7461C386.99023,427.34534,387.1665,428.19128,387.51898,428.19128C387.8186,428.19128,387.90674,427.38055,387.64233,426.7637L387.4132,426.1645 Z M394.35648,426.97372C394.24646,426.97372,394.0504,427.1152,393.77576,427.3982C393.2999,427.85645,393.19415,428.5438,393.58188,428.5438C393.89914,428.5438,394.19876,428.1737,394.3926,427.50394C394.49493,427.15045,394.47943,426.97372,394.35648,426.97372 Z M380.28876,429.78595C380.15402,429.78595,380.11456,429.94498,380.18713,430.2534C380.3105,430.72925,380.87448,431.36377,381.19174,431.36377C381.50897,431.36377,381.33273,430.6235,380.90973,430.21814C380.62747,429.92734,380.41577,429.78595,380.28876,429.78595 Z M403.41064,429.7962C403.3049,429.7962,403.12952,429.9251,402.8878,430.18295C402.51767,430.5883,402.35904,431.3638,402.64102,431.3638C402.9759,431.3638,403.38126,430.8879,403.487,430.34155C403.56357,429.978,403.53622,429.7962,403.41064,429.7962 Z M375.35345,431.742C375.2487,431.74408,375.2715,431.92075,375.37558,432.28024C375.46368,432.59747,375.71045,433.00287,375.93954,433.16147C376.10068,433.29193,376.195,433.36224,376.25452,433.36224C376.3317,433.36224,376.3503,433.244,376.3802,432.98523C376.43307,432.63275,376.30966,432.42123,375.93954,432.1216C375.63354,431.87198,375.44897,431.74374,375.3572,431.742 Z M377.83456,433.8548C377.80646,433.85843,377.8895,433.95456,378.07217,434.16608C378.29047,434.40622,378.41412,434.5179,378.47665,434.5179C378.51508,434.5179,378.5304,434.4757,378.5304,434.3952C378.5304,434.3247,378.35416,434.16608,378.14267,434.0251C377.96713,433.91827,377.86758,433.8577,377.83832,433.8548 Z M341.59308,436.07123C341.35938,436.07123,341.07343,436.12878,340.8311,436.2458C340.09085,436.61594,340.1437,436.82742,340.95447,436.82742C341.57132,436.82742,342.04718,436.58066,342.04718,436.28107C342.04718,436.14203,341.85223,436.07123,341.59308,436.07123 Z M397.4929,437.0037C397.33392,437.00482,397.05325,437.16302,396.86008,437.3562C396.47235,437.74393,396.38422,438.41367,396.7367,438.41367C397.37045,438.3961,398.12726,437.00702,397.4969,437.0037 Z M362.86203,437.19757L363.05588,437.72632C363.21042,438.18988,363.81195,438.74823,364.10046,438.74823C364.14105,438.74823,364.1754,438.73718,364.2015,438.7133C364.44824,438.4489,364.04288,437.76157,363.47888,437.47958L362.86203,437.19757 Z M367.17047,436.7314C367.08963,436.7314,367.07434,436.88516,367.07434,437.26807C367.07434,437.63818,367.21533,438.09644,367.4092,438.34317L367.74405,438.76617L367.83218,438.2903C367.93793,437.72632,367.74405,437.17996,367.35632,436.8451C367.27203,436.77283,367.2124,436.7314,367.17047,436.7314 Z M400.65146,439.02615C400.5839,439.02615,400.5613,439.07944,400.5613,439.18918C400.5613,439.68265,400.94904,440.31714,401.37204,440.51102C401.5185,440.57693,401.61627,440.6124,401.6805,440.6124C401.77094,440.6124,401.795,440.54218,401.795,440.38763C401.795,439.9999,401.35443,439.34778,400.89618,439.11865C400.78146,439.05746,400.70325,439.02615,400.65146,439.02615 Z M403.21338,441.07343C403.11884,441.07343,402.95688,441.16302,402.71152,441.3394C402.50003,441.48038,402.32376,441.76236,402.32376,441.93863C402.32376,442.11487,402.2533,442.2911,402.14755,442.3264C402.05942,442.3616,402.04178,442.485,402.1299,442.60837C402.16266,442.66492,402.21298,442.6903,402.2747,442.6903C402.57846,442.6903,403.15833,442.07526,403.2755,441.53326C403.3452,441.22458,403.33615,441.07343,403.21338,441.07343 Z M343.01535,442.148C342.91354,442.148,342.76022,442.1801,342.54068,442.23822C342.22345,442.30872,341.95905,442.97845,342.08243,443.34857C342.0964,443.39328,342.12988,443.41318,342.17682,443.41318C342.42584,443.41318,343.05374,442.8529,343.15753,442.46735C343.21338,442.244,343.19138,442.148,343.01535,442.148 Z M383.65405,442.63437C383.32605,442.63437,382.85556,442.7488,382.68985,442.92557C382.26685,443.33093,382.35495,443.5248,382.90134,443.5248C383.3596,443.5248,383.99405,443.0842,383.99405,442.76697C383.99405,442.6749,383.84927,442.63437,383.65405,442.63437 Z M388.05923,441.77832C387.9411,441.77832,387.87146,441.93747,387.87146,442.25583C387.87146,442.75253,388.4648,443.7336,388.68796,443.7336C388.734,443.7336,388.76428,443.6918,388.77032,443.5953C388.8056,442.96082,388.71747,442.55545,388.4707,442.1501C388.30548,441.90222,388.16348,441.77832,388.05923,441.77832 Z M399.15134,443.3486C398.6226,443.3486,398.6226,443.3486,398.90457,443.7892C399.14548,444.15686,399.4684,444.36038,399.78162,444.36038C399.9038,444.36038,400.02454,444.32938,400.13834,444.26508C400.40268,444.12408,400.40268,444.0712,400.0502,443.71872C399.83868,443.50723,399.45096,443.3486,399.15134,443.3486 Z M340.72534,444.91718L341.2188,445.3578C341.53998,445.656,341.79395,445.8124,341.93216,445.8124C342.00635,445.8124,342.04718,445.76736,342.04718,445.67505C342.02957,445.37543,341.74756,445.12866,341.25406,445.02292L340.72534,444.91718 Z M349.1075,445.1459C348.94897,445.1459,348.79477,445.25156,348.39212,445.51645L347.77524,445.90417L348.44498,445.95706C348.52222,445.96277,348.59525,445.96573,348.6645,445.96573C349.02197,445.96573,349.27814,445.88748,349.48486,445.7103C349.8021,445.41068,349.8021,445.37546,349.50247,445.26968C349.31973,445.19238,349.21268,445.1459,349.1075,445.1459 Z M396.914,445.34003C396.8695,445.34003,396.79465,445.4237,396.6486,445.58694C396.31372,445.95706,396.2256,446.52103,396.48996,446.52103C396.77197,446.52103,397.0716,446.0099,397.0011,445.6222C396.974,445.4325,396.9608,445.34003,396.914,445.34003 Z M366.61932,448.17514C366.57306,448.17514,366.5456,448.19757,366.5456,448.24823C366.5456,448.74173,366.9686,449.4996,367.3387,449.6582C367.49765,449.7339,367.60132,449.77383,367.6679,449.77383C367.75638,449.77383,367.77933,449.7033,367.77933,449.55246C367.77933,449.37622,367.65594,449.059,367.4973,448.84747C367.2592,448.51132,366.79846,448.17514,366.61932,448.17514 Z M344.49597,448.81223C344.4267,448.8148,344.44458,449.07803,344.5323,449.3762C344.6973,449.96555,345.1067,450.38147,345.35977,450.38147C345.48514,450.38147,345.57214,450.27945,345.57214,450.04593C345.57214,449.6944,344.80078,448.81693,344.49942,448.81223 Z M361.7869,447.73712L361.7869,448.45975C361.7869,448.8651,361.91028,449.44672,362.05127,449.74634C362.364,450.38828,363.30698,451.06094,363.8466,451.06094C363.88477,451.06094,363.92096,451.05756,363.95474,451.05057C364.3425,450.98007,364.3425,450.98007,363.95474,450.94482C363.60226,450.9272,363.54938,450.82144,363.54938,450.2046C363.54938,449.39386,363.12637,448.68884,362.31564,448.10724L361.7869,447.73712 Z M356.77603,449.596C356.69153,449.596,356.60287,449.68057,356.51712,449.85208C356.25275,450.32794,356.27036,450.83908,356.56998,451.08582C356.63046,451.13422,356.69043,451.15613,356.74747,451.15613C357.0229,451.15613,357.23013,450.6451,357.09872,450.1341C357.0149,449.77783,356.89993,449.596,356.77603,449.596 Z M405.16135,451.2797C405.09085,451.2797,404.80887,451.50882,404.5269,451.79083C404.10388,452.24905,404.051,452.4253,404.13913,453.04218C404.192,453.44754,404.28012,453.81766,404.31537,453.87054C404.34283,453.8955,404.3784,453.907,404.41986,453.907C404.67117,453.907,405.13843,453.4834,405.31998,453.05978C405.5315,452.51343,405.42575,451.2797,405.16135,451.2797 Z M403.45416,455.1881C403.41495,455.1881,403.38498,455.2862,403.3989,455.43915C403.3989,455.55862,403.41898,455.62454,403.44675,455.62454C403.46405,455.62454,403.48434,455.599,403.50464,455.5449C403.55753,455.4215,403.5399,455.26288,403.487,455.21002C403.47583,455.19513,403.46466,455.1881,403.45416,455.1881 Z M349.5892,455.1748C349.54846,455.17776,349.26947,455.29987,348.95612,455.43915C348.39212,455.68588,347.86337,456.46136,348.11014,456.6905C348.14438,456.72473,348.19162,456.74048,348.24802,456.74048C348.569,456.74048,349.18686,456.2308,349.39673,455.72113C349.51215,455.4409,349.59668,455.19147,349.5927,455.1748 Z M407.3468,457.27203C407.10004,457.27203,406.7476,457.43073,406.5537,457.6246C406.09546,458.08282,406.1131,458.3296,406.6066,458.3296C407.10004,458.32953,407.32916,458.1709,407.59354,457.6598C407.7874,457.30728,407.75217,457.27203,407.3468,457.27203 Z M348.4432,462.02057C348.152,462.02057,347.73465,462.1646,347.3875,462.47137L346.894,462.89438L347.61664,462.91202C348.0925,462.91202,348.42737,462.80627,348.62125,462.59476C348.95557,462.22223,348.78772,462.02057,348.4432,462.02057 Z M388.22397,463.4231L388.22397,464.0576C388.22397,464.41006,388.3297,464.9212,388.4707,465.18558C388.71878,465.6321,389.78934,466.59076,390.0369,466.59076C390.05316,466.59076,390.06586,466.5866,390.07455,466.5779C390.12744,466.5427,390.0922,466.10205,390.00406,465.59094C389.84543,464.62158,389.49295,464.09283,388.71747,463.68747L388.22397,463.4231 Z M389.77274,467.5011C389.52728,467.5011,389.28815,467.55072,389.12283,467.65305C388.92896,467.7764,388.99945,467.88217,389.42245,468.09366C389.66675,468.2207,389.8352,468.2827,389.9999,468.2827C390.13223,468.2827,390.26218,468.24268,390.42706,468.16415C390.86768,467.97028,390.8853,467.93503,390.5857,467.72354C390.39063,467.57724,390.07684,467.5011,389.77274,467.5011 Z M372.07767,467.5789L372.07767,467.5789Q372.3214,467.62863,372.4515,467.67462Q372.622,467.74457,372.79996,467.81418L372.7962,467.81418C372.89215,467.89868,372.9721,467.95773,373.00455,467.95773C373.00464,467.95773,373.00476,467.95773,373.00485,467.95773C373.0049,467.95773,373.005,467.95773,373.00507,467.95773C373.21878,467.95773,374.56046,471.6979,375.79904,475.7201C375.9603,476.2508,376.0358,476.8987,376.14474,478.72772C376.35,482.13412,376.34085,482.18268,375.658,483.3916C375.345,483.94736,375.0405,484.3964,374.9824,484.3971C374.98157,484.3971,374.9807,484.3971,374.97986,484.3971C374.73767,484.3971,374.3573,483.98672,374.2466,483.60205C374.06448,482.9457,374.17282,482.2859,374.59036,481.5643C374.78964,481.22302,375.06625,480.87112,375.21048,480.78223C375.51822,480.60422,375.81717,479.68066,375.70578,479.2752C375.6653,479.13046,375.60092,478.5986,375.55594,478.07617C375.4117,476.53815,374.82034,475.664,373.58487,475.19446C373.20508,475.05453,372.85406,474.98322,372.51144,474.98322C372.07303,474.98322,371.64832,475.09998,371.19458,475.33914C370.0205,475.95352,369.53796,476.90833,369.4818,478.70053C369.45654,479.83386,369.5904,480.50043,369.93286,480.79657C370.06024,480.92096,370.27692,481.2283,370.4157,481.49777C370.55438,481.75757,370.7525,482.13293,370.85156,482.3157C370.96027,482.49844,371.05072,482.77817,371.05267,482.94284C371.05035,483.5626,370.45087,484.451,370.0152,484.45624C370.01505,484.45624,370.0149,484.45624,370.01477,484.45624C369.91757,484.45624,369.64224,484.0821,369.2968,483.49634L368.7237,482.53476L368.71313,481.64395C368.71692,481.15005,368.74707,480.43298,368.79114,480.06445C368.84467,479.6862,368.91077,478.72668,368.9497,477.9321C369.03723,476.33322,369.0833,476.13898,370.39383,471.5234C371.1934,468.7249,371.41904,468.16055,371.9174,467.71884C371.9714,467.66907,372.02466,467.62158,372.07394,467.5789 Z M370.55508,504.71762C370.84006,504.71762,371.3248,504.84155,371.53784,504.98773C371.77216,505.14954,371.80212,505.22668,371.80823,505.73987L371.81506,506.31113L371.4948,506.2568C371.45105,506.25043,371.3964,506.24747,371.33463,506.24747C371.13626,506.24747,370.8644,506.2781,370.64343,506.32504C370.41315,506.374,370.1551,506.3992,369.81586,506.3992C369.58594,506.3992,369.31876,506.3876,368.99765,506.36404C368.38693,506.31323,367.50497,506.2559,367.03024,506.23257C366.56497,506.19937,366.21567,506.14542,366.25388,506.09656C366.30185,506.05722,366.7358,505.9068,367.20853,505.75583C368.3469,505.39374,370.26694,504.78986,370.39224,504.73993C370.43106,504.7246,370.48746,504.71762,370.55508,504.71762 Z M378.5121,417.78345C378.2632,417.78345,377.82443,417.96478,377.49054,418.25098C376.97943,418.67395,376.94418,418.7797,376.94418,419.9958C376.94418,421.05005,376.84186,421.7462,376.73212,421.7462C376.68405,421.7462,376.6346,421.6128,376.59167,421.31766C376.52118,420.87704,376.34494,420.59503,375.90433,420.31305C375.62106,420.1242,375.4075,420.0298,375.2636,420.0298C375.00467,420.0298,374.97147,420.3357,375.1641,420.94754C375.34033,421.58203,375.92194,422.23413,376.45068,422.4104C376.62692,422.4809,375.6752,424.54297,375.1288,425.2656C375.05203,425.366,374.997,425.42682,374.9505,425.42682C374.85825,425.42682,374.7995,425.18747,374.67056,424.54297C374.45908,423.46786,373.7541,422.1989,373.03146,421.5644L372.64374,421.22952L372.94336,421.67017C373.7238,422.7945,374.06738,423.41254,373.92953,423.41254C373.8837,423.41254,373.78464,423.34424,373.63074,423.20352C373.42517,423.00824,373.16568,422.90884,372.90817,422.90884C372.7241,422.90884,372.54102,422.95966,372.37936,423.0625C372.01627,423.29358,372.81238,423.7565,373.494,423.7565C373.54022,423.7565,373.58594,423.75436,373.63074,423.74988C373.7091,423.74408,373.77747,423.74066,373.8374,423.74066C374.14142,423.74066,374.22977,423.8285,374.31808,424.13763C374.56485,425.01886,374.4767,426.2526,374.1242,426.95758C373.0491,429.07254,373.01385,431.7339,374.01846,434.69482C374.37097,435.71707,374.6177,436.56305,374.60007,436.5983C374.59766,436.6007,374.59363,436.60187,374.58804,436.60187C374.51178,436.60187,374.14822,436.38278,373.7541,436.0872C373.3311,435.76993,372.36176,435.15308,371.58624,434.71246C370.28198,433.9722,370.2115,433.88406,370.15863,433.26718C370.12338,432.59744,369.66513,431.71622,369.3655,431.71622C369.25977,431.71622,369.18927,432.12158,369.18927,432.61508C369.18927,433.24527,369.17947,433.42557,369.0215,433.42557C368.9674,433.42557,368.89594,433.40442,368.8015,433.37296C367.28583,432.91476,366.45746,431.8044,365.82297,429.33694C365.25897,427.222,365.45285,425.40665,366.31647,424.4549C366.4927,424.26102,366.51035,424.13766,366.40457,424.13766C366.28122,424.13766,366.08734,423.87326,365.94635,423.55603C365.82297,423.2564,365.45285,422.7629,365.15323,422.48093L364.60687,421.95218L364.60687,422.71005C364.60687,423.36215,364.71262,423.57364,365.20612,424.04953L365.82297,424.61353L365.4705,425.72388C365.29422,426.3231,365.13562,427.01047,365.13562,427.25723C365.13562,427.40717,365.12506,427.49387,365.06528,427.49387C364.9704,427.49387,364.7516,427.2758,364.25436,426.74612C363.56702,426.00586,363.39075,425.68863,363.37314,425.19513C363.37314,424.86026,363.2145,424.3844,363.02063,424.13766C362.85068,423.92047,362.76166,423.81458,362.71292,423.81458C362.6707,423.81458,362.6587,423.89407,362.6505,424.04953C362.5824,424.74762,362.5801,425.4622,362.6436,425.4622C362.6458,425.4622,362.64813,425.4613,362.6505,425.4595C362.6552,425.45413,362.66193,425.45154,362.67053,425.45154C362.88794,425.45154,364.30908,427.11453,364.80075,427.96222C365.08273,428.45572,365.4705,429.40744,365.64673,430.07718C365.82297,430.72928,366.10495,431.5753,366.26358,431.96304C366.47626,432.42593,366.53796,432.56912,366.4424,432.56912C366.40335,432.56912,366.338,432.5452,366.24597,432.5094C366.06973,432.42126,364.81836,432.33316,363.46127,432.2979C360.09494,432.20978,360.18304,432.24503,360.30643,431.27567C360.39456,430.64117,360.34167,430.35916,359.97156,429.7247C359.72482,429.3017,359.38995,428.86105,359.24896,428.7377C359.17395,428.67422,359.11783,428.6391,359.07257,428.6391C358.97955,428.6391,358.93234,428.7874,358.8612,429.14307C358.70258,430.04193,358.9141,430.9232,359.40756,431.39902C359.81467,431.7722,359.9243,431.94946,359.71783,431.94946C359.60248,431.94946,359.38852,431.89417,359.0727,431.78677C358.05048,431.4343,356.97537,430.48254,355.88263,428.93158C355.40677,428.26184,354.84277,427.59207,354.6489,427.46872C354.60355,427.44226,354.57196,427.42877,354.55383,427.42792L354.55026,427.42792C354.49167,427.43103,354.6063,427.59686,354.87802,427.90933C355.17764,428.26184,355.44202,428.57907,355.44202,428.61432C355.44202,428.62036,355.4332,428.6233,355.4168,428.6233C355.33765,428.6233,355.0819,428.55487,354.7899,428.43808C354.36887,428.29456,353.93744,428.21857,353.55206,428.21857C353.2276,428.21857,352.93573,428.27243,352.71017,428.38522C352.53467,428.4678,352.47406,428.502,352.53543,428.502C352.57886,428.502,352.68326,428.48492,352.85117,428.45572C352.933,428.43933,353.00983,428.43143,353.0768,428.43143C353.22626,428.43143,353.32706,428.47083,353.32706,428.54382C353.32706,428.63196,353.22128,428.72006,353.0803,428.72006C352.69254,428.72006,352.0228,429.33694,351.58218,430.13004L351.1592,430.8879L351.72318,430.78217C352.8864,430.55304,353.53854,430.09482,353.89102,429.3017C354.0673,428.8787,354.27878,428.54382,354.33163,428.54382C354.38452,428.54382,354.77228,428.7377,355.19525,428.98444C356.02362,429.47794,357.38074,431.18753,356.9225,431.18753C356.55237,431.18753,355.61826,431.69867,355.61826,431.89252C355.61826,432.02365,355.80475,432.08182,356.05392,432.08182C356.441,432.08182,356.9793,431.94144,357.20447,431.71628C357.37268,431.54807,357.46063,431.46014,357.57367,431.46014C357.69745,431.46014,357.85135,431.56564,358.17383,431.78677C358.52634,432.0335,359.03745,432.26263,359.31946,432.33316C359.90106,432.4565,360.04205,432.77377,359.51334,432.77377C358.75546,432.77377,356.69336,434.02512,355.724,435.0826C355.17764,435.6642,354.73703,436.2106,354.73703,436.2987C354.73703,436.3457,354.60385,436.37704,354.4054,436.37704C354.30618,436.37704,354.19064,436.3692,354.0673,436.3516C353.934,436.33255,353.8187,436.3225,353.71793,436.3225C353.44565,436.3225,353.27945,436.39584,353.1508,436.56308C352.9393,436.8098,352.9393,436.88034,353.16843,437.02133C353.26923,437.0903,353.42435,437.12094,353.59772,437.12094C354.0002,437.12094,354.50107,436.95578,354.6489,436.7217C356.006,434.53622,357.76846,433.42587,360.94092,432.70328L361.41678,432.5975L360.9938,433.05576C360.74704,433.32013,360.5532,433.5845,360.5532,433.67264C360.5532,433.74313,360.5003,433.91937,360.44742,434.078C360.3593,434.2895,360.44742,434.36,360.81754,434.36C361.52255,434.36,362.29803,433.83124,362.52716,433.17914C362.721,432.63278,362.79153,432.5975,363.54938,432.5975C364.73022,432.5975,366.73947,433.2144,368.88965,434.21893C370.72263,435.10016,370.96936,435.2764,370.59924,435.50552C370.37012,435.6465,370.37012,436.22815,370.61688,436.68637C370.71057,436.86526,370.7631,436.9577,370.81824,436.9577C370.8772,436.9577,370.93912,436.85208,371.0575,436.6335C371.18085,436.4044,371.28662,436.06952,371.30423,435.89328C371.30423,435.72308,371.32422,435.62708,371.41812,435.62708C371.55762,435.62708,371.86023,435.83887,372.50275,436.33392C373.70123,437.26804,375.1288,438.94238,375.6047,439.99988C376.15106,441.2336,376.22156,444.68805,375.72806,446.73248C375.3932,448.1777,374.38858,450.57468,374.1242,450.57468C374.07135,450.57468,373.5426,449.8873,372.96097,449.04132C371.9564,447.5432,371.9211,447.4551,371.86826,446.1685C371.79773,444.49417,371.9564,444.0183,372.64374,443.9478C373.1196,443.89493,374.07135,443.0666,373.87747,442.8727C373.86865,442.8639,373.84113,442.8595,373.79898,442.8595C373.67258,442.8595,373.41483,442.89914,373.13724,442.97845C372.89777,443.04688,372.74542,443.0821,372.6702,443.0821C372.5904,443.0821,372.59732,443.04248,372.679,442.96082C372.80237,442.83746,372.89047,442.36157,372.89047,441.90335C372.89047,441.12787,372.81998,440.9516,372.07974,440.17612C371.62488,439.6863,371.20477,439.3006,371.1296,439.2949L371.12592,439.2949C370.95285,439.30554,371.09372,440.63693,371.33948,441.28644C371.44522,441.5508,371.7801,441.9386,372.07974,442.1501C372.37936,442.36157,372.66135,442.55545,372.69662,442.5731C372.73187,442.60834,372.59085,442.85507,372.37936,443.1547C371.85062,443.87732,371.30423,445.16388,371.16324,445.97464L371.03986,446.66196L369.89426,445.97464C369.25977,445.58688,368.37854,445.12863,367.92032,444.97006C366.93332,444.61758,366.80997,444.21222,367.60306,443.87735C368.11417,443.66586,368.48428,442.94318,368.23755,442.67886C368.22076,442.66208,368.19104,442.6543,368.15164,442.6543C368.02548,442.6543,367.80032,442.73425,367.58545,442.8551L367.07434,443.15472L367.07434,442.5026C367.07434,441.90338,367.23294,440.7049,367.4973,439.38303C367.55078,439.14246,367.5727,439.01898,367.5631,439.00812L367.55942,439.00812C367.5456,439.0177,367.50726,439.11432,367.44446,439.2949C367.3387,439.54166,367.18008,440.088,367.07434,440.52866L366.86282,441.32175L366.5456,440.7049C366.36932,440.37003,365.96396,439.84128,365.64673,439.5593L365.0651,439.03055L365.57623,439.6474C366.43985,440.7225,366.72183,441.53326,366.72183,443.11948C366.72183,443.9302,366.65134,444.58234,366.58084,444.58234C366.26358,444.58234,363.426,443.5601,362.75626,443.2076C361.5049,442.55548,361.46967,442.5026,362.01602,442.30875C362.54477,442.09726,362.89728,441.40988,362.80914,440.74014L362.75626,440.31714L362.1394,440.74014C361.68115,441.03976,361.5049,441.32175,361.43442,441.76236L361.34628,442.3616L360.79993,441.7095C360.5003,441.3394,360.1478,440.7049,360.04205,440.31714C359.90106,439.8589,359.47806,439.25967,358.87885,438.66043C358.3677,438.14932,357.90945,437.53244,357.83896,437.28568C357.74414,436.92227,357.0827,436.28967,356.84525,436.28967C356.81784,436.28967,356.79608,436.29813,356.7815,436.31635C356.74625,436.3516,356.7991,436.63358,356.8696,436.9332C356.97537,437.32095,357.275,437.63818,357.89185,438.02594C358.4911,438.39606,358.9317,438.8543,359.30182,439.5064C359.75604,440.27982,359.91953,440.71118,359.78635,440.71118C359.7283,440.71118,359.61395,440.6293,359.4428,440.45816C359.09134,440.10666,358.22064,439.87057,357.51962,439.87057C357.2715,439.87057,357.04468,439.90015,356.8696,439.96463C356.44662,440.10565,356.46423,440.1233,357.31024,440.7754C357.97308,441.2876,358.19812,441.40063,358.7778,441.40063C358.8763,441.40063,358.98508,441.39737,359.10794,441.39224C359.2878,441.38144,359.43393,441.37433,359.55524,441.37433C360.02826,441.37433,360.12445,441.48254,360.37692,441.90338C360.78232,442.55548,361.6988,443.26047,362.98538,443.87735C363.47888,444.12408,363.88425,444.38846,363.9019,444.45895C363.9019,444.51117,363.47623,444.53333,362.82083,444.53333C360.8223,444.53333,356.68744,444.3275,355.97076,444.1417C355.16,443.9302,355.16,443.9302,355.10715,442.87274C355.08954,442.4681,353.96567,441.0626,353.66357,441.0574L353.66003,441.0574C353.32773,441.06253,353.5041,442.43326,353.92627,443.04898L354.3669,443.68347L353.4504,443.31335C352.9393,443.11948,352.04044,442.80225,351.42355,442.60837C350.57758,442.344,350.08408,442.06198,349.43198,441.42752C348.46262,440.49338,348.37448,440.26428,348.99136,440.10565C349.62585,439.94702,350.1546,438.97766,350.1546,437.9907L350.1546,437.16232L349.5906,437.46194C348.69174,437.90256,348.39212,438.25507,348.39212,438.78378C348.39212,439.1611,348.32483,439.351,348.2129,439.351C348.1104,439.351,347.97052,439.19196,347.81052,438.87192C347.6695,438.53705,347.28177,437.99066,346.9645,437.63815C346.47104,437.07416,346.43576,436.93317,346.5944,436.56305C346.73538,436.26343,346.73538,435.98145,346.62964,435.68182C346.51862,435.39444,346.39304,435.26196,346.279,435.26196C346.08524,435.26196,345.92462,435.64417,345.92462,436.29868L345.92462,436.79218L345.1315,436.49255C344.497,436.2458,344.25027,436.0343,343.93304,435.41742C343.58856,434.72852,342.8685,434.02563,342.56378,434.02563C342.5255,434.02563,342.49377,434.03674,342.47018,434.06033C342.24106,434.28946,342.62878,435.15308,343.21042,435.71707C343.73917,436.21057,343.7744,436.29868,343.4748,436.29868C343.2809,436.29868,342.8932,436.49255,342.62878,436.73932L342.1353,437.1623L342.82266,437.17993C343.29855,437.17993,343.65103,437.05655,343.9154,436.80978C344.10864,436.63144,344.34503,436.54498,344.6105,436.54498C345.28943,436.54498,346.15854,437.11032,346.98215,438.1493C347.3875,438.6604,347.458,438.85428,347.29938,438.97763C347.22324,439.02524,347.0815,439.04712,346.90134,439.04712C346.41428,439.04712,345.6461,438.8872,345.1315,438.64276C344.89844,438.53455,344.77545,438.47745,344.74396,438.47516L344.7405,438.47516C344.71478,438.4776,344.7941,438.5437,344.95526,438.678C345.37827,439.01288,346.34766,439.29486,347.12314,439.29486C347.6519,439.2949,347.72238,439.36542,348.14536,440.29953C348.39212,440.8635,348.77988,441.53326,349.0266,441.78L349.46722,442.25586L348.88562,442.3616C348.55075,442.4145,348.00436,442.60837,347.6519,442.80225L347.0174,443.11945L345.85413,442.5731C345.09625,442.22058,344.6909,441.92096,344.6909,441.72708C344.6909,441.56848,344.4794,441.21597,344.21503,440.96924C343.90024,440.6824,343.67984,440.53998,343.55936,440.53864L343.5559,440.53864C343.3769,440.54068,343.42578,440.86426,343.72153,441.498C343.93304,441.92096,344.17978,442.11484,344.72614,442.27347C345.46637,442.50256,346.4534,443.1371,346.4534,443.38382C346.4534,443.63055,344.5499,444.95242,343.68628,445.30493C343.2806,445.47653,343.08215,445.59293,343.2131,445.59293C343.23007,445.59293,343.2526,445.59097,343.2809,445.5869L343.73917,445.53403L343.4043,446.18613C343.22803,446.5386,343.03418,447.1202,342.9813,447.47272L342.87555,448.12485L343.4924,447.77234C344.4794,447.19073,344.9024,446.6091,344.9905,445.76315C345.07864,445.04053,345.16675,444.91718,346.189,444.1593C347.599,443.13712,348.33923,442.81985,349.41434,442.81985C350.3132,442.81985,352.25192,443.26047,352.5163,443.52484C352.74542,443.75397,351.82895,444.72333,351.12396,445.04056C350.84195,445.16394,350.70096,445.26968,350.82434,445.28732C351.19446,445.28732,351.77606,444.9348,352.46344,444.30032C352.84393,443.9314,353.00568,443.79626,353.22006,443.79626C353.3334,443.79626,353.46143,443.834,353.6443,443.89496C354.29642,444.12408,354.3669,444.31796,353.85577,444.45895C353.6443,444.51184,353.5033,444.70572,353.5033,444.9172C353.5033,445.16156,353.602,445.279,353.74265,445.279C353.9165,445.279,354.15442,445.09958,354.34927,444.75858C354.51083,444.46484,354.6724,444.31796,354.82373,444.31796C354.85403,444.31796,354.88388,444.32385,354.91327,444.3356C355.6535,444.65283,357.09872,444.95245,358.40295,445.0582L359.84818,445.16394L358.89645,445.5517C357.38074,446.16852,354.6489,447.89575,354.29642,448.45975C354.2746,448.4925,354.23923,448.50833,354.19196,448.50833C354.0865,448.50833,353.92166,448.42953,353.71478,448.2835C353.46185,448.1028,353.27478,448.02094,353.05792,448.02094C352.95746,448.02094,352.8506,448.0385,352.7278,448.072L352.21667,448.21298L352.71017,448.60074C352.97455,448.81223,353.30942,448.98846,353.4504,448.98846C354.04965,448.98846,353.22128,449.76398,351.96994,450.36322C350.89484,450.87433,350.3661,450.9977,349.25574,451.0682C348.9854,451.08664,348.73438,451.09436,348.522,451.09436C348.12515,451.09436,347.86337,451.06738,347.86337,451.03296C347.86337,450.96246,347.9515,450.73334,348.05725,450.53946C348.26874,450.1341,347.881,448.82986,347.42276,448.45972C347.36896,448.4157,347.3233,448.3907,347.28204,448.3907C347.17456,448.3907,347.09677,448.56036,346.98215,449.00607C346.61203,450.3632,347.19363,451.27966,348.44498,451.2797L349.18524,451.2797L348.6036,451.73795C348.0396,452.17856,347.22888,453.518,347.40512,453.69424C347.42087,453.71225,347.45532,453.7205,347.5042,453.7205C347.838,453.7205,348.84476,453.33652,349.1676,453.05978C349.34384,452.90118,349.64346,452.44293,349.83734,452.01993C350.03122,451.5793,350.2956,451.2797,350.47183,451.2797C350.63046,451.2621,351.19446,451.12106,351.68796,450.94482C352.14,450.78894,352.5231,450.6744,352.60562,450.6744C352.6164,450.6744,352.62204,450.6764,352.62204,450.68045C352.62204,450.7157,352.46344,451.01532,352.26956,451.36783C350.7891,453.9939,350.50708,454.928,350.93008,455.5449L351.17682,455.89737L351.3707,455.5449C351.63507,455.0514,351.61743,454.6284,351.3178,454.29352C351.0887,454.02914,351.19446,453.7824,352.3048,451.98468C353.78528,449.5701,354.1554,449.11185,355.2834,448.24823C356.21933,447.54977,357.84174,446.7295,358.16733,446.72647L358.1709,446.72647C358.25238,446.72723,358.24707,446.78265,358.12097,446.90875C357.73322,447.2965,357.9976,449.5172,358.4206,449.5172C358.9141,449.5172,359.14322,447.54324,358.70258,446.94403C358.47345,446.59152,358.4911,446.55627,358.9317,446.3448C359.3,446.18695,360.83755,445.66263,361.02637,445.6401L361.02997,445.6401C361.0424,445.64975,360.93774,445.89258,360.78232,446.18616C360.6413,446.46814,360.5708,446.76776,360.6237,446.82065C360.6571,446.85684,360.7055,446.87326,360.76407,446.87326C361.07602,446.87326,361.67654,446.4078,361.83978,445.9923C361.9984,445.5517,362.15704,445.46356,362.80914,445.35782C363.05695,445.31653,363.49826,445.2994,363.98074,445.2994C364.32193,445.2994,364.68372,445.30798,365.01224,445.32257C367.0391,445.4283,368.14944,445.9923,369.9824,447.8252C371.51575,449.35855,372.27362,450.6628,372.78473,452.63678C373.1196,453.90576,373.13724,454.46973,372.87286,455.6682L372.679,456.56708L371.9211,455.54486C371.4981,454.99844,370.74023,454.22296,370.24677,453.8352C369.25977,453.07736,368.39615,451.96698,368.2023,451.2092C368.12927,450.91708,368.07123,450.78754,368.03763,450.78284L368.03397,450.78284C367.98264,450.79037,367.9961,451.12076,368.11417,451.61456C368.21957,452.0964,368.22208,452.28238,368.13266,452.28238C368.1174,452.28238,368.0995,452.27698,368.07895,452.2667C366.77472,451.7027,365.57623,451.2621,365.10037,451.19156C364.9004,451.1593,364.7736,451.14124,364.7252,451.14075L364.72156,451.14075C364.646,451.14154,364.79895,451.19388,365.20612,451.31494L365.89346,451.54407L365.24136,451.8437C364.88885,452.01993,364.60687,452.23145,364.60687,452.3372C364.60687,452.46225,364.78488,452.51883,365.0254,452.51883C365.39502,452.51883,365.91226,452.38516,366.15784,452.16095C366.3092,452.01563,366.4169,451.9244,366.5688,451.9244C366.85904,451.9244,367.31073,452.25754,368.53714,453.1831C369.4459,453.87198,369.70862,454.17084,369.37598,454.17084C369.30862,454.17084,369.2169,454.15857,369.10114,454.13483C369.0565,454.12738,369.01047,454.12387,368.96387,454.12387C368.5689,454.12387,368.1318,454.37616,368.1318,454.6284C368.1318,454.79834,368.43228,454.89453,368.7696,454.89453C369.02698,454.89453,369.30582,454.8385,369.4889,454.71646C369.64868,454.61334,369.77383,454.54947,369.89645,454.54947C370.1931,454.54947,370.47525,454.92334,371.1985,456.0207C372.27362,457.62457,372.30887,457.88895,371.74484,459.45755L371.26898,460.76172L370.6521,460.07437C370.0,459.35175,368.27277,458.18854,367.25058,457.80084C366.9157,457.67746,366.40457,457.39548,366.10495,457.184C365.15323,456.479,364.53638,456.2675,362.75626,455.95026C360.90567,455.633,359.84818,455.36862,359.84818,455.21002C359.84818,455.15714,360.04205,454.89276,360.28882,454.59314C360.65894,454.15253,360.72943,453.88815,360.72943,452.95404C360.72943,452.3372,360.65894,451.79083,360.5708,451.73795C360.5595,451.73068,360.5466,451.72717,360.5323,451.72717C360.23413,451.72717,359.31946,453.24344,359.31946,453.76477C359.31946,454.02914,359.38995,454.45215,359.4957,454.71652C359.5965,454.96854,359.63965,455.07642,359.56247,455.07642C359.50473,455.07642,359.3796,455.01602,359.16083,454.9104C358.68497,454.66364,358.13858,454.08203,357.59222,453.2889C357.5166,453.1679,357.47018,453.10208,357.45575,453.09558L357.45218,453.09558C357.4431,453.10352,357.48224,453.20068,357.57462,453.39465C357.69797,453.64142,357.94473,454.04678,358.12097,454.31116C358.45584,454.80463,358.45584,454.80463,358.08572,454.80463C357.89185,454.80463,357.46884,454.928,357.16922,455.08664C356.74625,455.29813,356.67575,455.40387,356.8696,455.52725C357.03082,455.62537,357.2171,455.6733,357.41074,455.6733C357.70404,455.6733,358.0142,455.56332,358.27957,455.351C358.4911,455.1836,358.60123,455.09985,358.7246,455.09985C358.848,455.09985,358.9846,455.1836,359.24896,455.351C359.54855,455.52725,360.5708,455.87976,361.54016,456.1441C363.69037,456.70813,364.07813,456.90198,363.07352,456.91962C361.7869,456.91962,359.81293,457.43073,358.96695,457.97708C358.5087,458.2591,357.62747,459.08746,356.97537,459.81006C356.34088,460.51505,355.53012,461.27292,355.17764,461.4668C354.8801,461.64532,354.70813,461.7485,354.63657,461.7485C354.53857,461.7485,354.62888,461.55502,354.84277,461.09668C355.0895,460.58554,355.0895,460.35645,354.91327,459.51044C354.80753,458.96408,354.6489,458.47058,354.56076,458.41772C354.5528,458.41266,354.54398,458.4102,354.53442,458.4102C354.31155,458.4102,353.67953,459.74295,353.67953,460.23306C353.67953,460.4622,353.80292,460.9204,353.9439,461.27292C354.1554,461.78403,354.17303,461.94266,353.9968,462.0484C353.96243,462.069,353.93143,462.0796,353.90323,462.0796C353.78683,462.0796,353.71866,461.89932,353.6619,461.502C353.5914,461.02618,353.36227,460.58554,352.97455,460.18018C352.63968,459.8453,352.32242,459.56332,352.26956,459.56332C352.19907,459.56332,352.21667,459.9687,352.26956,460.4798C352.35767,461.16718,352.4987,461.4668,352.85117,461.76642C353.46805,462.24228,353.4504,462.38327,352.7983,462.38327C352.4458,462.38327,352.04044,462.17178,351.56458,461.74878C351.20078,461.42453,350.9789,461.26352,350.9038,461.261L350.9003,461.261C350.81494,461.26407,350.9454,461.5,351.3002,461.96027L351.7408,462.5419L351.17682,462.6124C350.97574,462.64594,351.05792,462.6582,351.34708,462.6582C351.51407,462.6582,351.7501,462.6541,352.04044,462.64764C352.41925,462.6336,352.6988,462.6233,352.9021,462.6233C353.465,462.6233,353.44357,462.70233,353.32706,463.00012C353.23892,463.22925,353.23892,463.63464,353.30942,463.899L353.4328,464.37488L353.83817,463.86374C354.10254,463.52887,354.20828,463.194,354.17303,462.87677C354.10254,462.45377,354.17303,462.36566,354.66653,462.20703C354.98376,462.1013,355.56537,461.78403,355.95313,461.4844L356.67575,460.9733L356.56998,461.71353C356.51712,462.13654,356.39374,462.73578,356.30563,463.07062C356.2175,463.40552,356.19986,463.72275,356.23514,463.77563C356.24435,463.78177,356.25302,463.7847,356.26108,463.7847C356.2992,463.7847,356.32324,463.71887,356.32324,463.617C356.32324,463.58865,356.33466,463.57526,356.3557,463.57526C356.43948,463.57526,356.67612,463.78665,356.95773,464.1105C357.35776,464.5905,357.61023,464.82086,357.7538,464.82086C357.86328,464.82086,357.90945,464.68695,357.90945,464.42773C357.90945,463.72275,357.55698,462.9649,357.09872,462.71814C356.711,462.52426,356.6581,462.40088,356.76385,461.87216C357.13397,459.8982,358.82596,458.2591,360.90567,457.88898C361.1296,457.8506,361.27225,457.8261,361.3454,457.8257L361.34903,457.8257C361.47214,457.82642,361.38596,457.9003,361.15244,458.10046C360.94092,458.29434,360.69418,458.59396,360.5708,458.80545C360.3593,459.22845,360.30643,461.14954,360.51794,461.14954C360.79993,461.14954,361.92792,459.8277,362.03366,459.36945C362.08652,459.12268,362.05127,458.66446,361.96317,458.36484L361.80453,457.80084L362.89728,457.80084C364.14862,457.80084,365.4176,458.10046,366.4927,458.64682C367.21533,459.01694,367.60306,459.3871,367.28583,459.3871C367.0038,459.3871,365.4881,460.81467,365.20612,461.3434C365.01224,461.71353,364.81836,461.85452,364.46585,461.85452C363.9019,461.85452,363.09116,462.34802,363.54938,462.40088C363.8298,462.44012,364.05667,462.45978,364.23853,462.45978C364.62817,462.45978,364.81116,462.36963,364.87125,462.1894C364.9241,462.03076,365.17087,461.71353,365.4176,461.4844L365.87585,461.0614L365.75247,461.4668C365.619,461.89688,365.9847,462.62646,366.25104,462.62646C366.3012,462.62646,366.34784,462.6006,366.38696,462.5419C366.59845,462.20703,366.58084,461.20242,366.36932,461.0614C366.26358,460.9909,366.22833,460.86755,366.29883,460.77942C366.45746,460.51505,367.72644,459.9158,368.11417,459.9158L368.1142,459.9158C368.59006,459.9158,369.43604,461.04376,370.19388,462.68283C370.62195,463.60013,370.76993,463.95724,370.86163,464.93808L370.85794,464.93808C370.79144,465.1946,370.72656,465.52045,370.67508,465.8646C370.4589,467.22293,370.3085,467.61206,368.79724,470.81613C367.09705,474.4195,366.88184,475.05148,366.72827,476.79645C366.6765,477.3297,366.53632,478.57092,366.41254,479.56018C366.27112,480.6949,366.18094,482.07117,366.15677,483.29166C366.12112,485.18048,366.12204,485.2579,366.39627,486.32962C366.69083,487.4785,366.84085,487.88345,367.22546,488.4695C367.3736,488.70987,367.48474,489.09592,367.54922,489.6278C367.68686,490.61395,367.97153,491.7533,368.43295,493.0939C368.7843,494.13553,369.06506,495.75916,369.1197,497.09488L369.1477,497.8209L368.7175,498.28122C368.20102,498.82968,366.93527,499.88095,366.66544,499.99066C366.5497,500.03082,366.2228,500.22833,365.9346,500.42545C365.6464,500.62256,365.3384,500.78122,365.25125,500.78226C364.88333,500.78662,362.28088,501.81503,359.9597,502.8789C358.09097,503.72424,356.24405,504.7631,356.0634,505.0461C356.03506,505.10452,355.86203,505.2131,355.69833,505.29248C355.52487,505.3624,355.2465,505.56903,355.07425,505.7454C354.13654,506.69598,354.25574,507.7598,355.3565,508.2987C355.97842,508.60046,356.73752,508.74747,358.14185,508.74747C359.33255,508.74747,360.9871,508.64178,363.41522,508.43512C366.00623,508.20905,367.57465,508.10562,368.5142,508.10562C368.87958,508.10562,369.14987,508.12128,369.34818,508.15143C369.82364,508.23294,370.4988,508.81567,370.7866,509.40295C370.9059,509.663,371.11685,510.29962,371.25876,510.83063C371.39096,511.36163,371.6111,511.95944,371.749,512.1515C371.92654,512.42053,371.98727,512.6426,371.9921,513.0492C371.99756,513.50726,372.0172,513.5795,372.18466,513.5795C372.1871,513.5795,372.1896,513.57947,372.1921,513.57947C372.19296,513.57947,372.1938,513.57947,372.19464,513.57947C372.4343,513.57947,372.45782,514.0051,372.24545,514.8087C372.17166,515.1195,372.09305,515.83704,372.09018,516.4084C372.0776,516.97986,371.99924,517.7168,371.9258,518.05664C371.28024,520.7759,371.22873,521.3284,371.48257,523.12665C371.80984,525.3986,371.81888,526.1539,371.53616,527.62915C371.3995,528.3474,371.24423,529.1337,371.20834,529.3762C371.1628,529.61884,371.11478,530.462,371.09518,531.2563C371.07205,532.57355,371.08347,532.7187,371.26126,533.007C371.36984,533.1801,371.45963,533.4018,371.4608,533.4986C371.46207,533.6051,371.532,533.78827,371.62057,533.90344C371.7187,534.04694,371.81573,534.09705,372.00073,534.09705C372.03867,534.09705,372.0803,534.095,372.12637,534.0911C372.43588,534.05835,372.48392,534.02875,372.46225,533.8354C372.44217,533.7014,372.456,533.63336,372.5038,533.63336C372.55606,533.63336,372.6489,533.71466,372.78232,533.87994C372.8981,534.01984,372.95203,534.0842,373.02115,534.0842C373.07526,534.0842,373.13867,534.0448,373.24832,533.97125C373.35696,533.89166,373.45337,533.8439,373.48648,533.8439C373.49432,533.8439,373.49863,533.84656,373.4987,533.8521C373.499,533.87744,373.51102,533.88873,373.53165,533.88873C373.65277,533.88873,374.07028,533.5001,374.15054,533.29236C374.2722,532.9422,374.16275,532.6918,373.5627,531.9144C373.05124,531.2523,372.96085,530.98224,372.95914,530.02356C372.9473,529.02625,373.066,528.4244,373.69113,526.43176C373.94278,525.6056,374.24033,524.56586,374.3511,524.1094C374.94196,521.6813,374.91583,521.92377,374.95233,518.4854L374.9912,515.2408L375.31744,514.1717C375.50403,513.57874,375.74567,512.7333,375.8565,512.27686C376.10608,511.27643,376.3675,510.4598,376.88245,508.97205C377.77234,506.44363,378.0704,504.63876,377.9222,502.76187C377.80655,501.18472,377.71585,500.8856,376.86322,499.22043C376.1196,497.7669,376.06955,497.632,376.06265,497.051C376.05008,495.99557,376.2999,494.20105,376.55258,493.462C376.91782,492.4215,377.41592,490.33353,377.51248,489.48987C377.5732,488.90808,377.66647,488.60672,377.93222,488.1484C378.32114,487.46594,378.6921,486.0864,378.83157,484.78705C379.05917,482.75073,378.50882,477.1986,377.86496,475.17258C377.54276,474.14023,377.22427,473.41772,376.12314,471.21317C374.76407,468.4984,374.08664,466.90857,374.0013,466.25107C373.9207,465.61853,373.68036,464.72906,373.50644,464.34546L373.50272,464.34546C373.39694,461.95966,374.18335,460.0021,376.15106,457.46594C377.20493,456.0901,377.56592,455.73526,378.16278,455.73526C378.2846,455.73526,378.41626,455.75006,378.56564,455.77396C379.49976,455.9326,381.64996,456.8138,382.19635,457.27206C382.49594,457.51883,382.6017,457.76556,382.54883,458.18857C382.49594,458.69968,382.44308,458.77017,381.96722,458.77017C381.6676,458.77017,381.19174,458.9288,380.90973,459.12265L380.38098,459.47516L381.0331,459.52805C381.09552,459.5343,381.16125,459.5372,381.22836,459.5372C381.54016,459.5372,381.8813,459.47406,382.05533,459.38705C382.17377,459.32434,382.25366,459.28918,382.30698,459.28918C382.3885,459.28918,382.40784,459.37146,382.40784,459.5633C382.40784,460.10965,381.77335,461.643,381.26224,462.31274C380.83923,462.87674,379.676,463.61697,379.23538,463.61697C379.12964,463.61697,378.91815,463.72272,378.79477,463.8637C378.5304,464.12808,378.2484,465.02695,378.42465,465.02695C378.79477,465.02695,379.57025,464.44534,379.6584,464.11047C379.71127,463.8637,380.099,463.51123,380.62775,463.22922C381.77335,462.59473,382.56647,461.4315,383.0247,459.66904L383.3948,458.27667L383.8178,458.9288C384.1174,459.4399,384.25842,460.0215,384.38177,461.30814C384.45227,462.24225,384.59326,463.2116,384.6814,463.47598C384.84003,463.89896,384.80478,463.95184,384.27603,464.03995C383.58868,464.16333,383.2362,464.53348,382.84845,465.44995L382.56647,466.1197L383.14807,465.9963C383.97644,465.83768,384.59326,465.32657,384.66376,464.79782C384.69904,464.53348,384.78714,464.32196,384.87527,464.32196C385.29825,464.32196,385.35114,466.15494,384.94577,466.78943L384.66376,467.23004L385.03387,466.80704C385.2454,466.5779,385.404,466.15494,385.404,465.85532L385.404,465.30893L386.16187,466.0668C386.56723,466.4898,387.06073,466.9128,387.2546,467.00092C387.2884,467.01935,387.31094,467.02814,387.3229,467.02814C387.37958,467.02814,387.19852,466.8307,386.84924,466.52505C386.44388,466.17258,385.91513,465.5557,385.686,465.15033C385.22778,464.39246,384.87527,462.70047,384.87527,461.361C384.87527,460.8388,384.89462,460.6744,385.05505,460.6744C385.11124,460.6744,385.18466,460.69455,385.28064,460.72653C386.00323,460.93802,386.6025,461.30814,387.1841,461.88974C387.3933,462.09894,387.5412,462.2162,387.58734,462.2162C387.61118,462.2162,387.60785,462.1849,387.57184,462.11887C387.27222,461.5725,386.44388,460.84988,385.58026,460.39163C384.60556,459.87283,384.44418,459.4943,385.1587,459.49362L385.16254,459.49362C385.24814,459.49368,385.34622,459.49915,385.45688,459.5104C385.59875,459.5268,385.73218,459.5347,385.8509,459.5347C386.1156,459.5347,386.30707,459.4953,386.35574,459.42227C386.51508,459.16733,385.92532,458.8836,385.32886,458.8836C385.26556,458.8836,385.2022,458.88678,385.13965,458.89355C385.0498,458.90353,384.97128,458.90912,384.90155,458.90912C384.602,458.90912,384.46524,458.80603,384.29364,458.5058C383.57108,457.3073,381.45612,455.80923,379.69363,455.26285C379.14725,455.0866,378.70663,454.8751,378.70663,454.8046C378.70663,454.4702,382.01068,452.51895,382.58167,452.5134L382.58548,452.5134C382.6897,452.51514,382.67142,452.70877,382.49594,453.04214C382.35495,453.32413,382.2316,453.67664,382.2316,453.83524C382.2316,453.93976,382.27588,453.985,382.34732,453.985C382.61328,453.985,383.2559,453.35855,383.3948,452.83063L383.57108,452.26666L383.8707,453.0774C384.135,453.76474,384.32892,453.95862,385.13965,454.38162C385.58395,454.61856,385.9909,454.7684,386.16183,454.7684C386.19434,454.7684,386.2183,454.763,386.23236,454.75174C386.47913,454.48737,385.52737,452.97165,384.92813,452.68964C384.6109,452.54865,384.34653,452.35477,384.34653,452.26666C384.34653,452.20438,384.54086,452.17578,384.87366,452.17578C385.8591,452.17578,388.0586,452.42648,390.0217,452.79538C392.01328,453.18314,392.55966,453.34177,393.1589,453.78238L393.8815,454.32874L393.22937,454.69885C392.52713,455.09082,392.47562,455.392,393.08884,455.392C393.1374,455.392,393.19012,455.3901,393.247,455.38623C393.33597,455.3803,393.40997,455.37585,393.47125,455.37585C393.77426,455.37585,393.76688,455.48425,393.7229,456.05597C393.65237,456.74332,394.11063,458.32956,394.375,458.32956C394.4455,458.32956,394.65698,457.88895,394.85086,457.3602C395.11523,456.56708,395.13287,456.2851,394.97424,455.8621C394.86984,455.5664,394.81702,455.3394,394.86646,455.33347L394.8704,455.33347C395.01007,455.34952,396.86008,456.99072,396.86008,457.11346C396.86008,457.184,396.70148,457.2721,396.50757,457.32498C396.13745,457.4131,395.6616,458.2591,395.8731,458.45294C395.9047,458.48715,395.95084,458.5025,396.00665,458.5025C396.3245,458.5025,396.95612,458.00467,397.0011,457.65985C397.03546,457.41937,397.0698,457.29608,397.17758,457.29608C397.29095,457.29608,397.48563,457.4326,397.8471,457.7127C398.67545,458.34723,398.88696,459.14032,398.60495,460.5503C398.46396,461.2553,398.28772,461.67828,398.1467,461.67828C397.82947,461.67828,397.2126,462.31277,397.2126,462.64764C397.2126,462.78864,397.35358,462.91202,397.52985,462.91202C397.9881,462.91202,398.6226,462.17178,398.6226,461.64304C398.6226,461.3963,398.72833,460.86755,398.86935,460.4798C399.02795,460.03918,399.08084,459.4928,399.02795,459.10507C398.95682,458.69254,398.96606,458.5326,399.07422,458.5326C399.10007,458.5326,399.13156,458.54172,399.16895,458.55872C399.30994,458.61157,399.83868,458.80545,400.34982,458.96408C401.1958,459.24606,401.2663,459.31656,401.2663,459.8453C401.2663,460.2683,401.4249,460.5503,401.88315,460.95566C402.23566,461.2553,402.58813,461.502,402.67627,461.502C402.95828,461.502,402.87015,460.1978,402.57053,459.7748C402.30615,459.4047,402.32376,459.3871,402.9054,459.3871C403.487,459.3871,405.4081,458.8936,405.28473,458.7702C405.28012,458.7656,405.26807,458.7634,405.24924,458.7634C405.12366,458.7634,404.69785,458.86136,404.192,458.99933C403.72098,459.1296,403.39243,459.1915,403.0346,459.1915C402.76312,459.1915,402.47482,459.15588,402.09467,459.08746C401.49542,458.9817,400.7728,458.80545,400.4908,458.6997L399.9973,458.50583L401.01956,457.97708C402.1299,457.43073,403.38126,456.39087,403.38126,456.03836C403.38126,455.95468,403.36655,455.91022,403.32416,455.91022C403.2862,455.91022,403.2261,455.94583,403.13452,456.02075C403.06348,456.07886,403.0161,456.11096,402.9872,456.11096C402.9372,456.11096,402.94238,456.01498,402.9759,455.79163C403.08163,455.26288,402.69388,454.52264,401.9008,453.76477L401.2663,453.14792L401.2663,454.17017C401.2663,455.1219,401.31918,455.24524,401.95364,455.87976C402.57053,456.4966,402.60577,456.58472,402.3414,456.81384C402.00653,457.11346,399.80344,458.15332,399.4862,458.15332C399.01035,458.15332,396.82483,456.46136,395.3091,454.92798L393.65237,453.27127L394.516,453.1479C395.5735,453.00693,396.7191,452.47818,398.5168,451.31494C399.2747,450.80383,399.96207,450.39844,400.03256,450.39844C400.10306,450.39844,400.29694,450.59235,400.45557,450.83908C400.6318,451.12106,400.9138,451.2797,401.17816,451.2797C401.74216,451.2797,401.74216,451.03296,401.16055,450.45132C400.7023,450.0107,400.7023,449.97546,401.01956,449.72873C401.56592,449.32336,403.78665,448.2835,404.1215,448.2835C404.29776,448.2835,404.43875,448.3716,404.43875,448.45975C404.43875,448.70648,405.24948,449.5172,405.49622,449.5172C405.81348,449.5172,405.6901,448.98846,405.24948,448.54785L404.8265,448.12488L405.51385,448.16013C405.54984,448.16132,405.5846,448.16196,405.6183,448.16196C406.0793,448.16196,406.33575,448.0444,406.72995,447.66663C407.3644,447.0497,407.38205,446.944,406.83572,446.803C406.7277,446.7776,406.6191,446.76535,406.512,446.76535C406.02496,446.76535,405.56876,447.01852,405.33762,447.4375C405.16135,447.77237,404.87936,447.91336,404.1215,448.072C403.57513,448.16013,402.9759,448.30112,402.81726,448.3716C402.77734,448.3873,402.74332,448.39468,402.71478,448.39468C402.39084,448.39468,402.7805,447.44193,403.36365,446.89114C403.66327,446.60913,403.91,446.2919,403.91,446.16852C403.91,446.0719,404.0571,445.99005,404.25723,445.99005C404.27615,445.99005,404.29556,445.99078,404.31537,445.9923C404.4649,446.00473,404.6673,446.01718,404.8291,446.01718C404.89618,446.01718,404.95627,446.01505,405.00275,446.0099C405.4081,445.9923,406.14835,445.28732,406.28934,444.79382C406.39508,444.44135,406.3422,444.4061,405.6901,444.4061C405.14374,444.4061,404.9146,444.51184,404.63263,444.86432L404.28012,445.30496L404.20963,444.6352C404.1761,444.31668,404.1585,444.15366,404.1474,444.15366C404.13513,444.15366,404.13074,444.3519,404.1215,444.75858C404.08624,445.51645,403.55753,446.69727,403.22263,446.69727C403.15213,446.69727,403.02878,446.11566,402.99353,445.4283C402.94064,444.72333,402.7644,443.8597,402.60577,443.52484C402.50552,443.31317,402.44046,443.18604,402.42395,443.17007L402.41992,443.17007C402.41885,443.17715,402.42755,443.20654,402.44714,443.26047C402.50003,443.45435,402.58813,444.22983,402.64102,444.9877C402.72916,446.76776,402.44714,447.79,401.6188,448.61835C400.80804,449.4291,397.67084,451.38544,396.26083,451.94943C395.3941,452.30765,394.2167,452.4992,393.08633,452.4992C392.4928,452.4992,391.91223,452.44638,391.39642,452.33716C390.3918,452.12564,389.95117,451.8084,390.6562,451.8084C390.83243,451.8084,391.43167,451.5264,391.99567,451.19153L393.01788,450.59232L393.49377,450.9448C393.73077,451.11996,393.8774,451.19876,394.06046,451.19876C394.19052,451.19876,394.33896,451.159,394.55124,451.0858L395.15048,450.8743L394.67462,450.4513C394.41025,450.2398,394.07538,450.04593,393.91675,450.04593C393.75812,450.04593,393.98724,449.65817,394.5865,448.93558C395.01498,448.44995,395.2583,448.12637,395.23196,448.11496L395.228,448.11496C395.2189,448.11722,395.19916,448.1319,395.16812,448.1601C394.99496,448.30026,394.90283,448.37485,394.861,448.37485C394.81342,448.37485,394.83096,448.27832,394.86847,448.07196C394.90375,447.82523,394.76273,447.47272,394.516,447.1555L394.09302,446.62674L393.8639,447.29648C393.67,447.91333,393.68762,448.01907,394.04013,448.5126L394.4455,449.04132L393.67,449.71106C393.247,450.08118,392.68304,450.50418,392.41864,450.6628L391.94278,450.9448L392.1895,450.3279C392.33054,449.97543,392.45392,449.4467,392.45392,449.12946L392.45392,448.54782L391.8018,449.19995C391.27304,449.7287,391.1497,449.99307,391.1144,450.60992C391.0968,451.3149,391.04395,451.3854,390.40942,451.61453C390.11475,451.7096,389.8508,451.7585,389.47937,451.7585C389.16214,451.7585,388.7665,451.72284,388.20633,451.64978C387.36035,451.54404,385.96802,451.4559,385.06915,451.4559C383.48294,451.4559,383.21857,451.35016,383.7297,450.92715C383.8707,450.8038,383.99405,450.57468,383.99405,450.41605C383.99405,450.2967,383.9845,450.23953,383.95792,450.23953C383.93344,450.23953,383.89456,450.2879,383.83545,450.3808C383.78406,450.46152,383.7449,450.50253,383.71036,450.50253C383.66193,450.50253,383.6225,450.422,383.57108,450.25742C383.45093,449.912,382.69083,449.2594,382.46872,449.2594C382.43018,449.2594,382.40784,449.27902,382.40784,449.32333C382.40784,449.7287,382.79556,450.50418,383.13046,450.76855C383.50058,451.03293,383.50058,451.03293,383.07758,451.3149C382.8661,451.4559,382.44308,451.63217,382.14346,451.70267C380.1166,452.19614,377.4553,453.69424,375.6752,455.31573L374.67056,456.2322L374.77634,455.21C374.8997,453.92337,376.08057,451.19153,376.73267,450.68042C376.99704,450.48654,377.5258,450.0283,377.91354,449.65817C378.5128,449.12946,378.91815,448.93558,380.20474,448.63596C383.41245,447.87808,383.99405,447.70184,384.99866,447.22598C385.56262,446.9616,386.40863,446.4505,386.86688,446.098C387.3461,445.72937,387.59402,445.57492,387.7719,445.57492C387.84915,445.57492,387.9132,445.60403,387.97723,445.6574C388.0716,445.73465,388.17435,445.77426,388.32202,445.77426C388.47772,445.77426,388.68335,445.73022,388.98184,445.63977L389.70444,445.42828L389.21094,445.1639C388.99948,445.05112,388.709,444.97217,388.51105,444.97217C388.46158,444.97217,388.41785,444.97708,388.3826,444.98767C388.2795,445.01456,388.20267,445.0312,388.15143,445.0312C388.00116,445.0312,388.07135,444.88815,388.34735,444.4413C388.39047,444.37665,388.40298,444.34467,388.38907,444.3423L388.38516,444.3423C388.33054,444.34943,388.03964,444.62198,387.62473,445.0758C386.16187,446.62674,384.15265,447.56085,381.35037,447.94858C380.62775,448.0367,379.86987,448.1777,379.676,448.2306C379.65576,448.23526,379.63858,448.23758,379.6244,448.23758C379.47787,448.23758,379.65372,447.9885,380.1519,447.49036C380.6101,447.0321,381.26224,446.098,381.61472,445.42828C382.2316,444.26505,382.2492,444.19455,381.93198,443.96545C381.72397,443.79706,381.39902,443.7066,381.15433,443.7066C380.96362,443.7066,380.82162,443.76154,380.82162,443.87732C380.82162,443.98306,381.0331,444.1593,381.3151,444.26505C381.57947,444.38843,381.82623,444.49417,381.86148,444.5118C382.1787,444.7409,379.64075,447.4551,378.08978,448.54782C377.51605,448.9474,377.19843,449.1385,377.0607,449.1385C376.9615,449.1385,376.95563,449.03934,377.01468,448.84744C377.06754,448.6888,377.22617,447.82523,377.3848,446.9616C377.7549,444.77618,378.68903,442.89032,380.1519,441.4275C382.49594,439.06577,384.78714,437.8849,387.06073,437.8849C388.5941,437.8849,388.98184,438.0259,388.84082,438.48413C388.57648,439.3125,388.55884,439.8236,388.75272,440.42285C388.84827,440.7414,389.0014,440.95917,389.10803,440.95917C389.11942,440.95917,389.13025,440.9567,389.14044,440.9516C389.49295,440.72247,389.9688,439.40063,389.86307,438.88953L389.75732,438.3784L390.5328,438.78375C390.9558,438.99527,391.48453,439.29486,391.71365,439.43588L392.11902,439.70026L391.6608,440.07037C391.34354,440.3171,391.20255,440.58148,391.25543,440.84586C391.28635,441.0417,391.31122,441.12903,391.40762,441.12903C391.47607,441.12903,391.5806,441.085,391.7489,441.0045C391.97803,440.8811,392.27765,440.61673,392.3834,440.3876C392.45526,440.24387,392.50293,440.15585,392.60446,440.15585C392.77682,440.15585,393.10452,440.40952,393.96964,441.07498C394.72748,441.67422,395.5206,442.25586,395.69684,442.39688C395.8731,442.52023,396.0846,442.9256,396.1551,443.29572C396.2286,443.645,396.2638,443.8121,396.28314,443.8121C396.30087,443.8121,396.30527,443.67136,396.31372,443.40146L396.33136,442.8375L397.05396,443.08423C397.52252,443.2546,397.8052,443.33633,397.902,443.33633C398.04553,443.33633,397.78046,443.15668,397.1068,442.81985C396.54285,442.53787,395.64398,441.93863,395.15048,441.5156L394.21637,440.7401L394.939,440.35236C395.29938,440.1722,395.49133,440.089,395.633,440.089C395.7546,440.089,395.8391,440.1503,395.96124,440.26428C396.15445,440.43716,396.57068,440.53375,396.92206,440.53375C397.17966,440.53375,397.4024,440.48184,397.477,440.37003C397.61798,440.1409,397.0011,439.82364,396.41946,439.82364C396.13745,439.82364,395.99646,439.75314,396.067,439.6298C396.08722,439.6045,396.0813,439.5923,396.05386,439.5923C395.9857,439.5923,395.78452,439.6678,395.5206,439.80603C395.07693,440.04214,394.70883,440.16788,394.33368,440.16788C393.78482,440.16788,393.22092,439.89877,392.3834,439.3125C390.19794,437.8144,388.64697,437.1094,387.3075,437.0389C386.63776,437.00366,386.109,436.91553,386.109,436.84506C386.109,436.56305,388.9466,435.66418,390.33893,435.50555L391.3083,435.3822L391.6079,436.06955C391.8194,436.5102,392.1895,436.89792,392.71826,437.21515C393.2192,437.5171,393.54916,437.67743,393.7227,437.67743C393.9948,437.67743,393.88214,437.28305,393.4409,436.42206L393.03552,435.5937L394.74573,435.5937C395.67975,435.5937,396.8602,435.5232,397.37122,435.41745C397.63196,435.3709,397.8681,435.3465,398.0855,435.3465C398.691,435.3465,399.151,435.5359,399.59195,435.96384C399.90768,436.2578,400.3445,436.41727,400.73206,436.41727C400.97183,436.41727,401.19275,436.3562,401.35443,436.2282C401.65402,435.98148,401.67166,435.9286,401.44254,435.76996C401.26956,435.65753,400.99896,435.60025,400.73904,435.60025C400.46933,435.60025,400.2111,435.66193,400.08545,435.7876C400.03192,435.8411,399.9744,435.86853,399.9061,435.86853C399.7719,435.86853,399.5962,435.76273,399.32758,435.54083L398.78122,435.0826L399.52145,434.7125C400.29694,434.30713,401.7069,433.091,401.98892,432.5799C402.0053,432.54712,402.00644,432.5308,401.99408,432.52936L401.99005,432.52936C401.92578,432.53552,401.6166,432.81122,401.1958,433.23203C400.57413,433.84296,400.13498,434.1801,399.99725,434.1801C399.9085,434.1801,399.94495,434.04013,400.13834,433.74313C400.47318,433.23203,400.40268,431.98065,400.01492,431.11703L399.7858,430.64117L399.39807,431.39902C398.9222,432.28027,398.88696,433.0205,399.23947,433.655C399.38046,433.90173,399.4862,434.18375,399.5038,434.30713C399.5038,434.5891,398.02335,435.06497,396.70148,435.18835L395.5735,435.2941L395.85547,434.87112C396.0141,434.642,396.1551,434.18375,396.1551,433.83124L396.13745,433.2144L395.69684,433.7255C395.362,434.09558,395.25623,434.37756,395.32672,434.76532L395.39722,435.29407L393.96964,435.1707C393.1765,435.1002,392.11902,435.0121,391.6079,434.9416L390.6914,434.83582L391.37878,434.09558C391.7489,433.69022,392.1543,433.1791,392.26004,432.9676C392.40103,432.72086,392.63016,432.59747,392.96503,432.59747C393.247,432.59747,393.61713,432.42123,393.8639,432.15686L394.26926,431.71625L393.7934,431.71625C393.52902,431.71625,393.1765,431.78674,393.00027,431.8925C392.94055,431.9241,392.89133,431.94452,392.85025,431.94452C392.6852,431.94452,392.65137,431.61508,392.5949,430.35913C392.5244,428.77292,392.48914,428.64954,392.0309,428.2618C391.76813,428.03406,391.4879,427.84116,391.41534,427.83884L391.41144,427.83884C391.09885,427.84387,391.46823,428.75635,391.94278,429.14304C392.40103,429.5308,392.45392,429.6894,392.45392,430.65875C392.45392,431.71625,392.06616,432.94998,391.7313,432.94998C391.64316,432.94998,391.62555,432.8266,391.6784,432.6856C391.87228,432.20975,391.37878,431.22278,390.63855,430.5354L389.89832,429.86566L389.84543,430.34152C389.72208,431.4519,390.4623,432.77374,391.43167,433.1791C391.59027,433.2496,391.44928,433.46112,391.04395,433.8312C390.19794,434.58908,389.29907,435.0297,387.73047,435.43506C386.1971,435.84042,385.42163,436.21057,384.27603,437.0918C383.8178,437.44427,383.2538,437.79678,383.0247,437.8849L382.6017,438.04352L383.11282,436.9684C383.3948,436.3868,383.67682,435.4527,383.7297,434.9063C383.9412,432.9676,383.97644,432.809,384.41702,432.70325C384.84003,432.59747,385.47452,431.822,385.36877,431.52237C385.35867,431.4971,385.32535,431.48486,385.27463,431.48486C385.1486,431.48486,384.91513,431.5604,384.66376,431.69864L383.99405,432.03348L384.0998,431.55762C384.38177,430.42966,384.78714,429.77753,385.65076,429.1078C385.9305,428.89798,386.08884,428.72284,386.00528,428.72006L386.00143,428.72006C385.91013,428.72333,385.54254,428.9688,385.1749,429.26642L384.52277,429.79517L384.52277,429.3369C384.52277,429.07254,384.3994,428.63193,384.22314,428.36755C383.95883,427.9093,383.95883,427.85645,384.22314,427.57446C384.41702,427.3982,384.52277,427.01044,384.52277,426.5522L384.50516,425.81195L384.1703,426.23495C383.97644,426.46408,383.8002,426.79895,383.8002,426.97522C383.78256,427.15143,383.76492,427.41583,383.7473,427.52155C383.7297,427.64496,383.85306,428.03268,384.0293,428.36755C384.43463,429.14304,384.41702,429.3369,383.99405,430.99365C383.8178,431.7339,383.60632,432.56223,383.55344,432.84424L383.4477,433.35535L383.13046,432.84424C382.9542,432.56223,382.58408,432.13922,382.3021,431.8925L381.791,431.4519L382.2492,431.98062C382.51358,432.28024,382.8132,432.70325,382.93658,432.93237C383.27145,433.58447,383.20096,435.22357,382.79556,436.12244C382.47833,436.86267,380.98026,438.99527,380.64536,439.20676C380.64072,439.20953,380.6355,439.21088,380.6297,439.21088C380.41434,439.21088,379.41165,437.34552,379.41165,436.9508C379.41165,436.80978,379.57025,436.58066,379.76413,436.4573C380.2216,436.12302,380.43314,435.2443,380.04816,435.2412L380.04434,435.2412C379.90277,435.24252,379.6224,435.4006,379.44687,435.5937L379.11203,435.9638L378.98865,435.55844C378.93576,435.3293,378.8829,434.80057,378.86526,434.35995C378.8556,433.9536,378.85123,433.765,378.82593,433.765C378.80515,433.765,378.77023,433.89233,378.70663,434.13083C378.56564,434.76532,379.0944,437.07416,379.72888,438.48413C379.94037,438.96002,380.099,439.43588,380.099,439.54163C380.0814,439.64737,379.4645,440.3171,378.70663,441.0221L377.3319,442.30872L377.0323,440.96924C376.8737,440.21136,376.34494,438.48413,375.85144,437.1094C374.51196,433.3201,374.14185,432.104,374.01846,430.81738C373.87747,429.35455,374.08896,428.86102,375.6047,427.20435L376.73267,425.98822L377.12042,426.46408C377.36108,426.77798,377.68872,426.95523,377.91522,426.95523C378.07025,426.95523,378.1779,426.87222,378.1779,426.6932C378.1779,426.53458,377.98404,426.21735,377.73727,425.98822L377.27905,425.58282L377.77255,425.23035C378.5304,424.7016,379.25302,424.36676,380.663,423.89087C381.3856,423.6441,381.791,423.43262,381.57947,423.43262L381.1741,423.43262L381.5266,422.851C381.7205,422.5514,381.8791,422.16364,381.86148,422.02264C381.86148,421.97427,381.8511,421.95078,381.83392,421.95078C381.801,421.95078,381.7431,422.03683,381.6852,422.1989C381.45612,422.78052,380.85684,423.3974,380.24,423.73224C380.0043,423.8501,379.84644,423.91443,379.75375,423.91443C379.5969,423.91443,379.62668,423.73022,379.78177,423.30927C379.92276,422.851,379.90512,422.60425,379.58786,421.864C379.2608,421.1103,378.95667,420.67786,378.7588,420.67786C378.71143,420.67786,378.67017,420.7026,378.63614,420.75366C378.58328,420.8418,378.49515,421.3529,378.42465,421.864C378.33652,422.69238,378.37177,422.90387,378.77713,423.46786L379.21774,424.12L378.1779,424.684C377.61392,424.9836,376.6093,425.6886,375.93954,426.2526C375.31195,426.7954,374.76593,427.22394,374.6944,427.22394C374.6916,427.22394,374.6895,427.22327,374.6882,427.22195C374.67056,427.20435,374.9702,426.58746,375.35794,425.84723C376.64456,423.4855,376.9618,422.46326,377.06754,420.5598C377.15567,418.93832,377.19092,418.85022,377.56104,418.85022C377.91354,418.85022,378.70663,418.1981,378.70663,417.91608C378.70663,417.8249,378.63107,417.78345,378.5121,417.78345 Z"/> </g> </g> </svg>