<svg width="209" height="209" viewBox="0 0 209 209" fill="none" xmlns="http://www.w3.org/2000/svg">
<path d="M136.25 67.125C136.25 56.218 132.549 45.7577 125.962 38.0452C119.375 30.3328 110.441 26 101.125 26C91.8093 26 82.8751 30.3328 76.2879 38.0452C69.7007 45.7577 66 56.218 66 67.125C66 78.032 69.7007 88.4923 76.2879 96.2048C82.8751 103.917 91.8093 108.25 101.125 108.25C110.441 108.25 119.375 103.917 125.962 96.2048C132.549 88.4923 136.25 78.032 136.25 67.125" fill="#39BBD1"/>
<path d="M114.402 111.012C110.65 111.408 104.02 124.693 105.353 128.46C106.686 132.227 115.83 131.236 119.09 136.589C122.35 141.942 114.244 151.46 119.09 155.624C123.936 159.788 137.615 155.822 136.029 162.563C134.443 169.304 119.375 173.667 122.347 179.02C125.322 184.374 141.779 178.227 142.175 184.77" fill="#39BBD1"/>
<path d="M114.402 111.012C110.65 111.408 104.02 124.693 105.353 128.46C106.686 132.227 115.83 131.236 119.09 136.589C122.35 141.942 114.244 151.46 119.09 155.624C123.936 159.788 137.615 155.822 136.029 162.563C134.443 169.304 119.375 173.667 122.347 179.02C125.322 184.374 141.779 178.227 142.175 184.77" stroke="#39BBD1" stroke-miterlimit="10"/>
<path d="M109.18 111.735C110.241 109.917 120.546 114.008 121.909 113.402C123.272 112.796 118.12 104.763 116.454 104.308C114.787 103.854 102.966 107.795 101.905 108.856C100.844 109.917 98.268 116.888 99.783 117.645C101.298 118.402 113.12 114.463 113.12 114.463" fill="#39BBD1"/>
<path d="M129.11 60.6451C130.157 57.6941 118.291 51.8601 115.1 57.6981C120.063 63.3171 119.814 85.8791 119.45 92.0421C126.51 87.6661 128.063 63.5971 129.11 60.6451V60.6451Z" fill="white"/>
<path d="M101.91 108.865C104.002 109.76 113.962 106.07 116.459 104.317" stroke="#39BBD1" stroke-miterlimit="10"/>
<path d="M101.12 108.115C103.212 109.01 114.914 105.32 117.411 103.567" stroke="#39BBD1" stroke-miterlimit="10"/>
<path d="M77.3 42.6509C77.288 41.3749 82.641 40.7059 83.092 43.3809C80.431 44.8859 77.521 53.6159 76.842 56.0389C74.704 53.4119 77.311 43.9299 77.3 42.6509V42.6509Z" fill="white"/>
</svg>
