<svg width="85" height="83" viewBox="0 0 85 83" fill="none" xmlns="http://www.w3.org/2000/svg">
<path d="M65.1476 42.6079C65.1886 42.6021 65.0841 42.6058 66.6271 42.6046C66.6599 42.6931 66.6747 42.7924 66.7266 42.8712C66.835 42.8944 67.0843 42.864 67.4818 43.2323C67.7026 43.4419 67.9419 43.538 68.1357 43.7995C68.4245 44.2656 69.1143 45.0777 69.0936 46.2783C69.1056 46.8542 68.9295 46.9911 69.0471 47.1463C69.3694 47.6397 69.2375 48.1968 69.0824 48.7638C68.8886 49.3424 68.3041 49.5007 68.2495 49.8302C68.2382 49.8801 68.1801 51.6273 68.1901 51.7238C68.2386 52.1096 68.1643 52.9377 69.349 53.1305C69.7147 53.1778 70.508 53.5656 71.4096 53.8345C73.3113 54.4064 72.2179 53.9077 73.187 54.7602C74.1897 55.6499 73.9702 56.801 74.0277 57.4349C74.0844 58.7655 73.8295 59.9749 73.7571 60.7044C73.5426 62.8465 74.1588 65.3303 74.5004 65.5624C75.6073 66.2913 76.1844 66.9517 77.1517 67.2829C77.2352 67.3076 77.2784 67.4031 77.361 67.4293C77.668 67.4839 77.9199 67.5651 78.1015 67.5575C78.3103 67.5646 78.2261 67.3382 78.6705 67.1223C78.7981 67.059 78.9343 67.0175 79.0724 66.9912C80.1392 66.7907 80.4784 65.4797 81.08 66.0732C81.6202 66.6347 81.4875 68.8007 81.8535 68.5098C81.9535 68.4219 82.3981 67.7469 83.1728 67.8342C83.1722 68.0023 83.1728 68.1706 83.1725 68.3389C82.9777 68.5179 82.9471 68.4737 82.3707 69.2562C82.1451 69.5066 81.7611 69.4933 81.5722 69.7839C81.4978 69.8937 81.4845 70.0739 81.2948 70.1731C81.0612 70.295 80.8099 70.1957 80.5807 70.2285C80.383 70.255 80.3007 70.5463 79.8787 70.5459C79.3866 70.552 78.718 70.1616 78.3962 69.927C78.1316 70.7481 78.6472 72.0653 77.7636 73.1672C77.454 73.562 76.6851 74.2412 76.657 74.2622C76.5024 74.3797 76.3255 74.4615 76.1824 74.5966C75.8765 74.8787 75.6031 75.1987 75.2913 75.4736C75.2796 75.4835 73.8398 76.5324 73.7499 76.5874C73.2121 76.9186 72.6627 76.9481 72.0692 77.1097C71.9936 77.1363 71.9404 77.2029 71.8776 77.2516C72.0989 77.5618 72.3187 77.7461 72.4676 77.9724C72.6065 78.1734 72.6738 78.4182 72.8018 78.6263C72.8828 78.7671 73.3371 79.1416 73.0356 79.9013C72.985 80.017 72.7571 80.0413 72.6279 80.0539C72.1439 80.0926 72.1739 80.06 71.9476 79.9199C71.5374 79.6363 71.7036 79.8616 67.8528 79.4834C67.7337 79.4723 67.6182 79.4151 67.4972 79.4351C67.469 79.4119 67.4414 79.3828 67.4039 79.3809C67.1474 79.3524 67.0031 79.1038 66.6279 79.1081C66.601 79.0786 66.5836 79.0378 66.5538 79.0102C66.3456 78.8037 65.9626 78.7255 65.7895 78.9267C65.7507 78.9708 65.7167 79.0281 65.6585 79.0442C63.9229 79.5319 64.8704 79.155 63.0255 79.9284C62.9015 79.9816 62.775 80.0324 62.6422 80.0522C61.885 80.1371 61.1283 80.2291 60.369 80.2866C59.9715 80.3209 59.8392 80.1374 59.2165 80.2381C58.8496 80.305 58.9317 80.3254 58.7654 80.3662C58.6692 80.3895 58.4505 80.2933 57.9982 80.5336C57.5553 80.7655 56.883 81.2905 56.5515 80.8755C56.453 80.7364 56.3009 80.3934 56.3125 80.2252C56.2739 79.247 56.1833 79.0012 57.0668 77.9647C58.125 76.7357 58.2682 77.2523 60.4195 77.4311C60.4703 77.3735 60.5324 77.2051 60.5368 77.148C59.9554 76.6122 59.5477 76.8612 58.8829 76.5499C58.4733 76.3493 58.0201 76.3057 57.5849 76.2054C56.5003 75.9575 55.4841 75.036 53.7 73.4867C53.6767 73.4637 53.6453 73.448 53.6303 73.4172C53.6137 73.3617 53.6237 73.2999 53.5988 73.2471C53.5109 73.0615 53.4494 72.8218 53.3235 72.7742C52.7214 72.5327 52.5864 71.8454 52.1745 71.4099C52.084 71.2912 52.0786 71.1285 52.0661 70.9824C52.0589 70.8564 51.9857 69.9835 51.9895 69.8888C50.8449 70.681 49.626 70.7346 48.3001 70.4998C48.0275 70.4507 47.7967 70.2307 47.7623 69.917C47.7339 69.5931 47.5963 69.2978 47.5302 68.9833C47.162 67.4578 47.6388 67.2374 47.6855 67.0565C47.7471 66.7012 47.8813 66.5099 48.2165 66.5914C49.1319 66.8406 48.9833 66.8176 49.0562 66.8698C49.0952 66.886 49.1382 66.879 49.1793 66.8811C49.5661 66.9036 49.9331 67.0524 50.2875 67.2101C52.1009 68.0163 52.1898 67.7989 52.8938 67.7389C52.9769 67.734 53.0259 67.6466 53.1034 67.6251C54.6653 67.2167 54.4868 67.3621 55.4246 66.8201C55.722 66.6431 56.8518 66.1161 57.9594 65.3347C58.6008 64.8978 58.3474 64.1074 58.4165 63.32C58.4106 61.4833 58.6985 61.7092 58.6889 60.3892C58.6981 59.6868 58.5706 59.2064 58.5358 58.856C58.423 57.8726 58.5343 56.6008 58.588 56.3329C58.7822 55.3603 59.6457 54.1702 60.6006 54.0654C60.6234 54.0622 64.4652 54.2154 64.2374 51.9247C64.2188 51.0126 64.4914 50.6618 63.4881 49.7735C63.3294 49.6236 62.6404 48.5715 62.7639 48.0338C62.8232 47.71 62.9257 47.8093 62.9176 47.3602C62.8307 45.6416 62.9488 45.9827 63.0065 45.3322C63.0879 44.4295 63.9488 43.1684 64.9273 42.8715C65.0506 42.8378 65.052 42.7489 65.1478 42.6078L65.1476 42.6079ZM61.542 62.9689C61.4763 64.2666 61.6009 66.7022 60.4003 67.7252C60.2593 67.842 59.7662 68.0655 59.7439 68.0755C59.193 68.3228 59.0229 68.1357 58.8613 68.1486C58.7131 68.1554 58.5691 68.2012 58.4214 68.2132C58.5293 68.2989 58.6418 68.3774 58.7517 68.4603C58.746 68.4956 58.74 68.5313 58.7339 68.5669C58.4102 68.5422 58.0851 68.5327 57.7613 68.5087C57.7824 68.698 57.807 68.8868 57.8298 69.0758C60.25 70.7692 60.4233 71.029 61.3813 69.6261C61.6315 69.2723 61.8164 68.8719 61.977 68.464C62.3978 67.4151 62.3765 67.0437 62.4013 66.6099C62.4679 65.3258 62.2747 64.9641 62.1087 64.547C61.9287 64.0738 61.8559 63.5654 61.7275 63.0755C61.7018 62.9978 61.7199 63.0523 61.542 62.9689L61.542 62.9689ZM70.7908 65.7464C70.7247 65.8893 70.6716 66.0443 70.6663 66.2055C70.5507 68.9294 71.7312 69.2119 71.8682 70.1939C71.8868 70.318 71.8608 70.5845 72.0611 70.5881C72.121 70.5842 72.8754 70.3436 73.188 70.1682C73.6342 69.9115 74.1178 69.4018 74.5686 69.0003C71.934 68.2778 71.4227 67.2771 70.8005 65.744C70.798 65.7447 70.7931 65.7458 70.7907 65.7465L70.7908 65.7464ZM48.6076 68.1271C48.6779 68.4514 49.0197 68.9666 49.1611 68.8687C49.321 68.7695 49.6021 68.4818 49.5413 68.3385C49.4667 68.1468 49.1412 67.8735 48.9369 67.8729C48.8228 67.8798 48.7428 67.9989 48.6076 68.1271Z" fill="#39BBD1"/>
<path d="M22.3463 47.7531C22.6878 47.564 23.0418 47.4141 23.4168 47.3284C23.5743 47.2924 23.7233 47.2421 23.8654 47.1605C24.0777 47.0385 24.2784 46.8879 24.5424 46.9111C24.6467 46.9203 24.7331 46.82 24.8277 46.7694C25.1247 46.6107 25.3671 46.367 25.6403 46.1712C26.3201 45.6839 26.9912 45.1826 27.6613 44.6799C28.4142 44.1151 29.1927 43.6109 30.0926 43.3591C30.9052 43.1317 31.7405 43.0597 32.5659 42.9206C32.9102 42.8626 33.2668 42.8746 33.5857 42.6909C34.4663 42.1837 35.2568 41.5526 35.845 40.6711C36.1315 40.2418 36.4925 39.9158 36.8923 39.6295C37.433 39.2424 37.9336 38.8077 38.3185 38.2375C38.7436 37.6079 38.9291 36.8663 39.1549 36.1419C39.2822 35.7333 39.4095 35.2939 39.7463 35.0335C40.1226 34.7427 40.4847 34.4166 40.923 34.2275C41.3005 34.0647 41.5491 33.7597 41.7061 33.3701C41.8936 32.905 41.978 32.4094 42.0162 31.9061C42.0811 31.0524 41.6755 30.3701 41.2995 29.6811C41.2373 29.567 41.1199 29.4881 40.9985 29.44C40.9331 29.4141 40.8688 29.4362 40.8291 29.4976C40.7966 29.5478 40.7946 29.614 40.8497 29.6476C40.9831 29.7288 40.9263 29.8128 40.8574 29.8939C40.7859 29.9782 40.7149 30.0659 40.6312 30.1343C40.491 30.2489 40.4466 30.3776 40.5344 30.5498C40.5765 30.6322 40.6146 30.73 40.5561 30.8091C40.3908 31.0325 40.3045 31.3114 40.1142 31.5172C40.032 31.6061 39.9425 31.6278 39.8307 31.637C39.239 31.6858 38.7885 31.3609 38.3839 30.9689C38.1863 30.7774 38.0847 30.4634 37.7452 30.5093C37.7365 30.5105 37.7224 30.5023 37.7175 30.494C37.5884 30.2728 37.3485 30.2365 37.1613 30.1151C36.8027 29.8827 36.5956 29.4675 36.23 29.2492C36.0573 29.1461 36.0452 29.0038 36.106 28.8127C36.1802 28.5796 36.1388 28.3587 36.0556 28.1174C35.8987 27.6622 35.6922 27.2213 35.6514 26.721C35.6345 26.513 35.5753 26.3079 35.4233 26.1325C35.2782 25.9651 35.1296 25.7575 35.2593 25.488C35.2906 25.4229 35.2798 25.3494 35.2497 25.2887C35.1661 25.1198 35.198 24.9598 35.2582 24.7934C35.2884 24.7101 35.3245 24.6241 35.3137 24.528C35.2577 24.0306 35.1615 23.5403 35.1058 23.0414C35.0483 22.5265 34.9419 22.0074 34.7887 21.5072C34.7656 21.4317 34.7501 21.3516 34.7442 21.2724C34.6711 20.2878 34.7549 19.6849 35.1056 18.7983C35.1701 18.6352 35.2302 18.4987 35.1515 18.3152C35.0931 18.1792 35.1701 18.0687 35.3105 18.0416C35.3933 18.0257 35.4817 18.0163 35.5639 18.03C35.819 18.0727 36.045 17.9844 36.2658 17.8677C36.4755 17.7568 36.6826 17.6404 36.8912 17.5272C37.1098 17.4087 37.3269 17.2891 37.5867 17.3427C37.6847 17.3629 37.7814 17.3211 37.8573 17.2605C38.0613 17.0974 38.2986 16.9904 38.4825 16.7909C38.6621 16.5961 38.7753 16.6157 38.9043 16.8613C38.9866 17.0178 39.0745 17.0795 39.2365 17.023C39.4059 16.964 39.5493 16.9867 39.6276 17.194C39.6555 17.268 39.7252 17.3488 39.801 17.2945C39.9564 17.1831 40.0723 17.2274 40.1952 17.3492C40.2703 17.4235 40.3694 17.4182 40.4677 17.4053C40.8366 17.357 40.932 17.4425 40.9175 17.834C40.9053 18.1631 40.99 18.4718 41.0848 18.7728C41.1694 19.0418 41.3587 19.0552 41.5008 18.8149C41.8103 18.2918 42.0954 17.7566 42.1353 17.1141C42.1437 16.978 42.1808 16.8442 42.2023 16.7089C42.3241 15.941 42.4598 15.1684 42.3314 14.3907C42.156 13.3281 42.1979 12.2708 42.3137 11.2097C42.3856 10.551 42.4923 9.89556 42.4153 9.22614C42.3685 8.81949 42.334 8.41058 42.3006 8.00199C42.2231 7.05577 42.1502 6.9754 41.3755 6.46714C41.2483 6.38371 41.1221 6.30058 41.0106 6.19247C40.6864 5.87841 40.3573 5.57206 39.9377 5.40839C39.8457 5.37246 39.7567 5.31467 39.7777 5.18627C39.7984 5.05961 39.8817 4.98749 39.9979 4.97224C40.2126 4.94403 40.4211 4.96299 40.6164 5.07896C40.7558 5.16176 40.8989 5.23759 41.0414 5.31422C41.127 5.3603 41.2228 5.42159 41.3099 5.3473C41.4077 5.26397 41.4497 5.13049 41.4058 5.00574C41.3049 4.71876 41.2708 4.40547 41.0931 4.14763C40.8567 3.80473 40.7131 3.40891 40.5845 3.00851C40.5362 2.85818 40.4853 2.70462 40.4932 2.54053C40.5042 2.30853 40.5965 2.19544 40.8092 2.2222C40.9572 2.24083 40.9796 2.17562 41.0244 2.05502C41.1281 1.77612 41.2459 1.7444 41.488 1.90953C41.5516 1.95291 41.5924 1.99417 41.6837 1.95697C41.9641 1.8426 42.0187 1.85999 42.1479 2.15233C42.3533 2.61684 42.5567 3.08416 42.6616 3.59136C42.6801 3.68066 42.6997 3.76996 42.7252 3.85715C42.7411 3.91183 42.7729 3.97028 42.8311 3.96823C42.9042 3.96565 42.9359 3.90382 42.9474 3.82915C42.9948 3.52197 43.021 3.21509 42.9445 2.90841C42.9198 2.80894 42.8899 2.71029 42.8992 2.60485C42.9202 2.36535 43.0537 2.29577 43.2543 2.40557C43.3642 2.46574 43.399 2.56252 43.4226 2.67783C43.5012 3.06236 43.5143 3.45038 43.4651 3.83912C43.4432 4.01152 43.4254 4.18154 43.4716 4.34979C43.6363 4.94898 43.6809 5.55931 43.6669 6.18316C43.6598 6.49811 43.6142 6.8246 43.7273 7.13436C43.8018 7.3383 43.8313 7.55295 43.8641 7.76801C43.9535 8.35421 44.0479 8.93958 44.1454 9.5243C44.2674 10.2554 44.4421 10.9763 44.4619 11.7259C44.4788 12.3662 44.5284 13.0049 44.6122 13.6399C44.6286 13.7641 44.6394 13.8895 44.585 14.0109C44.4519 14.3073 44.4337 14.6252 44.4297 14.9485C44.4266 15.1998 44.428 15.4512 44.4011 15.7032C44.3322 16.3503 44.199 16.9862 44.1675 17.6414C44.1133 18.7668 43.9096 19.868 43.5221 20.9182C43.3908 21.2741 43.3116 21.6189 43.31 22.0059C43.3092 22.2191 43.3694 22.3486 43.4911 22.4771C44.0815 23.1007 44.6854 23.7119 45.1964 24.4148C45.7513 25.178 46.0856 26.017 45.8425 27.0142C45.7266 27.4896 45.7763 27.936 45.983 28.3748C46.1367 28.7009 46.2439 29.0408 46.226 29.4245C46.2046 29.8815 46.2222 30.3409 46.227 30.7992C46.2299 31.074 46.2102 31.3545 46.2533 31.6225C46.4113 32.6049 46.4124 33.6031 46.53 34.5892C46.5529 34.7809 46.5929 34.8692 46.7862 34.8924C47.2423 34.9472 47.7004 34.9444 48.1537 34.9196C49.0562 34.8703 49.9641 34.8371 50.8523 34.9796C51.6612 35.1095 52.4928 35.0279 53.2876 35.3716C53.7062 35.5526 54.1456 35.685 54.5519 35.9126C54.8518 36.0806 54.9567 36.3462 54.9727 36.6925C55.0039 37.3673 54.8361 38.0321 54.8967 38.7074C54.9099 38.8554 54.82 39.0228 54.7974 39.1687C54.7683 39.3562 54.7773 39.5486 54.7919 39.7372C54.8475 40.4537 54.7483 41.1755 54.6678 41.8883C54.544 42.9862 54.3327 44.0727 54.29 45.1811C54.2668 45.7837 54.2951 46.384 54.3326 46.9866C54.383 47.7965 54.8081 48.3021 55.5648 48.3571C55.9309 48.3838 56.3347 48.5008 56.699 48.444C56.7831 48.4308 56.8704 48.4168 56.9521 48.4423C57.0337 48.4678 57.1083 48.5452 57.1054 48.6369C57.1034 48.6982 57.0686 48.7521 57.032 48.799C56.8176 49.0736 56.4804 49.2608 56.1449 49.2597C54.9215 49.256 53.698 49.2644 52.4747 49.2769C52.3464 49.2782 52.2078 49.276 52.1051 49.1931C52.0156 49.1208 51.9709 48.998 51.9624 48.8777C51.9522 48.7312 51.9609 48.454 52.021 48.3202C52.1373 48.0616 52.1412 47.7951 52.1744 47.5255C52.2984 46.5176 52.2065 45.5218 52.0546 44.5273C51.9723 43.9886 51.806 43.4714 51.7473 42.9245C51.6658 42.1657 51.7144 41.4124 51.8086 40.6679C51.8751 40.1416 52.0273 39.6246 52.1792 39.1119C52.3224 38.6286 52.1932 38.5137 51.8476 38.5116C51.7657 38.5111 51.6859 38.4923 51.5992 38.5007C51.1861 38.5409 50.7919 38.6698 50.3924 38.7755C49.7627 38.9421 49.1827 39.2559 48.5731 39.4809C47.4675 39.889 46.3188 39.9854 45.1604 39.9883C44.4281 39.9901 43.6969 39.9507 42.9664 39.8968C42.8521 39.8884 42.7376 39.8783 42.6285 39.9549C42.2816 40.1986 41.9313 40.4357 41.6369 40.7554C41.4726 40.9339 41.3118 41.1166 41.1232 41.2678C40.6132 41.6767 40.0939 42.0718 39.5574 42.4382C38.7346 43.0002 37.9142 43.5647 37.0452 44.0471C36.615 44.2861 36.132 44.4418 35.7636 44.7839C35.3636 45.1554 34.9132 45.2707 34.4132 45.276C33.8726 45.2818 33.3423 45.4059 32.8191 45.517C31.835 45.7258 30.8716 46.041 29.9561 46.4929C29.2757 46.8288 28.5341 46.9778 27.8582 47.3236C27.794 47.3565 27.7139 47.3607 27.6406 47.3642C27.4795 47.3721 27.3264 47.4178 27.1735 47.4652C26.7948 47.5827 26.4544 47.7659 26.1457 48.0436C26.0771 48.1052 25.9878 48.1867 25.9702 48.2871C25.9535 48.3827 26.0372 48.4848 25.9969 48.5748C25.9757 48.6223 25.9241 48.6425 25.8773 48.6573C25.4186 48.8027 24.9466 48.8376 24.4717 48.8642C23.9557 48.8931 23.4389 48.8964 22.9224 48.9073C22.8081 48.9097 22.679 48.9118 22.5742 48.8543C22.4652 48.7946 22.4167 48.6688 22.3503 48.5638C22.2592 48.4199 22.1908 48.2627 22.1837 48.086C22.1774 47.9312 22.2107 47.8283 22.3466 47.7531H22.3463Z" fill="#39BBD1"/>
<path d="M26.0097 48.5599C26.0144 48.5531 26.0192 48.5463 26.024 48.5396C26.0388 48.5647 26.0357 48.5687 26.0147 48.5515L26.0097 48.5599V48.5599Z" fill="#39BBD1"/>
<path d="M23.6933 33.5106C23.6667 33.521 23.6014 33.5731 23.5507 33.6252C23.4637 33.7138 23.4564 33.7164 23.4033 33.6799C23.2413 33.5679 22.9924 33.6695 22.6251 34.0004C22.4777 34.1306 22.4269 34.1488 22.4269 34.0707C22.4269 34.016 22.3278 33.9535 22.2408 33.9535C22.1369 33.9535 21.6173 34.2478 21.4409 34.4094C21.3998 34.4458 21.3611 34.4745 21.3515 34.4745C21.3418 34.4745 21.2355 34.5657 21.1122 34.6777C20.9914 34.7871 20.8391 34.9251 20.7715 34.9825C20.6313 35.1023 20.1987 35.5087 20.0996 35.6129C19.9232 35.7978 19.5559 36.2173 19.4979 36.3006C19.4157 36.4152 19.2079 36.8477 19.1644 36.9884C19.1475 37.0457 19.1257 37.103 19.116 37.1186C19.0919 37.1525 19.0266 37.4026 18.9807 37.6396C18.9614 37.7386 18.9348 37.8454 18.9227 37.8741C18.9106 37.9027 18.884 38.0304 18.8647 38.1606C18.8212 38.4472 18.7535 38.7546 18.7294 38.7728C18.7197 38.7806 18.698 38.8484 18.681 38.9265C18.6641 39.0047 18.6351 39.0959 18.6182 39.1323C18.6013 39.1688 18.5795 39.2417 18.5723 39.2991C18.5626 39.3538 18.5457 39.398 18.536 39.398C18.524 39.398 18.5095 39.4371 18.4998 39.4814C18.4829 39.57 18.4635 39.6195 18.3572 39.8722C18.3234 39.9529 18.2944 40.0285 18.2944 40.0415C18.292 40.0519 18.2726 40.1092 18.246 40.1666C18.2194 40.2239 18.2001 40.2864 18.1977 40.3046C18.1977 40.3359 18.1759 40.3958 18.0479 40.7006C17.9536 40.9272 17.8884 41.0783 17.8521 41.1695C17.8328 41.219 17.7941 41.3128 17.7675 41.3779C17.7409 41.443 17.6902 41.5707 17.6539 41.6645C17.6177 41.7582 17.5718 41.8572 17.5549 41.8859C17.5355 41.9146 17.521 41.951 17.521 41.9693C17.521 41.9875 17.4969 42.0604 17.4703 42.1282C17.4413 42.1959 17.3978 42.2975 17.376 42.3548C17.3518 42.4121 17.3035 42.5267 17.2697 42.6075C17.2358 42.6883 17.2069 42.7638 17.2069 42.7716C17.2069 42.782 17.1924 42.8263 17.173 42.8706C17.1537 42.9175 17.1029 43.0426 17.0618 43.1493C17.0208 43.2562 16.97 43.3812 16.9507 43.4281C16.9314 43.4724 16.9168 43.5167 16.9168 43.5271C16.9168 43.5349 16.8878 43.6104 16.854 43.6912C16.7429 43.9517 16.7235 44.0038 16.7235 44.0273C16.7211 44.0377 16.7018 44.095 16.6752 44.1523C16.6486 44.2096 16.6293 44.2669 16.6269 44.2773C16.6269 44.2878 16.6051 44.3477 16.5809 44.4076C16.5543 44.4701 16.5253 44.5535 16.5157 44.5952C16.506 44.6394 16.4843 44.6968 16.4673 44.7254C16.448 44.7541 16.4335 44.7931 16.4335 44.8166C16.4335 44.8374 16.419 44.8843 16.4021 44.9208C16.3828 44.9573 16.3562 45.0458 16.3393 45.1162C16.3223 45.1865 16.3006 45.2569 16.2885 45.2725C16.2788 45.2855 16.2571 45.3689 16.2402 45.4548C16.2233 45.5408 16.1967 45.645 16.1798 45.6893C16.1604 45.731 16.1387 45.8013 16.129 45.843C16.1193 45.8847 16.0976 45.9498 16.0807 45.9863C16.0613 46.0227 16.0468 46.0722 16.0468 46.0931C16.0468 46.1139 16.0323 46.1634 16.013 46.1999C15.9961 46.2363 15.9671 46.3301 15.9502 46.4083C15.9333 46.4864 15.9091 46.5672 15.8994 46.588C15.8801 46.6245 15.8583 46.7105 15.7617 47.1481C15.7399 47.2471 15.7133 47.3409 15.7061 47.3565C15.6964 47.3695 15.6771 47.4633 15.6626 47.5649C15.6457 47.6639 15.6215 47.7707 15.6118 47.7994C15.5901 47.8515 15.5442 48.0912 15.4765 48.5158C15.4572 48.6382 15.4306 48.7763 15.4161 48.8232C15.3943 48.8935 15.3339 49.24 15.3122 49.4015C15.3097 49.425 15.3001 49.4536 15.2928 49.4666C15.2856 49.4823 15.2663 49.6281 15.2493 49.7923C15.2324 49.9564 15.2107 50.1023 15.201 50.1179C15.1913 50.1309 15.1696 50.3367 15.1527 50.5738C15.1382 50.8108 15.114 51.0271 15.1043 51.0557C15.0922 51.0844 15.0705 51.3241 15.056 51.5898C15.0415 51.8528 15.0197 52.0873 15.0101 52.1108C14.998 52.1316 14.9762 52.2671 14.9593 52.4103C14.9424 52.5536 14.9182 52.6839 14.9086 52.6969C14.8989 52.7125 14.8772 52.947 14.8627 53.2179C14.8482 53.4915 14.8264 53.7546 14.8143 53.8041C14.7636 54.0177 14.7732 55.7448 14.8288 56.5837C14.8385 56.7269 14.8337 56.7999 14.8167 56.7999C14.7926 56.7999 14.5243 56.9823 14.2923 57.1568C14.2391 57.1985 14.1256 57.2975 14.0386 57.3808C13.954 57.4642 13.8138 57.584 13.7268 57.6492C13.4972 57.8237 13.1734 58.0503 13.1565 58.0503C13.1468 58.0503 13.0864 58.092 13.0236 58.1415C12.9583 58.191 12.8979 58.2327 12.8858 58.2327C12.8713 58.2327 12.6997 58.3499 12.6272 58.4072C12.5281 58.488 12.3759 58.5974 12.3614 58.5974C12.3541 58.5974 12.3348 58.6104 12.3179 58.6234C12.2889 58.6521 12.0376 58.8423 11.8345 58.9934C11.7693 59.0403 11.646 59.134 11.559 59.2018C11.4745 59.2721 11.3947 59.3268 11.3802 59.3268C11.3681 59.3268 11.3585 59.3398 11.3585 59.3529C11.3585 59.3685 11.3391 59.3893 11.3174 59.3972C11.2932 59.4076 11.2135 59.4649 11.141 59.5274C11.0685 59.5873 10.9863 59.6551 10.9597 59.6759C10.9331 59.6967 10.8413 59.7775 10.7567 59.853C10.6721 59.9286 10.5803 60.0093 10.5513 60.0302C10.4522 60.1031 9.90844 60.7049 9.90844 60.7414C9.90844 60.7622 9.84561 60.8299 9.77068 60.8925C9.69335 60.955 9.58219 61.0592 9.52177 61.1243C9.39127 61.2624 9.18343 61.5515 9.18343 61.5906C9.18343 61.6062 9.17618 61.6193 9.16651 61.6193C9.15443 61.6193 9.1351 61.6453 9.11819 61.6792C9.0046 61.9162 8.9176 62.122 8.9031 62.182C8.89344 62.221 8.87168 62.2836 8.85477 62.32C8.83543 62.3565 8.81368 62.4294 8.80643 62.4789C8.79676 62.5285 8.78227 62.5805 8.7726 62.5962C8.76051 62.6092 8.74118 62.716 8.72426 62.8306C8.70735 62.9452 8.68559 63.0677 8.6711 63.1016C8.63726 63.198 8.62035 63.8492 8.64693 64.029C8.69043 64.3103 8.75085 64.576 8.77501 64.5838C8.78709 64.589 8.79676 64.6073 8.79676 64.6255C8.79676 64.6438 8.85234 64.7428 8.9176 64.8443L9.03843 65.0293L8.97801 65.1726C8.94418 65.2507 8.9176 65.3237 8.9176 65.3315C8.9176 65.3393 8.89584 65.3966 8.87168 65.4565C8.8451 65.5191 8.8161 65.6024 8.80643 65.6441C8.79676 65.6884 8.78227 65.7353 8.77018 65.7483C8.72909 65.8056 8.5841 66.4882 8.5406 66.8294C8.52126 66.9805 8.49467 67.155 8.48018 67.2228C8.44635 67.3843 8.44393 68.8223 8.47535 68.9395C8.48984 68.989 8.51401 69.0984 8.53093 69.1792C8.54785 69.2626 8.5696 69.3303 8.57926 69.3303C8.58651 69.3303 8.60826 69.4006 8.62518 69.4866C8.64452 69.5726 8.66626 69.6429 8.67593 69.6429C8.68801 69.6429 8.70251 69.6898 8.71218 69.7445C8.71943 69.8018 8.74359 69.8669 8.76051 69.8956C8.77985 69.9216 8.79676 69.9607 8.79676 69.9789C8.79676 70.0258 9.04326 70.5651 9.06744 70.5755C9.07952 70.5807 9.08677 70.5937 9.08677 70.6067C9.08677 70.6302 9.18585 70.8048 9.45652 71.2711C9.55802 71.443 9.68852 71.6826 9.74652 71.8051C9.93019 72.188 10.0293 72.3834 10.1042 72.5007C10.1429 72.5632 10.1743 72.6257 10.1743 72.6361C10.1743 72.6492 10.196 72.6856 10.2202 72.7195C10.2444 72.7559 10.2951 72.8601 10.3314 72.9513C10.3652 73.0451 10.4304 73.2014 10.4764 73.303C10.5199 73.402 10.573 73.527 10.5948 73.5765C10.7035 73.8371 11.0201 74.3893 11.1313 74.5066C11.1724 74.5508 11.1675 74.5534 11.0419 74.5613C10.9694 74.5664 10.8461 74.556 10.7664 74.5378C10.5875 74.5013 8.84993 74.4831 8.53817 74.517C8.24576 74.5482 7.61016 74.5899 6.97216 74.616C6.12148 74.655 5.14513 74.7202 5.01464 74.7462C4.83339 74.7879 4.15188 74.8296 3.80146 74.8244C3.36646 74.8191 3.19003 74.8269 3.10545 74.853C3.06678 74.866 2.91936 74.8947 2.7792 74.9156C2.45052 74.965 2.12669 75.0302 2.06627 75.0614C2.03969 75.0744 1.99135 75.0927 1.95752 75.1005C1.92368 75.1109 1.82219 75.1578 1.72794 75.2047C1.39201 75.374 1.23251 75.4522 1.22285 75.4522C1.21802 75.4522 1.13343 75.5017 1.03434 75.5616C0.906263 75.6398 0.780596 75.7544 0.572754 75.981C0.418089 76.1529 0.290005 76.3093 0.290005 76.3275C0.290005 76.3483 0.280339 76.364 0.270667 76.364C0.241672 76.364 0.154663 76.5854 0.118422 76.7417C0.101505 76.812 0.0821704 76.8771 0.0724989 76.885C0.0435034 76.9058 0 77.2288 0 77.4112C0 78.0442 0.171583 78.5939 0.471257 78.9169C0.625922 79.0837 1.01985 79.438 1.04885 79.438C1.05852 79.438 1.12135 79.4822 1.19143 79.5369C1.3751 79.6802 1.63368 79.8079 1.95752 79.9199C2.07111 79.959 2.1847 80.0006 2.21128 80.0137C2.26202 80.0397 2.47711 80.1022 2.65836 80.1413C2.87345 80.1908 4.07938 80.295 4.43946 80.2976C4.58689 80.2976 4.71496 80.308 4.72221 80.3184C4.74154 80.3523 5.27806 80.381 6.36798 80.4044C7.42892 80.4252 8.04034 80.4591 8.11284 80.5008C8.16843 80.5347 8.05484 80.5295 9.61844 80.5555C10.8775 80.5763 11.2884 80.5894 11.9989 80.6259C12.1584 80.6363 12.3324 80.6415 12.3855 80.6415C12.4387 80.6389 12.5088 80.6389 12.5426 80.6415C12.5765 80.6441 13.0598 80.6441 13.6181 80.6415C16.7163 80.6259 16.5785 80.6232 16.7719 80.6727C16.912 80.7066 17.0232 80.717 17.2552 80.7066C17.521 80.6988 17.5718 80.6884 17.6781 80.631C17.8569 80.5321 17.9149 80.4539 17.927 80.2898C17.9367 80.1569 17.9174 80.0814 17.8255 79.9094C17.8062 79.8756 17.6515 79.6959 17.4799 79.5083C17.1658 79.167 17.1585 79.141 17.4002 79.2634C17.5524 79.3416 17.9367 79.3416 18.1131 79.2634C18.1808 79.2347 18.2895 79.1957 18.3572 79.18C18.4732 79.1488 18.4901 79.1514 18.6351 79.2243C18.7729 79.292 19.1305 79.4562 19.4592 79.5968C19.522 79.6255 19.5873 79.6463 19.6042 79.6463C19.6211 79.6463 19.6622 79.662 19.696 79.6802C19.7299 79.701 19.812 79.7297 19.8773 79.7479C19.9425 79.7662 20.0078 79.7896 20.0223 79.8026C20.0344 79.813 20.0851 79.8313 20.131 79.8417C20.177 79.8521 20.2495 79.8756 20.2881 79.8938C20.3292 79.912 20.4211 79.9433 20.4936 79.959C20.5661 79.9772 20.6386 80.0006 20.6506 80.0111C20.6651 80.0241 20.7449 80.0475 20.8319 80.0632C20.9189 80.0788 21.001 80.1022 21.0131 80.1152C21.0276 80.1257 21.1243 80.1517 21.2307 80.1673C21.337 80.1856 21.4361 80.209 21.4481 80.2195C21.4626 80.2299 21.5738 80.2533 21.6971 80.2716C21.8203 80.2898 21.9267 80.3158 21.9339 80.3263C21.9412 80.3393 21.9967 80.3497 22.0596 80.3523C22.1441 80.3523 22.1611 80.3601 22.1248 80.3758C22.0862 80.394 22.0934 80.3992 22.1635 80.3992C22.2094 80.4018 22.2577 80.4122 22.2722 80.4252C22.2843 80.4357 22.4293 80.4617 22.5961 80.48C22.7628 80.4982 22.9102 80.5216 22.9223 80.5321C22.9368 80.5425 23.1036 80.5659 23.2969 80.5842C23.4903 80.6024 23.6594 80.6285 23.6739 80.6415C23.7682 80.717 27.4464 80.7118 27.5793 80.6337C27.6204 80.6102 27.9756 80.6024 29.0003 80.6076C30.2763 80.6102 31.0762 80.5842 31.1391 80.5321C31.1536 80.5216 31.2309 80.5008 31.3131 80.4826C31.3952 80.4643 31.4943 80.4357 31.5306 80.4148C31.5668 80.394 31.6079 80.3758 31.6176 80.3758C31.6853 80.3758 32.1662 79.959 32.1662 79.9017C32.1662 79.8912 32.2024 79.8261 32.2484 79.7583C32.2918 79.688 32.3426 79.5864 32.3619 79.5291C32.3788 79.4718 32.4006 79.4119 32.4103 79.3989C32.4199 79.3832 32.4393 79.2842 32.4562 79.1774C32.4731 79.0706 32.4949 78.969 32.5069 78.956C32.5166 78.9404 32.5359 78.8596 32.5504 78.7736C32.5674 78.6877 32.5891 78.5939 32.6012 78.5653C32.6954 78.3412 32.6954 77.1611 32.6012 77.0282C32.5915 77.0126 32.5746 76.9605 32.5649 76.911C32.5553 76.8615 32.5335 76.7834 32.5166 76.7417C32.4997 76.6974 32.4731 76.6219 32.4562 76.5724C32.3837 76.3561 32.0695 75.6606 31.9946 75.5616C31.9704 75.5251 31.9487 75.4808 31.9487 75.4626C31.9487 75.4417 31.939 75.4261 31.9245 75.4261C31.9124 75.4261 31.9003 75.4131 31.9003 75.3949C31.9003 75.3793 31.8762 75.3297 31.8448 75.2855C31.8133 75.2412 31.7819 75.1839 31.7723 75.1578C31.765 75.1344 31.7457 75.1135 31.7312 75.1135C31.7191 75.1135 31.707 75.1005 31.707 75.0875C31.707 75.0718 31.6563 74.9833 31.5934 74.8921C31.5282 74.8009 31.4291 74.6498 31.3687 74.5613C31.3083 74.4701 31.2527 74.3841 31.243 74.3711C31.156 74.2538 30.982 73.9881 30.982 73.9777C30.982 73.9621 30.8491 73.7901 30.5953 73.4723C30.4817 73.3317 30.2256 72.9904 30.1652 72.9018C30.1434 72.868 30.0685 72.7742 30.0032 72.6934C29.851 72.5137 29.7519 72.3834 29.6891 72.2896C29.6093 72.1698 29.4136 71.8989 29.3749 71.8546C29.3556 71.8311 29.3386 71.8077 29.3386 71.7973C29.3386 71.7895 29.2855 71.7009 29.2178 71.6045C29.1526 71.5081 29.0342 71.3362 28.9592 71.2242C28.8819 71.1121 28.7635 70.948 28.6958 70.8595C28.6306 70.7709 28.5001 70.599 28.4082 70.4765C28.3164 70.3541 28.1545 70.1483 28.0481 70.018C27.9394 69.8878 27.7678 69.6767 27.6663 69.5491C27.4947 69.3355 27.0138 68.817 26.1631 67.9236C25.9795 67.7308 25.7837 67.4989 25.7281 67.4103C25.6725 67.3218 25.5444 67.1472 25.4429 67.0196C25.2544 66.7851 25.1868 66.6887 24.9572 66.3214C24.8122 66.0896 24.469 65.5008 24.324 65.2351C24.3119 65.2116 24.2684 65.1361 24.2298 65.0658C24.1911 64.9981 24.0775 64.7922 23.976 64.6073C23.8745 64.4249 23.7754 64.2478 23.7561 64.2139C23.7368 64.1801 23.6812 64.0863 23.6353 64.0055C23.5893 63.9248 23.5096 63.7971 23.4613 63.7242C23.3694 63.5913 23.3404 63.5158 23.4008 63.5679C23.4153 63.5809 23.4782 63.6096 23.5386 63.6278C23.599 63.646 23.6618 63.6721 23.6812 63.6877C23.7295 63.7294 24.2443 63.7242 24.2588 63.6825C24.2708 63.6434 24.3409 63.6408 24.3796 63.6825C24.3989 63.7033 24.4158 63.7033 24.4376 63.6851C24.4545 63.6695 24.5318 63.6434 24.6092 63.6252C24.6841 63.6069 24.7469 63.5835 24.7469 63.5731C24.7469 63.5627 24.7832 63.5444 24.8267 63.5366C24.9572 63.5106 25.6798 63.1042 25.8538 62.9609C25.9118 62.9114 25.9674 62.8697 25.977 62.8645C25.9988 62.8541 26.1027 62.6952 26.1438 62.6092C26.2018 62.4894 26.2235 62.2992 26.1945 62.1169C26.1825 62.0231 26.1607 61.9397 26.151 61.9319C26.1414 61.9241 26.1244 61.8876 26.1172 61.8485C26.1075 61.8094 26.0834 61.7626 26.064 61.7391C26.0447 61.7183 26.0278 61.6896 26.0278 61.6766C26.0278 61.6609 25.9867 61.6245 25.9384 61.5906C25.8659 61.5463 25.8127 61.5333 25.6894 61.5359C25.6024 61.5385 25.5034 61.5333 25.4671 61.5255C25.4067 61.5125 25.3994 61.4994 25.3994 61.403C25.397 61.1764 25.2593 61.0227 25.0418 60.9967L24.904 60.981L25.049 60.8247C25.194 60.6684 25.3269 60.4809 25.3269 60.4313C25.3269 60.4183 25.3439 60.374 25.3632 60.335C25.3825 60.2959 25.4091 60.1891 25.4236 60.1005C25.4381 60.012 25.4599 59.8973 25.4719 59.8478C25.4864 59.7983 25.5082 59.5587 25.5227 59.3138C25.5348 59.0715 25.5565 58.8605 25.5686 58.8449C25.5783 58.8319 25.5952 58.7589 25.6049 58.6886C25.6145 58.6156 25.6411 58.5375 25.6629 58.5088C25.6967 58.4671 25.7015 58.3786 25.7015 57.8419C25.7015 57.4277 25.6919 57.2037 25.6725 57.162C25.658 57.1281 25.6339 57.0161 25.6194 56.9145C25.6049 56.8129 25.5759 56.6957 25.5565 56.654C25.5372 56.6124 25.5203 56.5654 25.5203 56.5472C25.5203 56.516 25.4429 56.331 25.397 56.2528C25.3849 56.232 25.3584 56.1773 25.339 56.133C25.31 56.0627 25.1578 55.8256 25.0804 55.7318C25.0635 55.711 25.0055 55.6302 24.9499 55.5495C24.8243 55.3697 24.3699 54.8982 24.1911 54.7601C24.1573 54.7367 24.0654 54.6663 23.9857 54.6038C23.9059 54.5413 23.8238 54.484 23.8044 54.4736C23.7851 54.4631 23.715 54.4215 23.6473 54.3772C23.4612 54.2573 23.2244 54.1427 23.1036 54.1115C23.0432 54.0958 22.9006 54.0828 22.7846 54.0776C22.5139 54.0698 22.4293 54.0515 22.2843 53.9734C22.1635 53.9083 21.9146 53.6425 21.8131 53.4706C21.7817 53.4185 21.685 53.2961 21.6004 53.2023C21.3128 52.8845 21.0615 52.8949 20.8488 53.2309C20.8077 53.2935 20.8005 53.2961 20.4984 53.2961C20.2181 53.2961 20.1842 53.3013 20.1141 53.356C20.0271 53.4211 19.9957 53.4263 19.9691 53.3769C19.9401 53.3247 19.8531 53.2831 19.771 53.2831C19.7226 53.2831 19.6646 53.3169 19.5849 53.3899C19.5075 53.4602 19.4592 53.4888 19.4326 53.4758C19.4109 53.4654 19.3118 53.4368 19.2127 53.4133C19.1136 53.3899 19.0121 53.3612 18.9904 53.3508C18.9686 53.3404 18.93 53.343 18.901 53.3586C18.8744 53.3742 18.8333 53.3873 18.8067 53.3873C18.7269 53.3873 18.536 53.5149 18.4176 53.6425C18.2726 53.8015 18.2025 53.9474 18.1832 54.1271C18.1735 54.2078 18.159 54.273 18.1494 54.273C18.13 54.273 18.0769 53.9864 18.0769 53.8796C18.0769 53.8431 18.0672 53.8041 18.0551 53.7884C17.9609 53.6842 17.9609 52.0092 18.0527 51.7851C18.0648 51.7565 18.0865 51.6106 18.101 51.4595C18.1179 51.311 18.1373 51.1703 18.1469 51.1469C18.159 51.1261 18.1808 50.988 18.1977 50.8395C18.2146 50.6936 18.2364 50.566 18.2485 50.5582C18.2605 50.5503 18.2702 50.5191 18.2702 50.4852C18.2702 50.454 18.2968 50.3446 18.3282 50.2456C18.3596 50.1466 18.3935 50.0137 18.4031 49.9486C18.4128 49.8834 18.4297 49.8183 18.4394 49.8053C18.449 49.7896 18.4708 49.6907 18.4877 49.5838C18.5046 49.477 18.524 49.3755 18.5336 49.3624C18.5433 49.3468 18.565 49.2843 18.5819 49.2191C18.6158 49.0785 18.6134 49.0837 18.7995 48.6643C18.8816 48.4819 18.9469 48.3282 18.9469 48.3204C18.9469 48.3152 18.9735 48.2448 19.0073 48.1667C19.0411 48.0885 19.0677 48.0156 19.0677 48.0026C19.0677 47.9922 19.0822 47.9531 19.0991 47.9166C19.116 47.8801 19.145 47.7916 19.1644 47.7213C19.1837 47.6483 19.2127 47.5623 19.2296 47.5259C19.2465 47.4894 19.2683 47.419 19.2755 47.3695C19.2852 47.32 19.2997 47.2653 19.3094 47.2523C19.319 47.2367 19.3432 47.1559 19.3601 47.07C19.377 46.984 19.3988 46.9007 19.4085 46.885C19.4205 46.872 19.4399 46.7704 19.4568 46.6636C19.4713 46.5594 19.4955 46.4604 19.5051 46.4448C19.5172 46.4317 19.5269 46.3901 19.5269 46.351C19.5269 46.3119 19.5365 46.2728 19.5486 46.265C19.5801 46.2416 19.597 46.0801 19.6235 45.546C19.6888 44.2591 19.725 43.7902 19.7951 43.3056C19.8096 43.1988 19.8386 42.9983 19.8555 42.8628C19.8918 42.5892 19.9039 42.5111 19.9136 42.5111C19.916 42.5111 19.9377 42.4121 19.9619 42.2897C19.9861 42.1672 20.0295 41.9614 20.0561 41.8338C20.0851 41.7035 20.1238 41.5108 20.1456 41.4039C20.1673 41.2971 20.1915 41.1982 20.2035 41.1825C20.2132 41.1695 20.2301 41.1044 20.2398 41.0392C20.2495 40.9741 20.2712 40.8855 20.2881 40.8439C20.3051 40.7996 20.3316 40.7084 20.3486 40.6355C20.3631 40.5651 20.3848 40.4948 20.3945 40.4792C20.4066 40.4661 20.4211 40.4166 20.4307 40.375C20.4621 40.2265 20.6482 39.7497 20.6893 39.7107C20.6966 39.7028 20.7159 39.6559 20.7352 39.6065C20.7932 39.4475 20.8416 39.4137 21.2307 39.2522C21.8203 39.0073 22.3085 38.64 22.4728 38.3143C22.6686 37.934 22.8426 37.6943 23.3187 37.1473C23.5579 36.8685 23.6594 36.6627 23.6594 36.4491C23.6594 36.2954 23.6498 36.2772 23.5579 36.2121C23.4806 36.1599 23.396 36.1547 23.309 36.199C23.2244 36.2407 23.2147 36.2173 23.2728 36.087C23.3598 35.8838 23.4323 35.764 23.7271 35.3341C24.0654 34.8366 24.1355 34.7115 24.1669 34.5266C24.1983 34.352 24.1597 34.1541 24.0824 34.0889C24.0292 34.0446 24.0268 34.029 24.0388 33.8206C24.0533 33.6018 24.0509 33.5966 23.9857 33.5419C23.9156 33.4819 23.7875 33.4689 23.6933 33.5106ZM16.6993 44.5326C16.6993 44.5483 16.68 44.5795 16.6583 44.603C16.6196 44.6447 16.6196 44.6447 16.6341 44.6004C16.6438 44.5743 16.651 44.5405 16.651 44.5274C16.651 44.5144 16.6631 44.504 16.6752 44.504C16.6897 44.504 16.6993 44.517 16.6993 44.5326ZM18.8526 60.1083C18.9686 60.2151 18.971 60.2178 18.971 60.3689C18.971 60.4809 18.9879 60.5538 19.0339 60.6528C19.0701 60.7257 19.1088 60.7856 19.1185 60.7856C19.1305 60.7856 19.1402 60.7961 19.1402 60.8117C19.1402 60.8352 19.2804 61.0722 19.3118 61.0982C19.3456 61.1295 19.6477 61.8355 19.6477 61.885C19.6477 61.9006 19.6646 61.9475 19.6816 61.9918C19.725 62.0908 19.7831 62.3148 19.8386 62.5832C19.8604 62.6899 19.8846 62.789 19.8918 62.8046C19.9015 62.8176 19.9208 62.9296 19.9377 63.052C19.9546 63.1745 19.9788 63.2943 19.9909 63.3178C20.003 63.3438 20.0006 63.3672 19.9861 63.3777C19.9716 63.3881 19.9619 63.5496 19.9619 63.7763C19.9619 64.1983 19.9232 64.7688 19.8894 64.8105C19.8797 64.8235 19.8556 64.9303 19.841 65.0449C19.8241 65.1595 19.8 65.269 19.7855 65.2846C19.7734 65.3028 19.7613 65.4904 19.7589 65.7014C19.7565 66.1104 19.7903 66.2901 19.9184 66.5559C20.0175 66.7591 20.3026 67.0899 20.38 67.0899C20.3896 67.0899 20.4452 67.116 20.5008 67.1472C20.5878 67.1941 20.6506 67.2045 20.9527 67.2124C21.2959 67.2228 21.4312 67.2098 21.8469 67.1316C21.9581 67.1081 22.0572 67.1003 22.0668 67.1107C22.0934 67.1472 22.4027 67.6604 22.4027 67.6708C22.4027 67.6787 22.4728 67.8089 22.5598 67.9626C22.6468 68.1163 22.7169 68.244 22.7169 68.2492C22.7169 68.2544 22.7532 68.3273 22.7991 68.4107C22.8957 68.5931 23.0287 68.8614 23.2534 69.3303C23.5144 69.8748 23.599 70.0466 23.6111 70.0597C23.6183 70.0675 23.6691 70.1665 23.7223 70.2811C23.9228 70.6979 24.0413 70.9376 24.1524 71.1512C24.2128 71.2711 24.2636 71.3779 24.2636 71.3909C24.2636 71.4039 24.2733 71.4143 24.2829 71.4143C24.2926 71.4143 24.3168 71.4586 24.3337 71.5107C24.353 71.5654 24.3748 71.6149 24.382 71.6227C24.4062 71.6436 24.4545 71.7426 24.6285 72.1047C24.9089 72.6908 25.0369 72.9774 25.0369 73.0165C25.0369 73.0347 25.3004 73.6313 25.4164 73.8761C25.7209 74.5144 26.0278 75.1761 26.0278 75.1969C26.0278 75.2282 25.9504 75.2229 25.878 75.1812C25.8441 75.1604 25.7402 75.1317 25.6484 75.1161C25.5589 75.1005 25.4454 75.0823 25.3994 75.0744C25.3535 75.0667 25.2013 75.0406 25.0611 75.0197C24.9209 74.9989 24.7904 74.9729 24.7711 74.9624C24.7518 74.9546 24.6213 74.926 24.4811 74.9025C24.0606 74.8269 23.4685 74.6941 23.3694 74.6498C23.3501 74.642 23.2462 74.616 23.1398 74.5899C22.9779 74.5508 22.8305 74.5091 22.5477 74.4232C22.5284 74.418 22.4462 74.3945 22.3665 74.3711C22.2867 74.3476 22.1997 74.319 22.1732 74.3034C22.1466 74.2903 22.0644 74.2617 21.9919 74.2408C21.7817 74.1861 21.598 74.1262 21.5448 74.1027C21.5182 74.0897 21.4651 74.0637 21.4288 74.048C21.3926 74.0324 21.3491 73.9881 21.3321 73.9465C21.3056 73.8865 21.1968 73.6807 21.0131 73.3577C20.9068 73.1676 20.815 73.0216 20.7231 72.8888C20.67 72.8106 20.6096 72.7195 20.5902 72.6856C20.5467 72.6126 20.044 72.0708 19.9595 72.0083C19.928 71.9848 19.8652 71.9327 19.8217 71.8937C19.684 71.7738 19.133 71.3883 19.0991 71.3883C19.0822 71.3883 19.0677 71.3779 19.0677 71.3674C19.0677 71.3544 19.0242 71.3283 18.971 71.3101C18.9179 71.2919 18.8744 71.2685 18.8744 71.258C18.8744 71.2476 18.8115 71.2242 18.7366 71.2059C18.6593 71.1877 18.5868 71.1642 18.5723 71.1538C18.5602 71.1434 18.4829 71.12 18.4031 71.1017C18.3234 71.0835 18.2412 71.06 18.2219 71.0496C18.2001 71.0366 18.0479 71.0131 17.8835 70.9975C17.7168 70.9819 17.5597 70.9584 17.5331 70.9454C17.5065 70.935 17.405 70.9116 17.3084 70.8959C17.2117 70.8803 17.1078 70.849 17.0788 70.8308C17.0498 70.8099 16.9869 70.7865 16.941 70.7761C16.8468 70.7579 16.8347 70.7526 16.5906 70.6302C16.3393 70.5052 16.158 70.3567 15.9018 70.0623C15.6602 69.7861 15.607 69.7158 15.5176 69.5569C15.4668 69.4657 15.462 69.4345 15.4741 69.2365C15.4789 69.1166 15.4958 69.0021 15.5103 68.9838C15.5224 68.9682 15.5466 68.8223 15.5611 68.666C15.578 68.5071 15.5998 68.356 15.6118 68.3273C15.6239 68.2986 15.6457 68.1762 15.6578 68.0538C15.6722 67.9287 15.7037 67.7881 15.7327 67.7282C15.7593 67.6734 15.781 67.6005 15.781 67.5719C15.781 67.5406 15.7907 67.5067 15.8028 67.4911C15.8148 67.4781 15.8366 67.3374 15.8535 67.1811C15.868 67.0222 15.8946 66.8476 15.9139 66.7903C15.9308 66.733 15.9526 66.6393 15.9623 66.5819C15.9719 66.5246 15.9888 66.4647 15.9985 66.4517C16.0082 66.436 16.0299 66.3605 16.0468 66.2824C16.0638 66.2042 16.0879 66.1234 16.1024 66.1026C16.129 66.0687 16.1363 65.8499 16.1169 65.6155C16.1073 65.4852 16.1097 65.48 16.2353 65.3341C16.303 65.2507 16.361 65.1674 16.361 65.1465C16.361 65.1257 16.3707 65.1101 16.3803 65.1101C16.4166 65.1101 16.6027 64.675 16.6317 64.5265C16.6462 64.4458 16.6655 64.3806 16.6752 64.3806C16.6848 64.3806 16.7066 64.3312 16.7235 64.2686C16.7429 64.2087 16.7694 64.1358 16.7863 64.1071C16.8033 64.0784 16.8226 64.016 16.8323 63.969C16.8419 63.9222 16.8637 63.8518 16.883 63.8128C16.9024 63.7737 16.9168 63.7242 16.9168 63.7033C16.9168 63.6825 16.9314 63.633 16.9507 63.5939C16.97 63.5574 16.9966 63.4819 17.0135 63.4246C17.0498 63.31 17.2214 63.0156 17.3567 62.8411C17.4074 62.7733 17.4485 62.7082 17.4485 62.6926C17.4485 62.6769 17.4558 62.6613 17.4679 62.6561C17.4775 62.6509 17.5138 62.6066 17.5476 62.5571C17.5839 62.5076 17.6854 62.3774 17.7724 62.2705C17.8618 62.1637 17.9415 62.0621 17.9512 62.0491C17.9609 62.0335 18.0044 61.9684 18.0479 61.9006C18.089 61.8355 18.1252 61.7677 18.1252 61.7521C18.1252 61.7365 18.1349 61.7235 18.1445 61.7235C18.1687 61.7235 18.3185 61.4031 18.3185 61.3483C18.3185 61.3249 18.3282 61.3067 18.3403 61.3067C18.3814 61.3067 18.4442 60.9576 18.4635 60.6294C18.4732 60.4496 18.4901 60.2802 18.4998 60.2516C18.5215 60.1865 18.5723 60.0588 18.623 59.9364L18.6641 59.8452L18.698 59.9234C18.7173 59.965 18.7874 60.0484 18.8526 60.1083ZM22.874 62.5493C22.8837 62.604 22.9078 62.6874 22.9296 62.7368C22.9731 62.8411 22.9827 63.039 22.9417 63.039C22.9272 63.039 22.8812 62.9921 22.8402 62.9348C22.7991 62.8775 22.7507 62.8124 22.729 62.789C22.7097 62.7655 22.6927 62.7394 22.6927 62.7264C22.6927 62.7134 22.6758 62.6847 22.6541 62.6587C22.6202 62.6196 22.6251 62.6092 22.7097 62.5336C22.7604 62.4894 22.8136 62.4529 22.8281 62.4529C22.845 62.4529 22.8643 62.4972 22.874 62.5493ZM29.6117 80.4982C29.5948 80.5034 29.561 80.5034 29.5392 80.4982C29.5151 80.4904 29.5296 80.4852 29.5682 80.4852C29.6093 80.4852 29.6262 80.4904 29.6117 80.4982Z" fill="#39BBD1"/>
</svg>
