<svg width="209" height="209" viewBox="0 0 209 209" fill="none" xmlns="http://www.w3.org/2000/svg">
<path d="M107.895 15.2631C108.068 15.2581 108.257 15.1297 108.415 15.2548C108.687 15.2744 108.96 15.262 109.232 15.2682C109.339 15.4156 109.525 15.3803 109.684 15.3797C109.685 15.4072 109.688 15.4622 109.689 15.4896C109.731 15.4908 109.814 15.4924 109.855 15.4935C109.969 15.6074 110.13 15.5962 110.277 15.622C110.401 15.673 110.52 15.7499 110.661 15.7437C110.67 15.8677 110.757 15.9557 110.835 16.0437C111.435 16.1251 110.859 16.0801 111.364 16.1733C111.365 16.1924 111.369 16.231 111.371 16.2501C111.475 16.2535 111.572 16.2848 111.663 16.3342C111.647 16.3017 111.615 16.2371 111.598 16.2052C111.648 16.1974 111.748 16.1828 111.798 16.1755C111.723 16.3925 111.949 16.5321 112.009 16.7211C112.025 16.7222 112.06 16.7244 112.076 16.7261C112.14 16.8707 112.211 17.0127 112.281 17.1551C112.43 17.1534 112.403 17.2852 112.387 17.3884C112.424 17.3929 112.499 17.4018 112.537 17.4064C112.547 17.4743 112.557 17.5426 112.568 17.6105C112.746 17.5965 112.919 17.5495 113.099 17.5399C113.093 17.5074 113.08 17.4422 113.074 17.4103C113.168 17.4198 113.265 17.4294 113.361 17.4389C113.357 17.4064 113.348 17.3402 113.344 17.3077C113.511 17.2863 113.683 17.3093 113.847 17.2696C113.862 17.2477 113.891 17.204 113.905 17.1821C114.072 17.1984 114.242 17.0913 114.401 17.1653C114.578 17.1704 116.65 17.1941 116.887 17.1422C117.139 17.1916 117.398 17.1669 117.653 17.2067C117.734 17.2672 117.817 17.3266 117.898 17.389C117.933 17.3918 118.001 17.3973 118.035 17.4001C118.036 17.4276 118.038 17.482 118.039 17.5089C118.147 17.5089 118.256 17.5089 118.366 17.5084C118.404 17.5577 118.444 17.6076 118.484 17.657C118.533 17.6436 118.582 17.6301 118.633 17.6178C118.688 17.7154 118.801 17.7462 118.875 17.8264C119.179 17.8841 119.18 17.9172 119.463 18.1057C119.578 18.1163 119.647 18.2066 119.725 18.2818C119.795 18.2918 119.866 18.2986 119.938 18.302C119.953 18.3228 119.982 18.3642 119.997 18.385C120.07 18.4097 120.138 18.4489 120.193 18.5055C120.451 18.4949 120.674 18.6451 120.814 18.8526C120.881 18.8532 120.948 18.8543 121.016 18.8548C121.027 18.8801 121.047 18.9306 121.057 18.9558C121.124 18.9636 121.192 18.9716 121.26 18.9805C121.369 19.1437 121.596 19.082 121.764 19.1056C121.813 19.1633 121.864 19.2199 121.916 19.2771C121.984 19.3102 122.047 19.3534 122.104 19.4067C122.138 19.4123 122.206 19.4235 122.24 19.4291C122.319 19.5043 122.397 19.5789 122.479 19.6534C122.489 19.6192 122.509 19.5508 122.52 19.5171C122.534 19.6394 122.624 19.7178 122.718 19.7857C122.773 19.7448 122.828 19.7022 122.883 19.6601C122.852 19.7542 122.823 19.848 122.792 19.9415C123.06 20.0464 123.22 20.31 123.388 20.5292C123.413 20.5393 123.464 20.5589 123.49 20.5684C123.584 20.7355 123.693 20.8959 123.761 21.0771C123.805 21.0104 123.845 20.9419 123.887 20.8735C123.888 20.9833 123.768 21.1532 123.918 21.2043C123.944 21.1835 123.995 21.1415 124.021 21.1202C123.996 21.2004 123.976 21.2817 123.957 21.3635C124.099 21.511 124.208 21.6871 124.278 21.88C124.295 21.8811 124.33 21.8844 124.347 21.8861C124.493 22.2604 124.999 23.0231 124.999 23.3116C125.118 23.5067 125.123 23.7495 125.255 23.9357C125.262 23.9873 125.27 24.0394 125.278 24.0916C125.451 24.4376 125.585 25.6755 125.444 26.0071C125.529 26.0037 125.614 26.0015 125.7 25.9993C125.691 26.0425 125.673 26.1283 125.664 26.1708C125.711 26.2129 125.758 26.2555 125.806 26.2981C125.738 26.3811 125.706 26.4977 125.802 26.5723C125.661 26.5617 125.521 26.5571 125.381 26.5549C125.418 26.6631 125.459 26.7719 125.499 26.8801C125.434 26.8902 125.372 26.9065 125.313 26.9289C125.269 26.9917 125.341 27.0563 125.354 27.119C125.334 27.1201 125.294 27.1229 125.275 27.1241C125.267 27.2239 125.294 27.3377 125.223 27.4213C125.225 27.4684 125.23 27.5631 125.232 27.6102C125.217 27.6175 125.186 27.6321 125.171 27.6394C125.16 27.5945 125.137 27.5048 125.125 27.4599C125.012 27.526 125.019 27.6624 124.999 27.7728C124.942 28.3667 124.911 28.9807 124.665 29.5336C124.559 29.7663 124.567 30.0321 124.452 30.2614C124.366 30.4235 124.327 30.6041 124.306 30.7846C124.284 30.8065 124.241 30.8496 124.219 30.8715C124.149 31.1822 123.991 31.4714 123.992 31.7967C124.048 32.0198 124.064 32.2671 123.999 32.4892C123.858 32.6613 123.659 32.7736 123.478 32.8991C123.466 32.9636 123.455 33.0281 123.445 33.0925C123.382 33.0948 123.32 33.097 123.259 33.0993C123.257 33.1273 123.254 33.1828 123.253 33.2108C123.225 33.2097 123.168 33.2075 123.139 33.2064C123.15 33.2658 123.161 33.3252 123.173 33.3853C123.099 33.4425 123.027 33.5008 122.955 33.5591C122.946 33.5854 122.929 33.6381 122.92 33.6645C122.726 33.6376 122.527 33.6017 122.335 33.6611C122.344 33.7582 122.358 33.8579 122.444 33.9197C122.461 33.9674 122.479 34.0162 122.498 34.0649C122.369 34.0638 122.265 34.1339 122.162 34.2011C121.562 35.2055 122.823 35.7138 121.982 36.665C121.823 36.702 121.671 36.7621 121.518 36.8182C121.517 36.8535 121.517 36.923 121.517 36.9583C121.381 36.9634 121.355 37.1063 121.296 37.2C120.775 38.1347 120.584 38.0326 120.467 38.4264C120.389 38.6956 120.201 38.9104 120.028 39.1224C119.822 39.2637 119.209 39.8873 119.19 40.0453C119.032 40.9393 118.515 40.7903 118.381 40.9016C118.109 41.0867 118.012 41.422 117.818 41.6744C117.083 42.617 116.89 43.1755 115.406 42.7269C115.386 42.71 115.345 42.6764 115.325 42.6591C114.822 42.441 115.453 42.5153 114.501 42.3955C114.295 42.3894 114.111 42.2912 113.934 42.1965C113.893 42.192 113.812 42.1824 113.771 42.1774C113.754 42.1533 113.721 42.105 113.704 42.0809C113.556 42.0388 113.403 42.0355 113.251 42.0399C113.022 42.548 112.858 43.0874 112.746 43.6336C112.77 43.6566 112.817 43.7037 112.841 43.7272C112.944 43.7681 113.043 43.818 113.142 43.8707C113.135 43.8914 113.121 43.9329 113.114 43.9537C113.232 44.0013 113.347 44.0569 113.462 44.1118C113.468 44.2037 113.492 44.298 113.584 44.3412C113.77 44.487 113.865 44.741 114.093 44.8268C114.099 44.7819 114.111 44.6928 114.117 44.6479C114.12 44.7398 114.12 44.8313 114.124 44.9243C114.159 44.9193 114.23 44.908 114.266 44.9024C114.238 44.9462 114.212 44.991 114.188 45.0365C114.259 45.1278 114.343 45.2091 114.424 45.2921C114.648 45.4419 114.711 45.7749 114.995 45.8321C114.968 45.8343 114.914 45.8399 114.887 45.8422C114.959 45.9465 115.035 46.0497 115.108 46.1534C115.136 46.1456 115.189 46.1293 115.216 46.1215C115.193 46.1434 115.147 46.1865 115.124 46.2084C115.363 46.2969 115.636 46.3261 115.833 46.5005C115.911 46.5729 116.024 46.5667 116.122 46.5936C116.332 46.7579 116.568 46.9014 116.827 46.9704C116.939 47.0524 117.483 47.512 118.058 47.613C118.057 47.6333 118.054 47.673 118.053 47.6932C118.175 47.7083 120.004 48.6914 120.166 48.7935C121.114 49.2835 122.853 51.5033 123.908 54.5137C124.055 54.9219 124.102 55.3885 124.401 55.7243C126.107 57.7206 126.019 57.7721 126.225 57.8244C126.213 57.9135 126.271 57.9741 126.334 58.0308C126.605 57.4722 126.868 56.8891 126.928 56.2632C127.103 54.1751 127.046 47.4331 125.884 46.5678C125.025 46.3235 125.378 47.0057 124.08 46.4169C124.071 46.4011 124.053 46.3692 124.043 46.3536C123.782 46.3278 123.689 46.0384 123.454 45.9537C123.381 45.9156 123.307 45.8808 123.234 45.8483C123.023 45.6688 122.721 45.6588 122.529 45.4574C122.502 45.4485 122.449 45.4299 122.422 45.421C122.268 45.2494 122.066 45.1333 121.881 45.0004C121.779 44.9774 121.677 44.9549 121.576 44.9343C121.404 44.6037 121.357 44.5015 121.746 44.046C121.835 44.0225 121.909 43.9725 121.958 43.894C121.973 43.9002 122.004 43.9126 122.02 43.9187C122.104 43.7197 122.369 43.8435 122.501 43.6956C122.584 43.8424 122.776 43.7477 122.911 43.7578C123.07 43.7836 123.23 43.7975 123.392 43.811C123.519 44.0152 123.759 44.1481 124.003 44.1149C123.996 44.1413 123.982 44.1929 123.976 44.2192C124.103 44.2276 124.232 44.24 124.361 44.2518C124.415 44.1867 124.47 44.1228 124.528 44.0605C124.673 43.7039 124.849 43.354 124.915 42.971C125.033 41.1008 122.55 38.5858 123.217 36.9149C122.728 35.9114 122.724 35.5092 123.085 35.1137C123.046 35.0907 123.008 35.0677 122.971 35.0453C123.077 35.0481 123.185 35.0514 123.292 35.057C123.327 35.0071 123.363 34.9577 123.399 34.9078C123.557 34.9525 123.4 34.895 123.678 35.0272C123.704 35.1051 123.731 35.182 123.761 35.2599C123.8 35.2627 123.877 35.2689 123.916 35.2717C123.875 35.2907 123.834 35.3097 123.794 35.3294C123.919 35.5564 124.114 35.7315 124.28 35.9271C124.3 35.9344 124.34 35.9479 124.36 35.9546C124.428 36.1319 124.497 36.3437 124.717 36.3718C124.581 35.5845 124.17 35.3495 124.951 34.7725C124.953 34.7333 124.957 34.6548 124.959 34.6155C124.972 34.6424 125 34.6951 125.014 34.7215C125.082 34.7074 125.152 34.6935 125.222 34.6805C125.44 34.8481 125.516 35.1184 125.636 35.354C125.803 35.3254 125.889 35.1605 126.01 35.0579C126.129 35.0523 126.254 35.0265 126.371 35.0679C126.561 35.3523 126.789 35.6079 126.928 35.9242C127.151 36.1979 127.346 36.4917 127.494 36.8136C127.532 36.7878 127.571 36.762 127.611 36.7367C127.611 36.7783 127.612 36.8607 127.612 36.9022C127.798 37.2341 128.05 37.5212 128.306 37.8004C128.349 37.778 128.394 37.7555 128.439 37.7343C128.551 38.2529 128.683 37.9419 129.013 38.6192C129.181 39.7249 129.539 40.8268 129.698 41.1616C129.85 41.8177 129.852 42.5091 130.076 43.1484C130.306 43.6251 130.35 44.1606 130.544 44.6507C130.652 45.0152 130.936 45.3202 130.942 45.7145C131.18 54.2599 133.138 55.1216 132.467 64.1639C132.367 67.4419 132.359 67.9599 132.042 68.4794C130.61 71.1515 126.796 68.9495 124.699 67.8104C119.903 65.0475 119.057 62.1406 118.22 61.3758C117.951 64.2778 116.665 64.3507 114.273 66.8347C114.307 66.9828 114.278 67.1319 114.235 67.2754C114.119 67.4464 113.976 67.5973 113.813 67.7252C113.516 68.0227 113.641 69.2249 113.414 69.6071C112.914 72.2591 112.127 74.3342 112.107 75.8348C112.405 75.7927 112.687 75.6811 112.969 75.5785C124.694 71.8645 126.183 71.9836 126.183 71.9836C128.649 71.8161 131.039 70.9221 133.537 71.0299C143.697 71.4686 137.768 84.115 136.433 95.7024C133.658 110.579 134.376 106.181 135.598 120.255C136.271 119.879 136.899 120.364 136.983 120.745C137.154 121.127 136.865 121.517 136.896 121.907C137.102 122.466 136.83 122.484 137.284 123.185C137.509 123.728 137.879 124.486 137.364 124.894C137.378 124.941 137.395 124.989 137.414 125.037C137.594 125.117 137.772 125.249 137.955 125.324C138.287 125.599 139.088 126.158 138.697 127.277C138.58 127.508 138.519 127.773 138.33 127.96C138.19 128.011 138.054 128.075 137.909 128.113C137.904 128.33 138.133 128.421 138.187 128.614C138.209 128.685 138.226 128.761 138.245 128.837C138.603 129.261 139.294 129.925 139.437 130.163C139.431 130.205 139.419 130.292 139.413 130.334C138.975 130.294 138.503 129.383 138.148 129.24C138.159 129.324 138.177 129.411 138.202 129.495C138.188 129.637 138.162 129.778 138.128 129.918C138.226 130.599 138.36 130.24 138.411 130.854C137.952 131.422 138.25 130.887 137.948 131.791C137.944 132.184 139.279 134.009 139.391 134.116C139.397 134.144 139.409 134.2 139.415 134.228C139.797 134.758 140.118 135.341 140.593 135.8C140.701 135.94 140.869 136.074 140.848 136.272C140.854 136.654 140.936 137.079 140.75 137.431C140.745 137.467 140.735 137.539 140.73 137.575C140.697 137.608 140.666 137.643 140.635 137.679C140.618 137.745 140.601 137.813 140.585 137.882C140.631 138.173 140.376 138.361 140.204 138.551C139.755 139.129 137.738 139.095 137.213 138.599C137.052 138.607 136.892 138.594 136.746 138.523C136.632 138.452 136.521 138.551 136.412 138.578C136.263 138.555 136.117 138.515 135.97 138.495C135.741 138.355 135.405 138.245 135.405 138.245C135.36 138.169 135.337 138.084 135.299 138.009C135.099 137.95 134.829 137.908 134.751 137.683C134.576 137.731 134.397 137.757 134.217 137.738C134.209 137.711 134.192 137.657 134.184 137.629C134.14 137.627 134.053 137.622 134.009 137.619C133.973 137.582 133.939 137.547 133.904 137.514C133.868 137.509 133.795 137.5 133.758 137.495C133.688 137.429 133.363 137.208 133.24 137.141C133.231 137.056 133.298 136.935 133.214 136.881C133.058 136.834 132.91 136.765 132.777 136.673C132.755 136.617 132.731 136.563 132.705 136.511C132.451 136.434 132.516 136.775 132.085 136.476C132.03 136.411 131.976 136.35 131.921 136.289C131.886 136.284 131.815 136.274 131.779 136.269C131.741 136.222 131.703 136.176 131.665 136.133C131.677 136.037 131.692 135.944 131.709 135.851C131.511 135.871 131.379 135.709 131.246 135.592C130.679 135.613 130.803 135.479 130.396 135.173C130.368 135.163 130.31 135.144 130.281 135.135C130.246 135.086 130.212 135.039 130.179 134.994C130.18 134.896 130.182 134.801 130.183 134.707C130.059 134.646 129.968 134.543 129.889 134.436C129.895 134.362 129.903 134.289 129.911 134.218C129.871 134.216 129.792 134.211 129.752 134.209C129.729 134.259 129.708 134.312 129.688 134.366C129.685 134.346 129.679 134.305 129.676 134.284C129.528 134.277 129.396 134.217 129.286 134.121C129.267 134.06 129.247 133.999 129.229 133.941C129.151 133.881 129.073 133.821 128.994 133.765C128.986 133.714 128.978 133.665 128.972 133.617C128.883 133.558 128.828 133.472 128.788 133.378C128.83 133.275 128.87 133.171 128.9 133.066C128.864 133.012 128.802 132.989 128.754 132.955C128.697 132.849 128.639 132.747 128.571 132.651C128.544 132.662 128.489 132.683 128.461 132.694C128.427 132.685 128.358 132.669 128.324 132.661C128.261 132.563 128.202 132.465 128.147 132.366C128.121 132.359 128.069 132.345 128.043 132.338C128.01 132.23 127.975 132.124 127.942 132.019C127.885 132.002 127.83 131.987 127.776 131.974C127.718 131.795 127.696 131.606 127.772 131.431C127.684 131.24 127.593 131.046 127.601 130.832C127.429 130.87 127.243 130.917 127.112 130.765C127.072 130.497 126.527 129.802 126.402 129.379C126.453 129.307 126.504 129.237 126.556 129.168C126.477 129.061 126.412 128.946 126.358 128.827C126.003 128.896 125.857 128.516 125.691 128.283C125.671 128.226 125.652 128.17 125.634 128.115C125.586 128.061 125.539 128.005 125.494 127.954C125.486 127.891 125.479 127.829 125.473 127.769C125.44 127.759 125.373 127.738 125.34 127.728C125.174 127.496 125.411 127.399 125.136 126.917C125.137 126.813 125.137 126.709 125.136 126.608C125.077 126.647 125.022 126.692 124.969 126.74C124.891 126.739 124.815 126.74 124.739 126.742C124.631 126.605 124.503 126.48 124.453 126.309C124.428 126.302 124.378 126.286 124.353 126.279C124.284 126.157 124.202 126.039 124.177 125.9C124.191 125.783 124.229 125.671 124.257 125.558C124.162 125.525 124.107 125.443 124.053 125.366C123.751 125.345 123.515 125.124 123.4 124.856C123.367 124.846 123.301 124.825 123.268 124.815C123.232 124.72 123.198 124.624 123.163 124.531C123.002 124.409 122.997 124.215 123.037 124.034C122.942 123.884 122.832 123.73 122.903 123.547C122.756 123.556 122.61 123.578 122.466 123.607C122.162 123.1 122.007 123.334 122.121 122.756C121.853 122.484 122.059 122.471 121.525 122.347C121.479 122.298 121.427 122.258 121.373 122.225C121.324 122.106 121.291 121.972 121.184 121.891C121.141 121.775 121.144 121.653 121.155 121.534C121.134 121.468 121.113 121.399 121.096 121.334L121.033 121.362C121.124 121.311 121.1 121.201 121.111 121.116C121 121.145 120.893 121.186 120.783 121.216C120.581 121.076 119.894 119.97 120.327 119.338C120.324 119.301 120.318 119.229 120.314 119.192C120.423 119.131 120.547 119.076 120.588 118.947C120.622 118.947 120.689 118.947 120.724 118.946C120.724 118.915 120.724 118.854 120.725 118.823C120.745 118.832 120.787 118.852 120.809 118.861C120.886 118.806 120.967 118.755 121.05 118.709C121.036 118.685 121.006 118.636 120.992 118.612C121.016 118.609 121.064 118.605 121.088 118.603C121.141 118.512 121.754 118.093 121.841 118.036C121.843 118.004 121.848 117.939 121.851 117.907C121.96 117.796 122.056 117.673 122.171 117.569C122.172 117.552 122.173 117.52 122.174 117.504C122.438 117.39 122.642 117.173 122.912 117.071C122.978 117.012 123.669 116.558 123.793 116.511C123.86 116.437 125.21 115.559 125.294 115.506C125.594 115.255 125.833 114.894 126.254 114.839C126.579 114.612 127.065 114.645 127.279 114.269C127.204 113.607 126.368 113.11 126.857 112.159C127.147 112.161 127.457 112.267 127.737 112.17C127.762 111.255 125.503 91.8507 125.92 87.4927C125.892 86.3193 116.315 92.8698 115.271 93.8079C115.185 93.842 114.46 94.3351 114.391 94.3959C113.922 94.8087 115.525 98.8707 115.724 99.5892C120.638 115.976 116.731 124.659 117.583 131.899C117.716 133.441 118.021 131.485 117.466 135.437C117.004 137.728 116.044 140.052 115.96 140.315C114.829 144.145 114.612 148.383 113.579 152.54C109.79 167.783 111.325 164.176 109.949 173.457C109.814 174.298 109.941 175.44 110.03 175.622C110.299 175.648 110.569 175.782 110.703 176.026C110.976 176.505 111.31 176.761 111.046 177.316C111.069 177.334 111.115 177.37 111.139 177.388C111.207 177.56 111.31 177.716 111.398 177.881C111.657 177.786 111.929 177.695 112.209 177.667C114.289 177.571 113.926 177.689 114.46 178.256C114.548 178.446 114.718 178.579 114.829 178.757C114.97 178.943 115.053 179.165 115.166 179.369C115.241 179.709 115.436 180.038 115.405 180.464C115.382 180.865 115.771 181.917 115.865 182.251C116.405 182.319 116.115 182.202 117.205 182.376C117.225 182.451 117.243 182.526 117.262 182.607C116.484 182.579 115.626 182.502 115.626 182.502C115.443 182.628 115.215 182.591 115.007 182.592C114.989 182.571 114.953 182.53 114.934 182.509C114.481 182.454 113.683 182.088 113.667 182.055C113.572 182.022 113.461 182.026 113.389 181.949C113.247 181.88 113.101 181.818 112.947 181.786C112.763 181.658 112.167 181.647 111.582 180.979C111.504 180.777 111.044 180.241 110.892 180.086C110.734 180.07 110.775 180.249 110.767 180.353C110.817 180.375 110.868 180.4 110.92 180.426C110.874 180.428 110.785 180.432 110.739 180.434C110.674 180.801 110.733 181.176 110.722 181.547C110.857 181.829 110.993 182.119 111.045 182.431C111.027 182.594 110.959 182.746 110.908 182.903C110.601 183.368 110.945 183.323 110.638 183.702C110.558 183.729 110.479 183.76 110.401 183.794C110.278 183.701 110.177 183.586 110.071 183.479C109.89 183.546 109.874 183.833 109.97 183.993C110.096 184.223 109.958 184.476 109.877 184.698C109.979 185.697 110.275 184.736 109.77 186.419C109.826 186.437 109.882 186.457 109.939 186.48C109.9 186.48 109.822 186.478 109.783 186.477C110.192 190.796 111.324 191.653 110.46 192.854C110.328 193.042 110.097 193.177 110.092 193.432C109.118 194.314 108.338 193.714 107.67 193.563C107.517 193.464 107.389 193.338 107.275 193.199C107.142 193.1 106.974 193.04 106.897 192.884C106.782 192.835 106.662 192.805 106.54 192.788C106.528 192.77 106.502 192.734 106.49 192.716C106.218 192.634 106.124 192.342 105.978 192.132C105.871 192.047 105.801 191.935 105.744 191.815C105.647 191.792 105.547 191.79 105.45 191.784C105.265 191.537 104.906 191.313 104.719 190.956C104.74 190.908 104.781 190.811 104.801 190.762C104.636 190.671 104.513 190.53 104.499 190.336C104.368 190.327 104.239 190.324 104.109 190.323C104.031 189.962 103.714 190.043 103.766 189.467C103.687 189.376 103.61 189.286 103.536 189.194C103.184 189.164 103.088 188.843 102.832 188.502C102.836 188.399 102.834 188.299 102.826 188.201C102.686 188.126 102.68 187.956 102.618 187.83C102.474 187.755 102.295 187.715 102.223 187.552C102.087 187.273 101.917 187.009 101.816 186.716C101.755 186.568 101.918 186.428 101.845 186.285C101.796 186.139 101.76 185.965 101.589 185.923C101.572 185.901 101.537 185.857 101.52 185.835C101.423 185.535 101.086 184.759 101.391 184.684C101.288 184.37 101.36 184.617 101.281 184.273C101.299 184.182 101.316 184.091 101.334 184.004C101.255 184.012 101.175 184.021 101.096 184.033C101.057 183.949 101.013 183.868 100.958 183.797C100.919 183.61 100.576 182.479 100.612 182.266C100.657 182.22 100.708 182.184 100.765 182.155C100.763 182.133 100.759 182.088 100.757 182.065C100.706 182.033 100.656 182.002 100.607 181.973C100.604 181.519 100.38 181.917 100.185 181.171C100.038 180.868 99.8339 180.52 99.9767 180.179C99.8568 179.979 99.7934 179.757 99.7795 179.527C99.6619 179.553 99.5419 179.564 99.422 179.569C99.3973 179.251 99.1665 179.012 99.0728 178.714C99.1328 178.613 99.1956 178.512 99.2584 178.415C99.1821 178.408 99.1059 178.404 99.0303 178.401C99.0107 178.291 98.9871 178.184 98.9642 178.077C98.8605 178.037 98.7557 177.999 98.6515 177.966C98.3343 177.245 98.1421 177.267 98.2799 176.799C98.2098 176.715 98.1387 176.633 98.0669 176.553C98.0708 176.452 98.0753 176.354 98.0799 176.257C97.9925 176.278 97.9051 176.301 97.8181 176.324C97.6035 175.954 97.4401 175.752 97.4779 175.595C97.5239 175.516 97.5681 175.437 97.5866 175.349C97.3798 175.299 97.3664 175.046 97.3351 174.875C97.2465 174.866 97.1585 174.859 97.0711 174.855C96.9592 174.462 96.7569 174.487 96.954 174.003C96.9114 173.967 96.8694 173.932 96.8279 173.901C96.8334 173.787 96.8413 173.676 96.8492 173.566C96.7663 173.579 96.6844 173.596 96.6032 173.614C96.3403 173.069 96.1547 171.989 96.6104 171.457C96.6076 171.354 96.5976 171.254 96.6049 171.156C96.6654 171.076 96.7371 171.006 96.8065 170.937C96.8054 170.999 96.8032 171.124 96.8021 171.186C96.9461 171.076 97.0503 170.912 97.2297 170.856C97.8465 170.623 98.1081 170.383 98.9732 170.183C99.2993 169.712 99.2915 169.965 99.588 169.743C99.6998 169.725 100.488 169.461 100.735 169.297C100.838 169.272 100.943 169.249 101.048 169.231C101.212 169.123 101.389 169.033 101.584 169.005C101.807 168.846 102.02 168.658 102.286 168.578C102.631 168.451 103.038 168.511 103.342 168.276C103.789 167.927 103.635 167.866 103.484 167.37C103.226 166.956 103.255 166.981 103.318 166.519C103.312 166.494 103.3 166.444 103.293 166.42C103.369 166.359 103.441 166.295 103.508 166.227C103.673 166.232 103.826 166.3 103.981 166.352C104.913 154.047 102.852 148.525 106.345 139.031C106.78 137.656 107.391 136.852 107.312 135.938C105.995 124.009 107.696 130.497 103.819 116.617C103.802 116.594 103.77 116.548 103.754 116.525C103.754 116.525 102.781 113.881 102.585 113.149C101.547 108.913 99.1894 105.9 95.7432 101.61C93.2091 100.988 91.3427 99.4416 90.2645 97.3881C88.5129 94.1784 86.4949 86.1659 89.0629 82.2144C90.1575 80.4681 89.3171 81.5955 90.0566 79.9108C90.2085 79.5845 90.163 79.2138 90.2639 78.874C90.3088 78.6138 90.4348 78.3817 90.5419 78.1445C90.6626 77.8837 90.6748 77.3932 91.0754 76.7818C91.1964 76.5973 91.193 76.3697 91.2227 76.1594C92.5155 68.3435 91.5696 68.8517 91.7439 66.5239C91.6094 66.3563 91.6217 66.1448 91.6626 65.9464C91.6575 64.6423 91.2859 63.9269 91.2333 63.6591C91.075 62.732 91.0671 62.399 91.0814 58.3818C91.0977 58.1177 90.906 57.7991 91.143 57.5889C90.3743 55.2664 90.9805 56.1108 90.2537 53.4713C90.2156 53.4858 90.1399 53.5151 90.1018 53.5296C90.0272 53.5901 89.9498 53.6468 89.8725 53.7045C89.7554 53.7431 89.6714 53.8335 89.5883 53.9204C89.2134 54.0024 87.4728 55.7332 87.1948 55.8825C86.5443 56.5644 83.6597 58.9582 83.6597 58.9582C83.63 58.9643 83.5712 58.9762 83.5415 58.9823C83.2817 59.2642 82.3156 59.8863 81.4591 60.544C81.4344 60.5541 81.3851 60.5743 81.3604 60.5845C81.1357 60.8301 80.8044 60.9388 80.5808 61.1878C80.2321 61.3965 79.1003 62.2889 78.7886 62.8627C78.018 63.4924 76.6743 69.0791 76.204 70.6388C75.2278 73.0891 73.8246 77.8245 73.7897 77.9364C71.8937 85.1314 73.6759 83.5749 75.7858 86.7026C76.1244 87.2532 76.1137 87.9285 76.399 88.4999C76.9177 89.7175 76.5726 88.2764 77.4509 91.4842C77.432 92.0656 76.6095 91.9551 76.4976 91.9491C75.0619 91.0201 75.2668 89.3328 74.7525 88.5756C74.5306 88.4253 74.2336 88.5234 73.9813 88.4993C73.9376 88.5363 73.8945 88.5745 73.8513 88.6131C73.4938 89.8556 73.0618 91.0391 73.3066 92.6517C73.4159 93.1479 73.3088 93.6633 73.4253 94.1607C73.6004 96.3694 73.5478 96.8241 73.2426 97.6721C73.1261 97.7326 73.0089 97.7944 72.9046 97.8757C72.7286 97.892 72.5527 97.8757 72.3778 97.8634C72.3598 97.897 72.324 97.9632 72.306 97.9969C71.6329 98.1981 71.6049 97.8092 71.4066 97.1198C71.3074 97.1361 71.2564 97.241 71.1797 97.297C71.03 97.4283 70.8266 97.4737 70.6339 97.4944C70.5117 97.3637 70.3974 97.2208 70.3749 97.0379C70.3536 97.0155 70.3122 96.9706 70.2914 96.9482C70.2853 96.8427 70.1165 95.7591 70.0102 95.7387C69.8706 95.7325 69.7373 95.778 69.6039 95.8116C69.2355 95.5623 69.4155 95.5198 69.4369 95.1909C69.3972 95.1853 69.3176 95.1734 69.2777 95.1673C69.0963 93.5628 69.3333 94.742 69.0239 92.9568C68.987 92.7129 68.7919 92.5133 68.8132 92.2587C68.8439 91.76 67.8962 89.4854 67.9069 89.2821C67.9189 88.1414 67.7255 85.7178 68.0279 85.1275C68.0391 84.7743 68.1047 84.4271 68.1165 84.0739C68.1706 83.8632 68.0633 82.2267 68.2661 81.6525C68.3496 81.4899 68.4433 81.3279 68.4702 81.1439C68.4848 81.034 68.5111 80.9275 68.5811 80.8406C68.5665 80.5568 68.7078 80.3067 68.7857 80.0431C68.9441 79.5677 69.5372 75.5078 69.5372 75.5078C69.5395 75.4731 69.5445 75.4035 69.5467 75.3688C69.5625 75.3435 69.5927 75.2925 69.6083 75.2667C69.5044 73.4361 71.9686 61.641 73.8333 58.9639C74.1622 58.4854 74.3518 58.7218 75.0511 57.3848C77.1325 54.3911 79.5818 51.8064 82.286 49.3856C82.2686 49.3424 82.2519 49.3004 82.2356 49.2583C82.2586 49.283 82.3057 49.3329 82.3291 49.3576C85.2059 46.6467 85.5149 45.4841 87.7568 43.343C87.8638 43.255 87.9753 43.1629 88.0219 43.0261C88.0521 43.0183 88.1132 43.0025 88.1435 42.9942C89.4306 41.6872 91.6097 40.2353 91.6097 40.2353C91.7465 40.2089 91.8659 40.1371 91.8888 39.988C91.9207 39.9858 91.9841 39.9819 92.0155 39.9797C92.0401 39.9572 92.0889 39.9123 92.1136 39.89C92.3893 39.8025 92.6033 39.5984 92.8595 39.471C93.0081 39.3819 93.212 39.3628 93.2977 39.1924C93.3862 39.1885 93.476 39.1862 93.5656 39.1846C93.6316 39.0113 93.7882 39.1203 94.2185 38.9833C94.6012 38.9037 94.9583 38.7439 95.3292 38.6256C95.6206 38.4832 95.9562 38.5207 96.2549 38.3963C96.3418 38.2432 96.5441 38.3228 96.687 38.3055C97.0508 38.3358 97.4279 38.2522 97.7827 38.3498C98.0752 38.4148 98.38 38.3829 98.6715 38.4547C98.9097 38.5002 99.1725 38.5449 99.3955 38.4228C99.3922 38.3801 99.3849 38.2954 99.3809 38.2529C99.4453 38.3062 99.507 38.3622 99.5703 38.4183C99.6896 38.3493 99.7071 38.2007 99.8085 38.1149C99.827 38.0628 99.8455 38.0112 99.8651 37.9596C99.9716 37.9321 100.065 37.8777 100.135 37.7903C100.117 37.7706 100.081 37.7309 100.063 37.7112C100.251 37.7561 100.439 37.696 100.627 37.6809C100.638 37.659 100.66 37.6154 100.671 37.5929C100.758 37.5862 100.846 37.5806 100.935 37.5755C100.961 37.483 100.988 37.3916 101.016 37.3002C101.021 37.3457 101.031 37.437 101.036 37.4825C101.212 37.4819 101.387 37.4611 101.563 37.4533C101.559 37.4225 101.553 37.3603 101.55 37.3294C101.42 37.2755 101.291 37.2189 101.165 37.1578C101.292 37.0378 101.36 36.8758 101.452 36.7299C101.585 36.7002 101.753 36.7142 101.836 36.5842C101.601 36.5573 101.364 36.5561 101.129 36.5467C101.12 36.5169 101.102 36.4581 101.093 36.4289C101.059 36.4256 100.99 36.4189 100.955 36.4155C100.935 36.3533 100.915 36.291 100.895 36.2294C100.953 36.198 101.01 36.1666 101.069 36.1358C101.039 36.1088 100.981 36.0556 100.952 36.0287C100.969 36.0314 101.004 36.0359 101.022 36.0382C101.233 35.9417 101.403 35.7398 101.652 35.7426C101.694 35.5475 101.809 35.381 101.873 35.1931C101.905 35.1836 101.971 35.1645 102.003 35.1545C102.177 34.2677 101.818 34.4572 101.736 33.9993C101.741 33.6971 101.755 33.3943 101.711 33.0942C101.69 33.1239 101.646 33.1828 101.624 33.2125C101.633 33.144 101.639 33.0757 101.647 33.0078C101.973 32.4453 101.391 25.9853 101.39 25.8722C101.365 25.8738 101.313 25.8772 101.287 25.8789C101.308 25.8722 101.351 25.8587 101.372 25.8525C101.114 23.83 101.412 23.072 101.943 21.4707C102.035 21.3429 102.061 21.1769 102.171 21.0614C102.174 21.0003 102.176 20.9386 102.179 20.8775C102.204 20.8747 102.255 20.8697 102.28 20.8669C102.284 20.8013 102.289 20.7351 102.295 20.6695C102.295 20.6695 103.065 19.3964 103.079 19.3692C103.153 19.3344 103.219 19.2862 103.272 19.224C103.311 19.1415 103.352 19.0597 103.393 18.9784C103.421 18.9745 103.477 18.9661 103.505 18.9621C103.529 18.8971 103.555 18.8319 103.582 18.7675C103.789 18.6727 103.853 18.4367 104.023 18.2999C104.172 18.1765 104.294 18.0257 104.391 17.8586C104.422 17.8525 104.484 17.8406 104.515 17.835C104.588 17.7454 104.649 17.6343 104.765 17.5933C104.766 17.577 104.77 17.5451 104.771 17.5289C104.878 17.5048 104.98 17.4604 105.068 17.3938C105.047 17.3276 105.029 17.2614 105.01 17.1959C105.085 17.266 105.178 17.3052 105.283 17.3007C105.281 17.2716 105.274 17.2127 105.271 17.1836C105.302 17.1785 105.364 17.1689 105.396 17.1639C105.461 17.0927 105.529 17.0238 105.597 16.9542C105.691 16.9441 105.818 16.9716 105.843 16.8476C105.929 16.8365 106.033 16.8432 106.043 16.7305C106.078 16.7254 106.148 16.7147 106.182 16.7097C106.264 16.592 106.435 16.6245 106.52 16.509C106.554 16.504 106.622 16.4944 106.657 16.4893C106.961 16.2674 108.07 15.9369 108.791 15.9325C108.876 15.9544 108.941 15.9111 108.987 15.8422C108.808 15.8299 108.624 15.8322 108.46 15.7525C107.932 15.7531 107.381 15.5899 106.871 15.7845C106.872 15.739 106.875 15.6488 106.876 15.6039C106.726 15.646 106.571 15.651 106.417 15.6454C106.524 15.6028 106.633 15.563 106.743 15.5249C106.878 15.4189 107.095 15.4761 107.19 15.3174C107.418 15.242 107.659 15.274 107.895 15.2627L107.895 15.2631ZM112.126 178.045C111.918 178.118 111.672 178.073 111.495 178.225C111.443 178.42 111.381 178.615 111.284 178.795C111.17 178.989 111.136 179.221 110.995 179.403C111.042 179.636 111.237 179.783 111.362 179.973C111.524 180.23 111.773 180.413 111.973 180.64C112.115 180.81 112.33 180.883 112.51 181.006C112.724 181.174 113.008 181.125 113.248 181.227C113.342 181.262 113.437 181.3 113.529 181.343C113.705 181.4 113.873 181.481 114.03 181.581C114.267 181.608 114.467 181.734 114.68 181.827C114.978 181.893 115.236 182.089 115.547 182.102C115.479 181.72 115.35 181.353 115.272 180.973C115.228 180.734 115.057 180.544 115.021 180.304C114.962 179.992 114.823 179.707 114.723 179.41C114.572 178.999 114.321 178.636 114.034 178.311C113.912 178.185 113.829 177.984 113.634 177.967C113.364 177.93 113.092 177.972 112.822 177.977C112.589 177.993 112.348 177.959 112.126 178.045V178.045Z" fill="#39BBD1"/>
</svg>
