<svg width="138" height="142" viewBox="0 0 138 142" fill="none" xmlns="http://www.w3.org/2000/svg">
<path d="M45.2621 0.0094257C44.6655 0.0295073 44.5537 0.0381079 43.9714 0.0982347C42.5085 0.25293 40.8277 0.631051 39.4108 1.12662L38.9088 1.30136L38.4212 1.33C36.9325 1.41309 35.9573 1.51334 34.7497 1.71672C31.5458 2.25242 28.471 3.4125 26.0444 5.00523C23.5576 6.63516 21.6473 8.64893 20.1385 11.2242C19.8746 11.671 19.3641 12.6736 19.2149 13.0346C19.1604 13.1663 19.1117 13.2723 19.1031 13.2723C19.0945 13.2723 18.9597 13.1549 18.8019 13.0145C18.4548 12.7023 18.0791 12.4416 17.8525 12.3557C17.2501 12.1322 16.7396 12.2525 16.2692 12.728C16.163 12.834 16.0196 13.0088 15.9479 13.1205L15.8188 13.3239L15.618 13.3411C15.1534 13.3869 14.6858 13.4528 14.4621 13.5043C13.7508 13.6676 13.2632 13.9942 13.0366 14.4611C12.8989 14.739 12.8473 14.9538 12.83 15.3234L12.8128 15.6442L12.5834 15.7072C11.8921 15.8963 11.327 16.2228 10.9943 16.621C10.6042 17.0936 10.4235 17.7554 10.4981 18.46C10.5182 18.6634 10.5182 18.7637 10.4952 18.8066C10.478 18.8381 10.2887 19.0387 10.0707 19.2535C9.35649 19.9639 9.03238 20.5769 9.03238 21.2272C9.02951 21.5366 9.07541 21.7457 9.20448 22.0235C9.39665 22.4332 9.73798 22.8113 10.2227 23.1493L10.4493 23.3097L10.3231 23.41C10.0764 23.6047 9.56015 24.1462 9.42533 24.3496C9.08975 24.8623 9.0123 25.3636 9.20734 25.7761C9.38518 26.1513 9.74658 26.4464 10.3977 26.7529C10.6817 26.8847 10.7534 26.9305 10.7419 26.9677C10.7333 26.9964 10.7075 27.1568 10.6845 27.3287C10.5554 28.2883 10.7476 29.0245 11.2697 29.5774C11.3873 29.7034 11.5622 29.8609 11.6598 29.9325C12.0527 30.2104 12.6321 30.4367 13.2373 30.5484C13.4266 30.5828 13.6045 30.6172 13.6303 30.6286C13.6676 30.643 13.6131 30.7175 13.3607 30.9896C10.3776 34.215 10.2571 34.3497 10.0822 34.6992C9.96457 34.9398 9.69208 35.8106 9.58022 36.3177C9.4282 36.9937 9.36796 37.8387 9.43393 38.3515C9.50564 38.9101 9.69209 39.42 10.0162 39.9613C10.303 40.434 10.3461 40.5371 10.4522 40.9639C10.6587 41.7832 10.6874 42.316 10.5554 42.8918C10.5096 43.0923 10.4952 43.2184 10.5067 43.3788C10.5354 43.7913 10.871 45.1003 11.2066 46.1001L11.4217 46.7446L11.3729 47.0311C11.2123 47.9706 10.891 49.4201 10.6558 50.268C10.4981 50.838 10.3948 51.3078 10.3575 51.643C10.3231 51.9638 10.1883 52.3735 9.93876 52.9177C9.74084 53.3445 9.58022 53.7828 9.58022 53.8888C9.58022 54.3386 8.38699 56.2378 7.28269 57.5468C6.51397 58.4578 6.35336 58.6554 6.15831 58.9304C4.77864 60.864 3.80629 63.8489 3.51371 67.04C3.29285 69.4548 3.46782 71.6032 4.13327 74.717C4.72701 77.4899 5.40393 79.7643 5.8686 80.5492C6.02923 80.8271 6.10668 81.0419 6.14109 81.3169C6.18125 81.6463 6.21567 81.7409 6.50537 82.3367C6.78646 82.9096 7.16795 83.8463 7.23965 84.1328C7.26547 84.233 7.30562 84.3934 7.33144 84.4908C7.35438 84.5911 7.46912 84.8632 7.58672 85.101C8.06861 86.0807 8.50171 87.5129 8.79142 89.077C8.92623 89.8218 8.95778 90.1311 8.94057 90.6725C8.92336 91.2569 8.8832 91.5405 8.58776 93.1647C8.34969 94.4681 8.21775 95.0868 7.93379 96.2155C7.43755 98.1948 7.15359 99.0084 6.49675 100.34C5.76819 101.818 5.04252 102.898 4.37132 103.509C3.921 103.915 3.57967 104.021 2.68189 104.021C2.0193 104.024 1.50874 103.933 1.13586 103.743C0.851897 103.6 0.464678 103.477 0.281098 103.474C0.129081 103.471 0.0975291 103.48 0.051633 103.534C0.0229537 103.569 0 103.615 0 103.637C0 103.706 0.126208 103.812 0.249553 103.847C0.384364 103.884 0.593752 104.036 0.946551 104.351C1.42556 104.78 2.06806 105.196 2.83964 105.577C3.81774 106.064 4.27667 106.178 5.36377 106.21C5.95177 106.23 6.32465 106.279 6.44225 106.356C6.61149 106.465 6.51683 106.668 5.73665 107.86C5.28918 108.542 4.89623 109.195 4.70405 109.579C4.55777 109.871 3.95255 111.38 3.7575 111.945C3.57107 112.489 3.44199 112.942 3.31578 113.517C3.13507 114.337 3.11499 114.486 3.11499 114.993C3.11213 115.551 3.13795 115.669 3.37601 116.179C3.46207 116.368 3.5854 116.674 3.64564 116.863C3.77184 117.253 3.85502 117.41 3.99844 117.536C4.09023 117.617 4.25372 117.685 4.35411 117.685C4.42295 117.685 4.4459 117.548 4.41722 117.333C4.4 117.218 4.29101 116.64 4.17054 116.047C4.05293 115.451 3.95255 114.941 3.95255 114.915C3.94968 114.867 4.40288 114.047 4.62947 113.689C4.76716 113.474 4.97367 113.257 5.11135 113.185C5.18879 113.145 5.27772 113.131 5.43261 113.131C5.78541 113.131 5.85138 113.225 5.95177 113.861C6.17549 115.29 6.63442 116.889 7.30561 118.573C8.01122 120.344 8.73977 121.575 9.55438 122.377C10.0563 122.87 10.346 123.031 10.9369 123.142C11.1549 123.185 11.3385 123.214 11.3442 123.208C11.3499 123.202 11.3356 122.89 11.3126 122.512C11.261 121.635 11.2926 121.329 11.4503 121.16C11.6339 120.965 11.9265 121.077 12.655 121.615C13.3951 122.163 14.1953 122.544 15.7758 123.091C16.5961 123.374 16.8743 123.529 17.0005 123.77C17.1038 123.967 16.9833 124.566 16.6219 125.677C15.8561 128.015 14.4477 131.252 13.4008 133.082C13.2316 133.38 12.9304 133.922 12.7382 134.285C11.9494 135.755 11.4303 136.657 10.8422 137.58C10.6415 137.895 10.3919 138.327 10.2887 138.539C10.1854 138.751 9.85554 139.338 9.5515 139.843C9.0094 140.754 8.60495 141.498 8.63937 141.533C8.66806 141.561 9.74081 141.601 11.0574 141.619C11.7515 141.627 12.5001 141.642 12.721 141.647C12.9419 141.653 16.5617 141.673 20.7666 141.693C28.0923 141.725 54.98 141.713 55.8892 141.679C56.1101 141.67 56.6837 141.656 57.1656 141.647C58.6227 141.621 59.466 141.564 59.6811 141.475C59.7672 141.438 59.7758 141.424 59.7758 141.318C59.7758 140.693 58.7145 134.858 58.3273 133.369C58.1781 132.79 58.095 132.363 58.0691 132.051C58.0405 131.727 57.9573 131.421 57.8081 131.083C57.5328 130.473 57.4725 130.172 57.4725 129.444C57.4725 128.625 57.6016 127.946 57.9515 126.895C58.2728 125.938 58.485 125.534 58.8838 125.122C59.357 124.632 59.8102 124.328 62.1135 122.953C63.4788 122.14 65.3145 121.028 66.0201 120.59C67.1933 119.859 68.0136 119.453 68.3062 119.45C68.3549 119.45 68.5127 119.473 68.6533 119.499C69.1695 119.593 70.5607 119.69 71.4384 119.69C72.7521 119.69 74.1317 119.524 75.7237 119.172C76.98 118.894 80.3847 118.003 81.2107 117.734C81.4632 117.654 81.4918 117.648 81.5349 117.688C81.7012 117.854 81.6496 118.625 81.4144 119.536C81.2366 120.238 81.1132 120.965 80.9296 122.426C80.4305 126.439 80.3187 127.96 80.2556 131.664C80.2212 133.701 80.2212 140.032 80.2556 140.418C80.3043 140.954 80.3588 141.071 80.5912 141.106C80.7116 141.123 80.7317 141.117 80.7862 141.054C80.9698 140.839 81.0243 139.751 81.1161 134.242C81.2279 127.545 81.314 125.7 81.5779 124.388C81.7098 123.729 81.7959 123.079 81.8188 122.584C81.8504 121.931 81.9249 121.412 82.0913 120.693C82.2806 119.877 82.4183 119.109 82.5216 118.304C82.5904 117.763 82.7482 117.445 83.0465 117.253C83.3075 117.084 83.5771 117.012 84.472 116.869C84.9797 116.789 85.0801 116.763 85.2092 116.683C85.344 116.602 85.4157 116.436 85.5075 115.998C85.6624 115.248 85.7312 115.164 86.2504 115.067C87.3948 114.852 87.4665 114.832 87.696 114.617C87.9111 114.423 88.3012 113.718 88.459 113.245C88.5795 112.887 88.4934 112.503 88.1922 112.051C87.8595 111.552 87.4493 111.217 86.7552 110.873C86.2217 110.607 86.0783 110.495 86.0783 110.329C86.0783 110.209 86.1356 110.131 86.3393 109.971C86.6577 109.719 87.0621 109.607 87.6616 109.607C88.829 109.607 90.3119 109.974 92.1735 110.719C92.7873 110.962 93.0081 111.065 94.6259 111.856C99.634 114.305 100.414 114.635 103.457 115.594C104.679 115.978 105.376 116.138 106.888 116.379C108.107 116.574 108.913 116.68 109.432 116.714C111.319 116.837 114.535 116.316 116.382 115.588C116.54 115.525 116.881 115.374 117.142 115.25C117.604 115.033 117.756 114.978 118.097 114.907C119.087 114.703 122.512 111.979 125.406 109.092C126.734 107.765 127.187 107.255 128.05 106.113C128.329 105.743 128.779 105.15 129.049 104.795C130.46 102.944 131.805 100.908 132.981 98.8365C133.239 98.3811 133.865 97.2181 133.865 97.1923C133.865 97.1865 134.137 96.6165 134.47 95.9262C135.445 93.8981 135.454 93.878 135.614 93.0272C135.68 92.6663 135.749 92.4629 135.89 92.2051C135.999 92.0017 136.165 91.4947 136.331 90.8445C136.4 90.5838 136.538 90.0825 136.638 89.7273C136.988 88.507 137.235 87.2953 137.378 86.0893C137.516 84.9349 137.685 84.0583 137.794 83.9265C137.889 83.8148 137.938 82.1247 137.938 79.0138C137.938 76.5876 137.909 74.9404 137.851 74.21C137.829 73.9035 137.808 73.8061 137.751 73.6944C137.654 73.5025 137.524 72.8379 137.421 71.9814C137.232 70.4431 137.109 69.7327 136.965 69.3402C136.876 69.0996 136.839 68.8876 136.79 68.3463C136.747 67.865 136.655 67.4725 136.409 66.6819C136.288 66.3038 136.004 65.3757 135.775 64.6195C134.989 62.0185 134.332 60.2081 133.635 58.7328C133.357 58.137 133.211 57.7531 133.176 57.5039C133.139 57.2404 133.116 57.1888 132.961 57.0141C132.772 56.8021 132.726 56.7219 132.23 55.7394C131.604 54.5019 130.833 53.1326 130.09 51.9438C129.771 51.4311 129.634 51.2334 129.129 50.566C128.948 50.3225 128.696 49.9759 128.572 49.7954C128.225 49.2913 127.577 48.4319 127.138 47.8905C125.039 45.3152 121.818 41.9981 120.274 40.8236C120.016 40.626 119.153 40.033 117.719 39.0705C116.64 38.3458 116.141 38.0651 115.84 38.0192C115.656 37.9877 115.553 37.9219 115.525 37.813C115.499 37.7099 115.332 37.601 114.816 37.3604C114.546 37.2315 113.858 36.8935 113.287 36.607C112.174 36.0484 111.816 35.8937 110.944 35.5987C110.336 35.3924 110.069 35.2664 109.874 35.0974C109.699 34.9427 109.633 34.7937 109.601 34.47C109.556 34.0375 109.484 33.9773 108.922 33.8828C108.153 33.7539 105.374 33.4245 103.733 33.2669C102.58 33.1581 101.711 33.0234 101.257 32.8802C100.856 32.757 100.173 32.6425 99.2726 32.5508C97.6291 32.3846 97.5229 32.2844 97.652 31.0068C97.7495 30.0271 97.7094 29.924 96.7915 28.9157C96.5879 28.6893 96.367 28.4688 96.2982 28.423C96.0371 28.2425 95.627 28.2138 95.1996 28.3456C94.9644 28.4172 94.8152 28.4946 94.5198 28.6922C94.2043 28.9042 94.0121 28.9758 93.6995 28.993C93.427 29.0073 93.2692 28.9672 93.1172 28.8498C93.0254 28.7753 92.9365 28.5862 92.9336 28.4631C92.9308 28.0162 92.1965 27.2112 91.4507 26.8388C90.725 26.475 89.9161 26.4493 89.44 26.7787C89.1187 26.9964 88.8549 27.0795 88.4562 27.0795C88.1464 27.0795 87.828 27.0021 87.5756 26.8618C87.0966 26.5982 87.0708 26.5868 86.8183 26.5724C86.6549 26.5639 86.4713 26.5753 86.2217 26.6183C85.7513 26.6956 85.1777 26.7558 84.5581 26.793C83.2358 26.8732 82.7138 26.9506 81.816 27.2026L81.4661 27.3029L81.185 27.2026C80.574 26.9907 80.0233 26.8646 79.2632 26.7615C78.6178 26.6727 77.6197 26.6727 76.9714 26.7615C75.8355 26.9162 75.0726 27.1368 74.1576 27.5836C73.4635 27.9188 72.841 28.3571 72.2846 28.8956C71.1545 29.9956 70.5808 31.3075 70.5808 32.7943C70.5779 33.3213 70.6181 33.6192 70.7529 34.0976C70.8475 34.4328 71.1315 35.0916 71.3179 35.4067C71.7109 36.0656 72.3706 36.7645 73.0992 37.2973C74.2293 38.1194 75.8327 38.678 77.4189 38.7984C78.0986 38.8499 79.114 38.7955 79.8254 38.6666C79.9602 38.6437 80.0893 38.6236 80.1151 38.6236C80.1782 38.6236 80.2987 38.8986 80.3847 39.2395C80.4536 39.5088 80.6113 40.4254 80.944 42.5079C81.0387 43.0923 81.1735 43.9173 81.2423 44.3413C81.5234 46.017 81.6095 46.8306 81.6095 47.7902C81.6124 49.1308 81.4947 49.6693 80.706 52.0011C80.2212 53.4248 80.0577 53.9432 79.5242 55.7393C79.1628 56.9482 78.6264 58.581 78.3367 59.3429C77.8807 60.5432 77.5336 61.3052 76.567 63.2301C75.6032 65.1494 75.4856 65.3585 74.4415 66.9827C73.7015 68.14 73.4405 68.5897 73.3889 68.7988C73.363 68.9077 73.2856 69.0165 73.0647 69.2514C72.7463 69.5894 71.6105 71.165 71.0741 72.01C70.9623 72.1819 70.7156 72.5686 70.5263 72.8694C69.8637 73.9035 69.5883 74.3933 69.4392 74.7886C69.3646 74.9891 69.1409 75.2355 68.9487 75.33C68.6217 75.4933 68.5816 75.4704 67.4314 74.505C66.9524 74.1011 66.4475 73.7201 66.0431 73.448C65.4752 73.067 64.3049 72.1847 62.5151 70.7926C61.4939 69.9962 59.7557 68.6613 57.5242 66.9541C55.4217 65.347 54.8739 64.9145 53.6089 63.8632C52.0342 62.5512 51.1852 61.7749 49.0368 59.6781L47.5281 58.2057V57.8161C47.5338 55.662 47.7059 53.5794 47.9727 52.4451C48.0559 52.0927 48.162 51.792 48.4144 51.1847C48.598 50.7464 48.6496 50.6604 49.1831 49.8613C49.4986 49.3915 49.8314 48.873 49.9231 48.7069C50.0149 48.5407 50.1555 48.3402 50.2301 48.2571C50.5025 47.9735 50.9414 47.8103 51.6929 47.7186C52.6509 47.6011 55.0001 47.6441 57.4238 47.8217C58.5023 47.9019 59.4603 47.6556 60.1917 47.1113C61.0063 46.5069 61.4423 45.6303 61.4882 44.5103C61.5026 44.1522 61.494 44.0577 61.4222 43.6366C61.3563 43.2556 61.3391 43.078 61.3391 42.7142C61.3391 42.3075 61.3448 42.2587 61.3964 42.1929C61.428 42.1556 61.5312 42.0267 61.6288 41.9121C62.0016 41.4624 62.3028 40.9582 62.343 40.709C62.3602 40.6174 62.4061 40.5457 62.5696 40.3739C62.8162 40.1075 62.9195 39.9241 62.9769 39.6491C63.0514 39.2911 62.9568 39.0247 62.6355 38.6895L62.5237 38.5721L62.6011 38.4288C62.7101 38.2283 62.9826 37.9361 63.2924 37.6898C63.5878 37.4549 63.648 37.369 63.648 37.1828C63.648 37.0338 63.5735 36.8848 63.3182 36.5182C63.0744 36.1658 62.9769 35.9854 62.8908 35.7161C62.6986 35.1289 62.8249 34.8997 63.8001 34.0575C64.2533 33.668 64.5458 33.3529 64.7925 32.9948C64.9675 32.7456 65.108 32.4362 65.1109 32.3073C65.1109 32.1898 64.8527 31.9492 64.3508 31.5997C64.1299 31.4451 63.8775 31.2531 63.7857 31.1701C63.6308 31.024 62.7904 30.1073 62.1393 29.3711C61.7062 28.8784 61.0838 28.0964 60.9432 27.8615C60.9289 27.8415 61.0608 27.6524 61.2702 27.3889C61.6747 26.8761 61.9873 26.4149 62.1537 26.0797C62.3 25.7904 62.4376 25.3837 62.4606 25.166L62.4807 25.0027L62.3143 25.1889C61.9013 25.6501 61.5427 25.9766 61.3477 26.0711C61.144 26.1714 60.8687 26.2373 60.6076 26.2545L60.4499 26.2631L60.4528 25.8621C60.4528 25.6415 60.4614 24.7964 60.4671 23.9858C60.4786 22.4475 60.4671 22.1381 60.3466 21.2071C60.1545 19.6947 59.6869 18.3025 59.0358 17.3085C58.9182 17.128 58.7346 16.7814 58.5855 16.4491C58.1581 15.5067 57.8455 14.8793 57.6131 14.4898C57.3894 14.1202 56.9936 13.5617 56.8788 13.4585C56.8473 13.4299 56.8215 13.3869 56.8215 13.364C56.8215 13.3411 56.8846 13.2122 56.962 13.0747C58.2097 10.8604 58.5654 8.5945 57.9516 6.75545C57.6217 5.77007 57.0395 4.93362 56.1646 4.1917C55.7172 3.81358 55.4791 3.64741 54.7477 3.212C54.3375 2.96854 54.0019 2.74219 53.8097 2.58469C51.6212 0.780025 48.6869 -0.102266 45.2621 0.0094257ZM110.465 36.4265C111.242 36.6901 113.964 38.002 115.464 38.8327C116.563 39.44 116.95 39.6807 117.587 40.1505C117.825 40.3252 118.16 40.5687 118.333 40.6976C120.114 41.9924 121.258 42.9549 122.856 44.4845C124.216 45.7879 125.007 46.673 126.791 48.8788C127.563 49.8326 129.235 52.3248 130.213 53.9777C130.755 54.8943 132.244 57.9279 132.861 59.3773C132.97 59.6294 133.116 59.9646 133.19 60.1221C133.512 60.8068 133.948 61.9898 134.682 64.1755C134.954 64.9861 135.198 65.7223 135.224 65.8083C135.29 66.046 135.373 66.447 135.485 67.0973C135.606 67.7991 135.686 68.1314 135.844 68.6298C136.323 70.1251 136.719 73.11 136.991 77.2951C137.028 77.8451 137.028 79.6498 136.991 80.4032C136.816 84.0469 136.202 88.0372 135.428 90.601C135.216 91.3085 134.481 93.4798 134.323 93.8809C133.185 96.7282 130.296 101.744 128.59 103.835C128.486 103.961 128.317 104.162 128.214 104.279C127.93 104.6 127.698 104.892 127.503 105.184C127.25 105.554 126.8 106.09 125.862 107.129C125.308 107.742 124.755 108.384 124.445 108.771C123.963 109.372 123.169 110.097 121.832 111.16C120.157 112.489 118.355 113.741 117.481 114.179C117.271 114.285 115.872 114.806 115.177 115.038C113.875 115.471 112.625 115.649 110.674 115.672C109.642 115.683 109.406 115.677 108.738 115.623C106.701 115.46 105.012 115.144 103.188 114.592C101.613 114.113 99.5938 113.231 95.5724 111.269C94.3649 110.679 93.9948 110.507 93.3925 110.252C92.9967 110.086 92.5951 109.951 92.489 109.951C92.3915 109.951 92.2566 109.825 92.1993 109.679C92.1046 109.43 92.1993 109.072 92.4173 108.848C92.6152 108.645 92.7328 108.287 92.7328 107.883C92.7328 107.416 92.618 107.098 92.3456 106.823C91.9813 106.45 91.4707 106.193 90.0652 105.68C89.0269 105.299 88.4389 105.044 88.1635 104.858C88.0431 104.772 87.9427 104.623 87.9427 104.526C87.9427 104.348 87.4235 103.282 87.2084 103.01C86.7294 102.411 86.018 102.208 84.0991 102.131C82.8027 102.076 80.3072 102.116 79.5672 102.202C78.8845 102.28 78.678 102.331 77.7458 102.666C75.8183 103.357 75.018 103.603 74.1031 103.789C73.4663 103.918 73.1422 104.036 72.4681 104.379C70.9278 105.161 68.9515 106.577 67.5489 107.903C66.8233 108.587 66.3442 108.96 65.914 109.178C65.5641 109.352 64.9761 109.544 63.9549 109.819C63.628 109.905 63.2608 110.017 63.1403 110.066C62.7703 110.215 62.1106 110.57 61.6402 110.882C60.8313 111.412 60.3638 111.67 60.2118 111.67C60.1515 111.67 60.1057 111.647 60.0626 111.589C60.0053 111.518 59.9995 111.489 60.0139 111.226C60.0282 110.902 60.0655 110.744 60.3667 109.736C60.8858 108.009 61.3247 106.17 61.6832 104.222C61.7377 103.915 61.8811 103.168 61.9987 102.56C62.3917 100.538 62.429 100.229 62.4261 99.1373C62.4261 98.4297 62.4175 98.2464 62.363 97.9055C62.2024 96.8772 61.8926 95.9261 61.2272 94.4337C60.883 93.6546 60.8572 93.6116 60.5818 93.3251C60.1602 92.8811 59.4259 91.8843 59.2652 91.5376C59.2021 91.3944 59.1993 91.383 59.2423 91.3171C59.2853 91.2512 59.3083 91.2455 59.4832 91.2455C59.727 91.2455 60.0512 91.3285 60.9088 91.6093C62.386 92.0934 64.1098 92.7408 65.3834 93.2879C66.3615 93.709 66.5479 93.7806 67.0011 93.9066C67.7899 94.1301 68.355 94.1931 69.6715 94.216C71.6277 94.2475 73.7302 94.1215 74.8345 93.9066C75.8527 93.709 76.9112 93.3108 77.4619 92.9184C77.8577 92.6405 78.2019 92.1278 78.658 91.1452C79.9114 88.4439 80.1466 87.957 80.3101 87.7364C80.4593 87.5359 80.7404 87.0919 80.901 86.8054C81.1046 86.4473 81.4202 85.9804 81.75 85.5593C82.143 85.0552 82.3581 84.7401 82.7052 84.1614C83.4968 82.8438 84.3803 81.1336 84.7388 80.2255C84.799 80.0794 84.865 79.8388 84.888 79.6927C84.9396 79.3719 85.0056 79.1628 85.1777 78.7732C85.367 78.3493 85.5563 77.8021 85.8202 76.9342C85.9492 76.5131 86.2734 75.5076 86.5401 74.7055C87.1367 72.9123 87.2515 72.5428 87.4121 71.9241C87.4809 71.6548 87.6415 71.0876 87.7706 70.6637C88.5852 67.9595 89.9505 61.7778 90.3234 59.1052C90.3951 58.5781 90.55 57.7359 90.7107 56.9854C90.9143 56.0372 90.9745 55.6448 91.0118 55.0089C91.0319 54.6708 91.0577 54.4847 91.1237 54.2355C91.3302 53.4391 91.8035 52.5024 92.5751 51.368C93.6478 49.7925 93.8084 49.5433 93.9375 49.2712C94.3792 48.3259 94.9185 46.3665 95.1422 44.897C95.1738 44.685 95.2139 44.2353 95.2283 43.9001C95.2598 43.1869 95.3143 42.7085 95.4319 42.1757C95.6126 41.3392 95.7245 40.4541 95.9454 38.1367C96.0257 37.2945 96.1003 36.5955 96.1117 36.5869C96.1347 36.564 97.1529 36.4552 97.695 36.4151C98.8481 36.332 102.548 36.3549 105.181 36.4609C107.249 36.544 107.987 36.6185 108.434 36.7903C108.543 36.8304 108.81 36.8247 108.919 36.7789C108.97 36.7588 109.074 36.6872 109.151 36.6213C109.286 36.5039 109.455 36.4036 109.599 36.3578C109.745 36.3091 110.23 36.3492 110.465 36.4265Z" fill="#39BBD1"/>
</svg>
