<?xml version="1.0" encoding="UTF-8"?>
<svg enable-background="new 0 0 15 15" version="1.1" viewBox="0 0 15 15" xmlns="http://www.w3.org/2000/svg">
 <path d="m6 2c-0.554 0-0.7522 0.5045-1 1l-0.5 1h-2c-0.831 0-1.5 0.669-1.5 1.5v5c0 0.831 0.669 1.5 1.5 1.5h10c0.831 0 1.5-0.669 1.5-1.5v-5c0-0.831-0.669-1.5-1.5-1.5h-2l-0.5-1c-0.25-0.5-0.446-1-1-1h-3zm-3.5 3c0.2761 0 0.5 0.2239 0.5 0.5s-0.2239 0.5-0.5 0.5-0.5-0.2239-0.5-0.5 0.2239-0.5 0.5-0.5zm5 0c1.6569 0 3 1.3431 3 3s-1.3431 3-3 3-3-1.3431-3-3 1.3431-3 3-3zm0 1.5c-0.8284 0-1.5 0.6716-1.5 1.5s0.6716 1.5 1.5 1.5 1.5-0.6716 1.5-1.5-0.6716-1.5-1.5-1.5z"/>
</svg>
