<svg width="85" height="83" viewBox="0 0 85 83" fill="none" xmlns="http://www.w3.org/2000/svg">
<path fill-rule="evenodd" clip-rule="evenodd" d="M27.6564 2.13614C26.6415 2.5772 24.9922 4.12089 23.7236 5.44405C22.4549 6.76722 21.1863 9.96486 20.4251 12.1701C19.537 14.3754 18.649 15.9191 17.634 16.9115C16.746 17.9038 15.6042 18.3449 15.8579 18.3449C16.1116 18.3449 17.7609 17.7936 17.5072 18.0141C17.2534 18.3449 15.2236 19.4475 15.0967 19.7783C14.843 20.1091 16.4922 19.8886 17.2534 20.4399C16.9997 20.9912 16.746 21.5425 16.3654 22.0939C15.6042 23.5273 14.5893 25.2915 13.9549 27.166C13.1937 29.1507 12.8131 31.2457 12.3057 33.2305C11.7982 35.105 11.037 36.8692 9.2609 38.4129C7.35792 40.0668 4.44001 41.5003 2.66389 43.3747C0.760903 45.139 -0.000291508 47.234 0.380306 49.4392C0.760903 51.6445 2.41016 54.0703 5.83553 55.614C9.38777 57.1577 14.7161 57.709 18.0146 57.0474C21.3131 56.3858 22.7087 54.5114 23.0893 53.8498C23.4699 53.2985 22.9624 53.96 22.3281 54.9524C21.6937 55.9448 21.0594 57.268 20.2982 59.4732C19.537 61.6785 18.7758 64.6556 18.0146 67.0814C17.2534 69.3969 16.746 71.0509 15.9848 72.1535C15.2236 73.2562 14.2087 73.6972 13.4475 75.2409C12.5594 76.6743 12.0519 79.1001 11.9251 80.313C11.9251 81.5259 12.4325 81.5259 13.1937 81.5259C13.9549 81.4157 15.0967 81.3054 15.9848 81.3054C16.8728 81.4157 17.5072 81.6362 18.3952 81.967C19.1564 82.1875 20.2982 82.4081 21.6937 82.6286C23.0893 82.7388 24.6116 82.8491 26.2609 82.7388C27.9102 82.6286 29.6863 82.4081 30.7012 81.967C31.5893 81.5259 31.5893 80.8644 31.3355 80.313C30.9549 79.872 30.1937 79.4309 28.9251 78.8796C27.6564 78.3283 25.8803 77.4462 24.6116 76.5641C23.2161 75.682 22.3281 74.6896 21.9475 73.6972C21.5669 72.7049 21.6937 71.492 22.2012 70.3893C22.7087 69.1764 23.5967 68.0738 24.8654 66.1993C26.2609 64.4351 27.9102 61.7888 29.4325 59.5835C30.9549 57.268 32.3505 55.2832 33.8728 54.0703C35.3952 52.7471 37.1713 52.1958 37.6788 52.4164C38.1863 52.5266 37.4251 53.519 36.7908 54.7319C36.1564 55.8345 35.5221 57.268 34.7609 59.2527C33.9997 61.2374 32.9848 63.8838 32.0967 66.089C31.3355 68.2943 30.5743 70.0585 30.0669 70.8304C29.4325 71.6022 29.3057 71.1612 28.7982 71.933C28.2908 72.8151 27.4027 74.6896 27.4027 75.9025C27.2758 77.1154 27.7833 77.5565 28.9251 77.8872C30.1937 78.3283 32.0967 78.5488 33.2385 78.3283C34.3803 78.218 34.634 77.5565 35.1415 77.5565C35.5221 77.6667 36.1564 78.3283 37.1713 78.7694C38.1863 79.1001 39.7087 79.1001 41.3579 78.9899C43.0072 78.8796 44.6564 78.5488 45.4176 78.1078C46.3057 77.5565 46.0519 76.7846 45.4176 76.3436C44.7833 75.9025 43.6415 75.7922 42.3728 75.2409C41.2311 74.6896 39.9624 73.587 38.8206 72.8151C37.6788 71.933 36.537 71.2714 36.1564 70.4996C35.7758 69.7277 36.0296 68.8456 36.9176 67.5225C37.8057 66.1993 39.2012 64.4351 40.7236 62.5606C42.246 60.6861 43.7684 58.7014 45.1639 56.4961C46.4325 54.2908 47.4475 51.865 48.0818 50.1008C48.5893 48.3366 48.7161 47.1237 48.2087 46.2416C47.8281 45.3595 46.8131 44.6979 45.1639 44.2568C43.5146 43.8158 41.1042 43.7055 39.3281 43.5953C37.4251 43.485 36.1564 43.3747 33.6191 43.485C31.0818 43.5953 27.2758 43.9261 25.7534 43.5953C24.2311 43.2645 24.9922 42.3824 26.0072 41.5003C27.0221 40.5079 28.2908 39.5155 29.4325 38.7437C30.7012 37.8616 31.843 37.2 32.7311 36.3179C33.6191 35.4358 34.2534 34.3331 34.5072 33.2305C34.7609 32.2381 34.634 31.1355 34.634 30.0328C34.634 28.9302 34.7609 27.8276 35.2684 26.8352C35.7758 25.8428 36.6639 24.9607 37.4251 24.4094C38.1863 23.9683 39.0743 23.9683 40.0893 23.9683C41.2311 23.9683 42.6266 23.9683 44.2758 23.8581C45.7982 23.6375 47.4475 23.1965 49.0967 22.8657C50.746 22.6452 52.5221 22.4246 54.0445 22.3144C55.6937 22.0939 57.0893 21.9836 59.246 21.6528C61.2758 21.2117 64.0669 20.5502 66.3505 20.1091C68.634 19.5578 70.4102 19.1167 71.8057 19.1167C73.0743 19.1167 73.9624 19.5578 75.1042 19.7783C76.246 20.1091 77.6415 20.2194 78.2758 19.9988C79.037 19.8886 78.9102 19.4475 79.4176 19.1167C79.9251 18.8962 81.1937 18.6757 82.3355 18.3449C83.6042 18.0141 84.746 17.4628 84.6191 17.132C84.6191 16.8012 83.3505 16.6909 81.8281 16.8012C80.3057 16.8012 78.5296 17.0217 78.6564 16.8012C78.7833 16.4704 80.94 15.9191 80.4325 15.6986C79.9251 15.478 76.7534 15.8088 74.343 15.9191C71.9325 16.0294 70.0296 15.9191 68.1266 15.8088C66.3505 15.6986 64.5743 15.3678 63.0519 15.3678C61.5296 15.2575 60.2609 15.478 58.2311 15.478C56.0743 15.5883 53.2833 15.478 50.9997 15.478C48.843 15.478 47.3206 15.5883 45.9251 15.8088C44.5296 16.1396 43.3878 16.6909 41.8654 17.132C40.343 17.4628 38.44 17.5731 36.9176 17.6833C35.3952 17.6833 34.1266 17.6833 33.746 17.3525C33.2385 17.0217 33.4922 16.3602 33.8728 16.1396C34.3803 15.8088 35.1415 15.9191 35.5221 15.6986C36.0296 15.5883 36.2833 15.2575 36.6639 14.8165C36.9176 14.7062 39.2012 10.5162 38.9475 9.52381C38.8206 9.52381 44.2758 -0.179391 32.0967 0.261663C30.4475 0.371927 28.4176 1.3643 27.6564 2.13614C27.9102 1.58483 26.8952 2.79773 27.6564 2.13614Z" fill="#39BBD1"/>
<path d="M27.6564 2.13614C26.6415 2.5772 24.9922 4.12089 23.7236 5.44405C22.4549 6.76722 21.1863 9.96486 20.4251 12.1701C19.537 14.3754 18.649 15.9191 17.634 16.9115C16.746 17.9038 15.6042 18.3449 15.8579 18.3449C16.1116 18.3449 17.7609 17.7936 17.5072 18.0141C17.2534 18.3449 15.2236 19.4475 15.0967 19.7783C14.843 20.1091 16.4922 19.8886 17.2534 20.4399C16.9997 20.9912 16.746 21.5425 16.3654 22.0939C15.6042 23.5273 14.5893 25.2915 13.9549 27.166C13.1937 29.1507 12.8131 31.2457 12.3057 33.2305C11.7982 35.105 11.037 36.8692 9.2609 38.4129C7.35792 40.0668 4.44001 41.5003 2.66389 43.3747C0.760903 45.139 -0.000291508 47.234 0.380306 49.4392C0.760903 51.6445 2.41016 54.0703 5.83553 55.614C9.38777 57.1577 14.7161 57.709 18.0146 57.0474C21.3131 56.3858 22.7087 54.5114 23.0893 53.8498C23.4699 53.2985 22.9624 53.96 22.3281 54.9524C21.6937 55.9448 21.0594 57.268 20.2982 59.4732C19.537 61.6785 18.7758 64.6556 18.0146 67.0814C17.2534 69.3969 16.746 71.0509 15.9848 72.1535C15.2236 73.2562 14.2087 73.6972 13.4475 75.2409C12.5594 76.6743 12.0519 79.1001 11.9251 80.313C11.9251 81.5259 12.4325 81.5259 13.1937 81.5259C13.9549 81.4157 15.0967 81.3054 15.9848 81.3054C16.8728 81.4157 17.5072 81.6362 18.3952 81.967C19.1564 82.1875 20.2982 82.4081 21.6937 82.6286C23.0893 82.7388 24.6116 82.8491 26.2609 82.7388C27.9102 82.6286 29.6863 82.4081 30.7012 81.967C31.5893 81.5259 31.5893 80.8644 31.3355 80.313C30.9549 79.872 30.1937 79.4309 28.9251 78.8796C27.6564 78.3283 25.8803 77.4462 24.6116 76.5641C23.2161 75.682 22.3281 74.6896 21.9475 73.6972C21.5669 72.7049 21.6937 71.492 22.2012 70.3893C22.7087 69.1764 23.5967 68.0738 24.8654 66.1993C26.2609 64.4351 27.9102 61.7888 29.4325 59.5835C30.9549 57.268 32.3505 55.2832 33.8728 54.0703C35.3952 52.7471 37.1713 52.1958 37.6788 52.4164C38.1863 52.5266 37.4251 53.519 36.7908 54.7319C36.1564 55.8345 35.5221 57.268 34.7609 59.2527C33.9997 61.2374 32.9848 63.8838 32.0967 66.089C31.3355 68.2943 30.5743 70.0585 30.0669 70.8304C29.4325 71.6022 29.3057 71.1612 28.7982 71.933C28.2908 72.8151 27.4027 74.6896 27.4027 75.9025C27.2758 77.1154 27.7833 77.5565 28.9251 77.8872C30.1937 78.3283 32.0967 78.5488 33.2385 78.3283C34.3803 78.218 34.634 77.5565 35.1415 77.5565C35.5221 77.6667 36.1564 78.3283 37.1713 78.7694C38.1863 79.1001 39.7087 79.1001 41.3579 78.9899C43.0072 78.8796 44.6564 78.5488 45.4176 78.1078C46.3057 77.5565 46.0519 76.7846 45.4176 76.3436C44.7833 75.9025 43.6415 75.7922 42.3728 75.2409C41.2311 74.6896 39.9624 73.587 38.8206 72.8151C37.6788 71.933 36.537 71.2714 36.1564 70.4996C35.7758 69.7277 36.0296 68.8456 36.9176 67.5225C37.8057 66.1993 39.2012 64.4351 40.7236 62.5606C42.246 60.6861 43.7684 58.7014 45.1639 56.4961C46.4325 54.2908 47.4475 51.865 48.0818 50.1008C48.5893 48.3366 48.7161 47.1237 48.2087 46.2416C47.8281 45.3595 46.8131 44.6979 45.1639 44.2568C43.5146 43.8158 41.1042 43.7055 39.3281 43.5953C37.4251 43.485 36.1564 43.3747 33.6191 43.485C31.0818 43.5953 27.2758 43.9261 25.7534 43.5953C24.2311 43.2645 24.9922 42.3824 26.0072 41.5003C27.0221 40.5079 28.2908 39.5155 29.4325 38.7437C30.7012 37.8616 31.843 37.2 32.7311 36.3179C33.6191 35.4358 34.2534 34.3331 34.5072 33.2305C34.7609 32.2381 34.634 31.1355 34.634 30.0328C34.634 28.9302 34.7609 27.8276 35.2684 26.8352C35.7758 25.8428 36.6639 24.9607 37.4251 24.4094C38.1863 23.9683 39.0743 23.9683 40.0893 23.9683C41.2311 23.9683 42.6266 23.9683 44.2758 23.8581C45.7982 23.6375 47.4475 23.1965 49.0967 22.8657C50.746 22.6452 52.5221 22.4246 54.0445 22.3144C55.6937 22.0939 57.0893 21.9836 59.246 21.6528C61.2758 21.2117 64.0669 20.5502 66.3505 20.1091C68.634 19.5578 70.4102 19.1167 71.8057 19.1167C73.0743 19.1167 73.9624 19.5578 75.1042 19.7783C76.246 20.1091 77.6415 20.2194 78.2758 19.9988C79.037 19.8886 78.9102 19.4475 79.4176 19.1167C79.9251 18.8962 81.1937 18.6757 82.3355 18.3449C83.6042 18.0141 84.746 17.4628 84.6191 17.132C84.6191 16.8012 83.3505 16.6909 81.8281 16.8012C80.3057 16.8012 78.5296 17.0217 78.6564 16.8012C78.7833 16.4704 80.94 15.9191 80.4325 15.6986C79.9251 15.478 76.7534 15.8088 74.343 15.9191C71.9325 16.0294 70.0296 15.9191 68.1266 15.8088C66.3505 15.6986 64.5743 15.3678 63.0519 15.3678C61.5296 15.2575 60.2609 15.478 58.2311 15.478C56.0743 15.5883 53.2833 15.478 50.9997 15.478C48.843 15.478 47.3206 15.5883 45.9251 15.8088C44.5296 16.1396 43.3878 16.6909 41.8654 17.132C40.343 17.4628 38.44 17.5731 36.9176 17.6833C35.3952 17.6833 34.1266 17.6833 33.746 17.3525C33.2385 17.0217 33.4922 16.3602 33.8728 16.1396C34.3803 15.8088 35.1415 15.9191 35.5221 15.6986C36.0296 15.5883 36.2833 15.2575 36.6639 14.8165C36.9176 14.7062 39.2012 10.5162 38.9475 9.52381C38.8206 9.52381 44.2758 -0.179391 32.0967 0.261663C30.4475 0.371927 28.4176 1.3643 27.6564 2.13614ZM27.6564 2.13614C26.8952 2.79773 27.9102 1.58483 27.6564 2.13614Z" stroke="#39BBD1" stroke-width="0.199934"/>
</svg>
