<?xml version="1.0" encoding="UTF-8"?>
<svg width="210mm" height="297mm" version="1.1" viewBox="0 0 744.09448819 1052.3622047" xmlns="http://www.w3.org/2000/svg">
 <g transform="matrix(.36448 0 0 .36448 760.97 737.2)">
  <g transform="matrix(.72493 0 0 .79461 -346.81 -48.651)">
   <g transform="translate(-17.485 -170.56)" fill-rule="evenodd" stroke="#000">
    <path d="m-1250.1 724.54c204 37.766 520.83 30.115 603.41-31.5 149.13-111.27 184.01-983.37 374.8-1394-771.16 263.9-1388.8 144.22-1332.8 43.887 38.634-69.156 364.37-184.49 1275.8-91.46 0 0-282.53-7.7874-589.65-10.679-355.1-3.3432-615.65 36.145-631.37 113.71-2.7275 96.018 874.25 77.797 1278.5-56.863-71.31 273.72-146.37 1098.5-298.12 1443.7-50.251 114.32-526.69 14.35-745.33 38.522s-202.34-1018.8-310.56-1294.2c232.63 500.14 171.28 1201.1 375.28 1238.9z" stroke-width="1.3176px"/>
    <g transform="translate(2157 310.07)">
     <path transform="matrix(3.7846 0 0 3.4528 -2384.1 -2313.6)" d="m-236.53 339.24a25.633 27.754 0 0 0 -25.633 27.754 25.633 27.754 0 0 0 25.633 27.754 25.633 27.754 0 0 0 25.633 -27.754 25.633 27.754 0 0 0 -25.633 -27.754zm-1.7676 6.791a20.955 21.76 0 0 1 20.955 21.76 20.955 21.76 0 0 1 -20.955 21.76 20.955 21.76 0 0 1 -20.955 -21.76 20.955 21.76 0 0 1 20.955 -21.76z"/>
     <path d="m-3085.9-1292a67.451 77.573 73.794 0 0 -106.4 -12.443 67.451 77.573 73.794 0 0 -22.037 95.776 67.451 77.573 73.794 0 0 106.4 12.443 67.451 77.573 73.794 0 0 22.037 -95.776zm-18.622 6.4641a54.81 61.188 80.584 0 1 -15.865 76.903 54.81 61.188 80.584 0 1 -84.832 -11.567 54.81 61.188 80.584 0 1 15.865 -76.903 54.81 61.188 80.584 0 1 84.832 11.567z" stroke-width="2.712"/>
     <path d="m-3015.3-1120.5a55.27 63.564 73.794 0 0 -87.185 -10.196 55.27 63.564 73.794 0 0 -18.057 78.48 55.27 63.564 73.794 0 0 87.185 10.196 55.27 63.564 73.794 0 0 18.057 -78.48zm-15.259 5.2967a44.912 50.138 80.584 0 1 -13 63.015 44.912 50.138 80.584 0 1 -69.512 -9.4784 44.912 50.138 80.584 0 1 13 -63.015 44.912 50.138 80.584 0 1 69.512 9.4783z" stroke-width="2.2222"/>
     <path d="m-3371.3-1484.3a91.929 81.205 19.875 0 0 7.8328 116.68 91.929 81.205 19.875 0 0 128.11 2.1331 91.929 81.205 19.875 0 0 -7.8328 -116.68 91.929 81.205 19.875 0 0 -128.11 -2.133zm12.484 18.485a72.745 65.776 10.959 0 1 102.45 -0.2453 72.745 65.776 10.959 0 1 4.1275 93.394 72.745 65.776 10.959 0 1 -102.45 0.2452 72.745 65.776 10.959 0 1 -4.1275 -93.394z" stroke-width="3.2393"/>
     <g transform="matrix(-1 0 0 1 -6335.3 -612.81)">
      <path transform="matrix(3.7846 0 0 3.4528 -2384.1 -2313.6)" d="m-236.53 339.24a25.633 27.754 0 0 0 -25.633 27.754 25.633 27.754 0 0 0 25.633 27.754 25.633 27.754 0 0 0 25.633 -27.754 25.633 27.754 0 0 0 -25.633 -27.754zm-1.7676 6.791a20.955 21.76 0 0 1 20.955 21.76 20.955 21.76 0 0 1 -20.955 21.76 20.955 21.76 0 0 1 -20.955 -21.76 20.955 21.76 0 0 1 20.955 -21.76z"/>
      <path d="m-3085.9-1292a67.451 77.573 73.794 0 0 -106.4 -12.443 67.451 77.573 73.794 0 0 -22.037 95.776 67.451 77.573 73.794 0 0 106.4 12.443 67.451 77.573 73.794 0 0 22.037 -95.776zm-18.622 6.4641a54.81 61.188 80.584 0 1 -15.865 76.903 54.81 61.188 80.584 0 1 -84.832 -11.567 54.81 61.188 80.584 0 1 15.865 -76.903 54.81 61.188 80.584 0 1 84.832 11.567z" stroke-width="2.712"/>
      <path d="m-3015.3-1120.5a55.27 63.564 73.794 0 0 -87.185 -10.196 55.27 63.564 73.794 0 0 -18.057 78.48 55.27 63.564 73.794 0 0 87.185 10.196 55.27 63.564 73.794 0 0 18.057 -78.48zm-15.259 5.2967a44.912 50.138 80.584 0 1 -13 63.015 44.912 50.138 80.584 0 1 -69.512 -9.4784 44.912 50.138 80.584 0 1 13 -63.015 44.912 50.138 80.584 0 1 69.512 9.4783z" stroke-width="2.2222"/>
      <path d="m-3111.8-1520.9a91.929 81.205 19.875 0 0 7.8328 116.68 91.929 81.205 19.875 0 0 128.11 2.1331 91.929 81.205 19.875 0 0 -7.8328 -116.68 91.929 81.205 19.875 0 0 -128.11 -2.133zm12.484 18.485a72.745 65.776 10.959 0 1 102.45 -0.2453 72.745 65.776 10.959 0 1 4.1275 93.394 72.745 65.776 10.959 0 1 -102.45 0.2452 72.745 65.776 10.959 0 1 -4.1275 -93.394z" stroke-width="3.2393"/>
      <path d="m-3226.7-839.71a55.27 63.564 73.794 0 0 -87.185 -10.196 55.27 63.564 73.794 0 0 -18.057 78.48 55.27 63.564 73.794 0 0 87.185 10.196 55.27 63.564 73.794 0 0 18.057 -78.48zm-15.259 5.2967a44.912 50.138 80.584 0 1 -13 63.015 44.912 50.138 80.584 0 1 -69.512 -9.4784 44.912 50.138 80.584 0 1 13 -63.015 44.912 50.138 80.584 0 1 69.512 9.4783z" stroke-width="2.2222"/>
      <path d="m-2910.9-659.04a55.27 63.564 73.794 0 0 -87.185 -10.196 55.27 63.564 73.794 0 0 -18.057 78.48 55.27 63.564 73.794 0 0 87.185 10.196 55.27 63.564 73.794 0 0 18.057 -78.48zm-15.259 5.2967a44.912 50.138 80.584 0 1 -13 63.015 44.912 50.138 80.584 0 1 -69.512 -9.4784 44.912 50.138 80.584 0 1 13 -63.015 44.912 50.138 80.584 0 1 69.512 9.4783z" stroke-width="2.2222"/>
      <path d="m-3125.2-995.26a58.256 60.306 60.653 0 0 -70.766 47.565 58.256 60.306 60.653 0 0 46.358 68.131 58.256 60.306 60.653 0 0 70.766 -47.565 58.256 60.306 60.653 0 0 -46.358 -68.131zm-7.0245 13.446a46.086 48.861 83.084 0 1 38.307 53.761 46.086 48.861 83.084 0 1 -57.443 36.948 46.086 48.861 83.084 0 1 -38.307 -53.761 46.086 48.861 83.084 0 1 57.443 -36.948z" stroke-width="2.2222"/>
     </g>
    </g>
   </g>
  </g>
 </g>
</svg>
