<?xml version="1.0" encoding="utf-8"?>
<svg xmlns="http://www.w3.org/2000/svg" xmlns:xlink="http://www.w3.org/1999/xlink" version= "1.1" width="1400px" height="1000px" viewBox="-340 214 1400 1000">
<g id="layer1">
<g style="fill:rgb(0,0,0); fill-opacity:1.0; stroke-linejoin: miter">
<path d="M751.6002,628.54126C745.9684,629.50476,740.9541,631.6289,735.9398,635.1365C734.23553,636.3467,731.9876,637.8535,730.9749,638.5204C728.332,640.2495,724.87384,643.78174,723.78705,645.93066C722.6014,648.22784,722.10724,649.784,721.8603,652.13055C721.3909,656.1569,722.4036,660.8748,724.87384,666.309L725.96063,668.6308L725.14557,669.76715C723.34235,672.31134,717.8587,683.1799,716.67303,686.66266C715.3886,690.29364,715.14166,692.36847,714.99347,700.44574L714.8453,707.8067L714.2524,707.8066C713.289,707.8067,712.0046,707.0903,710.4731,705.65765C709.6827,704.94135,708.991,704.3486,708.91693,704.3486C708.7194,704.3486,709.3122,706.0036,709.97906,707.33746C710.30023,707.93024,711.1401,709.3381,711.88104,710.44965C712.9185,711.95636,713.2149,712.62335,713.0915,713.0433C712.7703,714.3029,705.4836,722.20734,702.51935,724.554C701.30914,725.49274,701.08685,725.7889,701.08685,726.456C701.08685,727.4687,702.5441,729.46954,705.1624,732.0136C707.11383,733.9156,707.75604,734.8295,707.75604,735.69403C707.75604,735.96576,707.2127,737.2503,706.52094,738.5347C705.85406,739.81915,705.28595,741.0048,705.28595,741.153C705.28595,741.3012,705.8046,742.0175,706.4716,742.7093C708.7441,745.20404,708.62054,744.8829,707.90424,746.3155C706.86676,748.3162,707.03973,748.88446,709.6086,751.8979C712.0787,754.8128,712.0787,754.83734,712.0787,760.79034C712.07874,765.9283,712.07874,766.00226,712.7456,767.41034C713.95605,770.00385,715.85803,771.7331,718.59985,772.7951C719.9584,773.33856,720.3042,773.33856,732.08655,773.3632C747.4752,773.4128,749.1549,773.6844,750.88403,776.2781C751.82263,777.66125,753.3541,781.2429,753.8976,783.31775L754.2927,784.84937L753.67505,785.4175C753.0575,786.01025,753.03284,786.0842,752.86,790.77747C752.6129,797.61975,752.687,797.32324,750.71094,799.6946C748.88306,801.9177,745.499,806.6356,744.931,807.7965C744.7333,808.19165,743.4735,809.87146,742.115,811.551C740.7811,813.20605,738.978,815.7008,738.1134,817.0841C736.0139,820.44336,732.35815,827.73,729.3694,834.52295C726.3064,841.46375,722.42834,849.29407,720.10645,853.1721C711.9304,866.85645,706.9408,878.0707,704.3966,888.4945C702.964,894.4475,702.5935,897.14,702.27234,904.27844C701.8031,914.99866,701.90186,915.9867,707.0149,954.4463C708.4723,965.5863,709.7567,975.36804,709.8308,976.1831C710.0038,977.7639,710.7201,989.54626,710.7201,990.50964C710.7201,991.0283,710.37427,991.152,706.1011,992.3622C703.5321,993.05396,696.5663,995.0299,690.5886,996.7096C684.61096,998.41394,676.1633,1000.80994,671.8159,1002.0449C667.4685,1003.2554,654.3771,1006.9852,642.7429,1010.2953C622.2904,1016.1247,621.5248,1016.3222,619.4004,1016.3222C616.6339,1016.3222,614.6084,1015.9765,611.9408,1015.112C605.96313,1013.13574,600.8994,1009.8751,589.8087,1000.88403C587.7832,999.2538,584.99194,997.0554,583.6334,996.0426C581.4104,994.36304,580.1753,993.4739,575.16113,989.99084C573.55566,988.8794,571.03613,987.9901,568.813,987.7925C567.9978,987.7185,562.4895,987.6443,556.58606,987.6196L545.84106,987.54553L543.4945,988.2124C539.6411,989.27454,532.9224,992.3622,524.22766,997.0554C518.1265,1000.3407,516.0269,1001.3286,515.8046,1000.95825C515.68115,1000.7853,515.5824,995.6969,515.5824,989.64514C515.5824,983.5934,515.50824,966.20386,515.4094,951.0128L515.2613,923.37244L489.91812,923.54517C475.98682,923.6194,457.04114,923.7676,447.85242,923.86633L431.1051,924.0145L431.1051,895.92957C431.1051,880.49133,431.12982,867.86914,431.1792,867.86914C431.8955,867.8198,518.1266,853.07324,518.2254,852.9497C518.37366,852.80164,516.66925,841.2168,516.4716,841.01917C516.42224,840.9452,467.9837,849.14575,408.8249,859.2239C349.69067,869.277,236.73326,888.5193,157.78893,901.95667L14.276244,926.36096L-5.4351497,926.4845C-16.303587,926.5587,-25.22064,926.6821,-25.294737,926.73157C-25.44293,926.9044,-24.652617,1072.6896,-24.479673,1076.0245L-24.33148,1078.5685L-14.599273,1078.5685L-4.8670955,1078.5685L-4.8670955,1082.9406C-4.8670955,1085.3612,-4.5953975,1116.4105,-4.249603,1151.9305C-3.9038084,1187.4506,-3.6321561,1216.9437,-3.6321561,1217.4376L-3.6321561,1218.3763L7.705589,1218.3763L19.068075,1218.3763L18.94454,1209.6569C18.771666,1197.1334,17.857786,1091.4379,17.857786,1084.2992L17.857786,1078.3217L36.309444,1078.3217L54.736324,1078.3217L54.56341,1094.476L54.3905,1110.6058L70.64379,1110.7789C79.58556,1110.8529,128.54283,1111.0504,179.47624,1111.2235L272.03073,1111.5199L272.03073,1112.0138C272.03073,1112.3102,272.25302,1135.381,272.52475,1163.2931C272.79642,1191.2052,273.01877,1215.017,273.01877,1216.2028L273.01877,1218.3763L282.84976,1218.3763L292.70544,1218.3763L292.85367,1203.5062C292.95248,1195.3302,293.02658,1174.0133,293.02658,1156.1298C293.02664,1138.2462,293.10074,1120.9061,293.1995,1117.5961L293.3477,1111.6185L340.3784,1111.7916L387.38437,1111.9647L387.38437,1102.1088C387.38437,1096.6747,387.45847,1091.0428,387.55722,1089.5607L387.7054,1086.9178L418.2358,1087.0905C435.0325,1087.1896,448.81564,1087.3129,448.86502,1087.3624C449.1121,1087.6093,449.35904,1094.7479,449.63077,1108.8522C449.9025,1124.1669,450.37173,1184.8573,450.37173,1206.1989L450.37177,1218.3766L460.20276,1218.3766L470.0584,1218.3766L470.2066,1212.0284C470.3054,1208.5455,470.3795,1191.8475,470.3795,1174.9274C470.37955,1125.0314,470.923,1088.2516,471.6887,1087.5599C472.15805,1087.1154,484.11337,1086.9672,542.7535,1086.6954C572.024,1086.5719,599.54095,1086.3741,603.88837,1086.2509L611.79266,1086.0038L618.9559,1082.6444C622.90814,1080.7919,626.1933,1079.1864,626.2674,1079.1122C626.3663,1079.0133,626.51447,1075.7035,626.58856,1071.776C626.66266,1067.8239,626.95905,1059.055,627.2308,1052.2623C627.5024,1045.4694,627.7247,1039.2448,627.7247,1038.4049L627.7247,1036.923L651.01776,1036.923C676.11395,1036.9476,679.9427,1036.7994,693.1823,1035.4408C699.2835,1034.7985,708.81805,1033.4894,711.58453,1032.872C712.128,1032.7484,712.622,1032.6991,712.6961,1032.7731C712.7702,1032.847,712.8443,1036.8241,712.8691,1041.5914L712.9432,1050.286L710.893,1062.1427L708.8427,1073.9991L684.5369,1079.1122C671.1491,1081.9281,646.1517,1087.1896,628.9598,1090.7958C611.7679,1094.4022,597.4908,1097.465,597.21906,1097.5638C596.898,1097.712,596.3051,1098.799,595.5147,1100.6515L594.3044,1103.5167L592.674,1103.5167C590.96967,1103.5167,584.8438,1104.159,584.498,1104.3812C583.9052,1104.7518,573.08624,1106.8761,561.1556,1108.951C533.09534,1113.8419,523.0667,1116.0897,516.94086,1118.955C512.8158,1120.8568,510.46927,1122.66,508.54257,1125.3773C506.96176,1127.5756,504.86215,1131.7252,503.94815,1134.393C503.15775,1136.6656,503.13303,1136.8632,503.13303,1140.6918C503.13303,1147.3856,504.0222,1154.2032,505.33145,1157.4144C506.12186,1159.3658,507.7521,1161.7618,510.0493,1164.2814C512.47,1166.9489,514.59424,1169.8143,515.1377,1171.0739C515.36,1171.6176,515.65643,1172.6796,515.80457,1173.4208C515.95276,1174.1615,516.59503,1175.9896,517.2125,1177.4962C519.6579,1183.4491,521.04114,1187.3519,522.3256,1192.07C523.98065,1198.0721,525.0427,1200.7152,529.81006,1210.6451L533.4905,1218.3766L571.7029,1218.3766L609.9153,1218.3766L609.52,1217.4379C609.3225,1216.944,608.8778,1216.0299,608.5814,1215.4125C607.76624,1213.7823,605.8643,1208.4467,605.24677,1206.026C604.481,1202.9877,602.9002,1198.764,599.9609,1191.9218C597.2437,1185.524,596.6015,1183.7211,596.6015,1182.3871C596.6015,1180.7074,597.66364,1181.0284,600.92413,1183.6715C604.2094,1186.3392,603.913,1186.3146,618.46185,1185.796C624.0196,1185.5983,629.70087,1185.5487,632.36847,1185.6476L636.8641,1185.8204L636.86395,1202.0985L636.86395,1218.3763L737.3969,1218.3766L837.93,1218.3766L837.93,1206.5695L837.9301,1194.7872L840.20245,1193.305C848.9467,1187.599,859.7658,1178.4105,866.45966,1170.9506C879.5019,1156.4513,886.8381,1141.8529,889.45624,1125.2538C890.0738,1121.2523,890.1973,1111.693,889.7034,1107.3456C888.3201,1095.8844,884.39264,1083.2621,877.2293,1067.5028C875.89545,1064.5634,872.0915,1056.5848,868.8062,1049.7924C860.2845,1032.2052,856.92505,1024.6464,853.78796,1016.0505C850.67566,1007.5781,848.79846,1000.0443,847.81055,992.2389C847.3412,988.55835,847.29175,987.2739,847.3906,981.8644C847.58813,973.6637,848.37866,967.88367,850.55225,959.51C855.3937,940.7373,864.3848,921.61865,884.44196,887.3832C890.27155,877.4286,890.39496,877.25574,891.03705,875.27966C891.70416,873.3529,891.8276,869.69727,891.3089,867.6223C890.8149,865.57214,889.1352,862.5338,887.7026,861.07654C886.097,859.4215,884.24445,858.23584,881.8979,857.37146C880.31696,856.7787,879.6501,856.6798,877.4517,856.655C874.5368,856.655,872.48663,857.1738,870.0413,858.557C867.20074,860.1627,866.1385,861.57056,860.2352,871.57446C847.6376,892.9408,839.53577,908.1073,833.95325,920.6554C833.23694,922.3104,832.5947,923.6195,832.5453,923.57007C832.496,923.5206,832.6194,921.4951,832.8417,919.0746C835.04016,894.3982,834.8673,875.5514,832.3478,857.37146C830.24817,842.3779,826.296,827.8043,821.5287,817.62744C820.91113,816.2936,820.39233,815.1079,820.39233,815.00916C820.39233,814.9352,821.2075,814.44116,822.22046,813.92224C824.6904,812.63794,826.6172,811.0818,827.9756,809.2539C830.0752,806.4132,830.39636,805.203,831.5326,796.4835C832.27356,790.57996,832.5947,789.32007,833.3357,789.32007C834.052,789.32007,838.1278,787.07227,839.53577,785.8866C841.2156,784.47876,841.339,784.454,844.32764,785.0222C849.6138,786.03503,854.77637,784.454,857.6416,780.94653C858.70386,779.6621,862.26074,774.03033,863.19934,772.153C864.0639,770.3991,865.2741,766.9411,866.1141,763.63104C866.8056,760.9882,866.8551,760.59283,866.7068,757.9251C866.50916,754.5164,866.7809,753.2072,868.41113,749.6009C869.99194,746.1922,870.3873,744.4631,870.21436,741.8941C870.06616,739.7452,869.4238,737.00336,868.53467,734.5827C867.9418,733.0264,867.22546,732.1125,861.6925,725.98676C859.49414,723.566,857.6909,721.4665,857.6909,721.3676C857.6909,721.1701,859.2471,720.6513,859.8152,720.6513C860.58093,720.6513,864.11316,718.60114,864.70593,717.8106C866.01514,716.10626,866.3363,715.0441,866.3363,712.3271L866.3363,709.7829L867.7688,709.0666C870.56006,707.6585,871.5729,705.9295,870.93066,703.7558C870.51074,702.3973,869.64624,701.11285,868.2135,699.8532L867.2008,698.939L868.7323,697.55585C870.6095,695.87616,871.2765,694.56696,871.2765,692.591C871.2765,690.7138,870.56006,689.207,868.63354,686.9344C867.176,685.2299,867.1515,685.1807,866.9785,683.3034C866.7809,681.1296,866.4845,680.1169,865.694,678.9312C865.00244,677.894,863.17456,676.58466,861.66785,676.0413C860.28455,675.52264,860.0128,675.22626,859.8152,673.9417C859.3213,670.87885,857.4193,669.372,853.146,668.68036C851.0464,668.3593,850.92285,668.3099,849.7125,667.09955C848.1317,665.59283,847.6376,665.3211,846.3285,665.3211C845.04407,665.3211,843.83374,665.8398,842.2529,667.0501C841.5364,667.59357,840.8943,668.03815,840.82007,668.03815C840.7213,668.03815,840.0298,666.80316,839.26404,665.2963C834.24976,655.26776,827.3087,647.80817,817.5271,641.9293C808.4125,636.421,797.791,633.20984,785.14417,632.1229C781.76013,631.82654,780.08044,631.55493,778.2279,631.0115C774.4486,629.8751,771.1387,629.08484,767.9275,628.54126C763.90125,627.82495,755.62646,627.82495,751.6002,628.54126 Z M759.2822,847.8368C750.5875,868.41284,745.5238,895.88025,744.04175,930.4863C743.6959,938.3165,743.89355,962.54834,744.33813,969.14343C744.4863,971.5148,744.6345,975.2446,744.6592,977.41833C744.68396,981.3209,744.68396,981.3705,744.1405,981.44446C743.4242,981.54333,743.4242,981.54333,743.103,974.7999C742.2633,957.68225,742.1891,941.84875,742.8561,926.28723C743.8688,902.3519,747.59863,878.8613,753.0082,862.1881C755.77466,853.66614,759.9491,843.7612,760.3197,844.8479C760.369,845.0209,759.89966,846.35474,759.2822,847.8368 Z M423.94183,896.52246L423.94183,923.94055L423.0279,923.9404C422.50922,923.94055,347.69,924.385,256.741,924.92834C165.79198,925.4719,91.343315,925.89185,91.318596,925.8425C91.2445,925.7683,422.83026,869.17834,423.6454,869.129C423.86774,869.10425,423.94183,874.73596,423.94183,896.52246 Z M792.7273,936.8839C792.7273,939.03284,792.1592,946.27026,791.4675,953.2113C789.3186,974.6271,785.3417,992.8811,779.70984,1007.1583C778.376,1010.567,775.93054,1015.9025,775.5353,1016.29755C775.06604,1016.767,775.41187,1015.63055,776.6963,1012.469C784.3042,993.7704,789.2938,969.1682,791.1218,941.3795C791.4675,935.8712,791.6405,935.056,792.3816,935.056C792.6532,935.056,792.7273,935.5006,792.7273,936.8839 Z M545.7915,998.5869C547.15015,999.2538,548.1875,999.9949,548.1875,1000.2914C548.1875,1000.4148,547.6936,1000.51355,547.1007,1000.51355C545.39636,1000.51355,541.37,1001.6498,539.56696,1002.6378C532.4531,1006.54065,526.87067,1013.3334,523.8819,1021.7316L523.0667,1024.0287L519.65796,1024.004C517.78076,1023.9797,516.15045,1023.90546,516.0269,1023.83124C515.92816,1023.75726,515.82935,1020.22504,515.82935,1015.9765L515.82935,1008.22034L517.92896,1007.33105C519.0899,1006.83704,522.9926,1004.9845,526.6237,1003.20605C536.38055,998.4387,537.5168,997.994,540.03625,997.82117C542.58044,997.6482,544.433,997.89526,545.7915,998.5869 Z M825.3325,1022.0036C829.13666,1033.3414,832.5699,1041.1715,844.64874,1066.0948C855.1713,1087.7577,858.8765,1097.4652,860.67975,1107.8397C861.2972,1111.5446,861.4206,1117.1024,860.9267,1120.5607C859.14825,1133.0348,851.76263,1145.7804,839.8073,1156.9698C838.1031,1158.5753,836.6457,1159.86,836.59625,1159.8104C836.5468,1159.7611,836.3493,1159.3658,836.1269,1158.9708L835.7564,1158.205L837.83136,1156.3771C840.6966,1153.8329,843.7349,1149.8065,845.4639,1146.2003C849.9842,1136.7892,850.6264,1123.7716,847.41534,1106.234C846.7236,1102.4054,843.78424,1090.7958,841.7587,1083.7562C837.9301,1070.5165,833.18744,1056.3873,827.7286,1042.0114C825.7526,1036.8241,824.3939,1029.5868,823.974,1022.2504C823.8999,1020.8178,823.77637,1019.11346,823.70215,1018.4218C823.6282,1017.75507,823.6282,1017.2609,823.6776,1017.3105C823.7269,1017.38446,824.4679,1019.4841,825.3325,1022.0036 Z M561.64954,1022.5468C564.5149,1023.53485,567.2073,1024.6959,567.2073,1024.9674C567.2073,1025.5851,566.244,1025.6344,558.31494,1025.338C553.77,1025.1652,549.9907,1025.017,549.9413,1024.9923C549.4226,1024.8441,552.3126,1022.9421,554.31335,1022.0776C556.2401,1021.28705,558.31494,1021.4106,561.64954,1022.5468 Z"/>
</g>
<g style="fill:rgb(0,0,0); fill-opacity:1.0; stroke-linejoin: miter">
<path d="M-189.12111,926.5722L-14.764419,926.5727L159.59227,926.5731Q159.59227,1008.63477,159.59227,1090.6964Q-14.764419,1090.6969,-189.12111,1090.6974Q-189.12111,1008.6348,-189.12111,926.5722"/>
</g>
</g>
<g id="layer2">
<g>
<g style="fill:rgb(0,0,0); fill-opacity:1.0; stroke-linejoin: miter">
<path d="M309.49496,524.5719C309.4155,525.8223,309.28842,527.1561,309.25607,527.5511C309.16745,528.3826,308.7606,533.83026,308.43076,538.65967C308.20947,541.70416,307.92102,546.17126,307.66443,549.4714C307.49048,551.66034,307.1609,551.99603,305.1383,551.91705C304.21753,551.8878,302.19788,551.9484,300.6803,552.0472C299.15372,552.1136,297.31537,552.19476,296.58466,552.2188C293.92352,552.24396,284.6782,553.22644,278.78308,554.1355C269.9567,555.49493,267.2007,556.0726,259.36105,558.21545C251.9132,560.2511,244.65564,562.7264,238.98422,565.22437C237.78764,565.727,235.80998,566.58356,234.58067,567.0952C233.38396,567.5977,231.76567,568.35596,231.00262,568.7753C230.23944,569.19446,228.39563,570.1546,226.86053,570.9606C222.59683,573.21436,216.57835,576.7549,215.79771,577.4949C215.54832,577.7387,214.82689,578.1816,214.20032,578.4582C213.58276,578.7675,213.02454,579.16565,212.97119,579.3559C212.91785,579.546,212.65955,579.757,212.39832,579.8284C211.94092,579.9534,207.4519,583.1815,205.66776,584.6171C205.21646,585.0212,204.08548,585.8921,203.21257,586.55194C200.885,588.3115,191.48352,596.814,189.91925,598.5406C189.54224,598.9596,188.61917,599.9492,187.88004,600.71313C185.55875,603.1378,176.963,613.1758,175.95982,614.6434C175.68993,615.06836,174.58893,616.56287,173.54419,618.0071C172.49951,619.45105,171.47852,620.85345,171.31244,621.1446C171.13733,621.40314,170.46075,622.3954,169.79895,623.3137C165.90811,628.73035,159.70366,639.5538,157.20012,645.29346C154.38518,651.8204,148.5948,664.6722,147.28047,667.3133C146.96602,667.961,146.4706,668.9742,146.20357,669.53864C145.19783,671.639,143.10634,675.93207,141.13046,679.87726C140.02097,682.1115,138.99754,684.1466,138.85497,684.3961C137.48741,687.22754,135.32115,690.7334,135.03008,690.56726C134.86363,690.4723,133.73009,687.0958,132.534,683.10474C129.97186,674.5017,128.93079,671.59155,128.33362,671.3335C128.0188,671.209,126.37958,671.7623,123.93873,672.8507C121.77412,673.7936,118.81947,675.0574,117.3378,675.67316C115.85605,676.28864,112.966835,677.53485,110.90922,678.4836C108.85148,679.43207,106.66301,680.41644,106.06914,680.684C105.475204,680.9516,103.4323,681.826,101.520134,682.6645C99.63152,683.46173,97.14912,684.5264,96.02668,685.0439C94.904366,685.5612,92.51997,686.59906,90.68782,687.34564C85.46169,689.54645,82.7358,690.74786,82.19247,691.07184C81.6907,691.4197,81.51931,692.97595,81.97982,693.3767C82.12252,693.5134,83.818565,698.94775,85.80019,705.42737C87.74031,711.8833,90.44502,720.6228,91.760086,724.7921C93.10792,728.9524,95.30976,736.10913,96.675545,740.72095L99.18995,749.02094L98.46589,750.0965C97.63203,751.4128,90.218155,761.02216,88.23251,763.39056C87.472626,764.3354,85.93515,766.16,84.854706,767.47345C83.783295,768.8192,82.388275,770.3943,81.79465,771.048C81.19199,771.66907,79.35465,773.681,77.733986,775.458C73.65856,779.94214,72.302055,781.40125,69.41369,784.1918C68.71313,784.8397,67.74841,785.8053,67.25867,786.32544C64.72064,788.9851,58.195683,794.91113,53.837658,798.4896C52.893627,799.2742,51.74763,800.2193,51.263683,800.6324C49.625015,801.95807,45.47164,805.1296,43.990013,806.13116C43.188503,806.6663,42.25033,807.34406,41.935635,807.6055C39.334988,809.65045,27.455608,816.7942,25.8549,817.2317C25.43034,817.3478,24.84538,817.6481,24.57231,817.93335C24.040937,818.4297,18.702074,820.73157,13.104546,822.8583C8.175227,824.7322,-6.2781343,828.3668,-10.385554,828.7523C-23.444324,830.0397,-34.82622,829.11346,-46.84514,825.72833C-52.391163,824.19,-60.028862,821.2925,-64.654594,819.011C-69.45556,816.6022,-82.721375,808.78345,-85.83533,806.5099C-87.73114,805.09717,-89.516785,803.82996,-89.76642,803.6874C-90.02484,803.51245,-91.59674,802.25684,-93.31122,800.865C-96.7077,798.0719,-97.55438,797.6714,-97.969666,798.5924C-98.251465,799.2312,-98.402954,799.062,-93.15839,803.35095C-91.435,804.7754,-88.28839,807.0399,-82.940125,810.80896C-74.905815,816.4418,-61.43267,823.22095,-52.52068,826.1563C-45.495163,828.4838,-35.927296,830.6081,-31.584888,830.82526C-31.082935,830.86383,-29.790821,830.967,-28.703787,831.091C-23.27715,831.6791,-16.413322,831.48816,-8.860958,830.47705C-6.6156583,830.2146,-5.94415,830.8734,-7.4493985,831.9166C-9.812556,833.54584,-11.01977,836.5788,-10.364924,839.1031C-9.873836,840.8997,-10.381404,841.35443,-12.965387,841.534C-16.238335,841.76166,-22.080494,841.70844,-26.0725,841.3603C-30.162464,841.0389,-41.01628,839.0905,-43.523483,838.2663C-44.450367,837.9578,-45.25243,837.72076,-45.317738,837.7387C-45.546314,837.8011,-49.08147,836.5556,-52.304737,835.2952C-63.516342,830.8818,-75.617546,823.7278,-86.08588,815.35486C-90.04974,812.1554,-90.99469,811.3956,-91.45825,810.85535C-92.789734,809.3235,-97.30328,805.7827,-97.72797,805.8988C-98.609924,806.1399,-98.134094,807.2384,-96.339294,808.92456C-93.638,811.4861,-88.063416,816.2114,-84.789,818.68665C-83.19342,819.90063,-80.84601,821.6814,-79.51788,822.6875C-75.224236,825.9374,-67.08343,830.8037,-60.954453,833.8327C-57.225998,835.65717,-45.37871,840.2128,-44.758045,840.04315C-44.62737,840.0074,-43.801563,840.20294,-42.883713,840.47845C-42.00737,840.7305,-39.19133,841.4002,-36.63384,841.89484C-32.442554,842.71515,-30.719776,842.9815,-26.742544,843.4041C-25.013845,843.5634,-17.918144,843.83575,-16.638115,843.76654C-8.892391,843.33466,-9.59637,843.07074,-9.095637,846.4445C-8.904781,847.65607,-8.615658,849.6132,-8.424801,850.825C-7.8734703,854.2552,-7.817074,854.2045,-11.182123,854.352C-15.33416,854.57416,-17.00933,854.61066,-18.622122,854.4897C-26.603079,853.9329,-29.181204,853.61957,-34.471607,852.50275C-37.038074,851.9755,-37.566757,851.8393,-42.055286,850.5734C-45.022877,849.7348,-52.969654,846.6055,-56.34166,844.9295C-60.676193,842.81415,-66.63311,839.38696,-69.57763,837.34827C-71.30389,836.17004,-72.804375,835.176,-72.92913,835.10474C-73.53521,834.81396,-80.88049,829.1334,-82.49701,827.7146C-83.4776,826.8241,-84.42255,826.0642,-84.5473,825.99304C-84.86224,825.8684,-91.38214,819.6112,-93.19794,817.7202C-97.64369,813.14294,-97.9706,812.8462,-98.383316,813.1344C-99.401566,813.9042,-97.796585,815.923,-90.98248,822.4861C-86.41803,826.8556,-78.24633,833.8899,-75.702934,835.61707C-75.26916,835.9197,-74.00933,836.8041,-72.92486,837.56104C-71.840385,838.3176,-70.788506,839.0835,-70.53893,839.2258C-70.32195,839.3772,-68.797844,840.3297,-67.1726,841.39514C-62.189987,844.5971,-52.11272,849.3554,-45.57433,851.5706C-40.259815,853.418,-33.968372,854.85785,-28.390127,855.61505C-26.462332,855.8604,-24.344534,856.15924,-23.685173,856.25995C-23.058403,856.36945,-22.253471,856.36017,-21.926811,856.27094C-21.600151,856.1816,-21.139763,856.1961,-20.899101,856.30597C-20.691154,856.4246,-19.259514,856.5247,-17.71508,856.52386C-16.170586,856.5229,-14.198419,856.5457,-13.319329,856.5511C-12.431208,856.58905,-11.020441,856.48444,-10.168147,856.3918C-7.973446,856.07294,-7.2216763,856.63983,-7.113705,858.5761C-7.062741,859.40485,-6.7913785,861.2967,-6.5291715,862.7697C-6.234372,864.2337,-5.9869967,865.78107,-5.9540377,866.15826C-5.882016,867.5778,-6.446225,867.6971,-13.627984,867.6237C-19.084099,867.5705,-25.232473,867.03925,-26.296072,866.48737L-27.184317,866.0633L-26.567434,864.59576C-25.692434,862.53094,-25.796926,861.5063,-27.056936,860.2359C-28.712149,858.5468,-29.98943,858.3692,-33.986744,859.2863C-36.88811,859.97394,-37.75225,860.28046,-39.224785,861.315C-40.163013,861.9926,-41.258595,862.6081,-41.585194,862.6973C-42.76122,863.01874,-52.763966,858.6612,-59.136887,854.99664C-63.578545,852.4894,-71.0006,847.42664,-73.95428,844.969C-74.95867,844.12,-76.97631,842.38965,-78.47393,841.1489C-81.53753,838.5459,-81.75445,838.39453,-83.82873,836.3286C-88.38739,831.8522,-92.49457,827.3578,-95.31513,823.8458C-96.55757,822.25464,-97.74635,820.8594,-97.912674,820.7643C-98.30495,820.4855,-99.50441,821.2346,-99.38838,821.65906C-99.26338,822.11646,-97.45039,824.254,-92.32075,830.0487C-86.5849,836.52026,-84.47796,838.57715,-78.618095,843.57556C-77.38793,844.6085,-76.34783,845.58813,-76.32104,845.68604C-76.115654,846.4375,-63.81481,854.83594,-59.224663,857.3728C-54.851307,859.75836,-47.4063,863.23517,-45.107105,863.94086C-43.345448,864.4775,-42.99773,864.97906,-43.35619,866.6219C-43.450916,867.17426,-43.37859,868.98004,-43.137135,870.6342C-42.928394,872.2973,-42.817432,873.98724,-42.891468,874.3587C-43.02483,875.0269,-43.164356,875.02997,-44.715137,874.3654C-54.280994,870.4504,-65.26824,863.51855,-73.46978,856.2462C-79.484245,850.93896,-81.10381,849.3805,-84.61359,845.5305C-88.97345,840.7539,-97.44716,830.0458,-97.75972,828.90234C-97.87581,828.47766,-99.2867,828.1963,-99.616165,828.5321C-99.945694,828.8678,-99.62117,830.1836,-99.13692,830.5425C-98.9615,830.67017,-98.22749,831.55786,-97.50813,832.5198C-95.21344,835.6488,-93.84326,837.4509,-91.03168,840.9304C-89.11456,843.3202,-81.42023,851.81934,-80.7279,852.2971C-80.41894,852.52856,-79.655205,853.2676,-78.97466,853.9592C-75.753105,857.397,-66.52398,864.7041,-61.143303,868.0781C-56.63604,870.95374,-51.75768,873.51715,-46.698414,875.715C-44.185047,876.81854,-42.019337,877.80634,-41.90044,877.98456C-41.790455,878.13007,-41.299,880.6989,-40.765675,883.6777C-40.273914,886.6325,-39.374077,891.72284,-38.810966,894.939C-38.21514,898.14636,-37.48217,902.3696,-37.16033,904.31775C-35.461723,914.3855,-35.482597,914.18054,-34.941948,914.489C-34.51702,914.75916,-30.709888,913.7889,-16.295343,909.884C4.3169537,904.25006,2.722411,904.96674,1.8474113,901.76544C1.570617,900.75275,1.2697138,899.00946,1.1384271,897.8868C1.0071406,896.76434,0.5330198,893.48846,0.035400372,890.6403C-0.46221903,887.7923,-0.8528438,884.95013,-0.86505085,884.3918C-0.8508907,883.15924,-0.94885206,883.186,4.990903,882.4401C11.42962,881.59296,15.290213,880.81854,21.627365,879.0864C29.247538,877.0387,38.96377,873.5404,45.609093,870.49524C52.72664,867.251,57.02614,865.1278,59.704235,863.62354C61.708508,862.4791,63.908638,861.28076,65.91577,860.2757C67.89929,859.3123,68.57653,859.47833,69.049736,861.20966C69.228264,861.8631,69.69518,862.9289,70.055046,863.60297C70.72399,864.89453,72.93932,869.66016,74.37585,872.9889C74.842705,874.05493,75.76452,876.0148,76.409775,877.348C79.05913,882.8025,79.78197,884.6763,79.5208,885.1339C78.92735,886.1737,72.642204,885.3989,69.472404,883.94836C66.658936,882.646,63.24475,879.7876,62.86084,878.38306C62.66443,877.6644,59.692936,875.1415,57.428905,873.79443C55.239273,872.46204,52.44698,871.75085,50.97701,872.1527C49.800983,872.4741,49.795185,872.58105,51.164875,873.6107C52.81105,874.881,55.179764,877.63916,56.104446,879.3524C58.6822,884.15955,62.961365,888.2556,66.989685,889.89307C71.43096,891.6279,75.9071,891.9492,81.214035,890.8147C84.36191,890.12976,84.61429,890.0255,85.08914,889.1937C85.42136,888.61145,85.48343,888.0679,85.26346,887.777C85.05246,887.51855,84.34775,886.0962,83.69943,884.6234C83.05118,883.15063,82.11154,881.1258,81.65354,880.0922C81.16282,879.0678,80.12803,876.82306,79.34294,875.1068C78.55797,873.3906,77.377426,870.8696,76.755844,869.4949C76.10173,868.1289,75.117424,865.94055,74.522575,864.6636C73.96056,863.378,73.003044,861.28766,72.40832,860.0107C71.441765,857.88776,71.40301,857.6174,71.80657,856.91034C72.04406,856.49445,72.46252,856.09906,72.756584,856.01874C73.05053,855.9384,73.9027,855.4598,74.680534,854.96625C75.425896,854.48175,78.13054,852.6893,80.666,851.0484C83.19272,849.3746,85.4996,847.7963,85.74887,847.55255C86.022064,847.2673,86.378265,847.0295,86.57425,846.9759C86.77023,846.9223,88.09744,845.998,89.528404,844.93976C90.99209,843.87274,93.38497,842.09515,94.88131,841.0192C96.33601,839.9195,97.82338,838.811,98.13814,838.54926C98.452774,838.28754,99.43837,837.5268,100.31122,836.8668C101.18402,836.20703,102.68622,835.0242,103.63031,834.2395C104.5744,833.45483,105.681694,832.6256,106.103325,832.3699C106.913994,831.86755,107.115776,831.70703,109.86779,829.4453C115.653854,824.66907,126.11525,815.42017,130.23555,811.48553C131.3785,810.40094,133.22188,808.6683,134.28459,807.6756C135.37999,806.6739,137.45506,804.6325,138.93321,803.10504C140.41142,801.57745,141.71452,800.30865,141.78001,800.2907C141.87804,800.264,143.79845,798.2996,146.09598,795.9163C151.54292,790.2849,151.18977,790.66235,152.50471,789.17957C153.15466,788.4752,153.73358,787.8956,153.79889,787.8778C153.8642,787.86,154.44305,787.2804,155.08417,786.5437C155.73431,785.83936,156.49713,785.03394,156.794,784.70715C157.09076,784.38025,157.99011,783.43225,158.77673,782.5853C159.59601,781.7295,160.43011,780.79944,160.67938,780.55554C160.95258,780.2705,162.77202,778.19324,164.75182,775.932C166.72269,773.6379,168.50357,771.6766,168.64017,771.534C169.05875,771.13873,170.50124,769.4805,170.64369,769.231C170.71486,769.10626,171.61128,768.0186,172.62941,766.86285C173.67116,765.66534,175.20863,763.84064,176.08131,762.79474C176.95393,761.74884,178.435,759.9749,179.3551,758.84576C180.31671,757.7403,183.17786,754.0795,185.74213,750.74554C190.09622,745.0969,192.4825,742.2682,193.97566,741.0525C194.32307,740.7821,194.95833,740.152,195.39174,739.6826C196.46626,738.4761,197.35976,737.63513,202.49835,732.9306C210.2938,725.7443,221.0824,717.5648,228.36575,713.2571C229.4614,712.6415,230.928,711.7141,231.68214,711.2622C233.29439,710.22473,237.27301,708.084,240.866,706.32965C242.32077,705.61615,244.2062,704.67926,245.04361,704.27496C245.90474,703.8289,247.79323,703.0319,249.28383,702.4489C250.77455,701.866,252.88281,700.9738,254.01416,700.4891C255.13654,699.9716,260.74307,698.26355,266.49225,696.69214C277.07605,693.79926,282.36816,692.7391,291.48276,691.7924C301.236,690.74146,311.60144,690.6466,321.95563,691.5377C323.35468,691.64685,324.86945,691.79443,325.3625,691.8002C329.22076,692.04456,341.43185,694.0783,348.54904,695.7138C359.7774,698.2618,365.12744,699.8537,380.26883,705.15857C383.48904,706.2794,388.6848,708.3349,390.50305,709.2071C390.8269,709.3643,392.33606,710.00507,393.87793,710.6368C395.3869,711.27747,398.01605,712.4193,399.6769,713.2294C404.64114,715.59375,407.09818,716.7479,408.2034,717.3235C408.77673,717.62317,410.81177,718.6466,412.68042,719.57513C428.47684,727.4044,455.90906,744.7967,469.91922,755.8525C470.7631,756.49945,471.5563,757.09015,471.71378,757.1524C471.99612,757.28595,476.62537,760.8653,478.5658,762.44135C479.2611,763.0588,480.27136,763.8007,480.78845,764.1508C481.3054,764.5009,482.85928,765.691,484.22318,766.82794C485.58707,767.96466,487.31058,769.38934,488.0712,769.98883C492.27576,773.2983,503.83212,783.3395,510.86572,789.8074C511.99805,790.86707,513.20435,791.94165,513.53125,792.2384C513.82544,792.54407,514.59814,793.31604,515.19556,793.9602C516.1554,795.032,516.4287,795.1327,517.4088,794.86487C518.4868,794.5702,518.5105,794.52844,517.8567,793.93494C517.48816,793.6145,515.6428,791.87195,513.7468,790.07324C511.85083,788.2743,509.30127,785.8817,508.05322,784.78357C506.80527,783.68555,505.58994,782.57825,505.3878,782.35254C504.92416,781.81226,493.47205,772.0234,488.97916,768.30133C487.02103,766.66,482.98282,763.4456,482.54898,763.14276C482.06476,762.78375,477.30164,759.10065,475.33765,757.5662C472.6455,755.4233,464.36154,749.26215,461.54187,747.2944C457.6792,744.5937,448.24857,738.21936,447.49088,737.7595C447.1166,737.5458,445.97574,736.8396,444.9507,736.17175C432.1631,728.0469,420.62335,721.40625,410.1421,716.19666C402.5425,712.4109,389.667,706.6622,384.51587,704.77026C383.14932,704.2661,381.60745,703.6343,381.0757,703.3584C379.39728,702.4832,367.80286,698.59576,362.2152,697.0335C360.24866,696.5179,358.3802,695.9755,358.07416,695.8837C357.75934,695.7591,357.23944,695.65546,356.94257,695.5961C356.64545,695.53705,354.9522,695.122,353.17596,694.6597C350.0361,693.8328,336.66922,691.16724,334.19803,690.8596C333.5059,690.76794,332.3118,690.63806,331.50385,690.5077C330.7049,690.41003,329.32074,690.2268,328.42365,690.156C327.51788,690.0525,326.31476,689.8898,325.69696,689.813C322.99408,689.42834,313.23108,688.90234,308.77005,688.89294C307.71866,688.8994,305.89493,688.9061,304.7366,688.907C298.05695,688.87195,288.868,689.8039,278.76782,691.5114C271.04926,692.8137,256.50726,697.27997,249.12837,700.59576C247.50124,701.3212,245.79085,701.99945,245.33351,702.12445C244.87613,702.24945,243.62308,702.8027,242.51846,703.3853C241.41391,703.9681,239.4158,705.0058,238.05878,705.6927C235.55574,706.93866,231.99275,708.9304,229.21957,710.6012C225.0925,713.0985,224.34726,713.5829,223.45078,714.2844C222.93417,714.7064,222.26907,715.0989,222.00792,715.1703C221.71385,715.25073,221.08142,715.6343,220.59753,716.04736C220.07202,716.43677,218.8755,717.32556,217.90474,718.0121C213.8285,720.9517,211.6553,722.634,207.90286,725.7309C205.5635,727.7044,197.48311,735.0034,195.51198,736.9114C194.82027,737.5919,193.96846,738.45667,193.58253,738.8429C189.85123,742.531,188.39963,744.1564,186.13226,747.1636C184.68683,749.06824,183.4314,750.6401,183.3335,750.66693C183.23535,750.69366,182.25897,751.87335,181.1488,753.33527C180.03003,754.76447,178.45398,756.7048,177.66145,757.6585C176.86897,758.61237,175.39687,760.4191,174.355,761.61664C168.19022,768.98883,162.01947,776.08203,155.62274,782.9911C152.23592,786.6549,141.35094,797.9505,141.15501,798.00397C141.08946,798.0219,140.11589,798.955,138.99089,800.10516C136.91008,802.2536,134.31267,804.8243,130.03804,808.83636C127.44649,811.3,112.94182,824.25195,110.13348,826.56396C103.99426,831.71765,102.70282,832.7728,100.94818,834.0598C100.22089,834.6096,99.2679,835.36176,98.7751,835.7421C98.32387,836.1464,96.65828,837.37396,95.13827,838.4915C93.618126,839.6091,91.994225,840.8604,91.50143,841.2409C91.04134,841.61237,90.28115,842.1712,89.78536,842.41205C89.33114,842.6766,88.90359,843.03925,88.85019,843.2293C88.79697,843.4195,88.50595,843.63934,88.212006,843.7198C87.75461,843.8448,85.30228,845.53314,84.01083,846.5882C83.78525,846.7902,81.971176,847.98846,80.00273,849.2636C78.03429,850.5389,75.95306,851.9152,75.39489,852.31354C73.1444,853.8415,71.28869,855.0157,70.79882,855.1496C70.439445,855.24774,70.09466,854.8857,69.74969,854.1374C69.43163,853.487,68.7149,851.89264,68.08752,850.6247C65.09009,844.2823,64.86401,843.712,65.20532,843.1624C65.404175,842.86237,66.511475,842.03314,67.63678,841.2691C68.80358,840.5289,69.99413,839.74713,70.30883,839.48566C71.05108,838.8615,73.26879,837.34247,74.58117,836.49225C75.15716,836.15936,75.730156,835.6868,75.881584,835.4699C76.00011,835.2619,76.291,835.04205,76.552414,834.9705C76.78111,834.908,77.52635,834.4235,78.18834,833.8914C78.85038,833.3593,79.97257,832.45575,80.69993,831.90607C81.427284,831.3559,82.44565,830.58624,82.9711,830.19684C83.454926,829.78375,84.38425,829.0733,84.98984,828.59186C89.67458,824.92413,93.20736,821.9226,101.42743,814.6201C109.08355,807.8235,111.54742,805.5349,114.836395,802.2839C115.55179,801.5616,116.709564,800.4028,117.45755,799.6717C120.144005,797.04144,130.05536,786.6793,132.39734,784.0731C140.06425,775.51807,148.81131,765.2634,154.13593,758.5422C155.47162,756.878,156.83087,755.1724,157.19885,754.72076C158.57611,753.0805,165.66954,743.83966,166.26591,742.9393C166.61626,742.4223,167.94876,740.61865,169.20107,738.9072C171.39742,736.025,173.23146,733.48755,176.07454,729.37537C176.75117,728.38293,177.7068,726.99817,178.20827,726.2644C178.68604,725.57214,179.93542,723.72095,180.94434,722.14624C182.88524,719.2286,186.17972,715.0982,189.6467,711.3421C192.18147,708.543,195.85341,704.7659,196.08205,704.7034C196.18001,704.6766,196.5243,704.2664,196.88344,703.78217C197.2426,703.2977,197.9135,702.79846,198.3709,702.67346C199.15483,702.4592,199.16374,702.49194,199.51237,704.5381C199.72685,705.7081,200.27782,708.3662,200.74236,710.4508C201.20683,712.53564,201.88298,716.037,202.27641,718.24646C203.0897,722.7635,203.09862,722.7961,205.54855,722.1265C206.85513,721.76935,207.08969,721.60004,207.04196,720.91095C207.01767,720.1805,206.33255,716.64624,203.93486,704.6633C203.32738,701.6697,202.8892,698.9109,202.9395,698.58105C203.12029,697.8296,208.68045,692.8694,213.22285,689.4512C214.03925,688.84174,215.11388,688.0213,215.57408,687.64996C216.52708,686.898,216.99608,686.55914,221.45555,683.4797C223.0737,682.3354,224.8312,681.1879,225.3182,680.91437C225.83774,680.6319,227.39352,679.64484,228.86917,678.7502C230.31209,677.8642,231.67497,677.0703,231.93633,676.9989C232.19756,676.9275,233.05864,676.48145,233.8366,675.98804C236.87688,674.13904,244.00607,670.6809,248.06233,669.08057C249.8054,668.3936,252.24034,667.4122,253.43692,666.90924C256.89633,665.43726,271.78616,661.4728,277.5564,660.49255C283.52283,659.4585,289.55145,658.65314,292.72638,658.45233C293.97382,658.39215,295.52423,658.2844,296.17157,658.2127C303.05887,657.59424,313.775,657.7546,323.0036,658.63745C325.45697,658.8796,328.08258,659.10986,328.83112,659.1511C329.5559,659.23364,330.46167,659.33716,330.833,659.41113C331.17163,659.49414,332.95984,659.7427,334.74805,659.9912C337.84595,660.4081,352.16934,663.23364,356.27457,664.2531C361.1222,665.4207,369.639,667.93744,375.12576,669.7729C376.90506,670.3748,379.17166,671.0893,380.14017,671.42145C383.97806,672.6192,398.13068,678.1594,399.2299,678.84204C399.48843,679.0171,400.45108,679.456,401.42838,679.82086C404.90128,681.2237,412.9254,684.8931,417.28674,687.1066C431.39255,694.2743,448.59488,704.0363,456.95563,709.5796C458.71466,710.7489,460.24774,711.73413,460.37262,711.80554C461.8283,712.6362,472.5841,719.87726,476.2981,722.5483C477.3827,723.3051,478.47607,724.09454,478.7672,724.2607C479.05847,724.4268,480.2439,725.29645,481.36407,726.18365C482.517,727.0622,484.08585,728.17816,484.81082,728.64703C486.3351,729.59955,497.54004,738.2275,500.49362,740.6851C501.5394,741.5578,503.34616,743.02966,504.48416,743.9825C505.65494,744.92645,508.09753,746.9268,509.88928,748.4732C511.68115,750.0197,514.09106,752.02905,515.229,752.9818C516.3345,753.9435,517.85876,755.2822,518.58105,755.99756C520.5036,757.8944,522.297,757.2636,520.51416,755.36383C516.35645,750.81305,488.455,728.49347,479.7019,722.6712C479.18494,722.32086,477.49133,721.13385,475.964,720.0417C474.39526,718.9257,472.26785,717.436,471.2101,716.7773C470.1436,716.08575,468.2924,714.83655,467.11575,713.9995C465.90652,713.1715,463.88907,711.8273,462.61456,711.0171C461.3399,710.20703,459.12335,708.77673,457.70612,707.82996C452.28677,704.1857,434.89716,694.1238,427.0778,690.04736C419.22552,685.97986,413.4115,683.0754,410.17627,681.6425C408.42642,680.89215,406.8074,680.1059,406.55777,679.96356C406.34097,679.8122,405.0308,679.25757,403.6879,678.7117C402.35416,678.1986,400.99344,677.58765,400.66068,677.3976C400.33682,677.24036,398.93472,676.6056,397.55927,676.06885C396.17474,675.49927,393.531,674.4317,391.6742,673.67523C389.82642,672.9516,387.62207,672.0795,386.76953,671.7861C384.68408,671.0922,381.33926,669.9001,379.18533,669.0844C377.54556,668.47955,369.35263,665.7339,367.7484,665.2596C363.46497,663.9729,356.59122,662.2005,353.61185,661.57544C352.91092,661.4511,351.9097,661.128,351.4047,660.95013C350.5253,660.55853,350.647,660.49,356.4706,658.93353C361.69714,657.505,362.78088,657.10345,364.98706,655.79834C371.30524,652.07025,374.82498,647.3517,375.2676,642.03503C375.486,639.6232,376.19998,636.19836,376.55618,635.96063C377.3726,635.35126,387.1876,638.6364,401.0757,644.1086C407.18375,646.54663,408.84128,647.2169,410.02072,647.8074C410.27036,647.94965,411.0991,648.2849,411.8359,648.5399C412.58148,648.8276,413.64203,649.2399,414.20648,649.5068C414.77094,649.77374,416.8625,650.7468,418.82916,651.6487C426.3721,655.0987,428.9866,656.31506,432.70895,658.2463C434.8272,659.3174,437.7685,660.83044,439.2303,661.55426C442.86078,663.40576,468.39066,677.9479,471.25778,679.83215C472.54135,680.6749,475.2569,682.39014,477.25653,683.6693C481.1546,686.1145,489.28384,691.58075,495.03314,695.6614C496.93475,696.9673,498.80365,698.28186,499.19586,698.5608C500.19717,699.27014,506.7372,704.1879,510.46313,707.0312C512.1509,708.32526,513.5801,709.4443,513.6632,709.49164C513.9219,709.6667,514.5864,708.50214,514.47046,708.07733C514.40796,707.8488,511.52258,705.51276,508.073,702.91C497.5157,694.9828,498.3924,695.62085,488.62003,689.02405C487.50296,688.276,485.38443,686.81885,483.86612,685.7594C482.3478,684.69995,479.1479,682.62573,476.7829,681.1658C474.409,679.6731,471.32803,677.7771,469.9612,676.8867C466.68704,674.79736,459.08112,670.3467,452.6609,666.76526C445.28384,662.6381,444.1282,662.00616,439.64203,659.72156C437.39886,658.5792,435.11432,657.41345,434.53192,657.0812C431.9205,655.6183,417.7525,648.994,412.62787,646.81384C400.0258,641.55194,394.14386,639.2979,383.00394,635.53217C379.9175,634.51514,377.2587,633.5217,377.11624,633.38525C376.69705,633.0081,376.71744,632.0547,377.21194,629.49725C377.4163,628.31793,377.59097,627.2872,377.56424,627.1893C377.5463,627.12396,377.79776,625.4753,378.15018,623.5536C378.49356,621.599,378.74515,619.95056,378.72733,619.88525C378.70938,619.8198,378.95206,618.13873,379.29544,616.1841C379.63004,614.1969,380.0413,611.5919,380.19522,610.35626C380.52945,607.98303,381.17166,603.9108,381.444,602.467C381.52408,601.9887,381.77615,601.49866,381.97806,601.3383C382.14725,601.1866,383.84048,601.60144,385.72678,602.2091C387.5804,602.8258,389.3747,603.3536,389.6806,603.4455C393.3194,604.1712,426.1309,616.5826,428.6295,618.1465C428.87912,618.28894,430.32285,618.9475,431.84103,619.6208C433.3917,620.28516,435.002,621.0388,435.4505,621.26715C435.8991,621.4956,437.17657,622.05927,438.25507,622.5368C439.36615,623.0056,440.5871,623.6197,441.003,623.85693C441.68646,624.30225,442.04315,624.8367,441.7165,624.92596C441.6513,624.9438,440.23773,625.681,438.57208,626.5226C432.48825,629.69507,428.16635,634.56244,427.20078,639.2497C426.87503,640.88354,426.9467,641.5309,427.72354,644.3729C428.5685,647.3366,428.75894,647.7761,430.08737,649.1682C431.55832,650.697,433.8995,652.1985,436.91205,653.587C439.19366,654.6133,444.6354,655.51324,448.3063,655.4577C451.1071,655.42944,452.14645,655.25055,457.65814,653.70917C463.33295,652.12274,464.06644,651.8521,466.24576,650.4491C469.2266,648.5109,471.7944,646.08875,473.4266,643.7118C474.1032,642.71936,474.8155,641.85754,474.97882,641.8129C475.4035,641.6969,480.2968,644.57227,494.78375,653.3913C495.03326,653.5337,497.90057,655.41797,501.15982,657.58136C504.4103,659.7121,507.20035,661.44214,507.33096,661.40643C507.4617,661.3707,507.69315,661.06177,507.85037,660.73785C508.06982,660.25665,508.01624,660.0606,507.5231,659.6688C506.85452,659.1494,501.8688,655.8078,501.53604,655.6181C501.41116,655.54675,499.78616,654.4815,497.9112,653.2735C493.502,650.3714,491.2618,648.9826,482.93985,644.09546C476.7066,640.428,476.00555,639.91754,475.7702,638.9285C475.45453,637.64575,475.56708,636.7724,477.21002,626.98505C477.4439,625.6574,477.59174,624.5285,477.56488,624.4306C477.53802,624.33246,477.71576,623.0554,477.9881,621.6117C478.68988,617.6284,479.27594,613.9926,479.23138,613.8295C479.1955,613.69867,479.47662,611.9017,480.53052,605.6104C480.76428,604.28253,481.12024,603.2725,481.41418,603.1922C481.70813,603.1119,486.1705,605.4378,491.3609,608.37244C496.55133,611.30695,500.88297,613.66876,500.981,613.64197C501.1116,613.60626,501.31937,613.33905,501.44388,613.024C501.6633,612.54266,501.10184,612.0291,498.33575,610.2577C496.4698,609.08246,493.78094,607.46515,492.35187,606.7325C485.66122,603.1899,481.8941,601.09503,481.57343,600.6914C481.40375,600.45685,481.4655,599.1412,481.7558,597.7629C482.01337,596.3934,482.20865,595.1816,482.19083,595.11615C482.16397,595.0181,482.40665,593.337,482.75015,591.38245C483.0934,589.4279,483.35403,587.81213,483.3362,587.7467C483.31827,587.6814,483.51956,586.3625,483.78,584.74664C484.61472,579.7089,484.7805,578.64557,485.171,575.8356C485.3929,574.33563,485.73032,572.10187,485.8928,570.89905C486.0881,569.687,486.2894,568.3683,486.35458,567.96423C486.41977,567.5603,486.64157,566.0602,486.85764,564.6672C487.0975,563.23254,487.39352,561.36115,487.5295,560.4463C487.66562,559.5313,487.95566,557.76715,488.17477,556.5134C488.38486,555.2273,488.5416,554.13135,488.52377,554.0659C488.49692,553.9679,488.6893,552.6164,488.95883,551.0332C489.22824,549.45013,489.5538,547.4303,489.6899,546.5153C489.82602,545.6006,490.27902,543.01917,490.69064,540.8003C491.09323,538.5488,491.54617,535.96747,491.69705,534.97845C491.82425,534.03076,492.07886,532.5219,492.24756,531.5981C492.66785,529.0258,492.41833,528.8833,487.0809,528.6221C484.51486,528.48083,480.6328,528.27814,478.46173,528.1695C476.31415,528.01917,469.4055,527.6607,463.12964,527.30475C456.85358,526.949,451.39145,526.61633,450.98764,526.5513C450.5836,526.486,448.2639,526.3479,445.81345,526.24524C443.36316,526.14264,437.36633,525.7807,432.43893,525.4776C427.5439,525.1654,419.26,524.65625,414.05353,524.35913C408.84677,524.0621,401.31128,523.594,397.27197,523.3291C392.9118,523.0462,389.67426,523.01825,389.27643,523.23236C388.84604,523.4555,388.60275,523.9784,388.60593,524.50397C388.6003,524.9972,388.44064,526.3396,388.2275,527.48615C388.02316,528.66534,387.7391,530.7091,387.56467,532.1259C387.2546,535.22986,386.728,538.9546,386.14474,542.3437C385.8961,543.7457,385.44333,546.7133,385.13864,548.938C384.82504,551.1301,384.49045,553.1172,384.446,553.3401C384.36008,553.53906,384.1086,555.1876,383.8364,557.01733C383.58786,558.8054,383.2175,560.662,382.9565,561.1195C382.53806,561.90094,382.53806,561.90094,380.6074,561.5157C379.5261,561.2848,377.5359,560.81067,376.1814,560.47876C364.95587,557.68414,353.0862,555.48706,339.7645,553.7571C335.1427,553.15955,328.99426,552.6285,323.9362,552.361C321.19766,552.2319,318.48288,552.06116,317.8741,552.01685C317.29782,551.9638,316.1721,551.95557,315.40878,551.9884C312.69125,552.06433,312.59616,551.8445,313.11276,546.1567C313.27487,544.18146,313.46384,541.91815,313.49606,541.13696C313.56088,540.34686,313.70224,538.1667,313.85873,536.2984C313.98227,534.4391,314.19162,531.6085,314.2888,530.03705C314.38593,528.46594,314.56012,526.663,314.6458,526.0778C314.72284,525.46,314.75787,524.4324,314.71002,523.7432L314.61725,522.5049L312.46967,522.3547C311.31723,522.2484,310.1827,522.2074,310.0195,522.2521C309.82333,522.30566,309.58334,523.3544,309.49496,524.5719 Z M264.6779,559.0442C272.4644,557.0913,276.1797,556.4271,284.7418,555.3856C292.9267,554.3772,306.14612,553.67773,306.8058,554.16455C306.99,554.32477,307.18042,554.76416,307.18054,555.1504C307.25513,555.93744,306.85168,561.91046,306.66223,563.01556C306.59705,563.41943,306.4762,565.0324,306.37915,566.6036C306.28186,568.1748,306.07263,571.0053,305.94897,572.8647C305.79263,574.73303,305.66602,576.8388,305.63977,577.5132C305.646,578.17834,305.56323,578.9031,305.5188,579.1259C305.43274,579.32495,305.297,581.012,305.20618,582.8625C305.07336,584.68915,304.82495,586.47723,304.635,586.81C304.35913,587.3418,303.72058,587.44604,299.82983,587.59674C289.8239,587.9796,285.38095,588.4216,274.41934,590.18915C270.1221,590.9073,251.34813,596.07385,247.8145,597.5311C246.27641,598.19727,243.83246,599.1461,242.43982,599.70233C235.60417,602.30804,224.51129,608.2187,218.12498,612.5973C217.1779,613.24225,216.66417,613.41785,216.00487,613.31714C213.62256,612.95013,210.16272,613.26404,206.73268,614.20154C200.49358,615.9069,196.03398,618.6002,191.79828,623.2686C190.00842,625.19714,187.57234,629.51404,187.78658,630.2981C187.96516,630.9514,187.19955,632.00336,186.3829,632.2266C185.3049,632.52124,185.15396,633.5103,185.85037,636.0583C186.66287,639.0308,186.4111,640.29333,184.67764,642.1714C182.95903,643.9752,177.02293,651.2848,176.67577,651.9416C176.57494,652.2147,175.34618,653.88464,173.98102,655.6972C169.51735,661.5864,166.47867,666.52454,162.85037,673.8003C158.55457,682.48737,143.6269,709.1759,142.4039,710.3528C142.09811,710.64685,141.82797,710.68567,141.60202,710.5017C141.4089,710.30884,140.55222,707.94507,139.7131,705.2605C138.83249,702.55225,137.64536,698.97986,137.07419,697.2755L135.97948,694.16943L137.93773,690.5448C139.0355,688.52454,140.82455,685.05133,141.93405,682.8173C143.07637,680.5743,144.06123,678.65497,144.13252,678.5301C144.20369,678.40533,145.38448,676.04645,146.69576,673.2657C148.00703,670.48505,149.1877,668.12616,149.25899,668.0014C149.36287,667.8675,149.84041,666.7891,150.38924,665.586C150.93806,664.3828,151.54915,663.0222,151.74495,662.58246C151.94063,662.14276,152.70001,660.4257,153.44464,658.7828C154.1892,657.1398,155.02867,655.3307,155.2957,654.766C155.53001,654.2105,156.91533,651.05853,158.30644,647.7995C162.14468,638.8516,169.40277,626.6166,176.71251,616.75476C178.86717,613.84875,180.32457,612.11646,185.57529,606.15247C190.68048,600.2984,190.737,600.2481,191.64838,599.47235C192.04321,599.1186,192.79126,598.3876,193.3374,597.817C194.39716,596.6849,200.92204,590.7588,202.73894,589.3144C205.298,587.2458,206.25089,586.4939,207.7948,585.3346C208.6676,584.6746,209.65332,583.9139,209.9679,583.6524C211.55908,582.40985,218.36119,577.8827,221.26494,576.1762C222.26248,575.58765,223.77083,574.6837,224.61395,574.1724C225.45721,573.6612,226.44897,573.17944,226.80823,573.0812C227.16772,572.983,228.15936,572.5012,228.93726,572.0079C233.41154,569.2402,250.53624,562.2775,255.12436,561.3394C255.86105,561.2084,260.17587,560.1694,264.6779,559.0442 Z M316.3575,554.04645C317.91977,554.11084,320.19794,554.22546,321.47208,554.26324C324.16898,554.3687,329.3192,554.71625,331.13123,554.9233C339.9498,555.84784,345.37054,556.54285,348.5043,557.0906C350.59854,557.431,352.36282,557.72107,352.42813,557.70325C352.55875,557.6675,359.16492,558.8458,366.26715,560.16943C368.41168,560.5662,371.5069,561.23004,373.1585,561.6209C374.81006,562.012,377.4359,562.62836,378.9806,563.0137C382.39963,563.8345,382.7086,564.0659,382.4482,565.6818C382.32382,566.3828,382.01303,568.3284,381.7794,570.0423C381.51303,571.7651,381.11642,574.29584,380.87668,575.7305C380.6279,577.13257,380.17514,580.1,379.87064,582.3248C379.55692,584.5169,379.22244,586.5039,379.14542,586.73566C379.09207,586.9259,378.91727,587.9566,378.77542,588.97833C378.63333,590.00024,378.35526,591.9368,378.12137,593.26447C377.9202,594.5835,377.7664,595.819,377.81985,596.015C377.86453,596.17834,377.66873,596.6181,377.34818,596.9866C376.85257,597.61346,376.53177,597.59595,373.00287,596.6297C370.92047,596.0753,369.1114,595.6218,368.98077,595.65753C368.81744,595.70215,368.28864,595.5659,367.77472,595.3552C366.14972,594.67596,353.06802,591.89746,346.74405,590.8526C340.28073,589.81067,339.76974,589.7397,335.5935,589.2312C328.36084,588.32935,322.72342,587.86914,316.0139,587.59674C313.49814,587.5119,311.119,587.2846,310.79526,587.1273C310.296,586.84247,310.21567,586.5484,310.32455,584.7635C310.36557,583.6287,310.46567,582.19727,310.55148,581.61206C310.62827,580.99426,310.76413,579.3072,310.85532,577.84283C310.94662,576.3785,311.15585,573.5479,311.31808,571.5726C311.48044,569.59753,311.62167,567.4174,311.61545,566.75214C311.6417,566.0779,311.68295,565.32947,311.73642,565.1393C311.91428,564.6343,312.34128,558.23346,312.32858,556.90283C312.31882,555.3257,312.639,554.185,313.129,554.0511C313.35764,553.9886,314.82785,553.97296,316.3575,554.04645 Z M394.7177,533.89197C395.30878,533.8711,400.51538,534.1681,406.30722,534.55084C412.0903,534.9012,419.58386,535.3454,422.88965,535.495C426.23703,535.66833,429.2816,535.88934,429.6766,535.92194C430.08054,535.987,433.29733,536.19604,436.82587,536.3901C440.35437,536.5841,444.37585,536.7839,445.7422,536.902C447.1323,536.9784,450.08456,537.1193,452.3212,537.2102C454.56644,537.33356,456.73767,537.4422,457.14172,537.50745C457.54565,537.5726,462.47327,537.8756,468.10764,538.1963C481.39014,538.8837,482.29602,538.9873,482.4657,539.6079C482.5907,540.0653,482.35107,541.8861,481.93958,544.10504C481.85657,544.4436,481.60803,546.2318,481.35376,548.12683C481.0995,550.022,480.67322,552.7011,480.46606,554.1268C480.25012,555.5199,479.9541,557.3914,479.80908,558.27356C479.66394,559.1556,479.12817,562.46173,478.65466,565.61035C478.14874,568.76776,477.539,572.4452,477.3377,573.7639C477.1364,575.08264,476.83466,577.061,476.6541,578.1987C476.5063,579.32745,476.10968,581.85815,475.77496,583.8453C475.43158,585.7999,475.18915,587.48096,475.20697,587.5464C475.2248,587.6117,475.0384,588.85626,474.77484,590.3326C474.544,591.79974,474.25702,593.70386,474.10297,594.5533C473.95514,595.68207,473.70282,596.17236,473.2457,596.2973C472.8447,596.3719,470.35837,595.36615,467.43478,593.9186C461.0147,590.7234,456.0594,588.39166,451.9952,586.62366C444.3485,583.30743,442.83923,582.6668,436.482,580.0863C430.41562,577.672,426.8359,576.2632,420.82324,574.045C417.34454,572.749,406.68295,569.0631,404.7817,568.5296C403.78964,568.239,401.51404,567.492,399.71094,566.9314C397.89893,566.33844,394.56598,565.31866,392.2519,564.68726C389.35846,563.8633,387.98312,563.32654,387.7839,562.85425C387.62033,562.51276,387.7175,560.9418,387.9719,559.4328C388.25046,557.8821,388.45163,556.56323,388.4337,556.4979C388.41586,556.4326,388.69113,554.74255,389.01678,552.7226C389.35126,550.7356,389.71527,548.59985,389.8011,548.0145C389.8781,547.3967,390.2094,545.2701,390.5351,543.2501C390.82794,541.23926,391.2453,538.5273,391.41376,537.2175C391.79254,534.6213,392.24054,533.6915,393.1137,533.8038C393.40192,533.8304,394.15033,533.87164,394.7177,533.89197 Z M269.0037,593.4949C278.0791,591.50574,285.8513,590.39954,295.2127,589.84186C304.3275,589.2813,304.57397,589.28424,304.61047,590.57306C304.6377,591.4433,304.41943,594.24133,304.24475,595.272C304.17957,595.67584,304.0736,597.21454,303.9823,598.67896C303.891,600.143,303.69946,602.65295,303.5696,604.23315C303.3278,607.4588,303.0933,607.62823,300.67215,606.60504C298.9224,605.85455,295.27777,605.2358,291.85016,605.1546C289.50677,605.0579,288.49994,605.22766,283.46948,606.60266C278.42993,607.94495,277.4441,608.31976,275.17276,609.6426C270.28275,612.5592,267.0889,616.4162,266.4466,620.10236C266.1978,621.5044,266.2874,622.2172,266.91803,624.01086C267.60223,626.0004,267.6231,626.20526,267.00555,626.5146C266.66412,626.67804,262.84503,627.86224,258.56015,629.139C250.88664,631.37665,249.6721,631.814,241.17679,635.5403C235.82304,637.91644,233.97026,638.8441,227.25998,642.67926C222.78848,645.2004,213.84302,651.26135,210.12918,654.24255C209.41068,654.825,208.57938,655.50867,208.25589,655.7375C205.1713,658.19543,201.00334,661.8273,198.3643,664.3741C197.47978,665.24774,196.63069,665.86597,196.50581,665.7949C196.14046,665.6139,194.77693,659.9833,194.13326,656.087C193.83235,654.3437,192.98932,649.97504,192.19733,646.4352C191.43793,642.88635,190.91058,639.80066,191.05292,639.55115C191.19537,639.30164,191.53094,639.2449,191.96161,639.40796C198.35466,641.73315,206.88675,640.06793,214.86754,634.9728C220.61253,631.3313,224.54135,625.02655,224.15549,620.1468C224.0151,618.6054,222.45157,616.22424,221.01054,615.3192C219.50414,614.43195,219.6403,613.5172,221.47527,612.52405C222.26205,612.0633,223.86836,611.13275,225.01147,610.4341C227.20856,609.09644,227.66284,608.8317,232.47893,606.2868C235.11858,604.89825,237.30705,603.9139,243.38513,601.2343C244.51648,600.74963,247.9641,599.49133,251.03752,598.4055C254.11087,597.3198,256.80136,596.3736,256.9468,596.2638C257.1249,596.1448,258.30984,595.8562,259.569,595.58215C260.86078,595.29926,265.10452,594.3851,269.0037,593.4949 Z M391.83124,566.48737C393.83917,567.0269,395.56805,567.5724,395.70184,567.67633C395.8266,567.74756,396.33148,567.9255,396.8515,568.0291C398.00684,568.27496,403.2352,569.9352,407.53073,571.39417C409.31015,571.9962,411.1639,572.6129,411.62717,572.767C412.47968,573.06055,415.6584,574.1579,418.4566,575.1484C419.19342,575.4033,421.29675,576.16235,423.06128,576.83875C424.85864,577.50574,426.73007,578.188,427.16086,578.3511C434.56964,580.92487,451.54782,588.32587,465.5524,594.9949C473.3569,598.75946,473.57394,598.9108,473.10275,601.0408C472.98434,601.6347,472.61423,603.87726,472.31552,605.99506C471.98398,608.12195,471.5964,610.6854,471.4543,611.7071C471.27084,612.70514,471.03415,614.2794,470.89792,615.19446C470.7618,616.10913,470.51022,617.7578,470.32077,618.86285C469.59555,623.2736,469.46262,624.3281,469.55185,624.6548C469.59653,624.8181,469.36508,625.12726,469.04123,625.3561C468.65244,625.6028,467.7612,625.425,465.97885,624.6834C463.3676,623.60706,459.8504,622.8129,457.0052,622.6779C454.2668,622.54865,449.03354,622.92596,447.23703,623.41693C445.63647,623.85443,445.41357,623.81,441.60492,622.07776C439.43927,621.0896,437.5468,620.20276,437.41315,620.09875C437.27936,619.9951,436.07623,619.44617,434.76617,618.8914C433.4144,618.3132,430.10495,616.8655,427.3926,615.67615C415.0993,610.25964,391.05756,601.4191,384.4187,599.8636C382.20572,599.3452,381.92325,598.8254,382.3821,596.13727C382.59232,594.85126,382.91788,592.8311,383.11313,591.61926C383.30844,590.4072,383.58078,588.57764,383.76437,587.5797C383.93893,586.5487,384.22006,584.7517,384.41537,583.5398C384.6108,582.328,384.86227,580.6794,384.99252,579.87164C385.20273,578.58545,385.32993,577.6379,385.85056,574.0201C385.88315,573.62494,386.0488,572.5615,386.1849,571.64667C386.2883,570.74084,386.48654,569.2823,386.58994,568.3764C386.84128,566.3416,387.07565,565.7862,387.66354,565.6254C387.9576,565.5451,389.82294,565.94794,391.83124,566.48737 Z M313.38632,589.54376C317.6605,589.6393,318.91098,589.7186,322.28494,589.9899C324.26016,590.15234,326.2681,590.30566,326.77005,590.3439C327.272,590.3822,328.5641,590.4856,329.65125,590.6097C330.73828,590.7338,332.21143,590.8576,332.90356,590.94946C334.37683,591.07336,342.12347,592.1857,346.0562,592.83093C349.585,593.4112,362.02795,595.90796,365.93402,596.84155C374.3079,598.83575,376.49124,599.5027,376.75882,600.09656C376.9136,600.40533,376.79276,602.0181,376.53214,603.63416C376.26285,605.21716,375.88687,607.5668,375.6768,608.85297C375.4578,610.1065,375.30093,611.20245,375.32767,611.3005C375.35452,611.3985,375.19766,612.4946,374.97855,613.748C373.95438,619.8908,373.64362,621.8364,373.67035,621.9343C373.68817,621.99963,373.4278,623.6156,373.09918,625.4958C372.77057,627.3761,372.51605,629.27106,372.48373,629.66614C372.46017,630.0939,372.25266,630.7475,371.98264,631.17236C371.44257,632.02203,371.70685,632.09015,366.88525,629.8624C363.70642,628.3793,360.48645,627.6443,355.94498,627.34094C354.12723,627.24097,349.9985,626.6494,346.8054,626.0126C343.58847,625.41736,338.9131,624.6239,336.3911,624.26C333.87842,623.92883,331.35657,623.56476,330.73877,623.4879C328.46344,623.1269,322.95673,622.631,322.53204,622.7471C322.3034,622.8095,321.94098,622.76825,321.70038,622.65845C321.50128,622.5725,319.41916,622.4043,317.07578,622.30756C314.7324,622.2109,311.89584,622.1084,310.7939,622.05865C309.65024,621.985,308.5336,622.0094,308.30496,622.0719C308.0436,622.1433,307.58926,622.02185,307.2892,621.823C306.85513,621.52026,306.87296,621.1995,307.4633,620.0201C308.4304,618.03534,308.6346,616.85614,308.41647,614.3882C308.30896,613.2239,308.34644,611.1776,308.47324,609.8439C308.5914,608.47754,308.75082,606.7491,308.78305,605.9677C308.81528,605.1867,308.95663,603.00653,309.113,601.13824C309.2368,599.2788,309.446,596.44824,309.54318,594.8771C309.64023,593.30585,309.83823,591.46124,309.97153,590.7929C310.23813,589.45624,310.2054,589.4652,313.38632,589.54376 Z M187.92673,647.25146C188.47751,649.5233,189.29636,653.1611,189.68954,655.37067C190.11557,657.57117,190.91983,661.6696,191.5065,664.4581C192.19136,667.6061,192.50154,669.76807,192.32051,670.13367C192.16316,670.4574,191.21945,671.6282,190.18344,672.71875C189.14749,673.80945,187.73453,675.319,187.02805,676.0736C184.89987,678.3053,177.85948,686.9701,176.9871,688.40234C176.67857,688.943,176.31053,689.39465,176.17992,689.4303C175.75523,689.5464,173.79968,692.53845,170.52083,698.1391C167.93033,702.53314,164.50296,708.10394,161.20023,713.35986C161.05777,713.6094,159.54735,715.9181,157.82916,718.49414C156.10199,721.0375,154.04242,724.1632,153.22345,725.40515C150.24104,729.90656,148.7422,732.0013,148.51057,731.924C148.39473,731.88556,147.62123,729.5694,146.82967,726.80176C146.03804,724.03394,144.82423,720.36365,144.17867,718.6444C143.53334,716.92505,142.9056,715.271,142.81624,714.9442C142.71811,714.58496,145.8365,708.7827,150.33174,700.95386C158.45001,686.7287,160.93936,682.2216,164.20572,675.67664C166.58212,670.8845,169.6443,665.5187,171.9026,662.093C172.7928,660.7262,173.96205,658.96735,174.50215,658.1176C175.04216,657.26776,176.01561,655.94855,176.60619,655.15515C177.22948,654.35297,178.1555,653.11676,178.65709,652.3829C179.19127,651.6401,180.11717,650.404,180.78209,649.6255C181.44695,648.84686,182.86272,647.09094,183.93411,645.74475C185.00558,644.39874,186.1307,643.24884,186.40085,643.2099C186.84335,643.15924,187.09622,643.82733,187.92673,647.25146 Z M272.0801,629.4104C276.23926,631.39813,279.875,631.9842,285.74072,631.6097C289.90744,631.3133,297.8957,628.8139,300.62405,626.9798C301.684,626.2337,302.69327,625.4312,302.87747,625.2055C303.38785,624.5043,306.02798,623.8878,307.88736,624.0116C308.7753,624.04974,310.37924,624.1379,311.43954,624.16394C313.72348,624.17175,321.8499,624.6186,322.9698,624.73376C323.37372,624.7989,325.28363,624.97906,327.1607,625.1681C329.03802,625.35724,330.91516,625.5462,331.3191,625.6113C333.44592,625.9429,335.4895,626.2267,335.65283,626.182C335.75073,626.1553,337.18555,626.39514,338.8755,626.6704C340.56577,626.9457,342.55295,627.2802,343.31027,627.35394C344.69443,627.53735,345.39584,628.434,344.38327,628.71075C344.0566,628.80005,342.468,629.4098,340.81393,630.0374C334.91675,632.35144,330.50812,635.87354,328.07208,640.1902C326.0722,643.7911,325.89313,647.63153,327.5524,651.00476C328.5752,653.0773,329.40137,654.045,331.51416,655.60913C333.71875,657.2532,333.19336,657.6427,329.3794,657.1754C327.6004,656.9598,325.75568,656.7617,325.26276,656.7562C324.76068,656.7178,322.753,656.56445,320.77765,656.40216C312.7789,655.78,304.80716,655.6418,297.69403,656.0764C289.0959,656.60114,286.4082,656.9144,275.4497,658.8214C266.5938,660.3293,249.17143,666.0743,241.46933,670.005C240.35587,670.5552,238.90091,671.2688,238.20903,671.56323C237.52611,671.89014,236.13652,672.58594,235.1298,673.14197C234.1234,673.6981,232.07756,674.81885,230.55147,675.65735C229.05795,676.4868,227.57346,677.3489,227.21713,677.5868C226.89359,677.8156,225.61386,678.6569,224.3818,679.415C221.41576,681.27875,219.22154,682.75616,217.25621,684.17096C216.38329,684.8309,215.32347,685.5771,214.91075,685.8653C214.07648,686.40936,212.39613,687.71136,210.70102,689.0874C210.07162,689.61035,208.7803,690.6655,207.83621,691.4502C206.89212,692.23474,205.34238,693.50085,204.40738,694.318C203.02104,695.53955,202.6469,695.71204,202.31993,695.41516C202.11797,695.1898,201.52562,692.89404,201.01616,690.26C200.48308,687.6674,199.36626,682.03973,198.4847,677.787C197.5555,673.23145,196.95052,669.6052,197.04524,669.0526C197.25252,668.01306,197.70964,667.502,201.2689,664.2121C202.59001,663.00836,203.93486,661.7631,204.21683,661.5107C204.52243,661.2163,205.60306,660.2891,206.62735,659.4124C219.455,648.67426,233.93822,640.01117,247.80556,634.74664C249.74464,634.006,252.37547,632.97076,253.67026,632.44147C254.96487,631.912,259.03024,630.7306,262.63242,629.7812L269.22516,628.0846L272.0801,629.4104 Z M129.1565,682.3076C129.82831,683.35266,129.12769,684.0006,125.64465,685.5143C113.29801,690.8199,111.14225,691.79535,108.7194,692.94904C107.45152,693.5765,105.19774,694.57855,103.71611,695.19415C102.23425,695.80994,99.69556,696.9252,98.059395,697.61816C88.96126,701.57935,87.91011,701.9719,87.35451,701.7378C86.78999,701.4707,86.655716,700.2085,87.13655,699.65576C87.273026,699.5132,88.54091,698.88574,89.95735,698.28784C91.37373,697.6902,93.847176,696.5929,95.474434,695.86707C99.29889,694.18994,104.385544,691.9921,109.13944,689.99066C111.22404,689.1401,114.33292,687.79877,116.06705,687.07904C117.79227,686.3266,120.90113,684.9852,122.985725,684.13477C125.02863,683.2604,126.77753,682.4663,126.857666,682.37427C126.89624,682.2584,127.36847,682.0592,127.8584,681.9253C128.479,681.7556,128.89203,681.8535,129.1565,682.3076 Z M132.11646,690.6964C132.32153,691.06177,132.71423,692.11304,132.95532,692.995L133.41063,694.661L129.23584,702.1211C123.17695,712.83466,115.61319,725.3639,111.60685,731.12805C110.80253,732.2958,109.600746,734.0636,108.98051,735.0055C105.220566,740.7726,101.76007,745.58026,101.23749,745.7231C100.94354,745.8034,99.93799,743.02374,97.37037,734.9142C92.16341,718.433,89.5121,709.5032,89.61275,708.84375C89.70747,708.29114,90.625015,707.7949,96.786446,705.16284C98.00678,704.61865,100.09723,703.66113,101.471985,703.03955C104.85417,701.4129,108.01945,700.0212,111.95988,698.3825C113.78299,697.60333,116.67215,696.35724,118.38846,695.5722C120.11367,694.81976,122.993904,693.54114,124.808235,692.72925C126.63141,691.94995,128.6654,691.0431,129.34839,690.71606C130.95764,689.9249,131.6557,689.9098,132.11646,690.6964 Z M192.78261,673.23706C193.28755,673.4149,194.49336,678.59717,196.3195,688.4894C196.71855,690.59204,197.39177,693.95386,197.78789,695.91675L198.5562,699.4983L197.47282,700.6721C196.91179,701.3169,196.13106,702.05695,195.78383,702.32745C195.44539,702.63055,194.96138,703.0435,194.75374,703.3111C194.29659,703.8223,188.87637,709.5516,187.39816,711.07916C186.8757,711.608,186.31479,712.25275,186.1395,712.5113C185.95566,712.7371,185.03549,713.8663,184.08273,715.00433C181.9843,717.4737,178.9154,721.40186,178.3219,722.4418C178.0519,722.8668,177.2566,724.0669,176.4999,725.1516C175.74306,726.23596,174.74007,727.70386,174.23848,728.43774C173.76064,729.1301,173.00392,730.2146,172.57362,730.8236C172.1343,731.4,170.11629,734.16345,168.09805,736.92676C160.90417,746.82697,157.81146,750.79694,149.6019,760.8345C148.12082,762.6085,146.46469,764.641,145.8978,765.3927C144.21786,767.4668,131.12225,782.49097,129.1394,784.6127C128.10345,785.70325,124.41085,789.66156,124.02505,790.0479C123.38387,790.78485,116.22098,797.9736,115.769745,798.3775C115.55301,798.61237,115.10196,799.01654,114.805084,799.3433C114.01846,800.19025,108.241875,805.7716,107.725334,806.1935C107.49969,806.39575,106.55865,807.3197,105.65032,808.2352C102.04071,811.85486,90.979515,821.47815,85.08359,826.10895C82.951996,827.8149,80.81144,829.4882,80.32749,829.9012C79.86741,830.2729,78.20188,831.5004,76.69066,832.6507C75.17065,833.7684,73.65063,834.88605,73.33593,835.1474C73.02123,835.4091,71.83959,836.2236,70.67272,836.9637C69.53857,837.6951,68.4876,838.4738,68.327324,838.65814C68.1997,838.8333,67.53467,839.22565,66.8844,839.5439C66.26672,839.8531,65.675964,840.2603,65.62256,840.4504C65.569275,840.64056,65.1803,840.8874,64.75568,841.0035C64.13501,841.17303,63.843872,841.0069,63.493042,840.36554C63.26111,839.9023,62.78247,839.05023,62.482056,838.46515C62.14917,837.88934,61.51563,836.342,61.027836,835.0712L60.156254,832.7817L63.521423,831.8637C66.91821,830.93353,69.52514,829.55414,72.389946,827.1912C75.70605,824.42413,79.37064,818.4374,79.29795,815.85925C79.273415,814.35645,80.01841,813.48584,85.593475,808.4513C91.1595,803.38403,93.80152,800.9768,94.508,800.22205C95.89716,798.754,99.765076,794.92334,99.89575,794.8877C99.961,794.8699,100.531006,794.25757,101.17218,793.5208C101.81329,792.784,102.962036,791.5922,103.718994,790.89386C104.49963,790.1539,105.43176,789.19696,105.80877,788.778C106.218315,788.35004,107.18901,787.27716,107.9755,786.43036C109.83073,784.48395,109.75065,784.57587,114.25638,779.4827C118.92239,774.2054,120.388695,772.50543,125.91823,765.7632C129.9756,760.82776,142.86815,744.0335,143.45274,742.961C143.52391,742.83624,144.3934,741.6506,145.36691,740.3315C148.01723,736.7983,157.25262,723.3209,159.34772,719.9398C159.51385,719.6487,160.62662,717.94006,161.76309,716.19006C164.93546,711.3559,168.75156,705.1524,173.30629,697.41266C174.2322,695.7906,175.58238,693.666,176.2589,692.6737C176.93553,691.6814,177.76353,690.4719,178.09007,689.9966C178.40746,689.4885,179.18205,688.46924,179.75798,687.75024C180.3574,686.9895,181.58025,685.4265,182.52415,684.25574C184.61069,681.61426,191.81436,673.291,192.13203,673.16907C192.23012,673.1422,192.51814,673.1688,192.78261,673.23706 Z M134.66629,698.7411C134.88034,699.1389,135.56454,701.12854,136.25778,703.15076C136.9183,705.182,137.95651,708.3386,138.57828,710.0995C139.17636,711.902,139.67636,713.7312,139.6943,714.18274C139.68869,714.6758,138.42473,716.98737,136.82835,719.49493C135.22282,721.97003,133.82518,724.1774,133.67381,724.39435C133.53136,724.64386,132.67957,725.89484,131.8042,727.1873C130.92871,728.4798,129.91089,730.0218,129.56958,730.5715C124.10647,739.22644,107.2669,761.87396,106.32818,761.7795C105.817375,761.70844,105.12134,759.9327,102.6817,752.4196C101.607605,749.13226,101.601746,749.23944,103.43585,746.70184C107.97947,740.33435,114.25906,731.0702,117.02176,726.66394C121.05457,720.2255,123.01295,716.9869,128.1344,708.10944C131.27661,702.6516,133.94719,698.1653,134.07791,698.1295C134.20853,698.09375,134.4938,698.36694,134.66629,698.7411 Z M142.50864,722.2954C144.14186,727.115,144.16292,727.70605,142.65988,727.3447C141.56084,727.04816,134.96233,728.85175,133.83116,729.7227C132.31995,730.873,132.96362,729.11725,135.39708,725.4329C136.71751,723.4571,138.3557,720.9732,139.0382,719.87396C139.72073,718.77454,140.45676,717.8712,140.63791,717.8917C140.84286,717.871,141.66672,719.8574,142.50864,722.2954 Z M126.353455,742.0528C127.10889,743.91754,128.29443,744.7872,130.63806,745.26996C132.37878,745.6016,132.89551,745.56573,136.31657,744.59564C138.40715,744.02423,140.12364,743.6252,140.15044,743.7232C140.23082,744.01715,139.7589,744.6026,132.06012,754.7108C129.77478,757.65283,127.28175,760.8618,126.48921,761.8159C125.69673,762.76953,124.04055,764.802,122.79995,766.2998C121.55923,767.79724,118.87601,770.95294,116.8251,773.3392C114.78299,775.7579,112.82102,778.08453,112.485634,778.5274C112.15037,778.97003,111.633705,779.39215,111.33976,779.4725C110.882484,779.5975,110.60282,778.83136,108.86767,772.3547L106.90923,765.061L107.79656,763.941C108.2835,763.2813,110.72001,760.1227,113.24589,756.90466C115.73001,753.66284,118.00638,750.6885,118.2764,750.2637C118.522736,749.8805,119.567406,748.4363,120.540794,747.1172C121.5469,745.78894,122.9656,743.78625,123.7134,742.66907C124.45229,741.5193,125.22108,740.6069,125.434814,740.6187C125.61615,740.63934,126.04114,741.2956,126.353455,742.0528 Z M99.987854,752.4538C100.56427,752.8931,104.456055,765.205,104.03143,765.3211C103.83539,765.3747,102.71344,766.66437,101.52338,768.21844C99.29425,771.10956,94.886604,776.17596,92.82064,778.25037C92.18539,778.8804,90.30941,781.00793,88.59384,782.9513C86.919754,784.9184,85.50101,786.53516,85.402985,786.5619C85.33768,786.5797,84.18002,787.73865,82.83835,789.1234C79.641335,792.4547,72.27055,799.52466,69.51275,801.8935C62.868774,807.6413,59.276676,810.554,56.17121,812.80695C55.613045,813.2055,54.772896,813.8564,54.271126,814.20404C53.35072,814.9472,50.50368,816.9893,48.852924,818.14264C48.294697,818.54083,47.34768,819.18585,46.7806,819.55145C46.222435,819.9499,45.35549,820.50275,44.84481,820.8178C44.366722,821.12396,43.556175,821.6265,43.05447,821.9743C42.22909,822.55084,39.666775,824.0938,36.121613,826.15106C33.039772,827.97656,26.148052,831.4049,22.843184,832.7998C16.289602,835.5388,5.0615816,839.02905,3.422056,838.8103C2.7715437,838.7422,2.7537215,838.6769,3.5791605,838.1001C4.9447603,837.06006,6.645138,834.4186,6.828548,833.0344C7.0295367,831.32935,6.360531,830.03784,4.7294283,829.07947L3.4310892,828.3108L4.1703467,827.9332C4.5682955,827.7191,7.0151935,826.91003,9.601679,826.0978C15.52599,824.2677,17.919237,823.2623,25.672039,819.3882C29.49943,817.46436,30.238749,817.0868,32.41221,815.7905C33.64432,815.0324,35.363434,814.0008,36.18289,813.5312C37.035065,813.05255,38.112823,812.37177,38.58194,812.0329C43.026394,809.02765,47.242332,806.0849,48.59902,805.0119C48.922626,804.783,50.02119,803.92096,51.063183,803.10956C56.178474,799.2189,66.83874,789.6699,70.281975,785.95544C70.531364,785.7118,71.326836,784.8976,72.06603,784.1339C73.94799,782.2855,74.88004,781.3285,76.19492,779.8457C76.84507,779.14136,77.42387,778.56177,77.48911,778.54395C77.71787,778.48145,83.986664,771.3616,89.45699,764.91644C91.09834,762.9582,96.88288,755.4792,98.084785,753.7115C99.19172,752.1099,99.34613,752.03265,99.987854,752.4538 Z M105.24786,768.3588C105.42621,768.62604,105.80102,769.612,106.0689,770.592C106.64922,772.7153,106.44146,772.9826,103.872375,773.0882C102.87152,773.15094,101.6983,773.22577,101.2796,773.2349C100.55792,773.29193,99.86536,772.4279,100.48602,772.25824C100.6167,772.2226,101.548706,771.2657,102.59955,770.10077C103.617615,768.9449,104.54968,767.988,104.68036,767.95233C104.810974,767.91656,105.06946,768.0916,105.24786,768.3588 Z M89.44606,788.1247C89.722855,789.1374,90.94112,789.998,92.92548,790.57904C94.44642,791.0058,98.48542,790.49884,100.11859,789.6662C100.914246,789.238,101.721985,788.98224,101.91211,789.0356C102.44086,789.17194,102.01068,790.16705,101.10828,790.9755C100.70465,791.29645,100.20581,791.78375,99.99811,792.0512C99.30054,792.8387,93.56855,798.583,93.11732,798.9873C92.88276,799.15674,92.13472,799.8878,91.44307,800.56836C90.75142,801.2489,87.81259,803.98315,84.91232,806.6013C79.19175,811.7457,79.09373,811.77246,77.88694,809.9258C77.42918,809.27856,76.579384,808.7385,75.19804,808.3085C73.30284,807.6682,73.023605,807.6743,69.795586,808.45123C66.493164,809.21344,62.285645,811.03046,61.25867,812.1539C61.041874,812.3885,60.50159,812.8521,60.06519,813.18207C59.596134,813.52094,59.28455,813.9222,59.329105,814.0854C59.373783,814.2487,59.213505,814.43304,58.952152,814.50446C58.723454,814.56696,57.752815,815.6396,56.818,816.8431C53.710464,820.88727,52.471577,825.4737,53.61403,828.88275L54.20314,830.6528L52.421772,831.8416C51.441914,832.49567,50.438374,833.1912,50.212788,833.3934C49.954487,833.6042,49.29836,834.02936,48.704487,834.29706C48.119526,834.59735,47.02395,835.2128,46.27871,835.6973C43.69265,837.2817,41.599514,838.4859,39.292385,839.67816C32.670937,843.06775,32.29679,843.24023,25.615643,846.15454C22.141586,847.7012,1.7489613,853.23987,-1.6693107,853.57745C-5.357969,853.9537,-5.6223726,853.88556,-6.086606,852.18695C-6.6521573,849.9893,-7.418942,843.84467,-7.1577725,843.387C-7.0153165,843.1375,-5.527524,842.8011,-2.792418,842.4045C2.556456,841.6798,13.14019,838.787,18.44951,836.63354C23.945967,834.3939,31.597816,830.79297,34.469032,829.0956C35.32108,828.6168,36.58011,827.9566,37.295685,827.6208C38.043915,827.2756,38.66739,826.85956,38.75345,826.66046C38.806793,826.4704,39.195705,826.2236,39.620327,826.1076C40.04501,825.9915,41.773037,824.9926,43.465355,823.8631C45.157738,822.73334,46.989647,821.6009,47.50924,821.3183C48.070393,821.05963,48.55434,820.64667,48.607685,820.4565C48.693623,820.2574,49.01723,820.0286,49.344013,819.9394C49.703266,819.8411,50.40102,819.43976,50.91762,819.01764C51.4341,818.5955,53.12343,817.32635,54.6435,816.2087C56.16358,815.0911,57.85279,813.82184,58.36939,813.39996C58.88593,812.9777,59.55103,812.58527,59.81238,812.51385C60.106266,812.43353,60.46851,812.0889,60.65845,811.75616C60.880924,811.4145,61.373783,811.034,61.798466,810.9179C62.223145,810.8018,62.579346,810.564,62.600098,810.3829C62.62976,810.2343,63.603394,809.3012,64.78198,808.3471C69.79626,804.3437,78.476295,796.2838,84.38919,790.1741C88.268875,786.12946,88.83894,785.9035,89.44606,788.1247 Z M56.108353,833.2563C56.43239,833.7996,56.973648,834.88055,57.327404,835.66156C57.648693,836.45135,58.510998,838.32196,59.233593,839.80975C61.06531,843.5567,61.175053,843.3161,56.04146,846.3694C55.04384,846.9579,53.56813,847.8528,52.71602,848.3314C51.11867,849.2947,50.29018,849.7317,44.586327,852.62476C39.345554,855.286,35.5806,857.05237,34.56791,857.3291C34.045204,857.47205,32.432777,858.1234,30.936256,858.81335C22.850756,862.4979,-1.5541375,868.25555,-3.2687361,866.8636C-3.9282818,866.3769,-5.534116,857.54767,-5.1337256,856.70087C-4.9616065,856.3028,-4.4331036,856.05316,-3.3610213,855.8653C-2.526549,855.7076,-0.0050659156,855.29913,2.2133164,854.9385C6.8135333,854.1726,20.847948,850.16113,24.35478,848.6057C25.575115,848.0615,28.520792,846.7649,30.928993,845.6854C35.819492,843.54126,39.216343,841.8406,41.41348,840.5026C42.191372,840.0092,43.08505,839.5544,43.379055,839.47394C43.640404,839.4025,44.62319,838.8881,45.555504,838.3173C49.260883,836.07587,51.514423,834.68744,52.639664,833.92365C53.68477,833.2518,54.471573,832.79095,55.27626,832.39545C55.374283,832.3687,55.760635,832.7546,56.108353,833.2563 Z M-34.212147,870.40643C-32.638233,869.87103,-30.853565,869.2076,-30.203297,868.88947C-29.520374,868.56244,-28.629507,868.35394,-28.225515,868.4191C-27.779898,868.508,-26.511648,868.6528,-25.4157,868.80963C-24.328543,868.93365,-23.12548,869.0965,-22.745293,869.20306C-21.292778,869.50824,-12.717951,869.7973,-8.7113,869.68524C-5.5750093,869.6003,-5.4828467,869.6805,-4.9734473,872.31476C-4.172056,876.65936,-3.801939,880.06903,-4.0510845,880.69867C-4.267515,881.31964,-4.4308453,881.3643,-5.9694185,881.25824C-6.8991055,881.1962,-7.9741783,881.24457,-8.300838,881.3338C-8.660213,881.43207,-9.251277,881.45306,-9.622615,881.3791C-9.961238,881.2961,-11.680965,881.1694,-13.448176,881.1258C-17.582636,881.02704,-23.63604,880.32965,-27.910452,879.4616C-32.333485,878.5643,-38.004326,876.9548,-39.391655,876.24567C-40.37212,875.7413,-40.491016,875.5632,-40.726612,873.80206C-41.158924,870.936,-41.173634,871.01044,-38.951958,871.1755C-37.404472,871.3143,-36.471916,871.1296,-34.212147,870.40643 Z M61.657597,845.85223C61.92499,846.0601,62.555237,847.08136,63.06372,848.1711C63.53949,849.26984,64.529785,851.3514,65.219666,852.84796C65.93329,854.3028,66.55194,855.92426,66.62048,856.43207C66.784546,857.5457,66.18787,858.06,61.802376,860.3821C60.210827,861.2383,58.132397,862.36816,57.214916,862.8646C53.075882,865.1896,48.49721,867.3187,37.272984,872.10693C33.59391,873.67395,12.254082,879.47186,8.681331,879.88666C7.1904254,880.08344,4.814512,880.382,3.4306014,880.58466C2.0376577,880.7548,0.35662824,880.8984,-0.31756577,880.872L-1.5264275,880.8161L-1.8392936,878.9006C-3.1387315,870.9356,-3.2103868,870.288,-2.8037705,869.7205C-2.5633533,869.4443,-2.1090689,869.17975,-1.8210441,869.20624C-1.5091546,869.1911,0.12133783,868.9914,1.7666618,868.7172C3.4534895,868.46674,6.3757896,867.9839,8.332942,867.6947C13.883536,866.80945,26.260723,862.8998,33.8444,859.5631C35.1301,859.0011,37.116673,858.1771,38.25687,857.7251C39.39725,857.2731,41.08084,856.49695,42.007233,856.03296C42.924713,855.5366,44.744774,854.61755,46.003807,853.95764C47.27169,853.3302,49.1393,852.32825,50.14577,851.77234C51.14345,851.1836,52.45876,850.473,53.043716,850.17285C54.88771,849.2124,57.093765,847.9072,58.794933,846.8104C60.78712,845.4935,61.00697,845.3983,61.657597,845.85223 Z M-37.928886,878.9001C-36.84722,879.9035,-24.784414,882.2934,-16.601313,883.0761C-14.51031,883.2767,-7.3018155,883.44794,-5.9415865,883.2868C-5.2525,883.23895,-4.313902,883.3333,-3.8325787,883.55304C-3.0364976,883.8969,-2.959166,884.0516,-2.696532,886.2967C-2.5442493,887.6242,-2.0852652,890.58795,-1.6563102,892.9283C-1.0155635,896.68524,-0.9796748,897.20197,-1.5199578,897.6656C-2.3096302,898.373,-32.59978,907.0031,-33.817554,906.9146C-34.616505,906.8172,-34.7354,906.6391,-35.211597,904.7681C-35.52416,903.6247,-35.848866,901.92316,-35.926563,900.9964C-36.013233,900.0373,-36.55852,896.88617,-37.13933,893.9908C-37.761772,891.0715,-38.351616,887.75726,-38.45031,886.6257C-38.59063,885.4703,-38.971855,883.43304,-39.30529,882.0848C-39.638603,880.73663,-39.871025,879.5013,-39.850273,879.3199C-39.743584,878.93964,-38.2647,878.5706,-37.928886,878.9001 Z"/>
</g>
</g>
</g>
</svg>