<svg width="224" height="282" viewBox="0 0 224 282" fill="none" xmlns="http://www.w3.org/2000/svg">
<path d="M215.092 263.592C213.057 262.549 210.947 261.721 208.712 261.248C207.773 261.049 206.885 260.772 206.039 260.321C204.773 259.648 203.577 258.817 202.004 258.945C201.382 258.995 200.867 258.442 200.303 258.163C198.533 257.286 197.088 255.941 195.46 254.86C191.409 252.171 187.409 249.403 183.416 246.629C178.929 243.511 174.289 240.728 168.926 239.338C164.083 238.083 159.105 237.685 154.186 236.917C152.134 236.597 150.009 236.664 148.109 235.65C142.86 232.85 138.149 229.366 134.644 224.501C132.936 222.131 130.785 220.331 128.402 218.751C125.18 216.614 122.197 214.215 119.902 211.067C117.369 207.592 116.264 203.498 114.918 199.5C114.159 197.244 113.401 194.819 111.394 193.382C109.151 191.776 106.993 189.976 104.38 188.933C102.131 188.034 100.649 186.35 99.7133 184.2C98.5961 181.632 98.0931 178.897 97.8653 176.119C97.4788 171.406 99.8961 167.64 102.137 163.837C102.508 163.207 103.207 162.771 103.931 162.506C104.32 162.363 104.704 162.485 104.94 162.824C105.134 163.101 105.146 163.466 104.817 163.652C104.023 164.1 104.361 164.564 104.771 165.012C105.197 165.477 105.621 165.961 106.12 166.338C106.955 166.971 107.22 167.682 106.696 168.632C106.446 169.087 106.218 169.627 106.567 170.063C107.552 171.296 108.067 172.836 109.201 173.972C109.69 174.463 110.224 174.582 110.891 174.633C114.417 174.903 117.102 173.109 119.513 170.945C120.69 169.889 121.296 168.155 123.319 168.408C123.371 168.415 123.455 168.37 123.484 168.324C124.254 167.103 125.683 166.903 126.799 166.233C128.936 164.949 130.17 162.658 132.35 161.453C133.379 160.884 133.451 160.098 133.088 159.044C132.646 157.757 132.893 156.538 133.389 155.205C134.324 152.693 135.554 150.259 135.797 147.498C135.898 146.349 136.251 145.217 137.157 144.249C138.022 143.325 138.907 142.179 138.135 140.692C137.948 140.332 138.013 139.926 138.192 139.591C138.69 138.659 138.499 137.776 138.141 136.858C137.961 136.397 137.746 135.923 137.81 135.392C138.144 132.647 138.717 129.941 139.049 127.187C139.392 124.344 140.026 121.479 140.939 118.718C141.077 118.301 141.169 117.859 141.204 117.422C141.64 111.987 141.14 108.659 139.05 103.765C138.666 102.865 138.308 102.111 138.777 101.098C139.125 100.348 138.666 99.7379 137.829 99.5882C137.336 99.5001 136.809 99.4482 136.319 99.524C134.799 99.7595 133.452 99.2721 132.136 98.6279C130.886 98.0161 129.652 97.3735 128.409 96.7489C127.106 96.0943 125.812 95.4344 124.264 95.7301C123.68 95.8416 123.103 95.6111 122.651 95.2763C121.435 94.3765 120.021 93.7856 118.925 92.6845C117.855 91.6089 117.18 91.7173 116.411 93.0729C115.921 93.9366 115.397 94.2772 114.431 93.9656C113.422 93.6398 112.567 93.7653 112.101 94.9092C111.934 95.3179 111.519 95.7637 111.067 95.464C110.141 94.8492 109.451 95.0939 108.718 95.766C108.27 96.1764 107.68 96.1469 107.094 96.0758C104.895 95.8094 104.327 96.2808 104.414 98.4422C104.486 100.259 103.981 101.963 103.417 103.624C102.912 105.109 101.784 105.183 100.937 103.856C99.0926 100.969 97.3937 98.0148 97.1559 94.4683C97.1054 93.7171 96.8843 92.9784 96.7563 92.2315C96.0307 87.993 95.2217 83.7281 95.9868 79.4353C97.0322 73.5701 96.7825 67.7336 96.0925 61.8767C95.6641 58.2407 95.0281 54.6228 95.4872 50.9277C95.7662 48.683 95.9714 46.4259 96.1705 44.1705C96.6322 38.9475 97.0671 38.5039 101.684 35.6983C102.442 35.2378 103.194 34.7789 103.859 34.1822C105.791 32.4486 107.752 30.7576 110.252 29.8541C110.801 29.6558 111.331 29.3368 111.206 28.628C111.083 27.9289 110.586 27.5308 109.894 27.4466C108.614 27.2909 107.372 27.3955 106.208 28.0357C105.377 28.4928 104.524 28.9113 103.675 29.3343C103.165 29.5886 102.594 29.927 102.075 29.5169C101.492 29.0569 101.242 28.3201 101.503 27.6315C102.105 26.0475 102.308 24.3181 103.367 22.8949C104.776 21.0021 105.632 18.8172 106.398 16.607C106.686 15.7773 106.989 14.9296 106.942 14.0239C106.877 12.7432 106.327 12.119 105.059 12.2667C104.177 12.3695 104.043 12.0096 103.776 11.3439C103.158 9.80436 102.456 9.6293 101.013 10.5408C100.634 10.7802 100.391 11.008 99.8472 10.8027C98.1759 10.1713 97.8505 10.2673 97.0803 11.881C95.8565 14.4451 94.6444 17.0246 94.0191 19.8243C93.909 20.3172 93.7918 20.8102 93.6403 21.2915C93.5453 21.5933 93.3556 21.9159 93.0091 21.9046C92.5733 21.8903 92.3845 21.5491 92.3158 21.1369C92.0332 19.4413 91.8772 17.7473 92.3329 16.0545C92.4805 15.5054 92.6584 14.9609 92.6031 14.3789C92.4778 13.0568 91.6823 12.6728 90.4868 13.2789C89.8318 13.611 89.6242 14.1452 89.4837 14.7817C89.0153 16.9043 88.9373 19.0461 89.2306 21.1919C89.3608 22.1435 89.4673 23.082 89.1916 24.0107C88.21 27.3182 87.9443 30.6872 88.0279 34.1308C88.07 35.8693 88.3418 37.6715 87.6678 39.3813C87.2241 40.507 87.0481 41.6918 86.8526 42.8789C86.3197 46.1147 85.7572 49.3459 85.176 52.5735C84.4492 56.6089 83.4078 60.5885 83.2899 64.726C83.1891 68.2606 82.8936 71.7861 82.3942 75.2914C82.2965 75.9768 82.2318 76.6692 82.5565 77.3393C83.3493 78.9753 83.4579 80.73 83.4819 82.5143C83.5004 83.9019 83.492 85.2894 83.652 86.6803C84.0629 90.2524 84.8567 93.7622 85.0447 97.3789C85.3674 103.591 86.5813 109.67 88.8905 115.466C89.6732 117.431 90.1456 119.334 90.1546 121.47C90.1595 122.647 89.801 123.362 89.0758 124.072C85.5572 127.514 81.958 130.888 78.9124 134.768C75.6058 138.98 73.6132 143.611 75.0618 149.116C75.7525 151.74 75.4565 154.204 74.2244 156.626C73.3085 158.427 72.6696 160.302 72.7766 162.42C72.9041 164.943 72.7992 167.479 72.7706 170.009C72.7533 171.526 72.8704 173.074 72.6137 174.553C71.6724 179.976 71.6655 185.486 70.9645 190.929C70.8283 191.987 70.5898 192.475 69.4376 192.603C66.7194 192.905 63.9895 192.89 61.2877 192.753C55.9092 192.481 50.4987 192.297 45.2053 193.084C40.3847 193.801 35.4286 193.351 30.6919 195.248C28.1969 196.247 25.5779 196.977 23.1569 198.234C21.3697 199.161 20.744 200.628 20.6488 202.539C20.4633 206.264 21.4628 209.933 21.102 213.661C21.023 214.478 21.559 215.402 21.6939 216.207C21.8673 217.243 21.8135 218.304 21.7265 219.345C21.3954 223.301 21.9866 227.285 22.4659 231.219C23.2041 237.28 24.4634 243.277 24.7177 249.395C24.8561 252.721 24.6871 256.035 24.4637 259.361C24.1633 263.832 21.6299 266.623 17.1203 266.927C14.9386 267.073 12.5316 267.719 10.3609 267.406C9.85932 267.333 9.33958 267.256 8.85262 267.397C8.36583 267.537 7.92132 267.965 7.93886 268.471C7.95066 268.809 8.15832 269.107 8.37648 269.366C9.65395 270.882 11.6637 271.915 13.6631 271.909C20.9543 271.888 28.2459 271.935 35.5361 272.003C36.3007 272.011 37.1269 271.999 37.739 271.541C38.2725 271.142 38.5388 270.464 38.5891 269.8C38.6504 268.991 38.5985 267.461 38.24 266.723C37.5472 265.295 37.5236 263.824 37.3259 262.336C36.5867 256.773 37.1345 251.276 38.0399 245.786C38.5301 242.813 39.5214 239.958 39.8714 236.939C40.357 232.75 40.0672 228.592 39.5062 224.483C39.1095 221.578 38.2025 218.724 37.2972 215.894C36.4436 213.226 37.2136 212.592 39.2733 212.58C39.7617 212.578 40.237 212.474 40.7537 212.52C43.2157 212.742 45.5649 213.453 47.9463 214.037C51.6989 214.956 55.1556 216.689 58.7882 217.931C65.3773 220.183 72.2231 220.715 79.1271 220.731C83.4915 220.742 87.8488 220.524 92.2027 220.226C92.8837 220.18 93.5659 220.124 94.2163 220.547C96.2839 221.892 98.3714 223.201 100.126 224.966C101.105 225.951 102.064 226.96 103.188 227.794C106.227 230.051 109.322 232.232 112.519 234.255C117.423 237.357 122.312 240.473 127.491 243.136C130.055 244.455 132.933 245.314 135.129 247.203C137.513 249.254 140.197 249.89 143.177 249.919C146.399 249.951 149.559 250.636 152.677 251.249C158.542 252.402 164.284 254.142 169.74 256.636C173.795 258.49 178.214 259.313 182.242 261.222C182.625 261.403 183.102 261.426 183.539 261.446C184.499 261.489 185.412 261.741 186.323 262.003C188.58 262.652 190.609 263.663 192.449 265.196C192.857 265.536 193.39 265.986 193.494 266.54C193.594 267.068 193.095 267.631 193.335 268.128C193.462 268.39 193.769 268.501 194.048 268.584C196.782 269.386 199.594 269.578 202.425 269.726C205.5 269.885 208.58 269.903 211.658 269.963C212.34 269.977 213.109 269.988 213.733 269.671C214.383 269.341 214.672 268.647 215.068 268.067C215.611 267.273 216.018 266.405 216.061 265.43C216.098 264.576 215.9 264.007 215.09 263.592H215.092Z" fill="#39BBD1"/>
<path d="M193.259 268.046C193.231 268.009 193.203 267.971 193.174 267.934C193.086 268.072 193.104 268.094 193.23 268L193.259 268.046V268.046Z" fill="#39BBD1"/>
</svg>
