<svg width="85" height="83" viewBox="0 0 85 83" fill="none" xmlns="http://www.w3.org/2000/svg">
<path d="M8.68651 57.0207C9.26505 56.1147 10.6053 55.4214 10.7897 55.3459C11.3317 55.1241 11.8327 55.2275 12.2843 55.5563C12.5802 55.7719 12.9225 55.8794 13.2338 56.0548C13.3616 56.1268 13.654 56.0373 13.8505 56.3021C13.925 56.4026 14.0157 56.4089 14.114 56.3706C14.5757 56.1904 15.0631 56.0973 15.5274 55.9157C16.7859 55.4237 16.5977 55.7995 19.0111 55.0422C26.4312 52.7141 23.1717 52.9287 31.0086 53.1841C35.9991 53.3467 38.7017 51.9692 42.6251 51.2736C46.0408 50.668 48.3624 50.5214 48.7992 49.6143C49.1906 48.8019 49.8365 48.23 50.5447 47.7164C52.5629 46.2531 52.786 46.7297 53.1991 46.1043C53.4258 45.7611 53.7819 45.7091 54.0913 45.9638C54.2072 46.0592 54.2867 46.2204 54.4773 46.1831C54.5317 46.1725 54.5752 46.5178 54.9865 46.2006C55.1896 46.0441 55.6928 46.2436 56.1515 46.0288C57.5697 45.3647 57.6964 46.7926 61.1376 43.4509C61.1842 43.4056 61.1736 42.8759 61.3148 42.7068C62.5602 41.2153 63.1212 36.4822 63.091 36.3272C63.053 36.1319 63.2735 36.1152 62.9362 35.2155C62.1448 33.1045 63.1475 30.4824 64.1449 28.4575C64.941 26.8413 65.7473 27.2338 65.5551 26.3783C65.4904 26.0904 65.5568 25.7206 65.2531 25.2439C64.9646 24.7909 64.4691 25.3701 62.9763 25.0431C62.0044 24.8303 61.2418 24.2223 60.9535 23.9056C60.143 23.015 60.0431 22.1575 60.0278 22.1253C59.7126 21.4637 59.9732 20.7643 59.9055 19.9595C59.8784 19.6376 59.7793 19.6572 59.5507 19.3585C59.2863 19.013 59.1071 19.3851 58.9643 19.3539C58.7592 19.309 58.6783 19.4494 58.6034 19.595C58.3715 20.0457 58.2211 20.5164 58.2354 21.0337C58.2618 21.9842 58.1516 21.6654 58.3828 23.5779C58.4493 24.1281 58.5942 25.1339 58.7996 25.627C59.0585 26.2486 58.7738 26.1343 59.2452 27.2356C59.5038 27.8397 59.2599 27.5052 59.849 28.7297C60.2757 29.6163 60.5072 30.3269 61.0067 30.9483C61.2458 31.2458 61.0353 31.29 61.2564 31.5054C61.2994 31.5472 61.3477 31.6091 61.3064 31.6639C61.1998 31.8052 61.2789 31.9321 61.3215 32.0604C61.4712 32.512 61.7876 33.7145 61.9723 34.0236C62.0829 34.2087 62.0474 34.2111 61.8832 34.3696C61.7778 34.4713 61.7685 34.4216 61.7208 34.3525C61.4087 33.9001 61.4893 33.7172 61.3295 33.6598C61.1849 33.6902 61.3198 34.2155 61.1538 34.6952C61.0789 34.9114 61.3915 35.5444 61.4893 35.6981C61.3539 35.8809 60.9044 35.3452 60.7626 35.078C60.0522 33.7392 60.8167 34.818 59.7527 33.7432C59.5845 33.9912 60.0576 34.9693 59.8797 36.0488C59.7872 36.6099 59.6584 37.1932 59.3123 37.677C59.1624 37.8868 59.1762 38.1783 58.9539 38.3573C58.8583 38.0994 59.0337 37.8478 58.9636 37.5443C58.8035 37.7743 58.6861 37.9783 58.5879 38.2629C58.531 37.5031 58.9268 37.3185 58.7505 37.0636C58.5624 36.7915 58.7212 36.4303 58.5869 36.3159C58.499 36.3284 58.5102 36.4362 58.4583 36.484C58.3937 36.5435 58.3059 36.4728 58.2309 36.5155C58.2255 36.691 58.3084 36.8879 58.2169 37.022C58.1214 37.1623 58.0452 37.622 58.06 37.7929C58.0888 38.1256 58.0139 38.4527 57.9768 38.7772C57.9582 38.9397 57.9417 39.2203 57.652 39.2539C57.5536 39.1157 57.6977 38.9112 57.5511 38.756C57.4471 38.9297 57.326 39.0803 57.144 39.2052C57.0609 39.0286 56.9235 38.8796 56.9742 38.6499C57.0038 38.5158 57.0153 38.3698 56.9063 38.2515C56.8214 38.1593 56.9034 38.0344 56.8512 37.9348C56.7556 37.881 56.7277 38.0214 56.6268 38.0045C56.5081 37.8352 56.8046 37.438 56.6073 37.3131C56.5152 37.2549 56.4783 37.3837 56.4145 37.3854C55.9928 36.9364 56.6069 36.7943 56.4683 35.7472C56.4321 35.4739 56.2399 35.4899 56.1778 34.7244C56.1709 34.6391 56.2258 34.5188 56.0376 34.5547C55.9724 34.5672 55.949 34.4093 55.9695 34.335C56.0331 34.1041 55.9941 33.8794 55.9674 33.6514C55.956 33.5549 55.993 33.4495 55.8856 33.3807C55.8518 33.359 55.8468 33.3146 55.8627 33.2725C55.957 33.0229 55.1716 30.2202 55.3072 29.1562C55.5733 27.068 55.4172 27.477 55.6058 25.0253C55.7329 23.3736 55.5435 23.427 55.6929 22.8465C55.9179 21.9723 55.8575 20.9852 56.035 20.0882C55.964 20.1074 55.893 20.1266 55.822 20.1457C55.8421 20.1403 56.1694 19.7102 56.218 19.6624C56.534 19.3518 56.8741 19.0663 57.2015 18.7674C57.3939 18.5916 58.1568 18.4125 58.2425 18.2721C58.3061 18.168 58.1986 18.1113 58.171 18.0319C58.0998 17.8268 58.4094 17.6905 57.9035 17.411C57.7946 17.3509 57.6952 17.2934 57.6675 17.1475C57.8487 17.1765 58.0285 17.1853 58.2051 17.168C58.2467 17.0209 58.1826 16.9094 58.0717 16.7747C58.3819 16.8246 58.1797 16.9974 58.5797 17.5091C58.6771 17.6337 58.6302 17.8016 58.7047 17.9486C59.1745 17.7712 59.3487 17.3482 59.4455 16.944C59.6574 16.0599 60.1923 15.3584 60.6374 14.6068C60.8453 14.2557 61.1578 13.9853 61.4903 13.736C62.0039 13.351 62.2868 12.7692 62.831 12.4509C63.7088 11.9376 64.8427 11.6903 65.8524 11.8656C66.1279 11.9134 66.2195 11.2741 67.0047 11.4434C67.2168 11.4891 67.4238 11.5107 67.5943 11.658C67.5673 11.6987 67.5344 11.7161 67.5128 11.7002C67.2982 11.5416 67.1268 11.7377 66.9361 11.7697C66.8097 11.791 66.9082 11.9355 66.8959 11.9685C66.8045 12.2128 66.8074 12.2071 66.9679 12.3374C67.3724 12.6659 68.0784 12.4797 69.0697 13.4599C69.8568 14.2383 69.948 14.1142 69.9863 14.5062C70.027 14.9232 70.3463 15.1571 70.6016 15.4309C70.6503 15.4832 70.7282 15.4811 70.7979 15.4901C72.1677 15.6678 72.2296 15.5569 72.5688 15.8023C73.4485 16.4389 71.7786 16.9575 73.1413 17.2775C73.8455 17.443 73.184 18.0099 73.6828 18.0307C73.7859 18.035 74.1338 18.2713 73.9826 18.5438C73.8655 18.7549 73.8941 18.967 74.0965 19.1034C74.6735 19.4922 74.6254 20.3555 74.0178 20.8244C73.3453 21.3433 73.0699 21.4309 72.469 22.0873C71.9588 22.6446 72.488 22.9696 72.3271 24.029C72.3047 24.1765 72.3127 24.3296 72.3161 24.4799C72.3906 27.7222 70.4883 28.1681 73.8622 34.4252C74.3438 35.3184 74.3959 36.2146 74.7125 37.1479C75.048 38.1373 74.5978 39.3256 74.2707 40.2575C74.045 40.9006 74.1007 41.1082 74.2851 41.7734C74.6242 42.9961 74.7891 44.3281 75.0594 45.5938C75.5574 47.926 75.8753 48.2852 75.2541 52.5226C74.9262 54.7586 74.6768 56.6367 74.8105 59.7677C74.8155 59.8851 74.8793 59.9276 74.9823 59.9263C75.2906 59.9222 75.5924 60.0135 75.9025 59.9869C76.3849 59.9455 76.4036 60.2425 77.0819 60.3544C77.1637 60.3679 79.8618 60.7993 80.2025 60.7698C80.4485 60.7485 80.5991 60.9224 80.6026 61.0439C80.6191 61.6216 79.5249 61.235 79.2386 61.4737C82.5664 61.9993 82.6971 61.6257 82.8897 61.9725C83.004 62.1788 83.3097 62.0066 83.3469 62.3343C83.361 62.459 83.1432 62.6635 82.9855 62.6877C82.9269 62.6968 82.8665 62.6952 82.8069 62.6954C82.2964 62.6966 82.5927 62.8234 82.1736 62.8098C81.6282 62.7921 81.081 62.8517 80.5366 62.7617C80.3823 62.7362 80.2186 62.7371 80.0742 62.8321C79.875 62.9631 77.4946 62.8374 77.1382 62.771C76.9454 62.7351 76.7414 62.7512 76.543 62.7574C75.6486 62.7854 74.7582 62.6599 73.8632 62.6906C73.6379 62.6983 73.4136 62.6251 73.1831 62.6288C72.6242 62.6377 72.8951 61.3924 72.0922 61.4876C71.8151 61.5204 71.5436 61.4055 71.2632 61.4248C71.0919 61.4366 71.0239 61.1658 71.0279 61.1213C71.0771 60.5829 70.5733 60.0735 70.5924 59.6776C70.6572 58.331 69.6836 55.9006 70.1001 50.8387C70.1028 50.8066 70.256 49.2186 70.2333 48.955C70.0977 47.3807 70.2601 47.2977 70.0582 47.2346C69.9392 47.1973 69.8022 47.387 69.7476 47.476C69.1965 48.3732 68.5241 49.1806 67.9021 50.0256C66.4496 51.9989 67.6288 50.6355 65.4262 53.2952C65.0932 53.6972 64.6667 53.9874 64.2002 54.2309C64.0831 54.2921 61.7425 55.5833 61.7425 55.5833C61.6272 55.6472 61.5282 55.7226 61.5168 55.8767C61.5044 56.0431 61.3968 56.1287 61.2369 56.1286C60.8396 56.1283 61.268 56.7564 60.5427 56.7936C60.2767 56.8072 60.0122 56.7133 59.7801 57.0111C59.6774 57.1428 59.5477 57.1951 59.3902 57.0857C59.2758 57.0062 59.1795 57.0749 59.0926 57.1427C58.1894 57.8472 56.2729 58.7434 54.9957 58.4317C54.0799 58.2083 53.5381 58.8327 51.2936 59.2758C50.8599 59.3615 49.5029 59.7363 46.6519 59.9435C39.415 60.4695 41.2053 59.6367 35.5462 59.7502C34.7754 59.7656 32.9108 59.5584 32.8789 59.5572C32.7757 59.5534 32.5133 59.4017 32.3701 59.3967C32.0811 59.3867 31.7999 59.3034 31.5198 59.2843C27.4931 59.0099 30.5462 59.1782 24.5071 60.0584C22.1516 60.4017 18.655 60.3981 16.2149 60.968C15.7064 61.0868 12.5912 61.6105 12.559 61.6171C9.9828 62.1531 14.5748 61.7613 2.6251 61.8955C1.46434 61.9085 1.5549 61.1943 1.81839 60.8607C2.47575 60.0284 6.22961 59.0686 7.21229 58.5266C7.89032 58.1528 8.27561 57.6653 8.68705 57.0209L8.68651 57.0207Z" fill="#39BBD1"/>
</svg>
