<?xml version='1.0' encoding='utf-8'?>
<svg xmlns="http://www.w3.org/2000/svg" version="1.1" width="600px" height="976px" viewBox="0 0 600 976"> <g id="layer1"> <g style="fill:rgb(0,0,0); fill-opacity:1.0; stroke-linejoin: miter"> <path d="M200.84645,343.3497C201.03409,343.3497,201.24162,343.48996,201.48926,343.79065C201.74664,344.11823,202.26141,344.70325,202.6124,345.12445C202.98679,345.52216,203.71219,346.43475,204.25037,347.13672C204.78851,347.83875,205.4671,348.65765,205.74792,348.96185C206.0521,349.26605,206.2861,349.59363,206.2861,349.73407C206.2861,349.96796,206.52008,350.2956,207.24545,351.0678C207.43265,351.27838,207.90063,351.9804,208.25165,352.61212C208.626,353.22052,209.1174,353.94586,209.35138,354.17987C209.58536,354.41388,209.79596,354.71814,209.79596,354.8117C209.79596,354.92865,210.07675,355.32642,210.40436,355.70087C210.73193,356.07526,211.10632,356.66022,211.24673,357.01123C211.36374,357.38556,211.57431,357.66632,211.69131,357.66632C211.80832,357.66632,212.0657,357.99396,212.2763,358.41516C212.48691,358.813,212.86127,359.35114,213.09528,359.60846C213.32925,359.88928,213.53986,360.17004,213.53986,360.2403C213.53986,360.33386,213.79724,360.7083,214.12482,361.08264C214.45242,361.45703,214.70981,361.83136,214.70981,361.9016C214.70981,362.04205,215.85635,363.60974,216.41794,364.21814C216.60516,364.40533,216.88593,364.82654,217.04971,365.1541C217.21353,365.4817,217.6113,365.94965,217.9155,366.2071C218.19629,366.46442,218.45367,366.81543,218.45367,366.97925C218.45367,367.14307,218.71106,367.56427,219.03867,367.91522C219.36627,368.26617,219.62363,368.64056,219.62363,368.7575C219.62363,368.87457,219.95123,369.2724,220.32562,369.64673C220.72342,369.99774,221.02759,370.41895,221.02759,370.5359C221.02759,370.67633,221.28497,371.00385,221.61258,371.28473C221.94016,371.5655,222.19754,371.8697,222.19754,371.9867C222.19754,372.1037,222.59534,372.5951,223.0867,373.0865C223.55472,373.55444,224.16309,374.2564,224.3971,374.60736C224.65448,374.95837,225.02884,375.44977,225.21606,375.68378C225.42667,375.94116,225.80103,376.40912,226.05841,376.73676C226.31583,377.06433,226.9242,377.81305,227.41559,378.39807C227.88354,378.9831,228.28137,379.54462,228.28137,379.685C228.28137,379.802,228.44513,379.8957,228.63235,379.8957C228.81955,379.8957,228.98334,379.96582,228.98334,380.0594C228.98334,380.17633,229.24072,380.55078,229.5683,380.92517C229.8959,381.29962,230.15329,381.6974,230.15329,381.8144C230.15329,381.90796,230.29367,382.00153,230.45749,382.00153C230.62128,382.00153,231.06586,382.37592,231.44025,382.8205C231.83804,383.26508,232.28262,383.63953,232.44641,383.63953C232.58682,383.63953,232.7272,383.75647,232.7272,383.87347C232.7272,384.01392,233.03137,384.43512,233.40579,384.80945C233.78018,385.2072,234.20135,385.83905,234.36514,386.21338C234.52896,386.6112,234.73953,386.91534,234.85654,386.91534C234.97351,386.91534,235.06711,387.26642,235.06711,387.68762C235.06711,388.27252,235.25433,388.64697,235.7691,389.09155C236.1435,389.4425,236.51788,389.72327,236.58807,389.72327C236.79865,389.72327,237.87503,390.8465,237.87503,391.057C237.87503,391.15057,238.24942,391.5484,238.694,391.94623C239.13861,392.32062,239.51297,392.7652,239.51297,392.92896C239.51297,393.09277,239.65335,393.30334,239.81717,393.3969C240.00436,393.4906,240.33194,393.8883,240.58936,394.28613C240.82333,394.66052,241.12753,395.1051,241.26791,395.24548C241.38489,395.38586,241.7125,395.7837,241.96991,396.13464C242.2273,396.48566,242.64847,397.0238,242.90588,397.3047C243.16327,397.60883,243.53763,398.07684,243.72485,398.3576C243.91202,398.6618,244.30981,399.1532,244.61401,399.4574C244.8948,399.7849,245.12878,400.13593,245.12878,400.2763C245.12878,400.3933,245.2926,400.487,245.47977,400.487C245.66699,400.487,245.83075,400.60394,245.83075,400.7209C245.83075,400.86133,246.06476,401.23566,246.36896,401.53992C247.14114,402.38226,247.46869,402.7801,247.46869,402.94385C247.46869,403.01398,247.86649,403.482,248.35788,403.99683C249.66824,405.37738,250.27661,406.07935,250.27661,406.21973C250.27661,406.3601,250.41699,406.52393,252.56973,408.84045C253.29514,409.61267,254.1141,410.57202,254.37149,410.92297C254.62888,411.27393,255.19046,411.9292,255.61163,412.3504C256.00943,412.77148,256.3604,413.1693,256.3604,413.2395C256.3604,413.47345,257.0156,414.05847,257.27298,414.05847C257.4134,414.05847,257.53036,414.15204,257.53036,414.2691C257.53036,414.59662,258.58334,415.6964,258.9109,415.6964C259.05133,415.6964,259.16833,415.78998,259.16833,415.90704C259.16833,416.23456,260.22128,417.33435,260.5489,417.33435C260.68927,417.33435,260.80624,417.42798,260.80624,417.54498C260.80624,417.82574,261.90604,418.9723,262.1868,418.9723C262.3038,418.9723,262.491,419.18286,262.5612,419.44025C262.6314,419.69775,262.842,419.90826,262.9824,419.90826C263.1462,419.90826,263.5908,420.28265,263.96518,420.72723C264.36295,421.1718,264.80753,421.54626,264.97134,421.54626C265.11172,421.54626,265.2521,421.71002,265.2521,421.89722C265.2521,422.0844,265.3691,422.24817,265.5095,422.24817C265.6733,422.24817,266.00085,422.48224,266.28168,422.78638C266.53906,423.06714,267.00705,423.48834,267.31125,423.67554C267.592,423.88617,268.22382,424.42432,268.71518,424.84552C269.18317,425.2901,270.11914,426.06232,270.75092,426.5771C271.40613,427.09186,272.2953,427.9109,272.76328,428.37885C273.23126,428.87024,273.72263,429.268,273.86304,429.268C274.0268,429.268,274.14383,429.38495,274.14383,429.52533C274.14383,429.92316,276.0859,432.3098,276.41354,432.3098C276.57733,432.3098,276.7177,432.45026,276.7177,432.63745C276.7177,432.82465,276.85815,433.12885,277.0219,433.29266C277.1857,433.45648,277.5835,433.9712,277.88766,434.41583C278.19186,434.8604,278.51947,435.28162,278.61307,435.35175C278.84705,435.53888,279.10443,437.01312,279.08105,438.04272C278.96405,442.48853,278.77686,444.33704,278.42587,444.59442C277.88766,444.99225,277.20908,447.2152,277.04532,449.27423C276.9283,450.70166,276.7645,451.26324,276.41354,451.59082C276.01575,451.98853,275.96896,452.2694,276.06253,453.7669C276.13275,454.70288,276.0859,455.4751,275.99237,455.4751C275.89874,455.4751,275.71158,455.8261,275.59454,456.2707C275.31378,457.27686,274.6352,457.95538,273.67584,458.16602C271.9677,458.54034,269.95535,460.20172,269.15976,461.88647C268.2706,463.735,268.08344,464.29657,267.91962,465.13898C267.82602,465.7473,267.47507,466.33234,266.89005,466.89392C265.8137,467.92346,265.0649,468.5786,264.92453,468.5786C264.47992,468.5786,261.85922,471.24615,261.08707,472.48633C260.99347,472.6267,260.5489,472.90747,260.10428,473.1181C259.6597,473.3053,258.7705,473.7967,258.11536,474.17108C257.3459,474.63538,256.83966,474.859,256.42612,474.859C256.1103,474.859,255.84853,474.72858,255.56482,474.47528C254.97986,473.93707,253.45892,473.4925,252.31235,473.4925C251.68054,473.4925,251.3764,473.3521,251.09558,472.95435C250.76804,472.41614,249.15344,471.38654,248.68546,471.38654C248.38126,471.38654,246.57956,470.5442,245.71378,469.9826C244.40341,469.1402,243.37387,468.62543,241.38489,467.85327C240.28516,467.43207,239.1152,466.87048,238.78763,466.63647C238.15582,466.1919,236.70508,465.84094,232.7272,465.16235C231.51044,464.97516,230.22351,464.64758,229.8725,464.4604C229.52151,464.2732,228.60895,464.13275,227.62616,464.13275C226.6434,464.13275,225.73083,463.99237,225.33304,463.7818C224.91187,463.57117,223.9993,463.4308,222.85272,463.4308C221.3786,463.4308,221.00418,463.36066,220.81702,463.00964C220.62982,462.65863,220.23203,462.61182,217.93887,462.61182C215.36499,462.61182,215.2714,462.58844,214.21844,461.88647C213.63345,461.48865,212.76767,461.09088,212.32309,460.9973C211.8551,460.9037,211.43393,460.71655,211.36374,460.55273C211.31693,460.41235,210.75534,460.13153,210.17035,459.94434C209.37479,459.71033,209.0004,459.45294,208.83661,459.07855C208.6962,458.6574,208.46222,458.51697,207.97083,458.51697C207.47946,458.51697,206.91788,458.14258,205.79471,457.08966C204.20355,455.56866,201.44244,453.36908,201.11487,453.36908C200.99786,453.36908,200.90427,453.20538,200.90427,453.0182C200.90427,452.83093,200.78726,452.66724,200.64688,452.66724C200.5065,452.66724,199.8981,452.19922,199.2897,451.63763C196.99658,449.4381,196.669,449.1573,196.4584,449.1573C196.31802,449.1573,196.22443,449.06372,196.22443,448.94678C196.22443,448.75946,192.76132,445.17944,192.57416,445.17944C192.55075,445.17944,191.89557,444.57104,191.12341,443.82227C189.67264,442.4417,187.14554,440.10175,186.60736,439.65717C186.42017,439.51678,186.09256,439.1892,185.88196,438.95526C185.13321,438.1363,182.3487,435.81976,182.11469,435.81976C182.0445,435.81976,181.62332,435.46875,181.20212,435.04755C180.78094,434.62634,179.37698,433.45648,178.09004,432.42688C175.46933,430.36774,174.83754,429.7594,173.92497,428.51917C173.57399,428.0512,173.0592,427.58325,172.77841,427.4897C172.31044,427.34924,171.02347,426.22607,171.32767,426.22607C171.70204,426.22607,170.62569,424.84552,170.1811,424.72858C169.7131,424.6115,169.57272,424.35413,169.33873,423.2544C169.19833,422.529,169.08133,421.33557,169.08133,420.5869C169.08133,419.3233,169.12813,419.18286,169.90031,418.62128C170.3449,418.27032,170.76608,417.75555,170.8597,417.49817C170.95328,417.21735,171.37445,416.51544,171.79565,415.9538C172.24023,415.3922,172.59123,414.78387,172.59123,414.62006C172.59123,414.2223,173.55058,412.5843,173.92497,412.3504C174.08878,412.2567,174.22916,411.95258,174.22916,411.7185C174.22916,411.46118,174.34616,411.25055,174.46315,411.25055C174.60356,411.25055,174.83754,410.96985,174.97795,410.5954C175.14172,410.2444,175.7267,409.4488,176.28828,408.81708C176.84987,408.18524,177.36465,407.36633,177.43484,406.99194C177.50507,406.64087,177.64545,406.33673,177.76245,406.33673C177.97304,406.33673,179.37698,403.50537,179.37698,403.08423C179.37698,402.96722,179.54079,402.8269,179.72797,402.73334C179.93857,402.6631,180.07896,402.31213,180.07896,401.84412C180.07896,401.4229,180.24277,400.86133,180.42996,400.62732C180.92133,399.9721,180.92133,392.6482,180.45334,391.4782C180.21936,390.94006,180.17256,390.4721,180.31296,390.02753C180.42996,389.67645,180.61716,388.74054,180.75754,387.96832C180.87454,387.19623,181.15533,385.7688,181.36594,384.80945C181.5765,383.85004,181.8807,382.42267,182.0445,381.65057C182.20831,380.87842,182.46567,379.94244,182.60608,379.59143C182.7699,379.21698,182.88687,378.67883,182.88687,378.39807C182.88687,378.09393,183.05066,377.3451,183.23785,376.71338C183.42505,376.08154,183.58884,375.19238,183.58884,374.7478C183.58884,374.30322,183.79944,373.46088,184.05682,372.8993C184.31424,372.33765,184.52481,371.3783,184.52481,370.7232C184.52481,370.0913,184.64182,369.36603,184.78223,369.08514C184.9226,368.82776,185.06302,367.91522,185.0864,367.07288C185.13321,366.2071,185.2034,365.3413,185.27359,365.1541C185.76498,363.82037,186.32657,359.74896,186.49036,356.56665C186.51376,356.28577,186.58395,355.98163,186.70093,355.888C186.79456,355.79443,186.86475,355.4668,186.86475,355.16272C186.86475,354.83508,186.98172,354.36707,187.14554,354.08624C187.28592,353.80554,187.49652,352.89294,187.59012,352.0506C187.9411,349.17242,188.08148,348.63428,188.92386,347.04315C189.32166,346.2475,189.78964,345.77954,190.65543,345.19458C191.06096,344.93774,191.52898,344.79807,191.85194,344.79807C192.08801,344.79807,192.24658,344.87268,192.24658,345.03076C192.24658,345.14783,192.59756,345.26477,193.04214,345.26477C193.48672,345.26477,193.9313,345.14783,194.0015,345.03076C194.07172,344.89038,194.93747,344.7968,195.92026,344.7968C197.62839,344.7968,198.51755,344.53943,200.67026,343.39288C200.72737,343.36432,200.78587,343.3497,200.84645,343.3497 Z M196.4584,284.66083C194.79709,284.66083,194.35248,284.89478,194.35248,285.76056C194.35248,286.04138,194.2121,286.3689,194.0249,286.46252C193.86111,286.5562,193.18253,287.77283,192.50397,289.17688C191.1702,291.96136,191.02979,292.9676,191.66159,295.07343C192.41034,297.4602,192.08276,298.7237,190.18744,300.80627C189.69739,301.36633,189.44296,301.57294,189.19897,301.57294C189.11676,301.57294,189.03572,301.54947,188.94727,301.50818C188.64633,301.33896,188.15643,301.2604,187.63553,301.2604C186.86032,301.2604,186.01645,301.43436,185.6246,301.74225C185.297,301.99963,184.8992,302.21027,184.75879,302.21027C184.12704,302.21027,182.86346,303.23975,182.1615,304.33954C181.50632,305.3224,181.24893,305.50952,180.47678,305.6499C179.77478,305.7436,179.5174,305.93066,179.35359,306.39868C179.2366,306.72632,179.026,307.19427,178.90901,307.4048C178.76862,307.63885,178.67502,308.4344,178.67502,309.1598C178.67502,310.44678,178.60483,310.5871,177.50507,311.8039C176.40529,313.02063,176.3351,313.16107,176.3351,314.3778C176.3351,315.1266,176.12451,316.20294,175.8437,316.95172C175.46933,317.91107,175.32893,318.87042,175.28214,320.69556C175.23534,323.22272,175.18854,323.38647,173.7378,326.4986C173.36339,327.29425,173.0592,328.0429,173.0592,328.16003C173.0592,328.27698,172.70822,329.4469,172.26363,330.78064C171.84244,332.11438,171.35106,333.77576,171.18727,334.45435C171.04688,335.10956,170.81287,335.74127,170.69588,335.81146C170.57887,335.8817,170.48529,336.23267,170.48529,336.60706C170.48529,336.98145,170.3917,337.33252,170.27469,337.40265C170.1577,337.47284,169.9939,337.9408,169.90031,338.4088C169.80672,338.9002,169.33873,340.25732,168.82394,341.45074C168.33257,342.64404,167.91138,343.76727,167.91138,343.9544C167.91138,344.1416,167.81778,344.3288,167.72417,344.3756C167.49019,344.46918,166.27342,346.97296,166.27342,347.3473C166.27342,347.48773,166.17984,347.60468,166.06285,347.60468C165.94585,347.60468,165.75865,347.9557,165.68845,348.35352C165.59485,348.77472,165.45447,349.17242,165.36086,349.24268C165.26727,349.31287,164.63548,350.50623,163.9335,351.93353C163.23154,353.3376,162.59976,354.5542,162.50615,354.62445C162.43596,354.6947,162.15517,355.2563,161.85098,355.91138C161.54678,356.54327,161.0086,357.526,160.63422,358.08752C160.25983,358.6491,159.95564,359.18732,159.95564,359.28094C159.95564,359.3745,159.74506,359.7021,159.48766,360.00623C159.23027,360.3105,159.01967,360.68488,159.01967,360.872C159.01967,361.03583,158.92609,361.17627,158.83247,361.17627C158.71548,361.17627,158.3879,361.62085,158.08371,362.159C157.77953,362.72058,157.28813,363.46942,156.98395,363.82037C156.67976,364.19476,156.44576,364.68616,156.44576,364.94354C156.44576,365.1775,156.35217,365.38812,156.21176,365.38812C156.09477,365.38812,155.93097,365.6455,155.83739,365.97302C155.7672,366.30066,155.60338,366.55804,155.5098,366.55804C155.41618,366.55804,155.1822,366.909,155.0184,367.30682C154.85463,367.72803,154.52702,368.28955,154.29305,368.52362C154.05905,368.781,153.87184,369.13196,153.87184,369.31915C153.87184,369.48297,153.70807,369.7871,153.52086,369.97437C153.33366,370.18494,153.16988,370.5827,153.16988,370.8869C153.16988,371.19116,153.07626,371.47186,152.98268,371.51874C152.70189,371.6123,151.53192,374.23297,151.53192,374.72443C151.53192,374.935,151.32133,375.26257,151.06393,375.44977C150.80655,375.63696,150.59596,375.9879,150.59596,376.222C150.59596,376.45593,150.43216,376.80695,150.24496,376.99408C150.05779,377.2047,149.89398,377.6961,149.89398,378.1173C149.89398,378.74902,149.777,378.91284,149.14522,379.1234C148.72401,379.28723,147.88165,379.4745,147.27327,379.54462C146.6415,379.63818,146.1501,379.802,146.1501,379.91907C146.1501,380.036,145.9863,380.12958,145.79912,380.12958C145.61192,380.12958,145.44814,380.2232,145.44814,380.36365C145.44814,380.4806,144.93335,380.59753,144.30157,380.59753C143.506,380.59753,143.1082,380.69122,143.0146,380.9486C142.94441,381.1358,142.64023,381.29962,142.35944,381.29962C142.05525,381.29962,141.65746,381.51013,141.47028,381.76758C141.28307,382.0249,140.93208,382.2356,140.6747,382.2356C140.4407,382.2356,139.99612,382.49292,139.69191,382.8205C139.38773,383.14813,139.06013,383.40552,138.91975,383.40552C138.80275,383.40552,138.61557,383.6161,138.54535,383.87347C138.47516,384.13086,138.26456,384.3415,138.12418,384.3415C137.65619,384.3415,136.93082,386.21338,136.76701,387.85132C136.67343,388.69373,136.46283,390.68262,136.29904,392.27386C136.13524,394.12238,135.90125,395.31573,135.71407,395.5263C135.52687,395.71344,135.38646,396.32184,135.38646,397.00043C135.38646,397.6322,135.24608,398.498,135.08228,398.91913C134.89508,399.34033,134.6845,400.2295,134.5909,400.93158C134.4973,401.63348,134.26332,402.49927,134.07611,402.85028C133.91231,403.2013,133.74852,403.87982,133.74852,404.34778C133.74852,404.81573,133.60812,405.42413,133.42094,405.70496C133.23375,405.98578,133.02315,406.64087,132.92955,407.13226C132.85936,407.62366,132.62537,408.18524,132.43817,408.3725C132.25096,408.55963,132.11058,408.9574,132.11058,409.26166C132.11058,409.5658,131.94678,409.96362,131.7596,410.1742C131.57239,410.36133,131.3384,410.82935,131.2682,411.2271C131.1746,411.60156,130.98741,411.97595,130.80022,412.04614C130.61304,412.11633,130.47263,412.44397,130.47263,412.77148C130.47263,413.09906,130.30884,413.75433,130.12164,414.2223C129.86424,414.854,129.77066,416.02405,129.77066,419.11273C129.77066,422.763,129.81746,423.2544,130.23863,423.93292C130.49603,424.35413,130.70662,424.96246,130.70662,425.2901C130.70662,425.61774,130.91722,426.17926,131.1746,426.5771C131.432,426.95142,131.6426,427.5598,131.6426,427.8874C131.6426,428.2384,131.85318,428.77655,132.11058,429.10413C132.36797,429.43176,132.57857,429.94653,132.57857,430.27417C132.57857,430.5783,132.71895,430.97607,132.90616,431.11658C133.09334,431.28027,133.32733,431.7483,133.42094,432.14606C133.49113,432.56726,133.77193,433.15222,134.00592,433.45648C134.26332,433.76062,134.4505,434.15833,134.4505,434.32227C134.4505,434.5094,134.82487,435.18793,135.26947,435.81976C135.71407,436.45148,136.08844,437.05994,136.08844,437.13013C136.08844,437.20032,136.50963,437.78522,137.02441,438.39362C137.5392,439.00208,137.96037,439.61035,137.96037,439.70404C137.96037,439.89124,138.84956,440.96753,140.1365,442.37146C140.30031,442.55878,141.02568,443.4245,141.70427,444.29028C142.40623,445.17944,143.03801,445.8814,143.15501,445.8814C143.24861,445.8814,143.3422,445.99835,143.3422,446.11542C143.3422,446.25586,143.6464,446.65363,144.02078,447.02795C144.39517,447.40228,145.28433,448.3617,145.9863,449.18066C146.6883,449.9997,148.13904,451.59082,149.21541,452.6906C150.29178,453.81372,151.39153,455.03052,151.64893,455.38153C151.90631,455.75586,152.51468,456.45782,153.00607,456.94922C153.47408,457.4406,153.87184,457.90857,153.87184,457.97882C153.87184,458.049,154.24623,458.44678,154.69083,458.89136C155.13539,459.31256,155.5098,459.75714,155.5098,459.89752C155.5098,460.03796,155.95438,460.62292,156.51595,461.1845C158.27089,463.05646,159.95564,465.1858,159.95564,465.5133C159.95564,465.6303,160.16623,465.8175,160.42363,465.88776C160.68103,465.95795,160.89162,466.12177,160.89162,466.21533C160.89162,466.33234,161.2894,466.8471,161.75739,467.36188C162.24876,467.9001,162.95074,468.74243,163.32513,469.28058C163.7229,469.7954,164.0973,470.2166,164.2143,470.2166C164.3079,470.2166,164.40149,470.357,164.40149,470.5442C164.40149,470.73138,164.61209,470.96533,164.86949,471.03558C165.12686,471.10577,165.33746,471.33972,165.33746,471.52692C165.33746,471.71417,165.50127,471.92474,165.68845,471.99493C165.87564,472.06512,166.08624,472.3225,166.15643,472.55652C166.22662,472.79053,166.53082,473.2351,166.8116,473.5393C168.02838,474.89642,168.98775,476.04303,169.31532,476.53436C169.83012,477.32996,170.74268,478.4063,171.60844,479.2721C172.00626,479.6933,172.35724,480.11444,172.35724,480.20807C172.35724,480.39526,173.223,481.3546,175.65651,483.9519C176.28828,484.6305,176.80307,485.28564,176.80307,485.4027C176.80307,485.49628,177.03708,485.87067,177.34126,486.19824C178.13684,487.11084,178.67502,487.83618,178.67502,488.04675C178.67502,488.14044,178.90901,488.46796,179.21321,488.77216C179.49399,489.07635,179.93857,489.61456,180.17256,489.9655C180.42996,490.31653,180.82776,490.8313,181.06174,491.11212C181.74033,491.9544,182.2785,492.60962,182.7699,493.26483C183.02725,493.5924,183.42505,494.06036,183.63565,494.271C183.86963,494.48157,184.05682,494.78577,184.05682,494.9496C184.05682,495.11334,184.22064,495.25378,184.4078,495.25378C184.59503,495.25378,184.75879,495.41754,184.75879,495.60474C184.75879,495.79193,185.0162,496.18976,185.34381,496.47052C185.67139,496.75128,185.92877,497.12567,185.92877,497.2895C185.92877,497.45325,186.06915,497.5937,186.25638,497.5937C186.44354,497.5937,186.67755,497.80426,186.74774,498.06165C186.81793,498.31903,186.98172,498.52966,187.09875,498.52966C187.40292,498.52966,190.14063,501.26733,190.14063,501.5481C190.14063,501.68854,190.30444,501.80554,190.49164,501.80554C190.6788,501.80554,190.84262,501.89917,190.84262,502.0161C190.84262,502.13312,191.63818,502.9989,192.59756,503.93488C193.55692,504.89423,194.35248,505.7834,194.35248,505.9004C194.35248,506.04077,194.56308,506.27478,194.79709,506.41516C195.33527,506.76617,196.13083,509.12952,196.34143,511.16522C196.435,512.00757,196.669,512.99036,196.8562,513.3414C197.11359,513.8327,197.2774,516.99164,197.62839,527.7319C197.88577,535.28986,198.18997,542.4733,198.33035,543.6901C198.47073,544.9069,198.68134,547.5978,198.77496,549.6569C198.89194,552.04364,199.10254,553.70496,199.31311,554.2198C199.52371,554.68774,199.73431,555.8577,199.82791,556.8405C199.92151,557.79987,200.13211,558.8762,200.31927,559.2038C200.4831,559.53143,200.69366,560.5609,200.78726,561.4969C200.88086,562.4563,201.16168,563.83685,201.39566,564.56226C201.62967,565.311,201.84024,566.3406,201.84024,566.85535C201.84024,567.3935,201.98065,568.0955,202.16782,568.44653C202.33163,568.7975,202.58902,569.75684,202.7528,570.5758C202.89322,571.4182,203.10382,572.14355,203.2442,572.2371C203.3612,572.3074,203.54837,573.05615,203.61856,573.8985C203.71219,574.71747,203.92279,575.70026,204.13336,576.07465C204.32056,576.4724,204.53116,577.6658,204.60135,578.76556C204.67154,580.02905,204.85873,581.0821,205.13953,581.62024C205.4671,582.2754,205.60751,583.305,205.72452,586.1831C205.81808,588.68677,206.00531,590.1844,206.23929,590.72253C206.70728,591.8223,206.96466,606.0491,206.52008,607.7572C206.37967,608.36554,206.14569,611.17346,206.02869,614.00476C205.6777,622.5455,205.5607,624.01965,205.20972,624.9556C204.78851,626.1022,204.78851,628.2549,205.20972,628.6059C205.39694,628.76965,205.60751,629.2377,205.6777,629.68225C205.7713,630.12683,206.0521,630.59485,206.2861,630.7352C206.54349,630.8756,206.75406,631.13306,206.75406,631.29675C206.75406,631.4606,207.01147,631.71796,207.33908,631.8584C207.66666,631.9988,207.92404,632.2328,207.92404,632.37317C207.92404,632.4902,208.08783,632.6071,208.27502,632.6071C208.46222,632.6071,208.626,632.70074,208.626,632.81775C208.626,632.9581,209.094,633.12195,209.67899,633.2156C210.31076,633.3091,210.73193,633.4729,210.73193,633.66016C210.73193,633.8473,210.96591,634.0111,211.22333,634.05786C211.50412,634.10474,211.80832,634.2919,211.90189,634.4791C211.99548,634.66626,212.2529,635.1577,212.46347,635.57886C212.67407,635.9766,212.83789,636.5148,212.83789,636.7722C212.83789,637.0296,212.97827,637.287,213.16547,637.3572C213.35263,637.42737,213.56323,637.91876,213.65686,638.457C213.75046,638.97174,213.96103,639.5567,214.14822,639.72046C214.33542,639.9077,214.4758,640.2119,214.4758,640.3757C214.4758,640.6799,215.36499,642.7156,215.87976,643.60474C215.99677,643.792,216.41794,644.6344,216.83914,645.4767C217.23691,646.3191,217.65811,647.04443,217.7283,647.1146C217.8219,647.1848,218.0325,647.6061,218.2197,648.05066C218.38348,648.49524,218.66428,649.0334,218.85147,649.244C219.01526,649.4312,219.15567,649.7821,219.15567,649.99274C219.15567,650.20337,219.22586,650.39056,219.34283,650.39056C219.50665,650.39056,219.92786,651.25635,220.20862,652.19226C220.27884,652.49646,220.4426,652.73047,220.5596,652.73047C220.6766,652.73047,220.84042,653.10486,220.93399,653.54944C221.00418,653.994,221.168,654.4386,221.28497,654.5088C221.40198,654.579,221.49557,654.78955,221.49557,654.9768C221.49557,655.164,221.68277,655.74896,221.94016,656.31055C222.17413,656.84875,222.54855,657.8081,222.78256,658.46326C223.01654,659.0951,223.2973,659.7268,223.39093,659.86725C223.5079,659.98425,223.6015,660.2884,223.6015,660.5224C223.6015,660.7798,223.8121,661.41156,224.04611,661.94977C224.65448,663.26013,225.21606,665.0151,225.52023,666.4658C225.63727,667.1444,225.84784,667.70593,225.9414,667.70593C226.03503,667.70593,226.24564,668.40796,226.40942,669.2737C226.54984,670.13947,226.7604,671.00525,226.90082,671.23926C227.01779,671.47327,227.20499,672.4092,227.34537,673.34515C227.48578,674.2811,227.67297,675.12354,227.78998,675.1937C228.14096,675.4043,228.58554,679.6396,228.60895,683.2664C228.65573,686.0978,228.77274,687.17413,229.19394,688.83545C229.56277,690.2241,229.79079,690.78784,230.00858,690.78784C230.02567,690.78784,230.04268,690.7844,230.0597,690.7776C230.09966,690.7643,230.13623,690.7577,230.1693,690.7577C230.31047,690.7577,230.38727,690.8777,230.38727,691.1052C230.38727,691.36255,230.48087,691.5732,230.62128,691.5732C230.73825,691.5732,230.90207,691.83057,230.99567,692.15814C231.0881,692.50934,231.19511,692.6561,231.38597,692.6561C231.4367,692.6561,231.49336,692.64575,231.55725,692.6261C231.62483,692.6053,231.68549,692.5949,231.74023,692.5949C231.9319,692.5949,232.05122,692.7223,232.14221,692.9771C232.25922,693.35156,232.4932,693.44507,233.33557,693.44507C233.89716,693.44507,234.36514,693.5387,234.36514,693.6791C234.36514,693.8429,236.45352,693.9248,238.5653,693.9248C240.6771,693.9248,242.81227,693.8429,242.90588,693.6791C242.97604,693.56213,243.51425,693.44507,244.07584,693.44507C244.63742,693.44507,245.17557,693.56213,245.24579,693.6791C245.33939,693.8195,246.60294,693.9131,248.28769,693.9131C249.97241,693.9131,251.236,694.0067,251.32956,694.1471C251.42317,694.2992,252.25385,694.37524,253.08452,694.37524C253.91519,694.37524,254.74586,694.2992,254.83948,694.1471C254.93306,693.9833,257.18524,693.9014,259.414,693.9014C261.6428,693.9014,263.84818,693.9833,263.84818,694.1471C263.84818,694.2875,265.6031,694.38104,268.64502,694.38104C271.6869,694.38104,273.44186,694.4747,273.44186,694.61505C273.44186,694.7555,274.47137,694.84906,276.0859,694.84906C278.33224,694.84906,278.80023,694.7789,279.29166,694.38104C279.61923,694.12366,280.251,693.9131,280.71902,693.9131C281.63156,693.9131,281.95914,693.6089,282.66113,692.2517C282.9419,691.71356,283.05893,691.17535,282.96533,690.7308C282.8951,690.3564,282.70792,689.44385,282.56757,688.7185C282.40375,687.96967,282.19315,687.3613,282.07614,687.3613C281.95914,687.3613,281.86557,687.1507,281.86557,686.8933C281.86557,686.6359,281.72516,686.42535,281.53796,686.42535C281.37418,686.42535,281.09335,686.0978,280.9296,685.7234C280.7424,685.3022,280.4616,685.02136,280.20422,685.02136C279.9234,685.02136,279.75964,684.85754,279.75964,684.55334C279.75964,684.179,279.59586,684.0854,278.96405,684.0854C278.35565,684.0854,278.12167,683.96844,278.0047,683.61743C277.93448,683.36005,277.7005,683.1494,277.4899,683.1494C277.30273,683.1494,276.83475,682.8219,276.48373,682.4475C276.0859,682.02625,275.59454,681.7455,275.2436,681.7455C274.8458,681.7455,274.5884,681.5817,274.4948,681.2775C274.3778,680.9265,274.14383,680.8096,273.44186,680.8096C272.73987,680.8096,272.5059,680.6925,272.38885,680.34155C272.2953,680.0139,272.03787,679.87354,271.5465,679.87354C271.17212,679.87354,270.86792,679.7566,270.86792,679.6396C270.86792,679.49915,270.70413,679.4056,270.51694,679.4056C270.3297,679.4056,270.16595,679.2886,270.16595,679.17163C270.16595,679.0312,269.86176,678.9376,269.464,678.9376C269.0896,678.9376,268.762,679.0312,268.762,679.17163C268.762,679.312,268.06,679.4056,267.12402,679.4056C266.18808,679.4056,265.4861,679.312,265.4861,679.17163C265.4861,679.0312,265.18195,678.9376,264.78412,678.9376C264.40976,678.9376,264.08215,679.0312,264.08215,679.17163C264.08215,679.2886,263.61417,679.4056,263.02917,679.4056C262.4442,679.4056,261.97626,679.49915,261.97626,679.6396C261.97626,679.7566,261.64862,679.87354,261.25085,679.87354C260.8531,679.87354,260.59564,679.77997,260.68927,679.6396C260.75946,679.49915,260.61908,679.4056,260.36166,679.4056C260.0809,679.4056,259.8703,679.2886,259.8703,679.17163C259.8703,679.0312,259.6129,678.9376,259.2853,678.9376C258.95773,678.9376,258.70035,678.82056,258.70035,678.7036C258.70035,678.56323,258.48975,678.4696,258.25577,678.4696C257.99832,678.4696,257.71756,678.25903,257.6474,678.0016C257.53036,677.6272,257.29636,677.5336,256.52423,677.5336C255.79883,677.5336,255.42444,677.4166,255.19046,677.0657C255.00323,676.8082,254.62888,676.59766,254.37149,676.59766C254.1141,676.59766,253.73969,676.3871,253.55252,676.1297C253.3653,675.8723,252.9675,675.66174,252.68674,675.66174C252.38257,675.66174,252.14856,675.5447,252.14856,675.42773C252.14856,675.28735,252.00815,675.1937,251.82095,675.1937C251.63376,675.1937,251.39978,674.98315,251.32956,674.7257C251.2594,674.4683,250.97858,674.2577,250.72119,674.2577C250.4404,674.2577,250.27661,674.09393,250.27661,673.78973C250.27661,673.53235,250.11282,673.3218,249.92563,673.3218C249.7384,673.3218,249.57465,673.1346,249.57465,672.90063C249.57465,672.6666,249.36404,672.339,249.10666,672.15186C248.84924,671.9646,248.5217,671.4031,248.38126,670.93506C248.26431,670.44366,248.05371,670.0459,247.93668,670.0459C247.79633,670.0459,247.70267,669.8587,247.70267,669.6247C247.70267,669.39075,247.49213,669.0631,247.23471,668.876C246.97733,668.6887,246.64972,668.1272,246.50934,667.6592C246.39233,667.1677,246.18173,666.77,246.06476,666.77C245.92435,666.77,245.83075,666.5126,245.83075,666.18506C245.83075,665.8574,245.62015,665.17883,245.36276,664.66406C245.10541,664.1493,244.8948,663.5409,244.8948,663.3069C244.8948,663.0495,244.6842,662.1837,244.42682,661.3882C244.16943,660.5926,243.95883,659.56305,243.95883,659.1184C243.95883,658.69727,243.77164,657.9485,243.51425,657.45715C243.28024,656.98914,243.02286,655.983,242.92926,655.23413C242.85907,654.5088,242.62506,653.5026,242.46127,653.0112C242.27408,652.5433,242.06348,651.3499,241.96991,650.39056C241.87631,649.4312,241.7125,648.4484,241.59549,648.2378C241.45511,648.0038,241.19772,646.4595,241.01053,644.845C240.82333,643.207,240.56595,641.452,240.44894,640.93726C240.33194,640.39905,240.12134,638.8781,239.98096,637.54443C239.84058,636.21063,239.60657,634.87683,239.4896,634.5727C239.37259,634.2451,239.16199,632.81775,239.0216,631.367C238.7174,628.39526,238.74078,628.6059,238.95139,627.29553C239.04498,626.61694,238.9748,625.915,238.7174,625.1194C238.15582,623.43463,238.10904,622.6859,237.89844,615.2449C237.75803,609.4186,237.68784,608.48254,237.33685,608.0848C236.89227,607.5934,236.75186,604.90247,237.17307,604.6451C237.31345,604.57495,237.40704,603.8729,237.40704,603.1007C237.40704,602.0244,237.33685,601.72015,237.05606,601.72015C236.84549,601.72015,236.70508,601.5798,236.72845,601.4394C236.79865,600.8076,236.68167,600.597,236.23706,600.48004C235.6287,600.3162,235.6287,599.45044,236.21368,598.14014C236.68167,597.11053,236.72845,595.98737,236.63489,583.81976C236.61148,582.135,236.77527,579.3505,237.00925,577.619C237.21985,575.88745,237.31345,574.4367,237.21985,574.3899C236.93906,574.29626,237.14966,572.70514,237.54745,571.83936C237.73465,571.4416,237.87503,570.9268,237.87503,570.66943C237.87503,570.4354,238.01544,570.03766,238.2026,569.7803C238.36642,569.5229,238.57703,568.8443,238.6706,568.25934C238.76419,567.69775,238.92801,567.11273,239.04498,566.9489C239.1854,566.80853,239.34918,566.0364,239.41937,565.2642C239.51297,564.4686,239.72357,563.6965,239.88736,563.556C240.09796,563.3923,240.21494,562.7839,240.21494,561.9181C240.21494,561.1694,240.30856,560.51416,240.42554,560.444C241.08075,560.02277,241.47852,553.93896,241.50189,543.8071C241.50189,533.3711,241.40833,533.79224,243.65463,533.53485C246.41574,533.2307,246.88376,533.137,247.3049,532.73926C247.70267,532.3883,248.5217,532.3181,253.55252,532.2011C257.67078,532.10754,259.47253,531.9905,259.72992,531.7799C259.94052,531.5927,261.4146,531.4056,263.42697,531.26514C265.2755,531.1482,267.00705,530.93756,267.31125,530.82056C267.61545,530.6802,268.15363,530.58655,268.528,530.58655C268.92578,530.58655,269.22998,530.4696,269.22998,530.35254C269.22998,530.21216,269.39377,530.1186,269.58096,530.1186C269.7682,530.1186,270.3297,529.90796,270.7977,529.6506C271.28912,529.3932,271.87408,529.1826,272.0847,529.1826C272.43567,529.1826,273.53543,528.7146,274.91595,527.98926C275.07495,527.9097,275.25558,527.8627,275.39172,527.8627C275.45593,527.8627,275.51025,527.8731,275.54776,527.8956C275.5817,527.9183,275.61703,527.9286,275.65204,527.9286C275.7619,527.9286,275.8689,527.827,275.92218,527.68506C275.99237,527.49786,276.43695,527.2171,276.90494,527.0533C277.3963,526.88947,278.0281,526.5853,278.33224,526.3513C278.63647,526.09393,279.03424,525.90674,279.22144,525.90674C279.40866,525.90674,279.87662,525.6493,280.27444,525.3217C280.64877,524.9942,281.09335,524.7368,281.25717,524.7368C281.4444,524.7368,281.81876,524.54956,282.12296,524.3156C282.45053,524.0582,283.48013,523.7774,284.67346,523.5902C285.77325,523.4498,286.99,523.169,287.3644,523.0052C287.76218,522.818,288.76834,522.35004,289.6341,521.9523C290.54666,521.53107,291.5996,521.22687,292.1144,521.22687C292.72278,521.22687,293.16736,521.06305,293.44815,520.75885C293.64197,520.5263,293.93213,520.3901,294.14575,520.3901C294.19,520.3901,294.231,520.3959,294.26715,520.40796C294.3003,520.419,294.33978,520.42426,294.3841,520.42426C294.62152,520.42426,294.99725,520.2738,295.2733,520.0569C295.60092,519.7995,296.23267,519.4252,296.65384,519.21454C298.1748,518.5126,298.8534,518.1148,299.76596,517.366C300.28073,516.96826,300.88913,516.57043,301.1231,516.4768C301.3337,516.4066,301.5209,516.2195,301.5209,516.07904C301.5209,515.96204,301.73148,515.8451,301.98886,515.8451C302.2463,515.8451,302.45688,515.6813,302.45688,515.4941C302.45688,515.28345,302.64407,515.0729,302.87805,514.9793C303.36948,514.8155,304.32883,513.9497,304.32883,513.6923C304.32883,513.5754,304.7032,513.17755,305.14777,512.7797C305.59235,512.38196,305.89658,511.96082,305.82635,511.84375C305.75613,511.7268,305.87314,511.63318,306.08374,511.63318C306.2709,511.63318,306.52832,511.39917,306.64532,511.09503C306.8793,510.48663,309.35965,507.88934,309.7106,507.88934C309.82764,507.88934,309.9446,507.72552,309.9446,507.53833C309.9446,507.3512,310.15518,507.18738,310.4126,507.18738C310.6466,507.18738,310.9508,507.04694,311.04437,506.88318C311.46555,506.1812,312.72913,505.5962,314.34366,505.31543C315.34982,505.1516,316.0284,504.9176,316.0284,504.75378C316.0284,504.59003,316.40283,504.28583,316.84738,504.07526C317.29196,503.8647,317.66635,503.58386,317.66635,503.44348C317.66635,503.32648,317.80676,503.20947,317.97055,503.20947C318.27475,503.20947,319.53827,501.89917,319.53827,501.57153C319.53827,501.45453,319.8425,501.17377,320.21686,500.9632C320.61465,500.7292,320.96564,500.33136,321.03586,500.0506C321.19962,499.372,328.3832,492.23523,329.2256,491.90765C329.43616,491.8141,329.59995,491.60352,329.59995,491.39288C329.59995,491.2057,329.74036,491.04187,329.90417,491.04187C330.0679,491.04187,330.7231,490.36328,331.3549,489.521C331.9867,488.6786,332.59506,488.0,332.68866,488.0C332.80563,488.0,332.8759,487.6958,332.8759,487.3448C332.8759,486.9704,333.08643,486.47906,333.34384,486.245C333.60123,486.01105,333.81183,485.5899,333.81183,485.33246C333.81183,485.0517,333.95218,484.6305,334.116,484.3731C334.3032,484.11572,334.58398,483.133,334.7478,482.19702C334.91156,481.261,335.14557,480.44208,335.26257,480.3719C335.35617,480.30164,335.44977,479.81024,335.44977,479.2721C335.44977,478.7105,335.61356,478.0553,335.80075,477.77454C336.2453,477.1662,336.94733,477.09595,346.79837,476.76837C354.26273,476.53436,356.83664,476.2536,361.0719,475.224C362.3823,474.91986,363.6224,474.66248,363.833,474.66248C364.067,474.66248,364.4882,474.52203,364.76898,474.33484C365.04974,474.17108,365.84537,473.93707,366.54733,473.86682C367.2493,473.77325,368.02145,473.58606,368.25543,473.46906C368.4894,473.3521,369.28503,473.14148,370.0104,473.0011C370.75916,472.8841,371.69513,472.6267,372.06952,472.4395C372.46735,472.27576,373.3097,472.06512,373.94147,471.97156C374.59665,471.87793,375.27524,471.66736,375.46243,471.50354C375.64963,471.33972,376.44516,471.12915,377.21735,471.03558C377.98953,470.96533,378.8319,470.75476,379.08932,470.591C379.3467,470.4272,380.16568,470.2166,380.91446,470.123C381.6632,470.0528,382.59918,469.8188,382.95016,469.6316C383.32452,469.4444,383.86273,469.28058,384.16693,469.28058C384.4711,469.28058,385.0327,469.07007,385.40707,468.81262C385.80487,468.55524,386.31964,468.34467,386.60043,468.34467C386.85785,468.34467,387.16202,468.25104,387.3024,468.15747C387.89188,467.61163,391.00726,467.1677,393.91165,467.1677C394.12012,467.1677,394.32748,467.16998,394.53278,467.17468C394.63812,467.17688,394.7375,467.17804,394.83145,467.17804C395.73953,467.17804,396.1444,467.06937,396.5685,466.7301C396.8961,466.44934,397.29385,466.2387,397.4109,466.2387C397.52786,466.2387,397.76184,466.0749,397.92566,465.88776C398.08948,465.70056,398.37024,465.53674,398.58084,465.53674C398.76807,465.53674,399.353,465.34955,399.89117,465.09216C400.42938,464.85815,401.64612,464.437,402.6055,464.13275C403.5649,463.852,404.89862,463.4074,405.5304,463.1734C406.18558,462.91602,406.91095,462.72882,407.16837,462.72882C407.42575,462.72882,408.03412,462.51825,408.52548,462.26086C408.9935,462.00348,409.5317,461.79285,409.69547,461.79285C409.85925,461.79285,410.37405,461.58228,410.86542,461.3249C411.33344,461.0675,412.0354,460.85693,412.40976,460.85693C412.80756,460.85693,413.18198,460.7633,413.25214,460.62292C413.32233,460.50592,414.00092,460.2251,414.7263,460.01453C415.4517,459.80396,416.10684,459.56995,416.17706,459.47638C416.3643,459.24237,418.79773,458.3064,419.61676,458.14258C420.03793,458.049,420.50592,457.83838,420.64627,457.67468C420.7867,457.48737,421.04407,457.34705,421.1845,457.34705C421.32486,457.34705,422.28424,456.92584,423.3138,456.41107C424.34338,455.8963,425.27933,455.4751,425.41974,455.4751C425.53674,455.4751,426.9173,454.8667,428.46164,454.09454C430.00598,453.3457,431.52695,452.59705,431.8545,452.45654C432.18213,452.31616,432.6033,452.1056,432.7905,452.01196C433.3755,451.661,434.756,451.076,435.3176,450.91223C435.5984,450.84204,435.83237,450.67828,435.83237,450.56122C435.83237,450.46765,436.1132,450.25708,436.48758,450.11664C436.83853,449.97626,437.49374,449.64868,437.93832,449.3913C438.3829,449.1339,438.92105,448.92328,439.13168,448.92328C439.34225,448.92328,439.64645,448.75946,439.81027,448.57233C439.9741,448.38513,440.18466,448.2213,440.27823,448.2213C440.39523,448.2213,441.2844,447.75336,442.2438,447.1684C443.22653,446.58337,444.1157,446.11542,444.20932,446.11542C444.30295,446.11542,444.63046,445.9048,444.9581,445.6474C445.28568,445.39,445.73026,445.17944,445.96426,445.17944C446.1982,445.17944,446.43222,445.01563,446.50247,444.8285C446.59604,444.64124,446.8066,444.47748,447.01718,444.47748C447.20444,444.47748,447.5554,444.33704,447.74258,444.14984C448.11697,443.8457,453.1478,443.07355,454.856,443.07355C455.32394,443.07355,455.7217,442.95648,455.7217,442.83948C455.7217,442.6991,456.23654,442.60553,456.8917,442.60553C457.99142,442.60553,461.45456,441.76312,462.7415,441.17822C464.98782,440.14862,465.78336,439.65717,468.00632,437.97253C468.9189,437.27045,470.93118,436.28772,471.4694,436.28772C471.68002,436.28772,471.86722,436.19415,471.86722,436.0537C471.86722,435.9367,472.21817,435.67938,472.63937,435.46875C474.1603,434.76685,476.43002,433.45648,476.6874,433.1054C476.82785,432.9417,477.13205,432.77777,477.34256,432.77777C477.5532,432.77777,477.90414,432.40344,478.11478,431.95886C478.32535,431.51428,478.58273,431.13995,478.69974,431.13995C478.79337,431.13995,478.88693,430.92926,478.88693,430.67194C478.88693,430.3911,478.7231,430.20398,478.5126,430.20398C477.9744,430.20398,478.20834,429.4084,478.76993,429.31482C479.0273,429.268,479.68253,429.01056,480.22073,428.77655C480.75888,428.5426,481.2971,428.33197,481.39066,428.33197C481.50766,428.33197,481.92886,427.98102,482.32663,427.5598C482.98184,426.90466,483.05197,426.67065,483.0286,425.5943C483.00522,424.82214,482.8882,424.35413,482.70102,424.35413C482.56064,424.35413,482.8414,423.90955,483.35617,423.39478C483.91776,422.80975,484.2454,422.27155,484.17514,422.0844C484.08157,421.89722,484.03476,421.26538,484.03476,420.70386C484.03476,419.76788,483.988,419.67432,483.4498,419.67432C483.12222,419.67432,482.86484,419.5573,482.86484,419.44025C482.86484,419.29993,482.35,419.20636,481.69485,419.20636C480.54825,419.20636,480.3143,419.06586,480.7355,418.62128C480.9929,418.34058,480.3845,416.375,479.9633,416.1176C479.78085,415.98883,478.75198,415.92896,477.69138,415.92896C476.43933,415.92896,475.1431,416.0124,475.1431,416.16443C475.1431,416.28137,474.8857,416.39838,474.55807,416.39838C474.2305,416.39838,473.9731,416.49207,473.9731,416.6324C473.9731,416.74933,473.50516,416.8664,472.92014,416.8664C472.33517,416.8664,471.86722,416.96002,471.86722,417.07697C471.86722,417.1939,471.329,417.33435,470.69724,417.42798C470.04208,417.52155,469.52725,417.6853,469.52725,417.8023C469.52725,417.94275,469.26987,418.03632,468.9423,418.03632C468.5211,418.03632,468.35733,417.91937,468.35733,417.56836C468.35733,416.65576,467.8425,415.93042,467.0469,415.78998C466.86087,415.75812,466.67,415.74313,466.48615,415.74313C465.86047,415.74313,465.3154,415.91653,465.3154,416.1878C465.3154,416.30475,465.17502,416.39838,464.98782,416.39838C464.80063,416.39838,464.56662,416.609,464.49643,416.8664C464.4028,417.12378,464.14542,417.33435,463.88803,417.33435C463.6307,417.33435,463.37326,417.49817,463.30307,417.6853C463.2095,417.87256,462.8585,418.03632,462.50754,418.03632C462.03952,418.03632,461.78214,418.17676,461.68857,418.50433C461.57156,418.87872,461.3375,418.9723,460.61215,418.9723C460.0038,418.9723,459.62943,419.0893,459.55917,419.3233C459.4656,419.51044,459.1614,419.67432,458.8572,419.67432C458.553,419.67432,458.29562,419.76788,458.29562,419.90826C458.29562,420.02527,458.08505,420.14233,457.82767,420.14233C457.57028,420.14233,457.3597,420.2359,457.3597,420.37622C457.3597,420.4933,457.03207,420.6103,456.6343,420.6103C455.8387,420.6103,454.31778,421.242,454.31778,421.56964C454.31778,421.68658,454.1774,421.78015,454.01358,421.78015C453.84976,421.78015,453.40518,422.20135,453.00742,422.71613C452.63303,423.23096,452.11826,423.90955,451.86087,424.21375C451.60342,424.4945,451.0887,425.14978,450.6909,425.6411C448.37436,428.58936,446.01102,430.43787,444.56033,430.43787C444.18594,430.43787,443.6711,430.60168,443.41373,430.7655C443.13297,430.95264,442.43094,431.23352,441.8226,431.39728C441.23764,431.53766,440.67606,431.7483,440.6058,431.86523C440.53568,431.98224,440.30167,432.07593,440.09103,432.07593C439.8571,432.07593,439.31888,432.28644,438.85092,432.5205C438.3829,432.77777,437.56393,433.08203,437.04916,433.2458C436.51096,433.3863,436.0664,433.5968,436.0664,433.71375C436.0664,433.80737,435.62183,433.9712,435.08362,434.06476C434.52203,434.15833,433.86685,434.36902,433.58606,434.53278C433.30527,434.71997,432.72028,434.93054,432.25232,435.00073C431.78433,435.0943,431.29294,435.305,431.12915,435.49213C430.98874,435.67938,430.68454,435.81976,430.47394,435.81976C430.2634,435.81976,429.79538,436.03033,429.3976,436.28772C429.02322,436.5451,428.48502,436.75574,428.22766,436.75574C427.9702,436.75574,427.45547,436.91943,427.0811,437.10675C426.7301,437.29388,425.8877,437.59808,425.20914,437.78522C424.554,437.97253,423.7116,438.22986,423.3138,438.34686C420.27194,439.3531,419.49973,439.5636,419.05518,439.5636C418.79773,439.5636,418.0022,439.77417,417.30023,440.00818C416.08347,440.45276,415.03052,440.6634,410.91223,441.31854C409.7657,441.5058,408.6191,441.76312,408.4085,441.9035C408.17453,442.0205,407.26196,442.23114,406.39618,442.37146C405.507,442.48853,404.47748,442.7459,404.10306,442.95648C403.72867,443.14368,403.0501,443.30743,402.6055,443.30743C402.16092,443.30743,401.38873,443.51813,400.89737,443.77545C400.42938,444.0329,399.79758,444.2434,399.5168,444.2434C399.21265,444.2434,398.6744,444.4541,398.27664,444.7115C397.90228,444.96887,397.36407,445.17944,397.1067,445.17944C396.84927,445.17944,396.4515,445.39,396.21753,445.6474C396.00696,445.9048,395.56238,446.11542,395.25812,446.11542C394.93057,446.11542,394.60297,446.23242,394.53278,446.34937C394.4392,446.48975,393.97122,446.77057,393.45642,446.98114C392.965,447.1684,392.54385,447.42572,392.54385,447.54272C392.54385,447.6598,392.33325,447.75336,392.07587,447.75336C391.8419,447.75336,391.4441,447.96393,391.2101,448.19794C390.97614,448.45532,390.50812,448.7127,390.1571,448.80627C389.78275,448.8999,389.50192,449.06372,389.50192,449.1573C389.50192,449.27423,389.10416,449.48492,388.63617,449.64868C388.14478,449.78906,387.63,449.9997,387.513,450.11664C387.37262,450.21027,386.06226,450.4209,384.58813,450.56122C383.11395,450.70166,381.21863,450.9356,380.37622,451.0526C379.53387,451.16962,377.59174,451.427,376.0474,451.6142C374.50305,451.778,372.6545,452.1056,371.95255,452.2928C371.25058,452.50342,370.4082,452.66724,370.0572,452.66724C369.70624,452.66724,369.00424,452.83093,368.46603,453.0182C367.90448,453.20538,366.5707,453.46277,365.47095,453.60315C364.37115,453.74353,363.24805,453.9776,362.9906,454.11792C362.51706,454.3611,361.3014,454.49225,360.0942,454.49225C359.09442,454.49225,358.10043,454.40228,357.53864,454.2115C356.93027,454.00098,356.18146,453.8371,355.85388,453.8371C355.5497,453.8371,354.9647,453.69672,354.56693,453.50952C354.14575,453.32233,353.13956,453.04156,352.29718,452.90112C346.58777,451.9184,344.97324,451.59082,343.1013,450.9356C342.49295,450.72504,341.74414,450.56122,341.43994,450.56122C341.13577,450.56122,340.4338,450.39746,339.8956,450.21027C339.35742,450.02307,338.3747,449.8593,337.71948,449.8593C336.61972,449.8593,335.89435,449.7188,333.765,449.11047C332.92267,448.8531,332.8759,448.78284,332.8759,447.91718C332.8759,447.3789,333.0396,446.794,333.2502,446.56C333.46082,446.326,333.67142,445.7176,333.7416,445.20282C333.81183,444.6646,333.95218,444.2434,334.0692,444.2434C334.1862,444.2434,334.4202,443.89246,334.60736,443.44794C334.7946,443.02673,335.05197,442.58215,335.19238,442.5119C335.33276,442.41833,335.44977,442.09076,335.44977,441.76312C335.44977,441.43555,335.61356,441.13135,335.80075,441.06116C335.9879,440.9909,336.19852,440.45276,336.2921,439.86786C336.50272,438.39362,337.11108,437.50452,339.56802,435.00073C340.76138,433.80737,341.86115,432.49713,342.02496,432.0993C342.21213,431.70148,342.53973,431.3037,342.75034,431.23352C342.9843,431.16333,343.17154,431.0229,343.17154,430.90588C343.17154,430.78894,343.77985,430.4145,344.50525,430.06348L345.86243,429.43176L350.47205,429.59552C351.6259,429.6316,352.5818,429.6503,353.32635,429.6503C354.51453,429.6503,355.16455,429.60266,355.22208,429.50195C355.29233,429.38495,355.5497,429.268,355.7837,429.268C356.01767,429.268,356.57922,428.98718,357.0472,428.61273C358.17038,427.79382,358.47458,426.67065,358.2874,424.284C358.147,422.59918,358.17038,422.38855,358.7554,421.38245C359.50415,420.14233,359.62115,419.06586,359.12976,418.3172C358.82556,417.84918,358.82556,417.75555,359.17654,417.35773C359.66797,416.81958,359.69135,414.9242,359.19998,414.4328C358.732,413.98822,358.732,412.88855,359.19998,412.88855C359.76154,412.88855,361.25912,411.95258,361.93768,411.15698C362.42908,410.5954,362.56946,410.1742,362.59283,409.3084C362.59283,408.70007,362.49924,408.20868,362.3823,408.20868C362.28864,408.20868,362.00787,407.74066,361.79727,407.15564C361.5633,406.57074,361.2825,406.10272,361.1421,406.10272C360.90808,406.10272,360.2529,405.51782,360.2529,405.30713C360.2529,405.21356,359.92535,404.81573,359.52753,404.41797C359.12976,403.99683,358.66174,403.3416,358.47458,402.94385C358.2874,402.5694,357.98322,401.9845,357.81943,401.65686C357.562,401.21228,357.53864,400.53375,357.6556,398.732C357.84283,396.15802,357.37485,390.33167,356.95364,389.8169C356.78983,389.6297,356.76645,389.06818,356.86005,388.3661C356.95364,387.73438,356.90686,386.7984,356.78983,386.30707C356.64944,385.79218,356.41547,384.9499,356.27505,384.38824C356.13464,383.85004,355.92407,383.40552,355.8071,383.40552C355.66666,383.40552,355.5731,383.26508,355.5731,383.07794C355.5731,382.68018,353.74796,380.76135,353.16293,380.5274C352.9524,380.4572,352.76517,380.2232,352.76517,380.036C352.76517,379.82544,352.50778,379.6148,352.1802,379.52124C351.8526,379.45105,351.5952,379.28723,351.5952,379.17023C351.5952,379.05328,351.3846,378.95972,351.12723,378.95972C350.8698,378.95972,350.65927,378.84265,350.65927,378.72565C350.65927,378.58527,350.19122,378.4917,349.6063,378.4917C349.0213,378.4917,348.5533,378.39807,348.5533,378.30444C348.5533,378.1875,348.1321,377.90662,347.61734,377.64935C347.10257,377.41528,346.6814,377.13458,346.6814,377.01752C346.6814,376.9239,346.4708,376.8537,346.2134,376.8537C345.95602,376.8537,345.74542,376.73676,345.74542,376.61975C345.74542,376.4793,345.44122,376.38574,345.09024,376.38574C344.73926,376.38574,344.31808,376.2688,344.15427,376.10498C344.01385,375.96454,342.9843,375.7774,341.88455,375.73053C340.78476,375.68378,339.8956,375.54333,339.8956,375.4264C339.8956,375.30945,339.6382,375.21576,339.31064,375.21576C338.983,375.21576,338.72565,375.09875,338.72565,374.9818C338.72565,374.84143,338.21088,374.7478,337.5557,374.7478C336.9239,374.7478,336.38574,374.84143,336.38574,374.9818C336.38574,375.12213,334.67758,375.21576,331.70587,375.21576C328.7342,375.21576,327.02603,375.30945,327.02603,375.44977C327.02603,375.5667,326.72186,375.68378,326.37085,375.68378C325.4115,375.68378,323.18854,376.31555,323.09497,376.5963C323.0482,376.73676,322.74396,376.8537,322.4398,376.8537C322.13562,376.8537,321.8782,376.94727,321.8782,377.0877C321.8782,377.2047,321.7846,377.32172,321.64423,377.32172C321.08264,377.32172,319.51486,378.16406,319.39792,378.5385C319.3277,378.7724,319.07028,378.95972,318.8129,378.95972C318.57892,378.95972,318.36832,379.05328,318.36832,379.1936C318.36832,379.31067,318.22794,379.42767,318.04077,379.42767C317.87695,379.42767,317.52597,379.685,317.29196,380.01263C317.05798,380.34027,316.66022,380.59753,316.44962,380.59753C316.2156,380.59753,316.0284,380.69122,316.0284,380.8316C316.0284,380.9486,315.8646,381.06555,315.67743,381.06555C315.46683,381.06555,315.25623,381.22943,315.186,381.41656C315.09244,381.60376,314.90524,381.76758,314.71805,381.76758C314.53085,381.76758,314.39047,381.86115,314.39047,382.00153C314.39047,382.11853,314.22665,382.2356,314.03946,382.2356C313.8523,382.2356,313.6417,382.49292,313.5481,382.8205C313.45453,383.19495,313.24393,383.40552,312.9631,383.40552C312.68228,383.40552,312.51855,383.56934,312.51855,383.87347C312.51855,384.13086,312.37814,384.3415,312.19092,384.3415C312.00375,384.3415,311.7697,384.669,311.67615,385.0902C311.606,385.5114,311.3954,385.956,311.23157,386.09637C311.06775,386.21338,310.88058,386.82184,310.81036,387.4301C310.76358,388.03857,310.5296,388.69373,310.319,388.90436C310.1084,389.11493,309.9446,389.53613,309.9446,389.8637C309.9446,390.16785,309.851,390.4253,309.734,390.4253C309.61703,390.4253,309.4766,390.706,309.40643,391.057C309.10226,392.50775,308.93845,393.11615,308.75125,393.23322C308.65768,393.30334,308.44708,394.44995,308.28326,395.80707C308.11948,397.16425,307.8855,398.33417,307.74512,398.42773C307.62808,398.52142,307.4643,399.27014,307.41748,400.11255C307.3707,400.95496,307.23032,401.65686,307.1367,401.65686C307.0197,401.65686,306.80914,402.26526,306.64532,402.9906C306.34116,404.34778,305.99014,404.9328,305.52216,404.9328C305.38177,404.9328,305.26477,405.02643,305.26477,405.14337C305.26477,405.2603,305.0308,405.40076,304.75,405.44757C304.399,405.4944,304.1884,405.70496,304.1416,406.0326C304.09482,406.38348,303.90762,406.57074,303.60345,406.57074C303.36948,406.57074,303.15887,406.6643,303.15887,406.8047C303.15887,406.92175,302.94827,407.0387,302.71426,407.0387C302.45688,407.0387,302.10587,407.2025,301.89526,407.3897C301.7081,407.57684,301.4039,407.74066,301.1933,407.74066C301.0061,407.74066,300.7721,407.9513,300.70193,408.20868C300.63174,408.46606,300.35095,408.67664,300.0935,408.67664C299.85953,408.67664,299.64896,408.84045,299.64896,409.02765C299.64896,409.21484,299.46176,409.3786,299.22778,409.3786C298.99377,409.3786,298.6662,409.58923,298.47897,409.84656C298.245,410.1742,297.8706,410.31458,297.30902,410.31458C296.74747,410.31458,296.37308,410.1742,296.13907,409.84656C295.95187,409.58923,295.6243,409.3786,295.4137,409.3786C295.20313,409.3786,294.96912,409.21484,294.87552,409.02765C294.8053,408.84045,294.5479,408.67664,294.3373,408.67664C294.10333,408.67664,293.75235,408.46606,293.5652,408.20868C293.37796,407.9513,292.98016,407.74066,292.676,407.74066C292.3718,407.74066,291.97403,407.57684,291.78683,407.3897C291.57623,407.2025,291.13162,407.0387,290.78064,407.0387C290.42966,407.0387,290.00845,406.85156,289.8213,406.57074C289.6341,406.31335,289.3065,406.10272,289.0725,406.10272C288.8385,406.10272,288.6513,406.00916,288.6513,405.89215C288.6513,405.7751,288.23013,405.63477,287.71533,405.5412C287.2006,405.47095,286.7794,405.28375,286.7794,405.1668C286.7794,405.02643,286.6156,404.9328,286.4284,404.9328C286.24124,404.9328,286.07742,404.81573,286.07742,404.6988C286.07742,404.55835,285.86682,404.46478,285.60944,404.46478C285.35205,404.46478,285.14145,404.34778,285.14145,404.23083C285.14145,404.0904,284.97763,403.99683,284.79047,403.99683C284.60324,403.99683,284.43948,403.9032,284.43948,403.78625C284.43948,403.66925,284.06506,403.50537,283.62048,403.43518C283.17587,403.3416,282.80154,403.1778,282.80154,403.0608C282.80154,402.9204,282.59094,402.8269,282.33356,402.8269C282.07614,402.8269,281.86557,402.70984,281.86557,402.59283C281.86557,402.45245,281.60815,402.3589,281.28058,402.3589C280.953,402.3589,280.6956,402.26526,280.6956,402.1482C280.6956,402.03125,280.3914,401.8675,279.99362,401.77386C279.61923,401.68024,279.29166,401.51648,279.29166,401.39954C279.29166,401.28253,279.12787,401.18884,278.91727,401.18884C278.73007,401.18884,278.2153,400.8145,277.7941,400.36993C277.34952,399.92535,276.9283,399.55103,276.83475,399.55103C276.7645,399.55103,276.31995,399.17657,275.87537,398.732C275.45416,398.2874,275.033,397.91302,274.9628,397.91302C274.89258,397.91302,274.3778,397.445,273.83963,396.8601C273.27805,396.2751,272.73987,395.80707,272.64624,395.80707C272.55267,395.80707,272.13147,395.43274,271.71027,394.98816C271.2657,394.54358,270.86792,394.16913,270.77432,394.16913C270.70413,394.16913,269.90857,393.42035,269.01938,392.53113C268.13022,391.6186,267.28784,390.8933,267.17087,390.8933C267.03046,390.8933,266.84326,390.68262,266.77304,390.4253C266.70288,390.16785,266.51566,389.95734,266.39868,389.95734C266.28168,389.95734,266.18808,389.79346,266.18808,389.60632C266.18808,389.41907,266.00085,389.25525,265.7903,389.25525C265.5563,389.25525,265.0649,388.88086,264.66714,388.43634C264.29276,387.99176,263.87155,387.61737,263.75458,387.61737C263.63757,387.61737,263.23978,387.24298,262.842,386.7984C262.46762,386.35382,262.04642,385.97943,261.9294,385.97943C261.78903,385.97943,261.36783,385.62842,260.94666,385.2072C260.5489,384.78607,259.94052,384.29462,259.58948,384.13086C259.21512,383.94366,258.93433,383.70966,258.93433,383.5927C258.93433,383.49908,258.79395,383.40552,258.60675,383.40552C258.41953,383.40552,258.23236,383.2417,258.13876,383.0545C258.06854,382.8673,257.88138,382.70355,257.71756,382.70355C257.53036,382.70355,257.24957,382.49292,257.06238,382.2356C256.8752,381.9781,256.6412,381.76758,256.52423,381.76758C256.4306,381.76758,256.10303,381.51013,255.79883,381.18256C255.49466,380.85504,255.16705,380.59753,255.07346,380.59753C254.97986,380.59753,254.58209,380.2232,254.18427,379.77863C253.8099,379.33405,253.41208,378.95972,253.29514,378.95972C252.94412,378.95972,248.98965,374.818,248.5217,373.95227C248.26431,373.48425,247.98349,373.10986,247.8899,373.10986C247.77289,373.10986,247.70267,372.94604,247.70267,372.75885C247.70267,372.57172,247.44531,372.1739,247.11774,371.84625C246.7901,371.51874,246.53271,371.0741,246.53271,370.84015C246.53271,370.60614,246.32211,370.27856,246.06476,370.1147C245.80737,369.95093,245.59677,369.64673,245.59677,369.41278C245.59677,369.1787,245.38617,368.82776,245.12878,368.5938C244.8714,368.38318,244.6608,368.05566,244.6608,367.8684C244.6608,367.6812,244.49701,367.49402,244.30981,367.40045C244.12262,367.3302,243.95883,367.16644,243.95883,367.02606C243.95883,366.74524,243.77164,366.5113,242.67188,365.27112C242.29749,364.84998,241.75931,364.21814,241.5253,363.89063C241.29132,363.563,240.94034,363.28217,240.77652,363.28217C240.61273,363.28217,240.40216,363.04822,240.33194,362.79077C240.23834,362.51007,239.37259,361.48047,238.43661,360.521C237.47723,359.56165,236.70508,358.6725,236.70508,358.57892C236.70508,358.46198,236.54129,358.3684,236.35406,358.3684C236.1669,358.3684,236.00308,358.25134,236.00308,358.13434C236.00308,357.99396,235.23093,357.1516,234.31836,356.239C233.38235,355.34985,232.1188,354.1565,231.53384,353.57147C230.92548,352.9865,230.34048,352.51855,230.22351,352.51855C230.1065,352.51855,229.8725,352.2611,229.73212,351.93353C229.5917,351.60596,229.3577,351.3485,229.24072,351.3485C229.00671,351.3485,228.42175,350.85718,226.36261,348.93848C225.84784,348.47046,225.26285,348.0727,225.09906,348.0727C224.91187,348.0727,224.77145,347.9557,224.77145,347.83875C224.77145,347.69824,224.35028,347.1601,223.83551,346.64532C223.32071,346.13055,222.89954,345.61578,222.89954,345.54565C222.89954,345.45197,222.26776,344.77338,221.49557,344.00116C220.72342,343.25244,220.09161,342.55048,220.09161,342.43347C220.09161,342.31647,219.92786,342.22284,219.74063,342.22284C219.55344,342.22284,219.38965,342.12927,219.38965,342.01233C219.38965,341.73145,218.28989,340.58496,217.98572,340.58496C217.86871,340.58496,217.75171,340.46796,217.75171,340.3509C217.75171,340.21057,217.56451,339.9297,217.30713,339.67242C217.07315,339.43835,216.76892,339.0874,216.67532,338.9002C216.34775,338.33862,214.8736,336.58368,214.31204,336.0689C214.00784,335.81146,213.77383,335.5074,213.77383,335.39032C213.77383,335.27332,213.65686,335.06274,213.53986,334.89886C213.39948,334.7351,212.81448,333.98633,212.2529,333.21423C211.69131,332.44202,210.84894,331.31885,210.38095,330.71045C209.93634,330.1255,209.56198,329.56396,209.56198,329.4469C209.56198,329.35327,209.18759,328.72156,208.74301,328.06635C208.29843,327.38782,207.83044,326.5688,207.69006,326.28802C207.54965,325.98383,207.29224,325.46906,207.10507,325.14148C206.91788,324.81384,206.75406,324.29907,206.75406,324.0183C206.75406,323.7141,206.61368,323.12915,206.42648,322.73138C206.23929,322.31018,206.02869,321.28058,205.93512,320.41486C205.84149,319.5257,205.63092,318.73004,205.4671,318.58972C205.27994,318.42584,205.06934,317.95782,204.97574,317.51324C204.90555,317.06873,204.74173,316.64752,204.62476,316.57727C204.50775,316.53052,204.32056,316.01575,204.15677,315.4776C204.01636,314.93945,203.73557,314.30756,203.52496,314.05023C202.94,313.41846,202.823,308.36414,203.3378,306.60925C203.92279,304.57355,204.29715,299.87036,203.96957,298.3025C203.82916,297.5772,203.71219,296.71143,203.71219,296.3838C203.71219,296.03284,203.52496,295.49463,203.31439,295.19043C202.98679,294.74585,202.89322,294.13745,202.89322,292.6867C202.89322,290.93176,202.823,290.69788,202.26141,290.11285C201.58282,289.36407,200.90427,288.1239,200.90427,287.58575C200.90427,287.3985,200.81067,287.23468,200.71707,287.23468C200.6001,287.23468,199.94492,286.64978,199.24292,285.9477L197.97937,284.66083 Z"/> </g> </g> </svg>