<?xml version="1.0" encoding="UTF-8"?>
<svg version="1.1" viewBox="0 0 2048 2048" xmlns="http://www.w3.org/2000/svg">
 <g transform="translate(-317.56 1048.9)">
  <g transform="matrix(2.0086 0 0 2.0086 -1890.9 644.28)">
   <path transform="matrix(.52516 0 0 .52516 961.79 -828.87)" d="m1927.4-26.812c-3.3524 0.07344-7.1708 1.5987-10.625 6.1562-4.903 6.8356-643.36 893.28-788.72 1155.1 3.4659 1.1301 7.0146 2.2863 10.594 3.5626 22.432 7.9982 47.227 18.928 73.688 33.812 31.47 17.703 65.316 40.999 100.44 71.531 159.61-258.86 621.6-1243.4 625.19-1251 3.3155-8.5147 0.048-14.635-3.3438-17-0.2121-0.14776-0.4414-0.29314-0.6874-0.4375-1.6144-0.94766-3.9239-1.7759-6.5313-1.7188zm-816.91 1194.8c-2.4601 5.1291-4.5491 9.8079-6.25 13.969-54.017 132.14-135 290.79-157.41 351.28 42.954 6.6425 80.27 30.312 104.84 63.906 41.841-48.874 140.68-196.21 229.34-306.91 3.3793-4.2192 7.1429-9.3124 11.219-15.188-31.872-28.182-62.454-49.826-90.812-66.406-27.44-16.044-52.803-27.369-75.344-35.406-5.3875-1.921-10.565-3.6866-15.594-5.25z" fill="#333"/>
   <path transform="matrix(.52516 0 0 .52516 961.79 -828.87)" d="m912.88 1881c-0.67953-0.042-1.1908-0.018-1.875-0.062-6.6211-0.4269-13.478-0.9658-20.406-1.625s-13.929-1.4375-20.938-2.375-14.013-2.0194-20.875-3.2813c-6.8617-1.2618-13.607-2.7114-20.094-4.3437s-12.709-3.4513-18.594-5.5c-2.9426-1.0243-5.813-2.1129-8.5625-3.25s-5.3784-2.3382-7.9062-3.5937c-2.5279-1.2556-4.9408-2.5577-7.2188-3.9376-2.2779-1.3798-4.438-2.8339-6.4375-4.3437s-3.8386-3.0732-5.5312-4.7187c-1.6927-1.6456-3.2363-3.3692-4.5938-5.1563s-2.5375-3.6594-3.5312-5.5937c-0.99374-1.9344-1.8046-3.9439-2.4062-6.0313s-1.0064-4.2538-1.1875-6.5-0.14286-4.558 0.125-6.9687c0.26786-2.4108 0.38008-4.7882 0.3125-7.0938-0.0676-2.3056-0.30559-4.5475-0.6875-6.75s-0.91861-4.3362-1.5938-6.4375-1.4902-4.1543-2.4375-6.1563c-0.94727-2.0019-2.0205-3.9704-3.2188-5.875-1.1983-1.9045-2.5093-3.7534-3.9375-5.5624-1.4282-1.8091-2.988-3.5658-4.625-5.2813s-3.3627-3.4074-5.1875-5.0313c-1.8248-1.6238-3.7274-3.1845-5.7188-4.7187s-4.0818-3.0224-6.2188-4.4687c-0.88724-0.6006-1.9028-1.1019-2.8125-1.6876-32.24 71.64-83.637 116.01-189.28 135.69-17.301 3.2224-11.591 24.312 0 24.312 124.74 0 268.23-0.586 375.44-33.656z" fill="#3f9ee6"/>
   <path transform="matrix(.52516 0 0 .52516 961.79 -828.87)" d="m909.94 1549.3c-78.859 0-144.44 56.871-157.94 131.84-7.2725 27.141-15.41 51.565-25.281 73.5 0.90975 0.5857 1.9253 1.087 2.8125 1.6876 2.1369 1.4463 4.2274 2.9345 6.2188 4.4687s3.894 3.0949 5.7188 4.7187c1.8248 1.6239 3.5504 3.3158 5.1875 5.0313s3.1968 3.4722 4.625 5.2813c1.4282 1.809 2.7392 3.6579 3.9375 5.5624 1.1983 1.9046 2.2715 3.8731 3.2188 5.875 0.94727 2.002 1.7624 4.055 2.4375 6.1563s1.2118 4.235 1.5938 6.4375 0.61992 4.4444 0.6875 6.75c0.0676 2.3056-0.0446 4.683-0.3125 7.0938-0.26786 2.4107-0.3061 4.7225-0.125 6.9687s0.58587 4.4126 1.1875 6.5 1.4125 4.0969 2.4062 6.0313c0.99374 1.9343 2.1738 3.8066 3.5312 5.5937s2.9011 3.5107 4.5938 5.1563c1.6927 1.6455 3.5317 3.2089 5.5312 4.7187s4.1596 2.9639 6.4375 4.3437c2.2779 1.3799 4.6908 2.682 7.2188 3.9376 2.5279 1.2555 5.1568 2.4566 7.9062 3.5937s5.6199 2.2257 8.5625 3.25c5.8852 2.0487 12.107 3.8677 18.594 5.5s13.232 3.0819 20.094 4.3437c6.8617 1.2619 13.866 2.3438 20.875 3.2813s14.009 1.7158 20.938 2.375 13.785 1.1981 20.406 1.625c0.68415 0.044 1.1955 0.021 1.875 0.062 61.842-19.076 111.65-48.902 138.72-95.781 11.99-22.482 18.781-48.18 18.781-75.438 0-88.626-71.812-160.47-160.44-160.47z" fill="#2283b4"/>
  </g>
 </g>
</svg>
