<?xml version="1.0" encoding="UTF-8"?>
<svg viewBox="0 0 741 1349" xmlns="http://www.w3.org/2000/svg">
 <g fill-rule="evenodd" stroke-width=".5">
  <path d="m0 674.5v-674.5h741v1349h-741v-674.5zm447.8-488.3l0.2 0.3 1 0.5 1 0.5 0.2 0.3 0.3 0.2 0.3 0.2 0.2 0.3-10.5 0.5q-10.5 0.5-12.3 2.8-1.7 2.2-5 4-3.2 1.7-3.4 5-0.3 3.2 2 5.4 2.2 2.3 3.4 6 1.3 3.8 1.8 10.3l0.5 6.5-0.3 0.2-0.2 0.3-0.2 0.3-0.3 0.2-0.3 0.2-0.2 0.3-0.2 0.3-0.3 0.2-0.3 0.2-0.2 0.3-0.2 0.3-0.3 0.2-0.3 0.2-0.2 0.3-1 0.5-1 0.5-1 0.5-1 0.5-1 0.5-1 0.5-0.2 0.3-0.3 0.2-0.5-3q-0.5-3-0.8-4-0.2-1-1.2-1.2l-1-0.3h-4l-1 0.3-1 0.2 0.2 1.5 0.3 1.5-0.3 10.5q-0.2 10.5 1.8 11.7 2 1.3 0.5 2.3t-1.7 1.3l-0.3 0.2-0.3 0.2-0.2 0.3-1 0.5-1 0.5-0.2 0.3-0.3 0.2-0.3 0.2-0.2 0.3-0.2 0.3-0.3 0.2-0.3 0.2-0.2 0.3-0.2 0.3-0.3 0.2-0.3 0.2q-0.2 0.3-3.7 0.3t-6.3-3.3l-2.7-3.2-0.3 0.2-0.2 0.3-1.5 0.5-1.5 0.5-1 0.3-1 0.2-0.2 2-0.3 2-1.5 3q-1.5 3-2.5 5t2.3 5.2q3.2 3.3 7.2 5.8t10.5 3.5 16.5 6 15 8.5 30.5 12 27.5 9.8q2 1.2 8.5 10.7t13.7 15.5q7.3 6 13.8 12t15.8 13.2q9.2 7.3 24 17 14.7 9.8 20.7 15.8t13.5 17 13 20 11.5 21 21.7 46.2q15.8 34.3 22.8 46.3t12.8 20.3q5.7 8.2 15.2 17.2t12.5 14 2 22.5-6.5 25.5-7.8 10.2q-2.2 2.3-2.4 2.6l-0.3 0.2-0.3 0.2-0.2 0.3-0.2 0.3-0.3 0.2-0.3 0.2-0.2 0.3-1 0.5-1 0.5h-5l-0.2-0.3-0.3-0.2-0.5-1-0.5-1-0.3-0.2-0.2-0.3 0.2-0.3 0.3-0.2 0.5-1 0.5-1 0.3-0.2 0.2-0.3 0.2-0.3 0.3-0.2 0.3-0.2 0.2-0.3 0.2-0.3q0.3-0.2 2.8-3.7t3-7.5-1-9-8.8-12.8l-7.2-7.7-1.5-0.5-1.5-0.5-2.5-0.3-2.5-0.2-0.2 1-0.3 1-0.5 1-0.5 1v3l2.5 8q2.5 8 2.5 10.5t-0.5 5l-0.5 2.5-0.5 1-0.5 1-0.3 1-0.2 1-1.5 0.2-1.5 0.3h-2l-0.2-0.3-0.3-0.2-0.3-0.2-0.2-0.3-0.2-0.3-0.3-0.2-0.3-0.2-0.2-0.3-0.2-0.3-0.3-0.2-0.3-0.2-0.2-0.3-0.2-0.3-0.3-0.2-0.5-5.5q-0.5-5.5-8.5-24.5t-8.5-38-6.5-29.5-15-23-11.3-14.5q-2.2-2-3.4-4.5-1.3-2.5-10.6-13.7-9.2-11.3-21.2-22.8t-16.5-17.5-10.7-18.3q-6.3-12.2-28.6-20-22.2-7.7-24.7-10.4-2.5-2.8-7-5.6-4.5-2.7-20-2.7t-20.3 5.3q-4.7 5.2-8.7 14.7t-6 40.5-6 48.5-4.5 35.5 7.8 48l8.2 30-5.8 2q-5.7 2-7.2 6t-0.5 12.5 4 19.5 5.5 28.5 1.5 34.5-6.3 32.2q-5.2 15.3-7.2 18.6-2 3.2-3 3.2t-4.5 4.8q-3.5 4.7-13.3 13.4-9.7 8.8-11.7 13.8t-1 22 4.5 33.5 8.8 27.7q5.2 11.3 6.7 13.3t17.5 2.5 23 3 12 5 14.5 11.5 17 15 11 7.5 5.5 2l2 0.5h1l0.2-0.3q0.3-0.2 10.6-21.2 10.2-21 13.2-21.8 3-0.7 10-2.2t14 0.2q7 1.8 12.2 7.8 5.3 6 10.3 16t6.5 18.5-0.5 13.5-2 11 12.3 18.2q12.2 12.3 17 19 4.7 6.8 8.2 17.3t3.5 25-2 20-3.3 6q-1.2 0.5-3 4-1.7 3.5-6.4 6.7-4.8 3.3-9.8 3.8t-8-1-12.5-13-12.7-17.2q-3.3-5.8-6-8-2.8-2.3-5.8-5.6-3-3.2-4.8-4.2-1.7-1-4-1.8-2.2-0.7-4.4 1.6-2.3 2.2-6.6 2.4-4.2 0.3-9.7-1.2t-8.3-3.2q-2.7-1.8-5.2-9.3t-6.5-12-23.3-11.3q-19.2-6.7-43.7-11.7t-50.5-7-31.5-4.5-14.7-16.8q-9.3-14.2-11.6-16.2-2.2-2-2.4-3-0.3-1-4.6-5.8-4.2-4.7-8.7-11-4.5-6.2-5.5-6.4-1-0.3-8.8-9.6l-7.7-9.2-0.3-0.2-0.2-0.3h-2l-0.2 0.3-0.3 0.2-0.3 0.2-0.2 0.3-0.2 0.3-0.3 0.2-0.5 1q-0.5 1-6.8 8.2-6.2 7.3-8 11.6-1.7 4.2-1.7 11.2t7 28.5 10 35.5 3.5 30.5-2 29-11 48.5-12.5 56.5-3 35.5 4.5 35 3.5 37-2 28-18.3 12.8q-16.2 1.7-19 4-2.7 2.2-10.4 3-7.8 0.7-32.3-5.8t-37.5-12-16.2-9.2q-3.3-3.8-3.3-10.3t2-10 6.7-8.7q4.8-5.3 15.3-9.8t22.3-16.2q11.7-11.8 15.7-21.3t6-13 5.5-9 6.5-14.5 3-23.5-3-31-7-38.5-4-40.5 1-21.5 1.5-11-3.5-34.5-7-36-5.5-17-3.5-19.5 1.5-20 13.5-28.5 17.5-32 15.2-25.7q8.8-14.3 9.6-18 0.7-3.8-5.3-26.8t-14-61-11.5-78-6.5-42.5-17.3-12.3q-14.2-9.7-22.7-14.2t-10.7-6.8q-2.3-2.2-2.6-7.7-0.2-5.5 3.3-7.5t5.7-9q2.3-7 2.8-23.5t-0.5-21.5-7-22.5l-6-17.5-0.5-1.5-0.5-1.5-0.3 0.2-0.2 0.3-1 0.5-1 0.5-0.2 0.3-0.3 0.2-0.3 0.2-0.2 0.3-0.2 0.3-0.3 0.2-0.3 0.2-0.2 0.3-0.2 0.3q-0.3 0.2-9.6 8.4-9.2 8.3-18.7 16.8t-19 16-16.7 11.8q-7.3 4.2-18.6 5-11.2 0.7-13.7-0.3t-5.5-5-4.8-12.3q-1.7-8.2 0.3-19.2t7-21.5 5-16.5-6-14.5-6-15 1.5-8.5 4.8-3.2q3.2-1.3 5.2-5.3t6-6.5 7-5.5 5.5-9.3q2.5-6.2 4.5-7.4 2-1.3 7.5-1.8t8 0.8q2.5 1.2 3.7 7.7 1.3 6.5 3.8 10t5 12l2.5 8.5 0.5 1.5 0.5 1.5 0.3 0.2 0.2 0.3h2l0.2-0.3 0.3-0.2 0.3-0.2 0.2-0.3 1-0.5 1-0.5 1-0.5 1-0.5 0.2-0.3q0.3-0.2 2-1.4 1.8-1.3 6.6-9.6 4.7-8.2 10.7-17.2t14.5-19 12.2-12.5q3.8-2.5 6.3-5.7 2.5-3.3 14-10.8t22.5-11.5 28.5-6 29-5.3q11.5-3.2 12.7-5.2l1.3-2 0.3-0.2 0.2-0.3 0.2-0.3 0.3-0.2 0.3-0.2 0.2-0.3 0.2-0.3 0.3-0.2 0.3-0.2 0.2-0.3 0.2-0.3 0.3-0.2v-3l-6.5-7q-6.5-7-12-17t-8.5-22.5-4-21-3.5-13-1.5-12.5 2-10 0-13.5 1-14.5 2.5-13.5 2.8-12q2.2-1.5 3.7-3.3 1.5-1.7 3.7-4 2.3-2.2 3.8-5.2t4.8-8q3.2-5 11.7-9.2 8.5-4.3 10-4.6 1.5-0.2 2.3-5.7 0.7-5.5 6-10.3 5.2-4.7 6.2-5 1-0.2 1 5 0 5.3 3 4.3t5.8-3.7q2.7-2.8 3.2-4.3t3.2 3.3q2.8 4.7 20.8 4.2t22.5-3 12-2.5 18 3 15 4.5-1.5 1.5-10-1.5-10-1-5.5 3 3.5 3.5 7.5 1.5 7.5 2 16.5 2.2q13.5 0.8 12 3.6-1.5 2.7-2.7 3.4-1.3 0.8 0 3 1.2 2.3 4.2 5.8t3.8 4.2q0.7 0.8-4.6 1.6-5.2 0.7-9.2 1.4-4 0.8-3 4.3t11.5 2.7q10.5-0.7 12-1 1.5-0.2 2.7 5.3 1.3 5.5 4.6 7 3.2 1.5 3.2 2.5t-3.5 2-3.3 5q0.3 4 3 8.2 2.8 4.3 5.6 6 2.7 1.8 3 3.3 0.2 1.5-4 3.5-4.3 2-3.3 6t-1.5 7-1.8 6.8q0.8 3.7 2.6 5 1.7 1.2 2 1.4z" fill="#fefefe" stroke="#fefefe"/>
  <path d="m447.8 186.2l0.2 0.3 1 0.5 1 0.5 0.2 0.3 0.3 0.2 0.3 0.2 0.2 0.3-10.5 0.5q-10.5 0.5-12.3 2.8-1.7 2.2-5 4-3.2 1.7-3.4 5-0.3 3.2 2 5.4 2.2 2.3 3.4 6 1.3 3.8 1.8 10.3l0.5 6.5-0.3 0.2-0.2 0.3-0.2 0.3-0.3 0.2-0.3 0.2-0.2 0.3-0.2 0.3-0.3 0.2-0.3 0.2-0.2 0.3-0.2 0.3-0.3 0.2-0.3 0.2-0.2 0.3-1 0.5-1 0.5-1 0.5-1 0.5-1 0.5-1 0.5-0.2 0.3-0.3 0.2-0.5-3q-0.5-3-0.8-4-0.2-1-1.2-1.2l-1-0.3h-4l-1 0.3-1 0.2 0.2 1.5 0.3 1.5-0.3 10.5q-0.2 10.5 1.8 11.7 2 1.3 0.5 2.3t-1.7 1.3l-0.3 0.2-0.3 0.2-0.2 0.3-1 0.5-1 0.5-0.2 0.3-0.3 0.2-0.3 0.2-0.2 0.3-0.2 0.3-0.3 0.2-0.3 0.2-0.2 0.3-0.2 0.3-0.3 0.2-0.3 0.2q-0.2 0.3-3.7 0.3t-6.3-3.3l-2.7-3.2-0.3 0.2-0.2 0.3-1.5 0.5-1.5 0.5-1 0.3-1 0.2-0.2 2-0.3 2-1.5 3q-1.5 3-2.5 5t2.3 5.2q3.2 3.3 7.2 5.8t10.5 3.5 16.5 6 15 8.5 30.5 12 27.5 9.8q2 1.2 8.5 10.7t13.7 15.5q7.3 6 13.8 12t15.8 13.2q9.2 7.3 24 17 14.7 9.8 20.7 15.8t13.5 17 13 20 11.5 21 21.7 46.2q15.8 34.3 22.8 46.3t12.8 20.3q5.7 8.2 15.2 17.2t12.5 14 2 22.5-6.5 25.5-7.8 10.2q-2.2 2.3-2.4 2.6l-0.3 0.2-0.3 0.2-0.2 0.3-0.2 0.3-0.3 0.2-0.3 0.2-0.2 0.3-1 0.5-1 0.5h-5l-0.2-0.3-0.3-0.2-0.5-1-0.5-1-0.3-0.2-0.2-0.3 0.2-0.3 0.3-0.2 0.5-1 0.5-1 0.3-0.2 0.2-0.3 0.2-0.3 0.3-0.2 0.3-0.2 0.2-0.3 0.2-0.3q0.3-0.2 2.8-3.7t3-7.5-1-9-8.8-12.8l-7.2-7.7-1.5-0.5-1.5-0.5-2.5-0.3-2.5-0.2-0.2 1-0.3 1-0.5 1-0.5 1v3l2.5 8q2.5 8 2.5 10.5t-0.5 5l-0.5 2.5-0.5 1-0.5 1-0.3 1-0.2 1-1.5 0.2-1.5 0.3h-2l-0.2-0.3-0.3-0.2-0.3-0.2-0.2-0.3-0.2-0.3-0.3-0.2-0.3-0.2-0.2-0.3-0.2-0.3-0.3-0.2-0.3-0.2-0.2-0.3-0.2-0.3-0.3-0.2-0.5-5.5q-0.5-5.5-8.5-24.5t-8.5-38-6.5-29.5-15-23-11.3-14.5q-2.2-2-3.4-4.5-1.3-2.5-10.6-13.7-9.2-11.3-21.2-22.8t-16.5-17.5-10.7-18.3q-6.3-12.2-28.6-20-22.2-7.7-24.7-10.4-2.5-2.8-7-5.6-4.5-2.7-20-2.7t-20.3 5.3q-4.7 5.2-8.7 14.7t-6 40.5-6 48.5-4.5 35.5 7.8 48l8.2 30-5.8 2q-5.7 2-7.2 6t-0.5 12.5 4 19.5 5.5 28.5 1.5 34.5-6.3 32.2q-5.2 15.3-7.2 18.6-2 3.2-3 3.2t-4.5 4.8q-3.5 4.7-13.3 13.4-9.7 8.8-11.7 13.8t-1 22 4.5 33.5 8.8 27.7q5.2 11.3 6.7 13.3t17.5 2.5 23 3 12 5 14.5 11.5 17 15 11 7.5 5.5 2l2 0.5h1l0.2-0.3q0.3-0.2 10.6-21.2 10.2-21 13.2-21.8 3-0.7 10-2.2t14 0.2q7 1.8 12.2 7.8 5.3 6 10.3 16t6.5 18.5-0.5 13.5-2 11 12.3 18.2q12.2 12.3 17 19 4.7 6.8 8.2 17.3t3.5 25-2 20-3.3 6q-1.2 0.5-3 4-1.7 3.5-6.4 6.7-4.8 3.3-9.8 3.8t-8-1-12.5-13-12.7-17.2q-3.3-5.8-6-8-2.8-2.3-5.8-5.6-3-3.2-4.8-4.2-1.7-1-4-1.8-2.2-0.7-4.4 1.6-2.3 2.2-6.6 2.4-4.2 0.3-9.7-1.2t-8.3-3.2q-2.7-1.8-5.2-9.3t-6.5-12-23.3-11.3q-19.2-6.7-43.7-11.7t-50.5-7-31.5-4.5-14.7-16.8q-9.3-14.2-11.6-16.2-2.2-2-2.4-3-0.3-1-4.6-5.8-4.2-4.7-8.7-11-4.5-6.2-5.5-6.4-1-0.3-8.8-9.6l-7.7-9.2-0.3-0.2-0.2-0.3h-2l-0.2 0.3-0.3 0.2-0.3 0.2-0.2 0.3-0.2 0.3-0.3 0.2-0.5 1q-0.5 1-6.8 8.2-6.2 7.3-8 11.6-1.7 4.2-1.7 11.2t7 28.5 10 35.5 3.5 30.5-2 29-11 48.5-12.5 56.5-3 35.5 4.5 35 3.5 37-2 28-18.3 12.8q-16.2 1.7-19 4-2.7 2.2-10.4 3-7.8 0.7-32.3-5.8t-37.5-12-16.2-9.2q-3.3-3.8-3.3-10.3t2-10 6.7-8.7q4.8-5.3 15.3-9.8t22.3-16.2q11.7-11.8 15.7-21.3t6-13 5.5-9 6.5-14.5 3-23.5-3-31-7-38.5-4-40.5 1-21.5 1.5-11-3.5-34.5-7-36-5.5-17-3.5-19.5 1.5-20 13.5-28.5 17.5-32 15.2-25.7q8.8-14.3 9.6-18 0.7-3.8-5.3-26.8t-14-61-11.5-78-6.5-42.5-17.3-12.3q-14.2-9.7-22.7-14.2t-10.7-6.8q-2.3-2.2-2.6-7.7-0.2-5.5 3.3-7.5t5.7-9q2.3-7 2.8-23.5t-0.5-21.5-7-22.5l-6-17.5-0.5-1.5-0.5-1.5-0.3 0.2-0.2 0.3-1 0.5-1 0.5-0.2 0.3-0.3 0.2-0.3 0.2-0.2 0.3-0.2 0.3-0.3 0.2-0.3 0.2-0.2 0.3-0.2 0.3q-0.3 0.2-9.6 8.4-9.2 8.3-18.7 16.8t-19 16-16.7 11.8q-7.3 4.2-18.6 5-11.2 0.7-13.7-0.3t-5.5-5-4.8-12.3q-1.7-8.2 0.3-19.2t7-21.5 5-16.5-6-14.5-6-15 1.5-8.5 4.8-3.2q3.2-1.3 5.2-5.3t6-6.5 7-5.5 5.5-9.3q2.5-6.2 4.5-7.4 2-1.3 7.5-1.8t8 0.8q2.5 1.2 3.7 7.7 1.3 6.5 3.8 10t5 12l2.5 8.5 0.5 1.5 0.5 1.5 0.3 0.2 0.2 0.3h2l0.2-0.3 0.3-0.2 0.3-0.2 0.2-0.3 1-0.5 1-0.5 1-0.5 1-0.5 0.2-0.3q0.3-0.2 2-1.4 1.8-1.3 6.6-9.6 4.7-8.2 10.7-17.2t14.5-19 12.2-12.5q3.8-2.5 6.3-5.7 2.5-3.3 14-10.8t22.5-11.5 28.5-6 29-5.3q11.5-3.2 12.7-5.2l1.3-2 0.3-0.2 0.2-0.3 0.2-0.3 0.3-0.2 0.3-0.2 0.2-0.3 0.2-0.3 0.3-0.2 0.3-0.2 0.2-0.3 0.2-0.3 0.3-0.2v-3l-6.5-7q-6.5-7-12-17t-8.5-22.5-4-21-3.5-13-1.5-12.5 2-10 0-13.5 1-14.5 2.5-13.5 2.8-12q2.2-1.5 3.7-3.3 1.5-1.7 3.7-4 2.3-2.2 3.8-5.2t4.8-8q3.2-5 11.7-9.2 8.5-4.3 10-4.6 1.5-0.2 2.3-5.7 0.7-5.5 6-10.3 5.2-4.7 6.2-5 1-0.2 1 5 0 5.3 3 4.3t5.8-3.7q2.7-2.8 3.2-4.3t3.2 3.3q2.8 4.7 20.8 4.2t22.5-3 12-2.5 18 3 15 4.5-1.5 1.5-10-1.5-10-1-5.5 3 3.5 3.5 7.5 1.5 7.5 2 16.5 2.2q13.5 0.8 12 3.6-1.5 2.7-2.7 3.4-1.3 0.8 0 3 1.2 2.3 4.2 5.8t3.8 4.2q0.7 0.8-4.6 1.6-5.2 0.7-9.2 1.4-4 0.8-3 4.3t11.5 2.7q10.5-0.7 12-1 1.5-0.2 2.7 5.3 1.3 5.5 4.6 7 3.2 1.5 3.2 2.5t-3.5 2-3.3 5q0.3 4 3 8.2 2.8 4.3 5.6 6 2.7 1.8 3 3.3 0.2 1.5-4 3.5-4.3 2-3.3 6t-1.5 7-1.8 6.8q0.8 3.7 2.6 5 1.7 1.2 2 1.4z" stroke="#000"/>
 </g>
</svg>
