<?xml version="1.0" encoding="UTF-8"?>
<svg width="29.062mm" height="32.651mm" clip-rule="evenodd" fill-rule="evenodd" image-rendering="optimizeQuality" shape-rendering="geometricPrecision" text-rendering="geometricPrecision" version="1.1" viewBox="0 0 670 752" xmlns="http://www.w3.org/2000/svg">
 <defs>
  <style type="text/css">.str0 {stroke:black;stroke-width:4.6093} .fil0 {fill:black}</style>
 </defs>
 <path class="fil0 str0" d="m218 19c-8 4-21 18-31 30s-20 41-26 61c-7 20-14 34-22 43-7 9-16 13-14 13s15-5 13-3c-2 3-18 13-19 16-2 3 11 1 17 6-2 5-4 10-7 15-6 13-14 29-19 46-6 18-9 37-13 55-4 17-10 33-24 47-15 15-38 28-52 45-15 16-21 35-18 55s16 42 43 56c28 14 70 19 96 13s37-23 40-29c3-5-1 1-6 10s-10 21-16 41-12 47-18 69c-6 21-10 36-16 46s-14 14-20 28c-7 13-11 35-12 46 0 11 4 11 10 11 6-1 15-2 22-2 7 1 12 3 19 6 6 2 15 4 26 6 11 1 23 2 36 1s27-3 35-7c7-4 7-10 5-15-3-4-9-8-19-13s-24-13-34-21c-11-8-18-17-21-26s-2-20 2-30c4-11 11-21 21-38 11-16 24-40 36-60 12-21 23-39 35-50 12-12 26-17 30-15 4 1-2 10-7 21-5 10-10 23-16 41s-14 42-21 62c-6 20-12 36-16 43-5 7-6 3-10 10-4 8-11 25-11 36-1 11 3 15 12 18 10 4 25 6 34 4 9-1 11-7 15-7 3 1 8 7 16 11 8 3 20 3 33 2s26-4 32-8c7-5 5-12 0-16s-14-5-24-10c-9-5-19-15-28-22-9-8-18-14-21-21s-1-15 6-27 18-28 30-45 24-35 35-55c10-20 18-42 23-58 4-16 5-27 1-35-3-8-11-14-24-18s-32-5-46-6c-15-1-25-2-45-1s-50 4-62 1-6-11 2-19c8-9 18-18 27-25 10-8 19-14 26-22s12-18 14-28c2-9 1-19 1-29s1-20 5-29 11-17 17-22c6-4 13-4 21-4 9 0 20 0 33-1 12-2 25-6 38-9 13-2 27-4 39-5 13-2 24-3 41-6 16-4 38-10 56-14 18-5 32-9 43-9 10 0 17 4 26 6 9 3 20 4 25 2 6-1 5-5 9-8 4-2 14-4 23-7 10-3 19-8 18-11 0-3-10-4-22-3-12 0-26 2-25 0 1-3 18-8 14-10s-29 1-48 2-34 0-49-1c-14-1-28-4-40-4-12-1-22 1-38 1-17 1-39 0-57 0-17 0-29 1-40 3-11 3-20 8-32 12-12 3-27 4-39 5-12 0-22 0-25-3-4-3-2-9 1-11 4-3 10-2 13-4 4-1 6-4 9-8 2-1 20-39 18-48-1 0 42-88-54-84-13 1-29 10-35 17-6 6 2-5 0 0z"/>
</svg>
