<?xml version="1.0" encoding="UTF-8"?>
<svg viewBox="0 0 500 500" xmlns="http://www.w3.org/2000/svg">
 <g transform="translate(0 -552.36)">
  <path d="m212.94 642.27c-16.47 0.68966-33.616 4.0563-50.562 10.378-57.386 21.408-94.22 69.745-92.348 115.78-1.7699 11.574-1.3455 24.571-4.8316 32.197-4.8574 10.626-31.275 41.826 25.799 34.365 9.0385-1.1815 28.026 8.8894 41.565 10.463 29.211 9.9589 65.23 9.5708 100.44-3.5634 54.712-20.41 90.745-65.304 92.364-109.34 2.7589-12.191 2.3488-26.878 6.3844-35.068 5.1641-10.481 32.505-40.89-24.762-35.091-8.4294 0.85364-25.185-8.2715-38.337-11.144-16.567-6.6548-35.646-9.8189-55.707-8.9789z" fill="#fffa00"/>
  <path d="m325.17 734.64c-0.23902 0.0116-0.66307-0.0142-0.875 0-1.2947 0.0867-2.0711 0.21996-2.25 0.375-1.4063 1.2187-2.6389 2.837-3.7812 4.6562s-2.1889 3.8226-3.2812 5.875-2.2124 4.1445-3.4688 6.0625c-0.62817 0.95902-1.2907 1.8622-2 2.7188s-1.4641 1.6669-2.2812 2.375c-3.9369 3.4116-7.9092 6.5005-11.875 9.3125s-7.9384 5.3439-11.906 7.6562-7.9317 4.3998-11.875 6.3125-7.8581 3.6369-11.75 5.25c-7.7839 3.2261-15.426 5.9661-22.844 8.5938s-14.599 5.1394-21.438 7.9688c-3.7525 1.5525-7.7178 2.9992-11.906 4.3125s-8.5986 2.5237-13.25 3.5938-9.5462 1.9895-14.688 2.8125-10.529 1.5217-16.188 2.0938c-1.8923 0.19133-3.9378 0.31023-6.0625 0.3125s-4.354-0.11502-6.625-0.28125c-4.542-0.33246-9.2958-0.96064-13.906-1.8438s-9.0724-2.012-13.062-3.2812c-1.995-0.63465-3.8518-1.2996-5.5625-2s-3.2846-1.442-4.625-2.1875c-1.8523-1.0302-3.6033-2.1814-5.25-3.4688s-3.1879-2.6876-4.625-4.2188-2.7452-3.2071-3.9688-4.9688-2.3379-3.6149-3.3438-5.5938-1.9033-4.0673-2.6875-6.25-1.4727-4.4705-2.0312-6.8438-0.98364-4.8245-1.3125-7.375-0.56109-5.1918-0.65625-7.9062-0.0801-5.51 0.0625-8.375 0.42818-5.8102 0.8125-8.8125 0.86991-6.0612 1.5-9.1875 1.4014-6.3255 2.2812-9.5625 1.8663-6.5094 3-9.8438 2.421-6.7066 3.8125-10.125 2.9091-6.8859 4.5625-10.375l0.125-0.25c-21.158 22.465-33.016 49.719-31.938 76.25-1.7699 11.574-1.3264 24.561-4.8125 32.188-4.8574 10.626-31.293 41.836 25.781 34.375 9.0385-1.1815 28.024 8.8949 41.562 10.469 29.211 9.9589 65.23 9.5716 100.44-3.5625 53.844-20.087 89.523-63.893 92.188-107.25z" fill="#f5d800"/>
  <path d="m212.94 642.27c-16.47 0.68966-33.616 4.0563-50.562 10.378-57.386 21.408-94.22 69.745-92.348 115.78-1.7699 11.574-1.3455 24.571-4.8316 32.197-4.8574 10.626-31.275 41.826 25.799 34.365 9.0385-1.1815 28.026 8.8894 41.565 10.463 29.211 9.9589 65.23 9.5708 100.44-3.5634 54.712-20.41 90.745-65.304 92.364-109.34 2.7589-12.191 2.3488-26.878 6.3844-35.068 5.1641-10.481 32.505-40.89-24.762-35.091-8.4294 0.85364-25.185-8.2715-38.337-11.144-16.567-6.6548-35.646-9.8189-55.707-8.9789z" fill="none" stroke="#000" stroke-width="3"/>
  <path transform="matrix(.95864 -.33108 .325 .76264 38.556 635.98)" d="m295.62 343.57a91.388 91.388 0 1 1 -182.78 0 91.388 91.388 0 1 1 182.78 0z" fill="#ffd200" stroke="#000" stroke-width="3.2758"/>
  <path transform="matrix(.95246 -.32895 .30664 .71955 41.563 643.43)" d="m295.62 343.57a91.388 91.388 0 1 1 -182.78 0 91.388 91.388 0 1 1 182.78 0z" fill="#fff" stroke="#000" stroke-width="3.3834"/>
  <path transform="matrix(.84837 .28523 -.35692 .58817 115.14 627.63)" d="m295.62 343.57a91.388 91.388 0 1 1 -182.78 0 91.388 91.388 0 1 1 182.78 0z" fill="#ffd200" stroke="#000" stroke-width="3.8704"/>
  <path transform="matrix(.8429 .28339 -.33676 .55493 111.55 633.3)" d="m295.62 343.57a91.388 91.388 0 1 1 -182.78 0 91.388 91.388 0 1 1 182.78 0z" fill="#fff" stroke="#000" stroke-width="3.9976"/>
  <path d="m165.24 878.81-26.792 46.192c40.81 12.664 51.263 5.2124 68.207 0l-37.893-47.366 43.577 46.419c28.362-16.06 26.934-19.61 33.156-38.84l-71.996-10.421 70.143 2.842c-7.2142-15.619-10.62-26.423-50.249-42.629l-22.736 35.998 15.157-36.946c-18.631-3.2497-37.261-3.3762-55.892 0.94733l34.598 35.772-39.334-32.93c-17.543 4.6051-25.506 16.395-33.156 28.42l69.195 8.7934-70.143-1.2148c4.7155 28.342 21.973 39.962 41.682 48.313z" fill="#ffff64" stroke="#000" stroke-width="2"/>
  <path d="m339.81 821.48 11.78-65.098c26.036 2.3735 40.153 8.7198 51.155 16.104l-57.252 50.435 62.936-45.698c17.278 13.894 18.059 29.23 17.999 43.124l-79.534 6.3638 79.534 1.668c-9.717 21.229-23.172 38.719-45.471 47.366l-36.864-45.471 31.18 49.261c-12.616 7.1661-27.706 12.621-62.297 7.5786l24.218-56.613-32.023 54.718c-19.833-2.9633-34.125-17.01-46.419-35.051l75.147-23.003-77.041 15.425c-0.30597-15.581 0.56349-31.555 15.157-52.103l63.058 32.889-57.374-37.625c22.736-18.294 45.471-26.857 68.207-27.472z" fill="#ffff64" stroke="#000" stroke-width="2"/>
  <path d="m147.71 680.92c39.521-24.709 74.954-34.427 123.32-17.089 3.0714 1.101 17.826 6.3227 17.767 8.91-0.0154 0.68412-12.308-3.7769-13.148-4.078-11.142-3.9942-26.127-4.3695-40.558-4.6937-30.764-0.69104-57.007 25.273-87.382 16.95z" fill="#fff"/>
 </g>
</svg>
