<?xml version='1.0' encoding='utf-8'?>
<svg xmlns="http://www.w3.org/2000/svg" version="1.1" width="600px" height="976px" viewBox="0 0 600 976"> <g id="layer1"> <g style="fill:rgb(0,0,0); fill-opacity:1.0; stroke-linejoin: miter"> <path d="M495.00082,508.8509C494.853,509.01514,494.65598,509.55707,494.57382,510.0498C494.49173,510.55896,494.2125,511.2979,493.93332,511.7414C493.65414,512.1848,493.42422,512.61176,493.42422,512.7104C493.42422,513.17017,492.47165,515.141,491.61765,516.38916C490.68155,517.7687,489.64688,518.85266,488.10312,520.0351C487.1177,520.7905,486.3458,522.0716,485.80386,523.8453C485.55746,524.65,485.3112,525.29047,485.24545,525.29047C485.17972,525.29047,484.81845,525.5861,484.4407,525.9639C484.04654,526.3252,483.12686,526.9657,482.3878,527.3763C481.63235,527.78687,480.89328,528.2303,480.7455,528.37805C479.6616,529.3306,481.63235,532.2868,483.7017,532.8288C484.45718,533.04224,484.5557,533.28864,484.1451,533.9948C484.0137,534.22473,483.9152,534.7174,483.89877,535.09515C483.89877,535.47296,483.8002,535.982,483.6688,536.2448C482.76553,538.0185,482.24002,539.2995,482.3057,539.56226C482.40427,539.97284,482.1415,540.39984,481.76376,540.39984C481.56668,540.39984,481.41885,540.5641,481.35318,540.8926C481.2875,541.15533,481.074,541.51666,480.87686,541.6809C480.41702,542.0422,480.20352,542.45276,480.05576,543.19183C479.99002,543.60236,479.6616,544.06226,479.0046,544.752C477.59225,546.19727,476.72183,546.82135,475.01382,547.67535C473.55215,548.38153,470.16898,549.5968,469.6434,549.5968C469.26572,549.5968,465.9318,550.45087,465.75113,550.5823C465.66898,550.66437,464.94638,550.87787,464.17447,551.0585C463.3862,551.25555,462.48294,551.5184,462.17087,551.6497C461.84244,551.7812,461.36612,551.8961,461.11978,551.8961C460.87344,551.8961,460.24936,552.04395,459.75668,552.24097C459.26395,552.43805,458.19644,552.6844,457.4081,552.7993C456.60336,552.9307,455.6837,553.1607,455.35526,553.3414C455.02676,553.50555,454.4684,553.70264,454.13992,553.7684C453.23666,553.9326,452.44833,554.2939,451.84067,554.8358C451.545,555.08215,451.03592,555.42706,450.7239,555.5913C450.14908,555.88696,449.6071,556.2975,448.2604,557.49646C447.84982,557.84125,447.27505,558.2847,446.9794,558.4654C446.6838,558.64606,446.30606,559.02374,446.1583,559.3029C446.0104,559.58215,445.55057,560.1241,445.1564,560.5019C444.03964,561.56934,443.4813,562.34125,442.98862,563.57294C442.7258,564.1971,442.33163,564.969,442.1017,565.281C441.85538,565.5931,441.6747,566.00366,441.70755,566.2171C441.7404,566.6441,441.60898,567.3175,441.28055,568.1551C441.16562,568.46716,440.98495,569.04193,440.88644,569.4196C440.78787,569.79736,440.64005,570.1587,440.55795,570.19147C440.4758,570.2408,440.22946,570.6842,439.98312,571.17694C439.7368,571.6696,439.35904,572.1788,439.14554,572.3266C438.91562,572.47437,438.73495,572.6714,438.73495,572.77C438.73495,572.8521,438.1602,573.64044,437.47037,574.51086C436.7642,575.36487,436.0416,576.2846,435.86087,576.54736C435.68027,576.8101,435.4175,577.05646,435.2861,577.1057C434.80978,577.25354,433.51236,578.6002,433.05258,579.38855C432.6912,580.029,432.42844,580.2754,431.80435,580.53815C431.31168,580.7353,431.01608,580.96515,431.01608,581.1294C431.01608,581.4578,430.63834,581.80273,429.91568,582.1804C429.6365,582.32825,429.3409,582.60754,429.27524,582.80457C429.09457,583.3958,428.2241,584.38116,427.7971,584.4797C427.5836,584.5454,427.40298,584.69324,427.40298,584.8246C427.40298,584.956,427.18948,585.383,426.91025,585.76074C426.6475,586.122,426.41757,586.4998,426.41757,586.5819C426.41757,586.6804,426.2698,586.9596,426.08908,587.206C425.90848,587.45233,425.74423,587.89575,425.71133,588.175C425.67856,588.45416,425.5964,588.73334,425.5471,588.7991C425.48148,588.84827,425.43216,589.0946,425.43216,589.341C425.43216,589.5709,425.31723,589.91583,425.18582,590.0965C425.0544,590.2607,424.93948,590.622,424.93948,590.86835C424.93948,591.4432,425.4158,592.2971,425.72775,592.2971C425.85916,592.2971,426.25333,592.56,426.59824,592.87195C427.288,593.4796,428.10916,593.64386,428.28976,593.20044C428.40475,592.87195,428.76608,592.8884,429.111,593.24976C429.39017,593.57825,429.93216,595.8282,430.11276,597.47046C430.22775,598.60364,430.62192,600.4102,430.96677,601.4942C431.09818,601.9048,431.246,603.12006,431.29526,604.2039C431.39377,606.07623,431.41025,606.20764,431.85367,606.71674C432.11642,607.0123,432.32993,607.308,432.32993,607.39014C432.32993,607.45575,432.54343,607.7514,432.8226,608.0306L433.31534,608.5561L434.49783,608.2769C435.1547,608.1455,435.77884,607.9485,435.89377,607.86633C436.0087,607.7678,436.20584,607.7678,436.38644,607.86633C437.02695,608.1948,437.73312,608.22766,438.01236,607.9485C438.1766,607.78424,438.50504,607.68567,438.81705,607.7021C440.06522,607.78424,439.5397,607.25867,436.73135,605.6C434.9412,604.5489,434.69485,604.2368,434.54703,602.92303C434.49783,602.36456,434.3007,600.75507,434.12003,599.35913C433.93936,597.9632,433.84085,596.5508,433.8901,596.22235C433.97226,595.71313,434.36636,595.25336,436.0908,593.5617C437.7988,591.8866,438.40646,591.3939,439.29337,590.9997C439.88455,590.7205,440.45944,590.49066,440.54147,590.49066C440.62363,590.49066,440.9357,590.2771,441.2313,590.03076C441.5269,589.768,442.66013,589.0946,443.74405,588.5198C444.82797,587.94507,445.97757,587.321,446.28964,587.12384C446.60165,586.9268,447.35715,586.5983,447.94833,586.40125C449.16373,586.0071,451.66,584.7754,452.43192,584.2005C452.71115,583.98706,453.38443,583.675,453.92642,583.51074C454.61618,583.2808,455.12534,582.9688,455.618,582.4761C456.61984,581.49066,456.9647,581.5893,456.9647,582.8867C456.9647,583.5765,455.94644,586.0071,455.191,587.12384C454.87894,587.5673,454.337,588.4706,453.9921,589.11115C453.6472,589.7516,453.17093,590.35925,452.95743,590.4742C452.43192,590.76984,452.03775,591.6567,452.03775,592.57635C452.03775,593.33185,452.0706,593.3811,453.5651,594.82635C455.86435,597.0599,456.63626,598.1603,456.63626,599.1785C456.63626,599.5562,457.03036,600.2789,457.45737,600.673C457.80228,601.00146,458.27853,601.8719,458.27853,602.18396C458.27853,602.7423,458.86978,603.6128,459.29678,603.6949C459.6581,603.77704,460.8242,603.9084,462.1052,604.0398C462.43362,604.089,462.86063,604.1876,463.0413,604.2861C463.40262,604.4832,464.0267,604.36816,464.0267,604.1055C464.0267,604.0069,464.25662,603.9905,464.5851,604.0398C464.99564,604.1219,465.15988,604.089,465.22562,603.89197C465.27487,603.76056,465.58688,603.5963,465.8989,603.53064C466.2274,603.4814,466.49014,603.36646,466.49014,603.2843C466.49014,603.21857,466.04672,602.79156,465.5212,602.3318C464.71646,601.6748,464.38797,601.51056,463.66537,601.41205C462.22018,601.2314,461.80954,601.06714,461.16904,600.45953C460.0851,599.4084,458.45926,597.2077,458.19644,596.41943C458.0486,596.00885,457.75302,595.31903,457.5231,594.8757C457.06326,593.9887,457.04684,593.611,457.37527,592.1001C457.55594,591.21326,457.76944,590.8027,458.44278,589.93225C459.13254,589.0454,459.62527,588.65125,461.53036,587.4852C462.76212,586.7133,464.17447,585.87573,464.65073,585.6294C465.12704,585.36664,465.70187,584.9232,465.9318,584.6275C466.1617,584.332,466.40805,584.0856,466.50662,584.0856C466.58865,584.0856,467.11423,583.7899,467.65622,583.44507C468.32956,583.00165,468.75656,582.59106,468.97006,582.164C469.1343,581.80273,469.54483,581.2443,469.87332,580.89954C470.49747,580.24255,471.58133,578.15674,471.58133,577.5984C471.59775,577.25354,472.17258,575.44696,472.27115,575.4963C472.69815,575.7426,472.928,575.7097,473.24008,575.31555C473.63425,574.8065,473.88065,574.7736,473.88065,575.2006C473.88065,575.4142,474.04483,575.5291,474.48825,575.5948C474.81674,575.6605,475.178,575.6276,475.293,575.5291C475.40793,575.43054,475.62143,575.3813,475.78568,575.4142C475.98276,575.44696,476.11417,575.33203,476.17984,575.0692C476.29483,574.54364,476.67258,574.4287,476.7875,574.87213C476.88608,575.24994,477.09958,575.33203,477.2145,575.00354C477.26382,574.8557,477.32944,574.8557,477.52658,575.01996C477.7236,575.1678,477.95358,575.1842,478.4955,575.0692C479.13602,574.92145,479.251,574.93787,479.4481,575.21704C479.678,575.5619,480.4006,575.6605,480.90976,575.39764C481.3696,575.1678,482.3057,574.8557,482.79843,574.7736C483.35678,574.6587,483.81668,575.00354,483.55386,575.31555C483.40604,575.4963,483.43893,575.67694,483.63596,576.10394C483.78378,576.4159,483.89877,576.7444,483.89877,576.8429C483.89877,576.92505,484.1287,577.33563,484.39145,577.7462C484.6707,578.14044,484.9991,578.73157,485.13046,579.06006C485.26187,579.37213,485.45895,579.6842,485.55746,579.7498C485.65604,579.79913,485.88596,580.16046,486.0502,580.53815C486.23087,580.89954,486.42795,581.3264,486.51004,581.4578C486.80563,581.9834,487.06845,582.9031,487.19986,583.8721C487.3312,584.9396,487.57755,585.56366,487.84036,585.56366C488.02097,585.56366,488.9899,586.9925,488.9899,587.27167C488.9899,587.3866,489.1049,587.6166,489.2363,587.7972C489.36765,587.9614,489.48264,588.25714,489.48264,588.45416C489.48264,588.6348,489.6633,589.029,489.89322,589.341C490.12314,589.6531,490.3038,590.03076,490.3038,590.1786C490.3038,590.34283,490.53372,590.7205,490.8129,591.0162C491.38773,591.64026,492.9315,594.7442,492.9315,595.28625C492.9315,595.4997,493.1122,595.95953,493.3257,596.3208C494.29465,597.9139,494.72165,598.7515,494.82016,599.2278C494.968,599.8847,495.822,600.2624,497.77634,600.5252C499.94418,600.8208,503.6066,600.8208,504.165,600.5252C504.52628,600.32806,504.70694,600.32806,505.15036,600.47595C505.7252,600.68945,507.03903,600.7059,507.71237,600.5252C508.12296,600.4102,508.4022,599.85187,508.04086,599.85187C507.94235,599.85187,507.40036,599.4577,506.8091,598.98145C506.23428,598.52155,505.41318,597.99603,504.9697,597.8318C503.59018,597.28986,503.37668,597.1584,502.4241,596.2059C501.32376,595.1055,501.01175,594.268,500.91318,592.2151C500.88034,591.49243,500.7161,590.57275,500.56833,590.1786C500.23984,589.2917,500.04276,587.7315,499.91135,585.0709C499.82925,583.10016,499.68143,581.6221,499.33658,579.3228C499.25443,578.73157,499.1395,577.9269,499.07382,577.5163C498.87668,576.16956,498.811,575.1513,498.76175,572.50726C498.7289,570.0602,498.7946,569.0583,499.1395,567.416C499.33658,566.5292,500.45334,564.80475,501.1431,564.34485C501.84933,563.86865,502.7526,562.604,502.769,562.0949C502.78543,561.8649,502.91678,561.53644,503.08102,561.3559C503.2781,561.14233,503.45877,560.5183,503.59018,559.6971C503.6887,558.92523,503.86935,558.30115,504.01718,558.20264C504.165,558.0876,504.26352,557.74274,504.26352,557.34863C504.26352,556.92163,504.3456,556.6589,504.50986,556.59314C504.6741,556.5438,504.7562,556.28107,504.7562,555.8049C504.7562,554.88513,505.1832,552.6352,505.446,552.1753C505.59378,551.929,505.67593,550.8942,505.69235,548.9399C505.70877,547.3633,505.75803,545.54034,505.8237,544.9162C505.88943,544.1443,505.85654,543.4874,505.69235,542.9126C505.54453,542.3378,505.5117,541.79584,505.59378,541.27026C505.67593,540.69543,505.64304,540.3835,505.47885,540.12067C505.34744,539.9236,505.24893,539.4965,505.24893,539.1846C505.24893,538.39624,504.78903,536.29407,504.5591,536.0149C504.44418,535.86707,504.36203,534.96375,504.3456,533.6828C504.3292,532.5167,504.26352,531.48206,504.19778,531.38354C504.1321,531.28503,504.00076,530.7595,503.9186,530.20105C503.83652,529.64264,503.59018,528.8543,503.37668,528.4273C502.6705,527.0314,502.5391,526.07886,502.8511,524.65C503.42593,522.08795,504.18143,519.5917,504.78903,518.3599C505.13394,517.67017,505.41318,516.9311,505.41318,516.7175C505.41318,515.76514,505.1832,515.07526,504.82193,514.829C504.4606,514.599,504.39493,514.599,503.98428,514.8618C503.72153,515.02606,503.08102,515.58435,502.5555,516.1264C501.01175,517.63727,500.634,517.40735,500.33835,514.77966C500.10843,512.62823,499.6486,511.6264,498.28543,510.29608C497.3494,509.39282,496.01907,508.53882,495.50998,508.53882C495.37857,508.53882,495.16507,508.67017,495.00082,508.8509 Z"/> </g> </g> </svg>