<svg width="300" height="300" viewBox="0 0 300 300" fill="none" xmlns="http://www.w3.org/2000/svg">
<path d="M157.643 76.6503L157.685 76.6604C158.293 76.969 159.445 77.6927 161.142 78.8314L160.799 83.6072L160.669 84.8779C160.482 86.4983 160.22 87.8969 159.882 89.0736C159.544 90.2502 159.115 91.2628 158.596 92.1115C158.573 92.2556 158.049 92.9373 157.021 94.1565L156.98 92.5781C156.958 92.2425 156.902 91.7943 156.812 91.2335C156.722 90.6726 156.608 90.0611 156.47 89.3988C155.988 87.3047 155.749 86.2105 155.751 86.1163C155.641 85.5307 155.552 84.9675 155.481 84.4266C155.341 83.3396 155.282 82.3755 155.304 81.5344C155.315 81.1166 155.347 80.7379 155.4 80.3981C155.421 80.1365 155.529 79.7632 155.723 79.2781C156.574 77.7616 157.214 76.8857 157.643 76.6503ZM148.721 123.501C148.723 123.501 148.724 123.501 148.726 123.502L148.776 123.512C148.777 123.511 148.779 123.511 148.781 123.511C148.801 123.511 148.847 123.564 148.918 123.671C148.948 123.727 148.977 123.797 149.004 123.88C149.058 124.046 149.104 124.264 149.142 124.534C149.16 124.669 149.176 124.817 149.189 124.977L149.222 125.637C149.239 126.077 149.248 126.503 149.249 126.915C149.25 127.328 149.243 127.715 149.229 128.078C149.214 128.44 149.193 128.766 149.165 129.055L149.118 129.451L149.063 129.775L148.999 130.017L148.927 130.169L148.831 130.22C148.829 130.224 148.826 130.226 148.823 130.226C148.802 130.226 148.749 130.152 148.665 130.005L148.558 129.709L148.461 129.317L148.375 128.848L148.302 128.319L148.244 127.748L148.201 127.154L148.175 126.555L148.167 125.968L148.179 125.412L148.213 124.906L148.269 124.466C148.409 123.823 148.56 123.501 148.721 123.501ZM56.2185 146.204C56.2344 146.204 56.2435 146.212 56.2457 146.226L56.2785 146.229C56.2796 146.229 56.2806 146.229 56.2816 146.229C56.3818 146.229 56.4918 146.419 56.6116 146.8C56.7027 147.14 56.8421 147.816 57.0298 148.827C57.2174 149.839 57.4318 151.064 57.6731 152.503L59.6563 164.55C58.7858 165.514 58.1955 166.059 57.8855 166.184C57.7593 166.028 57.391 164.524 56.7805 161.674C56.7804 161.674 56.7803 161.675 56.78 161.675C56.755 161.675 55.8407 157.127 54.0372 148.033C55.3448 146.814 56.0719 146.204 56.2185 146.204ZM102.776 182.218L102.843 182.22C102.93 182.225 102.997 182.237 103.045 182.258L103.077 182.273C103.095 182.284 103.107 182.296 103.114 182.31C103.121 182.323 103.121 182.336 103.115 182.351C103.091 182.393 103.043 182.429 102.971 182.456C102.902 182.479 102.827 182.491 102.748 182.491C102.739 182.491 102.729 182.49 102.72 182.49C102.667 182.488 102.613 182.482 102.56 182.47C102.498 182.455 102.455 182.441 102.43 182.429L102.37 182.403L102.325 182.378L102.295 182.354L102.279 182.33L102.277 182.309L102.29 182.288L102.316 182.27L102.355 182.255L102.406 182.242L102.47 182.233L102.547 182.227L102.635 182.224C102.684 182.22 102.731 182.218 102.774 182.218H102.776ZM124.608 180.494C124.681 180.494 124.715 180.566 124.71 180.71L124.856 185.787L124.927 216.041L124.087 216.827C123.839 192.974 123.84 180.997 124.09 180.896C124.336 180.628 124.508 180.494 124.608 180.494ZM92.8266 183.212L118.845 183.212C118.788 203.498 118.936 215.304 119.288 218.63L63.9814 218.63L66.774 183.212L92.8266 183.212ZM118.505 225.066V230.039C118.493 233.047 118.414 234.693 118.266 234.977C114.867 234.858 100.752 234.25 75.9211 233.152C70.1183 232.904 65.9227 232.695 63.3343 232.525C63.2512 231.58 63.3988 229.219 63.7771 225.441C75.8782 225.339 94.1207 225.214 118.505 225.066ZM170.437 46C166.001 46 161.326 49.6429 156.414 56.9288C155.126 58.5229 153.989 64.2572 153.003 74.1318C149.174 78.3208 146.843 82.4769 146.01 86.6002C145.168 89.7579 144.604 94.5471 144.319 100.968C125.263 106.683 113.088 112.308 107.794 117.842C106.487 123.384 106.685 137.682 108.39 160.735C106.701 161.025 92.8526 161.775 66.8439 162.984L51.9103 84.9928C52.0113 84.6659 50.5329 84.5024 47.4751 84.5024C47.087 84.5024 46.6735 84.5051 46.2346 84.5103L45.0933 85.9917L35 87.2432L49.8143 172.144L47.3622 250.438L53.6966 249.859L54.5711 238.37C54.4481 238.202 54.5378 238.118 54.8401 238.118C54.9536 238.118 55.0972 238.13 55.2708 238.154L118.675 241.277L118.859 252.935L124.526 252.655C124.475 248.905 124.427 245.302 124.383 241.846H124.379C124.394 241.792 124.409 241.737 124.423 241.683L124.894 239.662C125.055 238.88 125.215 237.926 125.374 236.802C125.384 236.748 125.395 236.695 125.405 236.642H125.409C126.886 236.746 127.958 236.797 128.624 236.797C129.114 236.797 129.385 236.769 129.436 236.714L130.049 178.036C132.717 176.18 133.705 172.808 133.012 167.921C135.792 166.052 137.135 164.807 137.04 164.186C137.092 162.521 134.994 160.075 130.747 156.845C130.478 156.163 127.555 155.609 121.978 155.184C121.216 152.978 121.055 148.899 121.494 142.95C123.35 135.06 125.248 128.671 127.189 123.785C133.238 122.877 138.413 121.595 142.715 119.938H142.718C142.66 127.494 144.685 132.022 148.792 133.523C149.101 135.228 149.437 138.473 149.799 143.258C150.317 151.567 150.045 158.8 148.983 164.955L148.281 167.157C144.618 172.377 142.996 175.246 143.416 175.762L144.979 182.535C144.549 190.43 144.542 195.277 144.957 197.075C145.624 200.004 146.988 202.954 149.049 205.928C152.691 209.741 157.232 212.227 162.675 213.385C163.033 213.637 163.601 213.763 164.376 213.763C166.315 213.763 169.557 212.978 174.101 211.408C190.337 203.55 203.861 193.018 214.673 179.812H214.677C214.196 190.198 215.513 202.956 218.628 218.085C215.382 221.152 213.626 223.99 213.358 226.597C212.959 228.357 212.909 230.452 213.209 232.882L211.605 236.474L214.163 241.192C212.298 245.074 211.767 247.214 212.57 247.611C213.833 249.846 215.443 250.963 217.399 250.963C217.448 250.963 217.497 250.962 217.546 250.961L249.174 253.389C258.704 253.069 264.176 249.609 265.592 243.01C264.973 240.82 263.167 239.221 260.176 238.212C262.364 235.723 262.549 233.641 260.729 231.967C260.423 231.05 256.751 230.03 249.715 228.909C247.648 227.636 245.835 225.521 244.276 222.563L240.498 220.82C239.43 219.197 237.772 217.846 235.524 216.768C235.174 216.574 234.818 216.476 234.455 216.476C234.145 216.476 233.83 216.547 233.51 216.689L235.941 175.405L235.79 156.997C235.674 155.09 235.044 153.411 233.899 151.958C232.26 148.762 228.97 147.164 224.028 147.164C222.215 147.164 220.179 147.379 217.921 147.809C208.097 150.897 195.789 156.99 180.999 166.088L179.771 160.565L183.381 153.516L183.789 138.429C185.474 134.293 186.297 131.515 186.258 130.095C186.071 128.501 185.723 127.005 185.216 125.608L174.935 96.5405C177.154 91.8919 179.186 88.736 181.031 87.0729C182.913 88.0482 184.45 88.5359 185.64 88.5359C186.631 88.5359 187.382 88.1973 187.892 87.5203L189.594 82.1693L187.467 80.0576H187.471C187.507 80.0578 187.543 80.058 187.578 80.058C188.761 80.058 189.452 79.9084 189.653 79.6091C190.184 79.2895 190.41 78.5333 190.332 77.3406C192.316 77.0984 193.193 76.3614 192.962 75.1296C191.29 72.1977 190.454 67.3853 190.457 60.6924C188.936 54.929 187.855 51.8984 187.213 51.6007C183.793 47.9173 179.197 46.0756 173.425 46.0756C173.04 46.0756 172.649 46.0838 172.253 46.1003L171.733 46.1049C171.303 46.035 170.871 46 170.437 46Z" fill="#39BBD1"/>
</svg>
