<?xml version="1.0" encoding="UTF-8"?>
<!DOCTYPE svg  PUBLIC '-//W3C//DTD SVG 1.1//EN'  'http://www.w3.org/Graphics/SVG/1.1/DTD/svg11.dtd'>
<svg enable-background="new 104.5815 124.5173 1616.4186 1768.4636" version="1.1" viewBox="104.5815 124.5173 1616.4186 1768.4636" xml:space="preserve" xmlns="http://www.w3.org/2000/svg">
	<path d="m1585.9 231.96c13.49-20.79 26-42.19 39.88-62.73 10.87 12.69 18.35 28.01 23.02 43.99 5.55 18.44 7.5801 37.68 9.3201 56.78 6.0699-5.98 11.48-12.58 17.46-18.64 0.6801 13.98 5.4401 27.61 4.35 41.71-1.0399 17.61-4.76 34.94-9.0499 52.01-4.9801 19.28-10.93 38.29-17.4 57.12 7.54-4.81 14.13-11.1 18.84-18.74 2.39 20.58 0.46 41.55-4.21 61.69-4.3 17.63-11.62 34.61-22.38 49.27 11.47-3.14 21.77-11.25 26.56-22.25-5.2 45.98-21.22 91.63-50.93 127.61 13.85-7.22 24.98-18.5 35.44-29.89 0.14 13.68-0.0599 27.45-2.49 40.96-6.7999 40.64-25.74 78.14-48.49 112.08 12.14-6.44 21.87-16.47 30.98-26.58-2.23 20.66-9.59 40.39-18.56 58.99-16.59 33.85-39.3 64.24-63.46 93.01 17.58-6.53 32.18-19.36 43.17-34.34-9.42 39.34-27.36 77.13-55.01 106.95-11.45 12.56-24.34 23.75-38.03 33.83 11.42-0.5099 22.82-1.44 34.23-2.1-20.08 32.79-48.03 60.39-80.21 81.31-10.27 6.6801-20.81 12.99-31.78 18.45 12.95-0.8199 25.86-2.24 38.81-3.1499-14.47 19.6-35.93 32.21-56.54 44.37-18.16 33.91-37.7 67.2-60.49 98.24-24.29 33.2-52.02 64.09-83.87 90.21-3.24 2.79-6.9299 5.1-9.91 8.15-1.61 9.8099-2.62 19.75-4.36 29.57-1.63 9.8301-4.1799 19.47-6.76 29.09 7.5901 3.6599 13.91 10.13 16.56 18.22 3.52 10.81 3.87 22.47 2.66 33.7-3.23 19.11-12.71 36.43-22.88 52.68-19.75 31.4-45.66 58.18-68.23 87.47-24.07 31.21-45.77 64.32-63.77 99.41-19.34 37.51-34.03 77.48-42.91 118.76-5.64 26.02-8.9 52.54-10.14 79.13-17.31 6.72-35.89 9.58-54.39 9.87-21.12 0.76-42.25-2.9301-62.15-9.92 2.17-19.52 6.26-39.93 18.61-55.77 8.2-10.8 20.6-17.68 33.63-20.85 12.43-41.83 20.61-84.79 33.44-126.51 11.34-37.45 24.93-74.46 44-108.73 6.33-11.04 13.1-21.87 20.95-31.9 1.64-2.2 3.8-4.22 4.3101-7.03 4.04-19.22 0.84-40.28-10.65-56.45-7.85 0.96-14.17 6.1799-18.94 12.16-9.8501-14.46-19.64-29.84-22.64-47.38-2.2001-11.58 2.34-22.89 6.08-33.63-10.33 0.51-17.91 8.4299-24.49 15.53-2.85-9.7599-5.58-19.99-3.86-30.22 2.06-12.61 5.26-25.01 8.29-37.41-7.8201 1.9199-16.9 4.84-19.93 13.2-0.09-8.98 0.03-18.04 2.04-26.84 1.9301-9.3301 4.78-18.43 7.94-27.41-10.5-0.1-17.91 8.99-22.06 17.66-0.61-5.6001-2.55-11.04-2.31-16.72 0.23-21.34 7.15-42.06 16.87-60.87 2.6801-5.5699 6.11-10.75 8.82-16.28 7.59-22.95 13.59-46.63 15.17-70.82 0.9301-15.91-1.0699-32.73-9.83-46.41-5.76-9.24-15.07-16.85-26.14-18.19-17.77-1.71-35.59 4.4-49.99 14.61-16.93 11.99-30 28.58-40.96 46.01-20.9 33.89-34.83 71.5-46.62 109.36-23.49 78.74-36.04 160.27-45.09 241.79-1.47 10.54-1.15 21.22-1.68 31.83-3.04 105.11-8.95 210.12-16.94 314.96-0.39 7.67-1.21 15.33-1.15 23.02 0.55-0.14 1.66-0.4299 2.21-0.58-0.08 1.16-0.15 2.33-0.23 3.53-0.78-0.91-1.51-1.86-2.21-2.77-23.36 8.47-48.68 10.67-73.31 8.12-13.54-1.37-26.94-4.27-39.71-9-0.4-18.04 2.06-36.75 11.25-52.59 8.81-15.41 23.15-26.91 38.71-35.04 2.09-54.32 5.99-108.69 3.69-163.07-1.34-24.1-2.23-48.35-6.77-72.11-7.98-41.82-22.86-81.96-39.62-120.98-8.89-20.92-19.39-41.12-28.26-62.05-7.75-16.8-15.19-33.75-21.89-50.99-23.28-59.1-39.49-120.82-50.3-183.36-18.35 11.26-38.89 19.26-60.29 22.14-26.56 3.4301-53.89-1.0699-78.43-11.59-24.1-10.26-45.56-25.9-64.46-43.89-44.48-0.01-89.02 2.37-133.06 8.8301 31.96-16.77 65.47-31.45 101-38.64-33.89-6.4601-68.6-7.61-103.01-6.2201-20.13 0.8101-40.13 3.3601-60.08 5.9801 34.78-16.42 71.75-27.33 108.4-38.68-29.89-5.34-60.14-8.54-90.45-10.19-21.12-1.13-42.28-0.88-63.42-1.06 44.82-13.99 91.44-23.24 138.54-23.22-4.7-19.53-7.65-39.48-8.49-59.55-1.09-23.85 0.82-48.17 8.77-70.82 8.47-24.33 24.36-45.41 43.14-62.77-6.73-17.25-12.91-34.72-18.4-52.4-4.78-15.87-8.31-32.3-8.27-48.94 0.98-34.25 12.56-67.14 26.44-98.11 30.93 10.89 59.05 31.01 77.66 58.23 11.83 17.15 19.71 36.75 24.63 56.93 20.23-10.49 42.24-17.5 64.76-20.93 25.36-3.71 51.16-4.38 76.69-2.26 27.31 2.31 55.13 9.57 77.14 26.57 27.9-25.97 60.92-46.62 96.96-59.21 18.55-6.65 37.82-11.09 57.29-14.05-0.86 37.71-8.89 75.77-27.23 108.98-10.33 19.18-23.53 36.67-38.03 52.88 10.32-3.09 18.89-10.12 26.65-17.34 18.05-17.44 32.31-38.27 46.01-59.17 13.26-19.84 27.02-39.41 42.53-57.57-3.59 14.76-4.73 30.01-4.39 45.17 11.84-21.56 24.67-42.77 40.94-61.33 15.39-17.94 34.7-32.83 56.8-41.49 10.98-4.46 22.57-7.24 34.28-8.97-2.85 2.99-5.61 6.14-7.5 9.84-2.89 5.47-3.5 11.8-3.63 17.89 29.19-26.99 64.92-47.76 104.15-55.65 8.85-1.76 17.85-2.83 26.88-3.1-10.4 6.31-19.5 15.26-24.47 26.5 23.23-7.77 47.35-13.06 71.82-14.63 12.31-0.94 24.68-0.94 37.02-0.8-6.78 6.64-13.35 13.71-17.87 22.14 14.77-2.3 29.78-2.52 44.69-1.9 16.32 0.86 31.99 6.41 46.31 14.06-6.99 0.39-14.51 0.83-20.37 5.09-3.75 2.65-6.23 6.6-8.48 10.51 18.07 0.85 35.66 8.05 49.27 19.93 8.6001 7.21 15.39 16.23 21.81 25.35-5.99-2.78-13.26-2.61-19.03 0.64-0.96 0.57-2.4399 0.84-2.35 2.23 13.38 6.53 26.24 15.04 35.32 27.05 7.3501 9.67 12.57 21.25 13.6 33.43-6.0901-2.46-12.81-5.53-19.46-3.57-2.22 0.57-4.4299 1.14-6.6499 1.58 12.74 4.78 23.76 14.22 29.65 26.58 4.86 9.9 6.62 21.03 6.6901 31.98-5.37-2.77-12.72-3.2401-17.63 0.73 2.78 3.2 6.64 5.34 9.2 8.8 12.26 14.8 17.15 33.91 22.25 52.04 2.13 8.38 4.36 16.75 5.99 25.25-8.0399-3.27-16.63-5.24-25.35-4.5099 10.8 17.86 14.56 38.69 18.86 58.81 12.69-11.86 21.95-27.34 26.04-44.24 3.66-14.18 5.04-28.84 5.8-43.42 0.9199-10.39-1.3401-20.65-2.53-30.91-1.9-14.01-4.9601-27.81-8.12-41.57-0.65-1.68-0.15-4.14-2.12-4.96 0.59-0.05 1.24-0.09 1.59 0.56 5.26 6.44 10.62 12.81 15.96 19.19 3.17-7.68 2.26-16.29 1.51-24.35-1.84-15.11-6.5599-29.7-8.4199-44.81-1.3101-8.97-0.9301-18.05-0.5701-27.07 0.21-5.78 1.1901-11.52 3.03-17 5.45 10.33 14.43 18.51 24.42 24.39 0.73-29.33-4.9701-58.27-6.4801-87.47-0.2999-11.54-0.63-23.27 2.01-34.59 2.17 9.46 6.01 20.15 15.52 24.46-0.34-23.45 0.92-47.01 5.61-70.03 4.5901-23.03 11.63-45.57 20.98-67.12 0.3301-0.69 0.76-1.33 1.28-1.92 2.5701 9.83 10.72 17.5 19.93 21.29 2.51-21.45 5.5599-42.84 9.5599-64.07 3.63-18.77 8.4501-37.3 13.64-55.69 1.1901 8.34 4.16 16.45 9.04 23.35 1.9399 2.78 4.35 5.19 6.27 8.01 5.36-19.32 10.62-38.72 17.37-57.62 8.0699-23.19 17.43-45.94 28.37-67.93-0.24 9.39-0.13 19.19 4.53 27.64 11.79-13.53 21.24-28.89 31.13-43.81m-1198.4 575.54c-10.63 7.13-17.56 18.63-21.35 30.66-7.24 22.24-6.75 45.93-6.71 69.05 6.66 0.71 13.32 1.43 19.97 2.22 2.11-12.82 3.79-25.99 9.18-37.94 2.64-6.02 8.53-10.07 14.9-11.22 5.59-1.01 11.84-1.57 16.97 1.37 4.73 2.66 7.53 7.71 8.85 12.83 3.05 11.37 2.07 23.26 2.27 34.9 10.7-0.03 21.4 0 32.1-0.01 0.35-12.82 3.01-25.54 2.15-38.39-0.57-17.62-2.14-35.95-10.31-51.89-5.31-10.57-15.68-18.51-27.51-20.05-13.87-1.64-28.74 0.56-40.51 8.47m230.53-7.15c-10.63 3.47-18.81 11.93-24.53 21.26-7.08 11.77-11.52 24.97-14.32 38.37-3.99 18.78-4.6 38.08-4.46 57.23 6.9901 0.0099 13.97-0.01 20.96 0.0099 0.61-15.3 1.31-31.48 9.27-45.05 4.03-7.19 11.55-12.69 20.01-12.66 4.35-0.48 7.93 2.71 10.29 6.01 5.05 7.14 7.4 15.88 8.03 24.52 0.61 9.46 0.36 19.06-1.91 28.3 10.71 0.23 21.41 0.75 32.12 1.0699-0.03-28.2 1.19-57.11-7.43-84.35-3.85-11.8-9.29-24.05-19.66-31.52-8.1-5.9998-19.08-6.1898-28.37-3.1898m-126.34 85.48c-0.4 3.37-0.05 6.77-0.27 10.16-0.76 12.17-1.32 24.35-2.17 36.51-2.64 8.27-5.93 16.35-8.76 24.57 23.91-8.64 48.6-15.79 74.05-17.73-17.33-2.19-34.66-4.35-51.96-6.7 0.79-13.21 1.44-26.43 2.18-39.64 0.06-3.42 0.18-7.1-1.54-10.17-3.1-4.18-10.9-2.19-11.53 3m174.33 112.59c-17.65 7.56-33.75 18.51-47.7 31.67 31-12.89 63.28-23.36 96.7-27.54 24.82-3.3 49.94-1.99 74.88-1.28 27.46 0.9 54.85 3.14 82.2 5.66-39.94-19.55-85.18-24.75-129.17-24.21-26.28 0.51-52.71 5.23-76.91 15.7m-195.55 7.14c-11.68 9.97-16.46 25.52-17.85 40.33 21.65-5.16 43.84-9.52 66.2-8.55 17.92 1.98 34.69 9.16 51.5 15.24-0.55-12.5-4-25.14-11.63-35.21-9.52-12.97-24.77-21.06-40.64-22.89-16.37-2.12-34.65-0.07-47.58 11.08m221.03 33.61c45.99 2.5399 92.34 5.0499 137.34 15.57-18.43-14.52-41.68-21.64-64.83-23.47-24.35-2.2-49.42-0.6499-72.51 7.9001m-65.7 21.29c31.42 12.27 62.69 25.01 93.26 39.3 15.33 7.5599 30.86 15.22 44.24 26-15.05-24.3-37.65-44.15-64.5-54.31-23.14-9.0999-48.3-11.73-73-10.99z"/>
	<path d="m387.57 807.5c11.77-7.91 26.64-10.11 40.51-8.47 11.83 1.54 22.2 9.48 27.51 20.05 8.17 15.94 9.74 34.27 10.31 51.89 0.86 12.85-1.8 25.57-2.15 38.39-10.7 0.01-21.4-0.02-32.1 0.01-0.2-11.64 0.78-23.53-2.27-34.9-1.32-5.12-4.12-10.17-8.85-12.83-5.13-2.94-11.38-2.38-16.97-1.37-6.37 1.15-12.26 5.2-14.9 11.22-5.39 11.95-7.07 25.12-9.18 37.94-6.65-0.79-13.31-1.51-19.97-2.22-0.04-23.12-0.53-46.81 6.71-69.05 3.79-12.03 10.72-23.53 21.35-30.66z" fill="#fff"/>
	<path d="m618.1 800.35c9.29-3 20.27-2.81 28.37 3.19 10.37 7.47 15.81 19.72 19.66 31.52 8.62 27.24 7.4 56.15 7.43 84.35-10.71-0.3199-21.41-0.84-32.12-1.0699 2.27-9.2401 2.52-18.84 1.91-28.3-0.63-8.64-2.98-17.38-8.03-24.52-2.36-3.3-5.94-6.49-10.29-6.01-8.46-0.03-15.98 5.47-20.01 12.66-7.96 13.57-8.66 29.75-9.27 45.05-6.99-0.02-13.97 0-20.96-0.0099-0.14-19.15 0.47-38.45 4.46-57.23 2.8-13.4 7.24-26.6 14.32-38.37 5.72-9.3302 13.9-17.79 24.53-21.26z" fill="#fff"/>
	<path d="m491.76 885.83c0.63-5.19 8.43-7.18 11.53-3 1.72 3.07 1.6 6.75 1.54 10.17-0.74 13.21-1.39 26.43-2.18 39.64 17.3 2.35 34.63 4.51 51.96 6.7-25.45 1.94-50.14 9.09-74.05 17.73 2.83-8.22 6.12-16.3 8.76-24.57 0.85-12.16 1.41-24.34 2.17-36.51 0.22-3.39-0.13-6.79 0.27-10.16z" fill="#fff"/>
	<path d="m666.09 998.42c24.2-10.47 50.63-15.19 76.91-15.7 43.99-0.54 89.23 4.66 129.17 24.21-27.35-2.52-54.74-4.76-82.2-5.66-24.94-0.71-50.06-2.02-74.88 1.28-33.42 4.18-65.7 14.65-96.7 27.54 13.95-13.16 30.05-24.11 47.7-31.67z" fill="#fff"/>
	<path d="m470.54 1005.6c12.93-11.15 31.21-13.2 47.58-11.08 15.87 1.83 31.12 9.92 40.64 22.89 7.63 10.07 11.08 22.71 11.63 35.21-16.81-6.08-33.58-13.26-51.5-15.24-22.36-0.97-44.55 3.39-66.2 8.55 1.39-14.81 6.17-30.36 17.85-40.33z" fill="#fff"/>
	<path d="m691.57 1039.2c23.09-8.55 48.16-10.1 72.51-7.9 23.15 1.83 46.4 8.95 64.83 23.47-45-10.52-91.35-13.03-137.34-15.57z" fill="#fff"/>
	<path d="m625.87 1060.5c24.7-0.74 49.86 1.89 73 10.99 26.85 10.16 49.45 30.01 64.5 54.31-13.38-10.78-28.91-18.44-44.24-26-30.57-14.29-61.84-27.03-93.26-39.3z" fill="#fff"/>
</svg>
