<svg width="85" height="83" viewBox="0 0 85 83" fill="none" xmlns="http://www.w3.org/2000/svg">
<path d="M7.58246 14.3695C7.61323 14.3708 7.63674 14.3917 7.63511 14.4297C7.63239 14.493 7.5498 14.5568 7.49612 14.5543C7.48302 14.5538 7.47165 14.5492 7.46357 14.5398C7.44592 14.5192 7.45406 14.4735 7.48041 14.4353C7.508 14.389 7.54942 14.368 7.58246 14.3695ZM8.00715 14.9925C8.01083 14.9926 8.01463 14.9954 8.01831 15.0012C8.03595 15.0218 8.03958 15.0812 8.01911 15.1263C8.01115 15.1461 8.00366 15.1552 7.99761 15.155C7.98787 15.1545 7.98189 15.1296 7.98381 15.0851C7.9814 15.0279 7.99344 14.9919 8.00715 14.9925ZM9.0644 15.0983C9.07674 15.0989 9.08794 15.1258 9.08624 15.1652C9.08484 15.1979 9.05273 15.2292 9.01583 15.2275L9.0156 15.2275C8.98478 15.226 8.97386 15.1926 8.99377 15.1606C9.01393 15.1222 9.04582 15.0974 9.06433 15.0983L9.0644 15.0983ZM0.626513 21.4111C0.630195 21.4113 0.633999 21.4141 0.637677 21.4199C0.655326 21.4405 0.658951 21.4999 0.638478 21.5449C0.630526 21.5647 0.623025 21.5739 0.616977 21.5737C0.607245 21.5732 0.601266 21.5483 0.603183 21.5037C0.60077 21.4466 0.612804 21.4105 0.626513 21.4111ZM73.9002 49.5771C73.9531 49.5795 73.9998 49.6316 73.9732 49.7015C73.9269 49.8294 73.8969 49.8896 73.8722 49.8885C73.8557 49.8877 73.8416 49.8597 73.8266 49.8062C73.8047 49.7394 73.7958 49.6599 73.8157 49.628C73.8376 49.5907 73.8699 49.5758 73.9002 49.5771ZM7.81205 14.05C7.72461 14.0721 7.32402 14.4803 7.32064 14.5592C7.31618 14.663 7.20851 14.78 7.14213 14.777C7.12873 14.7764 7.11701 14.7709 7.10816 14.7594C7.10287 14.7547 7.09778 14.7524 7.09305 14.7522C7.07647 14.7514 7.06415 14.777 7.06218 14.823C7.05963 14.8821 6.9946 14.9579 6.92481 15.0005C6.8787 15.0237 6.84335 15.0353 6.81197 15.0339C6.77028 15.032 6.73558 15.0072 6.69195 14.9563C6.60987 14.8536 6.61071 14.8338 6.6934 14.7787C6.74854 14.7433 6.7575 14.7297 6.71371 14.7277L6.71364 14.7277C6.69688 14.727 6.67242 14.7279 6.63989 14.73C6.43531 14.7463 6.3226 14.9251 6.41419 15.0941C6.45971 15.1823 6.46865 15.2132 6.40933 15.2105C6.3869 15.2095 6.3547 15.2037 6.31103 15.1944C6.28267 15.1895 6.25575 15.1865 6.23046 15.1854C6.06435 15.1779 5.96925 15.2486 6.00691 15.3704C6.02316 15.4238 6.01417 15.4892 5.97633 15.5071C5.94437 15.5319 5.93007 15.5772 5.94715 15.611C5.97323 15.6583 5.9634 15.6781 5.93408 15.6768C5.87963 15.6743 5.75799 15.5991 5.67424 15.4924C5.58631 15.3817 5.49426 15.3191 5.44147 15.3168C5.40278 15.315 5.38519 15.3456 5.4058 15.4134C5.42785 15.4736 5.40171 15.5117 5.34042 15.509C5.34025 15.509 5.34007 15.509 5.3399 15.509C5.28442 15.5062 5.24296 15.4647 5.24521 15.4122C5.24864 15.3326 5.18968 15.279 5.1319 15.2764C5.09433 15.2747 5.05726 15.2945 5.03814 15.3429C5.01739 15.3945 5.014 15.4733 5.03697 15.5139C5.05176 15.5401 5.04656 15.5543 5.02482 15.5534C5.0128 15.5528 4.99573 15.5476 4.97418 15.5372C4.95402 15.5289 4.937 15.5243 4.92287 15.5237C4.88596 15.522 4.86872 15.5473 4.86627 15.6043C4.86428 15.6505 4.85968 15.6735 4.84952 15.673C4.84091 15.6726 4.82831 15.6554 4.80994 15.6213C4.78406 15.5733 4.74286 15.5513 4.70015 15.5494C4.61071 15.5453 4.51467 15.6293 4.53892 15.7463C4.55312 15.833 4.55023 15.8634 4.49381 15.8608C4.47248 15.8598 4.44351 15.8542 4.40493 15.8451C4.37238 15.8376 4.34455 15.8333 4.32144 15.8323C4.26637 15.8298 4.23809 15.8459 4.2365 15.8829C4.23482 15.9219 4.20679 15.9415 4.16258 15.9395C4.14719 15.9388 4.12983 15.9355 4.11094 15.9295C4.08911 15.9216 4.07037 15.9174 4.05452 15.9167C4.00851 15.9147 3.98683 15.942 3.98452 15.9957C3.98161 16.0635 3.97292 16.096 3.9386 16.0945C3.90974 16.0932 3.86275 16.0677 3.78582 16.0189C3.73526 15.9868 3.69569 15.9713 3.6687 15.97L3.6686 15.97C3.60581 15.9672 3.61132 16.0421 3.70535 16.1663C3.76361 16.2497 3.78947 16.2867 3.78255 16.2864C3.77703 16.2861 3.75061 16.2621 3.7031 16.2189C3.65713 16.1771 3.63085 16.1544 3.61876 16.1538L3.61865 16.1538C3.60274 16.1532 3.61171 16.1912 3.63274 16.2747C3.65074 16.3489 3.64711 16.3979 3.62681 16.397C3.62343 16.3968 3.6196 16.3953 3.61533 16.3923C3.60176 16.3827 3.58737 16.3774 3.5718 16.3767C3.51855 16.3743 3.45143 16.4251 3.35578 16.5376C3.29046 16.62 3.30054 16.6731 3.39914 16.8227C3.4745 16.9357 3.49227 16.9927 3.46467 16.9915C3.43913 16.9903 3.37473 16.9393 3.28115 16.8367L3.1394 16.685L3.02866 16.8178C2.97624 16.88 2.90968 16.9257 2.86575 16.9238C2.86058 16.9235 2.85572 16.9226 2.85124 16.921C2.84771 16.9195 2.84421 16.9187 2.84074 16.9185C2.76064 16.9149 2.6979 17.2662 2.77685 17.3583C2.83422 17.4253 2.8114 17.4745 2.75908 17.4721C2.73093 17.4708 2.69423 17.4546 2.65689 17.4183C2.62764 17.3894 2.60764 17.3732 2.59373 17.3726C2.57098 17.3716 2.56448 17.412 2.56046 17.5057C2.55623 17.6042 2.59289 17.7574 2.64443 17.852C2.69624 17.9401 2.72312 18.0336 2.69732 18.0586C2.69135 18.0644 2.68552 18.0671 2.68036 18.0669C2.66878 18.0663 2.66058 18.0512 2.66175 18.024C2.66372 17.978 2.63431 17.9437 2.60348 17.9422L2.60338 17.9422C2.56646 17.9405 2.55108 18.0121 2.57177 18.1051C2.59188 18.2113 2.57708 18.2698 2.52795 18.2675L2.52746 18.2675C2.48448 18.2656 2.4644 18.304 2.48061 18.3574C2.49685 18.4108 2.46377 18.4619 2.38277 18.4777C2.31411 18.494 2.27514 18.5382 2.29223 18.5719C2.30903 18.6122 2.29501 18.6511 2.25745 18.6624C2.21373 18.6734 2.17307 18.757 2.16351 18.8355C2.15199 18.96 2.07518 19.022 1.8179 19.1148C1.53539 19.2195 1.4967 19.2571 1.52216 19.3834C1.54164 19.5021 1.52206 19.5344 1.42481 19.53C1.42428 19.5299 1.42374 19.5299 1.4232 19.5299L1.42244 19.5299C1.35496 19.5268 1.29848 19.5569 1.29679 19.5961C1.29577 19.6199 1.28213 19.6361 1.26333 19.6353C1.25613 19.635 1.24818 19.6321 1.23989 19.6263C1.23878 19.6253 1.23761 19.6248 1.23639 19.6247C1.21132 19.6236 1.16308 19.8121 1.13495 20.0555C1.10545 20.3107 1.04625 20.5382 1.01458 20.5564C0.976461 20.5808 0.974198 20.6334 1.00248 20.694C1.06171 20.8015 1.06764 20.8773 1.03156 20.8757C1.02225 20.8753 1.01014 20.8697 0.995432 20.8582C0.987245 20.8533 0.979592 20.8508 0.97262 20.8505C0.948813 20.8494 0.932987 20.8736 0.931239 20.9143C0.92821 20.9848 0.898585 21.0167 0.864746 21.0152C0.826071 21.0134 0.781891 20.968 0.765624 20.8865C0.761633 20.8654 0.753444 20.8554 0.741877 20.8548C0.651295 20.8508 0.353491 21.4305 0.24128 21.8744C0.182644 22.0887 0.115873 22.3487 0.0864119 22.4591C-0.0900575 23.1152 0.00813396 23.7057 0.340963 24.0115C0.418286 24.0811 0.482435 24.1698 0.481304 24.1961C0.479892 24.2289 0.550485 24.3113 0.627814 24.3809C0.697444 24.4412 0.73487 24.471 0.755433 24.4719C0.77533 24.4728 0.779441 24.4467 0.781662 24.395C0.78322 24.3587 0.789631 24.3393 0.805019 24.34C0.825848 24.3409 0.863127 24.3787 0.927086 24.4613C1.05622 24.619 1.29216 24.7358 1.93215 24.9381C1.99177 24.9545 2.08586 24.9657 2.1885 24.9703C2.28562 24.9747 2.39039 24.9732 2.48085 24.9648C2.56522 24.9543 2.63497 24.9489 2.69482 24.9516C2.90375 24.961 2.99202 25.0689 3.16031 25.3994C3.22864 25.5344 3.40174 25.8192 3.53423 26.0429C3.67317 26.2603 3.78071 26.4893 3.77817 26.5484C3.77026 26.7323 4.40449 27.5003 4.71186 27.6798C4.86232 27.7727 5.12908 27.891 5.29356 27.9451C5.68949 28.0762 5.90636 28.2053 6.20305 28.4896C6.41681 28.6908 6.50195 28.8661 6.79959 29.7033C7.081 30.487 7.18854 30.716 7.33255 30.8151C7.44257 30.8972 7.52569 30.9409 7.61369 30.9449C7.72198 30.9498 7.83767 30.8945 8.01999 30.7763C8.1546 30.6864 8.24654 30.637 8.32983 30.6407C8.45119 30.6462 8.55418 30.7646 8.74404 31.0353C8.91051 31.2767 9.04812 31.3882 9.21638 31.3958C9.29502 31.3994 9.38035 31.3802 9.47846 31.341C9.60395 31.2945 9.71685 31.2539 9.72928 31.2545L9.7293 31.2545C9.74163 31.2551 9.77382 31.3686 9.80489 31.5083C9.8643 31.8217 10.0194 31.9936 10.2416 32.0036C10.2454 32.0038 10.2493 32.0039 10.2531 32.004C10.344 32.0076 10.4246 32.0109 10.4968 32.0141C11.0418 32.0387 11.1025 32.0634 11.4157 32.2647C11.6605 32.4181 11.7607 32.4636 11.9451 32.4719C12.0009 32.4744 12.0645 32.4735 12.1421 32.4712C12.5879 32.4469 12.9517 32.3198 13.1962 32.0948C13.447 31.8636 13.8643 31.0678 14.1532 30.2395C14.4903 29.2951 14.7973 28.9087 15.4725 28.5796C15.6444 28.497 15.7654 28.453 15.8623 28.4574C16.0108 28.4641 16.1025 28.5844 16.233 28.8536C16.8348 30.0873 16.9487 30.7444 16.9692 33.2857C16.9935 35.3073 16.9276 36.5545 16.7563 37.5202C16.55 38.7276 16.5459 39.2539 16.7474 41.1788C16.9399 43.0244 16.9491 43.3868 16.947 47.3156L16.9412 49.8951L16.7959 50.2566C16.7132 50.4566 16.6394 50.736 16.6332 50.8805C16.6245 51.0841 16.5905 51.1548 16.4448 51.2398C16.3495 51.301 16.2604 51.3624 16.241 51.3813C16.1956 51.4317 15.4977 51.7135 15.2351 51.7863C15.1163 51.82 14.7679 51.8754 14.4574 51.9129C14.1531 51.9507 13.7411 52.0491 13.5522 52.132C13.3634 52.2149 13.1691 52.2843 13.1319 52.2826L13.1315 52.2826C13.0884 52.2807 13.0502 52.3116 13.0485 52.351C13.0472 52.3819 13.0015 52.3947 12.9027 52.3903C12.8338 52.3872 12.7392 52.3757 12.6158 52.3562C12.4924 52.3366 12.3978 52.3252 12.329 52.3221C12.2301 52.3176 12.1845 52.3304 12.1831 52.3614C12.1815 52.4006 12.1129 52.43 12.0271 52.4262L12.0246 52.4261C11.8457 52.418 11.5579 52.5351 11.5542 52.6203C11.5533 52.6407 11.5268 52.6497 11.4863 52.6478C11.4616 52.6467 11.4317 52.6416 11.3992 52.6325C11.3676 52.6212 11.3384 52.6154 11.314 52.6143C11.2725 52.6125 11.2451 52.624 11.2443 52.6447C11.2428 52.6775 11.0859 52.7357 10.8992 52.7661C10.7126 52.7965 10.5556 52.8546 10.5539 52.894C10.5527 52.9233 10.5077 52.9359 10.4419 52.933C10.4192 52.9319 10.394 52.9291 10.3673 52.9244C10.3342 52.9161 10.3023 52.9116 10.2745 52.9104C10.2205 52.9079 10.1822 52.9177 10.1815 52.9351C10.1807 52.9548 10.098 53.01 9.99119 53.0508C9.89057 53.092 9.80143 53.1535 9.80002 53.1863C9.79876 53.2156 9.7605 53.2286 9.70562 53.2261C9.68682 53.2253 9.66608 53.2226 9.6442 53.2182C9.61008 53.2086 9.57872 53.2034 9.55329 53.2023C9.51503 53.2006 9.49018 53.208 9.4895 53.2238C9.48837 53.2501 9.36253 53.3032 9.20642 53.3416C9.05032 53.3801 8.9242 53.4397 8.92307 53.466C8.92166 53.4987 8.8838 53.5231 8.83473 53.5209L8.83333 53.5209C8.69841 53.5148 8.65694 53.6245 8.72428 53.7788C8.77497 53.8932 8.84811 53.9165 9.18102 53.9327C9.39681 53.9432 9.59296 53.9791 9.60977 54.0194C9.6331 54.0623 9.77611 54.0893 10.0051 54.0997C10.2818 54.1122 10.6842 54.1001 11.1525 54.0617C11.559 54.0293 12.0199 54.0059 12.1831 54.0133C12.1842 54.0133 12.1852 54.0134 12.1863 54.0134C12.1879 54.0135 12.1896 54.0136 12.1912 54.0136C12.3434 54.0205 12.4835 54.0012 12.4974 53.9628C12.5111 53.9305 12.8763 53.9154 13.3145 53.9237L14.1169 53.943L14.1616 54.1953L14.2067 54.441L14.6567 54.4629C14.6623 54.4632 14.668 54.4635 14.6735 54.4637C14.9131 54.4745 15.1203 54.465 15.1337 54.4336C15.1679 54.3563 15.5638 54.1786 15.6938 54.1845L15.695 54.1845C15.7564 54.1873 15.8125 54.1638 15.8142 54.1245C15.8178 54.0402 16.2384 53.9377 16.4471 53.9471C16.4824 53.9487 16.5115 53.9535 16.5317 53.9621C16.6042 53.9985 16.8368 54.0493 17.0577 54.0864C17.1506 54.1019 17.2425 54.1115 17.3322 54.1156C17.995 54.1455 18.5433 53.8744 18.5605 53.4753C18.565 53.3702 18.6172 53.1622 18.673 53.0135C18.7288 52.8649 18.7824 52.624 18.7883 52.4861C18.7943 52.3482 18.8804 52.0693 18.9757 51.8634C19.1053 51.5802 19.1723 51.3136 19.2342 50.7375C19.3578 49.73 19.7165 47.7073 19.8944 47.0184C20.0493 46.4336 20.5246 44.4299 20.6492 43.8305C20.7963 43.14 20.9876 41.5633 21.0701 40.363C21.1173 39.694 21.221 38.7185 21.2991 38.1958L21.4389 37.2417L21.3146 36.8277C21.1957 36.4336 21.1929 36.3545 21.2837 34.5293C21.3567 33.118 21.3983 32.5803 21.4749 32.3801C21.5307 32.2314 21.6149 31.8538 21.6719 31.5341C21.7227 31.2141 21.7909 30.9213 21.8113 30.8762C21.8159 30.8686 21.8278 30.8651 21.8473 30.866C21.9424 30.8703 22.2181 30.9771 22.7055 31.2028C23.6386 31.63 24.2348 31.8434 25.036 32.0338C25.3235 32.1005 25.5793 32.1853 25.6087 32.2197C25.6381 32.254 25.7384 32.6538 25.8301 33.1058C26.1861 34.8869 26.9538 38.1556 27.1724 38.8178C27.3961 39.5066 27.7227 40.2464 27.8364 40.331C27.8664 40.3522 27.981 40.5618 28.0944 40.7976C28.3209 41.2759 28.4448 42.131 28.501 43.5552C28.5332 44.5308 28.5978 45.1855 28.6638 45.373C28.6916 45.4467 28.756 45.6736 28.803 45.8733C28.892 46.2462 28.9133 46.3262 29.0622 46.7415C29.1342 46.9359 29.4113 48.1077 29.7532 49.638C29.795 49.8178 29.915 50.3304 30.0197 50.7698C30.4499 52.548 30.5025 52.9059 30.4708 53.7862C30.4513 54.2394 30.466 54.9048 30.4998 55.2684C30.5336 55.632 30.5581 56.0676 30.5508 56.2383C30.5434 56.4091 30.5716 56.7592 30.6099 57.0178C30.6913 57.568 30.64 57.7563 30.2775 58.1401L30.0575 58.3729L29.3148 58.4025C28.9939 58.4178 28.3957 58.4115 27.8434 58.3866C27.6925 58.3798 27.545 58.3716 27.4075 58.3621L26.249 58.2924L26.0419 58.5127C25.9314 58.6389 25.6749 58.8568 25.4776 58.9919C25.28 59.1337 25.1009 59.2763 25.0745 59.3145C25.0548 59.3462 24.9376 59.3732 24.8212 59.3679C24.8205 59.3679 24.8197 59.3679 24.8189 59.3678L24.8182 59.3678C24.6944 59.3622 24.4069 59.4534 24.1174 59.5903C23.8526 59.7156 23.2934 59.9318 22.88 60.063C22.4667 60.1942 22.0336 60.3508 21.9196 60.4177C21.8261 60.4702 21.7149 60.5021 21.6593 60.4996C21.6509 60.4992 21.6438 60.4981 21.6382 60.4961C21.6325 60.4927 21.627 60.4909 21.6217 60.4906C21.582 60.4888 21.553 60.5752 21.5344 60.7543C21.5001 61.1211 21.5901 61.1847 22.1881 61.2139C22.5272 61.2304 22.6493 61.2627 22.7014 61.3442C22.7384 61.405 22.7868 61.434 22.9369 61.4407C23.0214 61.4445 23.1381 61.4413 23.3031 61.4328C23.6001 61.4209 23.8423 61.3933 23.8434 61.367C23.8448 61.3342 24.0746 61.3059 24.3591 61.3C24.6373 61.2938 24.9165 61.268 24.979 61.2513C25.0001 61.2428 25.0171 61.2383 25.0307 61.239C25.0737 61.2409 25.0821 61.2939 25.0761 61.4337C25.0623 61.7569 25.124 61.8668 25.4098 61.8797C25.4725 61.8825 25.5459 61.8807 25.6317 61.8754C25.861 61.8603 26.0479 61.8233 26.0493 61.7905C26.0507 61.758 26.2018 61.7394 26.3894 61.7478C26.392 61.7479 26.3945 61.7481 26.3971 61.7482C26.3985 61.7482 26.3999 61.7483 26.4012 61.7484C26.7673 61.7649 27.6133 61.6295 27.6664 61.5403C27.686 61.5149 28.1873 61.4933 28.78 61.5024C30.126 61.522 31.5617 61.467 31.5648 61.3947C31.5659 61.3688 31.7172 61.3502 31.8991 61.3584C31.9014 61.3585 31.9038 61.3586 31.9061 61.3587C31.9093 61.3589 31.9124 61.359 31.9155 61.3592C32.6981 61.3945 33.0505 61.0488 33.1956 60.1054C33.2226 59.9093 33.3132 59.5254 33.3932 59.2463C33.6333 58.4024 33.7126 57.5639 33.8311 54.8056C33.9418 52.2312 33.9543 50.501 33.8595 49.8317C33.8125 49.4872 33.7296 48.6868 33.6108 47.424C33.5731 47.0076 33.4828 46.378 33.4173 46.0325C33.2654 45.2551 33.2481 44.0763 33.3808 43.4312C33.5046 42.8515 33.47 42.2181 33.3034 41.9269C33.165 41.6964 32.9287 41.1584 32.8245 40.8506C32.6876 40.4425 32.6607 40.349 32.5272 39.8621C32.3564 39.2351 32.2598 38.0327 32.3041 37.0016C32.3225 36.5747 32.3101 35.8568 32.2676 35.4072C32.2313 34.9579 32.2233 34.5692 32.243 34.5438C32.2442 34.543 32.2463 34.5426 32.2492 34.5427C32.3091 34.5454 32.7219 34.7504 33.2049 35.0185C35.0513 36.0431 36.0077 36.5043 36.7939 36.7533C37.0315 36.8307 37.6575 37.0718 38.1919 37.2887C38.7259 37.5122 39.2062 37.6935 39.2617 37.6962C39.385 37.7023 39.864 38.3442 40.2253 38.9936C40.5581 39.589 40.6393 39.7114 40.8166 39.8978C40.8875 39.9736 40.9455 40.062 40.9441 40.0948C40.943 40.1211 41.0542 40.2647 41.1903 40.403C41.32 40.5475 41.6271 40.8784 41.8627 41.1465C42.6939 42.0755 42.8121 42.1998 43.1968 42.4489C43.6538 42.741 44.4111 43.0872 45.1299 43.3263C45.5931 43.4739 45.6833 43.5309 45.978 43.8612C46.1609 44.061 46.3576 44.2285 46.4131 44.2312C46.5796 44.2393 47.3344 44.4999 47.3507 44.5534C47.3616 44.5868 47.4594 44.6113 47.5642 44.6164C47.8969 44.6392 48.5125 44.8338 48.6122 44.9571C48.6651 45.0189 48.7248 45.0679 48.7495 45.0691C48.7741 45.0703 48.8697 45.1473 48.9644 45.2441C49.0591 45.3408 49.1731 45.4188 49.2163 45.4209C49.2594 45.423 49.3124 45.4848 49.3277 45.5579C49.3431 45.6311 49.4023 45.6932 49.4577 45.6959C49.5132 45.6986 49.6149 45.776 49.6911 45.8718C49.7673 45.9677 49.8752 46.0453 49.943 46.0486C50.1156 46.0571 50.6247 46.2859 50.6219 46.3516C50.6205 46.3844 50.7427 46.4167 50.8968 46.4242C51.1619 46.4371 51.5814 46.5958 51.6567 46.7113C51.6741 46.7385 51.7952 46.7971 51.9294 46.8365C51.9979 46.8579 52.0682 46.8695 52.1342 46.8724C52.3094 46.8803 52.4549 46.8279 52.4588 46.7373C52.4655 46.5797 52.7048 46.1836 52.7851 46.1872L52.7852 46.1872C52.9701 46.1962 53.4249 46.3961 53.4464 46.4696C53.4568 46.5161 53.5232 46.5523 53.5972 46.5559C53.7759 46.5646 54.3095 46.8012 54.3066 46.8669C54.3055 46.8931 54.3475 46.9215 54.3968 46.9239C54.4832 46.9281 54.6378 47.0673 55.004 47.4603C55.0804 47.5496 55.1701 47.6198 55.1948 47.621C55.2194 47.6222 55.315 47.6992 55.3976 47.7888C55.631 48.0431 56.1386 48.1918 56.608 48.213C57.0288 48.232 57.4189 48.1484 57.5531 47.9466C57.5794 47.9084 57.6487 47.8724 57.6919 47.8744L57.6926 47.8744C57.7417 47.8766 57.7861 47.8459 57.7875 47.8132C57.7892 47.7739 57.821 47.7491 57.8517 47.7505L57.852 47.7505C57.8891 47.7522 57.9969 47.6851 58.0933 47.5978C58.1896 47.5104 58.2974 47.4433 58.3345 47.445L58.3347 47.445C58.3717 47.4467 58.4364 47.3775 58.4773 47.2874C58.5182 47.1974 58.5951 47.1288 58.6445 47.1311L58.6448 47.1311C58.688 47.133 58.7459 47.0767 58.7677 46.9989C58.7893 46.9275 58.8605 46.852 58.9292 46.8356C58.9978 46.8192 59.0688 46.7503 59.0904 46.679C59.112 46.6076 59.1891 46.539 59.2577 46.5226C59.3325 46.5065 59.39 46.4632 59.392 46.4173C59.4013 46.3453 59.6757 45.9967 59.9796 45.6825C60.18 45.4751 60.2462 45.373 60.5412 44.8346L60.7826 44.3923L61.1634 44.4438C61.3724 44.4671 61.7698 44.5655 62.05 44.6581C62.3285 44.7559 62.5939 44.81 62.8852 44.8231C63.1858 44.8367 63.514 44.8066 63.9125 44.7357C64.7878 44.5834 65.6805 44.5274 66.4855 44.5637C67.1745 44.5948 67.7992 44.6935 68.2937 44.8572C69.0247 45.0969 70.7868 45.354 72.2233 45.424C73.1604 45.4697 73.3139 45.4903 73.5799 45.6283C73.7429 45.7153 73.8749 45.8073 73.8735 45.8401C73.8721 45.8729 73.9141 45.9013 73.9696 45.904C74.0251 45.9067 74.1977 46.0599 74.3565 46.2454C74.5624 46.4857 74.6425 46.6344 74.6371 46.7592C74.6319 46.8806 74.624 46.9187 74.5473 46.9152C74.5161 46.9138 74.4736 46.9055 74.4151 46.8932C74.3683 46.8837 74.3286 46.8781 74.298 46.8767C74.2445 46.8743 74.2184 46.8848 74.2291 46.9104C74.2522 46.9443 74.2206 46.969 74.1715 46.9668L74.1708 46.9668C74.1215 46.9646 74.0389 47.0197 73.9866 47.0894C73.9409 47.1533 73.8891 47.1855 73.8372 47.1831C73.822 47.1825 73.8067 47.1788 73.7915 47.1721C73.7687 47.1599 73.7478 47.1536 73.7316 47.1529C73.7092 47.1519 73.6957 47.1615 73.6985 47.1807C73.719 47.3628 73.5068 47.6387 73.3641 47.6322C73.3512 47.6316 73.3389 47.6287 73.3273 47.6233C73.319 47.6195 73.3117 47.6175 73.3055 47.6172C73.2751 47.6158 73.2684 47.6548 73.2858 47.7265C73.2997 47.7996 73.2977 47.8315 73.2757 47.8305C73.2657 47.83 73.2516 47.8228 73.2328 47.8095C73.2112 47.7953 73.1963 47.7877 73.1879 47.7872L73.1873 47.7872C73.1753 47.7869 73.1778 47.802 73.1947 47.834C73.2177 47.8746 73.1877 47.9982 73.1332 48.114C73.0729 48.2229 73.0314 48.3262 73.0435 48.3334C73.0438 48.3337 73.0442 48.3339 73.0448 48.3339C73.0677 48.3349 73.3141 48.095 73.6041 47.7947C73.9018 47.4802 74.1658 47.2299 74.1906 47.231H74.1906C74.2954 47.2361 74.302 47.5129 74.2047 47.62C74.1464 47.6829 74.0999 47.7597 74.0982 47.7991C74.0965 47.8385 74.0699 47.8832 74.0446 47.8952C73.9883 47.9122 73.9617 47.9569 73.5991 48.6303C73.4914 48.8356 73.3726 49.0141 73.3476 49.0195C73.3224 49.0314 73.3263 49.0842 73.3672 49.1389C73.4535 49.2587 73.3796 49.5397 73.2771 49.5351C73.2688 49.5347 73.2602 49.5325 73.2516 49.5281C73.2365 49.5212 73.2218 49.5175 73.2088 49.517C73.18 49.5157 73.1589 49.5293 73.1578 49.5565C73.1561 49.5958 73.2096 49.6445 73.2827 49.6678C73.3558 49.6911 73.4429 49.8204 73.4922 49.9676C73.5684 50.2082 73.5922 50.2292 73.8141 50.24C73.8156 50.2401 73.817 50.2401 73.8185 50.2402C73.9942 50.2481 74.0754 50.2123 74.1474 50.1049C74.2791 49.9139 74.4643 49.199 74.5851 48.4019C74.6783 47.8142 74.6996 47.7494 74.8176 47.7354C74.8256 47.7345 74.8334 47.7342 74.8409 47.7346C74.985 47.7411 75.039 47.9742 74.9662 48.3021C74.9283 48.4647 74.937 48.5507 74.9969 48.5931C75.0569 48.6355 75.0748 48.7944 75.068 49.0968C75.0544 49.412 75.0886 49.6243 75.1729 49.8192L75.2849 50.0879L75.0488 50.5503C74.9204 50.8071 74.7758 51.0106 74.7264 51.0084L74.7261 51.0084C74.6708 51.0059 74.6367 51.0832 74.6299 51.2406C74.6223 51.4179 74.5886 51.4821 74.495 51.5039C74.4264 51.5203 74.3689 51.5635 74.3675 51.5963C74.3662 51.6257 74.3213 51.6383 74.2554 51.6353C74.2327 51.6343 74.2075 51.6314 74.1808 51.6267C74.1477 51.6184 74.1158 51.614 74.0881 51.6127C74.034 51.6103 73.9958 51.6201 73.995 51.6374C73.9939 51.6637 73.9182 51.6995 73.8246 51.7213C73.6004 51.763 73.4056 51.9838 73.2861 52.3202C73.2394 52.4549 73.172 52.559 73.1287 52.5571C73.1262 52.557 73.1238 52.5565 73.1215 52.5557C73.1166 52.5531 73.112 52.5518 73.1078 52.5516C73.076 52.5501 73.0648 52.6159 73.0702 52.744C73.0771 52.8694 73.1099 52.9697 73.1407 52.9712C73.1716 52.9727 73.1945 53.0133 73.1923 53.0659C73.179 53.3745 73.5878 53.7828 73.933 53.7996C74.0131 53.8035 74.086 53.8334 74.0969 53.8668C74.1078 53.9003 74.3404 53.9511 74.6237 53.9715C74.7245 53.9814 74.8078 53.9879 74.8767 53.991C75.0813 54.0002 75.1594 53.9794 75.194 53.9269C75.2178 53.8962 75.2364 53.8797 75.247 53.8802C75.254 53.8805 75.2575 53.8881 75.2568 53.9036C75.2548 53.9496 75.3574 54.0073 75.486 54.0333C75.8649 54.1307 75.9131 54.1594 76.0326 54.3956C76.1688 54.6786 76.4262 54.8688 76.8642 55.0284C77.4381 55.2401 78.8971 55.4281 80.0166 55.4786C80.5817 55.5041 81.0603 55.4945 81.2949 55.4353C81.7319 55.3316 82.312 55.0571 82.3163 54.9586C82.3182 54.9126 82.3959 54.8309 82.4912 54.7697C82.7006 54.6417 82.8508 54.4516 82.8834 54.2689C82.8988 54.1973 82.9459 54.1075 82.9905 54.0767C83.0799 54.0087 83.2238 53.6801 83.2303 53.529C83.2387 53.4768 83.2827 53.3144 83.3444 53.1726C83.4 53.0305 83.4533 52.7962 83.4657 52.652C83.4719 52.5076 83.5303 52.155 83.592 51.8685C83.6537 51.5819 83.7649 51.0082 83.832 50.5969C83.9053 50.1858 84.0301 49.5799 84.1056 49.2611C84.1876 48.936 84.3029 48.4086 84.366 48.0892C84.4356 47.7635 84.5712 47.1976 84.6677 46.8205C84.9025 45.9567 85 45.1256 84.918 44.7334C84.8777 44.5208 84.7626 44.3243 84.4979 44.0153C84.305 43.7901 84.11 43.6138 84.0627 43.6116C84.0609 43.6116 84.0594 43.6117 84.058 43.6121C84.046 43.6169 84.0346 43.6188 84.0243 43.6184C83.9971 43.6171 83.9783 43.5992 83.9793 43.5754C83.9807 43.5425 83.9034 43.473 83.8005 43.4219C83.7039 43.3711 83.6201 43.3078 83.6212 43.2815C83.6221 43.2607 83.5604 43.2474 83.4676 43.2432C83.4143 43.2408 83.3508 43.2414 83.283 43.2453C83.2062 43.2501 83.1434 43.2514 83.0936 43.2492C82.9909 43.2446 82.9441 43.2247 82.9456 43.1893C82.9473 43.1499 82.8686 43.1132 82.7699 43.1084C82.4987 43.0951 81.9685 42.9245 81.9716 42.8523C81.9726 42.8298 81.9297 42.8144 81.8626 42.8114C81.8318 42.81 81.796 42.8112 81.7569 42.8155C81.7134 42.8206 81.6726 42.8224 81.6385 42.8208C81.58 42.8182 81.5411 42.806 81.542 42.7853C81.5431 42.759 81.4653 42.7025 81.3745 42.6586C81.2772 42.621 81.1573 42.5362 81.0985 42.4675C80.9749 42.3233 80.6519 42.2219 80.2576 42.1961C80.0911 42.188 79.9625 42.162 79.9639 42.1292C79.965 42.1029 79.3185 42.0516 78.5232 42.0128C78.4374 42.0086 78.3532 42.0047 78.2714 42.001C77.5956 41.9705 77.0806 41.9578 77.0853 41.9756C77.0906 41.9956 77.0505 42.0661 76.9981 42.1359C76.9284 42.2247 76.7553 42.285 76.6494 42.2803C76.5965 42.2779 76.5604 42.2593 76.562 42.2199C76.5635 42.1871 76.4676 42.1166 76.3525 42.0649C76.2373 42.0133 76.1415 41.9428 76.1429 41.9099C76.1436 41.8939 76.1234 41.8842 76.0919 41.8828C76.0718 41.8819 76.047 41.8844 76.0202 41.8908C75.9934 41.8972 75.9686 41.8997 75.9485 41.8988C75.917 41.8973 75.8967 41.8876 75.8974 41.8716C75.8988 41.8388 75.803 41.7683 75.6879 41.7166C75.5727 41.665 75.4769 41.5945 75.4783 41.5616C75.4794 41.5362 75.4568 41.5234 75.4223 41.5218C75.4032 41.5209 75.3805 41.5235 75.3561 41.5294C75.3366 41.5353 75.3164 41.5375 75.2962 41.5366C75.2389 41.5341 75.1821 41.5055 75.1429 41.4597C75.0899 41.3979 74.933 41.3113 74.7932 41.2584C74.6531 41.2121 74.5259 41.1532 74.5085 41.1261C74.4147 41.0096 72.9975 40.2034 72.283 39.8658C70.9812 39.2495 70.6575 39.1614 69.4077 39.0609C68.4597 38.9818 68.2882 38.9471 67.9673 38.7933C67.7675 38.698 67.4397 38.5635 67.2388 38.4945C66.9118 38.387 66.0958 38.2903 65.3606 38.2571C64.9864 38.2402 64.6332 38.2398 64.376 38.2628C63.8483 38.306 63.5688 38.3348 63.3692 38.3258C63.0928 38.3133 62.9695 38.2284 62.552 38.0093C62.081 37.756 61.817 37.572 61.605 37.3313C61.4458 37.1525 61.1421 36.8876 60.9379 36.7526C60.7339 36.611 60.5305 36.4563 60.4893 36.4082C60.4482 36.3601 60.3109 36.2482 60.1851 36.1565C60.0593 36.0648 59.9279 35.9596 59.8867 35.9116C59.8455 35.8635 59.5342 35.6311 59.1863 35.3904C58.8386 35.1431 58.5146 34.9167 58.4665 34.888C58.4186 34.8528 58.0333 34.6168 57.6116 34.3659C57.1838 34.1147 56.8419 33.8743 56.8439 33.8283C56.8456 33.7889 56.8288 33.7486 56.8041 33.7474C56.7425 33.7444 56.5554 33.3536 56.5602 33.2419C56.5639 33.1566 55.8971 32.716 55.7552 32.7091C55.7183 32.7073 55.584 32.6678 55.4621 32.629L55.2371 32.5456L55.2746 31.9617C55.2884 31.6399 55.2885 31.3504 55.265 31.3229C55.2414 31.2954 55.1187 31.2763 55.0016 31.2706C54.9957 31.2706 54.9897 31.2705 54.9836 31.2702C54.8603 31.2646 54.684 31.199 54.5754 31.1247C54.3834 30.9903 54.3776 30.9835 54.4026 30.5438C54.426 30.1435 54.4162 30.0837 54.2641 29.8855C54.1706 29.7624 54.0512 29.6645 53.9957 29.6618C53.7368 29.6492 53.2529 29.4084 53.0523 29.188C52.9344 29.0572 52.8094 28.9458 52.7847 28.9446C52.7539 28.9431 52.701 28.8813 52.6609 28.807C52.6209 28.7326 52.5556 28.6702 52.5124 28.6681C52.4754 28.6663 52.4037 28.6102 52.3634 28.5424C52.288 28.4268 51.9566 28.233 51.6523 28.126C51.5668 28.1021 51.2465 27.9351 50.9327 27.7618C50.6251 27.5889 50.3595 27.4443 50.3533 27.444C50.341 27.4434 50.1487 27.3156 49.9204 27.1663C49.1818 26.6696 48.4261 26.4287 47.0076 26.2279C46.5651 26.1734 46.1117 26.0855 45.996 26.0469C45.8803 26.0084 45.5073 25.9178 45.1708 25.8422C44.7179 25.7411 44.4321 25.635 44.0645 25.4197C43.793 25.2682 43.4845 25.115 43.3685 25.083C43.2584 25.0579 43.0544 24.9163 42.9185 24.7715C42.6115 24.4406 42.2562 24.2259 41.907 24.1562C41.6803 24.1122 41.6142 24.0695 41.5232 23.8874C41.4154 23.665 40.9833 23.3675 40.7491 23.3561C40.6258 23.3501 40.4223 23.1954 39.7914 22.6381C39.6547 22.513 39.4689 22.3789 39.3717 22.3412C39.2806 22.3039 39.1072 22.1704 38.989 22.0462C38.8708 21.9219 38.6545 21.7798 38.5144 21.7334C38.3743 21.6871 38.1568 21.5712 38.0372 21.4798C37.9176 21.3884 37.3578 21.0453 36.7977 20.7086C35.2493 19.7907 33.5421 18.977 32.4448 18.6339C32.0057 18.5006 31.7092 18.3545 31.3551 18.1135C30.1912 17.3065 29.876 17.1661 28.8089 16.9824C28.4461 16.9215 28.0761 16.8821 27.7131 16.8657C27.3581 16.8497 27.0098 16.8557 26.6816 16.8853C26.4979 16.9019 26.3766 16.9117 26.2692 16.9068C26.0722 16.8979 25.9216 16.8397 25.5165 16.6837L24.8787 16.4288L23.5224 16.3627C23.4879 16.361 23.4537 16.3594 23.4198 16.3579C21.8087 16.2852 20.9328 16.3897 20.0459 16.7526C19.8761 16.8232 19.4307 16.9792 19.061 17.0994C18.2841 17.3511 18.151 17.4302 17.6461 17.9649C17.2453 18.3797 16.9559 18.7868 16.6668 19.3321C16.5322 19.586 16.4097 19.715 16.2205 19.7064C16.0034 19.6967 15.6987 19.5059 15.1872 19.1152C14.535 18.6227 14.2761 18.4653 13.9827 18.3918C13.7199 18.3263 13.2122 17.775 13.1148 17.4544C13.0882 17.3544 13.0123 17.252 12.9453 17.229C12.8787 17.1994 12.8436 17.1516 12.8635 17.1197C12.8896 17.0881 12.8353 17.0591 12.749 17.0549C12.6441 17.0497 12.6021 17.0214 12.6293 16.9635C12.6501 16.9118 12.5369 16.8142 12.3315 16.7054C12.1441 16.6107 11.9891 16.4781 11.9796 16.4119C11.9639 16.3453 11.8984 16.2894 11.8182 16.2855C11.7443 16.2819 11.6476 16.2312 11.6005 16.1762C11.5474 16.121 11.5308 16.0742 11.5554 16.0753L11.5555 16.0753C11.58 16.0764 11.5512 16.029 11.4857 15.9732C11.4263 15.9176 11.3111 15.8659 11.2371 15.8623C11.157 15.8584 11.0968 15.8226 11.0982 15.7897C11.0996 15.7572 11.0754 15.7325 11.0424 15.731C11.0353 15.7306 11.0279 15.7314 11.0203 15.7333C11.0174 15.7339 11.0143 15.7341 11.011 15.7339C10.9209 15.7298 10.675 15.4711 10.7247 15.4227C10.7646 15.3791 10.5419 15.3188 10.3772 15.3113C10.3278 15.3091 10.2837 15.3116 10.2534 15.3208C10.2264 15.3285 10.2039 15.3316 10.186 15.3308C10.1127 15.3275 10.1173 15.258 10.2106 15.1673C10.2686 15.1109 10.2694 15.0912 10.2201 15.0888L10.2198 15.0888C10.1767 15.0869 10.1262 15.1172 10.1063 15.1491C10.0882 15.1754 10.0618 15.1888 10.0374 15.1877C10.0263 15.1872 10.0156 15.1837 10.0063 15.1771C9.99975 15.171 9.98599 15.1677 9.9665 15.1669C9.89709 15.1637 9.75498 15.191 9.60858 15.2301C9.45759 15.2738 9.34893 15.2939 9.28406 15.291C9.19842 15.2871 9.18909 15.2431 9.25943 15.1604C9.30541 15.0969 9.28917 15.0434 9.18187 14.9526C9.11603 14.894 9.07803 14.8659 9.05177 14.8647C9.0282 14.8636 9.01408 14.8842 8.99776 14.9239C8.977 14.9756 8.88674 15.0633 8.80405 15.1185C8.73627 15.1587 8.6982 15.1783 8.67761 15.1773C8.65776 15.1764 8.65415 15.1565 8.65581 15.1178C8.65835 15.0587 8.71806 14.9629 8.79487 14.9009C8.89804 14.8006 8.90533 14.7746 8.83276 14.7382C8.82425 14.7343 8.81453 14.7322 8.80394 14.7317C8.75412 14.7295 8.68492 14.7634 8.63152 14.8205C8.56072 14.8953 8.50831 14.9323 8.47367 14.9307C8.43548 14.929 8.41889 14.8804 8.42303 14.784C8.42291 14.7122 8.42285 14.6777 8.40999 14.6771C8.39811 14.6766 8.3753 14.705 8.3314 14.7598C8.28889 14.8157 8.26483 14.8442 8.24636 14.8434C8.225 14.8424 8.21112 14.8022 8.18485 14.7198C8.15847 14.6449 8.14446 14.6079 8.13451 14.6075C8.12576 14.6071 8.12014 14.6349 8.11199 14.6899C8.10273 14.7618 8.09934 14.8406 8.09849 14.8603C8.10023 14.8795 8.06227 14.8865 8.01428 14.8844C7.94631 14.8813 7.85821 14.8597 7.83424 14.8277C7.81659 14.8071 7.806 14.6223 7.81474 14.4187C7.81733 14.2148 7.81822 14.0503 7.81205 14.05Z" fill="#39BBD1"/>
</svg>
