<svg width="348" height="319" viewBox="0 0 348 319" fill="none" xmlns="http://www.w3.org/2000/svg">
<path d="M31.0435 55.2276C31.1694 55.233 31.2657 55.3131 31.259 55.4592C31.2479 55.7026 30.9098 55.9475 30.69 55.9382C30.6364 55.9359 30.5898 55.9185 30.5567 55.8823C30.4845 55.8031 30.5178 55.6276 30.6257 55.4808C30.7386 55.3025 30.9082 55.2219 31.0435 55.2276ZM32.7822 57.6221C32.7973 57.6227 32.8129 57.6335 32.8279 57.6556C32.9001 57.7349 32.915 57.9631 32.8312 58.1363C32.7986 58.2124 32.7679 58.2477 32.7431 58.2466C32.7033 58.2449 32.6788 58.1492 32.6867 57.978C32.6768 57.7582 32.7261 57.6197 32.7822 57.6221ZM37.1107 58.0287C37.1612 58.031 37.2071 58.1343 37.2002 58.2858C37.1944 58.4117 37.0629 58.5319 36.9119 58.5255L36.9109 58.5254C36.7847 58.5196 36.74 58.3912 36.8215 58.2684C36.9041 58.1207 37.0346 58.0255 37.1104 58.0287L37.1107 58.0287ZM2.56502 82.2914C2.58009 82.2921 2.59567 82.3029 2.61073 82.325C2.68298 82.4042 2.69782 82.6325 2.61401 82.8057C2.58145 82.8818 2.55074 82.9171 2.52598 82.916C2.48613 82.9143 2.46165 82.8186 2.4695 82.6473C2.45962 82.4275 2.50889 82.2891 2.56502 82.2914ZM302.556 190.544C302.773 190.553 302.964 190.753 302.855 191.022C302.666 191.514 302.543 191.745 302.442 191.74C302.374 191.738 302.316 191.63 302.255 191.424C302.165 191.167 302.129 190.862 302.21 190.739C302.3 190.596 302.432 190.539 302.556 190.544ZM31.9835 54C31.6255 54.0848 29.9854 55.6538 29.9716 55.9567C29.9533 56.3556 29.5125 56.8054 29.2407 56.7939C29.1859 56.7916 29.1379 56.7704 29.1016 56.7263C29.08 56.7084 29.0592 56.6993 29.0398 56.6985C28.9719 56.6956 28.9215 56.7939 28.9134 56.9706C28.903 57.1978 28.6367 57.4891 28.351 57.6531C28.1622 57.7422 28.0175 57.7867 27.889 57.7812C27.7183 57.774 27.5762 57.6787 27.3976 57.483C27.0616 57.0882 27.065 57.0124 27.4036 56.8003C27.6293 56.6643 27.666 56.6122 27.4867 56.6046L27.4864 56.6046C27.4178 56.6017 27.3177 56.6053 27.1845 56.6132C26.3469 56.676 25.8855 57.3631 26.2604 58.0127C26.4468 58.3515 26.4834 58.4705 26.2406 58.4602C26.1487 58.4563 26.0169 58.4339 25.8381 58.398C25.722 58.3793 25.6118 58.368 25.5082 58.3636C24.8282 58.3348 24.4388 58.6065 24.593 59.0745C24.6595 59.2799 24.6227 59.5311 24.4678 59.5999C24.337 59.6951 24.2784 59.8695 24.3483 59.9992C24.4551 60.1812 24.4149 60.2572 24.2948 60.2521C24.0719 60.2427 23.5739 59.9536 23.231 59.5433C22.871 59.1182 22.4941 58.8776 22.278 58.8684C22.1196 58.8617 22.0476 58.9794 22.132 59.24C22.2223 59.4712 22.1152 59.6178 21.8643 59.6072C21.8636 59.6072 21.8629 59.6071 21.8622 59.6071C21.635 59.5967 21.4653 59.4372 21.4745 59.2353C21.4885 58.9293 21.2472 58.7232 21.0106 58.7132C20.8568 58.7067 20.705 58.7831 20.6267 58.9688C20.5418 59.1673 20.5279 59.4701 20.6219 59.6262C20.6825 59.7267 20.6612 59.7815 20.5722 59.7778C20.523 59.7757 20.4531 59.7557 20.3649 59.7157C20.2823 59.6839 20.2127 59.6662 20.1548 59.6638C20.0037 59.6574 19.9331 59.7546 19.9231 59.9736C19.915 60.1512 19.8961 60.2395 19.8545 60.2377C19.8193 60.2362 19.7677 60.1701 19.6925 60.039C19.5865 59.8543 19.4178 59.7698 19.243 59.7624C18.8768 59.7469 18.4836 60.0697 18.5829 60.5194C18.641 60.8525 18.6292 60.9692 18.3982 60.9594C18.3109 60.9557 18.1923 60.9339 18.0343 60.899C17.901 60.8704 17.7871 60.8538 17.6925 60.8498C17.467 60.8403 17.3512 60.9022 17.3447 61.0445C17.3379 61.1942 17.2231 61.2695 17.0421 61.2618C16.9791 61.2591 16.908 61.2464 16.8307 61.2232C16.7413 61.1932 16.6646 61.1771 16.5997 61.1744C16.4113 61.1664 16.3226 61.2713 16.3131 61.4778C16.3012 61.7383 16.2656 61.8634 16.1251 61.8574C16.0069 61.8524 15.8145 61.7548 15.4996 61.5671C15.2926 61.4437 15.1306 61.3839 15.0201 61.3792L15.0197 61.3791C14.7626 61.3684 14.7852 61.6562 15.1701 62.1337C15.4087 62.4541 15.5145 62.5963 15.4862 62.5951C15.4636 62.5941 15.3554 62.5018 15.1609 62.3357C14.9727 62.1749 14.8651 62.0879 14.8156 62.0856L14.8152 62.0855C14.75 62.0831 14.7868 62.2294 14.8729 62.5501C14.9466 62.8354 14.9317 63.0237 14.8486 63.0202C14.8348 63.0196 14.8191 63.0137 14.8016 63.0021C14.746 62.9652 14.6871 62.945 14.6234 62.9423C14.4053 62.9331 14.1306 63.1284 13.739 63.5606C13.4715 63.8772 13.5128 64.0814 13.9165 64.6563C14.225 65.0908 14.2978 65.3098 14.1848 65.305C14.0802 65.3006 13.8165 65.1045 13.4334 64.7101L12.8531 64.1271L12.3997 64.6374C12.1851 64.8766 11.9126 65.0523 11.7327 65.0447C11.7115 65.0438 11.6917 65.0404 11.6733 65.0342C11.6589 65.0283 11.6445 65.0252 11.6303 65.0246C11.3024 65.0107 11.0455 66.3607 11.3687 66.715C11.6036 66.9724 11.5102 67.1613 11.296 67.1522C11.1807 67.1473 11.0305 67.0851 10.8776 66.9454C10.7579 66.8343 10.676 66.7723 10.619 66.7699C10.5259 66.7659 10.4993 66.9212 10.4828 67.2815C10.4655 67.66 10.6156 68.2486 10.8266 68.6124C11.0387 68.951 11.1488 69.3102 11.0432 69.4064C11.0187 69.4287 10.9948 69.439 10.9737 69.4381C10.9263 69.4361 10.8927 69.378 10.8975 69.2733C10.9056 69.0966 10.7852 68.9646 10.659 68.9589L10.6585 68.9589C10.5074 68.9524 10.4444 69.2276 10.5291 69.5852C10.6115 69.9932 10.5509 70.2179 10.3497 70.2094L10.3477 70.2093C10.1717 70.2019 10.0895 70.3497 10.1559 70.5546C10.2224 70.76 10.087 70.9562 9.75533 71.017C9.47422 71.0799 9.31468 71.2497 9.38464 71.3793C9.45344 71.5342 9.39603 71.6834 9.24225 71.7269C9.06325 71.7693 8.8968 72.0905 8.85768 72.3923C8.8105 72.8707 8.49604 73.1092 7.44269 73.4657C6.28607 73.8681 6.12766 74.0126 6.23191 74.4979C6.31167 74.9543 6.23148 75.0783 5.83334 75.0614C5.83115 75.0613 5.82895 75.0612 5.82674 75.0611L5.82365 75.061C5.54736 75.0493 5.31612 75.1647 5.30921 75.3156C5.30503 75.407 5.24921 75.4694 5.1722 75.4662C5.14274 75.4649 5.11019 75.4541 5.07624 75.4315C5.0717 75.4278 5.06693 75.4258 5.06193 75.4256C4.9593 75.4213 4.76177 76.1459 4.64663 77.0812C4.52584 78.0621 4.28348 78.9363 4.15379 79.0063C3.99775 79.1003 3.98848 79.3022 4.10429 79.5352C4.34675 79.9484 4.37103 80.2397 4.22332 80.2335C4.18521 80.2319 4.13564 80.2104 4.07542 80.1662C4.0419 80.1475 4.01056 80.1379 3.98202 80.1367C3.88455 80.1326 3.81976 80.2256 3.8126 80.3818C3.8002 80.6527 3.67891 80.7754 3.54037 80.7696C3.38203 80.7629 3.20115 80.5882 3.13456 80.2749C3.11821 80.194 3.08469 80.1554 3.03733 80.1534C2.66648 80.1377 1.44724 82.3658 0.98783 84.0718C0.747766 84.8955 0.474398 85.8947 0.353781 86.3192C-0.368706 88.8409 0.0333014 91.1104 1.39594 92.2857C1.71251 92.5532 1.97514 92.894 1.97052 92.995C1.96473 93.1211 2.25375 93.4379 2.57035 93.7054C2.85542 93.937 3.00864 94.0514 3.09283 94.055C3.17429 94.0585 3.19112 93.9581 3.20021 93.7595C3.20659 93.6201 3.23284 93.5455 3.29584 93.5481C3.38112 93.5518 3.53374 93.6969 3.7956 94.0143C4.32431 94.6204 5.29024 95.0692 7.91046 95.8468C8.15452 95.91 8.53974 95.9529 8.95998 95.9707C9.35758 95.9875 9.78653 95.9819 10.1569 95.9496C10.5023 95.9091 10.7879 95.8884 11.0329 95.8988C11.8883 95.935 12.2497 96.3497 12.9387 97.6199C13.2184 98.1386 13.9271 99.2334 14.4695 100.093C15.0384 100.928 15.4787 101.809 15.4683 102.036C15.4359 102.742 18.0325 105.694 19.2909 106.384C19.9069 106.741 20.999 107.196 21.6724 107.404C23.2934 107.908 24.1813 108.404 25.396 109.496C26.2712 110.27 26.6197 110.944 27.8383 114.161C28.9904 117.173 29.4307 118.053 30.0203 118.435C30.4708 118.75 30.8111 118.918 31.1713 118.933C31.6147 118.952 32.0883 118.739 32.8348 118.285C33.3859 117.94 33.7623 117.75 34.1033 117.764C34.6002 117.785 35.0218 118.24 35.7991 119.281C36.4807 120.208 37.0441 120.637 37.733 120.666C38.0549 120.68 38.4043 120.606 38.8059 120.456C39.3197 120.277 39.7819 120.121 39.8328 120.123L39.8329 120.123C39.8834 120.125 40.0152 120.561 40.1424 121.098C40.3856 122.303 41.0205 122.964 41.9304 123.002C41.946 123.003 41.9617 123.003 41.9775 123.004C42.3495 123.018 42.6797 123.03 42.9751 123.043C45.2066 123.137 45.455 123.232 46.7374 124.006C47.7396 124.595 48.1495 124.77 48.9048 124.802C49.1333 124.812 49.3934 124.808 49.711 124.799C51.5365 124.706 53.0258 124.218 54.0266 123.353C55.0537 122.464 56.762 119.406 57.9447 116.222C59.325 112.593 60.5818 111.107 63.3461 109.843C64.0498 109.525 64.5456 109.356 64.9422 109.373C65.5502 109.399 65.9254 109.861 66.4596 110.896C68.9237 115.637 69.3899 118.163 69.4739 127.93C69.5735 135.7 69.3035 140.493 68.6025 144.204C67.7577 148.845 67.741 150.868 68.5658 158.266C69.3541 165.359 69.3915 166.752 69.3832 181.852L69.3593 191.766L68.7646 193.155C68.4259 193.924 68.1238 194.998 68.0983 195.553C68.0625 196.336 67.9236 196.607 67.3269 196.934C66.9367 197.169 66.5718 197.405 66.4926 197.478C66.3067 197.672 63.4495 198.755 62.3743 199.034C61.8878 199.164 60.4616 199.377 59.1903 199.521C57.9443 199.666 56.2576 200.044 55.4842 200.363C54.7115 200.682 53.9158 200.949 53.7634 200.942L53.7617 200.942C53.5856 200.935 53.4291 201.054 53.4222 201.205C53.4167 201.324 53.2298 201.373 52.825 201.356C52.5433 201.344 52.1559 201.3 51.6507 201.225C51.1455 201.15 50.7582 201.106 50.4764 201.094C50.0716 201.077 49.8847 201.126 49.8792 201.245C49.8723 201.396 49.5916 201.509 49.2406 201.494L49.2299 201.493C48.4975 201.462 47.3192 201.913 47.3043 202.24C47.3007 202.318 47.192 202.353 47.0264 202.346C46.9251 202.341 46.8025 202.322 46.6698 202.287C46.5405 202.243 46.4206 202.221 46.3207 202.217C46.1511 202.21 46.0389 202.254 46.0353 202.334C46.0295 202.46 45.3869 202.683 44.6228 202.8C43.8586 202.917 43.216 203.14 43.2091 203.292C43.2039 203.404 43.0198 203.453 42.7502 203.442C42.6573 203.438 42.5543 203.427 42.4449 203.409C42.3093 203.377 42.1787 203.359 42.0652 203.355C41.8438 203.345 41.6873 203.383 41.6842 203.45C41.6808 203.525 41.3423 203.738 40.9051 203.895C40.4931 204.053 40.1282 204.289 40.1224 204.415C40.1173 204.528 39.9606 204.578 39.7359 204.568C39.659 204.565 39.574 204.555 39.4845 204.538C39.3448 204.501 39.2164 204.481 39.1123 204.477C38.9556 204.47 38.8539 204.499 38.8511 204.559C38.8465 204.66 38.3313 204.864 37.6922 205.012C37.0531 205.16 36.5367 205.389 36.5321 205.49C36.5263 205.616 36.3713 205.71 36.1704 205.701L36.1647 205.701C35.6123 205.678 35.4425 206.099 35.7182 206.692C35.9258 207.132 36.2252 207.222 37.5882 207.284C38.4716 207.324 39.2747 207.462 39.3435 207.617C39.439 207.782 40.0246 207.886 40.9619 207.926C42.095 207.974 43.7424 207.927 45.6595 207.78C47.3237 207.655 49.211 207.565 49.8791 207.594C49.8835 207.594 49.8878 207.594 49.8921 207.594C49.8988 207.594 49.9055 207.595 49.9123 207.595C50.5355 207.621 51.1089 207.547 51.1657 207.4C51.2219 207.276 52.7169 207.218 54.5113 207.249L57.7961 207.324L57.9794 208.293L58.1638 209.237L60.0064 209.322C60.0294 209.323 60.0523 209.324 60.0752 209.325C61.056 209.366 61.9042 209.33 61.9592 209.209C62.0991 208.912 63.7201 208.229 64.2522 208.252L64.2573 208.252C64.5085 208.262 64.7384 208.172 64.7453 208.021C64.7601 207.697 66.482 207.303 67.3366 207.339C67.4807 207.345 67.6002 207.364 67.6826 207.397C67.9797 207.537 68.932 207.732 69.836 207.875C70.2165 207.934 70.5926 207.971 70.9602 207.987C73.6735 208.102 75.9186 207.06 75.9888 205.526C76.0073 205.122 76.2209 204.322 76.4494 203.751C76.6779 203.18 76.8973 202.254 76.9216 201.724C76.9459 201.194 77.2985 200.122 77.6888 199.331C78.2192 198.242 78.4937 197.218 78.7469 195.003C79.253 191.131 80.7218 183.358 81.45 180.71C82.0841 178.462 84.0301 170.761 84.5403 168.457C85.1423 165.804 85.9256 159.744 86.2633 155.13C86.4568 152.559 86.8814 148.81 87.201 146.801L87.7736 143.134L87.2647 141.543C86.7775 140.028 86.7661 139.724 87.1379 132.71C87.4367 127.285 87.6072 125.219 87.9207 124.449C88.1492 123.878 88.4939 122.426 88.7272 121.198C88.9352 119.968 89.2144 118.842 89.2982 118.669C89.3168 118.64 89.3655 118.627 89.4455 118.63C89.8347 118.647 90.9635 119.057 92.9589 119.924C96.779 121.566 99.2202 122.386 102.5 123.118C103.677 123.375 104.725 123.701 104.845 123.833C104.966 123.965 105.376 125.501 105.752 127.238C107.209 134.084 110.352 146.647 111.247 149.192C112.163 151.839 113.5 154.683 113.966 155.007C114.088 155.089 114.557 155.894 115.022 156.801C115.949 158.639 116.456 161.925 116.686 167.399C116.818 171.149 117.083 173.665 117.353 174.386C117.467 174.669 117.73 175.541 117.923 176.309C118.287 177.742 118.374 178.049 118.984 179.646C119.279 180.393 120.413 184.896 121.813 190.778C121.984 191.469 122.476 193.439 122.904 195.128C124.665 201.962 124.881 203.338 124.751 206.721C124.671 208.463 124.731 211.02 124.87 212.417C125.008 213.815 125.108 215.489 125.078 216.145C125.048 216.801 125.164 218.147 125.321 219.141C125.654 221.256 125.444 221.979 123.96 223.455L123.059 224.349L120.018 224.463C118.704 224.522 116.255 224.498 113.994 224.402C113.376 224.376 112.772 224.344 112.21 224.308L107.467 224.04L106.619 224.887C106.166 225.372 105.116 226.209 104.308 226.728C103.499 227.273 102.766 227.821 102.658 227.968C102.577 228.09 102.098 228.194 101.621 228.174C101.618 228.173 101.615 228.173 101.612 228.173L101.608 228.173C101.102 228.152 99.9247 228.502 98.7396 229.028C97.6553 229.51 95.3661 230.341 93.6736 230.845C91.9811 231.349 90.2083 231.951 89.7413 232.208C89.3586 232.41 88.9032 232.533 88.6758 232.523C88.6414 232.522 88.6122 232.517 88.5892 232.509C88.566 232.496 88.5435 232.489 88.5218 232.489C88.3594 232.482 88.2406 232.814 88.1644 233.502C88.024 234.912 88.3922 235.156 90.8406 235.268C92.2288 235.332 92.729 235.456 92.9423 235.769C93.0935 236.003 93.2917 236.114 93.9063 236.14C94.2522 236.155 94.73 236.142 95.4055 236.11C96.6217 236.064 97.613 235.958 97.6176 235.857C97.6234 235.731 98.5643 235.622 99.7288 235.599C100.868 235.576 102.011 235.476 102.267 235.412C102.353 235.379 102.423 235.362 102.479 235.365C102.655 235.372 102.689 235.576 102.665 236.113C102.608 237.355 102.861 237.778 104.031 237.827C104.287 237.838 104.588 237.831 104.939 237.811C105.878 237.752 106.643 237.61 106.649 237.484C106.655 237.36 107.273 237.288 108.041 237.32C108.052 237.321 108.062 237.321 108.073 237.322C108.078 237.322 108.084 237.322 108.09 237.322C109.588 237.386 113.052 236.865 113.269 236.523C113.35 236.425 115.402 236.342 117.829 236.377C123.339 236.452 129.217 236.241 129.23 235.963C129.235 235.864 129.854 235.792 130.599 235.824C130.608 235.824 130.618 235.824 130.627 235.825C130.64 235.825 130.653 235.826 130.666 235.827C133.87 235.962 135.312 234.634 135.907 231.008C136.017 230.254 136.388 228.779 136.716 227.706C137.699 224.463 138.023 221.24 138.509 210.639C138.962 200.745 139.013 194.095 138.625 191.522C138.433 190.198 138.093 187.122 137.607 182.269C137.452 180.668 137.083 178.248 136.814 176.921C136.192 173.933 136.122 169.402 136.665 166.923C137.172 164.695 137.03 162.26 136.348 161.141C135.782 160.255 134.814 158.188 134.387 157.005C133.827 155.436 133.717 155.077 133.17 153.205C132.471 150.796 132.076 146.174 132.257 142.211C132.332 140.571 132.281 137.811 132.108 136.083C131.959 134.357 131.926 132.863 132.006 132.765C132.011 132.762 132.02 132.761 132.032 132.761C132.277 132.771 133.967 133.559 135.945 134.59C143.504 138.527 147.42 140.3 150.639 141.257C151.612 141.554 154.174 142.481 156.362 143.315C158.549 144.174 160.515 144.871 160.742 144.881C161.247 144.904 163.208 147.372 164.687 149.868C166.05 152.156 166.382 152.626 167.108 153.342C167.398 153.634 167.636 153.974 167.63 154.1C167.625 154.201 168.081 154.753 168.638 155.284C169.169 155.84 170.426 157.111 171.391 158.142C174.794 161.712 175.278 162.19 176.853 163.147C178.724 164.27 181.824 165.601 184.767 166.519C186.663 167.087 187.033 167.306 188.239 168.575C188.988 169.343 189.794 169.987 190.021 169.998C190.702 170.029 193.793 171.03 193.859 171.236C193.904 171.364 194.304 171.458 194.733 171.478C196.095 171.566 198.616 172.313 199.024 172.787C199.241 173.025 199.485 173.213 199.586 173.218C199.687 173.222 200.078 173.518 200.466 173.89C200.854 174.262 201.32 174.562 201.497 174.57C201.674 174.578 201.891 174.816 201.954 175.097C202.017 175.378 202.259 175.616 202.486 175.627C202.713 175.637 203.129 175.935 203.441 176.303C203.753 176.671 204.195 176.97 204.473 176.983C205.179 177.015 207.264 177.894 207.252 178.147C207.246 178.273 207.747 178.397 208.378 178.426C209.463 178.476 211.18 179.086 211.489 179.53C211.56 179.634 212.055 179.859 212.605 180.011C212.885 180.093 213.173 180.137 213.444 180.149C214.161 180.179 214.756 179.977 214.772 179.629C214.8 179.024 215.78 177.501 216.108 177.515L216.109 177.515C216.866 177.55 218.728 178.318 218.816 178.6C218.858 178.779 219.13 178.918 219.433 178.932C220.165 178.966 222.349 179.875 222.338 180.127C222.333 180.228 222.505 180.337 222.707 180.347C223.06 180.363 223.694 180.898 225.193 182.408C225.506 182.751 225.873 183.021 225.974 183.026C226.075 183.03 226.466 183.326 226.804 183.671C227.76 184.648 229.838 185.22 231.76 185.301C233.483 185.374 235.08 185.053 235.629 184.277C235.737 184.13 236.021 183.992 236.197 183.999L236.2 184C236.401 184.008 236.583 183.89 236.589 183.764C236.596 183.613 236.726 183.518 236.852 183.524L236.853 183.524C237.005 183.53 237.446 183.272 237.841 182.936C238.235 182.601 238.676 182.343 238.828 182.349L238.829 182.349C238.981 182.356 239.245 182.09 239.413 181.744C239.58 181.398 239.895 181.134 240.097 181.143L240.099 181.143C240.275 181.15 240.512 180.934 240.602 180.635C240.69 180.36 240.982 180.07 241.263 180.007C241.544 179.944 241.834 179.679 241.923 179.405C242.011 179.131 242.327 178.867 242.608 178.804C242.914 178.742 243.15 178.576 243.158 178.399C243.196 178.123 244.319 176.783 245.563 175.575C246.384 174.778 246.655 174.386 247.863 172.317L248.851 170.616L250.41 170.814C251.266 170.904 252.893 171.282 254.04 171.638C255.18 172.014 256.267 172.222 257.459 172.272C258.69 172.325 260.034 172.209 261.665 171.937C265.249 171.351 268.904 171.136 272.199 171.276C275.02 171.395 277.578 171.774 279.602 172.404C282.595 173.325 289.809 174.313 295.691 174.582C299.527 174.757 300.156 174.837 301.245 175.367C301.912 175.701 302.452 176.055 302.447 176.181C302.441 176.307 302.613 176.416 302.84 176.427C303.067 176.437 303.774 177.026 304.424 177.739C305.267 178.662 305.595 179.234 305.573 179.713C305.552 180.18 305.52 180.326 305.206 180.313C305.078 180.308 304.904 180.276 304.664 180.228C304.473 180.192 304.31 180.17 304.185 180.165C303.966 180.156 303.859 180.196 303.902 180.295C303.997 180.425 303.868 180.52 303.667 180.511L303.664 180.511C303.462 180.503 303.124 180.715 302.91 180.983C302.723 181.228 302.511 181.352 302.298 181.343C302.236 181.34 302.173 181.326 302.111 181.3C302.018 181.254 301.932 181.229 301.866 181.227C301.774 181.223 301.719 181.26 301.73 181.333C301.814 182.033 300.946 183.094 300.361 183.069C300.308 183.067 300.258 183.055 300.211 183.034C300.177 183.02 300.147 183.012 300.121 183.011C299.997 183.006 299.969 183.155 300.041 183.431C300.097 183.712 300.09 183.835 299.999 183.831C299.959 183.829 299.901 183.801 299.824 183.75C299.735 183.696 299.674 183.667 299.64 183.665L299.637 183.664C299.588 183.663 299.599 183.721 299.668 183.844C299.762 184 299.639 184.475 299.416 184.92C299.169 185.339 298.999 185.736 299.049 185.764C299.05 185.765 299.052 185.766 299.054 185.766C299.148 185.77 300.156 184.848 301.344 183.693C302.563 182.485 303.644 181.523 303.745 181.527H303.745C304.174 181.546 304.201 182.61 303.803 183.022C303.564 183.264 303.374 183.559 303.367 183.71C303.36 183.861 303.251 184.034 303.147 184.079C302.917 184.145 302.808 184.317 301.323 186.905C300.883 187.694 300.396 188.38 300.294 188.401C300.191 188.446 300.207 188.649 300.374 188.859C300.727 189.32 300.425 190.4 300.005 190.382C299.971 190.381 299.936 190.372 299.901 190.355C299.839 190.329 299.779 190.315 299.725 190.313C299.607 190.308 299.521 190.36 299.516 190.464C299.51 190.616 299.729 190.803 300.028 190.892C300.327 190.982 300.684 191.479 300.886 192.045C301.197 192.969 301.295 193.05 302.204 193.091C302.21 193.092 302.216 193.092 302.221 193.092C302.941 193.123 303.273 192.985 303.568 192.572C304.108 191.838 304.866 189.09 305.36 186.027C305.742 183.768 305.829 183.519 306.312 183.466C306.345 183.462 306.377 183.461 306.407 183.462C306.997 183.487 307.219 184.383 306.921 185.643C306.765 186.269 306.801 186.599 307.046 186.762C307.292 186.925 307.365 187.535 307.337 188.698C307.282 189.909 307.421 190.725 307.767 191.474L308.225 192.507L307.258 194.284C306.733 195.271 306.141 196.053 305.939 196.045L305.938 196.045C305.711 196.035 305.571 196.332 305.544 196.937C305.512 197.619 305.375 197.865 304.991 197.949C304.71 198.012 304.475 198.178 304.469 198.304C304.464 198.417 304.28 198.466 304.01 198.454C303.917 198.45 303.814 198.439 303.705 198.421C303.569 198.389 303.439 198.372 303.325 198.367C303.104 198.358 302.947 198.396 302.944 198.462C302.94 198.563 302.63 198.701 302.247 198.785C301.329 198.945 300.531 199.794 300.042 201.086C299.851 201.604 299.575 202.004 299.398 201.997C299.387 201.996 299.378 201.995 299.368 201.991C299.348 201.982 299.329 201.976 299.312 201.976C299.182 201.97 299.136 202.223 299.158 202.715C299.186 203.197 299.321 203.583 299.447 203.589C299.573 203.594 299.667 203.75 299.658 203.952C299.604 205.139 301.277 206.708 302.69 206.772C303.018 206.787 303.317 206.902 303.362 207.031C303.406 207.159 304.358 207.355 305.518 207.433C305.931 207.471 306.272 207.496 306.554 207.508C307.392 207.543 307.712 207.463 307.853 207.262C307.95 207.144 308.027 207.08 308.07 207.082C308.099 207.083 308.113 207.112 308.11 207.172C308.102 207.349 308.522 207.57 309.049 207.67C310.6 208.045 310.797 208.155 311.287 209.063C311.844 210.151 312.898 210.882 314.691 211.495C317.041 212.309 323.014 213.031 327.597 213.225C329.911 213.323 331.87 213.287 332.831 213.059C334.62 212.66 336.995 211.606 337.012 211.227C337.021 211.05 337.338 210.736 337.729 210.501C338.586 210.009 339.201 209.278 339.334 208.576C339.398 208.301 339.59 207.956 339.773 207.837C340.139 207.576 340.728 206.313 340.755 205.732C340.789 205.532 340.969 204.908 341.222 204.363C341.449 203.817 341.668 202.916 341.718 202.362C341.744 201.807 341.983 200.452 342.235 199.35C342.488 198.249 342.943 196.044 343.218 194.463C343.518 192.883 344.029 190.554 344.338 189.329C344.674 188.08 345.146 186.053 345.405 184.825C345.689 183.573 346.244 181.398 346.639 179.949C347.601 176.629 348 173.435 347.664 171.927C347.499 171.11 347.028 170.355 345.944 169.168C345.155 168.302 344.356 167.624 344.162 167.616C344.155 167.616 344.149 167.617 344.143 167.618C344.094 167.637 344.047 167.644 344.005 167.642C343.894 167.637 343.817 167.569 343.821 167.477C343.827 167.351 343.51 167.083 343.089 166.887C342.693 166.692 342.35 166.448 342.355 166.347C342.359 166.267 342.106 166.216 341.726 166.2C341.508 166.191 341.248 166.193 340.97 166.208C340.656 166.227 340.399 166.232 340.195 166.223C339.775 166.205 339.583 166.129 339.589 165.993C339.596 165.842 339.274 165.701 338.87 165.682C337.759 165.631 335.589 164.975 335.601 164.698C335.605 164.611 335.43 164.552 335.155 164.54C335.029 164.535 334.882 164.54 334.723 164.556C334.544 164.576 334.377 164.583 334.237 164.577C333.998 164.567 333.839 164.52 333.843 164.44C333.847 164.339 333.528 164.122 333.157 163.953C332.758 163.809 332.268 163.483 332.027 163.219C331.521 162.665 330.198 162.275 328.584 162.176C327.902 162.145 327.376 162.045 327.382 161.919C327.386 161.818 324.739 161.621 321.483 161.471C321.132 161.455 320.787 161.44 320.452 161.426C317.686 161.309 315.577 161.26 315.596 161.328C315.618 161.405 315.454 161.676 315.239 161.944C314.954 162.286 314.245 162.518 313.812 162.499C313.595 162.49 313.447 162.419 313.454 162.267C313.46 162.141 313.068 161.87 312.596 161.672C312.125 161.473 311.732 161.202 311.738 161.076C311.741 161.014 311.658 160.977 311.529 160.972C311.447 160.968 311.345 160.978 311.236 161.002C311.126 161.027 311.024 161.037 310.942 161.033C310.813 161.028 310.73 160.99 310.733 160.929C310.739 160.803 310.346 160.532 309.875 160.333C309.403 160.134 309.011 159.864 309.017 159.737C309.021 159.64 308.929 159.59 308.788 159.584C308.71 159.581 308.617 159.591 308.517 159.613C308.437 159.636 308.354 159.645 308.272 159.641C308.037 159.631 307.804 159.521 307.644 159.346C307.427 159.108 306.785 158.775 306.212 158.572C305.638 158.394 305.118 158.168 305.047 158.063C304.662 157.616 298.86 154.517 295.935 153.22C290.605 150.851 289.28 150.512 284.163 150.126C280.282 149.822 279.58 149.689 278.266 149.097C277.448 148.731 276.106 148.214 275.284 147.949C273.945 147.536 270.604 147.164 267.594 147.037C266.062 146.972 264.616 146.97 263.563 147.058C261.402 147.225 260.258 147.335 259.441 147.301C258.309 147.253 257.804 146.926 256.095 146.084C254.167 145.111 253.086 144.404 252.218 143.479C251.567 142.791 250.323 141.773 249.487 141.254C248.652 140.71 247.819 140.116 247.65 139.931C247.482 139.746 246.92 139.316 246.405 138.963C245.89 138.611 245.352 138.207 245.183 138.022C245.015 137.837 243.74 136.944 242.316 136.019C240.892 135.069 239.566 134.198 239.369 134.088C239.172 133.953 237.595 133.046 235.869 132.082C234.117 131.116 232.718 130.192 232.726 130.015C232.733 129.864 232.664 129.709 232.563 129.704C232.31 129.693 231.545 128.191 231.564 127.762C231.579 127.433 228.849 125.74 228.269 125.714C228.117 125.707 227.568 125.555 227.069 125.406L226.147 125.085L226.301 122.841C226.357 121.605 226.358 120.492 226.261 120.386C226.165 120.28 225.662 120.207 225.183 120.185C225.159 120.185 225.134 120.184 225.109 120.183C224.605 120.162 223.883 119.91 223.438 119.624C222.652 119.108 222.628 119.081 222.731 117.392C222.826 115.853 222.786 115.623 222.164 114.861C221.781 114.389 221.292 114.012 221.065 114.002C220.005 113.953 218.024 113.028 217.202 112.181C216.72 111.678 216.208 111.25 216.107 111.245C215.981 111.24 215.764 111.002 215.6 110.716C215.436 110.431 215.169 110.191 214.992 110.183C214.841 110.176 214.547 109.96 214.382 109.699C214.073 109.255 212.716 108.51 211.47 108.099C211.121 108.007 209.809 107.365 208.525 106.7C207.265 106.035 206.178 105.479 206.152 105.478C206.102 105.476 205.315 104.984 204.38 104.41C201.356 102.501 198.262 101.576 192.455 100.804C190.643 100.595 188.787 100.257 188.313 100.109C187.839 99.9604 186.312 99.6123 184.934 99.3216C183.08 98.9332 181.91 98.5255 180.405 97.6978C179.294 97.1157 178.031 96.5267 177.556 96.4038C177.105 96.3073 176.27 95.7631 175.713 95.2066C174.456 93.9349 173.002 93.1096 171.572 92.8417C170.644 92.6728 170.374 92.5086 170.001 91.8086C169.559 90.9538 167.791 89.8104 166.831 89.7666C166.327 89.7434 165.494 89.1489 162.911 87.0071C162.351 86.5261 161.59 86.0107 161.192 85.8661C160.82 85.7225 160.11 85.2095 159.625 84.732C159.141 84.2545 158.256 83.7082 157.682 83.5301C157.109 83.3521 156.219 82.9066 155.729 82.5554C155.239 82.2042 152.947 80.8852 150.654 79.5914C144.315 76.0636 137.325 72.9361 132.833 71.6174C131.035 71.1052 129.821 70.5437 128.371 69.6174C123.606 66.5158 122.316 65.9761 117.947 65.2703C116.462 65.0361 114.947 64.8845 113.461 64.8216C112.007 64.76 110.581 64.7833 109.238 64.8969C108.485 64.9606 107.989 64.9982 107.549 64.9796C106.743 64.9454 106.126 64.7218 104.467 64.1221L101.856 63.1425L96.3034 62.8883C96.1621 62.8818 96.0221 62.8757 95.8835 62.8698C89.2872 62.5905 85.7014 62.9923 82.0703 64.3868C81.3749 64.6584 79.5516 65.258 78.0381 65.7198C74.8574 66.6872 74.3123 66.991 72.2453 69.0464C70.6041 70.6406 69.4196 72.2052 68.236 74.301C67.6849 75.2769 67.1831 75.7724 66.4087 75.7396C65.52 75.702 64.2721 74.9687 62.1784 73.4672C59.508 71.5745 58.4481 70.9694 57.2469 70.6868C56.1708 70.4352 54.0925 68.3165 53.6936 67.0842C53.5847 66.6998 53.2739 66.3062 52.9998 66.2178C52.7268 66.104 52.5834 65.9204 52.6649 65.7978C52.7716 65.6762 52.5491 65.5648 52.1957 65.5486C51.7666 65.5289 51.5946 65.4199 51.7059 65.1974C51.7909 64.9989 51.3275 64.6236 50.4866 64.2057C49.7192 63.8417 49.0849 63.3321 49.0459 63.0774C48.9818 62.8215 48.7134 62.6068 48.3852 62.5918C48.0823 62.5779 47.6866 62.3829 47.4939 62.1716C47.2762 61.9595 47.2085 61.7796 47.309 61.7838L47.3096 61.7838C47.4101 61.7881 47.2919 61.6057 47.0237 61.3913C46.7806 61.1778 46.3091 60.9792 46.0062 60.9653C45.678 60.9503 45.4314 60.8126 45.4372 60.6863C45.4429 60.5614 45.344 60.4661 45.2087 60.4604C45.18 60.4592 45.1496 60.462 45.1183 60.4694C45.1066 60.4715 45.0939 60.4723 45.0804 60.4717C44.7113 60.4561 43.7046 59.4616 43.9082 59.2758C44.0716 59.1081 43.1596 58.8762 42.4853 58.8476C42.2833 58.8391 42.1026 58.8488 41.9786 58.8839C41.8682 58.9136 41.7761 58.9256 41.7029 58.9225C41.4027 58.9098 41.4212 58.6427 41.8033 58.2941C42.0408 58.0774 42.0443 58.0017 41.8423 57.9924L41.8411 57.9924C41.6647 57.9849 41.4577 58.1016 41.3765 58.224C41.3022 58.325 41.1942 58.3766 41.0941 58.3724C41.0488 58.3704 41.0051 58.3571 40.9668 58.3317C40.9402 58.3083 40.8838 58.2957 40.804 58.2923C40.5198 58.2803 39.938 58.3851 39.3387 58.5354C38.7205 58.7034 38.2756 58.7806 38.01 58.7693C37.6594 58.7545 37.6212 58.5855 37.9092 58.2676C38.0974 58.0233 38.031 57.8179 37.5917 57.469C37.3221 57.2435 37.1665 57.1355 37.059 57.1309C36.9625 57.1268 36.9047 57.2061 36.8379 57.3586C36.7529 57.5571 36.3834 57.8943 36.0448 58.1064C35.7673 58.2611 35.6115 58.3361 35.5272 58.3326C35.4459 58.3291 35.4311 58.2526 35.4379 58.1039C35.4483 57.8768 35.6928 57.5086 36.0072 57.27C36.4296 56.8846 36.4594 56.7848 36.1623 56.6447C36.1275 56.6298 36.0877 56.6217 36.0443 56.6199C35.8404 56.6112 35.5571 56.7417 35.3384 56.9612C35.0486 57.2487 34.834 57.3908 34.6922 57.3848C34.5359 57.3782 34.4679 57.1915 34.4849 56.8209C34.4844 56.5449 34.4841 56.4123 34.4315 56.41C34.3829 56.408 34.2895 56.5174 34.1097 56.7279C33.9357 56.9427 33.8372 57.0523 33.7616 57.0491C33.6741 57.0454 33.6173 56.8909 33.5097 56.574C33.4017 56.2862 33.3444 56.1442 33.3036 56.1425C33.2678 56.1409 33.2448 56.2477 33.2115 56.4591C33.1735 56.7356 33.1597 57.0385 33.1562 57.1142C33.1633 57.1878 33.0079 57.215 32.8114 57.2067C32.5331 57.1949 32.1724 57.1119 32.0743 56.9888C32.002 56.9096 31.9587 56.1994 31.9945 55.417C32.0051 54.6333 32.0087 54.0011 31.9835 54Z" fill="#39BBD1"/>
</svg>
