<?xml version="1.0" encoding="UTF-8"?>
<svg enable-background="new 0 0 813.0955 1745.0874" version="1.1" viewBox="0 0 813.0955 1745.0874" xmlns="http://www.w3.org/2000/svg">
 <path d="m778.69 481.61c-0.541-14.042-6.5421-27.66-2.8459-42.068 1.1464-4.4688 0.7553-9.4756-0.8957-14.069-0.9875-2.7473-1.2497-5.6007-1.0172-8.4269 0.554-6.7437-2.0911-12.414-5.7863-17.659-9.8016-13.912-19.886-27.529-33.361-38.336-10.77-8.638-20.138-18.994-32.953-25.067-3.5071-1.6617-8.0219-3.7449-8.9878-7.9644-0.953-4.1636-3.7314-5.6209-6.8056-7.1339-3.6999-1.821-7.0441-3.8274-9.6636-7.2619-2.5928-3.3999-6.9575-5.6246-10.872-4.6359-5.5016 1.3896-8.1898-1.4429-11.183-4.693-2.7986-3.0394-6.0662-5.4863-9.3441-7.9861-2.6738-2.0391-5.6039-4.319-5.6014-8.3474 0.0062-9.1486-2.366-18.058-2.1245-27.315 0.2705-10.379-0.8569-20.921-2.3613-31.114-1.8162-12.306 0.384-23.772 2.965-35.346 3.2626-14.628 10.583-27.467 18.937-39.782 5.9786-8.8136 3.2944-16.638-6.6998-20.118-2.3362-0.8136-5.3817-0.2914-6.8214-2.7348-3.4442-5.8454-8.5406-10.061-14.653-12.006-5.8037-1.8468-6.6518-9.5706-13.027-9.7733-5.5938-0.1782-6.7731-3.4314-6.6664-8.1003 0.058-2.5277 0.0895-5.0901-0.2454-7.586-0.6895-5.1404-2.8854-7.1642-8.0052-7.6816-3.2043-0.3238-6.2073 0.3872-9.2504 1.5181-5.3121 1.9737-10.744 3.6446-16.18 5.2601-4.92 1.4622-9.6005 0.666-12.918-3.3779-7.5261-9.1739-18.325-11.692-28.862-14.863-9.9002-2.9784-20.113-1.3847-30.151-2.1999-13.325-1.0817-25.614 2.3667-37.781 6.9603-6.6198 2.4994-12.502 6.0575-16.515 12.114-1.9674 2.9693-4.3995 5.5543-7.7031 6.7952-3.1877 1.1977-5.2908 3.5405-7.1281 5.9883-4.3515 5.7965-12.304 9.3734-11.661 18.376 0.0315 0.4415-0.7057 0.9764-1.1446 1.4074-8.7596 8.609-13.652 19.393-17.747 30.737-1.8006 4.9878-5.3889 9.2729-6.2335 14.709-7.2468 4.2893-8.1335 12.351-11.361 19.037-0.653 1.3527-1.203 2.8847-2.7671 3.6882-6.0106 3.0891-10.769 7.7644-15.898 12.061-4.8915 4.0977-8.6051 11.214-17.042 9.2022-1.2708-0.303-2.6701 1.0806-2.555 2.279 0.3345 3.4911 1.7361 6.7532 3.9153 9.4629 1.7489 2.1746 3.2798-0.0399 4.8356-0.8597 1.583-0.8342 3.8759-0.2587 4.4343 0.5396 4.2515 6.0807 9.2249 3.4983 14.2 1.6737 0.1364 2.7668 3.2324 5.2049 1.7761 7.8138-2.7093 4.8542-7.1295 9.1474-1.9558 14.992 0.248 0.2802-0.769 1.5751-1.0488 2.4451-2.6024 8.097-4.365 16.356-9.5066 23.674-1.7523 2.4943-6.8754 5.1945-4.4693 9.4198 1.8851 3.3103 7.087 2.1987 9.8485 5.2961 0.769 1.8308-0.9532 3.4259-0.9745 5.2706-0.0244 2.1208-0.9156 4.7287 1.6051 5.954 2.0226 0.9829 4.3028 0.766 6.4518-0.1977 2.1449-0.9618 3.2468-2.9048 4.6867-4.5677 1.1226-1.2963 1.1193-3.907 3.8813-3.499 2.1908 2.3159 0.8231 4.4932-0.1763 6.8295-2.8181 6.5873-2.2124 13.66-2.6828 20.578-0.1696 2.4912 0.7245 4.5461 3.1617 5.182 1.8108 0.4725 3.8017 0.2035 4.564-2.1975 0.5414-1.7065 1.9199-3.1783 3.2561-1.2675 3.6356 5.1992 5.8751 2.1486 8.6705-0.8219 4.57-4.857 6.6706-10.587 6.4718-17.105-0.0471-1.5489-0.9822-3.3999 0.4621-4.3301 3.9214-2.5249 5.1759-7.1394 8.084-11.087 3.27 5.651 0.7683 9.6272-2.0015 12.858-4.0371 4.7092-4.3007 9.088-0.2473 13.467 2.3926 2.5843 2.568 5.7577 0.8787 7.6806-2.6873 3.0587-2.4353 6.3333-2.633 9.723-0.5313 9.1194-4.6899 14.864-13.788 17.899-9.0679 3.0255-17.966 5.2223-27.626 5.1718-20.552-0.1076-40.828 2.1301-60.544 8.5232-20.249 6.5662-41.043 9.6292-62.382 8.5371-5.391-0.276-10.688 0.2826-16.006 1.5116-20.171 4.6635-40.313 9.4117-60.39 14.494-19.514 4.9395-39.5 7.8595-59.674 8.541-13.564 0.4582-27.153 0.1849-40.73 0.2065-8.8245 0.0139-17.688 0.6843-26.367-1.7292-2.1145-0.5883-4.332-0.8036-6.4996-1.204-2.0987-0.3874-3.7917 0.3398-4.825 2.13-1.0448 1.8109-0.7551 3.7975 0.541 5.3207 1.2054 1.4169 2.7559 2.568 4.2561 3.7015 7.6925 5.812 16.114 9.8944 25.896 10.599 3.0324 0.2183 5.3335 0.6973 5.7828 4.6389 0.4387 3.8458 3.6017 5.5974 7.2266 6.5727 5.2151 1.403 10.434 2.4242 15.882 2.1625 20.56-0.9868 41.001 1.2763 61.53 2.334 0.2074 3.818-2.1618 6.287-4.5341 8.728-3.0895 3.1792-6.2737 6.2673-9.3272 9.4803-3.2976 3.4698-6.0693 7.3708-7.2371 12.049-0.8641 3.4612-0.7238 7.0573 2.5379 9.5014 3.5175 2.6362 6.5771 0.8595 9.4499-1.3629 5.0003-3.8679 9.62-8.1666 13.442-13.204 6.6676-8.7878 15.565-14.662 25.176-19.6 6.1955-3.1831 12.549-6.165 17.615-11.021 4.2053-4.0307 9.4785-5.7513 14.661-5.281 9.1296 0.8286 18.304-0.0615 27.341 1.0523 21.355 2.6311 42.895 1.3121 64.264 3.4268 5.3926 0.5338 10.47-1.9491 15.944-1.9602 9.1233-0.0183 18.161-1.5876 27.154-3.1851 11.499-2.0424 22.939-3.9295 34.667-0.9474 5.2448 1.3334 10.901 0.7641 15.734-1.8772 7.3934-4.0406 15.267-3.2296 23.125-3.3857 4.1682-0.0828 5.7088 1.6846 7.1137 5.7232 3.7757 10.856 5.056 21.857 5.8677 33.262 0.4343 6.1038-1.0922 9.5984-5.349 12.472-7.4196 5.0081-13.692 11.185-19.294 18.039-12.627 15.449-26.161 29.926-42.094 42.093-9.9984 7.6356-19.218 16.418-32.152 19.085-1.5139 0.312-3.2598 0.8306-4.3074 1.8566-7.1218 6.9745-16.507 5.8533-24.845 5.7932-17.359-0.1253-33.439-5.2269-46.532-17.517-1.124-1.055-2.6534-1.6751-3.9845-2.5129-9.0558-5.6989-18.797-10.392-26.395-18.231-1.0613-1.095-2.5854-1.8726-4.0358-2.4344-4.1415-1.6045-6.8061 0.6262-6.1927 5.1354 0.6259 4.6012 3.1707 8.4077 6.2769 11.474 5.1613 5.095 10.741 9.8004 16.407 14.342 8.8779 7.1156 18.237 13.82 25.239 22.816 5.0001 6.4249 10.692 11.539 17.832 15.17 5.3822 2.7367 8.6624 6.9825 10.192 13.057-4.0726 1.5696-7.7899 2.8379-11.996 3.1659-7.2863 0.5682-13.302 4.0186-17.213 10.331-1.3912 2.2448-3.5799 4.8581-1.2088 7.7797 1.9769 2.4363 4.4677 1.5651 6.9605 0.8057 8.7556-2.6672 17.58-4.0411 26.874-4.2985 18.456-0.5112 34.224-8.1938 46.453-22.115 10.607-12.075 22.862-21.563 38.117-26.845 8.6587-2.9977 17.051-6.5719 25.182-10.762 12.625-6.5047 25.521-12.472 37.819-19.63 6.5001-3.7834 9.0101-3.0504 11.732 3.6777 3.2869 8.1242 7.7354 15.818 8.808 24.846 0.5048 4.2459 2.33 8.2149 6.2895 11.22 10.841 8.2299 22.015 15.873 33.874 22.569 6.0746 3.4301 12.577 5.1008 19.161 3.5815 10.183-2.3499 20.119 0.4228 30.163 0.2669 2.0085-0.0312 4.7347-0.3973 4.8929 2.9597 0.1058 2.2475 0.2496 5.3217-2.1574 5.7397-6.4523 1.1201-7.9627 6.2173-10.502 10.893-1.2828 2.3621-3.501 4.4094-6.346 5.4649-2.0447 0.7585-4.2601 1.5717-5.8415 2.9849-14.318 12.797-28.12 26.147-42.09 39.316-5.0915 4.7997-9.0273 11.86-17.045 12.746-5.7786 0.6384-8.2919 3.908-8.9681 9.249-1.1026 8.7077-5.2789 16.043-10.286 23.016-6.2839 8.7509-11.344 18.126-15.044 28.289-8.5348 23.446-18.837 45.954-35.593 64.919-1.0056 1.1384-2.4759 3.4902-2.082 3.9971 5.6809 7.3121-1.8027 9.9528-4.9632 13.777-3.028 3.6634-6.4135 6.9985-8.0736 11.562-0.9532 2.6204-0.9446 5.3671 2.2704 6.1331 3.3906 0.8079 3.4412 2.8737 3.4482 5.5975 0.0221 8.5396 0.3696 17.079 0.3473 25.617-0.0109 4.2309-1.4501 8.2043-4.7983 10.934-4.9574 4.0412-8.2211 9.4252-11.998 14.385-4.1132 5.4011-6.4569 11.691-6.3098 18.483 0.1615 7.4693-1.5666 14.712-4.3798 21.188-4.306 9.9132-5.5411 19.969-5.3049 30.446 0.186 8.2462-0.9704 16.516-2.8473 24.302-1.9537 8.1048-2.5553 16.138-3.264 24.283-0.3883 4.4641 0.8491 7.0518 5.8445 7.8118 7.1768 1.0919 13.83 3.9792 20.552 6.7972 5.5132 2.3112 10.554 5.4547 16.037 7.7264 10.175 4.2157 20.873 4.2323 31.664 4.4114 9.751 0.1621 19.277 2.2079 28.175 6.5914 3.1981 1.5756 4.9836 3.6532 4.3935 7.417-2.243 14.302-5.0203 28.555-6.4307 42.94-1.0797 11.01-3.5456 21.749-5.0595 32.659-1.4211 10.242-1.5668 20.612-4.3492 30.806-5.3947 19.764-8.7521 40.046-8.7364 60.593 0.0065 8.6721-0.9219 16.98-3.7377 25.006-5.1351 14.638-8.5322 29.473-10.017 45.024-0.7472 7.8248-0.8196 15.716-1.815 23.532-1.3907 10.92-2.6195 21.885-3.2809 32.869-0.8374 13.909 0.3995 27.732 3.3322 41.388 0.7395 3.4426 0.3897 6.7787-0.9316 10.192-3.4057 8.8007-6.6318 17.68-9.6269 26.629-6.4711 19.336-15.53 37.883-17.436 58.627-0.4918 5.3528-3.4537 10.097-6.4903 14.582-4.255 6.2852-8.3856 12.656-12.725 18.882-1.6116 2.3123-2.1498 5.0872-4.3378 7.2314-8.168 8.0052-14.139 17.779-20.855 26.951-2.7717 3.7855-3.4848 7.9275-2.9791 12.571 0.9254 8.4949 1.5782 17.022 2.1964 25.547 0.4426 6.1018 2.8028 10.789 8.4492 13.741 2.7756 1.4515 5.4798 3.2678 7.7579 5.4075 17.979 16.888 37.769 31.803 54.55 49.986 2.2607 2.4495 4.8347 3.9434 8.0507 4.6172 14.258 2.9875 28.639 5.97 43.149 6.2518 43.332 0.8412 86.676 0.2314 130.01-0.4443 8.769-0.1367 17.505 0.3276 26.322-0.1754 5.583-0.3184 11.344-0.4393 16.803-1.3292 10.248-1.6708 13.796-9.694 9.471-18.931-1.0402-2.2222-2.395-3.5964-4.6359-4.2683-6.6161-1.9829-13.106-3.9698-20.101-4.9758-11.675-1.6788-23.732-2.5607-34.277-9.452-5.5461-3.6241-11.388-6.5444-15.454-12.036-1.0829-1.4624-2.7518-2.8436-4.4424-3.444-9.127-3.241-15.055-12.169-24.181-14.617-11.375-3.0514-10.856-14.735-17.515-20.944-2.9207-2.7233-3.6904-6.3499-5.0321-9.9031-3.3427-8.8535-2.2818-18.103-3.3181-27.15-2.0421-17.826-5.3051-35.534-5.1685-53.573 0.0216-2.843 0.1005-5.762-0.463-8.5199-2.8229-13.813-1.7333-27.765-0.9354-41.578 0.9451-16.359 3.5296-32.665 3.1345-49.068-0.2092-8.6881 1.7457-16.376 6.5834-23.171 13.927-19.562 24.899-41.01 38.793-60.551 9.0728-12.761 17.617-26.121 30.618-35.563 7.9286-5.7582 15.49-11.961 22.777-18.516 10.755-9.6749 19.642-20.944 22.36-35.208 1.8628-9.7758 6.0408-19.398 4.4118-29.767-0.186-1.1844 0.096-2.618 0.6259-3.7107 3.5685-7.3595 3.8402-15.303 4.0792-23.2 0.3521-11.63 2.8399-23.012 3.4855-34.669 0.5716-10.319 1.4668-21.42 8.3177-30.527 2.1792-2.8967 1.3821-6.0865 0.335-9.7777-3.1408-11.072-0.7897-22.46-0.2566-33.722 0.0276-0.5842 0.553-1.1296 0.7604-1.7231 5.1156-14.639 8.4863-29.682 9.2869-45.164 0.344-6.6513 0.5391-13.257 2.4954-19.64 0.8748-2.8546 1.5315-5.8696-0.0793-8.2614-2.9781-4.4208-1.6327-7.7026 1.7793-10.778 5.8721-5.2919 6.5374-11.172 4.3788-18.821-1.5408-5.4594-4.0991-11.326-2.2817-17.447 3.8583-12.993 3.8401-26.133 1.9572-39.451-1.1045-7.8143-0.5784-15.37 2.0367-23.239 2.861-8.6086 7.7567-15.745 12.019-23.437 7.1659-12.932 12.448-26.814 20.885-39.168 4.8136-7.0486 6.2779-15.705 6.2676-24.44-0.0176-14.968 3.9551-29.332 8.2761-43.389 6.9861-22.725 11.514-45.78 12.488-69.483 0.325-7.9112 0.5872-15.682 2.8042-23.381 3.7239-12.932 4.5301-26.366 2.2474-39.438-2.0834-11.93-1.8396-23.882-2.9935-35.79-0.1499-1.5461-0.3633-3.5765 0.4373-4.6446 5.1683-6.8948 5.976-15.885 11.256-22.715 7.3598-9.5198 10.422-20.642 11.642-32.415 0.4876-4.7041 0.7641-9.4951 1.9208-14.047 1.2919-5.0841 0.2197-9.871 0.0276-14.861z"/>
</svg>
