<svg width="250" height="250" viewBox="0 0 250 250" fill="none" xmlns="http://www.w3.org/2000/svg">
<path d="M33.4961 79.2303C33.3252 79.4982 33.2275 79.5226 32.4585 79.5226C31.9946 79.5226 31.5918 79.4738 31.5552 79.4129C31.5186 79.3642 31.3843 79.3399 31.2378 79.3764C31.1035 79.413 30.8594 79.3764 30.6885 79.2912C30.4443 79.1572 30.3589 79.1572 30.1758 79.3277C30.0049 79.486 29.7241 79.5347 29.0894 79.5347C28.1128 79.5347 27.832 79.6078 27.832 79.8514C27.832 80.1315 27.4292 80.5091 27.1362 80.5091C26.9898 80.5091 26.8433 80.5578 26.7944 80.6187C26.7578 80.6918 26.3062 80.7405 25.7935 80.7405C24.9634 80.7405 24.8291 80.777 24.5483 81.045C24.3652 81.2154 24.0967 81.3616 23.938 81.3616C23.7915 81.3616 23.7061 81.4103 23.7427 81.4834C23.9014 81.7392 23.6694 82.3359 23.4253 82.3359C23.3032 82.3359 23.1934 82.3847 23.1934 82.4577C23.1934 82.6404 22.2168 82.6161 22.2168 82.4212C22.2046 82.202 21.8506 82.7135 21.8506 82.9449C21.8506 83.0423 21.7285 83.1885 21.582 83.2494C21.4111 83.3224 21.2891 83.5051 21.2647 83.7C21.2403 83.9436 21.1548 84.041 20.9839 84.041C20.7642 84.041 20.7397 84.0897 20.8252 84.5891C20.8985 85.0884 20.874 85.1371 20.6543 85.1371C20.459 85.1371 20.398 85.2224 20.3613 85.5269C20.3369 85.8435 20.2515 85.9288 19.9585 86.014C19.5068 86.1236 19.2627 86.4403 19.397 86.7083C19.458 86.8178 19.4702 87.3294 19.4336 87.8653C19.3848 88.6691 19.3359 88.8274 19.1528 88.8761C18.6645 89.0101 19.0674 89.278 19.751 89.278C19.9341 89.278 20.0195 89.3511 20.0195 89.5216C20.0195 89.6556 19.9463 89.7652 19.8731 89.7652C19.5679 89.7774 19.1651 90.228 19.1651 90.569C19.1651 90.7517 19.0674 90.971 18.9575 91.044C18.7622 91.1902 18.7622 91.2511 18.8965 91.6408C19.0674 92.1036 19.0063 92.6882 18.75 93.1145C18.4937 93.5164 18.4082 94.8317 18.6157 95.0509C18.8355 95.258 18.8599 95.733 18.6645 95.733C18.4204 95.733 18.7989 96.0862 19.0796 96.1227C19.2871 96.1471 19.3603 96.2567 19.3848 96.549C19.4214 96.9144 19.397 96.9509 19.1162 96.9509C18.7134 96.9509 18.7134 97.1336 19.104 97.4868C19.2749 97.6451 19.4092 97.8887 19.4092 98.0348C19.4092 98.1688 19.4702 98.2906 19.5313 98.2906C19.6045 98.2906 19.6533 98.4002 19.6533 98.522C19.6533 98.656 19.6045 98.8021 19.5313 98.8387C19.2627 98.997 19.4092 99.2649 19.7632 99.2649C20.105 99.2649 20.2637 99.4354 20.2637 99.8252C20.2637 99.9226 20.166 99.9957 20.0317 99.9957C19.7754 99.9957 19.4824 100.276 19.6167 100.398C19.6533 100.446 19.8242 100.483 19.9829 100.483C20.2393 100.483 20.2637 100.544 20.2637 101.019C20.2637 101.457 20.3247 101.603 20.5811 101.81C20.7642 101.957 20.9595 102.066 21.0205 102.066C21.0815 102.066 21.2524 102.2 21.4111 102.358C21.6553 102.639 21.7896 102.663 22.8394 102.687C23.9136 102.712 24.0235 102.687 24.5606 102.358C24.8779 102.176 25.1953 101.896 25.2808 101.737C25.5127 101.311 26.3672 101.348 26.9653 101.81C27.5269 102.249 28.4058 102.675 28.772 102.675C28.9307 102.675 29.2847 102.882 29.5898 103.162C29.8828 103.43 30.1758 103.649 30.2612 103.649C30.3345 103.649 30.3955 103.686 30.3955 103.735C30.3955 103.954 31.189 104.258 31.7383 104.258C32.1045 104.258 32.373 104.319 32.4707 104.441C32.5561 104.539 32.7148 104.624 32.8369 104.624C33.1421 104.624 33.5449 104.855 34.1919 105.379C34.4971 105.635 34.8145 105.842 34.8999 105.842C34.9731 105.842 35.0342 105.89 35.0342 105.963C35.0342 106.024 35.1196 106.085 35.2295 106.085C35.5469 106.085 36.3525 106.585 36.9263 107.145C37.1582 107.364 38.0737 107.547 38.3789 107.425C38.6719 107.315 38.916 106.913 38.9648 106.451C39.0015 106.183 39.0625 106.146 39.5996 106.11C39.917 106.085 40.3442 106.122 40.5273 106.195C40.9912 106.353 41.3818 105.951 41.3818 105.318C41.3818 104.697 41.7236 104.721 42.2485 105.355C42.5537 105.708 42.749 105.842 43.0054 105.842C43.2129 105.842 43.6035 105.647 44.0063 105.355C44.6289 104.892 45.0439 104.746 45.0439 104.965C45.0439 105.026 45.3247 105.184 45.6787 105.342C46.3745 105.647 47.2168 105.622 47.5098 105.294C47.9004 104.855 47.9736 104.733 47.9736 104.502C47.9736 104.356 48.0591 104.161 48.1567 104.063C48.2544 103.954 48.3398 103.722 48.3398 103.528C48.3398 103.333 48.4009 103.138 48.4619 103.101C48.5352 103.065 48.584 102.931 48.584 102.809C48.584 102.687 48.6694 102.517 48.7671 102.432C48.8648 102.346 48.9502 102.176 48.9502 102.042C48.9502 101.737 49.231 101.457 49.5483 101.457C49.7925 101.457 49.7925 101.506 49.7314 103.369C49.6826 104.66 49.707 105.549 49.8047 106.085C49.8901 106.524 50 107.206 50.0488 107.608C50.0976 108.01 50.293 108.886 50.4761 109.544C50.8423 110.859 50.8301 111.127 50.354 113.21C50.2564 113.673 50.1099 114.367 50.0488 114.732C49.9878 115.098 49.8779 115.597 49.8169 115.829C49.7437 116.06 49.6826 116.523 49.6826 116.852C49.6826 117.18 49.6338 117.619 49.5728 117.826C49.5117 118.033 49.3652 118.642 49.2554 119.178C49.1455 119.714 49.0112 120.262 48.9502 120.396C48.7793 120.81 48.4619 122.929 48.4619 123.672C48.4619 124.049 48.3765 124.731 48.2666 125.182C48.169 125.633 48.0225 126.242 47.9492 126.546C47.8882 126.851 47.7783 127.204 47.7295 127.338C47.6685 127.472 47.5586 127.801 47.4854 128.069C47.4121 128.337 47.2656 128.86 47.168 129.226C46.9727 129.932 46.8506 130.541 46.6309 131.966C46.5576 132.429 46.4478 132.989 46.3745 133.196C46.3135 133.403 46.2647 133.781 46.2647 134.048C46.2647 134.316 46.2158 134.584 46.1548 134.645C45.8984 134.913 45.752 137.057 45.7153 141.246C45.6909 143.682 45.6299 145.728 45.5811 145.801C45.4834 145.96 45.4834 147.153 45.6055 153.097C45.6787 157.031 45.6787 157.432 45.4956 157.591C45.3735 157.676 45.2881 157.834 45.2881 157.92C45.2881 158.017 45.2393 158.09 45.1782 158.09C45.1172 158.09 45.0439 158.212 45.0195 158.358C44.9829 158.602 44.8853 158.65 44.3115 158.711C43.9453 158.748 43.4814 158.845 43.2739 158.918C42.8955 159.052 41.0767 159.211 39.6728 159.235C38.8183 159.259 36.0596 159.807 35.3516 160.1C35.1196 160.197 34.668 160.282 34.3628 160.282C34.0576 160.282 33.8135 160.331 33.8135 160.38C33.8135 160.514 33.0689 160.782 32.9346 160.696C32.8735 160.66 32.7393 160.696 32.6294 160.782C32.5317 160.867 32.0557 161.062 31.5674 161.208C31.0913 161.354 30.4321 161.573 30.0903 161.683C29.0405 162.036 28.7476 162.109 28.2227 162.109C27.9541 162.109 27.6856 162.17 27.6489 162.231C27.417 162.596 25.8789 162.889 25.6958 162.596C25.6592 162.523 25.4395 162.475 25.2075 162.475C24.9878 162.475 24.7803 162.414 24.7559 162.341C24.7315 162.255 24.3042 162.17 23.7427 162.134C22.7905 162.073 22.2168 161.866 22.2168 161.573C22.2168 161.452 20.6787 161.013 20.2271 161.013C20.105 161.013 19.8731 160.928 19.7144 160.818C19.5068 160.684 19.0918 160.623 18.2861 160.611C16.9189 160.587 15.3565 161.001 15.0513 161.464C14.9414 161.622 14.7827 161.744 14.6973 161.744C14.5996 161.744 14.4898 161.829 14.4531 161.927C14.4043 162.048 14.209 162.109 13.9038 162.109H13.4277V162.718C13.4277 163.047 13.3789 163.327 13.3057 163.327C13.1226 163.327 13.1592 163.693 13.3789 163.9C13.7085 164.228 14.8926 164.789 15.2588 164.789C15.4541 164.789 15.6372 164.837 15.6738 164.898C15.7105 164.959 16.1255 165.044 16.6016 165.093C17.0654 165.142 17.4561 165.227 17.4561 165.288C17.4561 165.349 17.7612 165.398 18.1275 165.398C18.7134 165.398 18.7988 165.434 18.7988 165.641C18.7988 165.799 18.6768 165.909 18.3716 165.994C17.9565 166.104 7.72705 166.08 2.23388 165.958L0 165.897V167.285V168.662L4.43115 168.735C8.64257 168.808 245.19 171.012 248.45 171H250V169.672C250 168.406 249.988 168.345 249.731 168.272C249.573 168.235 247.217 168.199 244.495 168.199C241.772 168.199 237.561 168.162 235.132 168.113L230.725 168.04V166.81C230.725 166.067 230.676 165.568 230.591 165.544C230.53 165.519 230.469 165.422 230.469 165.324C230.469 165.227 230.396 165.191 230.273 165.239C230.176 165.276 229.968 165.251 229.822 165.178C229.456 164.996 228.43 164.703 227.844 164.606C227.576 164.557 227.295 164.472 227.234 164.423C227.063 164.277 218.897 164.058 213.171 164.046L208.618 164.034V163.632C208.618 163.4 208.691 163.205 208.789 163.169C208.984 163.096 209.119 162.353 209.106 161.427C209.094 160.989 209.192 160.623 209.424 160.148C209.607 159.783 209.814 159.247 209.863 158.943C209.924 158.638 210.059 157.956 210.156 157.42C210.266 156.884 210.388 155.813 210.437 155.045C210.486 154.278 210.596 153.486 210.669 153.304C210.754 153.109 210.815 152.695 210.815 152.366C210.815 152.037 210.876 151.733 210.937 151.696C211.011 151.66 211.06 151.489 211.06 151.331C211.06 151.172 211.108 151.014 211.169 150.978C211.218 150.941 211.304 150.661 211.34 150.356C211.365 150.052 211.475 149.735 211.584 149.65C211.682 149.565 211.841 149.321 211.926 149.102C212.024 148.895 212.134 148.712 212.183 148.712C212.219 148.712 212.378 148.31 212.524 147.823C212.671 147.348 212.891 146.654 213.025 146.301C213.171 145.887 213.257 145.339 213.257 144.766C213.257 143.95 213.22 143.816 212.866 143.292C212.451 142.696 211.914 142.355 210.266 141.636C208.704 140.954 208.203 140.771 207.532 140.662C207.153 140.601 206.384 140.369 205.811 140.126C205.237 139.894 204.651 139.7 204.492 139.7C204.346 139.7 204.187 139.614 204.15 139.517C204.102 139.42 203.979 139.334 203.857 139.334C203.735 139.334 203.613 139.212 203.564 139.054C203.503 138.798 203.357 138.689 202.393 138.238C202.283 138.189 202.026 138.104 201.819 138.068C201.611 138.019 201.404 137.897 201.367 137.8C201.331 137.702 201.172 137.629 201.013 137.629C200.854 137.629 200.598 137.52 200.439 137.386C200.281 137.252 200.024 137.142 199.866 137.142C199.719 137.142 199.585 137.105 199.585 137.045C199.585 136.923 198.877 136.533 198.657 136.533C198.56 136.533 198.328 136.399 198.145 136.229C197.961 136.058 197.717 135.924 197.607 135.924C197.485 135.924 197.388 135.851 197.388 135.766C197.388 135.693 197.205 135.534 196.997 135.449C196.777 135.352 196.289 134.962 195.923 134.572C195.544 134.195 195.105 133.841 194.946 133.793C194.788 133.744 194.592 133.634 194.519 133.561C194.434 133.488 194.141 133.233 193.848 133.001C192.847 132.197 192.444 131.844 191.626 131.052C191.187 130.614 190.369 129.847 189.807 129.347C189.258 128.848 188.586 128.227 188.33 127.971C188.074 127.728 187.854 127.52 187.83 127.52C187.817 127.52 187.488 127.228 187.122 126.875C186.743 126.534 186.279 126.156 186.084 126.059C185.889 125.962 185.596 125.755 185.425 125.596C185.254 125.45 185.059 125.328 184.973 125.328C184.888 125.328 184.814 125.28 184.814 125.231C184.814 125.17 184.583 125.012 184.302 124.853C184.009 124.707 183.63 124.488 183.447 124.378C183.044 124.123 181.897 123.428 181.616 123.258C181.494 123.185 181.299 123.075 181.189 123.014C181.067 122.941 180.884 122.856 180.786 122.807C180.688 122.758 180.579 122.698 180.542 122.661C180.505 122.612 180.103 122.405 179.626 122.174C179.163 121.942 178.638 121.662 178.467 121.553C178.296 121.455 177.673 121.212 177.063 121.017C176.465 120.822 175.818 120.591 175.635 120.505C175.464 120.408 175.195 120.335 175.061 120.335C174.915 120.335 174.805 120.286 174.805 120.225C174.805 120.176 174.219 120.091 173.499 120.055C171.387 119.945 169.263 119.239 166.382 117.668C163.525 116.121 162.805 115.695 161.743 114.915C161.169 114.501 160.303 113.953 159.814 113.685C159.314 113.429 158.594 112.93 158.203 112.601C155.798 110.555 154.81 109.678 154.504 109.313C154.175 108.911 154.175 108.899 154.382 108.643C154.504 108.509 154.81 108.363 155.066 108.314C155.31 108.278 155.554 108.192 155.591 108.144C155.627 108.083 155.859 108.034 156.104 108.034C156.348 108.034 156.665 107.949 156.787 107.851C156.921 107.754 157.239 107.669 157.483 107.669C157.739 107.669 157.983 107.608 158.02 107.547C158.057 107.474 158.301 107.425 158.557 107.425C158.814 107.425 159.094 107.352 159.167 107.254C159.253 107.157 159.546 107.06 159.827 107.023C160.632 106.926 161.536 106.706 161.67 106.572C161.743 106.499 161.914 106.451 162.061 106.451C162.329 106.451 163.086 106.11 163.22 105.927C163.257 105.878 164.099 105.805 165.088 105.781C166.077 105.744 166.992 105.659 167.114 105.598C167.236 105.525 167.505 105.476 167.712 105.476C167.908 105.476 168.115 105.415 168.152 105.355C168.188 105.281 168.408 105.233 168.64 105.233C168.872 105.233 169.08 105.184 169.128 105.123C169.263 104.892 169.971 104.624 170.422 104.624C170.679 104.624 170.959 104.539 171.069 104.441C171.167 104.344 171.326 104.258 171.436 104.258C171.533 104.258 171.655 104.21 171.692 104.137C171.728 104.076 172.034 103.99 172.363 103.942C172.705 103.893 172.974 103.82 172.974 103.759C172.974 103.698 173.303 103.649 173.706 103.649C174.109 103.649 174.438 103.601 174.438 103.54C174.438 103.479 174.609 103.381 174.829 103.345C175.049 103.296 175.305 103.211 175.415 103.162C175.891 102.931 176.245 102.809 176.685 102.748C176.953 102.712 177.197 102.639 177.234 102.578C177.307 102.468 177.661 102.383 178.772 102.237C179.041 102.188 179.346 102.09 179.443 102.005C179.541 101.908 179.773 101.798 179.968 101.762C180.151 101.713 180.335 101.628 180.371 101.567C180.408 101.506 180.615 101.457 180.847 101.457C181.079 101.457 181.299 101.396 181.335 101.335C181.372 101.262 181.494 101.214 181.604 101.214C181.702 101.214 181.958 101.14 182.166 101.043C182.593 100.848 183.105 100.751 184.412 100.629C184.9 100.58 185.364 100.471 185.449 100.385C185.535 100.3 185.901 100.239 186.279 100.239C186.694 100.239 187.061 100.166 187.207 100.057C187.329 99.9592 187.671 99.8739 187.952 99.8739C188.232 99.8739 188.501 99.813 188.538 99.7521C188.574 99.679 188.818 99.6303 189.075 99.6303C189.331 99.6303 189.612 99.5572 189.685 99.4598C189.771 99.3623 190.088 99.2527 190.405 99.2284C191.528 99.0944 192.285 98.9361 192.358 98.8143C192.407 98.7412 192.725 98.656 193.054 98.6194C194.189 98.4977 194.946 98.3393 195.093 98.1932C195.178 98.1079 195.435 98.047 195.679 98.047C195.923 98.047 196.167 97.9983 196.24 97.9252C196.301 97.8643 196.606 97.7547 196.899 97.6938C197.937 97.4746 198.389 97.3406 198.523 97.2066C198.596 97.1336 198.804 97.0727 198.987 97.0727C199.17 97.0727 199.365 97.0118 199.402 96.9509C199.439 96.8778 199.622 96.8291 199.805 96.8291C199.988 96.8291 200.293 96.7439 200.488 96.6464C200.671 96.549 201.013 96.4637 201.245 96.4637C201.465 96.4637 201.685 96.4028 201.721 96.3419C201.758 96.2688 201.941 96.2202 202.124 96.2202C202.307 96.2202 202.576 96.147 202.698 96.0496C202.832 95.9522 203.247 95.8548 203.613 95.8182C204.968 95.6843 206.86 95.4163 207.007 95.3189C207.092 95.2702 208.289 95.2093 209.668 95.1849C211.304 95.1606 212.231 95.0997 212.317 95.0144C212.5 94.8317 215.991 94.8439 217.468 95.0144C218.115 95.0997 221.277 95.1605 225.22 95.1727C230.237 95.1849 231.946 95.2336 232.141 95.3432C232.629 95.6112 236.853 96.0131 237.231 95.8182C237.354 95.7574 237.659 95.7452 237.903 95.7817C238.147 95.8182 238.513 95.8548 238.721 95.8548C238.965 95.8548 239.136 95.9157 239.185 96.0496C239.246 96.2201 239.294 96.2079 239.551 95.9644C239.697 95.8061 239.929 95.5259 240.051 95.3311C240.247 95.0266 240.247 94.9779 240.063 94.6978C239.819 94.3202 239.807 93.8209 240.063 93.5773C240.234 93.4067 240.222 93.3581 239.978 93.1023C239.832 92.944 239.612 92.81 239.514 92.81C239.404 92.81 239.16 92.676 238.965 92.5055C238.77 92.335 238.538 92.201 238.44 92.201C238.355 92.201 238.281 92.1401 238.281 92.067C238.281 91.994 238.013 91.9575 237.585 91.9818L236.877 92.0184V91.5677C236.877 91.1293 236.743 90.8979 236.255 90.4838C236.133 90.3742 235.876 90.1306 235.706 89.9357C235.535 89.7408 235.144 89.4607 234.839 89.3146C234.546 89.1562 234.192 88.9248 234.07 88.7909C233.948 88.6569 233.777 88.5473 233.691 88.5473C233.606 88.5473 233.521 88.5108 233.496 88.4499C233.435 88.3159 232.239 87.573 232.08 87.573C231.995 87.573 231.934 87.5121 231.934 87.4512C231.934 87.3781 231.836 87.3294 231.726 87.3294C231.604 87.3294 231.348 87.2441 231.152 87.1467C230.969 87.0493 230.713 86.964 230.603 86.964C230.493 86.964 230.298 86.8788 230.176 86.7813C230.042 86.6839 229.785 86.5986 229.602 86.5986C229.419 86.5986 229.224 86.5499 229.187 86.4768C229.15 86.4038 228.979 86.3551 228.809 86.3551C228.65 86.3551 228.418 86.3063 228.296 86.2333C227.881 86.0141 226.599 85.539 225.989 85.3807C225.781 85.332 225.452 85.1859 225.256 85.0519C225.073 84.9301 224.768 84.7474 224.585 84.6621C224.414 84.5769 224.231 84.3942 224.207 84.2724C224.17 84.1506 224.048 84.0045 223.914 83.9558C223.73 83.8827 222.803 83.1154 221.362 81.8488C221.228 81.727 220.813 81.4834 220.447 81.3007C220.081 81.1302 219.702 80.9475 219.604 80.8866C218.848 80.4604 217.871 80.5335 217.2 81.0693C216.943 81.2764 216.589 81.4834 216.406 81.5199C216.223 81.5687 215.833 81.8366 215.527 82.1289C214.282 83.3224 212.695 84.6256 212.28 84.8083C212.183 84.857 211.938 85.0032 211.731 85.125C211.536 85.2589 211.145 85.3686 210.864 85.3686C210.596 85.3807 210.266 85.466 210.132 85.5634C210.01 85.6608 209.778 85.7461 209.631 85.7461C209.485 85.7461 209.338 85.7948 209.302 85.8435C209.229 85.9653 206.934 86.1967 205.2 86.2576C204.309 86.2942 197.888 85.9897 196.838 85.8557C196.118 85.7705 193.823 85.7461 190.125 85.7826C184.46 85.8435 182.654 85.9409 182.166 86.2089C182.019 86.2941 181.653 86.3551 181.348 86.3551C181.042 86.3551 180.762 86.4038 180.725 86.4768C180.688 86.5377 180.493 86.5986 180.31 86.5986C180.115 86.5986 179.895 86.6839 179.81 86.7813C179.724 86.8788 179.541 86.964 179.395 86.964C179.163 86.964 178.369 87.1954 177.795 87.439C177.661 87.4877 177.332 87.6095 177.063 87.6948C176.794 87.78 176.416 87.914 176.208 87.9992C176.013 88.0845 175.269 88.3281 174.561 88.5473C173.853 88.7665 173.23 88.9979 173.169 89.0588C173.096 89.1075 172.864 89.1563 172.632 89.1563C172.412 89.1563 172.119 89.2172 171.997 89.278C171.692 89.4364 169.165 89.6434 166.138 89.753C164.832 89.8017 162.842 89.9235 161.707 90.0088C159.644 90.1793 159.033 90.1549 156.799 89.753C156.47 89.6922 155.774 89.5825 155.273 89.5095C154.773 89.4364 154.26 89.3268 154.15 89.2659C154.028 89.205 153.577 89.1563 153.137 89.1563C152.698 89.1563 152.344 89.1075 152.344 89.0466C152.344 88.9857 152.148 88.9005 151.916 88.8639C151.245 88.73 145.837 88.7787 144.287 88.9248C143.518 88.9979 142.224 89.0954 141.418 89.1563C140.613 89.205 139.185 89.3146 138.245 89.3998C136.414 89.546 134.448 89.4973 134.241 89.2902C134.168 89.2171 133.948 89.1563 133.765 89.1563C133.569 89.1563 133.325 89.1075 133.203 89.0466C133.093 88.9857 132.727 88.8396 132.397 88.7178C131.616 88.4499 130.493 87.7922 130.493 87.6095C130.493 87.5364 130.225 87.439 129.895 87.3903C129.578 87.3416 129.15 87.232 128.967 87.1345C128.784 87.0371 128.577 86.964 128.516 86.964C128.442 86.964 128.259 86.8301 128.101 86.6595C127.869 86.4038 127.71 86.3551 127.161 86.3551C126.807 86.3551 126.465 86.3063 126.392 86.2454C126.27 86.1115 125.464 85.8923 124.634 85.7583C124.329 85.7096 123.962 85.5999 123.816 85.5269C123.401 85.2955 118.42 85.332 117.554 85.5634C117.187 85.6608 116.675 85.7461 116.431 85.7461C116.187 85.7461 115.955 85.7948 115.918 85.8557C115.881 85.9044 115.613 85.9897 115.332 86.014C115.039 86.0506 114.575 86.1845 114.282 86.3307C113.989 86.4647 113.599 86.623 113.403 86.6595C113.196 86.7083 113.037 86.7935 113.037 86.8544C113.037 86.9153 112.927 86.964 112.793 86.964C112.659 86.964 112.549 87.0128 112.549 87.0858C112.549 87.1467 112.488 87.2076 112.415 87.2076C112.134 87.2076 111.243 87.7069 110.779 88.1089C110.51 88.3524 110.12 88.6326 109.9 88.73C109.68 88.8396 109.473 88.9736 109.436 89.0345C109.399 89.0954 109.143 89.1441 108.875 89.1319C108.606 89.1197 108.325 89.1806 108.252 89.2537C108.167 89.3389 107.983 89.3998 107.837 89.3998C107.678 89.3998 107.483 89.4729 107.397 89.5582C107.3 89.6556 106.799 89.7652 106.226 89.8139C105.676 89.8505 105.078 89.9479 104.895 90.021C104.309 90.2402 97.5098 89.887 97.229 89.6313C97.168 89.5703 96.9483 89.5216 96.7407 89.5216C96.5454 89.5216 96.1548 89.3755 95.8862 89.2171C95.6177 89.0466 95.2759 88.9127 95.1294 88.9127C94.9829 88.9127 94.8364 88.8639 94.7998 88.803C94.7632 88.7543 94.519 88.6691 94.2505 88.6326C93.9331 88.596 93.2861 88.2793 92.4683 87.7678C91.7725 87.3294 91.1377 86.964 91.0889 86.964C91.0278 86.964 90.8814 86.8544 90.7593 86.7204C90.6372 86.5865 90.4908 86.4768 90.4297 86.4768C90.3198 86.4768 88.4522 85.6243 87.8662 85.3077C87.6953 85.2102 87.4634 85.1371 87.3657 85.1371C87.2681 85.1371 86.9507 85.0154 86.6577 84.857C85.8521 84.4308 84.4482 83.9192 84.082 83.9192C83.899 83.9192 83.728 83.8705 83.6914 83.8096C83.6548 83.7609 83.3618 83.6391 83.0445 83.5539C82.7149 83.4686 82.4096 83.359 82.3364 83.3103C82.0923 83.1154 80.6885 82.6891 79.1016 82.3116C78.6133 82.1898 77.8564 82.1776 75.6225 82.2264C75.2563 82.2264 74.8535 82.2264 74.7437 82.2141C74.0601 82.1167 71.5699 81.593 70.6787 81.3494C69.7632 81.1059 69.3604 81.0693 67.1997 81.0571C65.1978 81.0571 64.6362 81.0937 64.0991 81.2642C63.7329 81.386 63.1592 81.4834 62.8174 81.4834C62.4756 81.4834 61.9507 81.5443 61.6455 81.6174C61.3404 81.6904 60.9375 81.7513 60.73 81.7513C60.5347 81.7392 60.2905 81.8123 60.1929 81.8853C60.0098 82.0437 59.0332 82.3238 58.6426 82.3359C58.2642 82.3359 56.9458 83.2737 56.0059 84.1993C55.542 84.65 55.1758 85.0641 55.1758 85.1128C55.1758 85.1737 54.9927 85.4051 54.7852 85.6365C54.5654 85.8679 54.1748 86.2941 53.9307 86.5865L53.4668 87.098L50.4028 87.0371C48.7061 87.0005 47.29 86.9275 47.2534 86.8666C47.2168 86.8057 46.936 86.7083 46.6309 86.6595C46.2524 86.5986 45.9717 86.4525 45.7153 86.1724C45.3858 85.8191 44.6167 85.3807 44.3482 85.3807C44.2871 85.3807 44.104 85.2468 43.9453 85.0762C43.7866 84.9057 43.6157 84.7718 43.5547 84.7718C43.5059 84.7718 43.335 84.6621 43.1763 84.5282C42.8955 84.2846 42.3828 83.968 41.7725 83.6513C41.626 83.5782 41.272 83.2981 40.9912 83.0423C40.7104 82.7866 40.4297 82.5795 40.3687 82.5795C40.2954 82.5795 40.0635 82.4456 39.8438 82.275C39.6241 82.1046 39.3799 81.9706 39.3066 81.9706C39.2212 81.9706 39.0015 81.8366 38.794 81.6661C38.5986 81.4956 38.3301 81.3616 38.1958 81.3616C38.0737 81.3616 37.9639 81.3007 37.9639 81.2398C37.9639 81.1668 37.8418 81.0571 37.6953 80.9841C36.9995 80.6674 36.7432 80.4847 36.7432 80.2777C36.7432 80.1072 36.6699 80.0706 36.438 80.1193C36.2671 80.1437 35.9985 80.0828 35.8032 79.961C35.5835 79.8148 35.4614 79.7905 35.4248 79.8757C35.3638 80.0584 34.79 80.0706 34.79 79.9001C34.79 79.8271 34.6558 79.7783 34.4971 79.7783C34.2896 79.7783 34.1553 79.6687 34.0088 79.3521C33.8989 79.1207 33.7769 78.9258 33.7525 78.9258C33.7158 78.9258 33.606 79.0598 33.4961 79.2303ZM74.646 110.957C74.6826 111.018 74.8535 111.079 75.0244 111.079C75.1831 111.079 75.3174 111.127 75.3174 111.2C75.3174 111.261 75.4639 111.359 75.647 111.395C75.8301 111.444 76.1231 111.615 76.294 111.773C76.4527 111.919 76.6602 112.053 76.7456 112.053C76.8311 112.053 76.9043 112.102 76.9043 112.175C76.9043 112.236 77.0386 112.297 77.2095 112.297C77.3804 112.297 77.5513 112.382 77.5879 112.479C77.6367 112.577 77.7466 112.662 77.8442 112.662C77.9419 112.662 78.186 112.747 78.4058 112.857C78.6865 113.003 80.2978 113.21 84.3506 113.6C90.4297 114.184 91.5649 114.209 94.8486 113.807C96.6675 113.588 100.171 113.624 102.539 113.892C103.601 114.014 104.138 114.002 105.945 113.831C107.129 113.722 108.46 113.575 108.911 113.502C109.888 113.368 111.169 113.368 112 113.514C112.39 113.575 112.671 113.563 112.769 113.49C112.854 113.405 113.208 113.393 113.672 113.441C114.49 113.539 116.931 114.257 117.432 114.562C118.408 115.134 119.006 115.329 120.239 115.439C121.545 115.548 122.681 115.512 122.681 115.341C122.681 115.207 125.012 115.22 125.293 115.366C125.439 115.439 125.671 115.621 125.806 115.78C125.952 115.926 126.196 116.072 126.355 116.096C126.55 116.121 126.66 116.23 126.685 116.401C126.709 116.559 126.807 116.681 126.917 116.681C127.21 116.681 127.747 117.046 127.881 117.339C127.954 117.509 128.125 117.607 128.394 117.631C128.638 117.655 128.784 117.741 128.784 117.85C128.784 117.948 128.906 118.021 129.065 118.033C129.211 118.033 129.504 118.143 129.7 118.277C129.907 118.398 130.151 118.544 130.249 118.581C130.347 118.618 130.725 118.788 131.079 118.946C131.433 119.105 131.775 119.239 131.824 119.239C131.885 119.239 132.092 119.312 132.288 119.409C132.739 119.628 133.435 119.848 133.74 119.848C133.862 119.848 134.082 119.933 134.204 120.03C134.338 120.128 134.595 120.213 134.79 120.213C134.973 120.213 135.132 120.262 135.132 120.335C135.132 120.396 135.242 120.457 135.376 120.457C135.51 120.457 135.828 120.566 136.084 120.7C136.34 120.834 136.877 121.005 137.28 121.078C137.671 121.151 138.049 121.26 138.123 121.321C138.184 121.382 138.416 121.431 138.635 121.431C138.855 121.431 139.136 121.48 139.258 121.541C139.612 121.735 140.71 122.04 141.04 122.04C141.211 122.04 141.357 122.089 141.357 122.137C141.357 122.235 142.59 122.649 142.896 122.649C143.005 122.649 143.164 122.734 143.262 122.832C143.372 122.929 143.567 123.014 143.713 123.014C143.86 123.014 144.092 123.099 144.214 123.197C144.348 123.294 144.58 123.38 144.727 123.38C144.885 123.38 145.044 123.428 145.081 123.501C145.117 123.562 145.398 123.623 145.703 123.623C145.996 123.623 146.338 123.672 146.46 123.745C146.729 123.891 147.742 124.123 148.474 124.196C148.791 124.232 149.048 124.305 149.048 124.366C149.048 124.415 149.243 124.5 149.475 124.549C149.707 124.585 149.939 124.671 149.976 124.731C150.012 124.792 150.208 124.841 150.403 124.841C150.61 124.841 150.855 124.926 150.952 125.024C151.062 125.121 151.245 125.206 151.367 125.206C151.489 125.206 151.636 125.255 151.672 125.328C151.709 125.389 151.929 125.45 152.161 125.45C152.38 125.45 152.649 125.535 152.759 125.633C152.856 125.73 153.101 125.815 153.308 125.815C153.564 125.815 153.687 125.876 153.687 125.998C153.687 126.096 153.735 126.181 153.809 126.181C154.041 126.181 155.273 126.802 155.273 126.912C155.273 126.985 155.359 127.033 155.457 127.033C155.554 127.033 155.64 127.082 155.64 127.155C155.64 127.216 155.774 127.301 155.945 127.35C156.116 127.387 156.25 127.472 156.25 127.533C156.25 127.594 156.384 127.642 156.543 127.642C156.714 127.642 156.885 127.691 156.921 127.764C156.995 127.874 157.349 128.044 158.203 128.373C158.435 128.47 159.045 128.556 159.546 128.58C160.046 128.604 160.571 128.678 160.706 128.738C161.084 128.921 161.987 129.128 162.659 129.189C163.001 129.226 163.33 129.299 163.391 129.347C163.464 129.396 163.855 129.481 164.282 129.53C164.697 129.579 165.039 129.664 165.039 129.725C165.039 129.786 165.234 129.835 165.466 129.835C165.759 129.835 165.894 129.895 165.894 130.017C165.894 130.127 166.003 130.2 166.199 130.2C166.37 130.2 166.504 130.249 166.504 130.322C166.504 130.383 166.614 130.443 166.736 130.443C166.858 130.443 166.992 130.529 167.041 130.626C167.078 130.724 167.224 130.809 167.358 130.809C167.493 130.809 167.603 130.858 167.603 130.931C167.603 130.992 167.786 131.052 168.018 131.052C168.274 131.052 168.457 131.125 168.506 131.235C168.542 131.333 168.701 131.418 168.86 131.418C169.031 131.418 169.226 131.503 169.312 131.6C169.397 131.698 169.568 131.783 169.69 131.783C169.812 131.783 169.934 131.832 169.983 131.893C170.081 132.063 170.776 132.392 171.045 132.392C171.167 132.392 171.265 132.441 171.265 132.514C171.265 132.575 171.375 132.636 171.509 132.636C171.631 132.636 171.79 132.709 171.838 132.806C171.985 133.038 172.803 133.549 174.719 134.56C175.037 134.718 175.293 134.901 175.293 134.962C175.293 135.011 175.464 135.084 175.659 135.132C175.867 135.181 176.025 135.266 176.025 135.327C176.025 135.388 176.16 135.437 176.331 135.437C176.501 135.437 176.636 135.486 176.636 135.547C176.636 135.693 177.344 136.046 177.637 136.046C177.759 136.046 177.856 136.131 177.856 136.229C177.856 136.326 177.966 136.411 178.101 136.411C178.235 136.411 178.442 136.46 178.564 136.521C178.674 136.582 178.857 136.667 178.955 136.704C179.053 136.74 179.248 136.85 179.382 136.923C180.151 137.422 180.566 137.629 180.786 137.629C180.92 137.629 181.03 137.678 181.03 137.739C181.03 137.8 181.189 137.885 181.396 137.934C181.592 137.982 181.787 138.068 181.824 138.128C181.873 138.189 182.019 138.238 182.166 138.238C182.312 138.238 182.544 138.323 182.666 138.421C182.8 138.518 183.032 138.603 183.179 138.603C183.325 138.603 183.472 138.64 183.496 138.689C183.557 138.847 184.448 139.212 184.753 139.212C184.924 139.212 185.059 139.249 185.059 139.298C185.059 139.444 185.779 139.821 186.047 139.821C186.169 139.821 186.279 139.87 186.279 139.919C186.279 140.004 187.109 140.43 187.292 140.43C187.329 140.43 187.512 140.564 187.695 140.735C187.878 140.905 188.171 141.039 188.355 141.039C188.55 141.039 188.721 141.125 188.77 141.222C188.806 141.319 188.94 141.405 189.075 141.405C189.209 141.405 189.355 141.453 189.392 141.526C189.429 141.587 189.563 141.648 189.673 141.648C189.783 141.648 190.002 141.782 190.161 141.941C190.308 142.099 190.576 142.269 190.759 142.318C191.125 142.403 191.785 142.83 191.931 143.073C191.98 143.158 192.139 143.232 192.261 143.232C192.395 143.232 192.505 143.317 192.505 143.414C192.505 143.524 192.615 143.597 192.786 143.597C192.932 143.597 193.262 143.792 193.506 144.023C193.75 144.255 193.994 144.449 194.043 144.449C194.08 144.449 194.312 144.608 194.543 144.815C194.763 145.01 195.007 145.18 195.081 145.18C195.154 145.18 195.41 145.375 195.654 145.607C195.898 145.838 196.143 146.033 196.204 146.033C196.252 146.033 196.289 146.094 196.289 146.167C196.289 146.325 196.594 146.642 196.753 146.642C196.814 146.642 196.924 146.764 197.009 146.91C197.095 147.068 197.363 147.287 197.62 147.397C197.937 147.543 198.12 147.75 198.242 148.042C198.34 148.274 198.462 148.469 198.523 148.469C198.657 148.469 199.084 148.968 199.097 149.138C199.097 149.199 199.268 149.443 199.463 149.674C199.67 149.894 199.829 150.125 199.829 150.161C199.829 150.21 199.927 150.356 200.049 150.49C200.159 150.624 200.366 150.929 200.488 151.184C200.623 151.428 200.769 151.635 200.83 151.635C200.879 151.635 200.928 151.757 200.928 151.903C200.94 152.061 201.013 152.317 201.111 152.488C201.209 152.658 201.282 152.999 201.294 153.243C201.294 153.486 201.343 153.718 201.404 153.754C201.465 153.791 201.55 154.071 201.587 154.375C201.636 154.668 201.721 154.948 201.794 154.984C201.855 155.033 201.904 155.24 201.904 155.472C201.904 155.703 201.965 155.922 202.026 155.959C202.1 155.995 202.148 156.141 202.148 156.275C202.148 156.409 202.234 156.543 202.332 156.58C202.429 156.629 202.515 156.787 202.515 156.945C202.515 157.104 202.563 157.238 202.625 157.238C202.686 157.238 202.771 157.396 202.82 157.603C202.869 157.798 202.954 157.993 203.015 158.029C203.076 158.078 203.125 158.2 203.125 158.322C203.125 158.443 203.21 158.614 203.308 158.699C203.406 158.784 203.491 159.028 203.491 159.259C203.491 159.479 203.552 159.698 203.626 159.746C203.845 159.88 203.564 161.208 203.259 161.512C202.966 161.793 202.27 162.109 201.953 162.109C201.794 162.109 201.648 162.158 201.611 162.219C201.514 162.377 200.476 162.511 199.536 162.487C198.816 162.475 198.645 162.511 198.401 162.743C198.254 162.889 198.12 163.096 198.12 163.193C198.108 163.449 197.766 163.875 197.388 164.058C197.217 164.143 196.863 164.387 196.594 164.606C196.326 164.813 196.008 164.971 195.898 164.935C195.776 164.91 195.679 164.947 195.679 165.02C195.679 165.203 195.374 165.191 195.056 164.996C194.849 164.874 194.775 164.874 194.739 164.996C194.666 165.191 194.214 165.203 194.214 165.02C194.214 164.935 193.884 164.898 193.274 164.923C192.749 164.935 183.459 164.935 172.62 164.923C158.374 164.91 152.869 164.874 152.747 164.776C152.637 164.679 152.588 164.679 152.588 164.776C152.588 164.959 152.014 164.947 151.941 164.752C151.892 164.63 151.855 164.63 151.721 164.752C151.636 164.837 151.465 164.91 151.355 164.91C151.233 164.91 151.123 164.837 151.086 164.752C151.05 164.63 150.977 164.63 150.769 164.752C150.488 164.923 150.147 164.959 150.147 164.813C150.147 164.716 148.218 164.728 148.108 164.837C147.974 164.959 147.522 164.923 147.363 164.764C147.253 164.655 147.217 164.655 147.217 164.764C147.217 164.971 146.79 164.947 146.606 164.728C146.497 164.594 146.411 164.582 146.289 164.679C146.191 164.752 145.972 164.776 145.752 164.728C145.52 164.679 145.386 164.691 145.386 164.776C145.386 164.849 145.251 164.91 145.081 164.91C144.91 164.91 144.775 164.849 144.775 164.764C144.775 164.655 144.739 164.655 144.629 164.764C144.434 164.959 144.006 164.947 143.823 164.764C143.701 164.642 143.64 164.643 143.579 164.752C143.457 164.947 140.479 164.947 140.356 164.74C140.283 164.642 140.234 164.642 140.173 164.74C140.039 164.947 130.481 164.947 130.334 164.752C130.261 164.643 130.212 164.643 130.164 164.752C130.09 164.947 129.395 164.959 129.395 164.776C129.395 164.679 129.346 164.679 129.248 164.764C129.016 164.947 126.794 164.935 126.685 164.752C126.611 164.643 126.587 164.643 126.587 164.752C126.587 164.849 126.416 164.91 126.16 164.91C125.903 164.91 125.732 164.849 125.732 164.752C125.732 164.655 125.696 164.667 125.61 164.789C125.525 164.935 125.427 164.947 125.122 164.825C124.927 164.752 124.756 164.74 124.756 164.801C124.756 164.862 124.622 164.91 124.451 164.91C124.28 164.91 124.146 164.849 124.146 164.789C124.146 164.716 124.06 164.667 123.962 164.667C123.865 164.667 123.779 164.716 123.779 164.789C123.779 164.849 123.645 164.91 123.474 164.91C123.303 164.91 123.169 164.849 123.169 164.789C123.169 164.716 123.083 164.667 122.986 164.667C122.888 164.667 122.803 164.716 122.803 164.789C122.803 164.849 122.693 164.91 122.559 164.91C122.424 164.91 122.314 164.849 122.314 164.789C122.314 164.716 122.229 164.667 122.131 164.667C122.034 164.667 121.948 164.716 121.948 164.789C121.948 164.849 121.814 164.91 121.643 164.91C121.472 164.91 121.338 164.849 121.338 164.789C121.338 164.716 121.252 164.667 121.155 164.667C121.057 164.667 120.972 164.716 120.972 164.789C120.972 164.959 120.52 164.935 120.447 164.752C120.41 164.63 120.337 164.63 120.129 164.752C119.824 164.947 119.507 164.959 119.507 164.789C119.507 164.716 119.421 164.667 119.324 164.667C119.226 164.667 119.141 164.716 119.141 164.789C119.141 164.849 119.031 164.91 118.896 164.91C118.762 164.91 118.652 164.849 118.652 164.789C118.652 164.716 118.542 164.667 118.408 164.667C118.274 164.667 118.164 164.716 118.164 164.789C118.164 164.947 117.712 164.947 117.651 164.789C117.59 164.606 114.746 164.569 114.746 164.752C114.746 164.947 114.294 164.959 114.233 164.764C114.172 164.594 109.375 164.508 109.375 164.679C109.375 164.74 109.265 164.789 109.131 164.789C108.997 164.789 108.887 164.728 108.887 164.667C108.887 164.582 108.362 164.545 107.459 164.569C104.004 164.618 91.5649 164.521 91.0889 164.435C90.8081 164.375 90.5517 164.374 90.5151 164.423C90.4175 164.582 87.0361 164.533 87.0361 164.374C87.0361 164.277 87.0117 164.277 86.9385 164.374C86.8286 164.545 85.4492 164.557 85.2417 164.399C85.1318 164.314 85.083 164.314 85.083 164.411C85.083 164.594 84.436 164.582 84.2529 164.399C84.1431 164.289 84.1065 164.289 84.1065 164.399C84.1065 164.594 83.7158 164.594 83.5205 164.399C83.4107 164.289 83.3374 164.289 83.2275 164.399C83.0445 164.582 82.6416 164.594 82.6416 164.423C82.6416 164.338 82.5684 164.338 82.4096 164.423C82.1289 164.569 81.6651 164.582 81.6651 164.448C81.6651 164.399 81.4453 164.362 81.1768 164.362C80.9082 164.362 80.6885 164.399 80.6885 164.448C80.6885 164.606 80.1391 164.557 79.9682 164.387C79.834 164.265 79.7974 164.265 79.7486 164.387C79.6753 164.582 79.3213 164.594 79.1382 164.411C79.0405 164.314 78.9307 164.326 78.7476 164.448C78.5401 164.582 78.4424 164.582 78.2226 164.435C78.0273 164.314 77.9419 164.314 77.9053 164.411C77.8442 164.582 77.478 164.582 77.3072 164.411C77.2095 164.314 77.0996 164.326 76.9165 164.448C76.709 164.582 76.6113 164.582 76.3916 164.435C76.1963 164.314 76.1108 164.314 76.0742 164.411C76.0254 164.569 75.4395 164.594 75.4395 164.435C75.4395 164.375 75.2808 164.387 75.0733 164.46C74.8047 164.557 74.6704 164.557 74.5728 164.46C74.4751 164.362 74.3408 164.362 74.0845 164.472C73.8403 164.557 73.6939 164.557 73.6328 164.484C73.5352 164.338 70.6787 164.314 70.6787 164.448C70.6787 164.594 70.3369 164.557 70.0562 164.387C69.8486 164.265 69.7754 164.265 69.7388 164.387C69.6778 164.569 69.2505 164.606 69.1895 164.435C69.1772 164.375 66.7358 164.301 63.7817 164.253C60.8276 164.204 57.4341 164.155 56.2256 164.143C54.2236 164.107 54.0405 164.094 53.8696 163.875C53.772 163.741 53.7109 163.485 53.7353 163.315C53.772 163.096 53.711 162.95 53.5645 162.852C53.3447 162.718 53.2471 162.231 53.4424 162.231C53.4912 162.231 53.6377 162.048 53.772 161.829C53.8941 161.622 54.0283 161.415 54.0649 161.378C54.1138 161.342 54.2481 161.098 54.3823 160.83C54.5166 160.562 54.7974 160.148 55.0049 159.917C55.5054 159.357 56.1524 158.297 56.1524 158.054C56.1524 157.956 56.2622 157.615 56.3843 157.311C56.5186 157.006 56.665 156.555 56.7017 156.3C56.7505 156.044 56.836 155.666 56.8848 155.472C57.2022 154.363 57.4341 153.572 57.6416 152.999C57.7637 152.646 57.8613 152.256 57.8613 152.135C57.8613 151.867 58.4595 150.32 59.0332 149.114C59.2652 148.639 59.4483 148.201 59.4483 148.14C59.4605 148.091 59.5581 147.823 59.6924 147.555C59.8267 147.287 59.9243 146.995 59.9365 146.91C59.9365 146.824 60.022 146.63 60.1196 146.471C60.3271 146.167 60.6323 145.192 60.791 144.328C60.8398 144.023 60.9863 143.39 61.0962 142.927C61.438 141.539 61.5112 140.869 61.6333 138.299C61.6943 136.959 61.8164 135.571 61.8775 135.206C61.9507 134.852 62.0117 134.304 62.0117 134.012C62.0117 133.476 62.3169 132.343 62.5244 132.063C62.5855 131.99 62.6343 131.467 62.6343 130.906C62.6465 129.506 62.7686 129.067 63.6475 127.228C64.0625 126.351 64.5142 125.219 64.6362 124.719C64.7583 124.22 64.9292 123.562 65.0147 123.258C65.1001 122.953 65.2344 122.357 65.3076 121.918C65.4419 121.139 65.8203 120.067 66.0767 119.738C66.2598 119.519 67.0166 117.777 67.0166 117.57C67.0166 117.485 67.0654 117.314 67.1265 117.193C67.7612 115.95 68.0542 114.781 68.1885 113.015L68.2495 112.09L69.9219 111.87C70.8374 111.761 71.6431 111.615 71.7163 111.554C71.7774 111.493 71.997 111.444 72.2046 111.444C72.4121 111.444 72.6319 111.395 72.7051 111.334C73.0469 110.981 74.4873 110.713 74.646 110.957Z" fill="#39BBD1"/>
</svg>
