<svg 
          width="22.684127807617188" 
          height="16.647750854492188" fill="none" 
          xmlns="http://www.w3.org/2000/svg">
          <path d="M 1.0733294246879728 16.06107026259561 C 1.4387555697869987 16.26778898541808 1.464774287564753 16.383938374367865 1.2037133694525273 16.647750854492188 L 3.864977050993012 15.392678863460823 L 4.850582464403997 14.408303962143995 L 8.65345895491656 16.16639308986663 C 10.581801318338151 15.663377537354899 11.165222548992109 15.231236182597197 12.417506823218536 13.378642648359664 C 13.006840258716057 12.50648650785412 13.907493757651588 11.398074455639861 14.41907067674127 10.914746382379004 C 15.552699903316121 9.843746431542366 17.536036127789515 8.537487604661214 18.02938112974996 8.537487604661214 L 22.684127807617188 3.1253933157547253 C 22.416266875900202 2.4796433626541976 22.258880715800085 1.9815461008828887 22.151460408108942 1.122186786686425 L 10.260032613970191 0 C 9.821678917835856 0.8032499044541629 9.262405362974343 1.6045285614999627 8.527808110505463 2.547559721185963 C 6.827807763838041 4.728934581360992 5.082867634957397 6.522478820668754 2.140043928096614 9.113353530893908 C 0.4519682029561112 10.599759622494588 0.13640856852467195 11.009259472544713 0.031156377175970407 11.847946886589105 C -0.0369421864590011 12.391321818503785 0.010361175848211168 12.966184753730667 0.13630902853301557 13.127622242005799 C 0.26215832880620843 13.288075353384722 0.2965527386433025 13.599141782297652 0.21258750841516796 13.817673013206306 C 0.12862227818703342 14.03620424411496 0.1852897386412073 14.292144598730435 0.3384375870042326 14.386644590078276 C 0.49168398777886946 14.481144581426118 0.6170401294934662 14.838464388396144 0.6170401294934662 15.181026844197282 C 0.6170401294934662 15.52358929999842 0.8223206763376627 15.920304645135893 1.0733294246879728 16.06107026259561 Z" fill="rgb(0,0,0)"/>
        </svg>