<svg width="134" height="252" viewBox="0 0 134 252" fill="none" xmlns="http://www.w3.org/2000/svg">
<rect width="134" height="252" fill="#E5E5E5"/>
<g id="body_countour_splitted_named">
<g id="split-body 1" clip-path="url(#clip0_0_1)">
<g id="hands">
<g id="fingers">
<g id="r_finger">
<mask id="path-1-inside-1_0_1" fill="white">
<path d="M7.65901 136.412C8.52715 133.908 9.06785 133.026 9.73562 133.026L7.40054 129.586C6.78379 131.119 5.92855 133.076 5.5 133.935C4.19333 136.549 4.23555 139.798 5.57618 139.798C6.25015 139.798 6.78882 138.922 7.65901 136.412Z"/>
</mask>
<path d="M7.65901 136.412C8.52715 133.908 9.06785 133.026 9.73562 133.026L7.40054 129.586C6.78379 131.119 5.92855 133.076 5.5 133.935C4.19333 136.549 4.23555 139.798 5.57618 139.798C6.25015 139.798 6.78882 138.922 7.65901 136.412Z" fill="#949597" stroke="#BEBFC0" mask="url(#path-1-inside-1_0_1)"/>
</g>
<g id="l_finger">
<mask id="path-2-inside-2_0_1" fill="white">
<path d="M126.366 136.368C125.498 133.864 124.957 132.982 124.289 132.982L126.625 129.541C127.241 131.075 128.097 133.032 128.525 133.89C129.832 136.505 129.79 139.753 128.449 139.753C127.775 139.753 127.236 138.878 126.366 136.368Z"/>
</mask>
<path d="M126.366 136.368C125.498 133.864 124.957 132.982 124.289 132.982L126.625 129.541C127.241 131.075 128.097 133.032 128.525 133.89C129.832 136.505 129.79 139.753 128.449 139.753C127.775 139.753 127.236 138.878 126.366 136.368Z" fill="#949597" stroke="#BEBFC0" mask="url(#path-2-inside-2_0_1)"/>
</g>
</g>
<g id="thumps">
<g id="r_thump">
<mask id="path-3-inside-3_0_1" fill="white">
<path d="M3.67957 126.935C7.26516 125.936 7.75485 125.875 8.17185 126.377L10.7258 120.414C9.11176 121.234 7.44619 122.147 7.02461 122.442C6.60303 122.738 4.84399 123.691 3.11563 124.561C1.38726 125.431 -0.0615368 126.323 -0.103914 126.542C-0.1463 126.763 0.114555 127.101 0.475763 127.293C1.05274 127.602 1.44183 127.558 3.67957 126.935Z"/>
</mask>
<path d="M3.67957 126.935C7.26516 125.936 7.75485 125.875 8.17185 126.377L10.7258 120.414C9.11176 121.234 7.44619 122.147 7.02461 122.442C6.60303 122.738 4.84399 123.691 3.11563 124.561C1.38726 125.431 -0.0615368 126.323 -0.103914 126.542C-0.1463 126.763 0.114555 127.101 0.475763 127.293C1.05274 127.602 1.44183 127.558 3.67957 126.935Z" fill="#949597" stroke="#BEBFC0" mask="url(#path-3-inside-3_0_1)"/>
</g>
<g id="l_thump">
<mask id="path-4-inside-4_0_1" fill="white">
<path d="M130.345 126.901C126.759 125.902 126.27 125.841 125.853 126.343L123.299 120.38C124.913 121.2 126.578 122.113 127 122.409C127.422 122.704 129.181 123.657 130.909 124.527C132.637 125.397 134.086 126.289 134.129 126.509C134.171 126.729 133.91 127.067 133.549 127.26C132.972 127.568 132.583 127.525 130.345 126.901Z"/>
</mask>
<path d="M130.345 126.901C126.759 125.902 126.27 125.841 125.853 126.343L123.299 120.38C124.913 121.2 126.578 122.113 127 122.409C127.422 122.704 129.181 123.657 130.909 124.527C132.637 125.397 134.086 126.289 134.129 126.509C134.171 126.729 133.91 127.067 133.549 127.26C132.972 127.568 132.583 127.525 130.345 126.901Z" fill="#949597" stroke="#BEBFC0" mask="url(#path-4-inside-4_0_1)"/>
</g>
</g>
<g id="palms">
<g id="r_palm">
<mask id="path-5-inside-5_0_1" fill="white">
<path d="M21.7546 132.425C21.8685 128.672 22.0882 124.81 22.2428 123.843L18.4036 120.692L14.5643 117.539C13.7457 118.771 13.3473 119.067 10.7164 120.406L8.16243 126.369C8.46421 126.733 8.35486 127.189 7.39282 129.582L9.7279 133.024C10.459 133.024 10.49 133.216 10.1064 135.368C9.62045 138.093 9.62556 141.722 10.1162 142.128C11.2947 143.106 12.2781 141.519 12.6415 138.054C12.9557 135.058 13.2724 134.065 13.9133 134.065C14.5954 134.065 14.6919 134.564 14.6919 138.091C14.6919 141.567 14.885 142.083 16.0747 141.785C17.009 141.55 17.2841 140.709 17.52 137.362C17.6741 135.176 17.8443 134.212 18.1051 134.05C18.8329 133.601 19.1836 134.46 19.3703 137.148C19.5979 140.426 20.1747 141.342 21.1123 139.912C21.4756 139.359 21.5818 138.12 21.7546 132.425Z"/>
</mask>
<path d="M21.7546 132.425C21.8685 128.672 22.0882 124.81 22.2428 123.843L18.4036 120.692L14.5643 117.539C13.7457 118.771 13.3473 119.067 10.7164 120.406L8.16243 126.369C8.46421 126.733 8.35486 127.189 7.39282 129.582L9.7279 133.024C10.459 133.024 10.49 133.216 10.1064 135.368C9.62045 138.093 9.62556 141.722 10.1162 142.128C11.2947 143.106 12.2781 141.519 12.6415 138.054C12.9557 135.058 13.2724 134.065 13.9133 134.065C14.5954 134.065 14.6919 134.564 14.6919 138.091C14.6919 141.567 14.885 142.083 16.0747 141.785C17.009 141.55 17.2841 140.709 17.52 137.362C17.6741 135.176 17.8443 134.212 18.1051 134.05C18.8329 133.601 19.1836 134.46 19.3703 137.148C19.5979 140.426 20.1747 141.342 21.1123 139.912C21.4756 139.359 21.5818 138.12 21.7546 132.425Z" fill="#949597" stroke="#BEBFC0" mask="url(#path-5-inside-5_0_1)"/>
</g>
<g id="l_palm">
<mask id="path-6-inside-6_0_1" fill="white">
<path d="M112.264 132.387C112.15 128.633 111.93 124.772 111.776 123.805L115.615 120.653L119.454 117.5C120.273 118.732 120.671 119.029 123.302 120.367L125.856 126.331C125.554 126.694 125.664 127.151 126.626 129.544L124.291 132.985C123.559 132.985 123.528 133.177 123.912 135.329C124.398 138.055 124.393 141.683 123.902 142.09C122.724 143.067 121.74 141.48 121.377 138.015C121.063 135.02 120.746 134.027 120.105 134.027C119.423 134.027 119.327 134.526 119.327 138.053C119.327 141.529 119.133 142.044 117.944 141.746C117.009 141.512 116.734 140.67 116.498 137.323C116.344 135.137 116.174 134.173 115.913 134.012C115.186 133.562 114.835 134.421 114.648 137.11C114.42 140.388 113.844 141.303 112.906 139.874C112.543 139.321 112.437 138.081 112.264 132.387Z"/>
</mask>
<path d="M112.264 132.387C112.15 128.633 111.93 124.772 111.776 123.805L115.615 120.653L119.454 117.5C120.273 118.732 120.671 119.029 123.302 120.367L125.856 126.331C125.554 126.694 125.664 127.151 126.626 129.544L124.291 132.985C123.559 132.985 123.528 133.177 123.912 135.329C124.398 138.055 124.393 141.683 123.902 142.09C122.724 143.067 121.74 141.48 121.377 138.015C121.063 135.02 120.746 134.027 120.105 134.027C119.423 134.027 119.327 134.526 119.327 138.053C119.327 141.529 119.133 142.044 117.944 141.746C117.009 141.512 116.734 140.67 116.498 137.323C116.344 135.137 116.174 134.173 115.913 134.012C115.186 133.562 114.835 134.421 114.648 137.11C114.42 140.388 113.844 141.303 112.906 139.874C112.543 139.321 112.437 138.081 112.264 132.387Z" fill="#949597" stroke="#BEBFC0" mask="url(#path-6-inside-6_0_1)"/>
</g>
</g>
</g>
<g id="wrists">
<g id="r_wrist">
<mask id="path-7-inside-7_0_1" fill="white">
<path d="M17.2859 109.852C16.2952 114.116 15.6741 115.87 14.5623 117.543L18.4016 120.696L22.2408 123.848C22.5598 121.854 23.59 118.583 24.9405 115.109L17.2859 109.852Z"/>
</mask>
<path d="M17.2859 109.852C16.2952 114.116 15.6741 115.87 14.5623 117.543L18.4016 120.696L22.2408 123.848C22.5598 121.854 23.59 118.583 24.9405 115.109L17.2859 109.852Z" fill="#949597" stroke="#BEBFC0" mask="url(#path-7-inside-7_0_1)"/>
</g>
<g id="l_wrist">
<mask id="path-8-inside-8_0_1" fill="white">
<path d="M116.729 109.845C117.719 114.109 118.34 115.864 119.452 117.536L115.613 120.689L111.774 123.841C111.455 121.848 110.424 118.576 109.074 115.103L116.729 109.845Z"/>
</mask>
<path d="M116.729 109.845C117.719 114.109 118.34 115.864 119.452 117.536L115.613 120.689L111.774 123.841C111.455 121.848 110.424 118.576 109.074 115.103L116.729 109.845Z" fill="#949597" stroke="#BEBFC0" mask="url(#path-8-inside-8_0_1)"/>
</g>
</g>
<g id="underarms">
<g id="r_underarm">
<mask id="path-9-inside-9_0_1" fill="white">
<path d="M27.8492 108.41C28.7565 106.548 29.9332 104.002 30.4643 102.753C30.6579 102.297 30.8833 101.801 31.1112 101.323L19.8211 95.6395C19.2462 97.6837 18.8581 99.5121 18.7387 100.857C18.454 104.064 18.0584 106.505 17.2819 109.847L24.9366 115.105C25.8088 112.861 26.8148 110.533 27.8492 108.41Z"/>
</mask>
<path d="M27.8492 108.41C28.7565 106.548 29.9332 104.002 30.4643 102.753C30.6579 102.297 30.8833 101.801 31.1112 101.323L19.8211 95.6395C19.2462 97.6837 18.8581 99.5121 18.7387 100.857C18.454 104.064 18.0584 106.505 17.2819 109.847L24.9366 115.105C25.8088 112.861 26.8148 110.533 27.8492 108.41Z" fill="#949597" stroke="#BEBFC0" mask="url(#path-9-inside-9_0_1)"/>
</g>
<g id="l_underarm">
<mask id="path-10-inside-10_0_1" fill="white">
<path d="M106.176 108.452C105.269 106.591 104.092 104.044 103.561 102.795C103.367 102.339 103.142 101.843 102.914 101.365L114.204 95.6816C114.779 97.7258 115.167 99.5542 115.287 100.899C115.571 104.106 115.967 106.547 116.743 109.889L109.089 115.147C108.217 112.903 107.211 110.575 106.176 108.452Z"/>
</mask>
<path d="M106.176 108.452C105.269 106.591 104.092 104.044 103.561 102.795C103.367 102.339 103.142 101.843 102.914 101.365L114.204 95.6816C114.779 97.7258 115.167 99.5542 115.287 100.899C115.571 104.106 115.967 106.547 116.743 109.889L109.089 115.147C108.217 112.903 107.211 110.575 106.176 108.452Z" fill="#949597" stroke="#BEBFC0" mask="url(#path-10-inside-10_0_1)"/>
</g>
</g>
<g id="elbows">
<g id="r_ellbow">
<mask id="path-11-inside-11_0_1" fill="white">
<path d="M32.1735 99.3192C32.5818 98.6764 33.1436 97.2373 33.4218 96.1218C33.6206 95.325 33.7973 94.6129 33.9606 93.949L21.8769 89.5193C21.6089 90.2132 21.3517 90.9108 21.1078 91.6038L20.3277 93.949C20.1467 94.5273 19.9778 95.0952 19.8225 95.6474L31.1127 101.331C31.5095 100.501 31.9142 99.7277 32.1735 99.3192Z"/>
</mask>
<path d="M32.1735 99.3192C32.5818 98.6764 33.1436 97.2373 33.4218 96.1218C33.6206 95.325 33.7973 94.6129 33.9606 93.949L21.8769 89.5193C21.6089 90.2132 21.3517 90.9108 21.1078 91.6038L20.3277 93.949C20.1467 94.5273 19.9778 95.0952 19.8225 95.6474L31.1127 101.331C31.5095 100.501 31.9142 99.7277 32.1735 99.3192Z" fill="#949597" stroke="#BEBFC0" mask="url(#path-11-inside-11_0_1)"/>
</g>
<g id="l_ellbow">
<mask id="path-12-inside-12_0_1" fill="white">
<path d="M101.861 99.3795C101.453 98.7367 100.891 97.2976 100.613 96.1821C100.414 95.3853 100.237 94.6732 100.074 94.0093L112.158 89.5796C112.425 90.2735 112.683 90.9711 112.927 91.6641L113.707 94.0093C113.888 94.5876 114.057 95.1555 114.212 95.7077L102.922 101.392C102.525 100.562 102.12 99.788 101.861 99.3795Z"/>
</mask>
<path d="M101.861 99.3795C101.453 98.7367 100.891 97.2976 100.613 96.1821C100.414 95.3853 100.237 94.6732 100.074 94.0093L112.158 89.5796C112.425 90.2735 112.683 90.9711 112.927 91.6641L113.707 94.0093C113.888 94.5876 114.057 95.1555 114.212 95.7077L102.922 101.392C102.525 100.562 102.12 99.788 101.861 99.3795Z" fill="#949597" stroke="#BEBFC0" mask="url(#path-12-inside-12_0_1)"/>
</g>
</g>
<g id="upper_arms">
<g id="r_upper_arm">
<mask id="path-13-inside-13_0_1" fill="white">
<path d="M37.5195 79.8567C39.029 75.285 40.7898 70.5832 40.9924 70.5832L30.8446 58.2119C30.4688 61.0906 29.8171 64.2554 29.1589 66.3968C28.4916 68.5685 27.4188 72.6743 26.0577 78.2665C25.3881 81.0178 24.6619 83.0635 23.0993 86.6009C22.6715 87.5691 22.2589 88.5705 21.8691 89.5797L33.9528 94.0094C34.567 91.5121 34.9914 89.6966 35.6862 86.6285C36.1692 84.4949 36.9942 81.4477 37.5195 79.8567V79.8567Z"/>
</mask>
<path d="M37.5195 79.8567C39.029 75.285 40.7898 70.5832 40.9924 70.5832L30.8446 58.2119C30.4688 61.0906 29.8171 64.2554 29.1589 66.3968C28.4916 68.5685 27.4188 72.6743 26.0577 78.2665C25.3881 81.0178 24.6619 83.0635 23.0993 86.6009C22.6715 87.5691 22.2589 88.5705 21.8691 89.5797L33.9528 94.0094C34.567 91.5121 34.9914 89.6966 35.6862 86.6285C36.1692 84.4949 36.9942 81.4477 37.5195 79.8567V79.8567Z" fill="#949597" stroke="#BEBFC0" mask="url(#path-13-inside-13_0_1)"/>
</g>
<g id="l_upper_arm">
<mask id="path-14-inside-14_0_1" fill="white">
<path d="M96.5088 79.8567C94.9993 75.285 93.2385 70.5832 93.0359 70.5832L103.184 58.2119C103.56 61.0906 104.211 64.2554 104.869 66.3968C105.537 68.5685 106.609 72.6742 107.971 78.2665C108.64 81.0178 109.366 83.0635 110.929 86.6009C111.357 87.5691 111.769 88.5705 112.159 89.5797L100.075 94.0094C99.4613 91.5121 99.037 89.6966 98.3422 86.6285C97.8591 84.4949 97.0341 81.4477 96.5088 79.8567V79.8567Z"/>
</mask>
<path d="M96.5088 79.8567C94.9993 75.285 93.2385 70.5832 93.0359 70.5832L103.184 58.2119C103.56 61.0906 104.211 64.2554 104.869 66.3968C105.537 68.5685 106.609 72.6742 107.971 78.2665C108.64 81.0178 109.366 83.0635 110.929 86.6009C111.357 87.5691 111.769 88.5705 112.159 89.5797L100.075 94.0094C99.4613 91.5121 99.037 89.6966 98.3422 86.6285C97.8591 84.4949 97.0341 81.4477 96.5088 79.8567V79.8567Z" fill="#949597" stroke="#BEBFC0" mask="url(#path-14-inside-14_0_1)"/>
</g>
</g>
<g id="shoulders">
<g id="r_shoulder">
<mask id="path-15-inside-15_0_1" fill="white">
<path d="M33.5053 49.5455C32.5244 51.1898 31.1968 55.514 30.8447 58.2118L40.9926 70.5831L53.6796 41.3452C52.2006 41.7452 50.3127 41.9257 47.9015 41.9291C44.5717 41.934 41.9453 42.425 39.5219 43.4957C38.0492 44.1465 34.7426 47.4712 33.5053 49.5455Z"/>
</mask>
<path d="M33.5053 49.5455C32.5244 51.1898 31.1968 55.514 30.8447 58.2118L40.9926 70.5831L53.6796 41.3452C52.2006 41.7452 50.3127 41.9257 47.9015 41.9291C44.5717 41.934 41.9453 42.425 39.5219 43.4957C38.0492 44.1465 34.7426 47.4712 33.5053 49.5455Z" fill="#949597" stroke="#BEBFC0" mask="url(#path-15-inside-15_0_1)"/>
</g>
<g id="l_shoulder">
<mask id="path-16-inside-16_0_1" fill="white">
<path d="M100.523 49.5455C101.504 51.1898 102.831 55.514 103.184 58.2118L93.0357 70.5831L80.3487 41.3452C81.8278 41.7452 83.7156 41.9257 86.1268 41.9291C89.4567 41.934 92.083 42.425 94.5064 43.4957C95.9791 44.1465 99.2857 47.4712 100.523 49.5455Z"/>
</mask>
<path d="M100.523 49.5455C101.504 51.1898 102.831 55.514 103.184 58.2118L93.0357 70.5831L80.3487 41.3452C81.8278 41.7452 83.7156 41.9257 86.1268 41.9291C89.4567 41.934 92.083 42.425 94.5064 43.4957C95.9791 44.1465 99.2857 47.4712 100.523 49.5455Z" fill="#949597" stroke="#BEBFC0" mask="url(#path-16-inside-16_0_1)"/>
</g>
</g>
<g id="breast">
<g id="path18">
<mask id="path-17-inside-17_0_1" fill="white">
<path d="M88.6809 83.3833C89.7199 80.4645 90.3087 78.6867 91.6048 74.555C92.29 72.3704 92.9341 70.5831 93.0361 70.5831L80.3491 41.3452H66.9388H53.5L41 70L45.5 83.3833H66.9388H88.6809Z"/>
</mask>
<path d="M88.6809 83.3833C89.7199 80.4645 90.3087 78.6867 91.6048 74.555C92.29 72.3704 92.9341 70.5831 93.0361 70.5831L80.3491 41.3452H66.9388H53.5L41 70L45.5 83.3833H66.9388H88.6809Z" fill="#949597" stroke="#BEBFC0" stroke-linejoin="round" mask="url(#path-17-inside-17_0_1)"/>
</g>
</g>
<g id="waist">
<g id="Union">
<mask id="path-18-inside-18_0_1" fill="white">
<path d="M42.0566 120.459C43.6997 115.725 44.7936 111.659 45.3147 108.348C45.529 106.988 45.9887 104.233 46.3365 102.227C47.3832 96.1915 47.4452 93.5302 46.6452 88.9829C46.2708 86.8552 45.6872 84.3354 45.3482 83.3833H88.6811C88.3421 84.3354 87.7585 86.8552 87.3841 88.9829C86.5841 93.5302 86.6461 96.1915 87.6928 102.227C88.0406 104.233 88.5003 106.988 88.7146 108.348C89.2357 111.659 90.3296 115.725 91.9727 120.459L67.0903 121.565V121.571L67.0147 121.568L66.939 121.571V121.565L42.0566 120.459Z"/>
</mask>
<path d="M42.0566 120.459C43.6997 115.725 44.7936 111.659 45.3147 108.348C45.529 106.988 45.9887 104.233 46.3365 102.227C47.3832 96.1915 47.4452 93.5302 46.6452 88.9829C46.2708 86.8552 45.6872 84.3354 45.3482 83.3833H88.6811C88.3421 84.3354 87.7585 86.8552 87.3841 88.9829C86.5841 93.5302 86.6461 96.1915 87.6928 102.227C88.0406 104.233 88.5003 106.988 88.7146 108.348C89.2357 111.659 90.3296 115.725 91.9727 120.459L67.0903 121.565V121.571L67.0147 121.568L66.939 121.571V121.565L42.0566 120.459Z" fill="#949597" stroke="#BEBFC0" mask="url(#path-18-inside-18_0_1)"/>
</g>
</g>
<g id="head">
<g id="neck">
<g id="Union_2">
<mask id="path-19-inside-19_0_1" fill="white">
<path d="M57.7895 38.2862C58.4968 36.9148 58.5205 36.7515 58.3559 34.3841C58.2937 33.4896 58.2234 32.7115 58.1346 31.9937H75.8947C75.8059 32.7115 75.7356 33.4896 75.6734 34.3841C75.5088 36.7515 75.5324 36.9148 76.2398 38.2862C77.0242 39.8068 78.291 40.7885 80.3496 41.3452H53.6797C55.7383 40.7885 57.0051 39.8068 57.7895 38.2862Z"/>
</mask>
<path d="M57.7895 38.2862C58.4968 36.9148 58.5205 36.7515 58.3559 34.3841C58.2937 33.4896 58.2234 32.7115 58.1346 31.9937H75.8947C75.8059 32.7115 75.7356 33.4896 75.6734 34.3841C75.5088 36.7515 75.5324 36.9148 76.2398 38.2862C77.0242 39.8068 78.291 40.7885 80.3496 41.3452H53.6797C55.7383 40.7885 57.0051 39.8068 57.7895 38.2862Z" fill="#949597" stroke="#BEBFC0" mask="url(#path-19-inside-19_0_1)"/>
</g>
</g>
<g id="face">
<g id="Union_3">
<mask id="path-20-inside-20_0_1" fill="white">
<path d="M54.7584 16.3113C54.6889 15.864 54.7369 14.0331 54.8651 12.2424C54.8833 11.99 54.9005 11.7557 54.9177 11.5371H79.1116C79.1288 11.7557 79.146 11.99 79.1641 12.2424C79.2924 14.0331 79.3404 15.864 79.2709 16.3113C79.2139 16.678 79.1874 16.8793 79.2709 16.9867L77.7183 25.2387C77.5313 25.4819 77.3356 26.0057 77.022 26.9976C76.4372 28.8475 76.1108 30.2409 75.8942 31.9936H58.1351C57.9184 30.2409 57.5921 28.8475 57.0073 26.9976C56.6937 26.0057 56.498 25.4819 56.311 25.2387L54.7584 16.9867C54.8419 16.8793 54.8154 16.678 54.7584 16.3113Z"/>
</mask>
<path d="M54.7584 16.3113C54.6889 15.864 54.7369 14.0331 54.8651 12.2424C54.8833 11.99 54.9005 11.7557 54.9177 11.5371H79.1116C79.1288 11.7557 79.146 11.99 79.1641 12.2424C79.2924 14.0331 79.3404 15.864 79.2709 16.3113C79.2139 16.678 79.1874 16.8793 79.2709 16.9867L77.7183 25.2387C77.5313 25.4819 77.3356 26.0057 77.022 26.9976C76.4372 28.8475 76.1108 30.2409 75.8942 31.9936H58.1351C57.9184 30.2409 57.5921 28.8475 57.0073 26.9976C56.6937 26.0057 56.498 25.4819 56.311 25.2387L54.7584 16.9867C54.8419 16.8793 54.8154 16.678 54.7584 16.3113Z" fill="#949597" stroke="#BEBFC0" stroke-linejoin="round" mask="url(#path-20-inside-20_0_1)"/>
</g>
</g>
<g id="ears">
<g id="r_ear">
<mask id="path-21-inside-21_0_1" fill="white">
<path d="M54.1349 23.632C55.0943 25.1005 55.264 25.2405 55.8879 25.0776C56.0505 25.0351 56.1786 25.0667 56.311 25.2388L54.7584 16.9868C54.661 17.1121 54.414 17.1096 53.891 17.0927C52.6567 17.0532 52.5956 17.2696 53.0127 20.2044C53.2499 21.8732 53.5151 22.6835 54.1349 23.632V23.632Z"/>
</mask>
<path d="M54.1349 23.632C55.0943 25.1005 55.264 25.2405 55.8879 25.0776C56.0505 25.0351 56.1786 25.0667 56.311 25.2388L54.7584 16.9868C54.661 17.1121 54.414 17.1096 53.891 17.0927C52.6567 17.0532 52.5956 17.2696 53.0127 20.2044C53.2499 21.8732 53.5151 22.6835 54.1349 23.632V23.632Z" fill="#949597" stroke="#BEBFC0" mask="url(#path-21-inside-21_0_1)"/>
</g>
<g id="l_ear">
<mask id="path-22-inside-22_0_1" fill="white">
<path d="M79.8944 23.632C78.935 25.1005 78.7653 25.2405 78.1414 25.0776C77.9788 25.0351 77.8507 25.0667 77.7183 25.2388L79.2709 16.9868C79.3683 17.1121 79.6153 17.1096 80.1383 17.0927C81.3726 17.0532 81.4337 17.2696 81.0166 20.2044C80.7794 21.8732 80.5142 22.6835 79.8944 23.632V23.632Z"/>
</mask>
<path d="M79.8944 23.632C78.935 25.1005 78.7653 25.2405 78.1414 25.0776C77.9788 25.0351 77.8507 25.0667 77.7183 25.2388L79.2709 16.9868C79.3683 17.1121 79.6153 17.1096 80.1383 17.0927C81.3726 17.0532 81.4337 17.2696 81.0166 20.2044C80.7794 21.8732 80.5142 22.6835 79.8944 23.632V23.632Z" fill="#949597" stroke="#BEBFC0" mask="url(#path-22-inside-22_0_1)"/>
</g>
</g>
<g id="upper_head">
<g id="Union_4">
<mask id="path-23-inside-23_0_1" fill="white">
<path d="M56.0081 7.12799C57.0874 4.92637 59.4934 2.52112 61.6905 1.44743C63.2073 0.706196 65.5331 0.00816377 66.5031 0.00305289L67.0898 0L67.5262 0.00305289C68.4962 0.00816377 70.822 0.706196 72.3388 1.44743C74.5359 2.52112 76.9419 4.92637 78.0212 7.12799C78.7736 8.66275 78.9301 9.20556 79.1123 11.5357H54.917C55.0992 9.20556 55.2557 8.66275 56.0081 7.12799Z"/>
</mask>
<path d="M56.0081 7.12799C57.0874 4.92637 59.4934 2.52112 61.6905 1.44743C63.2073 0.706196 65.5331 0.00816377 66.5031 0.00305289L67.0898 0L67.5262 0.00305289C68.4962 0.00816377 70.822 0.706196 72.3388 1.44743C74.5359 2.52112 76.9419 4.92637 78.0212 7.12799C78.7736 8.66275 78.9301 9.20556 79.1123 11.5357H54.917C55.0992 9.20556 55.2557 8.66275 56.0081 7.12799Z" fill="#949597" stroke="#BEBFC0" mask="url(#path-23-inside-23_0_1)"/>
</g>
</g>
</g>
<g id="hip">
<g id="Union_5">
<mask id="path-24-inside-24_0_1" fill="white">
<path d="M38.6456 137.628C38.9516 134.477 39.3174 131.542 39.4583 131.108C39.5993 130.674 39.9364 128.974 40.2074 127.331C40.512 125.485 41.2179 122.853 42.0561 120.438L67.0142 121.547L91.9722 120.438C92.8104 122.853 93.5163 125.485 93.8209 127.331C94.092 128.974 94.429 130.674 94.57 131.108C94.711 131.542 95.0767 134.477 95.3827 137.628C95.6543 140.425 95.7994 142.928 95.8174 145.176L69.349 148.129C69.333 147.592 69.3166 147.003 69.2993 146.353C69.1835 142.022 69.0135 139.512 68.8105 139.139C68.6394 138.824 68.1481 138.359 67.7189 138.106L67.0142 137.69L66.3094 138.106C65.8802 138.359 65.389 138.824 65.2178 139.139C65.0149 139.512 64.8449 142.022 64.7291 146.353C64.7117 147.003 64.6954 147.592 64.6793 148.129L38.2109 145.176C38.2289 142.928 38.374 140.425 38.6456 137.628Z"/>
</mask>
<path d="M38.6456 137.628C38.9516 134.477 39.3174 131.542 39.4583 131.108C39.5993 130.674 39.9364 128.974 40.2074 127.331C40.512 125.485 41.2179 122.853 42.0561 120.438L67.0142 121.547L91.9722 120.438C92.8104 122.853 93.5163 125.485 93.8209 127.331C94.092 128.974 94.429 130.674 94.57 131.108C94.711 131.542 95.0767 134.477 95.3827 137.628C95.6543 140.425 95.7994 142.928 95.8174 145.176L69.349 148.129C69.333 147.592 69.3166 147.003 69.2993 146.353C69.1835 142.022 69.0135 139.512 68.8105 139.139C68.6394 138.824 68.1481 138.359 67.7189 138.106L67.0142 137.69L66.3094 138.106C65.8802 138.359 65.389 138.824 65.2178 139.139C65.0149 139.512 64.8449 142.022 64.7291 146.353C64.7117 147.003 64.6954 147.592 64.6793 148.129L38.2109 145.176C38.2289 142.928 38.374 140.425 38.6456 137.628Z" fill="#949597" stroke="#BEBFC0" mask="url(#path-24-inside-24_0_1)"/>
</g>
</g>
<g id="femorals">
<g id="r_femoral">
<mask id="path-25-inside-25_0_1" fill="white">
<path d="M39.8401 171.225C39.5655 178.935 39.5661 178.961 40.1071 182.777L56.9416 183.566C57.1828 182.776 57.3798 181.97 57.5868 180.992C57.9659 179.202 58.9645 174.924 59.806 171.486C60.6474 168.048 61.7572 163.485 62.2721 161.346C62.7869 159.208 63.5103 156.454 63.8798 155.226C64.4303 153.396 64.5449 152.618 64.6792 148.129L38.2109 145.176C38.1852 148.388 38.4195 151.076 38.9157 153.353C39.6773 156.847 40.077 164.575 39.8401 171.225V171.225Z"/>
</mask>
<path d="M39.8401 171.225C39.5655 178.935 39.5661 178.961 40.1071 182.777L56.9416 183.566C57.1828 182.776 57.3798 181.97 57.5868 180.992C57.9659 179.202 58.9645 174.924 59.806 171.486C60.6474 168.048 61.7572 163.485 62.2721 161.346C62.7869 159.208 63.5103 156.454 63.8798 155.226C64.4303 153.396 64.5449 152.618 64.6792 148.129L38.2109 145.176C38.1852 148.388 38.4195 151.076 38.9157 153.353C39.6773 156.847 40.077 164.575 39.8401 171.225V171.225Z" fill="#949597" stroke="#BEBFC0" mask="url(#path-25-inside-25_0_1)"/>
</g>
<g id="l_femoral">
<mask id="path-26-inside-26_0_1" fill="white">
<path d="M94.1882 171.225C94.4629 178.935 94.4623 178.961 93.9212 182.777L77.0867 183.566C76.8455 182.776 76.6485 181.97 76.4416 180.992C76.0624 179.202 75.0638 174.924 74.2223 171.486C73.3809 168.048 72.2711 163.485 71.7563 161.346C71.2414 159.208 70.518 156.454 70.1485 155.226C69.598 153.396 69.4834 152.618 69.3491 148.129L95.8174 145.176C95.8431 148.388 95.6088 151.076 95.1126 153.353C94.351 156.847 93.9513 164.575 94.1882 171.225V171.225Z"/>
</mask>
<path d="M94.1882 171.225C94.4629 178.935 94.4623 178.961 93.9212 182.777L77.0867 183.566C76.8455 182.776 76.6485 181.97 76.4416 180.992C76.0624 179.202 75.0638 174.924 74.2223 171.486C73.3809 168.048 72.2711 163.485 71.7563 161.346C71.2414 159.208 70.518 156.454 70.1485 155.226C69.598 153.396 69.4834 152.618 69.3491 148.129L95.8174 145.176C95.8431 148.388 95.6088 151.076 95.1126 153.353C94.351 156.847 93.9513 164.575 94.1882 171.225V171.225Z" fill="#949597" stroke="#BEBFC0" mask="url(#path-26-inside-26_0_1)"/>
</g>
</g>
<g id="knees">
<g id="r_knee">
<mask id="path-27-inside-27_0_1" fill="white">
<path d="M40.1074 182.777C40.6576 186.658 40.5653 187.545 39.1914 191.58L53.4004 195.379C52.996 193.066 53.4317 191.755 55.0841 188.176C56.0027 186.187 56.5353 184.899 56.942 183.566L40.1074 182.777Z"/>
</mask>
<path d="M40.1074 182.777C40.6576 186.658 40.5653 187.545 39.1914 191.58L53.4004 195.379C52.996 193.066 53.4317 191.755 55.0841 188.176C56.0027 186.187 56.5353 184.899 56.942 183.566L40.1074 182.777Z" fill="#949597" stroke="#BEBFC0" mask="url(#path-27-inside-27_0_1)"/>
</g>
<g id="l_knee">
<mask id="path-28-inside-28_0_1" fill="white">
<path d="M93.9219 182.777C93.3717 186.658 93.464 187.545 94.8379 191.58L80.629 195.379C81.0333 193.066 80.5976 191.755 78.9452 188.176C78.0266 186.187 77.4941 184.899 77.0873 183.566L93.9219 182.777Z"/>
</mask>
<path d="M93.9219 182.777C93.3717 186.658 93.464 187.545 94.8379 191.58L80.629 195.379C81.0333 193.066 80.5976 191.755 78.9452 188.176C78.0266 186.187 77.4941 184.899 77.0873 183.566L93.9219 182.777Z" fill="#949597" stroke="#BEBFC0" mask="url(#path-28-inside-28_0_1)"/>
</g>
</g>
<g id="shanks">
<g id="r_shank">
<mask id="path-29-inside-29_0_1" fill="white">
<path d="M37.7531 224.618C37.9365 225.333 38.0376 226.33 37.9777 226.832C37.8446 227.946 37.7066 228.878 37.5376 229.696H47.9698C47.8818 226.903 47.9104 223.853 48.0335 222.918C48.2911 220.962 50.8457 214.73 52.5477 211.904C54.7705 208.215 55.3273 202.743 53.9824 197.803C53.7224 196.847 53.527 196.069 53.4065 195.379L39.1976 191.58C38.7847 192.793 37.8948 196.092 37.2198 198.913C35.8445 204.661 35.834 204.836 36.3234 213.848C36.5811 218.593 36.9801 221.599 37.7531 224.618V224.618Z"/>
</mask>
<path d="M37.7531 224.618C37.9365 225.333 38.0376 226.33 37.9777 226.832C37.8446 227.946 37.7066 228.878 37.5376 229.696H47.9698C47.8818 226.903 47.9104 223.853 48.0335 222.918C48.2911 220.962 50.8457 214.73 52.5477 211.904C54.7705 208.215 55.3273 202.743 53.9824 197.803C53.7224 196.847 53.527 196.069 53.4065 195.379L39.1976 191.58C38.7847 192.793 37.8948 196.092 37.2198 198.913C35.8445 204.661 35.834 204.836 36.3234 213.848C36.5811 218.593 36.9801 221.599 37.7531 224.618V224.618Z" fill="#949597" stroke="#BEBFC0" mask="url(#path-29-inside-29_0_1)"/>
</g>
<g id="l_shank">
<mask id="path-30-inside-30_0_1" fill="white">
<path d="M96.2752 224.618C96.0918 225.333 95.9907 226.33 96.0506 226.832C96.1838 227.946 96.3217 228.878 96.4907 229.696H86.0586C86.1466 226.903 86.1179 223.853 85.9948 222.918C85.7372 220.962 83.1826 214.73 81.4806 211.904C79.2579 208.215 78.7011 202.743 80.0459 197.803C80.306 196.847 80.5013 196.069 80.6218 195.379L94.8308 191.58C95.2436 192.793 96.1335 196.092 96.8085 198.913C98.1838 204.661 98.1943 204.836 97.7049 213.848C97.4472 218.593 97.0482 221.599 96.2752 224.618V224.618Z"/>
</mask>
<path d="M96.2752 224.618C96.0918 225.333 95.9907 226.33 96.0506 226.832C96.1838 227.946 96.3217 228.878 96.4907 229.696H86.0586C86.1466 226.903 86.1179 223.853 85.9948 222.918C85.7372 220.962 83.1826 214.73 81.4806 211.904C79.2579 208.215 78.7011 202.743 80.0459 197.803C80.306 196.847 80.5013 196.069 80.6218 195.379L94.8308 191.58C95.2436 192.793 96.1335 196.092 96.8085 198.913C98.1838 204.661 98.1943 204.836 97.7049 213.848C97.4472 218.593 97.0482 221.599 96.2752 224.618V224.618Z" fill="#949597" stroke="#BEBFC0" mask="url(#path-30-inside-30_0_1)"/>
</g>
</g>
<g id="ankles">
<g id="r_ankle">
<mask id="path-31-inside-31_0_1" fill="white">
<path d="M47.9696 229.696H37.5374C37.2574 231.052 36.8923 232.097 36.3232 233.139L48.2147 234.261C48.1007 233.349 48.043 232.03 47.9696 229.696V229.696Z"/>
</mask>
<path d="M47.9696 229.696H37.5374C37.2574 231.052 36.8923 232.097 36.3232 233.139L48.2147 234.261C48.1007 233.349 48.043 232.03 47.9696 229.696V229.696Z" fill="#949597" stroke="#BEBFC0" mask="url(#path-31-inside-31_0_1)"/>
</g>
<g id="l_ankle">
<mask id="path-32-inside-32_0_1" fill="white">
<path d="M86.0597 229.696H96.4919C96.7719 231.052 97.137 232.097 97.7061 233.139L85.8146 234.261C85.9285 233.349 85.9863 232.03 86.0597 229.696V229.696Z"/>
</mask>
<path d="M86.0597 229.696H96.4919C96.7719 231.052 97.137 232.097 97.7061 233.139L85.8146 234.261C85.9285 233.349 85.9863 232.03 86.0597 229.696V229.696Z" fill="#949597" stroke="#BEBFC0" mask="url(#path-32-inside-32_0_1)"/>
</g>
</g>
<g id="foot">
<g id="feet_middle">
<g id="r_foot_middle">
<mask id="path-33-inside-33_0_1" fill="white">
<path d="M27.1729 249.2C27.5384 249.407 27.5644 249.523 27.3033 249.787L29.9646 248.532L30.9502 247.547L34.7531 249.306C36.6814 248.803 37.2648 248.37 38.5171 246.518C39.1064 245.646 40.0071 244.537 40.5187 244.054C41.6523 242.983 43.6356 241.677 44.129 241.677L48.7837 236.265C48.5159 235.619 48.3585 235.121 48.2511 234.261L36.3596 233.139C35.9213 233.942 35.362 234.744 34.6274 235.687C32.9274 237.868 31.1825 239.662 28.2397 242.253C26.5516 243.739 26.236 244.148 26.1308 244.987C26.0627 245.53 26.11 246.105 26.2359 246.267C26.3618 246.427 26.3962 246.738 26.3122 246.957C26.2282 247.175 26.2849 247.431 26.438 247.526C26.5913 247.62 26.7166 247.978 26.7166 248.32C26.7166 248.663 26.9219 249.059 27.1729 249.2Z"/>
</mask>
<path d="M27.1729 249.2C27.5384 249.407 27.5644 249.523 27.3033 249.787L29.9646 248.532L30.9502 247.547L34.7531 249.306C36.6814 248.803 37.2648 248.37 38.5171 246.518C39.1064 245.646 40.0071 244.537 40.5187 244.054C41.6523 242.983 43.6356 241.677 44.129 241.677L48.7837 236.265C48.5159 235.619 48.3585 235.121 48.2511 234.261L36.3596 233.139C35.9213 233.942 35.362 234.744 34.6274 235.687C32.9274 237.868 31.1825 239.662 28.2397 242.253C26.5516 243.739 26.236 244.148 26.1308 244.987C26.0627 245.53 26.11 246.105 26.2359 246.267C26.3618 246.427 26.3962 246.738 26.3122 246.957C26.2282 247.175 26.2849 247.431 26.438 247.526C26.5913 247.62 26.7166 247.978 26.7166 248.32C26.7166 248.663 26.9219 249.059 27.1729 249.2Z" fill="#949597" stroke="#BEBFC0" mask="url(#path-33-inside-33_0_1)"/>
</g>
<g id="l_foot_middle">
<mask id="path-34-inside-34_0_1" fill="white">
<path d="M106.856 249.2C106.491 249.407 106.465 249.523 106.726 249.787L104.065 248.532L103.079 247.547L99.2762 249.306C97.3479 248.803 96.7645 248.37 95.5122 246.518C94.9228 245.646 94.0222 244.537 93.5106 244.054C92.377 242.983 90.3937 241.677 89.9003 241.677L85.2456 236.265C85.5134 235.619 85.6708 235.121 85.7782 234.261L97.6697 233.139C98.108 233.942 98.6673 234.744 99.4019 235.687C101.102 237.868 102.847 239.662 105.79 242.253C107.478 243.739 107.793 244.148 107.899 244.987C107.967 245.53 107.919 246.105 107.793 246.267C107.668 246.427 107.633 246.738 107.717 246.957C107.801 247.175 107.744 247.431 107.591 247.526C107.438 247.62 107.313 247.978 107.313 248.32C107.313 248.663 107.107 249.059 106.856 249.2Z"/>
</mask>
<path d="M106.856 249.2C106.491 249.407 106.465 249.523 106.726 249.787L104.065 248.532L103.079 247.547L99.2762 249.306C97.3479 248.803 96.7645 248.37 95.5122 246.518C94.9228 245.646 94.0222 244.537 93.5106 244.054C92.377 242.983 90.3937 241.677 89.9003 241.677L85.2456 236.265C85.5134 235.619 85.6708 235.121 85.7782 234.261L97.6697 233.139C98.108 233.942 98.6673 234.744 99.4019 235.687C101.102 237.868 102.847 239.662 105.79 242.253C107.478 243.739 107.793 244.148 107.899 244.987C107.967 245.53 107.919 246.105 107.793 246.267C107.668 246.427 107.633 246.738 107.717 246.957C107.801 247.175 107.744 247.431 107.591 247.526C107.438 247.62 107.313 247.978 107.313 248.32C107.313 248.663 107.107 249.059 106.856 249.2Z" fill="#949597" stroke="#BEBFC0" mask="url(#path-34-inside-34_0_1)"/>
</g>
</g>
<g id="heels">
<g id="r_heel">
<mask id="path-35-inside-35_0_1" fill="white">
<path d="M48.9452 239.556C49.5586 238.828 49.5199 238.04 48.7837 236.265L44.1289 241.677C44.873 241.677 48.5061 240.077 48.9452 239.556Z"/>
</mask>
<path d="M48.9452 239.556C49.5586 238.828 49.5199 238.04 48.7837 236.265L44.1289 241.677C44.873 241.677 48.5061 240.077 48.9452 239.556Z" fill="#949597" stroke="#BEBFC0" mask="url(#path-35-inside-35_0_1)"/>
</g>
<g id="l_heel">
<mask id="path-36-inside-36_0_1" fill="white">
<path d="M85.0841 239.556C84.4707 238.828 84.5094 238.04 85.2456 236.265L89.9004 241.677C89.1563 241.677 85.5232 240.077 85.0841 239.556Z"/>
</mask>
<path d="M85.0841 239.556C84.4707 238.828 84.5094 238.04 85.2456 236.265L89.9004 241.677C89.1563 241.677 85.5232 240.077 85.0841 239.556Z" fill="#949597" stroke="#BEBFC0" mask="url(#path-36-inside-36_0_1)"/>
</g>
</g>
<g id="toes">
<g id="r_toe">
<mask id="path-37-inside-37_0_1" fill="white">
<path d="M27.3031 249.787C26.7922 250.302 26.9201 251.047 27.5638 251.305C27.8865 251.435 28.6944 251.549 29.3595 251.558C30.3396 251.571 30.8305 251.395 31.9497 250.625C32.7093 250.103 33.9706 249.51 34.7528 249.306L30.9499 247.548L29.9643 248.532L27.3031 249.787Z"/>
</mask>
<path d="M27.3031 249.787C26.7922 250.302 26.9201 251.047 27.5638 251.305C27.8865 251.435 28.6944 251.549 29.3595 251.558C30.3396 251.571 30.8305 251.395 31.9497 250.625C32.7093 250.103 33.9706 249.51 34.7528 249.306L30.9499 247.548L29.9643 248.532L27.3031 249.787Z" fill="#949597" stroke="#BEBFC0" mask="url(#path-37-inside-37_0_1)"/>
</g>
<g id="l_toe">
<mask id="path-38-inside-38_0_1" fill="white">
<path d="M106.725 249.787C107.236 250.302 107.108 251.047 106.464 251.305C106.142 251.435 105.334 251.549 104.669 251.558C103.689 251.571 103.198 251.395 102.079 250.625C101.319 250.103 100.058 249.51 99.2755 249.306L103.078 247.548L104.064 248.532L106.725 249.787Z"/>
</mask>
<path d="M106.725 249.787C107.236 250.302 107.108 251.047 106.464 251.305C106.142 251.435 105.334 251.549 104.669 251.558C103.689 251.571 103.198 251.395 102.079 250.625C101.319 250.103 100.058 249.51 99.2755 249.306L103.078 247.548L104.064 248.532L106.725 249.787Z" fill="#949597" stroke="#BEBFC0" mask="url(#path-38-inside-38_0_1)"/>
</g>
</g>
</g>
</g>
</g>
<defs>
<clipPath id="clip0_0_1">
<rect width="134" height="252" fill="white"/>
</clipPath>
</defs>
</svg>
