<svg width="134" height="252" viewBox="0 0 134 252" fill="none" xmlns="http://www.w3.org/2000/svg">
<rect width="134" height="252" fill="#E5E5E5"/>
<g clip-path="url(#clip0_0_1)">
<path d="M5.72363 134.046L5.72367 134.046C6.11675 133.259 6.86032 131.567 7.45627 130.113L9.32501 132.866C9.04053 132.998 8.79339 133.268 8.55933 133.649C8.21668 134.208 7.85711 135.078 7.4228 136.33C6.9879 137.585 6.64311 138.408 6.33109 138.915C6.01689 139.426 5.77908 139.548 5.57618 139.548C5.36613 139.548 5.18394 139.429 5.03872 139.138C4.89015 138.839 4.80249 138.394 4.79533 137.843C4.78108 136.747 5.08707 135.32 5.72363 134.046Z" fill="#949597" stroke="#BEBFC0" stroke-width="0.5"/>
<path d="M128.301 134.002L128.301 134.002C127.908 133.215 127.165 131.523 126.569 130.069L124.7 132.822C124.985 132.953 125.232 133.224 125.466 133.605C125.808 134.164 126.168 135.033 126.602 136.286C127.037 137.541 127.382 138.364 127.694 138.871C128.008 139.382 128.246 139.503 128.449 139.503C128.659 139.503 128.841 139.385 128.986 139.094C129.135 138.795 129.223 138.35 129.23 137.799C129.244 136.702 128.938 135.276 128.301 134.002Z" fill="#949597" stroke="#BEBFC0" stroke-width="0.5"/>
<path d="M10.2231 120.953L8.07711 125.963C8.01612 125.927 7.94833 125.896 7.87159 125.873C7.66125 125.808 7.40767 125.805 7.08313 125.845C6.43762 125.925 5.39783 126.197 3.61254 126.694C2.48788 127.008 1.85218 127.168 1.42714 127.215C1.2195 127.238 1.07344 127.233 0.952622 127.21C0.832784 127.186 0.724598 127.143 0.593557 127.073C0.442127 126.992 0.314586 126.882 0.232495 126.776C0.191597 126.723 0.166037 126.676 0.152668 126.639C0.149042 126.63 0.146594 126.621 0.144946 126.614C0.147273 126.612 0.149819 126.609 0.152599 126.607C0.188115 126.571 0.244802 126.523 0.325114 126.462C0.484609 126.341 0.715935 126.186 1.00468 126.009C1.58086 125.654 2.3687 125.217 3.22808 124.784C4.95097 123.917 6.72844 122.955 7.16808 122.647C7.52091 122.4 8.82168 121.679 10.2231 120.953Z" fill="#949597" stroke="#BEBFC0" stroke-width="0.5"/>
<path d="M123.802 120.919L125.948 125.93C126.009 125.893 126.076 125.863 126.153 125.839C126.363 125.775 126.617 125.771 126.942 125.811C127.587 125.892 128.627 126.163 130.412 126.661C131.537 126.974 132.172 127.134 132.598 127.181C132.805 127.205 132.951 127.199 133.072 127.176C133.192 127.153 133.3 127.109 133.431 127.039C133.583 126.958 133.71 126.848 133.792 126.742C133.833 126.689 133.859 126.642 133.872 126.606C133.876 126.596 133.878 126.588 133.88 126.581C133.877 126.578 133.875 126.576 133.872 126.573C133.837 126.537 133.78 126.489 133.7 126.428C133.54 126.307 133.309 126.153 133.02 125.975C132.444 125.62 131.656 125.183 130.797 124.75C129.074 123.883 127.296 122.921 126.857 122.614C126.504 122.366 125.203 121.645 123.802 120.919Z" fill="#949597" stroke="#BEBFC0" stroke-width="0.5"/>
<path d="M17.52 137.362C17.2842 140.709 17.009 141.55 16.0748 141.785C14.8851 142.083 14.6919 141.567 14.6919 138.091C14.6919 134.564 14.5954 134.065 13.9134 134.065C13.2725 134.065 12.9557 135.059 12.6416 138.054C12.2782 141.519 11.2948 143.106 10.1163 142.128C9.62562 141.722 9.62051 138.093 10.1064 135.368L21.1124 139.912C20.1748 141.342 19.598 140.426 19.3703 137.148C19.1837 134.46 18.8329 133.601 18.1051 134.051C17.8444 134.212 17.6742 135.176 17.52 137.362ZM17.52 137.362L17.2706 137.344C17.3478 136.25 17.4296 135.451 17.5264 134.903C17.5747 134.63 17.6284 134.409 17.6912 134.241C17.7497 134.085 17.8334 133.925 17.9735 133.838L17.9737 133.838C18.1886 133.705 18.437 133.632 18.6822 133.737C18.9124 133.836 19.0634 134.062 19.1721 134.328C19.3914 134.865 19.5267 135.791 19.6197 137.131C19.6763 137.945 19.7541 138.606 19.8522 139.117C19.9516 139.635 20.0676 139.973 20.1866 140.162C20.2451 140.255 20.2925 140.293 20.3203 140.306C20.3398 140.316 20.3598 140.32 20.3967 140.308C20.4417 140.292 20.5103 140.252 20.6014 140.161C20.6911 140.072 20.792 139.945 20.9034 139.775L20.9034 139.775C21.0459 139.558 21.1619 139.172 21.2559 138.076C21.3487 136.993 21.4183 135.267 21.5048 132.418C21.6136 128.831 21.8196 125.124 21.9753 123.947L18.245 120.885L18.245 120.885L14.6177 117.906M17.52 137.362L17.2706 137.344C17.1524 139.023 17.0256 140.039 16.8217 140.663C16.7212 140.97 16.6078 141.163 16.483 141.291C16.3614 141.415 16.2136 141.492 16.014 141.542C15.7231 141.615 15.5481 141.622 15.4346 141.585C15.3445 141.555 15.2531 141.484 15.1713 141.266C15.0862 141.038 15.0265 140.687 14.9901 140.16C14.954 139.636 14.9419 138.959 14.9419 138.091C14.9419 136.338 14.9189 135.303 14.8039 134.708C14.7465 134.411 14.6582 134.176 14.4969 134.019C14.3243 133.851 14.1123 133.815 13.9134 133.815C13.6761 133.815 13.4701 133.912 13.3018 134.101C13.1429 134.279 13.0203 134.536 12.9168 134.86C12.7095 135.511 12.5499 136.531 12.3929 138.028C12.2121 139.752 11.8796 140.968 11.4721 141.625C11.2686 141.954 11.0696 142.106 10.8967 142.149C10.7354 142.189 10.5326 142.149 10.2759 141.936M14.6177 117.906L10.2758 141.936L10.2759 141.936M14.6177 117.906C14.2701 118.408 13.9615 118.766 13.4694 119.133C12.9298 119.535 12.1731 119.944 10.9106 120.588L8.44688 126.34C8.49941 126.431 8.53674 126.533 8.55273 126.656C8.57562 126.831 8.55268 127.031 8.49474 127.273C8.38371 127.737 8.12286 128.434 7.67444 129.552L9.86216 132.776C10.0015 132.783 10.1435 132.803 10.2644 132.865C10.455 132.964 10.548 133.138 10.582 133.349C10.6137 133.545 10.6 133.801 10.5601 134.124C10.5195 134.452 10.4484 134.874 10.3526 135.411C10.1125 136.758 9.99329 138.332 9.99514 139.617C9.99607 140.26 10.0273 140.825 10.087 141.249C10.1169 141.462 10.153 141.632 10.1931 141.756C10.213 141.818 10.2325 141.864 10.2498 141.896C10.2661 141.926 10.2762 141.936 10.2762 141.936C10.2762 141.936 10.2761 141.936 10.2759 141.936M14.6177 117.906L10.2759 141.936" fill="#949597" stroke="#BEBFC0" stroke-width="0.5"/>
<path d="M116.498 137.323C116.734 140.67 117.009 141.512 117.944 141.746C119.133 142.044 119.327 141.529 119.327 138.053C119.327 134.526 119.423 134.027 120.105 134.027C120.746 134.027 121.063 135.02 121.377 138.015C121.74 141.48 122.724 143.067 123.902 142.09C124.393 141.683 124.398 138.055 123.912 135.329L112.906 139.874C113.844 141.303 114.421 140.388 114.648 137.11C114.835 134.421 115.186 133.562 115.913 134.012C116.174 134.173 116.344 135.137 116.498 137.323ZM116.498 137.323L116.748 137.306C116.671 136.211 116.589 135.413 116.492 134.865C116.444 134.592 116.39 134.37 116.327 134.202C116.269 134.046 116.185 133.886 116.045 133.799L116.045 133.799C115.83 133.666 115.582 133.593 115.336 133.698C115.106 133.797 114.955 134.023 114.846 134.29C114.627 134.826 114.492 135.752 114.399 137.092C114.342 137.907 114.264 138.568 114.166 139.078C114.067 139.596 113.951 139.935 113.832 140.124C113.773 140.217 113.726 140.254 113.698 140.268C113.679 140.277 113.659 140.282 113.622 140.269C113.577 140.254 113.508 140.213 113.417 140.123C113.327 140.034 113.227 139.907 113.115 139.737L113.115 139.737C112.973 139.52 112.857 139.133 112.763 138.037C112.67 136.954 112.6 135.228 112.514 132.379C112.405 128.793 112.199 125.085 112.043 123.909L115.774 120.846L115.774 120.846L119.401 117.867M116.498 137.323L116.748 137.306C116.866 138.984 116.993 140 117.197 140.624C117.297 140.932 117.411 141.125 117.536 141.252C117.657 141.376 117.805 141.454 118.005 141.504C118.295 141.577 118.47 141.583 118.584 141.546C118.674 141.517 118.765 141.446 118.847 141.227C118.932 141 118.992 140.649 119.028 140.121C119.065 139.598 119.077 138.921 119.077 138.053C119.077 136.299 119.1 135.264 119.215 134.67C119.272 134.373 119.36 134.137 119.522 133.98C119.694 133.813 119.906 133.777 120.105 133.777C120.342 133.777 120.548 133.874 120.717 134.062C120.876 134.241 120.998 134.497 121.102 134.822C121.309 135.472 121.469 136.493 121.626 137.989C121.806 139.714 122.139 140.929 122.546 141.587C122.75 141.915 122.949 142.067 123.122 142.11C123.283 142.15 123.486 142.11 123.743 141.897M119.401 117.867L123.743 141.897L123.743 141.897M119.401 117.867C119.748 118.37 120.057 118.728 120.549 119.094C121.089 119.496 121.845 119.906 123.108 120.549L125.572 126.302C125.519 126.392 125.482 126.495 125.466 126.617C125.443 126.792 125.466 126.993 125.524 127.234C125.635 127.698 125.896 128.395 126.344 129.514L124.156 132.738C124.017 132.744 123.875 132.764 123.754 132.827C123.563 132.926 123.47 133.1 123.436 133.31C123.405 133.507 123.419 133.763 123.458 134.086C123.499 134.414 123.57 134.835 123.666 135.373C123.906 136.72 124.025 138.293 124.023 139.579C124.022 140.222 123.991 140.786 123.932 141.21C123.902 141.423 123.866 141.593 123.825 141.718C123.805 141.78 123.786 141.826 123.769 141.858C123.752 141.888 123.742 141.897 123.742 141.898C123.742 141.898 123.742 141.897 123.743 141.897M119.401 117.867L123.743 141.897" fill="#949597" stroke="#BEBFC0" stroke-width="0.5"/>
<path d="M18.5603 120.503L14.8942 117.492C15.9247 115.882 16.5377 114.125 17.4461 110.265L24.636 115.204C23.4094 118.379 22.4512 121.382 22.0689 123.383L18.5603 120.503L18.5603 120.503Z" fill="#949597" stroke="#BEBFC0" stroke-width="0.5"/>
<path d="M115.454 120.496L119.12 117.485C118.09 115.875 117.477 114.119 116.568 110.258L109.379 115.197C110.605 118.372 111.563 121.375 111.946 123.376L115.454 120.496L115.454 120.496Z" fill="#949597" stroke="#BEBFC0" stroke-width="0.5"/>
<path d="M18.9877 100.879C19.0995 99.6203 19.4523 97.9185 19.9804 95.9996L30.7808 101.437C30.5878 101.847 30.3996 102.265 30.2342 102.655C29.7054 103.899 28.5307 106.441 27.6245 108.3L27.6245 108.3C26.6319 110.338 25.6658 112.562 24.8184 114.72L17.5639 109.737C18.3175 106.469 18.7067 104.045 18.9877 100.879ZM18.9877 100.879L18.7387 100.857M18.9877 100.879L18.7387 100.857M18.7387 100.857C18.8533 99.5661 19.2155 97.8299 19.7527 95.8849L18.7387 100.857ZM31.1112 101.323L20.0486 95.754L30.4643 102.753C30.6579 102.297 30.8833 101.801 31.1112 101.323Z" fill="#949597" stroke="#BEBFC0" stroke-width="0.5"/>
<path d="M115.038 100.921C114.926 99.6624 114.573 97.9605 114.045 96.0416L103.245 101.479C103.438 101.89 103.626 102.308 103.791 102.697C104.32 103.941 105.495 106.483 106.401 108.342L106.401 108.342C107.393 110.38 108.36 112.604 109.207 114.762L116.461 109.78C115.708 106.512 115.319 104.087 115.038 100.921ZM115.038 100.921L115.287 100.899M115.038 100.921L115.287 100.899M115.287 100.899C115.172 99.6082 114.81 97.872 114.273 95.927L115.287 100.899ZM102.914 101.365L113.977 95.7961L103.561 102.795C103.367 102.339 103.142 101.843 102.914 101.365Z" fill="#949597" stroke="#BEBFC0" stroke-width="0.5"/>
<path d="M31.9624 99.1852L31.9624 99.1853C31.7195 99.568 31.3595 100.25 30.9979 100.994L20.1193 95.5169C20.2581 95.0304 20.4072 94.5322 20.5656 94.0258L21.3443 91.6848C21.5604 91.0711 21.7868 90.4538 22.022 89.8387L33.6643 94.1066C33.5161 94.7081 33.3565 95.351 33.1793 96.0613L33.1792 96.0613C32.9046 97.1626 32.351 98.5735 31.9624 99.1852Z" fill="#949597" stroke="#BEBFC0" stroke-width="0.5"/>
<path d="M102.072 99.2455L102.072 99.2456C102.315 99.6283 102.675 100.31 103.036 101.054L113.915 95.5772C113.776 95.0907 113.627 94.5925 113.469 94.0861L112.69 91.7451C112.474 91.1314 112.248 90.5141 112.012 89.899L100.37 94.1669C100.518 94.7684 100.678 95.4113 100.855 96.1216L100.855 96.1216C101.13 97.2229 101.683 98.6338 102.072 99.2455Z" fill="#949597" stroke="#BEBFC0" stroke-width="0.5"/>
<path d="M31.015 58.814L40.6735 70.5886C40.6574 70.6171 40.641 70.6478 40.6245 70.6802C40.5498 70.8259 40.4557 71.034 40.3464 71.2917C40.1272 71.8088 39.8395 72.5432 39.5119 73.4179C38.8564 75.1682 38.0378 77.4897 37.2821 79.7784C36.7537 81.3788 35.9267 84.4341 35.4423 86.5732C34.7732 89.5282 34.3551 91.32 33.7767 93.6786L22.1944 89.4327C22.5555 88.5073 22.9354 87.5905 23.3279 86.7019C24.8945 83.1556 25.6265 81.0954 26.3007 78.3256C27.6618 72.7331 28.733 68.634 29.3979 66.4702C30.0178 64.4532 30.6298 61.5442 31.015 58.814Z" fill="#949597" stroke="#BEBFC0" stroke-width="0.5"/>
<path d="M103.013 58.814L93.3549 70.5886C93.3709 70.6171 93.3873 70.6478 93.4039 70.6801C93.4786 70.8258 93.5727 71.034 93.6819 71.2917C93.9011 71.8088 94.1888 72.5432 94.5164 73.4179C95.1719 75.1682 95.9905 77.4897 96.7462 79.7784C97.2746 81.3788 98.1016 84.4341 98.586 86.5732C99.2552 89.5282 99.6732 91.32 100.252 93.6786L111.834 89.4327C111.473 88.5073 111.093 87.5904 110.7 86.7019C109.134 83.1556 108.402 81.0954 107.728 78.3256C106.367 72.7331 105.295 68.634 104.63 66.4702C104.011 64.4532 103.399 61.5442 103.013 58.814Z" fill="#949597" stroke="#BEBFC0" stroke-width="0.5"/>
<path d="M33.72 49.6735L33.5053 49.5455L33.72 49.6735C34.3236 48.6616 35.4435 47.3285 36.6026 46.163C37.1806 45.5819 37.764 45.0467 38.2921 44.6179C38.8243 44.1857 39.2862 43.8732 39.623 43.7244C42.0076 42.6708 44.5981 42.1839 47.9018 42.1791C50.0648 42.1761 51.8224 42.0313 53.2492 41.7092L40.9262 70.108L31.107 58.1373C31.2884 56.8215 31.6953 55.1299 32.1782 53.5569C32.6757 51.9365 33.2458 50.4685 33.72 49.6735Z" fill="#949597" stroke="#BEBFC0" stroke-width="0.5"/>
<path d="M100.308 49.6735L100.523 49.5455L100.308 49.6735C99.7047 48.6616 98.5848 47.3285 97.4257 46.163C96.8478 45.5819 96.2643 45.0467 95.7362 44.6179C95.204 44.1857 94.7421 43.8732 94.4054 43.7244C92.0208 42.6708 89.4302 42.1839 86.1265 42.1791C83.9635 42.1761 82.2059 42.0313 80.7792 41.7092L93.1021 70.108L102.921 58.1373C102.74 56.8215 102.333 55.1299 101.85 53.5569C101.353 51.9365 100.783 50.4685 100.308 49.6735Z" fill="#949597" stroke="#BEBFC0" stroke-width="0.5"/>
<path d="M88.5045 83.1333C89.5058 80.3157 90.0956 78.5309 91.3662 74.4801C91.7096 73.3856 92.043 72.3892 92.304 71.6651C92.4342 71.3036 92.5475 71.007 92.6356 70.799C92.6778 70.6995 92.7164 70.6149 92.75 70.5518L80.1851 41.5952H66.9388H53.6637L41.2677 70.0116L45.6797 83.1333H66.9388H88.5045Z" fill="#949597" stroke="#BEBFC0" stroke-width="0.5" stroke-linejoin="round"/>
<path d="M46.8914 88.9396L46.8914 88.9396C46.5538 87.0212 46.0444 84.772 45.6935 83.6333H88.3358C87.9849 84.772 87.4755 87.0212 87.1379 88.9396L87.3841 88.9829L87.1379 88.9396C86.3315 93.523 86.3963 96.2145 87.4465 102.27C87.7941 104.275 88.2536 107.028 88.4676 108.387C88.9802 111.643 90.0419 115.617 91.627 120.224L67.0792 121.315L67.0147 121.318L66.9501 121.315L42.4023 120.224C43.9874 115.617 45.0491 111.643 45.5617 108.387C45.7757 107.028 46.2352 104.275 46.5828 102.27C47.633 96.2145 47.6978 93.523 46.8914 88.9396Z" fill="#949597" stroke="#BEBFC0" stroke-width="0.5"/>
<path d="M58.0116 38.4008C58.3641 37.7176 58.5665 37.2995 58.6471 36.7446C58.7256 36.2039 58.6869 35.5404 58.6053 34.3668C58.5509 33.5842 58.4902 32.8887 58.4161 32.2437H75.6132C75.5391 32.8887 75.4784 33.5842 75.424 34.3668C75.3424 35.5404 75.3037 36.2039 75.3822 36.7446C75.4628 37.2995 75.6652 37.7176 76.0177 38.4008C76.6423 39.6118 77.5607 40.4917 78.8929 41.0952H55.1364C56.4686 40.4917 57.387 39.6118 58.0116 38.4008Z" fill="#949597" stroke="#BEBFC0" stroke-width="0.5"/>
<path d="M77.7183 25.2387C77.5313 25.4819 77.3356 26.0057 77.022 26.9976C76.4372 28.8475 76.1108 30.2409 75.8942 31.9936M77.7183 25.2387L79.2709 16.9867M77.7183 25.2387L77.4726 25.1925L77.483 25.1374M77.7183 25.2387L77.5202 25.0863C77.5077 25.1025 77.4953 25.1196 77.483 25.1374M79.2709 16.9867C79.1874 16.8793 79.2139 16.678 79.2709 16.3113C79.3404 15.864 79.2924 14.0331 79.1641 12.2424M79.2709 16.9867L79.0735 17.1401C79.0454 17.104 79.0245 17.0657 79.009 17.0264M79.2709 16.9867L79.0252 16.9405L79.009 17.0264M79.1641 12.2424C79.146 11.99 79.1288 11.7557 79.1116 11.5371M79.1641 12.2424L78.9148 12.2603M79.1641 12.2424L78.9148 12.2603C78.9148 12.2603 78.9148 12.2603 78.9148 12.2603M79.1116 11.5371H54.9177M79.1116 11.5371V11.7871H78.8801M79.1116 11.5371L78.8624 11.5567C78.8683 11.6316 78.8741 11.7083 78.8801 11.7871M54.9177 11.5371C54.9005 11.7557 54.8833 11.99 54.8651 12.2424M54.9177 11.5371L55.1669 11.5567C55.161 11.6316 55.1551 11.7083 55.1492 11.7871M54.9177 11.5371V11.7871H55.1492M54.8651 12.2424C54.7369 14.0331 54.6889 15.864 54.7584 16.3113C54.8154 16.678 54.8419 16.8793 54.7584 16.9867M54.8651 12.2424L55.1145 12.2603M54.8651 12.2424L55.1145 12.2603M54.7584 16.9867L56.311 25.2387M54.7584 16.9867L54.9558 17.1401C54.9839 17.104 55.0048 17.0657 55.0203 17.0264M54.7584 16.9867L55.0041 16.9405L55.0203 17.0264M56.311 25.2387C56.498 25.4819 56.6937 26.0057 57.0073 26.9976C57.5921 28.8475 57.9184 30.2409 58.1351 31.9936M56.311 25.2387L56.5567 25.1925L56.5463 25.1374M56.311 25.2387L56.5091 25.0863C56.5216 25.1025 56.534 25.1196 56.5463 25.1374M58.1351 31.9936H75.8942M58.1351 31.9936L58.3832 31.9629C58.3741 31.8892 58.3648 31.8161 58.3553 31.7436M58.1351 31.9936V31.7436H58.3553M75.8942 31.9936V31.7436H75.674M75.8942 31.9936L75.6461 31.9629C75.6552 31.8892 75.6645 31.8161 75.674 31.7436M75.674 31.7436H58.3553M75.674 31.7436L55.1145 12.2603M75.674 31.7436C75.8929 30.0741 76.2196 28.7062 76.7836 26.9223L76.7836 26.9222C76.9407 26.4254 77.0701 26.0399 77.1848 25.7464C77.2856 25.4882 77.381 25.2855 77.483 25.1374M75.674 31.7436L55.1145 12.2603M58.3553 31.7436C58.1364 30.0741 57.8097 28.7062 57.2457 26.9223L57.2457 26.9222C57.0886 26.4254 56.9592 26.0399 56.8445 25.7464C56.7437 25.4882 56.6483 25.2855 56.5463 25.1374M56.5463 25.1374L55.0203 17.0264M55.0203 17.0264C55.0585 16.9295 55.0636 16.8269 55.061 16.7387C55.0571 16.6105 55.0333 16.4519 55.0055 16.273C54.9749 16.0763 54.968 15.5318 54.9876 14.7872C55.0068 14.0538 55.0506 13.1522 55.1145 12.2603M55.1145 12.2603L55.1145 12.2603M55.1145 12.2603C55.1264 12.0948 55.1379 11.9374 55.1492 11.7871M77.483 25.1374L79.009 17.0264M79.009 17.0264C78.9708 16.9295 78.9657 16.8269 78.9683 16.7387C78.9722 16.6105 78.996 16.4519 79.0238 16.273C79.0544 16.0763 79.0613 15.5318 79.0417 14.7872C79.0225 14.0538 78.9786 13.1522 78.9148 12.2603M78.9148 12.2603C78.9029 12.0949 78.8914 11.9374 78.8801 11.7871M78.8801 11.7871H55.1492" fill="#949597" stroke="#BEBFC0" stroke-width="0.5" stroke-linejoin="round"/>
<path d="M54.3442 23.4953L54.3442 23.4953C54.584 23.8624 54.771 24.141 54.9268 24.3517C55.0839 24.5641 55.2001 24.6944 55.2962 24.7737C55.3865 24.8481 55.4518 24.8717 55.5132 24.8785C55.5843 24.8864 55.675 24.8748 55.8246 24.8357C55.8247 24.8357 55.8247 24.8357 55.8247 24.8357L55.8879 25.0776C55.9356 25.0651 55.9804 25.059 56.0231 25.061L54.3442 23.4953ZM54.3442 23.4953C53.7517 22.5886 53.4945 21.8179 53.2602 20.1693C53.1558 19.4347 53.0826 18.8785 53.0496 18.4552M54.3442 23.4953L53.0496 18.4552M54.5695 17.3349L55.9762 24.8114L54.5695 17.3349ZM54.5695 17.3349C54.5484 17.3378 54.5276 17.3401 54.5074 17.342C54.3491 17.3567 54.1389 17.3508 53.8829 17.3426L54.5695 17.3349ZM53.0496 18.4552C53.0162 18.0253 53.0275 17.763 53.0732 17.6011M53.0496 18.4552L53.0732 17.6011M53.0732 17.6011C53.0946 17.525 53.1211 17.4814 53.1459 17.454M53.0732 17.6011L53.1459 17.454M53.1459 17.454C53.1699 17.4275 53.2031 17.4044 53.2571 17.3855M53.1459 17.454L53.2571 17.3855M53.2571 17.3855C53.3795 17.3425 53.5691 17.3325 53.8829 17.3426L53.2571 17.3855Z" fill="#949597" stroke="#BEBFC0" stroke-width="0.5"/>
<path d="M79.6851 23.4953L79.6851 23.4953C79.4453 23.8624 79.2583 24.141 79.1025 24.3517C78.9454 24.5641 78.8292 24.6944 78.7331 24.7737C78.6428 24.8481 78.5775 24.8717 78.5161 24.8785C78.445 24.8864 78.3543 24.8748 78.2047 24.8357C78.2046 24.8357 78.2046 24.8357 78.2046 24.8357L78.1414 25.0776C78.0937 25.0651 78.0489 25.059 78.0062 25.061L79.6851 23.4953ZM79.6851 23.4953C80.2776 22.5886 80.5347 21.8179 80.7691 20.1693C80.8735 19.4347 80.9467 18.8785 80.9797 18.4552M79.6851 23.4953L80.9797 18.4552M79.4598 17.3349L78.0531 24.8114L79.4598 17.3349ZM79.4598 17.3349C79.4809 17.3378 79.5017 17.3401 79.5219 17.342C79.6802 17.3567 79.8904 17.3508 80.1463 17.3426L79.4598 17.3349ZM80.9797 18.4552C81.0131 18.0253 81.0018 17.763 80.9561 17.6011M80.9797 18.4552L80.9561 17.6011M80.9561 17.6011C80.9346 17.525 80.9082 17.4814 80.8834 17.454M80.9561 17.6011L80.8834 17.454M80.8834 17.454C80.8594 17.4275 80.8262 17.4044 80.7722 17.3855M80.8834 17.454L80.7722 17.3855M80.7722 17.3855C80.6498 17.3425 80.4602 17.3325 80.1464 17.3426L80.7722 17.3855Z" fill="#949597" stroke="#BEBFC0" stroke-width="0.5"/>
<path d="M56.2326 7.23804L56.2326 7.23803C57.2875 5.08614 59.6532 2.72128 61.8002 1.67204C62.5437 1.30874 63.4911 0.95353 64.3737 0.688643C65.2639 0.421467 66.0581 0.255405 66.5044 0.253049C66.5044 0.253049 66.5044 0.253049 66.5044 0.253049L67.0896 0.250005L67.5244 0.253047L67.5249 0.253049C67.9711 0.255401 68.7654 0.421464 69.6556 0.688643C70.5382 0.95353 71.4856 1.30874 72.229 1.67204C74.3761 2.72128 76.7418 5.08614 77.7967 7.23803L78.0212 7.12799L77.7967 7.23804C78.1713 8.00208 78.3888 8.50224 78.5381 9.09467C78.6765 9.64357 78.7583 10.2799 78.8414 11.2857H55.1879C55.271 10.2799 55.3528 9.64357 55.4912 9.09467C55.6405 8.50224 55.858 8.00208 56.2326 7.23804Z" fill="#949597" stroke="#BEBFC0" stroke-width="0.5"/>
<path d="M67.0142 121.798L67.0031 121.797L42.2315 120.697C41.4233 123.053 40.7483 125.589 40.454 127.372C40.184 129.009 39.8442 130.729 39.6961 131.185C39.6685 131.27 39.6219 131.513 39.562 131.905C39.5036 132.287 39.4355 132.79 39.3619 133.38C39.215 134.559 39.0473 136.078 38.8945 137.652C38.6325 140.35 38.4886 142.772 38.4631 144.952L64.4374 147.85C64.4509 147.388 64.4647 146.888 64.4791 146.346C64.5371 144.18 64.6086 142.465 64.6913 141.245C64.7326 140.635 64.7769 140.145 64.8242 139.782C64.8478 139.601 64.8726 139.448 64.8989 139.325C64.9237 139.21 64.9544 139.1 64.9982 139.019M67.0142 121.798L65.2178 139.139M67.0142 121.798L67.0253 121.797L91.7968 120.697M67.0142 121.798L91.7968 120.697M64.9982 139.019L65.2178 139.139M64.9982 139.019C64.9981 139.019 64.9981 139.019 64.9981 139.019L65.2178 139.139M64.9982 139.019C65.1021 138.828 65.2895 138.612 65.4951 138.417C65.7036 138.22 65.9485 138.029 66.1823 137.891L66.3094 138.106M65.2178 139.139C65.389 138.824 65.8802 138.359 66.3094 138.106M66.3094 138.106L66.1825 137.891M66.3094 138.106L66.1825 137.891M66.1825 137.891L66.8871 137.475L67.0142 137.4L67.1413 137.475L67.8458 137.891M66.1825 137.891L67.0142 137.69L67.7189 138.106M67.8458 137.891L67.7189 138.106M67.8458 137.891L67.846 137.891L67.7189 138.106M67.8458 137.891C68.0797 138.029 68.3247 138.22 68.5333 138.417C68.7388 138.612 68.9262 138.828 69.0302 139.019L68.8105 139.139C68.6394 138.824 68.1481 138.359 67.7189 138.106M91.7968 120.697C92.605 123.053 93.28 125.589 93.5743 127.372C93.8443 129.009 94.1842 130.73 94.3323 131.185C94.3599 131.27 94.4064 131.513 94.4663 131.905C94.5247 132.287 94.5929 132.79 94.6664 133.38C94.8133 134.559 94.981 136.078 95.1339 137.652C95.3959 140.35 95.5397 142.772 95.5652 144.952L69.5909 147.85L91.7968 120.697ZM95.8174 145.176L69.5983 148.101L91.9722 120.438C92.8104 122.853 93.5163 125.485 93.8209 127.331C94.092 128.974 94.429 130.674 94.57 131.108C94.711 131.542 95.0767 134.477 95.3827 137.628C95.6543 140.425 95.7994 142.928 95.8174 145.176ZM64.6867 147.878C64.6842 147.963 64.6818 148.047 64.6793 148.129L64.43 148.101L64.6867 147.878Z" fill="#949597" stroke="#BEBFC0" stroke-width="0.5"/>
<path d="M62.029 161.288L62.029 161.288L59.806 171.486L59.5632 171.427C59.5632 171.427 59.5632 171.427 59.5632 171.427C58.7215 174.865 57.7221 179.146 57.3422 180.94C57.1524 181.837 56.9718 182.585 56.7583 183.308L40.3256 182.537C40.0744 180.763 39.9495 179.834 39.9177 178.455C39.8844 177.017 39.9525 175.093 40.09 171.234C40.3271 164.578 39.9283 156.824 39.16 153.3C38.6831 151.112 38.449 148.532 38.4593 145.455L64.4224 148.352C64.2911 152.633 64.1716 153.389 63.6404 155.154C63.269 156.388 62.5443 159.148 62.029 161.288Z" fill="#949597" stroke="#BEBFC0" stroke-width="0.5"/>
<path d="M71.9993 161.288L71.9993 161.288L74.2223 171.486L74.4651 171.427C74.4651 171.427 74.4651 171.427 74.4651 171.427C75.3068 174.865 76.3062 179.146 76.6861 180.94C76.8759 181.837 77.0565 182.585 77.27 183.308L93.7027 182.537C93.9539 180.763 94.0788 179.834 94.1107 178.455C94.1439 177.017 94.0758 175.093 93.9383 171.234C93.7012 164.578 94.1 156.824 94.8683 153.3C95.3452 151.112 95.5793 148.532 95.569 145.455L69.6059 148.352C69.7373 152.633 69.8567 153.389 70.3879 155.154C70.7593 156.388 71.4841 159.148 71.9993 161.288Z" fill="#949597" stroke="#BEBFC0" stroke-width="0.5"/>
<path d="M53.3563 195.108L53.0934 195.038C53.1058 195.127 53.1196 195.217 53.1347 195.308L53.4004 195.379C53.3843 195.287 53.3696 195.197 53.3563 195.108ZM39.4335 191.645C39.4608 191.565 39.4876 191.485 39.514 191.408L39.2719 191.343C39.2456 191.421 39.2188 191.5 39.1914 191.58L39.4335 191.645ZM40.1428 183.029L40.3969 183.041C40.3854 182.958 40.3737 182.874 40.3616 182.789L40.1074 182.777C40.1195 182.862 40.1313 182.946 40.1428 183.029ZM56.6842 183.554C56.6588 183.637 56.6329 183.719 56.6065 183.801L56.8651 183.813C56.8912 183.731 56.9168 183.649 56.942 183.566L56.6842 183.554Z" fill="#949597" stroke="#BEBFC0" stroke-width="0.5"/>
<path d="M80.6731 195.108L80.9359 195.038C80.9235 195.127 80.9097 195.217 80.8946 195.308L80.629 195.379C80.645 195.287 80.6597 195.197 80.6731 195.108ZM94.5958 191.645C94.5685 191.565 94.5417 191.485 94.5153 191.408L94.7574 191.343C94.7837 191.421 94.8105 191.5 94.8379 191.58L94.5958 191.645ZM93.8865 183.029L93.6324 183.041C93.6439 182.958 93.6556 182.874 93.6677 182.789L93.9219 182.777C93.9098 182.862 93.898 182.946 93.8865 183.029ZM77.3451 183.554C77.3705 183.637 77.3964 183.719 77.4228 183.801L77.1642 183.813C77.1381 183.731 77.1125 183.649 77.0873 183.566L77.3451 183.554Z" fill="#949597" stroke="#BEBFC0" stroke-width="0.5"/>
<path d="M47.7121 229.446H37.8422C37.9865 228.692 38.1083 227.846 38.2259 226.861C38.2908 226.319 38.1831 225.289 37.9953 224.556C37.2278 221.558 36.8303 218.571 36.5731 213.834C36.328 209.322 36.2096 207.042 36.3219 205.171C36.4337 203.308 36.7744 201.849 37.463 198.971C38.0999 196.31 38.9263 193.23 39.3609 191.883L53.1887 195.579C53.3126 196.242 53.5002 196.983 53.7412 197.869L53.7412 197.869C55.0718 202.756 54.5145 208.155 52.3336 211.775C51.4729 213.204 50.4031 215.482 49.5176 217.642C49.0743 218.724 48.6756 219.78 48.3711 220.69C48.0683 221.595 47.8534 222.37 47.7857 222.885L47.7857 222.885C47.6634 223.814 47.6338 226.728 47.7121 229.446Z" fill="#949597" stroke="#BEBFC0" stroke-width="0.5"/>
<path d="M86.3162 229.446H96.1861C96.0419 228.692 95.92 227.846 95.8024 226.861C95.7375 226.319 95.8452 225.289 96.033 224.556C96.8005 221.558 97.198 218.571 97.4553 213.834C97.7003 209.322 97.8187 207.042 97.7064 205.171C97.5946 203.308 97.2539 201.849 96.5653 198.971C95.9284 196.31 95.102 193.23 94.6675 191.883L80.8396 195.579C80.7157 196.242 80.5282 196.983 80.2871 197.869L80.2871 197.869C78.9565 202.756 79.5138 208.155 81.6947 211.775C82.5554 213.204 83.6252 215.482 84.5107 217.642C84.954 218.724 85.3527 219.78 85.6572 220.69C85.96 221.595 86.1749 222.37 86.2427 222.885L86.2427 222.885C86.365 223.814 86.3946 226.728 86.3162 229.446Z" fill="#949597" stroke="#BEBFC0" stroke-width="0.5"/>
<path d="M36.7179 232.925C37.1758 232.018 37.4918 231.087 37.74 229.946H47.7274C47.7895 231.888 47.8422 233.108 47.9317 233.984L36.7179 232.925Z" fill="#949597" stroke="#BEBFC0" stroke-width="0.5"/>
<path d="M97.3114 232.925C96.8535 232.018 96.5375 231.087 96.2893 229.946H86.3019C86.2398 231.888 86.1871 233.108 86.0976 233.984L97.3114 232.925Z" fill="#949597" stroke="#BEBFC0" stroke-width="0.5"/>
<path d="M27.2952 248.982L27.296 248.983C27.3921 249.037 27.4804 249.093 27.55 249.155C27.6003 249.2 27.6522 249.257 27.6867 249.33L29.8187 248.324L30.7735 247.371L30.8969 247.247L31.0551 247.321L34.7764 249.041C35.6822 248.8 36.2514 248.579 36.7398 248.217C37.2466 247.841 37.6857 247.301 38.31 246.378C38.9051 245.497 39.8173 244.373 40.347 243.872L40.5187 244.054L40.347 243.872C40.927 243.324 41.7184 242.721 42.4264 242.255C42.7807 242.022 43.1187 241.82 43.4026 241.675C43.5444 241.602 43.6766 241.542 43.793 241.5C43.8616 241.475 43.9332 241.453 44.0032 241.44L48.4944 236.218C48.2742 235.669 48.131 235.198 48.0297 234.492L36.4989 233.403C36.0641 234.175 35.5197 234.948 34.8246 235.84L34.8246 235.84C33.112 238.038 31.355 239.843 28.4049 242.44C27.5578 243.186 27.0756 243.645 26.7896 244.015C26.517 244.369 26.4266 244.638 26.3788 245.018L27.2952 248.982ZM27.2952 248.982C27.2262 248.943 27.1416 248.854 27.0726 248.721C27.0051 248.591 26.9666 248.445 26.9666 248.32C26.9666 248.121 26.9306 247.918 26.8707 247.747C26.816 247.591 26.7224 247.407 26.5693 247.313L26.4381 247.526L26.5693 247.313C26.5668 247.311 26.5433 247.293 26.5303 247.234C26.518 247.178 26.5214 247.109 26.5456 247.046C26.6045 246.893 26.6185 246.719 26.6012 246.563M27.2952 248.982L26.6012 246.563M26.2359 246.267C26.3618 246.427 26.3962 246.738 26.3122 246.957C26.2282 247.175 26.2849 247.431 26.438 247.526C26.5913 247.62 26.7166 247.978 26.7166 248.32C26.7166 248.663 26.9219 249.059 27.1729 249.2L26.3788 245.018C26.3468 245.274 26.3422 245.536 26.3597 245.75C26.3685 245.857 26.3825 245.947 26.3994 246.015C26.4157 246.081 26.4303 246.108 26.4328 246.112C26.4331 246.113 26.4332 246.113 26.433 246.113L26.2359 246.267ZM26.2359 246.267L26.4326 246.112M26.2359 246.267L26.4326 246.112M26.6012 246.563C26.5842 246.408 26.5333 246.241 26.4326 246.112M26.6012 246.563L26.4326 246.112" fill="#949597" stroke="#BEBFC0" stroke-width="0.5"/>
<path d="M106.734 248.982L106.733 248.983C106.637 249.037 106.549 249.093 106.479 249.155C106.429 249.2 106.377 249.257 106.343 249.33L104.211 248.324L103.256 247.371L103.132 247.247L102.974 247.321L99.2529 249.041C98.3471 248.8 97.7779 248.579 97.2895 248.217C96.7827 247.841 96.3436 247.301 95.7193 246.378C95.1242 245.497 94.212 244.373 93.6823 243.872L93.5106 244.054L93.6823 243.872C93.1023 243.324 92.3108 242.721 91.6028 242.255C91.2486 242.022 90.9106 241.82 90.6267 241.675C90.4849 241.602 90.3527 241.542 90.2362 241.5C90.1677 241.475 90.0961 241.453 90.0261 241.44L85.5348 236.218C85.7551 235.669 85.8983 235.198 85.9996 234.492L97.5303 233.403C97.9652 234.175 98.5096 234.948 99.2047 235.84L99.2047 235.84C100.917 238.038 102.674 239.843 105.624 242.44C106.471 243.186 106.954 243.645 107.24 244.015C107.512 244.369 107.603 244.638 107.65 245.018L106.734 248.982ZM106.734 248.982C106.803 248.943 106.888 248.854 106.957 248.721C107.024 248.591 107.063 248.445 107.063 248.32C107.063 248.121 107.099 247.918 107.159 247.747C107.213 247.591 107.307 247.407 107.46 247.313L107.591 247.526L106.734 248.982Z" fill="#949597" stroke="#BEBFC0" stroke-width="0.5"/>
<path d="M44.8151 241.262L48.7049 236.74C48.9694 237.423 49.1015 237.921 49.1208 238.316C49.1426 238.759 49.0223 239.077 48.7539 239.395C48.7243 239.43 48.6466 239.496 48.5057 239.588C48.371 239.676 48.1969 239.778 47.9934 239.887C47.5868 240.107 47.0746 240.352 46.5507 240.583C46.0268 240.814 45.4955 241.027 45.0511 241.183C44.9689 241.211 44.89 241.238 44.8151 241.262Z" fill="#949597" stroke="#BEBFC0" stroke-width="0.5"/>
<path d="M89.2142 241.262L85.3244 236.74C85.0599 237.423 84.9278 237.921 84.9085 238.316C84.8867 238.759 85.007 239.077 85.2754 239.395C85.305 239.43 85.3827 239.496 85.5236 239.588C85.6583 239.676 85.8324 239.778 86.0359 239.887C86.4424 240.107 86.9547 240.352 87.4786 240.583C88.0025 240.814 88.5338 241.027 88.9782 241.183C89.0604 241.211 89.1393 241.238 89.2142 241.262Z" fill="#949597" stroke="#BEBFC0" stroke-width="0.5"/>
<path d="M27.6572 251.073L27.6568 251.073C27.4114 250.975 27.28 250.793 27.2469 250.6C27.215 250.415 27.2701 250.192 27.4518 249.994L30.071 248.758L30.1103 248.74L30.141 248.709L31.0033 247.848L34.0697 249.266C33.3142 249.55 32.4101 250.005 31.8082 250.419L31.8081 250.419C31.252 250.801 30.8713 251.023 30.5178 251.15C30.1707 251.275 29.8355 251.314 29.3628 251.308C29.0419 251.304 28.6843 251.274 28.3682 251.23C28.0457 251.184 27.7886 251.126 27.6572 251.073Z" fill="#949597" stroke="#BEBFC0" stroke-width="0.5"/>
<path d="M106.725 249.787C107.236 250.302 107.108 251.047 106.464 251.305C106.142 251.435 105.334 251.549 104.669 251.558M106.725 249.787L106.619 250.013L106.577 249.994M106.725 249.787L104.064 248.532L103.078 247.548M106.725 249.787L106.548 249.963C106.558 249.973 106.567 249.983 106.577 249.994M106.577 249.994C106.758 250.192 106.813 250.415 106.781 250.6C106.748 250.793 106.617 250.975 106.372 251.073L106.371 251.073C106.24 251.126 105.983 251.184 105.66 251.23C105.344 251.274 104.986 251.304 104.666 251.308M106.577 249.994L103.957 248.758L103.918 248.74L103.887 248.709L103.025 247.848M104.666 251.308L104.669 251.558M104.666 251.308C104.666 251.308 104.665 251.308 104.665 251.308L104.669 251.558M104.666 251.308C104.193 251.314 103.858 251.275 103.511 251.15C103.157 251.023 102.776 250.801 102.22 250.419L102.22 250.419C101.618 250.005 100.714 249.55 99.9586 249.266M104.669 251.558C103.689 251.571 103.198 251.395 102.079 250.625C101.427 250.177 100.406 249.677 99.6352 249.415L99.9586 249.266M99.9586 249.266C99.8416 249.222 99.7282 249.182 99.6199 249.147L103.078 247.548M99.9586 249.266L103.025 247.848M103.025 247.848L102.902 247.725L103.078 247.548M103.025 247.848L103.183 247.775L103.078 247.548" fill="#949597" stroke="#BEBFC0" stroke-width="0.5"/>
</g>
<defs>
<clipPath id="clip0_0_1">
<rect width="134" height="252" fill="white"/>
</clipPath>
</defs>
</svg>
