<?xml version="1.0" encoding="UTF-8"?>
<svg enable-background="new 0 0 827 1891" version="1.1" viewBox="0 0 827 1891" xmlns="http://www.w3.org/2000/svg">
 <path d="m353.67 45.69c9.12-3.08 18.9-3.85 28.42-2.51 11.81 0.4 22.75 5.43 33.26 10.38 14.36 7.96 28.1 19.15 34.33 34.79 5.43 12.8 5.8 26.95 5.87 40.65-0.11 10.42-0.41 20.88-1.98 31.2 3.86 1.04 7.64 3.11 9.3 6.95 2.11 5.4 2.74 11.41 1.73 17.12-0.81 8.06-1.95 16.21-5.34 23.65-0.31 0.35-0.93 1.05-1.24 1.41-4.13 6.35-8.55 13.14-15.43 16.79-0.56 8.96 0.37 17.91 0.71 26.85 0.08 10.73 1.35 21.39 1.87 32.1-0.18 5.15 3.24 9.56 6.76 12.94 18.13 11.07 36.96 20.98 54.96 32.27 7.31 4.73 15.2 8.42 23.21 11.78 4.51 2.11 9.51 3.41 13.36 6.7 4.96 3.96 9.48 8.44 13.68 13.2 7.07 7.92 16.75 12.69 25.56 18.35 5.9 2.84 9.74 8.25 14.12 12.88 2.82 3.21 6.2 6.08 7.86 10.13 3.26 7.3 7.32 14.25 10.2 21.7 2.99 13.25 6.06 26.5 8.04 39.94 0.7 4.75 1.58 9.48 3.11 14.05 3.83 11.91 6.04 24.5 4.86 37.03 0.08 4.8-1.35 10.15 1.53 14.43 6.39 11.02 12.51 22.2 18.93 33.21 4.07 6.82 6.97 14.25 10.65 21.29 4.31 8.08 5.2 17.79 11.05 25.06 8.15 10.96 14.92 22.84 22.64 34.09 3.44 5.89 7.76 11.26 10.49 17.56 3.05 5.64 4.9 11.79 7.41 17.67 2.14 5.1 3.0699 10.59 5.02 15.75 2.8 8.72 7.14 16.87 9.31 25.8 2.63 7.86 3.94 16.05 6.05 24.05 2.44 8.91 3.38 18.14 5.47 27.13 6 25.01 10.55 50.35 16.47 75.38 2.71 10.88 5.4301 21.88 10.62 31.9 2.9399 5.52 5.4 11.35 6.47 17.54 1.45 7.8 5.09 15.01 6.22 22.89 3.47 22.98 12.14 44.69 20.78 66.13 2.06 4.95 2.74 10.36 4.84 15.32 2.53 6.3 1.39 13.18 1.56 19.79-0.09 5.02 0.29 10.03 0.65 15.04 0.14 5.0801-2.65 9.53-5.27 13.67 0.28 5.8101-3.45 10.48-5.84 15.44-3.27 6-4.86 12.77-8.37 18.65-2.14 3.78-6.34 5.52-9.86 7.75-1.92 3.87-3.58 7.99-6.54 11.23-2.75-1.28-5.19-3.1101-7.77-4.66-2.06-1.24-2.2401-4.03-1.71-6.12 1.29-5.3301 4.79-9.8 6.14-15.11 0.81-4.9801 1.52-9.9801 1.65-15.03 0.06-4.76 2.5-9.49 0.75-14.19-1.88-6.2999-1.28-12.99-2.73-19.34-2.76-5.99-5.37-12.12-6.35-18.7-1.97-2.4-3.91-4.83-5.81-7.2599-3.36-0.22-6.77-0.42-10.09 0.28-1.56 2.02-0.35 4.79-0.12 7.1 2.25 9.59 2.11 19.78-0.97 29.18-0.7599 4.3101-5.41 6.16-9.1299 7.26-2.19 0.73-4.32-0.71-5.19-2.6599-4.86-11.57-6.89-24.15-7.13-36.64-0.32-11.53-4.83-22.43-5.04-33.95-0.49-11.74 3.34-23.09 7.53-33.88 4.55-9.23 4.14-19.94 2.6-29.84-2.72-15.25-8.69-29.64-13.85-44.16-8.76-21.06-20.21-40.85-31.25-60.76-8.34-15-16.7-29.99-24.93-45.05-6.05-11.41-12.72-22.53-17.27-34.66-4.23-10.18-7.35-20.79-9.86-31.51-5.95-20.99-20.6-37.64-32.06-55.72-3.4-5.6-7.87-10.57-10.29-16.71-2.47-6.2-6.33-11.69-9.24-17.66-8.71-20.34-16.91-40.9-24.45-61.71-1.2-2.8-1.65-6.22-4.38-8.02-0.56 4.61-0.8 9.25-1.64 13.83-0.89 4.96 2.74 10.04 0.15 14.77-2.14 4.8-4.09 9.69-6.48 14.37-6.31 10.25-12.01 21.22-14.04 33.21-2.27 13.33-5.64 26.43-8.9901 39.52-1.17 6.19-3.99 11.89-5.4399 18.02-1.79 7.21-4.19 14.45-3.98 21.97 0.96 11.09 2.72 22.09 5.11 32.96 2.4901 11.3 5.72 22.49 6.9301 34.04 0.77 6.02-0.86 12.08 0.3 18.08 3 17.72 10.69 34.25 13.9 51.92 1.7401 8.59 0.76 17.37 1.13 26.06-0.23 17.32 0.85 34.61 1.78 51.9 0.36 6.07 0 12.22 1.07 18.24 1.65 7.09 4.1 13.98 5.62 21.11 1.49 9.17 3.22 18.36 2.9 27.71-0.05 26.74-0.87 53.51-3.41 80.14-1.03 13.31-2.12 26.61-3.36 39.91-1.09 9.99-2.76 19.92-3.24 29.97-1.67 24.4-4.13 48.74-7.63 72.94-2.25 15.96-4.05 31.99-5.28 48.06-0.21 11.02-1.38 22-1.86 33.02 0.15 13.65 0.18 27.32-0.41 40.97-0.7 12.02-3.14 24.14-0.93 36.14 1.32 8.63 5.03 16.61 7.59 24.91 6.13 20.54 10.98 41.58 12.37 63.04 1.14 17.73 2.05 36.01-3.16 53.23-6.08 12.02-7.12 25.66-10.59 38.52-7.32 35.29-15.96 70.28-25.12 105.13-3.07 12.82-7.26 25.73-6.28 39.08-0.05 6.0499 4.22 10.78 6.66 16.01 4.17 8.76 8.89 17.24 12.99 26.03 2.36 5.7101 4.98 11.6 4.49 17.94 0.5 9.98-5.07 18.81-10.75 26.53-4.16 5.9601-9.2 11.82-10.3 19.27-1.63 9.14-6.72 17.09-9.87 25.72-2.17 6.3799-7.5 10.8-11.69 15.83-1.23 0.4399-2.46 0.9399-3.68 1.4299-2.68 4.6001-5.72 9.3401-10.49 12.01-2.75 1.63-6.02 0.3201-8.8-0.5199-0.2-0.76-0.62-2.27-0.82-3.03-3.13 2.73-4.1 7.64-8.59 8.72l0.11 0.8199c-3.64-0.2999-7.49-1.2599-8.89-5.0399-2.17 4.12-5.38 8.7999-10.59 8.78-3.2 0.48-5.43-2.1001-7.94-3.53-2.2 1.9-4.24 4.3199-7.24 4.9099-5.41 1.13-12.92-0.49-14.07-6.84-3.82 2.27-8.26 4.1901-12.78 3.12-4.73-1.33-8.62-4.95-10.88-9.24-1.72-4.6799-1.1-10.08 1.52-14.3 2.08-4.3401 5.76-7.6101 8.11-11.75 1.41-6.12 1.04-12.72 3.8-18.48 3.85-7.46 10.94-12.46 15.35-19.54 5.34-7.5601 9.28-16 11.97-24.84 3.97-11.36 8.91-22.37 13.92-33.3 5.59-11.51 3.12-24.79 6.07-36.91 2.82-7.3199 4.91-14.98 5.44-22.83 2.41-37.92 4.64-76.2-0.83-113.96-1.83-12.3-3.45-24.63-5.04-36.95-0.74-6.52-4.2-12.49-4.11-19.12-0.16-10.99-0.72-21.97-0.41-32.96 0.13-6.7101 1.89-13.28 1.74-20.01-0.01-11.37 0.52-23.2-3.78-33.96-5.79-14.95-10.59-30.33-13.63-46.07-1.37-5.34-0.83-11.31-3.98-16.06-6.12-9.23-9.04-20.12-11.15-30.87-3.71-18.8-5.26-37.99-5.36-57.14-0.24-17.96-0.68-35.94 0.11-53.9 0.44-10.85 0.08-21.73 1.04-32.56 1.11-14.8 0.96-29.66 2.07-44.46 0.14-5.71 1.03-11.39 0.76-17.09-1.98-12.14-2.04-24.5-3.85-36.66-0.89-8.03-1.31-16.1-2.46-24.1-1.32-16.34-1.86-32.73-1.73-49.12 0.28-7.02 1.8-13.95 1.83-20.98-0.42-0.86-1.26-2.59-1.68-3.45-2.86 6.07-3.02 12.9-4.62 19.34-3.65 14.5-4.87 29.46-7.8 44.11-5.4 27.14-12.76 53.84-19.6 80.65-5.6 21.52-10.93 43.13-17.47 64.39-2.03 7.1801-4.05 14.37-6.8 21.32-4.85 13.02-5.93 26.95-7.65 40.62-2.51 21.48-4.9 43.15-11.14 63.94-3.31 10.74-1.45 22.32-4.74 33.07-0.96 4.58-3.37 9.0499-2.56 13.85 1.98 17.35 9.98 33.16 14.75 49.8 4.81 15.57 7.27 31.73 9.47 47.84 1.06 10.1 2.28 20.39 0.35 30.48-1.94 10.39-8.12 19.53-9.68 30 0.21 40.11-2.3 80.56 4.1 120.36 0.99 7.26 3.65 14.11 5.95 21.04 2.25 6.59 3.44 13.52 6.28 19.92 1.05 2.1 0.44 4.4701 0.11 6.7001-1.07 5.62-2.88 11.08-4.19 16.66-0.8 2.76 0.35 5.52 0.8 8.25 2.31 10.89-1.54 22.04-7.05 31.36-2.61 4.0499-6.29 7.36-8.22 11.86-4.43 9.2799-10.71 17.52-15.23 26.76-2.8 5.47-3.2 11.76-5.64 17.37-2.07 4.62-6.11 7.8999-9.74 11.29-4.25 3.9701-10.34 4.41-15.63 6.1901-0.42 3.36-0.88 7.11-3.65 9.45-5.45 4.96-12.83 7.9-20.2 8.1-5.14 0.0601-9.86-2.86-12.32-7.33-2.67 1.38-5.5 3-8.63 2.54-4.61-0.2101-8.42-3.4301-10.24-7.51-2-0.8301-4.33-1.3-5.83-2.9601-1.36-1.88-1.92-4.1899-2.71-6.3099-1.58-0.91-3.27-1.6801-4.57-2.96-1.48-2.6901-0.11-7.24-4.01-7.91-3.39-6.67-1.44-14.4 1.37-20.88 1.17-4.22 5.82-5.46 8.7-8.2 3.54-2.8201 4.37-7.5701 7.17-10.92 3.46-3.23 7.71-5.5 11.02-8.9 4.12-4.23 7.78-8.89 12.15-12.87 5.91-5.5 12.07-10.99 16.01-18.15 3.52-6.2999 7.54-12.28 11.36-18.39 3.75-5.7799 3.85-12.94 3.83-19.58-0.29-5.63 3.33-10.48 3.75-16.01 0.53-9.45-2.33-18.58-5.37-27.39-6.93-19.48-14.8-38.59-22.48-57.77-8.89-22.09-17.04-44.47-24.72-67-3.47-9.1799-5.26-18.86-7.83-28.3-2.51-9.38-4.64-18.86-6.27-28.44-5.03-24.29-6.54-49.46-2.88-74.06 1.64-14.77 4.41-29.37 6.47-44.07 0.99-6.9099 1.34-13.91 0.79-20.87-0.95-16.96-1.51-33.96 0.09-50.91 1.04-7.91-0.35-15.82-1.13-23.68-4.03-26.53-8.35-53.03-10.94-79.74-2.93-31.3-3.96-62.83-1.84-94.21 2.08-36.74 6.18-73.43 13.81-109.46 2.87-16.6 5.83-33.25 6.61-50.1 0.34-18.5 1.22-37.26 6.39-55.13 2.7-8.13 5.87-16.1 8.53-24.25 1.87-6.76 2.5-13.77 3.28-20.72 0.75-6.28 3.65-12.04 4.98-18.18-0.37-3.43-2.36-6.45-3.03-9.82-1.7-10.25-1.14-20.71 0.41-30.93 1.84-10.64 4.51-21.15 5.62-31.91 1.05-8.31 1.84-16.66 2.56-25 0.26-3.04 0.19-6.13-0.45-9.11-3.99-15.03-7.53-30.2-10.39-45.49-0.82-3.54-1.32-7.19-2.58-10.61-2.01 0.23-2.82 2.3799-4.04 3.73-2.89 4.18-6.81 7.8-8.38 12.77-3.26 9.24-5.53 18.8-9.16 27.92-2.14 7.65-4.4 15.28-6.76 22.87-6.25 17.23-14.14 33.88-23.64 49.55-10.73 17.43-22.24 34.37-33.71 51.32-11.09 16.36-22.67 32.45-32.2 49.8-4.33 7.93-9.25 15.58-13.02 23.8-2.21 4.3 0.42 8.92 0.28 13.41 0.02 9.02-3.67 17.51-7.8 25.35-1.92 3.65-2.17 7.86-3.44 11.74-2.84 8.9301-7.69 17.12-13.56 24.39-4.09 4.88-6.65 10.83-8.86 16.75-0.75 1.18 0.29 2.33 0.78 3.39 1.42 2.32 2.66 4.75 4.14 7.05 2.25 3.01 5.56 5.02 7.87 7.99 2.25 2.77 3.25 6.26 4.35 9.59-1 1.55-2.06 3.07-3.14 4.58-7.45-4.59-13.82-10.74-19.8-17.08-1.67 0.71-2.75 2.16-3.83 3.55 2.73 5.13 5.48 10.31 7.05 15.95 4.24 2.99 9.44 5 12.36 9.51 1.64 2.49 3.19 5.26 3.33 8.31-0.36 1.88-1.8 3.31-2.81 4.88-5.95-0.31-9.97-5.05-14.42-8.35-3.66-2.83-8.15-5.06-10.24-9.41-2.5-4.79-5.57-9.24-8.24-13.92-1.71-0.1201-3.42-0.25-5.13-0.34 4.72 6.94 7.1 15.12 8.02 23.4 6.24 5.05 13.19 10.43 15.27 18.62 0.91 2.6-0.96 4.96-1.93 7.2599-5.54-0.9-9.49-5.1-13.76-8.33-3.85-3.07-8.21-5.88-10.55-10.38-2.35-3.96-3.15-8.59-5.39-12.58-0.61-0.39-1.84-1.16-2.45-1.55-2.13 6.73 2.82 12.92 1.85 19.68-0.25 4.83-1.59 11.97-7.78 11.87-1.75-3.85-3.55-7.72-4.49-11.85-1-4.71-3.34-9.14-3.31-14.03 0.05-3.35 0.44-6.69 0.33-10.03 0.02-4.71-1.08-9.5 0.29-14.12 3.31-11.74 5.11-23.84 6.19-35.97 0.28-2.81 1.62-5.34 2.87-7.81 5.23-9.96 10-20.15 15.34-30.05 8.1-14.63 12.91-30.72 18.81-46.29 4.49-10.78 8.84-21.61 13.42-32.35 6.35-15.01 11.62-30.47 15.9-46.19 6.58-21.56 9.28-44.07 15.51-65.72 1.71-9.56 3.13-19.19 5.47-28.63 3.83-11.04 7.27-22.29 12.97-32.57 7.24-16.11 17.96-30.29 26.92-45.44 0.13-3.83 0.73-7.6 1.56-11.32 1.58-9.22 2.81-18.56 5.68-27.49 3.96-13.46 9.17-26.51 14.04-39.66 0.97-2.99 2.55-6.0699 1.79-9.28-1.9-10.02-5.21-19.8-5.78-30.04-0.75-9.4 1.17-18.71 1.15-28.11 0.09-10.7 1.25-21.35 2.06-32 0.54-6.97 3.31-13.45 5.26-20.08 1.57-4.6 2.33-9.65 5.49-13.52 3.45-4.48 6.33-9.43 10.12-13.63 6.94-5.54 14.07-11.19 22.59-14.06 6.86-1.82 14.52-3.55 19.31-9.21 2.96-3.17 6.73-5.38 10.36-7.69 4.81-2.92 9.4-6.38 14.86-8.05 6.44-2.48 13.46-3.83 19.18-7.88 4.99-3.29 9.9-6.71 14.89-10 8.97-5.51 18.37-10.31 27.01-16.36-0.46-2.24-0.89-4.48-1.33-6.71-2.88-1.35-5.83-2.79-7.97-5.22-5.38-5.95-7.8-13.75-11.06-20.91-3.82-6.45-7.52-13.15-9.11-20.56-2.38-9.93-2.94-20.15-4.44-30.21-1.05-7.36-4.28-14.28-4.51-21.77-0.6-10.72 1.19-21.43 0.43-32.15-0.73-8.78 2.88-17.25 1.9-26.03-0.33-14.61-1.31-30.26 5.97-43.52 9.1-16.7 22.43-31.39 39.13-40.7 6.7197-3.5597 13.4-7.4197 20.91-9.0297z"/>
</svg>
