<svg 
          width="18.677215576171875" 
          height="38.11598205566406" fill="none" 
          xmlns="http://www.w3.org/2000/svg">
          <path d="M 1.7238064061236011 33.03759419167817 C 1.9072093758351913 33.75323489985205 2.008323887824272 34.75041494287388 1.94840502495069 35.25146188070729 C 1.8152629417174249 36.36577448309876 1.6772938013913243 37.29796636254768 1.5082792511873409 38.11598205566406 L 11.940466602534874 38.11598205566406 C 11.852460774983864 35.323309953907206 11.881140111563536 32.27272978736049 12.00423000869001 31.337573437955047 C 12.261841708354906 29.381620091762017 14.816375708612265 23.14955263782877 16.518445892888668 20.324396164721446 C 18.741159669120734 16.63495831824425 19.29797057764435 11.16280505851961 17.95314696756458 6.223210597547789 C 17.69307150125823 5.267382343461141 17.497743731828415 4.488744140426572 17.377216153771275 3.798697207824976 L 3.1682670347754103 0 C 2.755437889846839 1.212750137559759 1.8655228296016364 4.512380573737619 1.1905486908072087 7.3326152933005195 C -0.18482567261925076 13.081366126723433 -0.1952713782328177 13.255597751171907 0.2941316961774227 22.267551684355066 C 0.5518419335849942 27.01322422099429 0.9507742610139774 30.018515794238244 1.7238064061236011 33.03759419167817 L 1.7238064061236011 33.03759419167817 Z" fill="rgb(158,94,225)"/>
        </svg>