<svg 
          width="14.849987983703613" 
          height="24.874086380004883" fill="none" 
          xmlns="http://www.w3.org/2000/svg">
          <path d="M 14.36176586151123 14.886695861816406 C 14.475690491497517 11.13327431678772 14.695361897349358 7.271576404571533 14.849987983703613 6.304920196533203 L 11.010746955871582 3.1529557704925537 L 7.171505928039551 0 C 6.352845132350922 1.2324373722076416 5.954502820968628 1.5287363529205322 3.3235929012298584 2.8674862384796143 L 0.769612193107605 8.830828666687012 C 1.0713843703269958 9.194063007831573 0.9620422124862671 9.650804996490479 0 12.04382038116455 L 2.3350799083709717 15.485197067260742 C 3.0661784410476685 15.485197067260742 3.097222328186035 15.677162408828735 2.713564395904541 17.82900619506836 C 2.227630525827408 20.55474042892456 2.2327356338500977 24.18314242362976 2.723419666290283 24.589689254760742 C 3.9018890857696533 25.567173540592194 4.885326951742172 23.980353832244873 5.248683452606201 20.51535415649414 C 5.562863141298294 17.519901275634766 5.879604816436768 16.52666473388672 6.520480155944824 16.52666473388672 C 7.202549695968628 16.52666473388672 7.299030780792236 17.025755167007446 7.299030780792236 20.552770614624023 C 7.299030780792236 24.02859854698181 7.492190957069397 24.544408947229385 8.68189525604248 24.246143341064453 C 9.616156101226807 24.011862099170685 9.891308173537254 23.170210599899292 10.127140045166016 19.823335647583008 C 10.281273365020752 17.637038946151733 10.45147117972374 16.673337444663048 10.712236404418945 16.511899948120117 C 11.440033435821533 16.062040627002716 11.790775284171104 16.921403646469116 11.97743034362793 19.609731674194336 C 12.205082505941391 22.887700080871582 12.781900465488434 23.803166151046753 13.719511985778809 22.37385368347168 C 14.082769960165024 21.820634961128235 14.189006447792053 20.5813045501709 14.36176586151123 14.886695861816406 Z" fill="rgb(158,94,225)"/>
        </svg>