<svg 
          width="14.849998474121094" 
          height="24.874095916748047" fill="none" 
          xmlns="http://www.w3.org/2000/svg">
          <path d="M 14.361801147460938 14.886699676513672 C 14.47572585940361 11.13327693939209 14.695397078990936 7.27157860994339 14.85002326965332 6.304922103881836 L 11.01077938079834 3.152956962585449 L 7.171535491943359 0 C 6.3528741002082825 1.2324377298355103 5.954531669616699 1.5287365913391113 3.323619842529297 2.8674869537353516 L 0.7696376442909241 8.830829620361328 C 1.0714100301265717 9.19406408071518 0.9620677735147183 9.65080714225769 0.000024845772713888437 12.0438232421875 L 2.335106611251831 15.48520278930664 C 3.066205680370331 15.48520278930664 3.0972493290901184 15.677167654037476 2.7135910987854004 17.829011917114258 C 2.2276568710803986 20.554747104644775 2.2327622175216675 24.183151841163635 2.7234466075897217 24.589698791503906 C 3.9019168615341187 25.56718337535858 4.885354816913605 23.980360746383667 5.248711585998535 20.51535987854004 C 5.562891513109207 17.519906044006348 5.87963342666626 16.526670455932617 6.520509243011475 16.526670455932617 C 7.2025792598724365 16.526670455932617 7.299060821533203 17.02575993537903 7.299060821533203 20.552776336669922 C 7.299060821533203 24.028605222702026 7.492220520973206 24.544416666030884 8.681925773620605 24.246150970458984 C 9.616187274456024 24.01186965405941 9.891340434551239 23.170217275619507 10.127172470092773 19.823341369628906 C 10.281305894255638 17.637043952941895 10.451503425836563 16.67334321141243 10.712268829345703 16.511905670166016 C 11.440066397190094 16.062046200037003 11.790809482336044 16.921408653259277 11.97746467590332 19.609737396240234 C 12.205117002129555 22.887706756591797 12.781935095787048 23.803176045417786 13.719547271728516 22.373863220214844 C 14.08280548453331 21.82064437866211 14.18904161453247 20.581310272216797 14.361801147460938 14.886699676513672 Z" fill="rgb(0,0,0)"/>
        </svg>