<svg 
          width="22.684123992919922" 
          height="16.647750854492188" fill="none" 
          xmlns="http://www.w3.org/2000/svg">
          <path d="M 1.0733292441905407 16.06107026259561 C 1.438755327837342 16.26778898541808 1.4647740412396344 16.383938374367865 1.2037131670289587 16.647750854492188 L 3.8649764010355834 15.392678863460823 L 4.850581648701326 14.408303962143995 L 8.653457499699657 16.16639308986663 C 10.581799538839777 15.663377537354899 11.165220671382166 15.231236182597197 12.417504735017053 13.378642648359664 C 13.006838071408774 12.50648650785412 13.907491418885078 11.398074455639861 14.419068251944957 10.914746382379004 C 15.552697287882005 9.843746431542366 17.536033178825832 8.537487604661214 18.029378097822462 8.537487604661214 L 22.684123992919922 3.1253933157547253 C 22.416263106248017 2.4796433626541976 22.25887697261489 1.9815461008828887 22.151456682988183 1.122186786686425 L 10.260030888582348 0 C 9.821677266164167 0.8032499044541629 9.262403805353406 1.6045285614999627 8.52780667641875 2.547559721185963 C 6.827806615633453 4.728934581360992 5.0828667801922744 6.522478820668754 2.140043568214154 9.113353530893908 C 0.4519681269504616 10.599759622494588 0.13640854558539925 11.009259472544713 0.031156371936529516 11.847946886589105 C -0.03694218024658425 12.391321818503785 0.010361174105814469 12.966184753730667 0.13630900561048212 13.127622242005799 C 0.2621582847201114 13.288075353384722 0.2965526887732378 13.599141782297652 0.21258747266519362 13.817673013206306 C 0.12862225655714943 14.03620424411496 0.18528970748178755 14.292144598730435 0.33843753009056377 14.386644590078276 C 0.4916839050943783 14.481144581426118 0.6170400257283439 14.838464388396144 0.6170400257283439 15.181026844197282 C 0.6170400257283439 15.52358929999842 0.8223205380513481 15.920304645135893 1.0733292441905407 16.06107026259561 Z" fill="rgb(0,0,0)"/>
        </svg>