<svg 
          width="18.67721176147461" 
          height="38.11598205566406" fill="none" 
          xmlns="http://www.w3.org/2000/svg">
          <path d="M 1.7238060540475888 33.03759419167817 C 1.90720898630034 33.75323489985205 2.0083234776374534 34.75041494287388 1.9484046270019009 35.25146188070729 C 1.8152625709620223 36.36577448309876 1.6772934588152024 37.29796636254768 1.5082789431313186 38.11598205566406 L 11.940464163773855 38.11598205566406 C 11.85245835419745 35.323309953907206 11.881137684919556 32.27272978736049 12.004227556905738 31.337573437955047 C 12.261839203955155 29.381620091762017 14.816372682465907 23.14955263782877 16.518442519105776 20.324396164721446 C 18.74115584136331 16.63495831824425 19.297966636161995 11.16280505851961 17.95314330075352 6.223210597547789 C 17.693067887565856 5.267382343461141 17.49774015803044 4.488744140426572 17.37721260459026 3.798697207824976 L 3.1682663876779054 0 C 2.7554373270669457 1.212750137559759 1.8655224485809851 4.512380573737619 1.1905484476455437 7.3326152933005195 C -0.1848256348698345 13.081366126723433 -0.19527133834993526 13.255597751171907 0.29413163610297677 22.267551684355066 C 0.5518418208749434 27.01322422099429 0.9507740668246478 30.018515794238244 1.7238060540475888 33.03759419167817 L 1.7238060540475888 33.03759419167817 Z" fill="rgb(0,0,0)"/>
        </svg>